<svg version="1.1" id="Layer_1" xmlns="http://www.w3.org/2000/svg" x="0" y="0" viewBox="0 0 643.4 642" xml:space="preserve">
  <style>
    .api0,.api1{fill:none;stroke:gray;stroke-linecap:round;stroke-linejoin:round;stroke-miterlimit:10}.api2,.api4{stroke:#ee5586}.api2{stroke-linecap:round;stroke-linejoin:round;stroke-miterlimit:10;fill:#fff}.api4{fill:none}.api4,.api5,.api8{stroke-linecap:round;stroke-linejoin:round;stroke-miterlimit:10}.api5{stroke:gray;stroke-width:2;fill:none}.api8{fill:#fff}
  </style>
  <path class="api0" d="M145.7 125.9l-20.5 20.5M58.3 307v29M583.3 336.1v-29M335.3 59.1h-29M516.6 146.2l-20.5-20.5M495.9 517.3l20.6-20.5M306.3 584.1h29M125 497l20.5 20.5"/>
  <g>
    <path class="api1" d="M320.8 111.6v35.1"/>
    <path transform="rotate(90 320.7671 86.3423)" class="api1" d="M319 77.3h3.5v18H319z"/>
    <path transform="rotate(90 320.853 107.1674)" class="api1" d="M316.6 105.4h8.5v3.5h-8.5z"/>
    <path id="svg-concept" class="api2" d="M309.3 101.7V89.4c0-.7.6-1.3 1.3-1.3H331c.7 0 1.3.6 1.3 1.3v12.3c0 .7-.6 1.3-1.3 1.3h-20.5c-.7-.1-1.2-.6-1.2-1.3z"/>
    <animateMotion path="M0, 0 0 0 0 -35" begin="0s" dur="1s" fill="freeze"/>
  </g>
  <g>
    <path class="api1" d="M469.2 173.1l-24.8 24.8"/>
    <path transform="rotate(135 487.1119 155.1956)" class="api1" d="M485.4 146.2h3.5v18h-3.5z"/>
    <path transform="rotate(135 472.447 169.982)" class="api1" d="M468.2 168.2h8.5v3.5h-8.5z"/>
    <path id="svg-concept" class="api2" d="M468.1 157.9l8.7-8.7c.5-.5 1.3-.5 1.8 0l14.5 14.5c.5.5.5 1.3 0 1.8l-8.7 8.7c-.5.5-1.3.5-1.8 0l-14.5-14.5c-.5-.5-.5-1.3 0-1.8z"/>
    <animateMotion path="M0 0 25 -25" begin="0.5s" dur="1s" fill="freeze"/>
  </g>
  <g>
    <path class="api1" d="M530.8 321.6h-35.1"/>
    <path transform="rotate(-180 556.0714 321.5506)" class="api1" d="M554.3 312.6h3.5v18h-3.5z"/>
    <path transform="rotate(-180 535.2463 321.6364)" class="api1" d="M531 319.9h8.5v3.5H531z"/>
    <path id="svg-concept" class="api2" d="M540.7 310.1H553c.7 0 1.3.6 1.3 1.3v20.5c0 .7-.6 1.3-1.3 1.3h-12.3c-.7 0-1.3-.6-1.3-1.3v-20.5c.1-.8.6-1.3 1.3-1.3z"/>
    <animateMotion path="M0, 0 35 0 0" begin="1s" dur="1s" fill="freeze"/>
  </g>
  <g>
    <path class="api1" d="M469.1 469.9l-24.8-24.7"/>
    <path transform="rotate(-135 486.9561 487.8257)" class="api1" d="M485.2 478.8h3.5v18h-3.5z"/>
    <path transform="rotate(-135 472.1698 473.1608)" class="api1" d="M467.9 471.4h8.5v3.5h-8.5z"/>
    <path id="svg-concept" class="api2" d="M484.2 468.8l8.7 8.7c.5.5.5 1.3 0 1.8l-14.5 14.5c-.5.5-1.3.5-1.8 0l-8.7-8.7c-.5-.5-.5-1.3 0-1.8l14.5-14.5c.6-.4 1.4-.4 1.8 0z"/>
    <animateMotion path="M0 0 25 25" begin="1.5s" dur="1s" fill="freeze"/>
  </g>
  <g>
    <path class="api1" d="M320.8 531.6v-35.1"/>
    <path transform="rotate(-90 320.837 556.8803)" class="api1" d="M319.1 547.9h3.5v18h-3.5z"/>
    <path transform="rotate(-90 320.7512 536.0553)" class="api1" d="M316.5 534.3h8.5v3.5h-8.5z"/>
    <path id="svg-concept" class="api2" d="M332.3 541.5v12.3c0 .7-.6 1.3-1.3 1.3h-20.5c-.7 0-1.3-.6-1.3-1.3v-12.3c0-.7.6-1.3 1.3-1.3H331c.8.1 1.3.6 1.3 1.3z"/>
    <animateMotion path="M0, 0 0 0 0 35" begin="2s" dur="1s" fill="freeze"/>
  </g>
  <g>
    <path class="api1" d="M172.4 470.1l24.8-24.7"/>
    <path transform="rotate(-45 154.49 488.031)" class="api1" d="M152.7 479h3.5v18h-3.5z"/>
    <path transform="rotate(-45 169.155 473.2448)" class="api1" d="M164.9 471.5h8.5v3.5h-8.5z"/>
    <path id="svg-concept" class="api2" d="M173.5 485.3l-8.7 8.7c-.5.5-1.3.5-1.8 0l-14.5-14.5c-.5-.5-.5-1.3 0-1.8l8.7-8.7c.5-.5 1.3-.5 1.8 0l14.5 14.5c.5.5.5 1.3 0 1.8z"/>
    <animateMotion path="M0 0 -25 25" begin="2.5s" dur="1s" fill="freeze"/>
  </g>
  <g>
    <path class="api1" d="M110.9 321.5h35M83.8 312.5h3.5v18h-3.5zM102.1 319.7h8.5v3.5h-8.5z"/>
    <path id="svg-concept" class="api2" d="M100.9 333H88.6c-.7 0-1.3-.6-1.3-1.3v-20.5c0-.7.6-1.3 1.3-1.3h12.3c.7 0 1.3.6 1.3 1.3v20.5c-.1.7-.6 1.3-1.3 1.3z"/>
    <animateMotion path="M0, 0 -35 0 0" begin="3s" dur="1s" fill="freeze"/>
  </g>
  <g>
    <path class="api1" d="M172.5 173.3l24.8 24.8"/>
    <path transform="rotate(45 154.652 155.3991)" class="api1" d="M152.9 146.4h3.5v18h-3.5z"/>
    <path transform="rotate(45 169.4384 170.0639)" class="api1" d="M165.2 168.3h8.5v3.5h-8.5z"/>
    <path id="svg-concept" class="api2" d="M157.4 174.4l-8.7-8.7c-.5-.5-.5-1.3 0-1.8l14.5-14.5c.5-.5 1.3-.5 1.8 0l8.7 8.7c.5.5.5 1.3 0 1.8l-14.5 14.5c-.5.5-1.3.5-1.8 0z"/>
    <animateMotion path="M0 0 -25 -25" begin="3.5s" dur="1s" fill="freeze"/>
  </g>
  <path id="svg-concept" d="M531 321.6c0 116.1-94.1 210.2-210.2 210.2s-210.2-94.1-210.2-210.2 94.1-210.2 210.2-210.2S531 205.5 531 321.6z" fill="#fff" stroke="#ee5586" stroke-width="3" stroke-linecap="round" stroke-linejoin="round" stroke-miterlimit="10"/>
  <g>
    <path id="svg-concept" d="M619.8 321.2c0 160.2-129.8 290-290 290s-290-129.8-290-290 129.8-290 290-290 290 129.8 290 290z" fill="none" stroke-linecap="round" stroke-linejoin="round" stroke-dasharray="7.9921,7.9921"/>
    <animate attributeName="stroke" stroke="#efefef" values="#efefef;#ee5486" dur="10s" fill="freeze"/>
    <animateTransform attributeName="transform" type="rotate" from="0 325 320" to="360 328 330" begin="6s" dur="20s" repeatCount="indefinite"/>
  </g>
  <path id="svg-concept" class="api4" d="M232.9 278.4h-2.5c-.7 0-1.2-.5-1.2-1.2v-2.5c0-.7.5-1.2 1.2-1.2h2.5c.7 0 1.2.5 1.2 1.2v2.5c.1.7-.5 1.2-1.2 1.2zM226.8 296.8h-3.4c-.9 0-1.7-.8-1.7-1.7v-3.4c0-.9.8-1.7 1.7-1.7h3.4c.9 0 1.7.8 1.7 1.7v3.4c0 .9-.8 1.7-1.7 1.7zM316.8 278.4h-2.5c-.7 0-1.2-.5-1.2-1.2v-2.5c0-.7.5-1.2 1.2-1.2h2.5c.7 0 1.2.5 1.2 1.2v2.5c0 .7-.5 1.2-1.2 1.2zM310.7 296.8h-3.4c-.9 0-1.7-.8-1.7-1.7v-3.4c0-.9.8-1.7 1.7-1.7h3.4c.9 0 1.7.8 1.7 1.7v3.4c0 .9-.8 1.7-1.7 1.7zM400.7 278.4h-2.5c-.7 0-1.2-.5-1.2-1.2v-2.5c0-.7.5-1.2 1.2-1.2h2.5c.7 0 1.2.5 1.2 1.2v2.5c0 .7-.6 1.2-1.2 1.2zM394.6 296.8h-3.4c-.9 0-1.7-.8-1.7-1.7v-3.4c0-.9.8-1.7 1.7-1.7h3.4c.9 0 1.7.8 1.7 1.7v3.4c-.1.9-.8 1.7-1.7 1.7zM459.7 282.8c0 7.1-5.8 12.9-12.9 12.9-7.1 0-12.9-5.8-12.9-12.9 0-7.1 5.8-12.9 12.9-12.9 7.1 0 12.9 5.8 12.9 12.9z"/>
  <path id="svg-concept" class="api4" d="M451.6 282.8c0 2.6-2.1 4.8-4.8 4.8-2.6 0-4.8-2.1-4.8-4.8s2.1-4.8 4.8-4.8c2.6 0 4.8 2.2 4.8 4.8zM459.7 282.8h-8.1M442 282.8h-8.1M232.9 358.4h-2.5c-.7 0-1.2-.5-1.2-1.2v-2.5c0-.7.5-1.2 1.2-1.2h2.5c.7 0 1.2.5 1.2 1.2v2.5c.1.7-.5 1.2-1.2 1.2zM226.8 376.8h-3.4c-.9 0-1.7-.8-1.7-1.7v-3.4c0-.9.8-1.7 1.7-1.7h3.4c.9 0 1.7.8 1.7 1.7v3.4c0 .9-.8 1.7-1.7 1.7zM316.8 358.4h-2.5c-.7 0-1.2-.5-1.2-1.2v-2.5c0-.7.5-1.2 1.2-1.2h2.5c.7 0 1.2.5 1.2 1.2v2.5c0 .7-.5 1.2-1.2 1.2zM310.7 376.8h-3.4c-.9 0-1.7-.8-1.7-1.7v-3.4c0-.9.8-1.7 1.7-1.7h3.4c.9 0 1.7.8 1.7 1.7v3.4c0 .9-.8 1.7-1.7 1.7zM400.7 358.4h-2.5c-.7 0-1.2-.5-1.2-1.2v-2.5c0-.7.5-1.2 1.2-1.2h2.5c.7 0 1.2.5 1.2 1.2v2.5c0 .7-.6 1.2-1.2 1.2zM394.6 376.8h-3.4c-.9 0-1.7-.8-1.7-1.7v-3.4c0-.9.8-1.7 1.7-1.7h3.4c.9 0 1.7.8 1.7 1.7v3.4c-.1.9-.8 1.7-1.7 1.7zM459.7 362.8c0 7.1-5.8 12.9-12.9 12.9-7.1 0-12.9-5.8-12.9-12.9 0-7.1 5.8-12.9 12.9-12.9 7.1 0 12.9 5.8 12.9 12.9z"/>
  <path id="svg-concept" class="api4" d="M451.6 362.8c0 2.6-2.1 4.8-4.8 4.8-2.6 0-4.8-2.1-4.8-4.8s2.1-4.8 4.8-4.8c2.6 0 4.8 2.2 4.8 4.8zM459.7 362.8h-8.1M442 362.8h-8.1"/>
  <path class="api5" d="M506.4 302.1c0 6-4.4 10.9-9.9 10.9H145.1c-5.5 0-9.9-4.9-9.9-10.9v-38.5c0-6 4.4-10.9 9.9-10.9h351.5c5.5 0 9.9 4.9 9.9 10.9v38.5z"/>
  <path class="api1" d="M155.6 252.7v60M486 252.7v60.2M230.2 301.5h-63.7c-2.2 0-4-1.8-4-4v-8.1c0-2.2 1.8-4 4-4h63.7c2.2 0 4 1.8 4 4v8.1c0 2.2-1.8 4-4 4zM172 278.4h-2.5c-.7 0-1.2-.5-1.2-1.2v-2.5c0-.7.5-1.2 1.2-1.2h2.5c.7 0 1.2.5 1.2 1.2v2.5c0 .7-.6 1.2-1.2 1.2zM181.8 278.4h-2.5c-.7 0-1.2-.5-1.2-1.2v-2.5c0-.7.5-1.2 1.2-1.2h2.5c.7 0 1.2.5 1.2 1.2v2.5c0 .7-.5 1.2-1.2 1.2zM195.6 278.4h-2.5c-.7 0-1.2-.5-1.2-1.2v-2.5c0-.7.5-1.2 1.2-1.2h2.5c.7 0 1.2.5 1.2 1.2v2.5c0 .7-.5 1.2-1.2 1.2zM172 267.8h-2.5c-.7 0-1.2-.5-1.2-1.2v-2.5c0-.7.5-1.2 1.2-1.2h2.5c.7 0 1.2.5 1.2 1.2v2.5c0 .6-.6 1.2-1.2 1.2zM181.8 267.8h-2.5c-.7 0-1.2-.5-1.2-1.2v-2.5c0-.7.5-1.2 1.2-1.2h2.5c.7 0 1.2.5 1.2 1.2v2.5c0 .6-.5 1.2-1.2 1.2zM232.8 267.8h-2.5c-.7 0-1.2-.5-1.2-1.2v-2.5c0-.7.5-1.2 1.2-1.2h2.5c.7 0 1.2.5 1.2 1.2v2.5c0 .6-.5 1.2-1.2 1.2zM205.4 278.4H203c-.7 0-1.2-.5-1.2-1.2v-2.5c0-.7.5-1.2 1.2-1.2h2.5c.7 0 1.2.5 1.2 1.2v2.5c0 .7-.6 1.2-1.3 1.2zM215.1 278.4h-2.5c-.7 0-1.2-.5-1.2-1.2v-2.5c0-.7.5-1.2 1.2-1.2h2.5c.7 0 1.2.5 1.2 1.2v2.5c0 .7-.5 1.2-1.2 1.2z"/>
  <path class="api1" d="M215.3 278.4h-2.5c-.7 0-1.2-.5-1.2-1.2v-2.5c0-.7.5-1.2 1.2-1.2h2.5c.7 0 1.2.5 1.2 1.2v2.5c0 .7-.6 1.2-1.2 1.2zM215.3 267.8h-21.2c-.7 0-1.2-.5-1.2-1.2v-2.5c0-.7.5-1.2 1.2-1.2h21.2c.7 0 1.2.5 1.2 1.2v2.5c0 .6-.6 1.2-1.2 1.2zM187.7 285.4v16.1M214.4 296.8H211c-.9 0-1.7-.8-1.7-1.7v-3.4c0-.9.8-1.7 1.7-1.7h3.4c.9 0 1.7.8 1.7 1.7v3.4c0 .9-.8 1.7-1.7 1.7zM314 301.5h-63.7c-2.2 0-4-1.8-4-4v-8.1c0-2.2 1.8-4 4-4H314c2.2 0 4 1.8 4 4v8.1c0 2.2-1.8 4-4 4zM255.8 278.4h-2.5c-.7 0-1.2-.5-1.2-1.2v-2.5c0-.7.5-1.2 1.2-1.2h2.5c.7 0 1.2.5 1.2 1.2v2.5c.1.7-.5 1.2-1.2 1.2zM265.7 278.4h-2.5c-.7 0-1.2-.5-1.2-1.2v-2.5c0-.7.5-1.2 1.2-1.2h2.5c.7 0 1.2.5 1.2 1.2v2.5c0 .7-.6 1.2-1.2 1.2zM279.5 278.4H277c-.7 0-1.2-.5-1.2-1.2v-2.5c0-.7.5-1.2 1.2-1.2h2.5c.7 0 1.2.5 1.2 1.2v2.5c0 .7-.5 1.2-1.2 1.2zM255.8 267.8h-2.5c-.7 0-1.2-.5-1.2-1.2v-2.5c0-.7.5-1.2 1.2-1.2h2.5c.7 0 1.2.5 1.2 1.2v2.5c.1.6-.5 1.2-1.2 1.2zM265.7 267.8h-2.5c-.7 0-1.2-.5-1.2-1.2v-2.5c0-.7.5-1.2 1.2-1.2h2.5c.7 0 1.2.5 1.2 1.2v2.5c0 .6-.6 1.2-1.2 1.2zM316.7 267.8h-2.5c-.7 0-1.2-.5-1.2-1.2v-2.5c0-.7.5-1.2 1.2-1.2h2.5c.7 0 1.2.5 1.2 1.2v2.5c0 .6-.6 1.2-1.2 1.2zM289.3 278.4h-2.5c-.7 0-1.2-.5-1.2-1.2v-2.5c0-.7.5-1.2 1.2-1.2h2.5c.7 0 1.2.5 1.2 1.2v2.5c0 .7-.5 1.2-1.2 1.2zM299 278.4h-2.5c-.7 0-1.2-.5-1.2-1.2v-2.5c0-.7.5-1.2 1.2-1.2h2.5c.7 0 1.2.5 1.2 1.2v2.5c0 .7-.6 1.2-1.2 1.2z"/>
  <path class="api1" d="M299.1 278.4h-2.5c-.7 0-1.2-.5-1.2-1.2v-2.5c0-.7.5-1.2 1.2-1.2h2.5c.7 0 1.2.5 1.2 1.2v2.5c0 .7-.5 1.2-1.2 1.2zM299.1 267.8h-21.2c-.7 0-1.2-.5-1.2-1.2v-2.5c0-.7.5-1.2 1.2-1.2h21.2c.7 0 1.2.5 1.2 1.2v2.5c0 .6-.5 1.2-1.2 1.2zM271.6 285.4v16.1M298.2 296.8h-3.4c-.9 0-1.7-.8-1.7-1.7v-3.4c0-.9.8-1.7 1.7-1.7h3.4c.9 0 1.7.8 1.7 1.7v3.4c0 .9-.7 1.7-1.7 1.7zM397.9 301.5h-63.7c-2.2 0-4-1.8-4-4v-8.1c0-2.2 1.8-4 4-4h63.7c2.2 0 4 1.8 4 4v8.1c0 2.2-1.8 4-4 4zM339.7 278.4h-2.5c-.7 0-1.2-.5-1.2-1.2v-2.5c0-.7.5-1.2 1.2-1.2h2.5c.7 0 1.2.5 1.2 1.2v2.5c0 .7-.5 1.2-1.2 1.2zM349.5 278.4H347c-.7 0-1.2-.5-1.2-1.2v-2.5c0-.7.5-1.2 1.2-1.2h2.5c.7 0 1.2.5 1.2 1.2v2.5c0 .7-.5 1.2-1.2 1.2zM363.4 278.4h-2.5c-.7 0-1.2-.5-1.2-1.2v-2.5c0-.7.5-1.2 1.2-1.2h2.5c.7 0 1.2.5 1.2 1.2v2.5c0 .7-.6 1.2-1.2 1.2zM339.7 267.8h-2.5c-.7 0-1.2-.5-1.2-1.2v-2.5c0-.7.5-1.2 1.2-1.2h2.5c.7 0 1.2.5 1.2 1.2v2.5c0 .6-.5 1.2-1.2 1.2zM349.5 267.8H347c-.7 0-1.2-.5-1.2-1.2v-2.5c0-.7.5-1.2 1.2-1.2h2.5c.7 0 1.2.5 1.2 1.2v2.5c0 .6-.5 1.2-1.2 1.2zM400.5 267.8H398c-.7 0-1.2-.5-1.2-1.2v-2.5c0-.7.5-1.2 1.2-1.2h2.5c.7 0 1.2.5 1.2 1.2v2.5c.1.6-.5 1.2-1.2 1.2zM373.2 278.4h-2.5c-.7 0-1.2-.5-1.2-1.2v-2.5c0-.7.5-1.2 1.2-1.2h2.5c.7 0 1.2.5 1.2 1.2v2.5c0 .7-.6 1.2-1.2 1.2zM382.8 278.4h-2.5c-.7 0-1.2-.5-1.2-1.2v-2.5c0-.7.5-1.2 1.2-1.2h2.5c.7 0 1.2.5 1.2 1.2v2.5c0 .7-.5 1.2-1.2 1.2z"/>
  <path class="api1" d="M383 278.4h-2.5c-.7 0-1.2-.5-1.2-1.2v-2.5c0-.7.5-1.2 1.2-1.2h2.5c.7 0 1.2.5 1.2 1.2v2.5c0 .7-.5 1.2-1.2 1.2z"/>
  <path id="svg-concept" class="api4" d="M477.7 294.2c0 2.1-1.7 3.8-3.8 3.8-2.1 0-3.8-1.7-3.8-3.8 0-2.1 1.7-3.8 3.8-3.8 2.1 0 3.8 1.7 3.8 3.8z"/>
  <path class="api1" d="M475.1 283.4h-2.5c-.7 0-1.2-.5-1.2-1.2v-2.5c0-.7.5-1.2 1.2-1.2h2.5c.7 0 1.2.5 1.2 1.2v2.5c0 .7-.5 1.2-1.2 1.2zM475.1 272.6h-2.5c-.7 0-1.2-.5-1.2-1.2v-2.5c0-.7.5-1.2 1.2-1.2h2.5c.7 0 1.2.5 1.2 1.2v2.5c0 .7-.5 1.2-1.2 1.2zM383 267.8h-21.2c-.7 0-1.2-.5-1.2-1.2v-2.5c0-.7.5-1.2 1.2-1.2H383c.7 0 1.2.5 1.2 1.2v2.5c0 .6-.5 1.2-1.2 1.2zM355.4 285.4v16.1M382.1 296.8h-3.4c-.9 0-1.7-.8-1.7-1.7v-3.4c0-.9.8-1.7 1.7-1.7h3.4c.9 0 1.7.8 1.7 1.7v3.4c0 .9-.8 1.7-1.7 1.7zM241 252.7v60.2M226 183h-12.1M222.9 187.7h-11.6M219.9 192.6h-11.7M216.8 197.5h-11.7M213.7 202.4H202M146.7 272.9v17.8M495 272.9v17.8M324.3 252.7v60.2M407.6 252.7v60.2"/>
  <path class="api5" d="M506.4 382.1c0 6-4.4 10.9-9.9 10.9H145.1c-5.5 0-9.9-4.9-9.9-10.9v-38.5c0-6 4.4-10.9 9.9-10.9h351.5c5.5 0 9.9 4.9 9.9 10.9v38.5z"/>
  <path class="api1" d="M155.6 332.7v60M486 332.7v60.2M230.2 381.5h-63.7c-2.2 0-4-1.8-4-4v-8.1c0-2.2 1.8-4 4-4h63.7c2.2 0 4 1.8 4 4v8.1c0 2.2-1.8 4-4 4zM172 358.4h-2.5c-.7 0-1.2-.5-1.2-1.2v-2.5c0-.7.5-1.2 1.2-1.2h2.5c.7 0 1.2.5 1.2 1.2v2.5c0 .7-.6 1.2-1.2 1.2zM181.8 358.4h-2.5c-.7 0-1.2-.5-1.2-1.2v-2.5c0-.7.5-1.2 1.2-1.2h2.5c.7 0 1.2.5 1.2 1.2v2.5c0 .7-.5 1.2-1.2 1.2zM195.6 358.4h-2.5c-.7 0-1.2-.5-1.2-1.2v-2.5c0-.7.5-1.2 1.2-1.2h2.5c.7 0 1.2.5 1.2 1.2v2.5c0 .7-.5 1.2-1.2 1.2zM172 347.8h-2.5c-.7 0-1.2-.5-1.2-1.2v-2.5c0-.7.5-1.2 1.2-1.2h2.5c.7 0 1.2.5 1.2 1.2v2.5c0 .6-.6 1.2-1.2 1.2zM181.8 347.8h-2.5c-.7 0-1.2-.5-1.2-1.2v-2.5c0-.7.5-1.2 1.2-1.2h2.5c.7 0 1.2.5 1.2 1.2v2.5c0 .6-.5 1.2-1.2 1.2zM232.8 347.8h-2.5c-.7 0-1.2-.5-1.2-1.2v-2.5c0-.7.5-1.2 1.2-1.2h2.5c.7 0 1.2.5 1.2 1.2v2.5c0 .6-.5 1.2-1.2 1.2zM205.4 358.4H203c-.7 0-1.2-.5-1.2-1.2v-2.5c0-.7.5-1.2 1.2-1.2h2.5c.7 0 1.2.5 1.2 1.2v2.5c0 .7-.6 1.2-1.3 1.2zM215.1 358.4h-2.5c-.7 0-1.2-.5-1.2-1.2v-2.5c0-.7.5-1.2 1.2-1.2h2.5c.7 0 1.2.5 1.2 1.2v2.5c0 .7-.5 1.2-1.2 1.2z"/>
  <path class="api1" d="M215.3 358.4h-2.5c-.7 0-1.2-.5-1.2-1.2v-2.5c0-.7.5-1.2 1.2-1.2h2.5c.7 0 1.2.5 1.2 1.2v2.5c0 .7-.6 1.2-1.2 1.2zM215.3 347.8h-21.2c-.7 0-1.2-.5-1.2-1.2v-2.5c0-.7.5-1.2 1.2-1.2h21.2c.7 0 1.2.5 1.2 1.2v2.5c0 .6-.6 1.2-1.2 1.2zM187.7 365.4v16.1M214.4 376.8H211c-.9 0-1.7-.8-1.7-1.7v-3.4c0-.9.8-1.7 1.7-1.7h3.4c.9 0 1.7.8 1.7 1.7v3.4c0 .9-.8 1.7-1.7 1.7zM314 381.5h-63.7c-2.2 0-4-1.8-4-4v-8.1c0-2.2 1.8-4 4-4H314c2.2 0 4 1.8 4 4v8.1c0 2.2-1.8 4-4 4zM255.8 358.4h-2.5c-.7 0-1.2-.5-1.2-1.2v-2.5c0-.7.5-1.2 1.2-1.2h2.5c.7 0 1.2.5 1.2 1.2v2.5c.1.7-.5 1.2-1.2 1.2zM265.7 358.4h-2.5c-.7 0-1.2-.5-1.2-1.2v-2.5c0-.7.5-1.2 1.2-1.2h2.5c.7 0 1.2.5 1.2 1.2v2.5c0 .7-.6 1.2-1.2 1.2zM279.5 358.4H277c-.7 0-1.2-.5-1.2-1.2v-2.5c0-.7.5-1.2 1.2-1.2h2.5c.7 0 1.2.5 1.2 1.2v2.5c0 .7-.5 1.2-1.2 1.2zM255.8 347.8h-2.5c-.7 0-1.2-.5-1.2-1.2v-2.5c0-.7.5-1.2 1.2-1.2h2.5c.7 0 1.2.5 1.2 1.2v2.5c.1.6-.5 1.2-1.2 1.2zM265.7 347.8h-2.5c-.7 0-1.2-.5-1.2-1.2v-2.5c0-.7.5-1.2 1.2-1.2h2.5c.7 0 1.2.5 1.2 1.2v2.5c0 .6-.6 1.2-1.2 1.2zM316.7 347.8h-2.5c-.7 0-1.2-.5-1.2-1.2v-2.5c0-.7.5-1.2 1.2-1.2h2.5c.7 0 1.2.5 1.2 1.2v2.5c0 .6-.6 1.2-1.2 1.2zM289.3 358.4h-2.5c-.7 0-1.2-.5-1.2-1.2v-2.5c0-.7.5-1.2 1.2-1.2h2.5c.7 0 1.2.5 1.2 1.2v2.5c0 .7-.5 1.2-1.2 1.2zM299 358.4h-2.5c-.7 0-1.2-.5-1.2-1.2v-2.5c0-.7.5-1.2 1.2-1.2h2.5c.7 0 1.2.5 1.2 1.2v2.5c0 .7-.6 1.2-1.2 1.2z"/>
  <path class="api1" d="M299.1 358.4h-2.5c-.7 0-1.2-.5-1.2-1.2v-2.5c0-.7.5-1.2 1.2-1.2h2.5c.7 0 1.2.5 1.2 1.2v2.5c0 .7-.5 1.2-1.2 1.2zM299.1 347.8h-21.2c-.7 0-1.2-.5-1.2-1.2v-2.5c0-.7.5-1.2 1.2-1.2h21.2c.7 0 1.2.5 1.2 1.2v2.5c0 .6-.5 1.2-1.2 1.2zM271.6 365.4v16.1M298.2 376.8h-3.4c-.9 0-1.7-.8-1.7-1.7v-3.4c0-.9.8-1.7 1.7-1.7h3.4c.9 0 1.7.8 1.7 1.7v3.4c0 .9-.7 1.7-1.7 1.7zM397.9 381.5h-63.7c-2.2 0-4-1.8-4-4v-8.1c0-2.2 1.8-4 4-4h63.7c2.2 0 4 1.8 4 4v8.1c0 2.2-1.8 4-4 4zM339.7 358.4h-2.5c-.7 0-1.2-.5-1.2-1.2v-2.5c0-.7.5-1.2 1.2-1.2h2.5c.7 0 1.2.5 1.2 1.2v2.5c0 .7-.5 1.2-1.2 1.2zM349.5 358.4H347c-.7 0-1.2-.5-1.2-1.2v-2.5c0-.7.5-1.2 1.2-1.2h2.5c.7 0 1.2.5 1.2 1.2v2.5c0 .7-.5 1.2-1.2 1.2zM363.4 358.4h-2.5c-.7 0-1.2-.5-1.2-1.2v-2.5c0-.7.5-1.2 1.2-1.2h2.5c.7 0 1.2.5 1.2 1.2v2.5c0 .7-.6 1.2-1.2 1.2zM339.7 347.8h-2.5c-.7 0-1.2-.5-1.2-1.2v-2.5c0-.7.5-1.2 1.2-1.2h2.5c.7 0 1.2.5 1.2 1.2v2.5c0 .6-.5 1.2-1.2 1.2zM349.5 347.8H347c-.7 0-1.2-.5-1.2-1.2v-2.5c0-.7.5-1.2 1.2-1.2h2.5c.7 0 1.2.5 1.2 1.2v2.5c0 .6-.5 1.2-1.2 1.2zM400.5 347.8H398c-.7 0-1.2-.5-1.2-1.2v-2.5c0-.7.5-1.2 1.2-1.2h2.5c.7 0 1.2.5 1.2 1.2v2.5c.1.6-.5 1.2-1.2 1.2zM373.2 358.4h-2.5c-.7 0-1.2-.5-1.2-1.2v-2.5c0-.7.5-1.2 1.2-1.2h2.5c.7 0 1.2.5 1.2 1.2v2.5c0 .7-.6 1.2-1.2 1.2zM382.8 358.4h-2.5c-.7 0-1.2-.5-1.2-1.2v-2.5c0-.7.5-1.2 1.2-1.2h2.5c.7 0 1.2.5 1.2 1.2v2.5c0 .7-.5 1.2-1.2 1.2z"/>
  <path class="api1" d="M383 358.4h-2.5c-.7 0-1.2-.5-1.2-1.2v-2.5c0-.7.5-1.2 1.2-1.2h2.5c.7 0 1.2.5 1.2 1.2v2.5c0 .7-.5 1.2-1.2 1.2z"/>
  <path id="svg-concept" class="api4" d="M477.7 374.2c0 2.1-1.7 3.8-3.8 3.8-2.1 0-3.8-1.7-3.8-3.8 0-2.1 1.7-3.8 3.8-3.8 2.1 0 3.8 1.7 3.8 3.8z"/>
  <path class="api1" d="M475.1 363.4h-2.5c-.7 0-1.2-.5-1.2-1.2v-2.5c0-.7.5-1.2 1.2-1.2h2.5c.7 0 1.2.5 1.2 1.2v2.5c0 .7-.5 1.2-1.2 1.2zM475.1 352.6h-2.5c-.7 0-1.2-.5-1.2-1.2v-2.5c0-.7.5-1.2 1.2-1.2h2.5c.7 0 1.2.5 1.2 1.2v2.5c0 .7-.5 1.2-1.2 1.2zM383 347.8h-21.2c-.7 0-1.2-.5-1.2-1.2v-2.5c0-.7.5-1.2 1.2-1.2H383c.7 0 1.2.5 1.2 1.2v2.5c0 .6-.5 1.2-1.2 1.2zM355.4 365.4v16.1M382.1 376.8h-3.4c-.9 0-1.7-.8-1.7-1.7v-3.4c0-.9.8-1.7 1.7-1.7h3.4c.9 0 1.7.8 1.7 1.7v3.4c0 .9-.8 1.7-1.7 1.7zM241 332.7v60.2M146.7 352.9v17.8M495 352.9v17.8M324.3 332.7v60.2M407.6 332.7v60.2"/>
  <path d="M506.4 462.1c0 6-4.4 10.9-9.9 10.9H145.1c-5.5 0-9.9-4.9-9.9-10.9v-38.5c0-6 4.4-10.9 9.9-10.9h351.5c5.5 0 9.9 4.9 9.9 10.9v38.5z" fill="#fff" stroke="gray" stroke-width="2" stroke-linecap="round" stroke-linejoin="round" stroke-miterlimit="10"/>
  <path class="api1" d="M145.1 252.7l53.3-74.9c2.6-4.2 6.8-7.5 15-7.5h221c8.2 0 11.8 2.9 15 7.5l47.2 74.9M484 392.9l12.5 19.8M145.1 412.7l14.2-20M484 312.9l12.5 19.8M145.1 332.7l14-19.8"/>
  <path class="api1" d="M382.8 197.6H429c2.8 0 5.8-2.4 5-5l-1.8-4.9c-.9-3.3-3.5-4.7-6.2-4.7h-43.2c-2.8 0-5 2.2-5 5v4.6c0 2.7 2.2 5 5 5z"/>
  <path id="svg-concept" class="api4" d="M232.9 438.4h-2.5c-.7 0-1.2-.5-1.2-1.2v-2.5c0-.7.5-1.2 1.2-1.2h2.5c.7 0 1.2.5 1.2 1.2v2.5c.1.7-.5 1.2-1.2 1.2zM226.8 456.8h-3.4c-.9 0-1.7-.8-1.7-1.7v-3.4c0-.9.8-1.7 1.7-1.7h3.4c.9 0 1.7.8 1.7 1.7v3.4c0 .9-.8 1.7-1.7 1.7zM316.8 438.4h-2.5c-.7 0-1.2-.5-1.2-1.2v-2.5c0-.7.5-1.2 1.2-1.2h2.5c.7 0 1.2.5 1.2 1.2v2.5c0 .7-.5 1.2-1.2 1.2zM310.7 456.8h-3.4c-.9 0-1.7-.8-1.7-1.7v-3.4c0-.9.8-1.7 1.7-1.7h3.4c.9 0 1.7.8 1.7 1.7v3.4c0 .9-.8 1.7-1.7 1.7zM400.7 438.4h-2.5c-.7 0-1.2-.5-1.2-1.2v-2.5c0-.7.5-1.2 1.2-1.2h2.5c.7 0 1.2.5 1.2 1.2v2.5c0 .7-.6 1.2-1.2 1.2zM394.6 456.8h-3.4c-.9 0-1.7-.8-1.7-1.7v-3.4c0-.9.8-1.7 1.7-1.7h3.4c.9 0 1.7.8 1.7 1.7v3.4c-.1.9-.8 1.7-1.7 1.7zM459.7 442.8c0 7.1-5.8 12.9-12.9 12.9-7.1 0-12.9-5.8-12.9-12.9 0-7.1 5.8-12.9 12.9-12.9 7.1 0 12.9 5.8 12.9 12.9z"/>
  <path id="svg-concept" class="api4" d="M451.6 442.8c0 2.6-2.1 4.8-4.8 4.8-2.6 0-4.8-2.1-4.8-4.8s2.1-4.8 4.8-4.8c2.6 0 4.8 2.2 4.8 4.8zM459.7 442.8h-8.1M442 442.8h-8.1"/>
  <path class="api1" d="M155.6 412.7v60M486 412.7v60.2M230.2 461.5h-63.7c-2.2 0-4-1.8-4-4v-8.1c0-2.2 1.8-4 4-4h63.7c2.2 0 4 1.8 4 4v8.1c0 2.2-1.8 4-4 4zM172 438.4h-2.5c-.7 0-1.2-.5-1.2-1.2v-2.5c0-.7.5-1.2 1.2-1.2h2.5c.7 0 1.2.5 1.2 1.2v2.5c0 .7-.6 1.2-1.2 1.2zM181.8 438.4h-2.5c-.7 0-1.2-.5-1.2-1.2v-2.5c0-.7.5-1.2 1.2-1.2h2.5c.7 0 1.2.5 1.2 1.2v2.5c0 .7-.5 1.2-1.2 1.2zM195.6 438.4h-2.5c-.7 0-1.2-.5-1.2-1.2v-2.5c0-.7.5-1.2 1.2-1.2h2.5c.7 0 1.2.5 1.2 1.2v2.5c0 .7-.5 1.2-1.2 1.2zM172 427.8h-2.5c-.7 0-1.2-.5-1.2-1.2v-2.5c0-.7.5-1.2 1.2-1.2h2.5c.7 0 1.2.5 1.2 1.2v2.5c0 .6-.6 1.2-1.2 1.2zM181.8 427.8h-2.5c-.7 0-1.2-.5-1.2-1.2v-2.5c0-.7.5-1.2 1.2-1.2h2.5c.7 0 1.2.5 1.2 1.2v2.5c0 .6-.5 1.2-1.2 1.2zM232.8 427.8h-2.5c-.7 0-1.2-.5-1.2-1.2v-2.5c0-.7.5-1.2 1.2-1.2h2.5c.7 0 1.2.5 1.2 1.2v2.5c0 .6-.5 1.2-1.2 1.2zM205.4 438.4H203c-.7 0-1.2-.5-1.2-1.2v-2.5c0-.7.5-1.2 1.2-1.2h2.5c.7 0 1.2.5 1.2 1.2v2.5c0 .7-.6 1.2-1.3 1.2zM215.1 438.4h-2.5c-.7 0-1.2-.5-1.2-1.2v-2.5c0-.7.5-1.2 1.2-1.2h2.5c.7 0 1.2.5 1.2 1.2v2.5c0 .7-.5 1.2-1.2 1.2z"/>
  <path class="api1" d="M215.3 438.4h-2.5c-.7 0-1.2-.5-1.2-1.2v-2.5c0-.7.5-1.2 1.2-1.2h2.5c.7 0 1.2.5 1.2 1.2v2.5c0 .7-.6 1.2-1.2 1.2zM215.3 427.8h-21.2c-.7 0-1.2-.5-1.2-1.2v-2.5c0-.7.5-1.2 1.2-1.2h21.2c.7 0 1.2.5 1.2 1.2v2.5c0 .6-.6 1.2-1.2 1.2zM187.7 445.4v16.1M214.4 456.8H211c-.9 0-1.7-.8-1.7-1.7v-3.4c0-.9.8-1.7 1.7-1.7h3.4c.9 0 1.7.8 1.7 1.7v3.4c0 .9-.8 1.7-1.7 1.7zM314 461.5h-63.7c-2.2 0-4-1.8-4-4v-8.1c0-2.2 1.8-4 4-4H314c2.2 0 4 1.8 4 4v8.1c0 2.2-1.8 4-4 4zM255.8 438.4h-2.5c-.7 0-1.2-.5-1.2-1.2v-2.5c0-.7.5-1.2 1.2-1.2h2.5c.7 0 1.2.5 1.2 1.2v2.5c.1.7-.5 1.2-1.2 1.2zM265.7 438.4h-2.5c-.7 0-1.2-.5-1.2-1.2v-2.5c0-.7.5-1.2 1.2-1.2h2.5c.7 0 1.2.5 1.2 1.2v2.5c0 .7-.6 1.2-1.2 1.2zM279.5 438.4H277c-.7 0-1.2-.5-1.2-1.2v-2.5c0-.7.5-1.2 1.2-1.2h2.5c.7 0 1.2.5 1.2 1.2v2.5c0 .7-.5 1.2-1.2 1.2zM255.8 427.8h-2.5c-.7 0-1.2-.5-1.2-1.2v-2.5c0-.7.5-1.2 1.2-1.2h2.5c.7 0 1.2.5 1.2 1.2v2.5c.1.6-.5 1.2-1.2 1.2zM265.7 427.8h-2.5c-.7 0-1.2-.5-1.2-1.2v-2.5c0-.7.5-1.2 1.2-1.2h2.5c.7 0 1.2.5 1.2 1.2v2.5c0 .6-.6 1.2-1.2 1.2zM316.7 427.8h-2.5c-.7 0-1.2-.5-1.2-1.2v-2.5c0-.7.5-1.2 1.2-1.2h2.5c.7 0 1.2.5 1.2 1.2v2.5c0 .6-.6 1.2-1.2 1.2zM289.3 438.4h-2.5c-.7 0-1.2-.5-1.2-1.2v-2.5c0-.7.5-1.2 1.2-1.2h2.5c.7 0 1.2.5 1.2 1.2v2.5c0 .7-.5 1.2-1.2 1.2zM299 438.4h-2.5c-.7 0-1.2-.5-1.2-1.2v-2.5c0-.7.5-1.2 1.2-1.2h2.5c.7 0 1.2.5 1.2 1.2v2.5c0 .7-.6 1.2-1.2 1.2z"/>
  <path class="api1" d="M299.1 438.4h-2.5c-.7 0-1.2-.5-1.2-1.2v-2.5c0-.7.5-1.2 1.2-1.2h2.5c.7 0 1.2.5 1.2 1.2v2.5c0 .7-.5 1.2-1.2 1.2zM299.1 427.8h-21.2c-.7 0-1.2-.5-1.2-1.2v-2.5c0-.7.5-1.2 1.2-1.2h21.2c.7 0 1.2.5 1.2 1.2v2.5c0 .6-.5 1.2-1.2 1.2zM271.6 445.4v16.1M298.2 456.8h-3.4c-.9 0-1.7-.8-1.7-1.7v-3.4c0-.9.8-1.7 1.7-1.7h3.4c.9 0 1.7.8 1.7 1.7v3.4c0 .9-.7 1.7-1.7 1.7zM397.9 461.5h-63.7c-2.2 0-4-1.8-4-4v-8.1c0-2.2 1.8-4 4-4h63.7c2.2 0 4 1.8 4 4v8.1c0 2.2-1.8 4-4 4zM339.7 438.4h-2.5c-.7 0-1.2-.5-1.2-1.2v-2.5c0-.7.5-1.2 1.2-1.2h2.5c.7 0 1.2.5 1.2 1.2v2.5c0 .7-.5 1.2-1.2 1.2zM349.5 438.4H347c-.7 0-1.2-.5-1.2-1.2v-2.5c0-.7.5-1.2 1.2-1.2h2.5c.7 0 1.2.5 1.2 1.2v2.5c0 .7-.5 1.2-1.2 1.2zM363.4 438.4h-2.5c-.7 0-1.2-.5-1.2-1.2v-2.5c0-.7.5-1.2 1.2-1.2h2.5c.7 0 1.2.5 1.2 1.2v2.5c0 .7-.6 1.2-1.2 1.2zM339.7 427.8h-2.5c-.7 0-1.2-.5-1.2-1.2v-2.5c0-.7.5-1.2 1.2-1.2h2.5c.7 0 1.2.5 1.2 1.2v2.5c0 .6-.5 1.2-1.2 1.2zM349.5 427.8H347c-.7 0-1.2-.5-1.2-1.2v-2.5c0-.7.5-1.2 1.2-1.2h2.5c.7 0 1.2.5 1.2 1.2v2.5c0 .6-.5 1.2-1.2 1.2zM400.5 427.8H398c-.7 0-1.2-.5-1.2-1.2v-2.5c0-.7.5-1.2 1.2-1.2h2.5c.7 0 1.2.5 1.2 1.2v2.5c.1.6-.5 1.2-1.2 1.2zM373.2 438.4h-2.5c-.7 0-1.2-.5-1.2-1.2v-2.5c0-.7.5-1.2 1.2-1.2h2.5c.7 0 1.2.5 1.2 1.2v2.5c0 .7-.6 1.2-1.2 1.2zM383 438.4h-2.5c-.7 0-1.2-.5-1.2-1.2v-2.5c0-.7.5-1.2 1.2-1.2h2.5c.7 0 1.2.5 1.2 1.2v2.5c0 .7-.5 1.2-1.2 1.2z"/>
  <path id="svg-concept" class="api4" d="M477.7 454.2c0 2.1-1.7 3.8-3.8 3.8-2.1 0-3.8-1.7-3.8-3.8 0-2.1 1.7-3.8 3.8-3.8 2.1 0 3.8 1.7 3.8 3.8z"/>
  <path class="api1" d="M475.1 443.4h-2.5c-.7 0-1.2-.5-1.2-1.2v-2.5c0-.7.5-1.2 1.2-1.2h2.5c.7 0 1.2.5 1.2 1.2v2.5c0 .7-.5 1.2-1.2 1.2zM475.1 432.6h-2.5c-.7 0-1.2-.5-1.2-1.2v-2.5c0-.7.5-1.2 1.2-1.2h2.5c.7 0 1.2.5 1.2 1.2v2.5c0 .7-.5 1.2-1.2 1.2zM383 427.8h-21.2c-.7 0-1.2-.5-1.2-1.2v-2.5c0-.7.5-1.2 1.2-1.2H383c.7 0 1.2.5 1.2 1.2v2.5c0 .6-.5 1.2-1.2 1.2zM355.4 445.4v16.1M382.1 456.8h-3.4c-.9 0-1.7-.8-1.7-1.7v-3.4c0-.9.8-1.7 1.7-1.7h3.4c.9 0 1.7.8 1.7 1.7v3.4c0 .9-.8 1.7-1.7 1.7zM241 412.7v60.2M146.7 432.9v17.8M495 432.9v17.8M324.3 412.7v60.2M407.6 412.7v60.2"/>
  <g>
    <path id="svg-concept" class="api8" d="M285.6 57.8V5.3c0-.7.6-1.3 1.3-1.3h67.6c.7 0 1.3.6 1.3 1.3v52.6c0 .7-.6 1.3-1.3 1.3h-19.2V54h-29v5.2h-19.4c-.7-.1-1.3-.7-1.3-1.4z"/>
    <path id="svg-concept" class="api0" d="M302.7 45V17.5c0-.4.3-.7.7-.7h35.4c.4 0 .7.3.7.7V45c0 .4-.3.7-.7.7h-35.4c-.4 0-.7-.3-.7-.7z"/>
    <path id="svg-ico" class="api8" d="M321.1 34.6c-1.7 0-3-1.3-3-3s1.3-3 3-3 3 1.3 3 3c0 1.6-1.4 3-3 3z"/>
  </g>
  <g>
    <path id="svg-concept" class="api8" d="M482.4 110.2L519.6 73c.5-.5 1.3-.5 1.8 0l47.8 47.8c.5.5.5 1.3 0 1.8L532 159.8c-.5.5-1.3.5-1.8 0l-13.5-13.5 3.7-3.7-20.6-20.6-3.7 3.7-13.7-13.7c-.5-.5-.5-1.3 0-1.8z"/>
    <path id="svg-concept" class="api0" d="M503.5 113.2L523 93.8c.3-.3.7-.3.9 0l25 25c.3.3.3.7 0 .9l-19.5 19.5c-.3.3-.7.3-.9 0l-25-25c-.2-.3-.2-.7 0-1z"/>
    <path id="svg-ico" class="api8" d="M523.9 118.8c-1.2-1.2-1.2-3.1 0-4.2 1.2-1.2 3.1-1.2 4.2 0 1.2 1.2 1.2 3.1 0 4.2-1.1 1.2-3 1.2-4.2 0z"/>
  </g>
  <g>
    <path id="svg-concept" class="api8" d="M584.5 286.4h52.6c.7 0 1.3.6 1.3 1.3v67.6c0 .7-.6 1.3-1.3 1.3h-52.6c-.7 0-1.3-.6-1.3-1.3v-19.2h5.2v-29h-5.2v-19.4c.1-.7.7-1.3 1.3-1.3z"/>
    <path id="svg-concept" class="api0" d="M597.3 303.5h27.5c.4 0 .7.3.7.7v35.4c0 .4-.3.7-.7.7h-27.5c-.4 0-.7-.3-.7-.7v-35.4c.1-.4.4-.7.7-.7z"/>
    <path id="svg-ico" class="api8" d="M607.8 321.9c0-1.7 1.3-3 3-3s3 1.3 3 3-1.3 3-3 3c-1.6 0-3-1.4-3-3z"/>
  </g>
  <g>
    <path id="svg-concept" class="api8" d="M531.9 483.1l37.2 37.2c.5.5.5 1.3 0 1.8l-47.8 47.8c-.5.5-1.3.5-1.8 0l-37.2-37.2c-.5-.5-.5-1.3 0-1.8l13.5-13.5 3.7 3.7 20.5-20.5-3.7-3.7 13.7-13.7c.7-.6 1.5-.6 1.9-.1z"/>
    <path id="svg-concept" class="api0" d="M528.9 504.2l19.5 19.5c.3.3.3.7 0 .9l-25 25c-.3.3-.7.3-.9 0L503 530.2c-.3-.3-.3-.7 0-.9l25-25c.2-.3.6-.3.9-.1z"/>
    <path id="svg-ico" class="api8" d="M523.3 524.6c1.2-1.2 3.1-1.2 4.2 0 1.2 1.2 1.2 3.1 0 4.2s-3.1 1.2-4.2 0c-1.1-1.1-1.1-3 0-4.2z"/>
  </g>
  <g>
    <path id="svg-concept" class="api8" d="M356 585.4V638c0 .7-.6 1.3-1.3 1.3h-67.6c-.7 0-1.3-.6-1.3-1.3v-52.6c0-.7.6-1.3 1.3-1.3h19.2v5.2h29v-5.2h19.4c.7 0 1.3.6 1.3 1.3z"/>
    <path id="svg-concept" class="api0" d="M338.9 598.2v27.5c0 .4-.3.7-.7.7h-35.4c-.4 0-.7-.3-.7-.7v-27.5c0-.4.3-.7.7-.7h35.4c.4 0 .7.3.7.7z"/>
    <path id="svg-ico" class="api8" d="M320.5 608.7c1.7 0 3 1.3 3 3s-1.3 3-3 3-3-1.3-3-3 1.4-3 3-3z"/>
  </g>
  <g>
    <path id="svg-concept" class="api8" d="M159.2 533L122 570.2c-.5.5-1.3.5-1.8 0l-47.8-47.8c-.5-.5-.5-1.3 0-1.8l37.2-37.2c.5-.5 1.3-.5 1.8 0L125 497l-3.7 3.7 20.5 20.5 3.7-3.7 13.7 13.7c.5.6.5 1.4 0 1.8z"/>
    <path id="svg-concept" class="api0" d="M138.1 530l-19.5 19.5c-.3.3-.7.3-.9 0l-25-25c-.3-.3-.3-.7 0-.9l19.5-19.5c.3-.3.7-.3.9 0l25 25c.2.2.2.6 0 .9z"/>
    <path id="svg-ico" class="api8" d="M117.7 524.4c1.2 1.2 1.2 3.1 0 4.2-1.2 1.2-3.1 1.2-4.2 0-1.2-1.2-1.2-3.1 0-4.2 1.1-1.1 3-1.2 4.2 0z"/>
  </g>
  <g>
    <path id="svg-concept" class="api8" d="M57.1 356.7H4.5c-.7 0-1.3-.6-1.3-1.3v-67.6c0-.7.6-1.3 1.3-1.3h52.6c.7 0 1.3.6 1.3 1.3V307h-5.2v29h5.2v19.4c-.1.7-.6 1.3-1.3 1.3z"/>
    <path id="svg-concept" class="api0" d="M44.3 339.6H16.8c-.4 0-.7-.3-.7-.7v-35.4c0-.4.3-.7.7-.7h27.5c.4 0 .7.3.7.7v35.4c-.1.4-.4.7-.7.7z"/>
    <path id="svg-ico" class="api8" d="M33.8 321.2c0 1.7-1.3 3-3 3s-3-1.3-3-3 1.3-3 3-3 3 1.3 3 3z"/>
  </g>
  <g>
    <path id="svg-concept" class="api8" d="M109.7 160.1L72.5 123c-.5-.5-.5-1.3 0-1.8l47.8-47.8c.5-.5 1.3-.5 1.8 0l37.2 37.2c.5.5.5 1.3 0 1.8l-13.5 13.5-3.7-3.7-20.5 20.5 3.7 3.7-13.7 13.7c-.7.5-1.5.5-1.9 0z"/>
    <path id="svg-concept" class="api0" d="M112.7 139l-19.5-19.5c-.3-.3-.3-.7 0-.9l25-25c.3-.3.7-.3.9 0l19.5 19.5c.3.3.3.7 0 .9l-25 25c-.2.2-.6.2-.9 0z"/>
    <path id="svg-ico" class="api8" d="M118.3 118.6c-1.2 1.2-3.1 1.2-4.2 0-1.2-1.2-1.2-3.1 0-4.2 1.2-1.2 3.1-1.2 4.2 0 1.1 1.1 1.1 3 0 4.2z"/>
  </g>
</svg>
