<svg version="1.1" id="animaclock" xmlns="http://www.w3.org/2000/svg" x="0" y="0" viewBox="0 0 716.6 630.5" xml:space="preserve">
  <style>
    .ba0,.ba1{fill:#fff;stroke:gray;stroke-miterlimit:10}.ba1{fill:none;stroke:#d8d8d8}.ba2,.ba3,.ba4,.ba5,.ba6,.ba7{stroke-linecap:round;stroke-linejoin:round;stroke-miterlimit:10}.ba2{stroke:#ee5586;stroke-width:2;fill:#fff}.ba3,.ba4,.ba5,.ba6,.ba7{fill:none}.ba3{stroke-width:3;stroke:#ee5586}.ba4,.ba5,.ba6,.ba7{stroke:gray}.ba5,.ba6,.ba7{stroke:#ee5586}.ba6,.ba7{fill:#fff;stroke:gray}.ba7{stroke:#ee5586;stroke-width:1}
  </style>
  <circle class="ba0" cx="371" cy="312.9" r="300"/>
  <path id="svg-concept" class="ba3" d="M597.6 313.3c0 125.4-101.7 227.1-227.1 227.1S143.4 438.7 143.4 313.3 245.1 86.2 370.5 86.2c125.4-.1 227.1 101.6 227.1 227.1z"/>
  <path class="ba0" d="M382.2 49.7c0 5.8-4.7 10.6-10.5 10.6s-10.5-4.7-10.5-10.6 4.7-10.5 10.5-10.5c5.8-.1 10.5 4.6 10.5 10.5z"/>
  <path class="ba0" d="M375.6 49.7c0 2.2-1.8 3.9-3.9 3.9-2.2 0-3.9-1.8-3.9-3.9s1.7-3.9 3.9-3.9c2.1 0 3.9 1.7 3.9 3.9zM382.2 49.7h-6.6M367.7 50.7h-6.6M361.1 577.4c0-5.8 4.7-10.6 10.5-10.6s10.5 4.7 10.5 10.6c0 5.8-4.7 10.5-10.5 10.5s-10.5-4.7-10.5-10.5z"/>
  <path class="ba0" d="M367.7 577.4c0-2.2 1.8-3.9 3.9-3.9 2.2 0 3.9 1.8 3.9 3.9s-1.7 3.9-3.9 3.9c-2.1 0-3.9-1.8-3.9-3.9zM361.1 577.4h6.6M375.6 576.4h6.6M192.5 120.3c4.1 4.1 4.1 10.8 0 14.9s-10.8 4.1-14.9 0-4.1-10.8 0-14.9 10.7-4.1 14.9 0z"/>
  <path class="ba0" d="M187.8 125c1.5 1.5 1.5 4 0 5.5s-4 1.5-5.5 0-1.5-4 0-5.5 3.9-1.5 5.5 0zM192.5 120.3l-4.7 4.7M183 131.3l-4.7 4.6M564.9 492.8c4.1 4.1 4.1 10.8 0 14.9s-10.8 4.1-14.9 0-4.1-10.8 0-14.9 10.8-4.1 14.9 0z"/>
  <path class="ba0" d="M560.2 497.5c1.5 1.5 1.5 4 0 5.5s-4 1.5-5.5 0-1.5-4 0-5.5 4-1.6 5.5 0zM564.9 492.8l-4.6 4.7M555.4 503.7l-4.7 4.7M565.8 135.1c-4.1 4.1-10.8 4.1-14.9 0s-4.1-10.8 0-14.9 10.8-4.1 14.9 0 4.2 10.8 0 14.9z"/>
  <path class="ba0" d="M561.1 130.4c-1.5 1.5-4 1.5-5.5 0s-1.5-4 0-5.5 4-1.5 5.5 0c1.6 1.5 1.6 4 0 5.5zM565.8 135.1l-4.7-4.6M554.9 125.6l-4.7-4.6M193.4 507.6c-4.1 4.1-10.8 4.1-14.9 0s-4.1-10.8 0-14.9 10.8-4.1 14.9 0 4.1 10.8 0 14.9z"/>
  <path class="ba0" d="M188.7 502.9c-1.5 1.5-4 1.5-5.5 0s-1.5-4 0-5.5 4-1.5 5.5 0 1.5 4 0 5.5zM193.4 507.6l-4.7-4.7M182.4 498.1l-4.7-4.7"/>
  <g>
    <path id="svg-concept" class="ba2" d="M677.1 313.4c0 2.8-2.2 5-5 5s-5-2.2-5-5 2.2-5 5-5c2.7 0 5 2.2 5 5z"/>
    <animateTransform attributeName="transform" dur="2s" from="0 345 320" repeatCount="indefinite" to="-170 372 330" type="rotate"/>
  </g>
  <g>
    <path class="ba0" d="M371.7 104.1v20.7"/>
    <path class="ba1" d="M414.3 108.9l-4.2 20.1M455.8 122.4l-8.3 18.8M493.4 144.2l-12 16.7M525.8 173.4l-15.2 13.8M551.4 208.6l-17.7 10.3M569.2 248.5l-19.5 6.3M578.2 291l-20.3 2.2"/>
    <path class="ba0" d="M578.2 334.4l-18.8-1.9"/>
    <path class="ba1" d="M569.1 377.5l-19.2-6.3M551.4 417.1l-17.4-10M525.7 452.4L510.8 439M493.3 481.6l-11.7-16.2M455.7 503.3l-8-18.1M414.3 516.8l-4-19.3M163.4 291l19.7 2.1M172.5 248l19 6.1M190.2 208.3l17.4 10.1M215.9 173l15.1 13.6M248.3 143.9l11.9 16.5M285.9 122.1l8.3 18.8M327.4 108.9l4.3 19.9"/>
    <path class="ba0" d="M370.5 521.4v-19.7"/>
    <path class="ba1" d="M327.6 516.6l3.9-18.9M286.1 503.1l7.7-17.7M248.4 481.2l11.2-15.6M216.1 452.1l14.2-12.9M190.4 416.9l16.7-9.7M172.7 377l18.4-6"/>
    <path class="ba0" d="M163.7 334.5l19.3-2.1"/>
  </g>
  <g>
    <path id="svg-concept" class="ba3" d="M462.3 313.3H371"/>
    <animateTransform attributeName="transform" dur="8s" fill="remove" from="0 370 315" repeatCount="indefinite" to="-360 371 311" type="rotate"/>
  </g>
  <g id="anima">
    <path id="svg-concept" class="ba3" d="M371.6 148.1l-.6 165.2"/>
    <animateTransform attributeName="transform" dur="1s" fill="remove" from="0 370 315" repeatCount="indefinite" to="-360 371 311" type="rotate"/>
  </g>
  <g>
    <circle id="svg-concept" class="ba2" cx="61" cy="288.4" r="24.5"/>
    <path class="ba4" d="M61 284.4v11.3M49.4 260v-7.5c0-4.1 3.3-7.5 7.5-7.5h8.3c4.2 0 7.5 3.4 7.5 7.5v7.5"/>
  </g>
  <g>
    <circle id="svg-concept" class="ba2" cx="72.4" cy="335.6" r="3.9"/>
    <path id="svg-concept" class="ba2" d="M72.4 324.8v6.7M41.6 335.6h26.8M76.4 335.6h26.8"/>
  </g>
  <g>
    <path class="ba6" d="M135.6 318.9c0 2-1.5 3.7-3.4 3.7H12.6c-1.9 0-3.4-1.7-3.4-3.7v-13.1c0-2 1.5-3.7 3.4-3.7h119.6c1.9 0 3.4 1.7 3.4 3.7v13.1z"/>
    <path class="ba4" d="M16.2 302.1v20.5"/>
    <path id="svg-concept" class="ba7" d="M119.7 312.4c0 2.4-2 4.4-4.4 4.4s-4.4-2-4.4-4.4 2-4.4 4.4-4.4 4.4 2 4.4 4.4z"/>
    <path id="svg-concept" class="ba7" d="M116.9 312.4c0 .9-.7 1.6-1.6 1.6s-1.6-.7-1.6-1.6.7-1.6 1.6-1.6c.9 0 1.6.7 1.6 1.6z"/>
    <path id="svg-concept" class="ba5" d="M119.7 312.4h-2.8M113.7 312.4h-2.8"/>
  </g>
  <g>
    <path class="ba6" d="M702.8 268.6v41.6c0 5.7-13.9 10.3-31.2 10.3-17.2 0-31.2-4.6-31.2-10.3v-41.6"/>
    <path id="svg-concept" class="ba5" d="M691.2 288.1c0 1.4-1.2 2.6-2.6 2.6-1.4 0-2.6-1.2-2.6-2.6s1.2-2.6 2.6-2.6 2.6 1.2 2.6 2.6zM691.2 309.1c0 1.4-1.2 2.6-2.6 2.6-1.4 0-2.6-1.2-2.6-2.6s1.2-2.6 2.6-2.6 2.6 1.1 2.6 2.6z"/>
    <path class="ba6" d="M702.8 268.6c0 5.7-13.9 10.3-31.2 10.3-17.2 0-31.2-4.6-31.2-10.3 0-5.7 13.9-10.3 31.2-10.3 17.2 0 31.2 4.6 31.2 10.3z"/>
    <path class="ba4" d="M702.8 289.4c0 5.7-13.9 10.3-31.2 10.3-17.2 0-31.2-4.6-31.2-10.3"/>
    <path id="svg-concept" class="ba2" d="M674.1 334.5c0 1.8-1.4 3.2-3.2 3.2s-3.2-1.4-3.2-3.2c0-1.8 1.4-3.2 3.2-3.2 1.7 0 3.2 1.4 3.2 3.2zM670.9 324.8v6.5M649.7 334.5h17.9M674.1 334.5H692"/>
  </g>
  <path id="svg-concept" class="ba2" d="M376.1 313.3c0 2.8-2.2 5-5 5s-5-2.2-5-5 2.2-5 5-5c2.7 0 5 2.2 5 5z"/>
</svg>
