<svg version="1.1" id="Layer_1" xmlns="http://www.w3.org/2000/svg" x="0" y="0" viewBox="0 0 919.6 463.5" xml:space="preserve">
  <style>
    .vps0,.vps1,.vps2,.vps3,.vps4{fill:none;stroke:#fff;stroke-linecap:round;stroke-linejoin:round;stroke-miterlimit:10}.vps1,.vps2,.vps3,.vps4{stroke:#ee5586}.vps2,.vps3,.vps4{stroke:gray}.vps3,.vps4{stroke:#fff;stroke-width:3}.vps4{stroke:#ee5586}
  </style>
  <path class="vps0" d="M309.6 201.5v85.4M168.5 307.5V427M708.5 307.5v120M308.1 307.5v120M444.2 307.5v120M580.3 307.5v120"/>
  <path id="svg-concept" class="vps1" d="M439.7 226.6c0 1.7-1.3 3-3 3s-3-1.3-3-3 1.3-3 3-3c1.7.1 3 1.4 3 3z"/>
  <path class="vps2" d="M439.7 217.8c0 1.7-1.3 3-3 3s-3-1.3-3-3 1.3-3 3-3 3 1.3 3 3z"/>
  <path id="svg-concept" class="vps1" d="M806.5 261.5c0 11.6-9.4 21.1-21 21.1s-21-9.4-21-21.1c0-11.6 9.4-21 21-21s21 9.4 21 21z"/>
  <path id="svg-concept" class="vps1" d="M793.3 261.5c0 4.3-3.5 7.8-7.8 7.8s-7.8-3.5-7.8-7.8 3.5-7.8 7.8-7.8 7.8 3.5 7.8 7.8z"/>
  <path class="vps3" d="M279.6 287.2v-69.9c0-8.7 7.2-15.8 16-15.8H356M676.8 201.5h186.8c8.8 0 16 7.1 16 15.8v91.3c0 8.7-7.2 15.8-16 15.8H761.4M540.6 201.5h89.6M402.8 201.5H494"/>
  <path class="vps0" d="M849.6 201.5v123"/>
  <path class="vps2" d="M441.6 258H323.9c-1.6 0-3-1.4-3-3v-15.3c0-1.7 1.4-3 3-3h117.7c1.6 0 3 1.3 3 3V255c0 1.6-1.3 3-3 3zM326.9 231.7h-4c-1.1 0-2-.9-2-2v-4c0-1.1.9-2 2-2h4c1.1 0 2 .9 2 2v4c0 1.1-.9 2-2 2zM326.9 220.8h-4c-1.1 0-2-.9-2-2v-4c0-1.1.9-2 2-2h4c1.1 0 2 .9 2 2v4c0 1.1-.9 2-2 2zM337.9 231.7h-4c-1.1 0-2-.9-2-2v-4c0-1.1.9-2 2-2h4c1.1 0 2 .9 2 2v4c0 1.1-.9 2-2 2zM337.9 220.8h-4c-1.1 0-2-.9-2-2v-4c0-1.1.9-2 2-2h4c1.1 0 2 .9 2 2v4c0 1.1-.9 2-2 2zM348.8 231.7h-4c-1.1 0-2-.9-2-2v-4c0-1.1.9-2 2-2h4c1.1 0 2 .9 2 2v4c0 1.1-.9 2-2 2zM348.8 220.8h-4c-1.1 0-2-.9-2-2v-4c0-1.1.9-2 2-2h4c1.1 0 2 .9 2 2v4c0 1.1-.9 2-2 2zM359.7 231.7h-4c-1.1 0-2-.9-2-2v-4c0-1.1.9-2 2-2h4c1.1 0 2 .9 2 2v4c0 1.1-.9 2-2 2zM359.7 220.8h-4c-1.1 0-2-.9-2-2v-4c0-1.1.9-2 2-2h4c1.1 0 2 .9 2 2v4c0 1.1-.9 2-2 2zM370.6 220.8h-4c-1.1 0-2-.9-2-2v-4c0-1.1.9-2 2-2h4c1.1 0 2 .9 2 2v4c0 1.1-.9 2-2 2zM381.6 231.7h-4c-1.1 0-2-.9-2-2v-4c0-1.1.9-2 2-2h4c1.1 0 2 .9 2 2v4c0 1.1-.9 2-2 2zM381.6 220.8h-4c-1.1 0-2-.9-2-2v-4c0-1.1.9-2 2-2h4c1.1 0 2 .9 2 2v4c0 1.1-.9 2-2 2zM392.5 231.7h-4c-1.1 0-2-.9-2-2v-4c0-1.1.9-2 2-2h4c1.1 0 2 .9 2 2v4c0 1.1-.9 2-2 2zM425.3 220.8h-36.8c-1.1 0-2-.9-2-2v-4c0-1.1.9-2 2-2h36.8c1.1 0 2 .9 2 2v4c0 1.1-.9 2-2 2zM403.4 231.7h-4c-1.1 0-2-.9-2-2v-4c0-1.1.9-2 2-2h4c1.1 0 2 .9 2 2v4c0 1.1-.9 2-2 2zM414.4 231.7h-4c-1.1 0-2-.9-2-2v-4c0-1.1.9-2 2-2h4c1.1 0 2 .9 2 2v4c0 1.1-.9 2-2 2zM425.3 231.7h-4c-1.1 0-2-.9-2-2v-4c0-1.1.9-2 2-2h4c1.1 0 2 .9 2 2v4c0 1.1-.9 2-2 2zM439.7 277.6c0 1.7-1.3 3-3 3s-3-1.3-3-3 1.3-3 3-3 3 1.4 3 3zM439.7 268.8c0 1.7-1.3 3-3 3s-3-1.3-3-3 1.3-3 3-3 3 1.3 3 3zM326.9 282.6h-4c-1.1 0-2-.9-2-2v-4c0-1.1.9-2 2-2h4c1.1 0 2 .9 2 2v4c0 1.1-.9 2-2 2zM337.9 271.8H323c-1.1 0-2-.9-2-2v-4c0-1.1.9-2 2-2h14.9c1.1 0 2 .9 2 2v4c0 1.1-.9 2-2 2zM337.9 282.6h-4c-1.1 0-2-.9-2-2v-4c0-1.1.9-2 2-2h4c1.1 0 2 .9 2 2v4c0 1.1-.9 2-2 2zM348.8 282.6h-4c-1.1 0-2-.9-2-2v-4c0-1.1.9-2 2-2h4c1.1 0 2 .9 2 2v4c0 1.1-.9 2-2 2zM348.8 271.8h-4c-1.1 0-2-.9-2-2v-4c0-1.1.9-2 2-2h4c1.1 0 2 .9 2 2v4c0 1.1-.9 2-2 2zM359.7 282.6h-4c-1.1 0-2-.9-2-2v-4c0-1.1.9-2 2-2h4c1.1 0 2 .9 2 2v4c0 1.1-.9 2-2 2zM359.7 271.8h-4c-1.1 0-2-.9-2-2v-4c0-1.1.9-2 2-2h4c1.1 0 2 .9 2 2v4c0 1.1-.9 2-2 2zM370.6 282.6h-4c-1.1 0-2-.9-2-2v-4c0-1.1.9-2 2-2h4c1.1 0 2 .9 2 2v4c0 1.1-.9 2-2 2zM370.6 271.8h-4c-1.1 0-2-.9-2-2v-4c0-1.1.9-2 2-2h4c1.1 0 2 .9 2 2v4c0 1.1-.9 2-2 2zM381.6 282.6h-4c-1.1 0-2-.9-2-2v-4c0-1.1.9-2 2-2h4c1.1 0 2 .9 2 2v4c0 1.1-.9 2-2 2zM381.6 271.8h-4c-1.1 0-2-.9-2-2v-4c0-1.1.9-2 2-2h4c1.1 0 2 .9 2 2v4c0 1.1-.9 2-2 2zM392.5 282.6h-4c-1.1 0-2-.9-2-2v-4c0-1.1.9-2 2-2h4c1.1 0 2 .9 2 2v4c0 1.1-.9 2-2 2zM403.4 271.8h-4c-1.1 0-2-.9-2-2v-4c0-1.1.9-2 2-2h4c1.1 0 2 .9 2 2v4c0 1.1-.9 2-2 2zM414.4 282.6h-4c-1.1 0-2-.9-2-2v-4c0-1.1.9-2 2-2h4c1.1 0 2 .9 2 2v4c0 1.1-.9 2-2 2zM414.4 271.8h-4c-1.1 0-2-.9-2-2v-4c0-1.1.9-2 2-2h4c1.1 0 2 .9 2 2v4c0 1.1-.9 2-2 2zM425.3 282.6h-4c-1.1 0-2-.9-2-2v-4c0-1.1.9-2 2-2h4c1.1 0 2 .9 2 2v4c0 1.1-.9 2-2 2zM425.3 271.8h-4c-1.1 0-2-.9-2-2v-4c0-1.1.9-2 2-2h4c1.1 0 2 .9 2 2v4c0 1.1-.9 2-2 2zM574.7 226.6c0 1.7-1.3 3-3 3s-3-1.3-3-3 1.3-3 3-3c1.7.1 3 1.4 3 3zM574.7 217.8c0 1.7-1.3 3-3 3s-3-1.3-3-3 1.3-3 3-3 3 1.3 3 3zM576.6 258H459c-1.6 0-3-1.4-3-3v-15.3c0-1.7 1.4-3 3-3h117.7c1.7 0 3 1.3 3 3V255c-.1 1.6-1.4 3-3.1 3zM462 231.7h-4c-1.1 0-2-.9-2-2v-4c0-1.1.9-2 2-2h4c1.1 0 2 .9 2 2v4c0 1.1-.9 2-2 2zM462 220.8h-4c-1.1 0-2-.9-2-2v-4c0-1.1.9-2 2-2h4c1.1 0 2 .9 2 2v4c0 1.1-.9 2-2 2zM472.9 231.7h-4c-1.1 0-2-.9-2-2v-4c0-1.1.9-2 2-2h4c1.1 0 2 .9 2 2v4c0 1.1-.9 2-2 2zM472.9 220.8h-4c-1.1 0-2-.9-2-2v-4c0-1.1.9-2 2-2h4c1.1 0 2 .9 2 2v4c0 1.1-.9 2-2 2zM516.6 231.7h-36.8c-1.1 0-2-.9-2-2v-4c0-1.1.9-2 2-2h36.8c1.1 0 2 .9 2 2v4c0 1.1-.9 2-2 2zM483.8 220.8h-4c-1.1 0-2-.9-2-2v-4c0-1.1.9-2 2-2h4c1.1 0 2 .9 2 2v4c0 1.1-.9 2-2 2zM494.7 220.8h-4c-1.1 0-2-.9-2-2v-4c0-1.1.9-2 2-2h4c1.1 0 2 .9 2 2v4c0 1.1-.9 2-2 2zM505.7 220.8h-4c-1.1 0-2-.9-2-2v-4c0-1.1.9-2 2-2h4c1.1 0 2 .9 2 2v4c0 1.1-.9 2-2 2zM516.6 220.8h-4c-1.1 0-2-.9-2-2v-4c0-1.1.9-2 2-2h4c1.1 0 2 .9 2 2v4c0 1.1-.9 2-2 2zM527.5 231.7h-4c-1.1 0-2-.9-2-2v-4c0-1.1.9-2 2-2h4c1.1 0 2 .9 2 2v4c0 1.1-.9 2-2 2zM527.5 220.8h-4c-1.1 0-2-.9-2-2v-4c0-1.1.9-2 2-2h4c1.1 0 2 .9 2 2v4c0 1.1-.9 2-2 2zM538.5 231.7h-4c-1.1 0-2-.9-2-2v-4c0-1.1.9-2 2-2h4c1.1 0 2 .9 2 2v4c0 1.1-.9 2-2 2zM549.4 231.7h-4c-1.1 0-2-.9-2-2v-4c0-1.1.9-2 2-2h4c1.1 0 2 .9 2 2v4c0 1.1-.9 2-2 2zM549.4 220.8h-4c-1.1 0-2-.9-2-2v-4c0-1.1.9-2 2-2h4c1.1 0 2 .9 2 2v4c0 1.1-.9 2-2 2zM560.3 231.7h-4c-1.1 0-2-.9-2-2v-4c0-1.1.9-2 2-2h4c1.1 0 2 .9 2 2v4c0 1.1-.9 2-2 2zM560.3 220.8h-4c-1.1 0-2-.9-2-2v-4c0-1.1.9-2 2-2h4c1.1 0 2 .9 2 2v4c0 1.1-.9 2-2 2z"/>
  <path id="svg-concept" class="vps1" d="M574.7 277.6c0 1.7-1.3 3-3 3s-3-1.3-3-3 1.3-3 3-3 3 1.4 3 3z"/>
  <path class="vps2" d="M574.7 268.8c0 1.7-1.3 3-3 3s-3-1.3-3-3 1.3-3 3-3 3 1.3 3 3zM462 282.6h-4c-1.1 0-2-.9-2-2v-4c0-1.1.9-2 2-2h4c1.1 0 2 .9 2 2v4c0 1.1-.9 2-2 2zM462 271.8h-4c-1.1 0-2-.9-2-2v-4c0-1.1.9-2 2-2h4c1.1 0 2 .9 2 2v4c0 1.1-.9 2-2 2zM472.9 282.6h-4c-1.1 0-2-.9-2-2v-4c0-1.1.9-2 2-2h4c1.1 0 2 .9 2 2v4c0 1.1-.9 2-2 2zM483.8 282.6h-4c-1.1 0-2-.9-2-2v-4c0-1.1.9-2 2-2h4c1.1 0 2 .9 2 2v4c0 1.1-.9 2-2 2zM483.8 271.8h-4c-1.1 0-2-.9-2-2v-4c0-1.1.9-2 2-2h4c1.1 0 2 .9 2 2v4c0 1.1-.9 2-2 2zM494.7 282.6h-4c-1.1 0-2-.9-2-2v-4c0-1.1.9-2 2-2h4c1.1 0 2 .9 2 2v4c0 1.1-.9 2-2 2zM494.7 271.8h-4c-1.1 0-2-.9-2-2v-4c0-1.1.9-2 2-2h4c1.1 0 2 .9 2 2v4c0 1.1-.9 2-2 2zM505.7 282.6h-4c-1.1 0-2-.9-2-2v-4c0-1.1.9-2 2-2h4c1.1 0 2 .9 2 2v4c0 1.1-.9 2-2 2zM505.7 271.8h-4c-1.1 0-2-.9-2-2v-4c0-1.1.9-2 2-2h4c1.1 0 2 .9 2 2v4c0 1.1-.9 2-2 2zM516.6 282.6h-4c-1.1 0-2-.9-2-2v-4c0-1.1.9-2 2-2h4c1.1 0 2 .9 2 2v4c0 1.1-.9 2-2 2zM516.6 271.8h-4c-1.1 0-2-.9-2-2v-4c0-1.1.9-2 2-2h4c1.1 0 2 .9 2 2v4c0 1.1-.9 2-2 2zM560.3 282.6h-36.8c-1.1 0-2-.9-2-2v-4c0-1.1.9-2 2-2h36.8c1.1 0 2 .9 2 2v4c0 1.1-.9 2-2 2zM527.5 271.8h-4c-1.1 0-2-.9-2-2v-4c0-1.1.9-2 2-2h4c1.1 0 2 .9 2 2v4c0 1.1-.9 2-2 2zM538.5 271.8h-4c-1.1 0-2-.9-2-2v-4c0-1.1.9-2 2-2h4c1.1 0 2 .9 2 2v4c0 1.1-.9 2-2 2zM549.4 271.8h-4c-1.1 0-2-.9-2-2v-4c0-1.1.9-2 2-2h4c1.1 0 2 .9 2 2v4c0 1.1-.9 2-2 2zM560.3 271.8h-4c-1.1 0-2-.9-2-2v-4c0-1.1.9-2 2-2h4c1.1 0 2 .9 2 2v4c0 1.1-.9 2-2 2z"/>
  <path id="svg-concept" class="vps1" d="M709.7 226.6c0 1.7-1.3 3-3 3s-3-1.3-3-3 1.3-3 3-3c1.7.1 3 1.4 3 3zM829.8 269c-1.7 0-3-1.3-3-3s1.3-3 3-3 3 1.3 3 3c0 1.6-1.3 3-3 3zM829.8 280.4c-1.7 0-3-1.3-3-3s1.3-3 3-3 3 1.3 3 3-1.3 3-3 3z"/>
  <path class="vps2" d="M709.7 217.8c0 1.7-1.3 3-3 3s-3-1.3-3-3 1.3-3 3-3 3 1.3 3 3zM711.6 258H594c-1.7 0-3-1.4-3-3v-15.3c0-1.7 1.3-3 3-3h117.7c1.7 0 3 1.3 3 3V255c-.1 1.6-1.4 3-3.1 3zM597 231.7h-4c-1.1 0-2-.9-2-2v-4c0-1.1.9-2 2-2h4c1.1 0 2 .9 2 2v4c0 1.1-.9 2-2 2zM597 220.8h-4c-1.1 0-2-.9-2-2v-4c0-1.1.9-2 2-2h4c1.1 0 2 .9 2 2v4c0 1.1-.9 2-2 2zM607.9 231.7h-4c-1.1 0-2-.9-2-2v-4c0-1.1.9-2 2-2h4c1.1 0 2 .9 2 2v4c0 1.1-.9 2-2 2zM607.9 220.8h-4c-1.1 0-2-.9-2-2v-4c0-1.1.9-2 2-2h4c1.1 0 2 .9 2 2v4c0 1.1-.9 2-2 2zM618.8 231.7h-4c-1.1 0-2-.9-2-2v-4c0-1.1.9-2 2-2h4c1.1 0 2 .9 2 2v4c0 1.1-.9 2-2 2zM640.7 220.8h-25.9c-1.1 0-2-.9-2-2v-4c0-1.1.9-2 2-2h25.9c1.1 0 2 .9 2 2v4c0 1.1-.9 2-2 2zM629.7 231.7h-4c-1.1 0-2-.9-2-2v-4c0-1.1.9-2 2-2h4c1.1 0 2 .9 2 2v4c0 1.1-.9 2-2 2zM640.7 231.7h-4c-1.1 0-2-.9-2-2v-4c0-1.1.9-2 2-2h4c1.1 0 2 .9 2 2v4c0 1.1-.9 2-2 2zM651.6 231.7h-4c-1.1 0-2-.9-2-2v-4c0-1.1.9-2 2-2h4c1.1 0 2 .9 2 2v4c0 1.1-.9 2-2 2zM651.6 220.8h-4c-1.1 0-2-.9-2-2v-4c0-1.1.9-2 2-2h4c1.1 0 2 .9 2 2v4c0 1.1-.9 2-2 2zM662.5 220.8h-4c-1.1 0-2-.9-2-2v-4c0-1.1.9-2 2-2h4c1.1 0 2 .9 2 2v4c0 1.1-.9 2-2 2zM673.5 231.7h-4c-1.1 0-2-.9-2-2v-4c0-1.1.9-2 2-2h4c1.1 0 2 .9 2 2v4c0 1.1-.9 2-2 2zM673.5 220.8h-4c-1.1 0-2-.9-2-2v-4c0-1.1.9-2 2-2h4c1.1 0 2 .9 2 2v4c0 1.1-.9 2-2 2zM684.4 231.7h-4c-1.1 0-2-.9-2-2v-4c0-1.1.9-2 2-2h4c1.1 0 2 .9 2 2v4c0 1.1-.9 2-2 2zM695.3 231.7h-4c-1.1 0-2-.9-2-2v-4c0-1.1.9-2 2-2h4c1.1 0 2 .9 2 2v4c0 1.1-.9 2-2 2zM695.3 220.8h-4c-1.1 0-2-.9-2-2v-4c0-1.1.9-2 2-2h4c1.1 0 2 .9 2 2v4c0 1.1-.9 2-2 2zM709.7 277.6c0 1.7-1.3 3-3 3s-3-1.3-3-3 1.3-3 3-3 3 1.4 3 3zM709.7 268.8c0 1.7-1.3 3-3 3s-3-1.3-3-3 1.3-3 3-3 3 1.3 3 3zM597 282.6h-4c-1.1 0-2-.9-2-2v-4c0-1.1.9-2 2-2h4c1.1 0 2 .9 2 2v4c0 1.1-.9 2-2 2zM607.9 271.8h-4c-1.1 0-2-.9-2-2v-4c0-1.1.9-2 2-2h4c1.1 0 2 .9 2 2v4c0 1.1-.9 2-2 2zM618.8 282.6h-4c-1.1 0-2-.9-2-2v-4c0-1.1.9-2 2-2h4c1.1 0 2 .9 2 2v4c0 1.1-.9 2-2 2zM618.8 271.8h-4c-1.1 0-2-.9-2-2v-4c0-1.1.9-2 2-2h4c1.1 0 2 .9 2 2v4c0 1.1-.9 2-2 2zM629.7 282.6h-4c-1.1 0-2-.9-2-2v-4c0-1.1.9-2 2-2h4c1.1 0 2 .9 2 2v4c0 1.1-.9 2-2 2zM629.7 271.8h-4c-1.1 0-2-.9-2-2v-4c0-1.1.9-2 2-2h4c1.1 0 2 .9 2 2v4c0 1.1-.9 2-2 2zM640.7 282.6h-4c-1.1 0-2-.9-2-2v-4c0-1.1.9-2 2-2h4c1.1 0 2 .9 2 2v4c0 1.1-.9 2-2 2zM673.4 271.8h-36.8c-1.1 0-2-.9-2-2v-4c0-1.1.9-2 2-2h36.8c1.1 0 2 .9 2 2v4c0 1.1-.9 2-2 2zM651.6 282.6h-4c-1.1 0-2-.9-2-2v-4c0-1.1.9-2 2-2h4c1.1 0 2 .9 2 2v4c0 1.1-.9 2-2 2zM662.5 282.6h-4c-1.1 0-2-.9-2-2v-4c0-1.1.9-2 2-2h4c1.1 0 2 .9 2 2v4c0 1.1-.9 2-2 2zM673.5 282.6h-4c-1.1 0-2-.9-2-2v-4c0-1.1.9-2 2-2h4c1.1 0 2 .9 2 2v4c0 1.1-.9 2-2 2zM684.4 282.6h-4c-1.1 0-2-.9-2-2v-4c0-1.1.9-2 2-2h4c1.1 0 2 .9 2 2v4c0 1.1-.9 2-2 2zM684.4 271.8h-4c-1.1 0-2-.9-2-2v-4c0-1.1.9-2 2-2h4c1.1 0 2 .9 2 2v4c0 1.1-.9 2-2 2zM695.3 282.6h-4c-1.1 0-2-.9-2-2v-4c0-1.1.9-2 2-2h4c1.1 0 2 .9 2 2v4c0 1.1-.9 2-2 2zM362.2 236.6V258M403.4 236.6V258M497.2 236.6V258M538.4 236.6V258M632.2 236.6V258M673.4 236.6V258M420.7 254.7h-11c-1.1 0-2-.9-2-2v-11c0-1.1.9-2 2-2h11c1.1 0 2 .9 2 2v11c0 1.1-.9 2-2 2zM439.1 254.7h-11c-1.1 0-2-.9-2-2v-11c0-1.1.9-2 2-2h11c1.1 0 2 .9 2 2v11c0 1.1-.9 2-2 2zM555.3 254.7h-11c-1.1 0-2-.9-2-2v-11c0-1.1.9-2 2-2h11c1.1 0 2 .9 2 2v11c0 1.1-.9 2-2 2zM573.8 254.7h-11c-1.1 0-2-.9-2-2v-11c0-1.1.9-2 2-2h11c1.1 0 2 .9 2 2v11c0 1.1-.9 2-2 2z"/>
  <path class="vps2" d="M690.8 254.7h-11c-1.1 0-2-.9-2-2v-11c0-1.1.9-2 2-2h11c1.1 0 2 .9 2 2v11c0 1.1-.9 2-2 2zM709.2 254.7h-11c-1.1 0-2-.9-2-2v-11c0-1.1.9-2 2-2h11c1.1 0 2 .9 2 2v11c0 1.1-.9 2-2 2z"/>
  <path class="vps0" d="M449.2 201.5v85.7"/>
  <path class="vps2" d="M295.1 222.1v29.2M864.4 222.1v29.2"/>
  <path id="svg-concept" class="vps1" d="M806.5 261.6h-13.2M777.7 261.6h-13.3"/>
  <path class="vps0" d="M585.4 201.5v85.7M721.5 201.5v85.7"/>
  <path id="svg-concept" class="vps1" d="M298.5 332.6c0 1.7-1.3 3-3 3s-3-1.3-3-3 1.3-3 3-3 3 1.4 3 3z"/>
  <path class="vps0" d="M298.5 323.8c0 1.7-1.3 3-3 3s-3-1.3-3-3 1.3-3 3-3 3 1.3 3 3z"/>
  <path id="svg-concept" class="vps1" d="M665.3 367.5c0 11.6-9.4 21.1-21 21.1s-21-9.4-21-21.1c0-11.6 9.4-21 21-21s21 9.4 21 21z"/>
  <path id="svg-concept" class="vps1" d="M652.1 367.5c0 4.3-3.5 7.8-7.8 7.8s-7.8-3.5-7.8-7.8 3.5-7.8 7.8-7.8 7.8 3.5 7.8 7.8z"/>
  <path id="svg-concept" class="vps4" d="M535.7 307.5h186.8c8.8 0 16 7.1 16 15.8v88.3c0 8.7-7.2 15.8-16 15.8h-568c-8.9 0-16-7.1-16-15.8v-88.3c0-8.7 7.2-15.8 16-15.8h60.4M399.5 307.5H489M261.6 307.5h91.2"/>
  <path class="vps0" d="M300.4 415.3H182.7c-1.6 0-3-1.3-3-3V397c0-1.6 1.4-3 3-3h117.7c1.6 0 3 1.4 3 3v15.3c0 1.6-1.3 3-3 3zM300.4 364H182.7c-1.6 0-3-1.4-3-3v-15.3c0-1.6 1.4-3 3-3h117.7c1.6 0 3 1.4 3 3V361c0 1.6-1.3 3-3 3zM185.7 337.6h-4c-1.1 0-2-.9-2-2v-4c0-1.1.9-2 2-2h4c1.1 0 2 .9 2 2v4c0 1.1-.9 2-2 2zM185.7 326.8h-4c-1.1 0-2-.9-2-2v-4c0-1.1.9-2 2-2h4c1.1 0 2 .9 2 2v4c0 1.1-.9 2-2 2zM196.7 337.6h-4c-1.1 0-2-.9-2-2v-4c0-1.1.9-2 2-2h4c1.1 0 2 .9 2 2v4c0 1.1-.9 2-2 2zM196.7 326.8h-4c-1.1 0-2-.9-2-2v-4c0-1.1.9-2 2-2h4c1.1 0 2 .9 2 2v4c0 1.1-.9 2-2 2zM207.6 337.6h-4c-1.1 0-2-.9-2-2v-4c0-1.1.9-2 2-2h4c1.1 0 2 .9 2 2v4c0 1.1-.9 2-2 2zM207.6 326.8h-4c-1.1 0-2-.9-2-2v-4c0-1.1.9-2 2-2h4c1.1 0 2 .9 2 2v4c0 1.1-.9 2-2 2zM218.5 337.6h-4c-1.1 0-2-.9-2-2v-4c0-1.1.9-2 2-2h4c1.1 0 2 .9 2 2v4c0 1.1-.9 2-2 2zM218.5 326.8h-4c-1.1 0-2-.9-2-2v-4c0-1.1.9-2 2-2h4c1.1 0 2 .9 2 2v4c0 1.1-.9 2-2 2zM229.5 326.8h-4c-1.1 0-2-.9-2-2v-4c0-1.1.9-2 2-2h4c1.1 0 2 .9 2 2v4c0 1.1-.9 2-2 2zM240.4 337.6h-4c-1.1 0-2-.9-2-2v-4c0-1.1.9-2 2-2h4c1.1 0 2 .9 2 2v4c0 1.1-.9 2-2 2zM240.4 326.8h-4c-1.1 0-2-.9-2-2v-4c0-1.1.9-2 2-2h4c1.1 0 2 .9 2 2v4c0 1.1-.9 2-2 2zM251.3 337.6h-4c-1.1 0-2-.9-2-2v-4c0-1.1.9-2 2-2h4c1.1 0 2 .9 2 2v4c0 1.1-.9 2-2 2zM284.1 326.8h-36.8c-1.1 0-2-.9-2-2v-4c0-1.1.9-2 2-2h36.8c1.1 0 2 .9 2 2v4c0 1.1-.9 2-2 2zM262.3 337.6h-4c-1.1 0-2-.9-2-2v-4c0-1.1.9-2 2-2h4c1.1 0 2 .9 2 2v4c0 1.1-.9 2-2 2zM273.2 337.6h-4c-1.1 0-2-.9-2-2v-4c0-1.1.9-2 2-2h4c1.1 0 2 .9 2 2v4c0 1.1-.9 2-2 2zM284.1 337.6h-4c-1.1 0-2-.9-2-2v-4c0-1.1.9-2 2-2h4c1.1 0 2 .9 2 2v4c0 1.1-.9 2-2 2zM298.5 383.6c0 1.7-1.3 3-3 3s-3-1.3-3-3 1.3-3 3-3 3 1.4 3 3zM298.5 374.8c0 1.7-1.3 3-3 3s-3-1.3-3-3 1.3-3 3-3 3 1.3 3 3zM185.7 388.6h-4c-1.1 0-2-.9-2-2v-4c0-1.1.9-2 2-2h4c1.1 0 2 .9 2 2v4c0 1.1-.9 2-2 2zM196.7 377.8h-14.9c-1.1 0-2-.9-2-2v-4c0-1.1.9-2 2-2h14.9c1.1 0 2 .9 2 2v4c0 1.1-.9 2-2 2zM196.7 388.6h-4c-1.1 0-2-.9-2-2v-4c0-1.1.9-2 2-2h4c1.1 0 2 .9 2 2v4c0 1.1-.9 2-2 2zM207.6 388.6h-4c-1.1 0-2-.9-2-2v-4c0-1.1.9-2 2-2h4c1.1 0 2 .9 2 2v4c0 1.1-.9 2-2 2zM207.6 377.8h-4c-1.1 0-2-.9-2-2v-4c0-1.1.9-2 2-2h4c1.1 0 2 .9 2 2v4c0 1.1-.9 2-2 2zM218.5 388.6h-4c-1.1 0-2-.9-2-2v-4c0-1.1.9-2 2-2h4c1.1 0 2 .9 2 2v4c0 1.1-.9 2-2 2zM218.5 377.8h-4c-1.1 0-2-.9-2-2v-4c0-1.1.9-2 2-2h4c1.1 0 2 .9 2 2v4c0 1.1-.9 2-2 2zM229.5 388.6h-4c-1.1 0-2-.9-2-2v-4c0-1.1.9-2 2-2h4c1.1 0 2 .9 2 2v4c0 1.1-.9 2-2 2zM229.5 377.8h-4c-1.1 0-2-.9-2-2v-4c0-1.1.9-2 2-2h4c1.1 0 2 .9 2 2v4c0 1.1-.9 2-2 2zM240.4 388.6h-4c-1.1 0-2-.9-2-2v-4c0-1.1.9-2 2-2h4c1.1 0 2 .9 2 2v4c0 1.1-.9 2-2 2zM240.4 377.8h-4c-1.1 0-2-.9-2-2v-4c0-1.1.9-2 2-2h4c1.1 0 2 .9 2 2v4c0 1.1-.9 2-2 2zM251.3 388.6h-4c-1.1 0-2-.9-2-2v-4c0-1.1.9-2 2-2h4c1.1 0 2 .9 2 2v4c0 1.1-.9 2-2 2zM262.3 377.8h-4c-1.1 0-2-.9-2-2v-4c0-1.1.9-2 2-2h4c1.1 0 2 .9 2 2v4c0 1.1-.9 2-2 2zM273.2 388.6h-4c-1.1 0-2-.9-2-2v-4c0-1.1.9-2 2-2h4c1.1 0 2 .9 2 2v4c0 1.1-.9 2-2 2zM273.2 377.8h-4c-1.1 0-2-.9-2-2v-4c0-1.1.9-2 2-2h4c1.1 0 2 .9 2 2v4c0 1.1-.9 2-2 2zM284.1 388.6h-4c-1.1 0-2-.9-2-2v-4c0-1.1.9-2 2-2h4c1.1 0 2 .9 2 2v4c0 1.1-.9 2-2 2zM284.1 377.8h-4c-1.1 0-2-.9-2-2v-4c0-1.1.9-2 2-2h4c1.1 0 2 .9 2 2v4c0 1.1-.9 2-2 2zM433.6 332.6c0 1.7-1.3 3-3 3s-3-1.3-3-3 1.3-3 3-3c1.6 0 3 1.4 3 3zM433.6 323.8c0 1.7-1.3 3-3 3s-3-1.3-3-3 1.3-3 3-3c1.6 0 3 1.3 3 3zM435.5 415.3H317.8c-1.6 0-3-1.3-3-3V397c0-1.6 1.4-3 3-3h117.7c1.6 0 3 1.4 3 3v15.3c0 1.6-1.4 3-3 3zM435.5 364H317.8c-1.6 0-3-1.4-3-3v-15.3c0-1.6 1.4-3 3-3h117.7c1.6 0 3 1.4 3 3V361c0 1.6-1.4 3-3 3zM320.8 337.6h-4c-1.1 0-2-.9-2-2v-4c0-1.1.9-2 2-2h4c1.1 0 2 .9 2 2v4c0 1.1-.9 2-2 2zM320.8 326.8h-4c-1.1 0-2-.9-2-2v-4c0-1.1.9-2 2-2h4c1.1 0 2 .9 2 2v4c0 1.1-.9 2-2 2zM331.7 337.6h-4c-1.1 0-2-.9-2-2v-4c0-1.1.9-2 2-2h4c1.1 0 2 .9 2 2v4c0 1.1-.9 2-2 2zM331.7 326.8h-4c-1.1 0-2-.9-2-2v-4c0-1.1.9-2 2-2h4c1.1 0 2 .9 2 2v4c0 1.1-.9 2-2 2zM375.4 337.6h-36.8c-1.1 0-2-.9-2-2v-4c0-1.1.9-2 2-2h36.8c1.1 0 2 .9 2 2v4c0 1.1-.9 2-2 2zM342.6 326.8h-4c-1.1 0-2-.9-2-2v-4c0-1.1.9-2 2-2h4c1.1 0 2 .9 2 2v4c0 1.1-.9 2-2 2zM353.6 326.8h-4c-1.1 0-2-.9-2-2v-4c0-1.1.9-2 2-2h4c1.1 0 2 .9 2 2v4c0 1.1-.9 2-2 2zM364.5 326.8h-4c-1.1 0-2-.9-2-2v-4c0-1.1.9-2 2-2h4c1.1 0 2 .9 2 2v4c0 1.1-.9 2-2 2zM375.4 326.8h-4c-1.1 0-2-.9-2-2v-4c0-1.1.9-2 2-2h4c1.1 0 2 .9 2 2v4c0 1.1-.9 2-2 2zM386.4 337.6h-4c-1.1 0-2-.9-2-2v-4c0-1.1.9-2 2-2h4c1.1 0 2 .9 2 2v4c0 1.1-.9 2-2 2zM386.4 326.8h-4c-1.1 0-2-.9-2-2v-4c0-1.1.9-2 2-2h4c1.1 0 2 .9 2 2v4c0 1.1-.9 2-2 2zM397.3 337.6h-4c-1.1 0-2-.9-2-2v-4c0-1.1.9-2 2-2h4c1.1 0 2 .9 2 2v4c0 1.1-.9 2-2 2zM408.2 337.6h-4c-1.1 0-2-.9-2-2v-4c0-1.1.9-2 2-2h4c1.1 0 2 .9 2 2v4c0 1.1-.9 2-2 2zM408.2 326.8h-4c-1.1 0-2-.9-2-2v-4c0-1.1.9-2 2-2h4c1.1 0 2 .9 2 2v4c0 1.1-.9 2-2 2zM419.2 337.6h-4c-1.1 0-2-.9-2-2v-4c0-1.1.9-2 2-2h4c1.1 0 2 .9 2 2v4c0 1.1-.9 2-2 2zM419.2 326.8h-4c-1.1 0-2-.9-2-2v-4c0-1.1.9-2 2-2h4c1.1 0 2 .9 2 2v4c0 1.1-.9 2-2 2z"/>
  <path id="svg-concept" class="vps1" d="M433.6 383.6c0 1.7-1.3 3-3 3s-3-1.3-3-3 1.3-3 3-3c1.6 0 3 1.4 3 3z"/>
  <path class="vps0" d="M433.6 374.8c0 1.7-1.3 3-3 3s-3-1.3-3-3 1.3-3 3-3c1.6 0 3 1.3 3 3zM320.8 388.6h-4c-1.1 0-2-.9-2-2v-4c0-1.1.9-2 2-2h4c1.1 0 2 .9 2 2v4c0 1.1-.9 2-2 2zM320.8 377.8h-4c-1.1 0-2-.9-2-2v-4c0-1.1.9-2 2-2h4c1.1 0 2 .9 2 2v4c0 1.1-.9 2-2 2zM331.7 388.6h-4c-1.1 0-2-.9-2-2v-4c0-1.1.9-2 2-2h4c1.1 0 2 .9 2 2v4c0 1.1-.9 2-2 2zM342.6 388.6h-4c-1.1 0-2-.9-2-2v-4c0-1.1.9-2 2-2h4c1.1 0 2 .9 2 2v4c0 1.1-.9 2-2 2zM342.6 377.8h-4c-1.1 0-2-.9-2-2v-4c0-1.1.9-2 2-2h4c1.1 0 2 .9 2 2v4c0 1.1-.9 2-2 2zM353.6 388.6h-4c-1.1 0-2-.9-2-2v-4c0-1.1.9-2 2-2h4c1.1 0 2 .9 2 2v4c0 1.1-.9 2-2 2zM353.6 377.8h-4c-1.1 0-2-.9-2-2v-4c0-1.1.9-2 2-2h4c1.1 0 2 .9 2 2v4c0 1.1-.9 2-2 2zM364.5 388.6h-4c-1.1 0-2-.9-2-2v-4c0-1.1.9-2 2-2h4c1.1 0 2 .9 2 2v4c0 1.1-.9 2-2 2zM364.5 377.8h-4c-1.1 0-2-.9-2-2v-4c0-1.1.9-2 2-2h4c1.1 0 2 .9 2 2v4c0 1.1-.9 2-2 2zM375.4 388.6h-4c-1.1 0-2-.9-2-2v-4c0-1.1.9-2 2-2h4c1.1 0 2 .9 2 2v4c0 1.1-.9 2-2 2zM375.4 377.8h-4c-1.1 0-2-.9-2-2v-4c0-1.1.9-2 2-2h4c1.1 0 2 .9 2 2v4c0 1.1-.9 2-2 2zM419.2 388.6h-36.8c-1.1 0-2-.9-2-2v-4c0-1.1.9-2 2-2h36.8c1.1 0 2 .9 2 2v4c0 1.1-.9 2-2 2zM386.4 377.8h-4c-1.1 0-2-.9-2-2v-4c0-1.1.9-2 2-2h4c1.1 0 2 .9 2 2v4c0 1.1-.9 2-2 2zM397.3 377.8h-4c-1.1 0-2-.9-2-2v-4c0-1.1.9-2 2-2h4c1.1 0 2 .9 2 2v4c0 1.1-.9 2-2 2zM408.2 377.8h-4c-1.1 0-2-.9-2-2v-4c0-1.1.9-2 2-2h4c1.1 0 2 .9 2 2v4c0 1.1-.9 2-2 2zM419.2 377.8h-4c-1.1 0-2-.9-2-2v-4c0-1.1.9-2 2-2h4c1.1 0 2 .9 2 2v4c0 1.1-.9 2-2 2z"/>
  <path id="svg-concept" class="vps1" d="M568.6 332.6c0 1.7-1.3 3-3 3s-3-1.3-3-3 1.3-3 3-3c1.6 0 3 1.4 3 3zM688.7 375c-1.7 0-3-1.3-3-3s1.3-3 3-3 3 1.3 3 3c0 1.6-1.4 3-3 3zM688.7 386.4c-1.7 0-3-1.3-3-3s1.3-3 3-3 3 1.3 3 3c0 1.6-1.4 3-3 3z"/>
  <path class="vps0" d="M694.9 405.6c0 3.4-2.8 6.2-6.2 6.2-3.4 0-6.2-2.8-6.2-6.2s2.8-6.2 6.2-6.2c3.4 0 6.2 2.8 6.2 6.2z"/>
  <path class="vps2" d="M836.1 301.3c0 3.4-2.8 6.2-6.2 6.2-3.4 0-6.2-2.8-6.2-6.2s2.8-6.2 6.2-6.2c3.4 0 6.2 2.7 6.2 6.2z"/>
  <path class="vps0" d="M568.6 323.8c0 1.7-1.3 3-3 3s-3-1.3-3-3 1.3-3 3-3c1.6 0 3 1.3 3 3zM570.5 415.3H452.8c-1.6 0-3-1.3-3-3V397c0-1.6 1.4-3 3-3h117.7c1.7 0 3 1.4 3 3v15.3c0 1.6-1.4 3-3 3zM570.5 364H452.8c-1.6 0-3-1.4-3-3v-15.3c0-1.6 1.4-3 3-3h117.7c1.7 0 3 1.4 3 3V361c0 1.6-1.4 3-3 3zM455.8 337.6h-4c-1.1 0-2-.9-2-2v-4c0-1.1.9-2 2-2h4c1.1 0 2 .9 2 2v4c0 1.1-.9 2-2 2zM455.8 326.8h-4c-1.1 0-2-.9-2-2v-4c0-1.1.9-2 2-2h4c1.1 0 2 .9 2 2v4c0 1.1-.9 2-2 2zM466.7 337.6h-4c-1.1 0-2-.9-2-2v-4c0-1.1.9-2 2-2h4c1.1 0 2 .9 2 2v4c0 1.1-.9 2-2 2zM466.7 326.8h-4c-1.1 0-2-.9-2-2v-4c0-1.1.9-2 2-2h4c1.1 0 2 .9 2 2v4c0 1.1-.9 2-2 2zM477.6 337.6h-4c-1.1 0-2-.9-2-2v-4c0-1.1.9-2 2-2h4c1.1 0 2 .9 2 2v4c0 1.1-.9 2-2 2zM499.5 326.8h-25.9c-1.1 0-2-.9-2-2v-4c0-1.1.9-2 2-2h25.9c1.1 0 2 .9 2 2v4c0 1.1-.9 2-2 2zM488.6 337.6h-4c-1.1 0-2-.9-2-2v-4c0-1.1.9-2 2-2h4c1.1 0 2 .9 2 2v4c0 1.1-.9 2-2 2zM499.5 337.6h-4c-1.1 0-2-.9-2-2v-4c0-1.1.9-2 2-2h4c1.1 0 2 .9 2 2v4c0 1.1-.9 2-2 2zM510.4 337.6h-4c-1.1 0-2-.9-2-2v-4c0-1.1.9-2 2-2h4c1.1 0 2 .9 2 2v4c0 1.1-.9 2-2 2zM510.4 326.8h-4c-1.1 0-2-.9-2-2v-4c0-1.1.9-2 2-2h4c1.1 0 2 .9 2 2v4c0 1.1-.9 2-2 2zM521.4 326.8h-4c-1.1 0-2-.9-2-2v-4c0-1.1.9-2 2-2h4c1.1 0 2 .9 2 2v4c0 1.1-.9 2-2 2zM532.3 337.6h-4c-1.1 0-2-.9-2-2v-4c0-1.1.9-2 2-2h4c1.1 0 2 .9 2 2v4c0 1.1-.9 2-2 2zM532.3 326.8h-4c-1.1 0-2-.9-2-2v-4c0-1.1.9-2 2-2h4c1.1 0 2 .9 2 2v4c0 1.1-.9 2-2 2zM543.2 337.6h-4c-1.1 0-2-.9-2-2v-4c0-1.1.9-2 2-2h4c1.1 0 2 .9 2 2v4c0 1.1-.9 2-2 2zM554.2 337.6h-4c-1.1 0-2-.9-2-2v-4c0-1.1.9-2 2-2h4c1.1 0 2 .9 2 2v4c0 1.1-.9 2-2 2zM554.2 326.8h-4c-1.1 0-2-.9-2-2v-4c0-1.1.9-2 2-2h4c1.1 0 2 .9 2 2v4c0 1.1-.9 2-2 2zM568.6 383.6c0 1.7-1.3 3-3 3s-3-1.3-3-3 1.3-3 3-3c1.6 0 3 1.4 3 3zM568.6 374.8c0 1.7-1.3 3-3 3s-3-1.3-3-3 1.3-3 3-3c1.6 0 3 1.3 3 3zM455.8 388.6h-4c-1.1 0-2-.9-2-2v-4c0-1.1.9-2 2-2h4c1.1 0 2 .9 2 2v4c0 1.1-.9 2-2 2zM466.7 377.8h-4c-1.1 0-2-.9-2-2v-4c0-1.1.9-2 2-2h4c1.1 0 2 .9 2 2v4c0 1.1-.9 2-2 2zM477.6 388.6h-4c-1.1 0-2-.9-2-2v-4c0-1.1.9-2 2-2h4c1.1 0 2 .9 2 2v4c0 1.1-.9 2-2 2zM477.6 377.8h-4c-1.1 0-2-.9-2-2v-4c0-1.1.9-2 2-2h4c1.1 0 2 .9 2 2v4c0 1.1-.9 2-2 2zM488.6 388.6h-4c-1.1 0-2-.9-2-2v-4c0-1.1.9-2 2-2h4c1.1 0 2 .9 2 2v4c0 1.1-.9 2-2 2zM488.6 377.8h-4c-1.1 0-2-.9-2-2v-4c0-1.1.9-2 2-2h4c1.1 0 2 .9 2 2v4c0 1.1-.9 2-2 2zM499.5 388.6h-4c-1.1 0-2-.9-2-2v-4c0-1.1.9-2 2-2h4c1.1 0 2 .9 2 2v4c0 1.1-.9 2-2 2zM532.3 377.8h-36.8c-1.1 0-2-.9-2-2v-4c0-1.1.9-2 2-2h36.8c1.1 0 2 .9 2 2v4c0 1.1-.9 2-2 2zM510.4 388.6h-4c-1.1 0-2-.9-2-2v-4c0-1.1.9-2 2-2h4c1.1 0 2 .9 2 2v4c0 1.1-.9 2-2 2zM521.4 388.6h-4c-1.1 0-2-.9-2-2v-4c0-1.1.9-2 2-2h4c1.1 0 2 .9 2 2v4c0 1.1-.9 2-2 2zM532.3 388.6h-4c-1.1 0-2-.9-2-2v-4c0-1.1.9-2 2-2h4c1.1 0 2 .9 2 2v4c0 1.1-.9 2-2 2zM543.2 388.6h-4c-1.1 0-2-.9-2-2v-4c0-1.1.9-2 2-2h4c1.1 0 2 .9 2 2v4c0 1.1-.9 2-2 2zM543.2 377.8h-4c-1.1 0-2-.9-2-2v-4c0-1.1.9-2 2-2h4c1.1 0 2 .9 2 2v4c0 1.1-.9 2-2 2zM554.2 388.6h-4c-1.1 0-2-.9-2-2v-4c0-1.1.9-2 2-2h4c1.1 0 2 .9 2 2v4c0 1.1-.9 2-2 2zM221 342.6V364M262.2 342.6V364M356 342.6V364M397.2 342.6V364M491 342.6V364M532.3 342.6V364M356 393.9v21.4M397.2 393.9v21.4M491 393.9v21.4M532.3 394.1v21.4M221 393.9v21.4M262.2 393.9v21.4M279.5 360.7h-11c-1.1 0-2-.9-2-2v-11c0-1.1.9-2 2-2h11c1.1 0 2 .9 2 2v11c0 1.1-.9 2-2 2zM298 360.7h-11c-1.1 0-2-.9-2-2v-11c0-1.1.9-2 2-2h11c1.1 0 2 .9 2 2v11c0 1.1-.9 2-2 2zM279.5 412h-11c-1.1 0-2-.9-2-2v-11c0-1.1.9-2 2-2h11c1.1 0 2 .9 2 2v11c0 1.1-.9 2-2 2z"/>
  <path id="svg-concept" class="vps1" d="M298 412h-11c-1.1 0-2-.9-2-2v-11c0-1.1.9-2 2-2h11c1.1 0 2 .9 2 2v11c0 1.1-.9 2-2 2z"/>
  <path class="vps0" d="M414.2 360.7h-11c-1.1 0-2-.9-2-2v-11c0-1.1.9-2 2-2h11c1.1 0 2 .9 2 2v11c0 1.1-.9 2-2 2zM432.6 360.7h-11c-1.1 0-2-.9-2-2v-11c0-1.1.9-2 2-2h11c1.1 0 2 .9 2 2v11c0 1.1-.9 2-2 2zM414.2 412h-11c-1.1 0-2-.9-2-2v-11c0-1.1.9-2 2-2h11c1.1 0 2 .9 2 2v11c0 1.1-.9 2-2 2z"/>
  <path id="svg-concept" class="vps1" d="M432.6 412h-11c-1.1 0-2-.9-2-2v-11c0-1.1.9-2 2-2h11c1.1 0 2 .9 2 2v11c0 1.1-.9 2-2 2z"/>
  <path class="vps0" d="M549.6 360.7h-11c-1.1 0-2-.9-2-2v-11c0-1.1.9-2 2-2h11c1.1 0 2 .9 2 2v11c0 1.1-.9 2-2 2zM568 360.7h-11c-1.1 0-2-.9-2-2v-11c0-1.1.9-2 2-2h11c1.1 0 2 .9 2 2v11c0 1.1-.9 2-2 2zM549.6 412h-11c-1.1 0-2-.9-2-2v-11c0-1.1.9-2 2-2h11c1.1 0 2 .9 2 2v11c0 1.1-.9 2-2 2z"/>
  <path id="svg-concept" class="vps1" d="M568 412h-11c-1.1 0-2-.9-2-2v-11c0-1.1.9-2 2-2h11c1.1 0 2 .9 2 2v11c0 1.1-.9 2-2 2z"/>
  <path class="vps0" d="M153.9 328.1v29.2M723.2 328.1v29.2"/>
  <path id="svg-concept" class="vps1" d="M665.3 367.6h-13.2M636.5 367.6h-13.3"/>
  <path class="vps3" d="M411.3 168.5c-23.1-38.1-64.9-63.5-112.6-63.5h2c-68.5 0-133.6 45.9-133.6 131.6M127.8 184c-50.9 0-92.1 41.2-92.1 92.1 0 46.9 35 85.6 80.3 91.4"/>
  <path class="vps0" d="M300.4 157.7c-40.7.5-76.6 32.4-80.2 71.4l.1 1.3c.1 2.1.1 4.1.1 6.2"/>
  <path class="vps3" d="M407.4 88.1c37-35.6 87.4-57.6 142.8-57.6h-3.1c87.4 0 171.3 47.7 199.3 137.9"/>
  <path class="vps0" d="M547.6 113c42.3.5 81.3 22.7 104.4 55.5"/>
</svg>
