<svg version="1.1" id="Layer_1" xmlns="http://www.w3.org/2000/svg" xmlns:xlink="http://www.w3.org/1999/xlink" x="0" y="0" viewBox="0 0 608.9 468" xml:space="preserve">
  <style>
    .plesk2,.plesk3,.plesk4,.plesk5{fill:none;stroke:#ee5586;stroke-linecap:round;stroke-linejoin:round;stroke-miterlimit:10}.plesk3,.plesk4,.plesk5{fill:#fff}.plesk4,.plesk5{fill:none;stroke:#d7d7d7}.plesk5{stroke:gray}.plesk6{fill:gray}
  </style>
  <path d="M71.2 5.9h511.9c9 0 16.2 7.3 16.2 16.2v374.4c0 9-7.3 16.2-16.2 16.2H71.2c-9 0-16.2-7.3-16.2-16.2V22.1c0-8.9 7.3-16.2 16.2-16.2z" fill="#fff" stroke="#d7d7d7" stroke-linecap="round" stroke-linejoin="round" stroke-miterlimit="10"/>
  <path d="M25.4 58.2h511.9c9 0 16.2 7.3 16.2 16.2v374.4c0 9-7.3 16.2-16.2 16.2H25.4c-9 0-16.2-7.3-16.2-16.2V74.4c0-8.9 7.2-16.2 16.2-16.2z" fill="#fff" stroke="gray" stroke-linecap="round" stroke-linejoin="round" stroke-miterlimit="10"/>
  <path class="plesk2" d="M53.9 129.5h458.9v47.2H53.9z"/>
  <path class="plesk3" d="M68.7 83.7c0 2.4-1.9 4.3-4.3 4.3s-4.3-1.9-4.3-4.3 1.9-4.3 4.3-4.3c2.3 0 4.3 1.9 4.3 4.3z"/>
  <path class="plesk4" d="M89.3 83.7c0 2.4-1.9 4.3-4.3 4.3s-4.3-1.9-4.3-4.3 1.9-4.3 4.3-4.3c2.3 0 4.3 1.9 4.3 4.3zM109.9 83.7c0 2.4-1.9 4.3-4.3 4.3s-4.3-1.9-4.3-4.3 1.9-4.3 4.3-4.3c2.3 0 4.3 1.9 4.3 4.3zM10.4 103.9h541.7M53.9 194.4h81.9v12.8H53.9zM172.2 252.6h133.7v12.8H172.2zM154.8 194.3h357.1v12.8H154.8zM53.9 227.9h81.8M172.2 227.9h94.9M154.8 207.7v229.1M53.9 251.1h81.8M342.2 147.8h149.2M374.1 158.1h117.3"/>
  <path class="plesk2" d="M173.3 320.1h32.9v28.7h-32.9z"/>
  <path class="plesk4" d="M292.2 320.1h32.9v28.7h-32.9zM410.9 320.1h32.9v28.7h-32.9zM173.3 361.3h32.9v28.6h-32.9zM232.1 320.1H265v28.7h-32.9z"/>
  <g>
    <path id="svg-ico" class="plesk2" d="M232.1 361.3H265v28.6h-32.9z"/>
    <animate attributeName="opacity" values="0;1;0" dur="1s" repeatCount="indefinite"/>
    <animate attributeName="fill" xlink:href="#svg-ico" dur="1s" begin="0s" from="#ffffff" to="#ee5486" fill="freeze"/>
  </g>
  <g>
    <path id="svg-ico" class="plesk2" d="M352.6 320.1h32.9v28.7h-32.9z"/>
    <animate attributeName="opacity" values="0;1;0" dur="1s" repeatCount="indefinite"/>
    <animate attributeName="fill" xlink:href="#svg-ico" dur="1s" begin="0.5s" from="#ffffff" to="#ee5486" fill="freeze"/>
  </g>
  <path class="plesk4" d="M292.2 361.3h32.9v28.6h-32.9zM352.6 361.3h32.9v28.6h-32.9z"/>
  <path class="plesk2" d="M410.8 361.3h32.9v28.6h-32.9z"/>
  <path class="plesk4" d="M475.1 320.1H508v28.7h-32.9zM173.3 403.5h32.9v28.7h-32.9zM292.2 403.5h32.9v28.7h-32.9zM410.9 403.5h32.9v28.7h-32.9zM232.1 403.5H265v28.7h-32.9z"/>
  <path class="plesk2" d="M352.6 403.5h32.9v28.7h-32.9z"/>
  <path class="plesk4" d="M475.1 403.5H508v28.7h-32.9zM474.9 361.3h32.9v28.6h-32.9zM53.9 274.3h81.8M53.9 297.4h81.8M53.9 320.6h81.8"/>
  <path class="plesk5" d="M53.9 343.8h81.8M53.9 367h81.8M172.2 279.7h156.3M172.2 290.1h238.6"/>
  <path class="plesk4" d="M53.9 398.2h35.9M53.9 408.5h35.9M53.9 418.9h35.9M53.9 429.3h35.9M100 398.2h36M100 408.5h36"/>
  <path class="plesk5" d="M100 418.9h36M100 429.3h36"/>
  <path class="plesk6" d="M74.2 169.3h-2.3v-24.1c1.9-.6 3.8-.9 5.7-.9 1.3 0 2.6.2 3.7.6 1.1.4 2.1 1 2.8 1.8.8.8 1.4 1.6 1.8 2.7.4 1 .6 2.2.6 3.4 0 1.5-.3 2.8-.8 3.8-.5 1.1-1.2 1.9-2 2.6-.8.7-1.8 1.2-2.8 1.5-1.1.3-2.1.5-3.3.5-.6 0-1.2 0-1.8-.1-.6-.1-1.1-.2-1.7-.4v8.6zm9.7-16.5c0-1.9-.5-3.5-1.6-4.7-1.1-1.2-2.6-1.8-4.5-1.8-.6 0-1.2 0-1.8.1-.6.1-1.2.2-1.8.4v11.7c.5.2 1.1.3 1.6.4.6.1 1.1.2 1.6.2 2 0 3.5-.6 4.7-1.7 1.3-.9 1.8-2.5 1.8-4.6M91.2 137.9h2.3v23.2h-2.3zM112.5 158.7c-.8.8-1.7 1.5-2.7 1.9-1 .4-2.2.6-3.7.6-1.3 0-2.5-.2-3.5-.7-1-.5-1.8-1.1-2.5-1.8-.7-.8-1.2-1.7-1.5-2.7-.3-1-.5-2-.5-3.2 0-1.5.2-2.7.6-3.8.4-1.1.9-2 1.6-2.7.7-.7 1.5-1.2 2.4-1.6.9-.3 1.9-.5 2.9-.5 2.4 0 4.3.7 5.5 2.2 1.2 1.5 1.8 3.7 1.8 6.5h-12.4c.1 1.9.6 3.4 1.6 4.5s2.4 1.7 4.2 1.7c1 0 1.9-.2 2.7-.5.8-.3 1.5-.8 2.2-1.5l1.3 1.6zm-1.8-7.6c0-.7-.1-1.3-.3-1.9-.2-.6-.5-1.1-.9-1.5-.4-.4-.9-.8-1.5-1-.6-.3-1.3-.4-2.2-.4-.8 0-1.6.1-2.2.4-.6.3-1.1.6-1.4 1-.4.4-.7.9-1 1.5-.3.6-.5 1.3-.6 2h10.1zM128.2 148.4c-.6-.7-1.2-1.3-1.9-1.6-.7-.3-1.5-.5-2.4-.5-1.2 0-2 .2-2.5.6-.5.4-.7 1-.7 1.6 0 .4.1.8.3 1.1.2.3.5.6.9.8.4.2.8.4 1.3.6.5.2 1 .3 1.5.5.6.2 1.3.4 1.9.6.6.2 1.2.5 1.7.9s.9.8 1.3 1.4c.3.5.5 1.2.5 2s-.2 1.4-.5 2c-.3.6-.8 1.1-1.3 1.5-.6.4-1.2.7-2 .9-.8.2-1.6.3-2.4.3-1.3 0-2.5-.2-3.5-.6-1-.4-2-1.1-2.9-2.1l1.8-1.6c1.2 1.5 2.8 2.3 4.7 2.3 1.3 0 2.2-.2 2.8-.7.6-.5.9-1 .9-1.7 0-.5-.1-.9-.3-1.3-.2-.3-.5-.6-.9-.9-.4-.2-.8-.4-1.3-.6-.5-.2-1-.3-1.6-.5-.6-.2-1.2-.4-1.9-.6-.6-.2-1.2-.5-1.7-.8-.5-.3-.9-.8-1.2-1.3-.3-.5-.5-1.2-.5-2 0-1.5.5-2.6 1.6-3.4 1.1-.8 2.4-1.2 4.1-1.2 1.2 0 2.3.2 3.2.6.9.4 1.8 1.1 2.7 2.1l-1.7 1.6zM134.4 137.9h2.3v23.2h-2.3v-23.2zm2.3 14.6l8-8h3.1l-8.2 8 8.1 8.6h-3.2l-7.8-8.6zM85.3 167.2h14v2.2h-14z"/>
  <g>
    <path class="plesk3" d="M506.4 103.9c0 2.4-1.9 4.3-4.3 4.3s-4.3-1.9-4.3-4.3 1.9-4.3 4.3-4.3 4.3 1.9 4.3 4.3z"/>
    <animateMotion path="M40, 0 -490 0 45 0" begin="0s" dur="12s" repeatCount="indefinite"/>
  </g>
</svg>
