<svg version="1.1" id="Layer_1" xmlns="http://www.w3.org/2000/svg" xmlns:xlink="http://www.w3.org/1999/xlink" x="0" y="0" viewBox="0 0 608.9 468" xml:space="preserve">
  <style>
    .panel2,.panel3,.panel4,.panel5,.panel6{fill:#fff;stroke:#ee5586;stroke-linecap:round;stroke-linejoin:round;stroke-miterlimit:10}.panel3,.panel4,.panel5,.panel6{fill:none;stroke:#d8d8d8}.panel4,.panel5,.panel6{stroke:#ee5586}.panel5,.panel6{stroke:gray}.panel6{stroke:#fff}.panel7{fill:gray}
  </style>
  <path d="M64.4 1.7h518c9.1 0 16.4 7.4 16.4 16.4V397c0 9.1-7.4 16.4-16.4 16.4h-518C55.3 413.4 48 406 48 397V18.1C48 9 55.4 1.7 64.4 1.7z" fill="#fff" stroke="#d8d8d8" stroke-linecap="round" stroke-linejoin="round" stroke-miterlimit="10"/>
  <path d="M18.1 54.6h518c9.1 0 16.4 7.4 16.4 16.4v378.9c0 9.1-7.4 16.4-16.4 16.4h-518c-9.1 0-16.4-7.4-16.4-16.4V71C1.6 62 9 54.6 18.1 54.6z" fill="#fff" stroke="gray" stroke-linecap="round" stroke-linejoin="round" stroke-miterlimit="10"/>
  <path id="svg-concept" class="panel2" d="M61.8 80.4c0 2.4-2 4.4-4.4 4.4-2.4 0-4.4-2-4.4-4.4s2-4.4 4.4-4.4c2.5 0 4.4 2 4.4 4.4z"/>
  <path class="panel3" d="M82.7 80.4c0 2.4-2 4.4-4.4 4.4-2.4 0-4.4-2-4.4-4.4s2-4.4 4.4-4.4c2.4 0 4.4 2 4.4 4.4zM103.5 80.4c0 2.4-2 4.4-4.4 4.4-2.4 0-4.4-2-4.4-4.4s2-4.4 4.4-4.4c2.5 0 4.4 2 4.4 4.4zM2.9 100.9h548.2"/>
  <path id="svg-concept" class="panel4" d="M46.9 126.7h464.4v47.7H46.9z"/>
  <path class="panel3" d="M46.9 192.4h82.9v12.9H46.9zM149 192.4h361.4v13H149z"/>
  <path id="svg-concept" class="panel4" d="M149.4 234.4h33.3v29h-33.3z"/>
  <path class="panel3" d="M269.7 234.4H303v29h-33.3z"/>
  <g>
    <path id="svg-ico" d="M389.8 234.4h33.3v29h-33.3z"/>
    <animate attributeName="opacity" values="0;1;0" dur="1s" repeatCount="indefinite"/>
    <animate attributeName="fill" xlink:href="#svg-ico" dur="1s" begin="0s" from="#ffffff" to="#ee5486" fill="freeze"/>
  </g>
  <path class="panel3" d="M149.4 273.5h33.3v29h-33.3z"/>
  <path id="svg-concept" class="panel4" d="M269.7 273.5H303v29h-33.3z"/>
  <path class="panel3" d="M389.7 273.5H423v29h-33.3zM46.9 226.3h82.8M46.9 236.8h82.8"/>
  <path class="panel5" d="M199.8 244.7h52.4M199.8 255.1h43.6M318.5 244.7h52.4M318.5 255.1h43.6M437.2 244.7h52.4M437.2 255.1h43.6M199.8 281.9h52.4M199.8 292.4h43.6M318.5 281.9h52.4M318.5 292.4h43.6M437.2 281.9h52.4M437.2 292.4h43.6"/>
  <path class="panel3" d="M149 327.6h361.4v13H149zM149.4 369.6h33.3v29h-33.3z"/>
  <g>
    <path id="svg-ico" d="M269.7 369.6H303v29h-33.3z"/>
    <animate attributeName="opacity" values="0;1;0" dur="1s" repeatCount="indefinite"/>
    <animate attributeName="fill" xlink:href="#svg-ico" dur="1s" begin="0.5s" from="#ffffff" to="#ee5486" fill="freeze"/>
  </g>
  <path class="panel3" d="M389.8 369.6h33.3v29h-33.3z"/>
  <path id="svg-concept" class="panel4" d="M149.4 408.7h33.3v29h-33.3z"/>
  <path class="panel3" d="M269.7 408.7H303v29h-33.3z"/>
  <path id="svg-concept" class="panel4" d="M389.7 408.7H423v29h-33.3z"/>
  <path class="panel5" d="M199.8 379.9h52.4M199.8 390.4h43.6M318.5 379.9h52.4M318.5 390.4h43.6M437.2 379.9h52.4M437.2 390.4h43.6M199.8 417.1h52.4M199.8 427.6h43.6M318.5 417.1h52.4M318.5 427.6h43.6M437.2 417.1h52.4M437.2 427.6h43.6"/>
  <path class="panel3" d="M46.9 247.3h82.8M46.9 257.8h82.8M46.9 268.3h82.8"/>
  <path class="panel5" d="M46.9 278.8h82.8M46.9 289.3h82.8"/>
  <path class="panel3" d="M46.9 312.6h82.8M46.9 323.1h82.8M46.9 333.6h82.8M46.9 344.1h82.8"/>
  <path class="panel5" d="M46.9 354.6h82.8M46.9 365.1h82.8"/>
  <path class="panel3" d="M46.9 375.6h82.8M46.9 398.6h36.3M46.9 409.1h36.3M46.9 419.6h36.3M46.9 430.1h36.3M93.6 398.6h36.3M93.6 409.1h36.3"/>
  <path class="panel5" d="M93.6 419.6h36.3M93.6 430.1h36.3"/>
  <path class="panel6" d="M414.9 160.5c0 .3-.3.6-.7.6h-72.4c-.4 0-.7-.3-.7-.6v-18.7c0-.3.3-.6.7-.6h72.4c.4 0 .7.3.7.6v18.7zM487.8 160.5c0 .3-.3.6-.6.6h-55.7c-.3 0-.6-.3-.6-.6v-18.7c0-.3.2-.6.6-.6h55.7c.3 0 .6.3.6.6v18.7z"/>
  <g>
    <path class="panel7" d="M103.3 150.8l.1-.3c0-.1 0-.2-.1-.3-.1-.1-.2-.1-.3-.1h-8.1c-.3 0-.7-.1-.9-.2-.3-.1-.5-.3-.7-.6-.2-.2-.3-.5-.4-.8s-.1-.6 0-1l.5-1.9h11c.7 0 1.3.1 1.9.5.6.3 1 .7 1.4 1.2.4.5.6 1 .8 1.7.1.6.1 1.3 0 1.9l-2 7.3c-.2.7-.6 1.4-1.2 1.8-.6.5-1.3.7-2.1.7h-8.1c-.7 0-1.4-.2-2-.5-.6-.3-1.1-.7-1.5-1.2-.4-.5-.7-1.1-.8-1.8-.2-.7-.1-1.3 0-2l.1-.4c.1-.5.3-.9.6-1.3s.6-.7 1-1c.4-.3.8-.5 1.2-.7.5-.2.9-.2 1.4-.2h6.8l-.5 1.9c-.1.4-.4.8-.8 1.1-.4.3-.8.4-1.3.4h-3c-.3 0-.5.1-.6.4-.1.2 0 .3.1.5.1.1.3.2.4.2h4.9c.2 0 .3 0 .5-.1.1-.1.2-.2.2-.4l.1-.2 1.4-4.6zM69.3 145.6H75l-.9 3.3c-.1.5-.4.8-.7 1.1-.4.3-.8.4-1.3.4h-2.6c-.6 0-1.1.2-1.6.5s-.8.8-1 1.4c-.1.5-.1.9 0 1.3s.3.8.5 1.1c.2.3.5.6.9.7.4.2.8.3 1.2.3H71c.3 0 .5.1.7.4.2.2.2.5.2.8l-1 3.7h-1.7c-1.2 0-2.3-.3-3.3-.8s-1.8-1.2-2.5-2.1c-.7-.9-1.1-1.9-1.4-3-.2-1.1-.2-2.2.1-3.4l.1-.4c.2-.8.6-1.5 1-2.2.5-.7 1-1.2 1.6-1.7.6-.5 1.3-.8 2.1-1.1.8-.2 1.6-.3 2.4-.3M72.2 160.7l4.9-18.5c.1-.5.4-.8.8-1.1.4-.3.8-.4 1.3-.4h5.2c1.2 0 2.3.3 3.3.8s1.8 1.2 2.5 2.1c.7.9 1.1 1.9 1.4 3 .3 1.1.2 2.2-.1 3.4l-.1.4c-.2.8-.5 1.5-1 2.2-.4.7-1 1.3-1.6 1.7-.6.5-1.3.9-2.1 1.1-.8.3-1.6.4-2.4.4h-4.5l.9-3.4c.1-.5.4-.8.8-1.1.4-.3.8-.4 1.3-.4h1.4c.6 0 1.1-.2 1.6-.6.5-.4.8-.8.9-1.4.1-.4.1-.8 0-1.2-.1-.4-.3-.8-.5-1.1-.2-.3-.5-.6-.9-.8-.4-.2-.8-.3-1.2-.3h-2.8l-3.6 13.6c-.1.5-.4.8-.8 1.1-.4.3-.8.4-1.3.4h-3.4zM117.9 145.6c1.2 0 2.3.3 3.3.8s1.8 1.2 2.5 2.1c.7.9 1.1 1.9 1.4 3 .2 1.1.2 2.3-.1 3.4l-1.3 4.7c-.1.3-.3.6-.5.8-.3.2-.6.3-.9.3h-2.7c-.3 0-.6-.1-.8-.4-.2-.2-.2-.5-.1-.8l1.5-5.7c.1-.4.1-.8 0-1.2-.1-.4-.3-.8-.5-1.1-.2-.3-.5-.6-.9-.7-.4-.2-.8-.3-1.2-.3h-2.8l-2.4 9.1c-.1.3-.3.6-.5.8-.3.2-.6.3-.9.3h-2.7c-.3 0-.5-.1-.7-.4-.2-.2-.2-.5-.2-.8l3.7-13.9h6.8zM132.6 150.4c-.2.2-.3.4-.4.6l-1.1 4.3c-.1.2 0 .4.1.7.2.2.4.3.6.3h10.4l-.8 3c-.1.5-.4.8-.8 1.1-.4.3-.8.4-1.3.4h-9.4c-.7 0-1.3-.1-1.9-.4-.6-.3-1-.7-1.4-1.2-.4-.5-.6-1-.8-1.7-.1-.6-.1-1.3.1-1.9l1.5-5.7c.2-.6.4-1.2.8-1.7.3-.5.8-1 1.2-1.3.5-.4 1-.7 1.6-.9.6-.2 1.2-.3 1.8-.3h6.7c.7 0 1.3.2 1.9.4.6.3 1 .7 1.4 1.2.4.5.6 1 .8 1.7.1.6.1 1.3-.1 1.9l-.5 1.7c-.2.8-.6 1.4-1.2 1.8-.6.5-1.3.7-2.1.7h-7.5l.5-1.9c.1-.4.4-.8.7-1.1.4-.3.8-.4 1.3-.4h3.1c.3 0 .5-.1.6-.4l.1-.4c.1-.2 0-.4-.1-.5-.1-.2-.3-.2-.5-.2h-4.6c-.3-.1-.5 0-.7.2M142.1 160.7l5-18.9c.1-.3.3-.6.5-.8.3-.2.6-.3.9-.3h2.7c.3 0 .6.1.8.4.2.2.2.5.2.8l-3.7 13.9c-.2.7-.5 1.4-.9 2-.4.6-.9 1.1-1.5 1.5-.6.4-1.2.8-1.9 1-.6.2-1.3.4-2.1.4"/>
  </g>
  <g>
    <path id="svg-concept" class="panel2" d="M504.8 100.9c0 2.4-2 4.4-4.4 4.4-2.4 0-4.4-2-4.4-4.4s2-4.4 4.4-4.4c2.4 0 4.4 1.9 4.4 4.4z"/>
    <animateMotion path="M40, 0 -495 0 45 0" begin="0s" dur="12s" repeatCount="indefinite"/>
  </g>
</svg>
