<svg version="1.1" id="Layer_1" xmlns="http://www.w3.org/2000/svg" x="0" y="0" viewBox="0 0 480.8 419.6" xml:space="preserve">
  <style>
    .dbscale0,.dbscale1,.dbscale2,.dbscale5,.dbscale6{fill:#fff;stroke:gray;stroke-linecap:round;stroke-linejoin:round;stroke-miterlimit:10}.dbscale1,.dbscale2,.dbscale5,.dbscale6{fill:none;stroke:#ee5586}.dbscale2,.dbscale5,.dbscale6{stroke:gray}.dbscale5,.dbscale6{stroke:#ee5586;stroke-width:2}
  </style>
  <path class="dbscale0" d="M3.9 94.5C3.9 77.1 46.5 63 99.1 63s95.2 14.1 95.2 31.5v127c0 17.4-42.6 31.5-95.2 31.5S3.9 238.9 3.9 221.5v-127z"/>
  <path id="svg-concept" class="dbscale1" d="M159.6 154c0 4.9-3.9 8.8-8.8 8.8s-8.8-3.9-8.8-8.8 3.9-8.8 8.8-8.8c4.8 0 8.8 4 8.8 8.8z"/>
  <path id="svg-concept" class="dbscale1" d="M154 154c0 1.8-1.5 3.3-3.3 3.3-1.8 0-3.3-1.5-3.3-3.3s1.5-3.3 3.3-3.3c1.9.1 3.3 1.5 3.3 3.3zM159.6 154H154M147.5 154H142M159.6 217.8c0 4.9-3.9 8.8-8.8 8.8s-8.8-3.9-8.8-8.8 3.9-8.8 8.8-8.8c4.8.1 8.8 4 8.8 8.8z"/>
  <path id="svg-concept" class="dbscale1" d="M154 217.9c0 1.8-1.5 3.3-3.3 3.3-1.8 0-3.3-1.5-3.3-3.3 0-1.8 1.5-3.3 3.3-3.3 1.9 0 3.3 1.4 3.3 3.3zM159.6 217.9H154M147.5 217.9H142"/>
  <path class="dbscale2" d="M194.2 94.5c0 17.4-42.6 31.5-95.2 31.5S3.9 111.9 3.9 94.5M194.2 158c0 17.4-42.6 31.5-95.2 31.5S3.9 175.4 3.9 158"/>
  <path id="svg-concept" class="dbscale1" d="M106.6 295.7c0 5.4-4.4 9.8-9.8 9.8s-9.8-4.4-9.8-9.8 4.4-9.8 9.8-9.8c5.4-.1 9.8 4.3 9.8 9.8zM96.7 266.2v19.6M32.1 295.7h54.8M106.6 295.7h54.8"/>
  <g>
    <path class="dbscale0" d="M285.9 83.7c0-17.4 42.6-31.5 95.2-31.5s95.2 14.1 95.2 31.5v127c0 17.4-42.6 31.5-95.2 31.5s-95.2-14.1-95.2-31.5v-127z"/>
    <path class="dbscale0" d="M441.6 143.2c0 4.9-3.9 8.8-8.8 8.8s-8.8-3.9-8.8-8.8 3.9-8.8 8.8-8.8 8.8 4 8.8 8.8z"/>
    <path class="dbscale0" d="M436.1 143.2c0 1.8-1.5 3.3-3.3 3.3-1.8 0-3.3-1.5-3.3-3.3s1.5-3.3 3.3-3.3c1.8.1 3.3 1.5 3.3 3.3zM441.6 143.2h-5.5M429.6 143.2H424M441.6 207c0 4.9-3.9 8.8-8.8 8.8s-8.8-3.9-8.8-8.8 3.9-8.8 8.8-8.8c4.9.1 8.8 4 8.8 8.8z"/>
    <path class="dbscale0" d="M436.1 207c0 1.8-1.5 3.3-3.3 3.3-1.8 0-3.3-1.5-3.3-3.3 0-1.8 1.5-3.3 3.3-3.3 1.8.1 3.3 1.5 3.3 3.3zM441.6 207.1h-5.5M429.6 207.1H424"/>
    <path class="dbscale2" d="M476.3 83.7c0 17.4-42.6 31.5-95.2 31.5s-95.2-14.1-95.2-31.5M476.3 147.2c0 17.4-42.6 31.5-95.2 31.5s-95.2-14.1-95.2-31.5"/>
    <path id="svg-concept" class="dbscale1" d="M388.6 284.8c0 5.4-4.4 9.8-9.8 9.8s-9.8-4.4-9.8-9.8 4.4-9.8 9.8-9.8 9.8 4.4 9.8 9.8zM378.8 255.4V275M314.1 284.9H369M388.6 284.9h54.8"/>
  </g>
  <g>
    <path class="dbscale0" d="M120.7 162c0-20.8 51-37.7 113.8-37.7s113.8 16.9 113.8 37.7v151.9c0 20.8-51 37.7-113.8 37.7s-113.8-16.9-113.8-37.7V162z"/>
    <path id="svg-concept" class="dbscale1" d="M306.9 233.2c0 5.8-4.7 10.5-10.5 10.5s-10.5-4.7-10.5-10.5 4.7-10.5 10.5-10.5 10.5 4.7 10.5 10.5z"/>
    <path id="svg-concept" class="dbscale1" d="M300.3 233.2c0 2.2-1.7 3.9-3.9 3.9s-3.9-1.8-3.9-3.9 1.7-3.9 3.9-3.9c2.1 0 3.9 1.7 3.9 3.9zM306.9 233.2h-6.6M292.5 233.2h-6.6M306.9 309.5c0 5.8-4.7 10.5-10.5 10.5s-10.5-4.7-10.5-10.5 4.7-10.5 10.5-10.5 10.5 4.7 10.5 10.5z"/>
    <path id="svg-concept" class="dbscale1" d="M300.3 309.5c0 2.2-1.7 3.9-3.9 3.9s-3.9-1.8-3.9-3.9 1.7-3.9 3.9-3.9c2.1 0 3.9 1.8 3.9 3.9zM306.9 309.5h-6.6M292.5 309.5h-6.6"/>
    <path class="dbscale2" d="M348.4 238c0 20.8-51 37.7-113.8 37.7S120.7 258.8 120.7 238"/>
    <path id="svg-concept" class="dbscale6" d="M243.5 402.6c0 6.5-5.3 11.8-11.8 11.8S220 409 220 402.6c0-6.5 5.3-11.7 11.8-11.7s11.7 5.2 11.7 11.7zM231.8 367.3v23.5M154.4 402.6H220M243.5 402.6h65.6"/>
    <path class="dbscale2" d="M348.4 162c0 20.8-51 37.7-113.8 37.7S120.7 182.8 120.7 162"/>
  </g>
  <path d="M120.7 53.3c0-20.8 36.6-50.6 113.8-50.6 57 0 113.8 20.7 113.8 50.6v66.9c0 29-51 50.6-113.8 50.6s-113.8-22.3-113.8-50.6V53.3z" fill="#fff"/>
  <g>
    <path class="dbscale0" d="M234.7 103.9c-62.9 0-114-22.6-114-50.6 0-29.9 51.7-50.6 114-50.6 62.9 0 114 22.7 114 50.6M234.7 170.8c-62.9 0-114-22.6-114-50.6M234.7 2.7v50.6M234.7 53.3h-114M161.7 92.1l146-77.7M161.7 92.1v67M348.4 53.3H234.7M161.7 14.4l73 38.9M120.7 120.2V53.3"/>
  </g>
  <g>
    <path id="svg-concept" d="M396.8 53.3h-114v50.6l72.9 55.2c25-9.3 41-23.2 41-38.8v-67" fill="#fff" stroke="#ee5586" stroke-width="2" stroke-linecap="round" stroke-linejoin="round" stroke-miterlimit="10"/>
    <path id="svg-concept" class="dbscale5" d="M396.8 53.3c.9 15.4-15.2 28.7-41 38.8M282.8 53.3l73 39.1M355.8 92.4v66.7"/>
    <animateMotion path="M8, 0 -48 0 48" begin="0s" dur="3s" fill="freeze"/>
  </g>
  <g>
    <path class="dbscale0" d="M307.7 159.1c-19.8 7.3-45.2 11.7-73 11.7V53.3l73 38.9v66.9zM307.7 92.1c-19.8 7.3-45.2 11.7-73 11.7"/>
  </g>
</svg>
