<svg version="1.1" id="Layer_1" xmlns="http://www.w3.org/2000/svg" x="0" y="0" viewBox="0 0 496.8 429" xml:space="preserve">
  <style>
    .dbsecure0,.dbsecure1,.dbsecure2{stroke-linecap:round;stroke-linejoin:round;stroke-miterlimit:10}.dbsecure0{stroke:gray;fill:#fff}.dbsecure1,.dbsecure2{fill:none}.dbsecure1{stroke-width:2;stroke:#ee5586}.dbsecure2{stroke:gray}
  </style>
  <path class="dbsecure0" d="M65.3 114.5C100.9 47.6 171.2 2.1 252.1 2.1c117.3 0 212.1 94.7 212.1 212 0 116.8-94.7 211.7-212.1 211.7-80.9 0-151.3-45.5-186.9-112.4l.1-198.9z"/>
  <g>
    <path id="svg-concept" class="dbsecure1" d="M98.1 64.5h311.8"/>
    <animateMotion path="M8, 0 85 0 85" begin="0s" dur="4s" fill="freeze"/>
  </g>
  <g>
    <path id="svg-concept" class="dbsecure1" d="M119.7 82.4h311.8"/>
    <animateMotion path="M8, 0 63 0 63" begin="0s" dur="4s" fill="freeze"/>
  </g>
  <g>
    <path class="dbsecure2" d="M246.2 158.6c33.9 0 61.3 27.4 61.3 61.3 0 33.8-27.4 61.2-61.3 61.2-33.8 0-61.2-27.4-61.2-61.2 0-33.9 27.4-61.3 61.2-61.3z"/>
    <path class="dbsecure2" d="M246.2 168.3c28.6 0 51.7 23.1 51.7 51.7 0 28.5-23.1 51.6-51.7 51.6-28.5 0-51.6-23.1-51.6-51.6.1-28.6 23.2-51.7 51.6-51.7zM246 197.7v-61.3M258.7 238.4l35.9 48.5"/>
    <circle id="svg-concept" class="dbsecure1" cx="246" cy="128.4" r="8"/>
    <circle id="svg-concept" class="dbsecure1" cx="300.2" cy="294.1" r="8"/>
    <path class="dbsecure2" d="M233.6 238l-34.9 49.3"/>
    <circle id="svg-concept" class="dbsecure1" cx="193.6" cy="294.9" r="8"/>
    <path class="dbsecure2" d="M224.9 213l-58.6-18"/>
    <circle id="svg-concept" class="dbsecure1" cx="158.6" cy="192.6" r="8"/>
    <path class="dbsecure2" d="M267.7 213.9l58.1-19.5"/>
    <circle id="svg-concept" class="dbsecure1" cx="333.4" cy="191.8" r="8"/>
    <path id="svg-concept" d="M246.3 197.7c12.3 0 22.2 9.9 22.2 22.2 0 12.2-9.9 22.2-22.2 22.2-12.2 0-22.2-9.9-22.2-22.2 0-12.3 9.9-22.2 22.2-22.2z" fill="none" stroke="#ee5586" stroke-width="3" stroke-linecap="round" stroke-linejoin="round" stroke-miterlimit="10"/>
    <animateTransform attributeName="transform" type="rotate" begin="0s" dur="4s" from="0 246 220" to="360 246 220" fill="freeze"/>
  </g>
  <g>
    <path id="svg-concept" class="dbsecure1" d="M98.1 345.5h311.8"/>
    <animateMotion path="M8, 0 85 0 85" begin="0s" dur="4s" fill="freeze"/>
  </g>
  <g>
    <path id="svg-concept" class="dbsecure1" d="M119.7 363.4h311.8"/>
    <animateMotion path="M8, 0 63 0 63" begin="0s" dur="4s" fill="freeze"/>
  </g>
  <path class="dbsecure2" d="M451 95.7V50.6M464.2 95.7V50.6"/>
  <path class="dbsecure0" d="M446.7 58.7h8.5v11.4h-8.5zM446.7 76.7h8.5v11.4h-8.5zM460 58.7h8.5v11.4H460zM460 76.7h8.5v11.4H460z"/>
  <path class="dbsecure2" d="M451 376.7v-45.1M464.2 376.7v-45.1"/>
  <path class="dbsecure0" d="M446.7 339.7h8.5v11.4h-8.5zM446.7 357.7h8.5v11.4h-8.5zM460 339.7h8.5v11.4H460zM460 357.7h8.5v11.4H460z"/>
  <g>
    <path class="dbsecure0" d="M60.9 330.7H16.4c-2.4 0-4.3-1.9-4.3-4.3V101.5c0-2.4 1.9-4.3 4.3-4.3h44.5c2.4 0 4.3 1.9 4.3 4.3v224.9c0 2.4-2 4.3-4.3 4.3z"/>
    <path class="dbsecure0" d="M12.1 295H6c-1.6 0-2.8-1.3-2.8-2.8V135.4c0-1.6 1.3-2.8 2.8-2.8h6.1V295zM23.9 97c0-8.1 6.6-14.7 14.7-14.7S53.3 88.9 53.3 97H23.9zM53.3 330.7c0 8.1-6.6 14.7-14.7 14.7s-14.7-6.6-14.7-14.7h29.4z"/>
    <circle class="dbsecure2" cx="38.6" cy="157.5" r="9.5"/>
    <circle class="dbsecure2" cx="38.6" cy="195" r="9.5"/>
    <circle class="dbsecure2" cx="38.6" cy="232.5" r="9.5"/>
    <circle class="dbsecure2" cx="38.6" cy="270" r="9.5"/>
    <path class="dbsecure2" d="M48.1 158.2h41.4M48.1 270h41.4M65.2 235.1h30.5M65.2 213.8h30.5M65.2 192.5h30.5M110.2 258.3H98.5c-1.6 0-2.8-1.3-2.8-2.8v-83.1c0-1.6 1.3-2.8 2.8-2.8h11.7c1.6 0 2.8 1.3 2.8 2.8v83.1c0 1.6-1.3 2.8-2.8 2.8z"/>
    <g>
      <path class="dbsecure2" d="M109.9 235.2c0 3.1-2.5 5.6-5.6 5.6-3.1 0-5.6-2.5-5.6-5.6 0-3.1 2.5-5.6 5.6-5.6 3.1 0 5.6 2.5 5.6 5.6z"/>
      <path class="dbsecure2" d="M106.4 235.2c0 1.1-.9 2.1-2.1 2.1-1.1 0-2.1-.9-2.1-2.1 0-1.1.9-2.1 2.1-2.1 1.2 0 2.1 1 2.1 2.1zM109.9 235.2h-3.5M102.3 235.2h-3.6"/>
    </g>
    <g>
      <path class="dbsecure2" d="M109.9 213.8c0 3.1-2.5 5.6-5.6 5.6-3.1 0-5.6-2.5-5.6-5.6s2.5-5.6 5.6-5.6c3.1 0 5.6 2.5 5.6 5.6z"/>
      <path class="dbsecure2" d="M106.4 213.8c0 1.1-.9 2.1-2.1 2.1-1.1 0-2.1-.9-2.1-2.1s.9-2.1 2.1-2.1c1.2 0 2.1.9 2.1 2.1zM109.9 213.8h-3.5M102.3 213.8h-3.6"/>
    </g>
    <g>
      <path class="dbsecure2" d="M109.9 192.3c0 3.1-2.5 5.6-5.6 5.6-3.1 0-5.6-2.5-5.6-5.6 0-3.1 2.5-5.6 5.6-5.6 3.1.1 5.6 2.6 5.6 5.6z"/>
      <path class="dbsecure2" d="M106.4 192.4c0 1.1-.9 2.1-2.1 2.1-1.1 0-2.1-.9-2.1-2.1 0-1.1.9-2.1 2.1-2.1 1.2 0 2.1.9 2.1 2.1zM109.9 192.4h-3.5M102.3 192.4h-3.6"/>
    </g>
  </g>
  <g>
    <path class="dbsecure2" d="M216.3 97.6V49.3M275.6 97.6V49.3M216.3 378.6v-48.3M275.6 378.6v-48.3M403.3 252.1v-66.3M414.7 251.9v-66.3M414.7 185.6c0 3.1-2.5 5.7-5.7 5.7-3.1 0-5.7-2.5-5.7-5.7s2.5-5.7 5.7-5.7c3.1.1 5.7 2.6 5.7 5.7z"/>
    <path class="dbsecure2" d="M411.1 185.6c0 1.2-.9 2.1-2.1 2.1-1.2 0-2.1-.9-2.1-2.1s.9-2.1 2.1-2.1c1.2 0 2.1 1 2.1 2.1zM414.7 185.6h-3.6M406.9 185.6h-3.6"/>
    <g>
      <path class="dbsecure2" d="M414.7 252.1c0 3.1-2.5 5.7-5.7 5.7-3.1 0-5.7-2.5-5.7-5.7s2.5-5.7 5.7-5.7c3.1.1 5.7 2.6 5.7 5.7z"/>
      <path class="dbsecure2" d="M411.1 252.1c0 1.2-.9 2.1-2.1 2.1-1.2 0-2.1-.9-2.1-2.1 0-1.2.9-2.1 2.1-2.1 1.2 0 2.1 1 2.1 2.1zM414.7 252.1h-3.6M406.9 252.1h-3.6"/>
    </g>
    <g>
      <path class="dbsecure0" d="M226.1 49.2c0-2.5 2-4.6 4.6-4.6 2.5 0 4.6 2 4.6 4.6v48.4c0 2.5-2.1 4.6-4.6 4.6-2.5 0-4.6-2.1-4.6-4.6V49.2z"/>
      <path class="dbsecure0" d="M226.1 97.6c0-2.5 2-4.6 4.6-4.6 2.5 0 4.6 2 4.6 4.6"/>
      <path class="dbsecure0" d="M232.3 97.6c0 .9-.8 1.7-1.7 1.7-.9 0-1.7-.8-1.7-1.7s.8-1.7 1.7-1.7c1 0 1.7.8 1.7 1.7zM235.2 97.6h-2.9M228.9 97.6h-2.8"/>
      <g>
        <path class="dbsecure2" d="M235.2 49.2c0 2.5-2.1 4.6-4.6 4.6-2.5 0-4.6-2.1-4.6-4.6"/>
        <path class="dbsecure2" d="M232.3 49.2c0 .9-.8 1.7-1.7 1.7-.9 0-1.7-.8-1.7-1.7s.8-1.7 1.7-1.7c1 0 1.7.7 1.7 1.7zM235.2 49.2h-2.9M228.9 49.2h-2.8"/>
      </g>
    </g>
    <g>
      <path class="dbsecure0" d="M256 49.2c0-2.5 2-4.6 4.6-4.6 2.5 0 4.6 2 4.6 4.6v48.4c0 2.5-2.1 4.6-4.6 4.6-2.5 0-4.6-2.1-4.6-4.6V49.2z"/>
      <path class="dbsecure0" d="M256 97.6c0-2.5 2-4.6 4.6-4.6 2.5 0 4.6 2 4.6 4.6"/>
      <path class="dbsecure0" d="M262.2 97.6c0 .9-.8 1.7-1.7 1.7-.9 0-1.7-.8-1.7-1.7s.8-1.7 1.7-1.7c1 0 1.7.8 1.7 1.7zM265.1 97.6h-2.9M258.9 97.6H256"/>
      <g>
        <path class="dbsecure2" d="M265.1 49.2c0 2.5-2.1 4.6-4.6 4.6-2.5 0-4.6-2.1-4.6-4.6"/>
        <path class="dbsecure2" d="M262.2 49.2c0 .9-.8 1.7-1.7 1.7-.9 0-1.7-.8-1.7-1.7s.8-1.7 1.7-1.7c1 0 1.7.7 1.7 1.7zM265.1 49.2h-2.9M258.9 49.2H256"/>
      </g>
    </g>
    <g>
      <path class="dbsecure0" d="M226.1 330.2c0-2.5 2-4.6 4.6-4.6 2.5 0 4.6 2 4.6 4.6v48.4c0 2.5-2.1 4.6-4.6 4.6-2.5 0-4.6-2.1-4.6-4.6v-48.4z"/>
      <path class="dbsecure0" d="M226.1 378.6c0-2.5 2-4.6 4.6-4.6 2.5 0 4.6 2 4.6 4.6"/>
      <path class="dbsecure0" d="M232.3 378.6c0 .9-.8 1.7-1.7 1.7-.9 0-1.7-.8-1.7-1.7s.8-1.7 1.7-1.7c1 .1 1.7.8 1.7 1.7zM235.2 378.7h-2.9M228.9 378.7h-2.8"/>
      <g>
        <path class="dbsecure2" d="M235.2 330.2c0 2.5-2.1 4.6-4.6 4.6-2.5 0-4.6-2.1-4.6-4.6"/>
        <path class="dbsecure2" d="M232.3 330.2c0 .9-.8 1.7-1.7 1.7-.9 0-1.7-.8-1.7-1.7s.8-1.7 1.7-1.7c1 0 1.7.8 1.7 1.7zM235.2 330.2h-2.9M228.9 330.2h-2.8"/>
      </g>
    </g>
    <g>
      <path class="dbsecure0" d="M256 330.2c0-2.5 2-4.6 4.6-4.6 2.5 0 4.6 2 4.6 4.6v48.4c0 2.5-2.1 4.6-4.6 4.6-2.5 0-4.6-2.1-4.6-4.6v-48.4z"/>
      <path class="dbsecure0" d="M256 378.6c0-2.5 2-4.6 4.6-4.6 2.5 0 4.6 2 4.6 4.6"/>
      <path class="dbsecure0" d="M262.2 378.6c0 .9-.8 1.7-1.7 1.7-.9 0-1.7-.8-1.7-1.7s.8-1.7 1.7-1.7c1 .1 1.7.8 1.7 1.7zM265.1 378.7h-2.9M258.9 378.7H256"/>
      <g>
        <path class="dbsecure2" d="M265.1 330.2c0 2.5-2.1 4.6-4.6 4.6-2.5 0-4.6-2.1-4.6-4.6"/>
        <path class="dbsecure2" d="M262.2 330.2c0 .9-.8 1.7-1.7 1.7-.9 0-1.7-.8-1.7-1.7s.8-1.7 1.7-1.7c1 0 1.7.8 1.7 1.7zM265.1 330.2h-2.9M258.9 330.2H256"/>
      </g>
    </g>
  </g>
</svg>
