<svg version="1.1" id="Layer_1" xmlns="http://www.w3.org/2000/svg" x="0" y="0" viewBox="0 0 496.8 498" xml:space="preserve">
  <style>
    .ddosa1{fill:none;stroke:#d7d7d7}.ddosa1,.ddosa2,.ddosa3,.ddosa4{stroke-linecap:round;stroke-linejoin:round;stroke-miterlimit:10}.ddosa2{fill:none;stroke:gray}.ddosa3,.ddosa4{stroke:#ee5586}.ddosa3{stroke-width:2;fill:#fff}.ddosa4{fill:none}
  </style>
  <path d="M490.9 248.5c0 133.9-108.6 242.5-242.5 242.5S5.9 382.4 5.9 248.5C5.9 114.5 114.5 6 248.4 6s242.5 108.5 242.5 242.5z" fill="none" stroke="gray" stroke-linecap="round" stroke-linejoin="round" stroke-miterlimit="10"/>
  <path class="ddosa1" d="M248.4 19.7v457.5M19.6 248.2h457.6M76.5 419.9L410 86.5M86.7 86.6l323.5 323.6"/>
  <path class="ddosa2" d="M433.7 248.5c0 102.4-83 185.3-185.3 185.3-102.4 0-185.3-83-185.3-185.3 0-102.4 83-185.3 185.3-185.3 102.4-.1 185.3 82.9 185.3 185.3z"/>
  <path class="ddosa2" d="M477.2 248.5c0 126.4-102.4 228.8-228.8 228.8C122 477.2 19.6 374.8 19.6 248.5 19.6 122.1 122 19.7 248.4 19.7s228.8 102.4 228.8 228.8z"/>
  <path class="ddosa2" d="M372.4 248.5c0 68.5-55.5 124-124 124s-124-55.5-124-124 55.5-124 124-124 124 55.5 124 124z"/>
  <path class="ddosa2" d="M315.3 248.5c0 36.9-29.9 66.9-66.9 66.9-36.9 0-66.9-29.9-66.9-66.9 0-36.9 29.9-66.9 66.9-66.9 36.9 0 66.9 29.9 66.9 66.9z"/>
  <path class="ddosa1" d="M249 63.1v18.3M286.8 67.3L283 85.1M323.5 79.3L316.2 96M356.9 98.7l-10.6 14.7M385.6 124.5l-13.5 12.2M408.3 155.7l-15.7 9.1M424 191l-17.2 5.7M432 228.7l-18 2M432 267.2l-16.6-1.7M424 305.4l-17.1-5.6M408.3 340.5l-15.5-8.9M385.5 371.8l-13.2-11.9M356.8 397.6l-10.3-14.3M323.4 416.9l-7.1-16M286.8 428.8l-3.6-17.1M64.4 228.8l17.5 1.7M72.5 190.6l16.8 5.5M88.2 155.4l15.4 9M111 124.1l13.3 12.1M139.6 98.3l10.6 14.7M173 79l7.4 16.7M209.7 67.4l3.8 17.6M248 432.9v-17.4M209.9 428.6l3.5-16.7M173.1 416.7l6.9-15.6M139.7 397.3l10-13.8M111.1 371.5l12.6-11.4M88.4 340.3l14.7-8.6M72.6 305l16.3-5.4M64.6 267.3l17.2-1.9"/>
  <path id="svg-concept" class="ddosa3" d="M437.8 256.6c0 2.3-1.8 4.1-4.1 4.1s-4.1-1.8-4.1-4.1 1.8-4.1 4.1-4.1 4.1 1.9 4.1 4.1zM293.7 132c0 2.3-1.8 4.1-4.1 4.1s-4.1-1.8-4.1-4.1 1.8-4.1 4.1-4.1 4.1 1.8 4.1 4.1zM225.2 309.4c0 2.3-1.8 4.1-4.1 4.1s-4.1-1.8-4.1-4.1 1.8-4.1 4.1-4.1c2.2.1 4.1 1.9 4.1 4.1zM298.4 363.6c0 2.3-1.8 4.1-4.1 4.1s-4.1-1.8-4.1-4.1 1.8-4.1 4.1-4.1c2.2 0 4.1 1.8 4.1 4.1zM73.5 201.9c0 2.3-1.8 4.1-4.1 4.1s-4.1-1.8-4.1-4.1 1.8-4.1 4.1-4.1c2.3.1 4.1 1.9 4.1 4.1z"/>
  <g>
    <path id="svg-concept" d="M248.4 6C316 6 372 32.9 419.5 77L248.4 248.4V6z" fill="none" stroke="#ee5586" stroke-width="3" stroke-linecap="round" stroke-linejoin="round" stroke-miterlimit="10"/>
    <animateTransform attributeName="transform" type="rotate" dur="3s" from="0 248 249" to="360 248 249" repeatCount="indefinite"/>
  </g>
  <g>
    <path id="svg-concept" class="ddosa3" d="M258.9 248.2c0 5.8-4.7 10.5-10.5 10.5s-10.5-4.7-10.5-10.5 4.7-10.5 10.5-10.5 10.5 4.7 10.5 10.5z"/>
    <path id="svg-concept" class="ddosa4" d="M252.3 248.2c0 2.2-1.7 3.9-3.9 3.9s-3.9-1.8-3.9-3.9 1.7-3.9 3.9-3.9 3.9 1.7 3.9 3.9zM258.9 248.2h-6.6M244.5 248.2h-6.6"/>
  </g>
</svg>
