<svg xmlns="http://www.w3.org/2000/svg" viewBox="0 0 496.8 372">
  <style>
    .ddosl0{fill:#fff;stroke:gray;stroke-miterlimit:10}.ddosl0,.ddosl1,.ddosl2{stroke-linecap:round;stroke-linejoin:round}.ddosl1{fill:#fff;stroke-width:2;stroke-miterlimit:10;stroke:gray}.ddosl2{stroke:#ee5586}.ddosl2,.ddosl3,.ddosl4{fill:none;stroke-miterlimit:10}.ddosl3{stroke-linecap:round;stroke-linejoin:round;stroke:gray}.ddosl4{stroke:#d7d7d7}.ddosl5{fill:#ee5586}.ddosl6{fill:#fff;stroke:#ee5586;stroke-width:2;stroke-linecap:round;stroke-linejoin:round;stroke-miterlimit:10}
  </style>
  <path class="ddosl0" d="M436.1 14.7l-72.7 51.7C359.3 68.9 356 73 356 81v214.7c0 8 2.8 11.5 7.3 14.6l72.7 45.9"/>
  <path class="ddosl1" d="M446.6 365.7c-5.8 0-10.6-4.3-10.6-9.6V14.7c0-5.3 4.7-9.6 10.6-9.6H484c5.8 0 10.6 4.3 10.6 9.6v341.4c0 5.3-4.7 9.6-10.6 9.6h-37.4z"/>
  <path class="ddosl0" d="M60.7 14.7l72.7 51.7c4.1 2.5 7.3 6.6 7.3 14.6v214.7c0 8-2.8 11.5-7.3 14.6l-72.7 45.9"/>
  <path class="ddosl1" d="M12.7 365.7c-5.8 0-10.6-4.3-10.6-9.6V14.7C2.2 9.4 6.9 5 12.7 5h37.4c5.8 0 10.6 4.3 10.6 9.6V356c0 5.3-4.7 9.6-10.6 9.6H12.7v.1z"/>
  <path id="svg-concept" class="ddosl2" d="M35.7 100v-2.3c0-.7.5-1.2 1.2-1.2h2.3c.7 0 1.2.5 1.2 1.2v2.3c0 .7-.5 1.2-1.2 1.2h-2.3c-.7 0-1.2-.5-1.2-1.2zM17.9 94v-3.2c0-.9.8-1.7 1.7-1.7h3.2c.9 0 1.7.8 1.7 1.7V94c0 .9-.8 1.7-1.7 1.7h-3.2c-1 0-1.7-.7-1.7-1.7zM35.7 181.5v-2.3c0-.7.5-1.2 1.2-1.2h2.3c.7 0 1.2.5 1.2 1.2v2.3c0 .7-.5 1.2-1.2 1.2h-2.3c-.7 0-1.2-.6-1.2-1.2zM17.9 175.5v-3.2c0-.9.8-1.7 1.7-1.7h3.2c.9 0 1.7.8 1.7 1.7v3.2c0 .9-.8 1.7-1.7 1.7h-3.2c-1 0-1.7-.8-1.7-1.7zM35.7 262.9v-2.3c0-.7.5-1.2 1.2-1.2h2.3c.7 0 1.2.5 1.2 1.2v2.3c0 .7-.5 1.2-1.2 1.2h-2.3c-.7.1-1.2-.5-1.2-1.2zM17.9 257v-3.2c0-.9.8-1.7 1.7-1.7h3.2c.9 0 1.7.8 1.7 1.7v3.2c0 .9-.8 1.7-1.7 1.7h-3.2c-1 0-1.7-.8-1.7-1.7zM31.4 320.3c-6.9 0-12.5-5.6-12.5-12.5s5.6-12.5 12.5-12.5 12.5 5.6 12.5 12.5-5.5 12.5-12.5 12.5z"/>
  <path id="svg-concept" class="ddosl2" d="M31.4 312.4c-2.6 0-4.6-2.1-4.6-4.6 0-2.6 2.1-4.6 4.6-4.6 2.6 0 4.6 2.1 4.6 4.6.1 2.6-2 4.6-4.6 4.6zM31.4 320.3v-7.9M31.4 303.2v-7.9"/>
  <path class="ddosl3" d="M60.7 24.9H2.4M60.7 345.9H2.2M13.3 97.2V35.6c0-2.2 1.8-4 4-4h7.6c2.2 0 4 1.8 4 4v61.6c0 2.2-1.8 4-4 4h-7.6c-2.2 0-4-1.8-4-4zM35.7 40.8v-2.3c0-.7.5-1.2 1.2-1.2h2.3c.7 0 1.2.5 1.2 1.2v2.3c0 .7-.5 1.2-1.2 1.2h-2.3c-.7 0-1.2-.6-1.2-1.2zM35.7 50.3V48c0-.7.5-1.2 1.2-1.2h2.3c.7 0 1.2.5 1.2 1.2v2.3c0 .7-.5 1.2-1.2 1.2h-2.3c-.7 0-1.2-.5-1.2-1.2zM35.7 63.7v-2.3c0-.7.5-1.2 1.2-1.2h2.3c.7 0 1.2.5 1.2 1.2v2.3c0 .7-.5 1.2-1.2 1.2h-2.3c-.7.1-1.2-.5-1.2-1.2zM46 40.8v-2.3c0-.7.5-1.2 1.2-1.2h2.3c.7 0 1.2.5 1.2 1.2v2.3c0 .7-.5 1.2-1.2 1.2h-2.3c-.6 0-1.2-.6-1.2-1.2zM46 50.3V48c0-.7.5-1.2 1.2-1.2h2.3c.7 0 1.2.5 1.2 1.2v2.3c0 .7-.5 1.2-1.2 1.2h-2.3c-.6 0-1.2-.5-1.2-1.2zM46 99.9v-2.3c0-.7.5-1.2 1.2-1.2h2.3c.7 0 1.2.5 1.2 1.2v2.3c0 .7-.5 1.2-1.2 1.2h-2.3c-.6 0-1.2-.6-1.2-1.2zM35.7 73.3V71c0-.7.5-1.2 1.2-1.2h2.3c.7 0 1.2.5 1.2 1.2v2.3c0 .7-.5 1.2-1.2 1.2h-2.3c-.7 0-1.2-.5-1.2-1.2zM35.7 82.7v-2.3c0-.7.5-1.2 1.2-1.2h2.3c.7 0 1.2.5 1.2 1.2v2.3c0 .7-.5 1.2-1.2 1.2h-2.3c-.7 0-1.2-.6-1.2-1.2z"/>
  <path class="ddosl3" d="M35.7 82.8v-2.3c0-.7.5-1.2 1.2-1.2h2.3c.7 0 1.2.5 1.2 1.2v2.3c0 .7-.5 1.2-1.2 1.2h-2.3c-.7 0-1.2-.5-1.2-1.2zM46 82.8V62.2c0-.7.5-1.2 1.2-1.2h2.3c.7 0 1.2.5 1.2 1.2v20.6c0 .7-.5 1.2-1.2 1.2h-2.3c-.6 0-1.2-.5-1.2-1.2zM28.9 56.1H13.3M17.9 81.9v-3.2c0-.9.8-1.7 1.7-1.7h3.2c.9 0 1.7.8 1.7 1.7v3.2c0 .9-.8 1.7-1.7 1.7h-3.2c-1 0-1.7-.7-1.7-1.7zM13.3 178.7v-61.6c0-2.2 1.8-4 4-4h7.6c2.2 0 4 1.8 4 4v61.6c0 2.2-1.8 4-4 4h-7.6c-2.2 0-4-1.8-4-4zM35.7 122.2v-2.3c0-.7.5-1.2 1.2-1.2h2.3c.7 0 1.2.5 1.2 1.2v2.3c0 .7-.5 1.2-1.2 1.2h-2.3c-.7.1-1.2-.5-1.2-1.2zM35.7 131.8v-2.3c0-.7.5-1.2 1.2-1.2h2.3c.7 0 1.2.5 1.2 1.2v2.3c0 .7-.5 1.2-1.2 1.2h-2.3c-.7 0-1.2-.5-1.2-1.2zM35.7 145.2v-2.3c0-.7.5-1.2 1.2-1.2h2.3c.7 0 1.2.5 1.2 1.2v2.3c0 .7-.5 1.2-1.2 1.2h-2.3c-.7 0-1.2-.5-1.2-1.2zM46 122.2v-2.3c0-.7.5-1.2 1.2-1.2h2.3c.7 0 1.2.5 1.2 1.2v2.3c0 .7-.5 1.2-1.2 1.2h-2.3c-.6.1-1.2-.5-1.2-1.2zM46 131.8v-2.3c0-.7.5-1.2 1.2-1.2h2.3c.7 0 1.2.5 1.2 1.2v2.3c0 .7-.5 1.2-1.2 1.2h-2.3c-.6 0-1.2-.5-1.2-1.2zM46 181.3V179c0-.7.5-1.2 1.2-1.2h2.3c.7 0 1.2.5 1.2 1.2v2.3c0 .7-.5 1.2-1.2 1.2h-2.3c-.6.1-1.2-.5-1.2-1.2zM35.7 154.8v-2.3c0-.7.5-1.2 1.2-1.2h2.3c.7 0 1.2.5 1.2 1.2v2.3c0 .7-.5 1.2-1.2 1.2h-2.3c-.7 0-1.2-.6-1.2-1.2zM35.7 164.1v-2.3c0-.7.5-1.2 1.2-1.2h2.3c.7 0 1.2.5 1.2 1.2v2.3c0 .7-.5 1.2-1.2 1.2h-2.3c-.7.1-1.2-.5-1.2-1.2z"/>
  <path class="ddosl3" d="M35.7 164.3V162c0-.7.5-1.2 1.2-1.2h2.3c.7 0 1.2.5 1.2 1.2v2.3c0 .7-.5 1.2-1.2 1.2h-2.3c-.7 0-1.2-.5-1.2-1.2zM46 164.3v-20.6c0-.7.5-1.2 1.2-1.2h2.3c.7 0 1.2.5 1.2 1.2v20.6c0 .7-.5 1.2-1.2 1.2h-2.3c-.6 0-1.2-.5-1.2-1.2zM28.9 137.6H13.3M17.9 163.4v-3.2c0-.9.8-1.7 1.7-1.7h3.2c.9 0 1.7.8 1.7 1.7v3.2c0 .9-.8 1.7-1.7 1.7h-3.2c-1 0-1.7-.8-1.7-1.7zM13.3 260.2v-61.6c0-2.2 1.8-4 4-4h7.6c2.2 0 4 1.8 4 4v61.6c0 2.2-1.8 4-4 4h-7.6c-2.2 0-4-1.8-4-4zM35.7 203.7v-2.3c0-.7.5-1.2 1.2-1.2h2.3c.7 0 1.2.5 1.2 1.2v2.3c0 .7-.5 1.2-1.2 1.2h-2.3c-.7 0-1.2-.5-1.2-1.2zM35.7 213.3V211c0-.7.5-1.2 1.2-1.2h2.3c.7 0 1.2.5 1.2 1.2v2.3c0 .7-.5 1.2-1.2 1.2h-2.3c-.7 0-1.2-.6-1.2-1.2zM35.7 226.7v-2.3c0-.7.5-1.2 1.2-1.2h2.3c.7 0 1.2.5 1.2 1.2v2.3c0 .7-.5 1.2-1.2 1.2h-2.3c-.7 0-1.2-.5-1.2-1.2zM46 203.7v-2.3c0-.7.5-1.2 1.2-1.2h2.3c.7 0 1.2.5 1.2 1.2v2.3c0 .7-.5 1.2-1.2 1.2h-2.3c-.6 0-1.2-.5-1.2-1.2zM46 213.3V211c0-.7.5-1.2 1.2-1.2h2.3c.7 0 1.2.5 1.2 1.2v2.3c0 .7-.5 1.2-1.2 1.2h-2.3c-.6 0-1.2-.6-1.2-1.2zM46 262.8v-2.3c0-.7.5-1.2 1.2-1.2h2.3c.7 0 1.2.5 1.2 1.2v2.3c0 .7-.5 1.2-1.2 1.2h-2.3c-.6 0-1.2-.5-1.2-1.2zM35.7 236.2v-2.3c0-.7.5-1.2 1.2-1.2h2.3c.7 0 1.2.5 1.2 1.2v2.3c0 .7-.5 1.2-1.2 1.2h-2.3c-.7.1-1.2-.5-1.2-1.2zM35.7 245.6v-2.3c0-.7.5-1.2 1.2-1.2h2.3c.7 0 1.2.5 1.2 1.2v2.3c0 .7-.5 1.2-1.2 1.2h-2.3c-.7 0-1.2-.5-1.2-1.2z"/>
  <path class="ddosl3" d="M35.7 245.8v-2.3c0-.7.5-1.2 1.2-1.2h2.3c.7 0 1.2.5 1.2 1.2v2.3c0 .7-.5 1.2-1.2 1.2h-2.3c-.7 0-1.2-.6-1.2-1.2z"/>
  <path id="svg-concept" class="ddosl2" d="M20.4 337.8c-2 0-3.7-1.7-3.7-3.7s1.7-3.7 3.7-3.7 3.7 1.6 3.7 3.7-1.7 3.7-3.7 3.7z"/>
  <path class="ddosl3" d="M30.8 335.3V333c0-.7.5-1.2 1.2-1.2h2.3c.7 0 1.2.5 1.2 1.2v2.3c0 .7-.5 1.2-1.2 1.2H32c-.6 0-1.2-.6-1.2-1.2zM41.3 335.3V333c0-.7.5-1.2 1.2-1.2h2.3c.7 0 1.2.5 1.2 1.2v2.3c0 .7-.5 1.2-1.2 1.2h-2.3c-.6 0-1.2-.6-1.2-1.2zM46 245.8v-20.6c0-.7.5-1.2 1.2-1.2h2.3c.7 0 1.2.5 1.2 1.2v20.6c0 .7-.5 1.2-1.2 1.2h-2.3c-.6 0-1.2-.6-1.2-1.2zM28.9 219H13.3M17.9 244.9v-3.2c0-.9.8-1.7 1.7-1.7h3.2c.9 0 1.7.8 1.7 1.7v3.2c0 .9-.8 1.7-1.7 1.7h-3.2c-1 0-1.7-.8-1.7-1.7zM60.7 107.9H2.2M128.4 93.3V81.5M123.9 90.3V79M119.1 87.4V76M114.3 84.4V73M109.6 81.4V70M41.1 16.2H23.7M41.1 354.7H23.7M60.7 188.8H2.2M60.7 269.7H2.2M114.2 245.6v44.9c0 2.7 2.3 5.7 4.9 4.9l4.7-1.7c3.2-.9 4.6-3.4 4.6-6v-42c0-2.7-2.2-4.9-4.9-4.9H119c-2.6-.1-4.8 2.1-4.8 4.8z"/>
  <path id="svg-concept" class="ddosl2" d="M469.6 100v-2.3c0-.7.5-1.2 1.2-1.2h2.3c.7 0 1.2.5 1.2 1.2v2.3c0 .7-.5 1.2-1.2 1.2h-2.3c-.7 0-1.2-.5-1.2-1.2zM451.8 94v-3.2c0-.9.8-1.7 1.7-1.7h3.2c.9 0 1.7.8 1.7 1.7V94c0 .9-.8 1.7-1.7 1.7h-3.2c-1 0-1.7-.7-1.7-1.7zM469.6 181.5v-2.3c0-.7.5-1.2 1.2-1.2h2.3c.7 0 1.2.5 1.2 1.2v2.3c0 .7-.5 1.2-1.2 1.2h-2.3c-.7 0-1.2-.6-1.2-1.2zM451.8 175.5v-3.2c0-.9.8-1.7 1.7-1.7h3.2c.9 0 1.7.8 1.7 1.7v3.2c0 .9-.8 1.7-1.7 1.7h-3.2c-1 0-1.7-.8-1.7-1.7zM469.6 262.9v-2.3c0-.7.5-1.2 1.2-1.2h2.3c.7 0 1.2.5 1.2 1.2v2.3c0 .7-.5 1.2-1.2 1.2h-2.3c-.7.1-1.2-.5-1.2-1.2zM451.8 257v-3.2c0-.9.8-1.7 1.7-1.7h3.2c.9 0 1.7.8 1.7 1.7v3.2c0 .9-.8 1.7-1.7 1.7h-3.2c-1 0-1.7-.8-1.7-1.7zM465.3 320.3c-6.9 0-12.5-5.6-12.5-12.5s5.6-12.5 12.5-12.5 12.5 5.6 12.5 12.5-5.6 12.5-12.5 12.5z"/>
  <path id="svg-concept" class="ddosl2" d="M465.3 312.4c-2.6 0-4.6-2.1-4.6-4.6 0-2.6 2.1-4.6 4.6-4.6s4.6 2.1 4.6 4.6c.1 2.6-2 4.6-4.6 4.6zM465.3 320.3v-7.9M465.3 303.2v-7.9"/>
  <path class="ddosl3" d="M494.6 24.9h-58.3M494.6 345.9h-58.5M447.2 97.2V35.6c0-2.2 1.8-4 4-4h7.6c2.2 0 4 1.8 4 4v61.6c0 2.2-1.8 4-4 4h-7.6c-2.2 0-4-1.8-4-4zM469.6 40.8v-2.3c0-.7.5-1.2 1.2-1.2h2.3c.7 0 1.2.5 1.2 1.2v2.3c0 .7-.5 1.2-1.2 1.2h-2.3c-.7 0-1.2-.6-1.2-1.2zM469.6 50.3V48c0-.7.5-1.2 1.2-1.2h2.3c.7 0 1.2.5 1.2 1.2v2.3c0 .7-.5 1.2-1.2 1.2h-2.3c-.7 0-1.2-.5-1.2-1.2zM469.6 63.7v-2.3c0-.7.5-1.2 1.2-1.2h2.3c.7 0 1.2.5 1.2 1.2v2.3c0 .7-.5 1.2-1.2 1.2h-2.3c-.7.1-1.2-.5-1.2-1.2zM479.9 40.8v-2.3c0-.7.5-1.2 1.2-1.2h2.3c.7 0 1.2.5 1.2 1.2v2.3c0 .7-.5 1.2-1.2 1.2h-2.3c-.6 0-1.2-.6-1.2-1.2zM479.9 50.3V48c0-.7.5-1.2 1.2-1.2h2.3c.7 0 1.2.5 1.2 1.2v2.3c0 .7-.5 1.2-1.2 1.2h-2.3c-.6 0-1.2-.5-1.2-1.2zM479.9 99.9v-2.3c0-.7.5-1.2 1.2-1.2h2.3c.7 0 1.2.5 1.2 1.2v2.3c0 .7-.5 1.2-1.2 1.2h-2.3c-.6 0-1.2-.6-1.2-1.2zM469.6 73.3V71c0-.7.5-1.2 1.2-1.2h2.3c.7 0 1.2.5 1.2 1.2v2.3c0 .7-.5 1.2-1.2 1.2h-2.3c-.7 0-1.2-.5-1.2-1.2zM469.6 82.7v-2.3c0-.7.5-1.2 1.2-1.2h2.3c.7 0 1.2.5 1.2 1.2v2.3c0 .7-.5 1.2-1.2 1.2h-2.3c-.7 0-1.2-.6-1.2-1.2z"/>
  <path class="ddosl3" d="M469.6 82.8v-2.3c0-.7.5-1.2 1.2-1.2h2.3c.7 0 1.2.5 1.2 1.2v2.3c0 .7-.5 1.2-1.2 1.2h-2.3c-.7 0-1.2-.5-1.2-1.2zM479.9 82.8V62.2c0-.7.5-1.2 1.2-1.2h2.3c.7 0 1.2.5 1.2 1.2v20.6c0 .7-.5 1.2-1.2 1.2h-2.3c-.6 0-1.2-.5-1.2-1.2zM462.8 56.1h-15.6M451.8 81.9v-3.2c0-.9.8-1.7 1.7-1.7h3.2c.9 0 1.7.8 1.7 1.7v3.2c0 .9-.8 1.7-1.7 1.7h-3.2c-1 0-1.7-.7-1.7-1.7zM447.2 178.7v-61.6c0-2.2 1.8-4 4-4h7.6c2.2 0 4 1.8 4 4v61.6c0 2.2-1.8 4-4 4h-7.6c-2.2 0-4-1.8-4-4zM469.6 122.2v-2.3c0-.7.5-1.2 1.2-1.2h2.3c.7 0 1.2.5 1.2 1.2v2.3c0 .7-.5 1.2-1.2 1.2h-2.3c-.7.1-1.2-.5-1.2-1.2zM469.6 131.8v-2.3c0-.7.5-1.2 1.2-1.2h2.3c.7 0 1.2.5 1.2 1.2v2.3c0 .7-.5 1.2-1.2 1.2h-2.3c-.7 0-1.2-.5-1.2-1.2zM469.6 145.2v-2.3c0-.7.5-1.2 1.2-1.2h2.3c.7 0 1.2.5 1.2 1.2v2.3c0 .7-.5 1.2-1.2 1.2h-2.3c-.7 0-1.2-.5-1.2-1.2zM479.9 122.2v-2.3c0-.7.5-1.2 1.2-1.2h2.3c.7 0 1.2.5 1.2 1.2v2.3c0 .7-.5 1.2-1.2 1.2h-2.3c-.6.1-1.2-.5-1.2-1.2zM479.9 131.8v-2.3c0-.7.5-1.2 1.2-1.2h2.3c.7 0 1.2.5 1.2 1.2v2.3c0 .7-.5 1.2-1.2 1.2h-2.3c-.6 0-1.2-.5-1.2-1.2zM479.9 181.3V179c0-.7.5-1.2 1.2-1.2h2.3c.7 0 1.2.5 1.2 1.2v2.3c0 .7-.5 1.2-1.2 1.2h-2.3c-.6.1-1.2-.5-1.2-1.2zM469.6 154.8v-2.3c0-.7.5-1.2 1.2-1.2h2.3c.7 0 1.2.5 1.2 1.2v2.3c0 .7-.5 1.2-1.2 1.2h-2.3c-.7 0-1.2-.6-1.2-1.2zM469.6 164.1v-2.3c0-.7.5-1.2 1.2-1.2h2.3c.7 0 1.2.5 1.2 1.2v2.3c0 .7-.5 1.2-1.2 1.2h-2.3c-.7.1-1.2-.5-1.2-1.2z"/>
  <path class="ddosl3" d="M469.6 164.3V162c0-.7.5-1.2 1.2-1.2h2.3c.7 0 1.2.5 1.2 1.2v2.3c0 .7-.5 1.2-1.2 1.2h-2.3c-.7 0-1.2-.5-1.2-1.2zM479.9 164.3v-20.6c0-.7.5-1.2 1.2-1.2h2.3c.7 0 1.2.5 1.2 1.2v20.6c0 .7-.5 1.2-1.2 1.2h-2.3c-.6 0-1.2-.5-1.2-1.2zM462.8 137.6h-15.6M451.8 163.4v-3.2c0-.9.8-1.7 1.7-1.7h3.2c.9 0 1.7.8 1.7 1.7v3.2c0 .9-.8 1.7-1.7 1.7h-3.2c-1 0-1.7-.8-1.7-1.7zM447.2 260.2v-61.6c0-2.2 1.8-4 4-4h7.6c2.2 0 4 1.8 4 4v61.6c0 2.2-1.8 4-4 4h-7.6c-2.2 0-4-1.8-4-4zM469.6 203.7v-2.3c0-.7.5-1.2 1.2-1.2h2.3c.7 0 1.2.5 1.2 1.2v2.3c0 .7-.5 1.2-1.2 1.2h-2.3c-.7 0-1.2-.5-1.2-1.2zM469.6 213.3V211c0-.7.5-1.2 1.2-1.2h2.3c.7 0 1.2.5 1.2 1.2v2.3c0 .7-.5 1.2-1.2 1.2h-2.3c-.7 0-1.2-.6-1.2-1.2zM469.6 226.7v-2.3c0-.7.5-1.2 1.2-1.2h2.3c.7 0 1.2.5 1.2 1.2v2.3c0 .7-.5 1.2-1.2 1.2h-2.3c-.7 0-1.2-.5-1.2-1.2zM479.9 203.7v-2.3c0-.7.5-1.2 1.2-1.2h2.3c.7 0 1.2.5 1.2 1.2v2.3c0 .7-.5 1.2-1.2 1.2h-2.3c-.6 0-1.2-.5-1.2-1.2zM479.9 213.3V211c0-.7.5-1.2 1.2-1.2h2.3c.7 0 1.2.5 1.2 1.2v2.3c0 .7-.5 1.2-1.2 1.2h-2.3c-.6 0-1.2-.6-1.2-1.2zM479.9 262.8v-2.3c0-.7.5-1.2 1.2-1.2h2.3c.7 0 1.2.5 1.2 1.2v2.3c0 .7-.5 1.2-1.2 1.2h-2.3c-.6 0-1.2-.5-1.2-1.2zM469.6 236.2v-2.3c0-.7.5-1.2 1.2-1.2h2.3c.7 0 1.2.5 1.2 1.2v2.3c0 .7-.5 1.2-1.2 1.2h-2.3c-.7.1-1.2-.5-1.2-1.2zM469.6 245.6v-2.3c0-.7.5-1.2 1.2-1.2h2.3c.7 0 1.2.5 1.2 1.2v2.3c0 .7-.5 1.2-1.2 1.2h-2.3c-.7 0-1.2-.5-1.2-1.2z"/>
  <path class="ddosl3" d="M469.6 245.8v-2.3c0-.7.5-1.2 1.2-1.2h2.3c.7 0 1.2.5 1.2 1.2v2.3c0 .7-.5 1.2-1.2 1.2h-2.3c-.7 0-1.2-.6-1.2-1.2z"/>
  <path id="svg-concept" class="ddosl2" d="M454.3 337.8c-2 0-3.7-1.7-3.7-3.7s1.7-3.7 3.7-3.7 3.7 1.6 3.7 3.7-1.7 3.7-3.7 3.7z"/>
  <path class="ddosl3" d="M464.7 335.3V333c0-.7.5-1.2 1.2-1.2h2.3c.7 0 1.2.5 1.2 1.2v2.3c0 .7-.5 1.2-1.2 1.2h-2.3c-.6 0-1.2-.6-1.2-1.2zM475.2 335.3V333c0-.7.5-1.2 1.2-1.2h2.3c.7 0 1.2.5 1.2 1.2v2.3c0 .7-.5 1.2-1.2 1.2h-2.3c-.6 0-1.2-.6-1.2-1.2zM479.9 245.8v-20.6c0-.7.5-1.2 1.2-1.2h2.3c.7 0 1.2.5 1.2 1.2v20.6c0 .7-.5 1.2-1.2 1.2h-2.3c-.6 0-1.2-.6-1.2-1.2zM462.8 219h-15.6M451.8 244.9v-3.2c0-.9.8-1.7 1.7-1.7h3.2c.9 0 1.7.8 1.7 1.7v3.2c0 .9-.8 1.7-1.7 1.7h-3.2c-1 0-1.7-.8-1.7-1.7zM494.6 107.9h-58.5M368.3 93.3V81.5M372.9 90.3V79M377.6 87.4V76M382.4 84.4V73M387.2 81.4V70M475 16.2h-17.4M475 354.7h-17.4M494.6 188.8h-58.5M494.6 269.7h-58.5M382.5 245.6v44.9c0 2.7-2.3 5.7-4.9 4.9l-4.7-1.7c-3.2-.9-4.6-3.4-4.6-6v-42c0-2.7 2.2-4.9 4.9-4.9h4.5c2.6-.1 4.8 2.1 4.8 4.8z"/>
  <path class="ddosl1" d="M229.6 365.7c-5.8 0-10.6-4.3-10.6-9.6V14.7c0-5.3 4.7-9.6 10.6-9.6H267c5.8 0 10.6 4.3 10.6 9.6v341.4c0 5.3-4.7 9.6-10.6 9.6h-37.4z"/>
  <path id="svg-concept" class="ddosl2" d="M252.5 100v-2.3c0-.7.5-1.2 1.2-1.2h2.3c.7 0 1.2.5 1.2 1.2v2.3c0 .7-.5 1.2-1.2 1.2h-2.3c-.6 0-1.2-.5-1.2-1.2zM234.7 94v-3.2c0-.9.8-1.7 1.7-1.7h3.2c.9 0 1.7.8 1.7 1.7V94c0 .9-.8 1.7-1.7 1.7h-3.2c-.9 0-1.7-.7-1.7-1.7zM252.5 181.5v-2.3c0-.7.5-1.2 1.2-1.2h2.3c.7 0 1.2.5 1.2 1.2v2.3c0 .7-.5 1.2-1.2 1.2h-2.3c-.6 0-1.2-.6-1.2-1.2zM234.7 175.5v-3.2c0-.9.8-1.7 1.7-1.7h3.2c.9 0 1.7.8 1.7 1.7v3.2c0 .9-.8 1.7-1.7 1.7h-3.2c-.9 0-1.7-.8-1.7-1.7zM252.5 262.9v-2.3c0-.7.5-1.2 1.2-1.2h2.3c.7 0 1.2.5 1.2 1.2v2.3c0 .7-.5 1.2-1.2 1.2h-2.3c-.6.1-1.2-.5-1.2-1.2zM234.7 257v-3.2c0-.9.8-1.7 1.7-1.7h3.2c.9 0 1.7.8 1.7 1.7v3.2c0 .9-.8 1.7-1.7 1.7h-3.2c-.9 0-1.7-.8-1.7-1.7zM248.3 320.3c-6.9 0-12.5-5.6-12.5-12.5s5.6-12.5 12.5-12.5 12.5 5.6 12.5 12.5-5.6 12.5-12.5 12.5z"/>
  <path id="svg-concept" class="ddosl2" d="M248.3 312.4c-2.6 0-4.6-2.1-4.6-4.6 0-2.6 2.1-4.6 4.6-4.6s4.6 2.1 4.6 4.6c0 2.6-2.1 4.6-4.6 4.6zM248.2 320.3v-7.9M248.2 303.2v-7.9"/>
  <path class="ddosl3" d="M277.5 24.9h-58.3M277.5 345.9H219M230.1 97.2V35.6c0-2.2 1.8-4 4-4h7.6c2.2 0 4 1.8 4 4v61.6c0 2.2-1.8 4-4 4h-7.6c-2.2 0-4-1.8-4-4zM252.5 40.8v-2.3c0-.7.5-1.2 1.2-1.2h2.3c.7 0 1.2.5 1.2 1.2v2.3c0 .7-.5 1.2-1.2 1.2h-2.3c-.6 0-1.2-.6-1.2-1.2zM252.5 50.3V48c0-.7.5-1.2 1.2-1.2h2.3c.7 0 1.2.5 1.2 1.2v2.3c0 .7-.5 1.2-1.2 1.2h-2.3c-.6 0-1.2-.5-1.2-1.2zM252.5 63.7v-2.3c0-.7.5-1.2 1.2-1.2h2.3c.7 0 1.2.5 1.2 1.2v2.3c0 .7-.5 1.2-1.2 1.2h-2.3c-.6.1-1.2-.5-1.2-1.2zM262.9 40.8v-2.3c0-.7.5-1.2 1.2-1.2h2.3c.7 0 1.2.5 1.2 1.2v2.3c0 .7-.5 1.2-1.2 1.2h-2.3c-.7 0-1.2-.6-1.2-1.2zM262.9 50.3V48c0-.7.5-1.2 1.2-1.2h2.3c.7 0 1.2.5 1.2 1.2v2.3c0 .7-.5 1.2-1.2 1.2h-2.3c-.7 0-1.2-.5-1.2-1.2zM262.9 99.9v-2.3c0-.7.5-1.2 1.2-1.2h2.3c.7 0 1.2.5 1.2 1.2v2.3c0 .7-.5 1.2-1.2 1.2h-2.3c-.7 0-1.2-.6-1.2-1.2zM252.5 73.3V71c0-.7.5-1.2 1.2-1.2h2.3c.7 0 1.2.5 1.2 1.2v2.3c0 .7-.5 1.2-1.2 1.2h-2.3c-.6 0-1.2-.5-1.2-1.2zM252.5 82.7v-2.3c0-.7.5-1.2 1.2-1.2h2.3c.7 0 1.2.5 1.2 1.2v2.3c0 .7-.5 1.2-1.2 1.2h-2.3c-.6 0-1.2-.6-1.2-1.2z"/>
  <path class="ddosl3" d="M252.5 82.8v-2.3c0-.7.5-1.2 1.2-1.2h2.3c.7 0 1.2.5 1.2 1.2v2.3c0 .7-.5 1.2-1.2 1.2h-2.3c-.6 0-1.2-.5-1.2-1.2zM262.9 82.8V62.2c0-.7.5-1.2 1.2-1.2h2.3c.7 0 1.2.5 1.2 1.2v20.6c0 .7-.5 1.2-1.2 1.2h-2.3c-.7 0-1.2-.5-1.2-1.2zM245.7 56.1h-15.6M234.7 81.9v-3.2c0-.9.8-1.7 1.7-1.7h3.2c.9 0 1.7.8 1.7 1.7v3.2c0 .9-.8 1.7-1.7 1.7h-3.2c-.9 0-1.7-.7-1.7-1.7zM230.1 178.7v-61.6c0-2.2 1.8-4 4-4h7.6c2.2 0 4 1.8 4 4v61.6c0 2.2-1.8 4-4 4h-7.6c-2.2 0-4-1.8-4-4zM252.5 122.2v-2.3c0-.7.5-1.2 1.2-1.2h2.3c.7 0 1.2.5 1.2 1.2v2.3c0 .7-.5 1.2-1.2 1.2h-2.3c-.6.1-1.2-.5-1.2-1.2zM252.5 131.8v-2.3c0-.7.5-1.2 1.2-1.2h2.3c.7 0 1.2.5 1.2 1.2v2.3c0 .7-.5 1.2-1.2 1.2h-2.3c-.6 0-1.2-.5-1.2-1.2zM252.5 145.2v-2.3c0-.7.5-1.2 1.2-1.2h2.3c.7 0 1.2.5 1.2 1.2v2.3c0 .7-.5 1.2-1.2 1.2h-2.3c-.6 0-1.2-.5-1.2-1.2zM262.9 122.2v-2.3c0-.7.5-1.2 1.2-1.2h2.3c.7 0 1.2.5 1.2 1.2v2.3c0 .7-.5 1.2-1.2 1.2h-2.3c-.7.1-1.2-.5-1.2-1.2zM262.9 131.8v-2.3c0-.7.5-1.2 1.2-1.2h2.3c.7 0 1.2.5 1.2 1.2v2.3c0 .7-.5 1.2-1.2 1.2h-2.3c-.7 0-1.2-.5-1.2-1.2zM262.9 181.3V179c0-.7.5-1.2 1.2-1.2h2.3c.7 0 1.2.5 1.2 1.2v2.3c0 .7-.5 1.2-1.2 1.2h-2.3c-.7.1-1.2-.5-1.2-1.2zM252.5 154.8v-2.3c0-.7.5-1.2 1.2-1.2h2.3c.7 0 1.2.5 1.2 1.2v2.3c0 .7-.5 1.2-1.2 1.2h-2.3c-.6 0-1.2-.6-1.2-1.2zM252.5 164.1v-2.3c0-.7.5-1.2 1.2-1.2h2.3c.7 0 1.2.5 1.2 1.2v2.3c0 .7-.5 1.2-1.2 1.2h-2.3c-.6.1-1.2-.5-1.2-1.2z"/>
  <path class="ddosl3" d="M252.5 164.3V162c0-.7.5-1.2 1.2-1.2h2.3c.7 0 1.2.5 1.2 1.2v2.3c0 .7-.5 1.2-1.2 1.2h-2.3c-.6 0-1.2-.5-1.2-1.2zM262.9 164.3v-20.6c0-.7.5-1.2 1.2-1.2h2.3c.7 0 1.2.5 1.2 1.2v20.6c0 .7-.5 1.2-1.2 1.2h-2.3c-.7 0-1.2-.5-1.2-1.2zM245.7 137.6h-15.6M234.7 163.4v-3.2c0-.9.8-1.7 1.7-1.7h3.2c.9 0 1.7.8 1.7 1.7v3.2c0 .9-.8 1.7-1.7 1.7h-3.2c-.9 0-1.7-.8-1.7-1.7zM230.1 260.2v-61.6c0-2.2 1.8-4 4-4h7.6c2.2 0 4 1.8 4 4v61.6c0 2.2-1.8 4-4 4h-7.6c-2.2 0-4-1.8-4-4zM252.5 203.7v-2.3c0-.7.5-1.2 1.2-1.2h2.3c.7 0 1.2.5 1.2 1.2v2.3c0 .7-.5 1.2-1.2 1.2h-2.3c-.6 0-1.2-.5-1.2-1.2zM252.5 213.3V211c0-.7.5-1.2 1.2-1.2h2.3c.7 0 1.2.5 1.2 1.2v2.3c0 .7-.5 1.2-1.2 1.2h-2.3c-.6 0-1.2-.6-1.2-1.2zM252.5 226.7v-2.3c0-.7.5-1.2 1.2-1.2h2.3c.7 0 1.2.5 1.2 1.2v2.3c0 .7-.5 1.2-1.2 1.2h-2.3c-.6 0-1.2-.5-1.2-1.2zM262.9 203.7v-2.3c0-.7.5-1.2 1.2-1.2h2.3c.7 0 1.2.5 1.2 1.2v2.3c0 .7-.5 1.2-1.2 1.2h-2.3c-.7 0-1.2-.5-1.2-1.2zM262.9 213.3V211c0-.7.5-1.2 1.2-1.2h2.3c.7 0 1.2.5 1.2 1.2v2.3c0 .7-.5 1.2-1.2 1.2h-2.3c-.7 0-1.2-.6-1.2-1.2zM262.9 262.8v-2.3c0-.7.5-1.2 1.2-1.2h2.3c.7 0 1.2.5 1.2 1.2v2.3c0 .7-.5 1.2-1.2 1.2h-2.3c-.7 0-1.2-.5-1.2-1.2zM252.5 236.2v-2.3c0-.7.5-1.2 1.2-1.2h2.3c.7 0 1.2.5 1.2 1.2v2.3c0 .7-.5 1.2-1.2 1.2h-2.3c-.6.1-1.2-.5-1.2-1.2zM252.5 245.6v-2.3c0-.7.5-1.2 1.2-1.2h2.3c.7 0 1.2.5 1.2 1.2v2.3c0 .7-.5 1.2-1.2 1.2h-2.3c-.6 0-1.2-.5-1.2-1.2z"/>
  <path class="ddosl3" d="M252.5 245.8v-2.3c0-.7.5-1.2 1.2-1.2h2.3c.7 0 1.2.5 1.2 1.2v2.3c0 .7-.5 1.2-1.2 1.2h-2.3c-.6 0-1.2-.6-1.2-1.2z"/>
  <path id="svg-concept" class="ddosl2" d="M237.2 337.8c-2 0-3.7-1.7-3.7-3.7s1.7-3.7 3.7-3.7 3.7 1.6 3.7 3.7-1.6 3.7-3.7 3.7z"/>
  <path class="ddosl3" d="M247.7 335.3V333c0-.7.5-1.2 1.2-1.2h2.3c.7 0 1.2.5 1.2 1.2v2.3c0 .7-.5 1.2-1.2 1.2h-2.3c-.7 0-1.2-.6-1.2-1.2zM258.2 335.3V333c0-.7.5-1.2 1.2-1.2h2.3c.7 0 1.2.5 1.2 1.2v2.3c0 .7-.5 1.2-1.2 1.2h-2.3c-.7 0-1.2-.6-1.2-1.2zM262.9 245.8v-20.6c0-.7.5-1.2 1.2-1.2h2.3c.7 0 1.2.5 1.2 1.2v20.6c0 .7-.5 1.2-1.2 1.2h-2.3c-.7 0-1.2-.6-1.2-1.2zM245.7 219h-15.6M234.7 244.9v-3.2c0-.9.8-1.7 1.7-1.7h3.2c.9 0 1.7.8 1.7 1.7v3.2c0 .9-.8 1.7-1.7 1.7h-3.2c-.9 0-1.7-.8-1.7-1.7zM277.5 107.9H219M257.9 16.2h-17.3M257.9 354.7h-17.3M277.5 188.8H219M277.5 269.7H219"/>
  <g>
    <path class="ddosl4" d="M111.3 188.8h106.8M278.6 188.8h109.9"/>
    <circle id="svg-ico" class="ddosl5" cx="111.3" cy="188.8" r="2.9"/>
    <circle id="svg-ico" class="ddosl5" cx="388.7" cy="188.8" r="2.9"/>
  </g>
  <g>
    <path id="svg-concept" class="ddosl6" d="M217.2 188.8c0 2.2-1.7 4-4 4-2.2 0-4-1.7-4-4s1.7-4 4-4c2.1 0 4 1.7 4 4z"/>
    <animateMotion accumulate="none" additive="replace" begin="0s" calcMode="paced" dur="3s" fill="remove" path="M0, 0 -95 0 0 0" repeatCount="indefinite" restart="always"/>
  </g>
  <g>
    <path id="svg-concept" class="ddosl6" d="M287.6 188.8c0 2.2-1.7 4-4 4-2.2 0-4-1.7-4-4s1.7-4 4-4c2.2 0 4 1.7 4 4z"/>
    <animateMotion accumulate="none" additive="replace" begin="0s" calcMode="paced" dur="3s" fill="remove" path="M0, 0 95 0 0 0" repeatCount="indefinite" restart="always"/>
  </g>
</svg>
