<svg version="1.1" id="Layer_1" xmlns="http://www.w3.org/2000/svg" x="0" y="0" viewBox="0 0 668.6 652.5" xml:space="preserve">
  <style>
    .dns0,.dns1{stroke-miterlimit:10}.dns0{stroke:gray;fill:none}.dns1{fill:#fff;stroke-width:2;stroke-linecap:round;stroke-linejoin:round}.dns4,.dns5,.dns6{fill:none;stroke-miterlimit:10}.dns4{stroke:#d7d7d7}.dns5,.dns6{stroke-linecap:round;stroke-linejoin:round}.dns6{stroke:gray}.dns7,.dns8{fill:#fff}.dns8{stroke:gray;stroke-linecap:round;stroke-linejoin:round;stroke-miterlimit:10}
  </style>
  <circle class="dns0" cx="333" cy="326" r="319"/>
  <g>
    <path id="svg-concept" class="dns1" d="M21.6 327.5c0 2.9-2.4 5.3-5.3 5.3s-5.3-2.4-5.3-5.3 2.4-5.3 5.3-5.3 5.3 2.4 5.3 5.3z"/>
    <animateTransform accumulate="none" additive="replace" attributeName="transform" calcMode="linear" dur="10s" fill="remove" from="0 325 320" repeatCount="indefinite" restart="always" to="360 340 325" type="rotate"/>
  </g>
  <g>
    <path id="svg-concept" class="dns1" d="M655 327.5c0 2.9-2.4 5.3-5.3 5.3s-5.3-2.4-5.3-5.3 2.4-5.3 5.3-5.3 5.3 2.4 5.3 5.3z"/>
    <animateTransform accumulate="none" additive="replace" attributeName="transform" calcMode="linear" dur="20s" fill="remove" from="0 345 320" repeatCount="indefinite" restart="always" to="-360 322 323" type="rotate"/>
  </g>
  <path id="svg-concept" d="M575.5 326.8c0 134-108.6 242.5-242.6 242.5S90.4 460.7 90.4 326.8C90.4 192.8 199 84.2 333 84.2c133.9 0 242.5 108.6 242.5 242.6z" fill="none" stroke-width="3" stroke-linecap="round" stroke-linejoin="round" stroke-miterlimit="10"/>
  <radialGradient id="SVGID_1_" cx="203.4895" cy="256.2766" r=".0304" gradientUnits="userSpaceOnUse">
    <stop offset="0" stop-color="#27a8e0"/>
    <stop offset=".1991" stop-color="#2aa9e0"/>
    <stop offset=".3473" stop-color="#33ace0"/>
    <stop offset=".4791" stop-color="#44b1e1"/>
    <stop offset=".6013" stop-color="#5ab9e2"/>
    <stop offset=".7169" stop-color="#78c2e3"/>
    <stop offset=".8275" stop-color="#9ccee4"/>
    <stop offset=".9323" stop-color="#c6dce5"/>
    <stop offset="1" stop-color="#e5e6e6"/>
  </radialGradient>
  <path d="M203.5 256.3c-.1 0-.1 0 0 0z" fill="url(#SVGID_1_)"/>
  <path class="dns4" d="M328.2 146.3l1.6 4.2M396 168.7l10.5-11.2M242.7 201.4l-2.9-11.1M240.6 183.1l8.2-8.8M247.8 168.3l-12.3-4.3M247 202.7l20.9-18.7M273.4 177.5l5.3-7.5M283 162.7l1.6-8.1M287.8 146.8l5.4-5.9M283.3 129.2l-24.2.4M251.2 132.7l-23.8 7.5M220.5 145.4l-4.6 5M228.1 160l-11.4-3.9M198.8 491.9l-10.5-21.3M189.9 464.1l23.9-14.7M213.8 449.4l-20.9-9.1M192.1 434.1l13.2-5.8M205.9 421.9L188 401.3M212.7 423.6l23.8-8.2M247.1 375.1l-18.3-8.1M186.5 393.9l5-23.8M191.5 370.1l-15.5 2.1M171.9 366.6l1.8-18.5M178.7 343.8l16.3-1.5M202.6 345l18.9 17.2M170.2 343.8l-8.2-6.6M157.1 329.8l-3.2-8.5M148 317.4l-14.2.9M130.5 314l6.6-14.3M134.7 295.9l-17.5 3.3M113 295.9l15-53.1M131.9 235.2l24.6-15.9M162.9 220.4l14.9 12.1M183 231.4l7.1-19.6M192.9 210.7l26.4 32.4M202.7 247.6l-9.8-36.9M181.1 239.5l1.1 33.5M179.8 280.8l-7.5 15.7M142.2 293.1l24.2 5M159.3 211.8l-.7-19.3M162.9 188.2l10.3.8M177.4 184.8l3.8-11.8M185.4 168.7l15 6.3M204.6 181.4v13.1M340 431.4l5.9 4.9M352.9 434.4l4.3-7.9M362.2 417.9l8.1-12.9M336.7 424.4l-8.1-17.3M328.6 398.6l2.9-7.7M331.5 382.4l19.4-20.7M324.4 358l7.1 24.4M357.2 360.2l16.4 6.9M372.3 396.5l5.6-25.1M377.9 362.9l17.4-19.7M386.6 337.7l4.5.5M379.6 333.3l-8.9-27.8M386.1 324l-15.4-18.5M392.9 324.5l15.7-9M408.3 309.2l-9.3-14.9M412.4 298.4l-13.4-4.1M420.2 300.8l6.1.9M432.6 306.7l13 31.9M450.6 339.6l17.2-27.2M473.9 311.9l10 13.8M489.6 332l2.5 17.6M497.7 334.9l-8.1-2.9M502.5 333.5l3.9-14.7M509.6 311l12-12.4M522.6 291l1.4-19.6M527.6 269.4l5.1 4.4M537 272.7l3.9-16.1M540.3 248.8L519.9 207M515.8 199.5l-22.4-27M487.6 166.2l-16.7-7.8M467.8 159.7l-5.3 32.3M463.1 157.4l-16.3 5.8M440.1 168.5l-3.3 2.7M436.4 177.9l21.6 15.8M429.6 174.3l-5.3-.7M415.8 175.9l-9.1 4.3M399 183.8l-19.1 4.3M372 187.6l-19.3-8.5M345.6 179.2l-23.7 22.2M319.9 208.9l2.7 16.8M298.5 214.5l.7 3.5M300.8 226.5l-1.1 4.2M310.3 242.6l11-9.3M294.6 266.4l2.1 2M325.2 262l4.5 2.9M336.4 265l6-1.7M348.6 263.9l3.1 7.3M358.5 274.6l5.4.9M368.6 280.4l1.7 2.3M366.5 288.8l-21.4 3.5M337.3 291.4l-12.6-9.3M317.6 278.9l-17 2.6M294.5 286.4l-10 16.3M298.1 286.8l4.3 19.6M306.1 312.8l26.9 10.1M341 297.9l-4.3 22.8M363.9 305.1L341 322.5M338.8 328.9l11.3 24.1M334.3 329.3l-8.1 20.1M319.5 353l-15.7-4.2M294.7 346.7L282.4 336M279.2 328.9l3.2-18.3M286.2 308.3l11.9 1M328 229.8l39.3-7.5M375.9 193.7l-4.3 24.3M375.9 222.3l50.1 11.8M371.6 226.5l-3.4 44.7M499.5 238.4l21.1 26.2M514.6 205.4l-16.1 25.5M486.4 172.5l-21.2 20.8M464.9 198.8l27.5 33M458 198.8l-25.6 31M434.6 303.1l31.8 6.1M475 309.2l28.2 5.5M393.6 286.8L373.7 226M374.6 286.9l17.1 4.3M515.8 437l-2.7-15.5M516.2 414.2l6.8-6.2M529.6 402.6l12.4-7M521.9 439.4l4.2-4.1M526.1 427.8l-9.5-8.2M515.6 362.3l5.8-7.8M393.6 399.3l-3.9 15.6M202.6 492.1l13.8-38.8M186.5 462.4l2.1-20.7M189.6 433.3l-1.6-32M220.7 445.9l17.3-25M241.9 413.1l9-31.8M173.8 375.1l9 19.4M185 274.1l16.5-19.8M129.5 234.6l27-42.7"/>
  <g id="svg-concept">
    <path id="svg-concept" class="dns5" d="M467.5 269.5c0 2.4-1.9 4.3-4.3 4.3s-4.3-1.9-4.3-4.3 1.9-4.3 4.3-4.3 4.3 1.9 4.3 4.3zM542 414.4c0 2.4-1.9 4.3-4.3 4.3s-4.3-1.9-4.3-4.3 1.9-4.3 4.3-4.3c2.4.1 4.3 2 4.3 4.3zM355.1 399.5c0 2.4-1.9 4.3-4.3 4.3s-4.3-1.9-4.3-4.3 1.9-4.3 4.3-4.3c2.4.1 4.3 2 4.3 4.3zM154.9 255.2c0 2.4-1.9 4.3-4.3 4.3s-4.3-1.9-4.3-4.3 1.9-4.3 4.3-4.3 4.3 1.9 4.3 4.3zM224.9 391.4c0 2.4-1.9 4.3-4.3 4.3s-4.3-1.9-4.3-4.3 1.9-4.3 4.3-4.3 4.3 1.9 4.3 4.3zM265 149.6c0 2.4-1.9 4.3-4.3 4.3s-4.3-1.9-4.3-4.3 1.9-4.3 4.3-4.3c2.4.1 4.3 2 4.3 4.3zM281.2 150.4l-16.2-.8M256.1 134.9l3.7 10.5M257.4 152.3l-22.7 7M259.2 153.9l-5.6 12.3M236.5 415.4l-13.2-20M224.1 388.9l22.6-9.5M197 369.5l19.9 19.9M132.7 241.7l14.4 11.2M153.6 252.1l24.3-14M153.5 258.4l25.1 16.6M148.9 259.1l-9.9 32.5M357.2 419l-6.3-15.2M335.8 388.8l10.8 7.7M352.9 395.8l25-24.4M307 250.4v4.9M302.7 260.4l-7.9 1.8M433.3 237.1l28.2 27.9M466.4 266.7l27.3-28.3M432.4 299.3l26.8-26.8M463.2 273.8l7.5 31.1M466.9 271.6l37.5 40.1M467.5 269.5l52.3-2.4M544.8 396.6l-5.7 13.6M535.8 418.2l-4.3 9.6M533.5 414.4l-16.9 5.2M534.4 411.8l-5-4.1M311.3 259.5c0 2.4-1.9 4.3-4.3 4.3s-4.3-1.9-4.3-4.3 1.9-4.3 4.3-4.3c2.3.1 4.3 2 4.3 4.3zM311.1 258.3l6.5-.1"/>
  </g>
  <path class="dns6" d="M277.3 109.7c-1.8 0-3.2-1.4-3.2-3.2 0-1.8 1.4-3.2 3.2-3.2s3.2 1.4 3.2 3.2c0 1.7-1.4 3.2-3.2 3.2z"/>
  <path class="dns0" d="M353.7 438.7c0 2.4-1.9 4.3-4.3 4.3s-4.3-1.9-4.3-4.3 1.9-4.3 4.3-4.3 4.3 1.9 4.3 4.3zM341 428.6c0 2.4-1.9 4.3-4.3 4.3s-4.3-1.9-4.3-4.3 1.9-4.3 4.3-4.3c2.4.1 4.3 2 4.3 4.3zM376.5 400.8c0 2.4-1.9 4.3-4.3 4.3s-4.3-1.9-4.3-4.3 1.9-4.3 4.3-4.3 4.3 1.9 4.3 4.3zM382.2 367.1c0 2.4-1.9 4.3-4.3 4.3s-4.3-1.9-4.3-4.3 1.9-4.3 4.3-4.3c2.4.1 4.3 2 4.3 4.3zM399.6 338.9c0 2.4-1.9 4.3-4.3 4.3s-4.3-1.9-4.3-4.3 1.9-4.3 4.3-4.3 4.3 1.9 4.3 4.3zM386.4 336.7c0 2.4-1.9 4.3-4.3 4.3s-4.3-1.9-4.3-4.3 1.9-4.3 4.3-4.3 4.3 1.9 4.3 4.3zM372.4 302.1c0 2.4-1.9 4.3-4.3 4.3s-4.3-1.9-4.3-4.3 1.9-4.3 4.3-4.3 4.3 1.9 4.3 4.3zM393.6 326.8c0 2.4-1.9 4.3-4.3 4.3s-4.3-1.9-4.3-4.3 1.9-4.3 4.3-4.3c2.3 0 4.3 1.9 4.3 4.3zM415.9 312.5c0 2.4-1.9 4.3-4.3 4.3s-4.3-1.9-4.3-4.3 1.9-4.3 4.3-4.3c2.4.1 4.3 2 4.3 4.3zM374.6 286.9c0 2.4-1.9 4.3-4.3 4.3s-4.3-1.9-4.3-4.3 1.9-4.3 4.3-4.3c2.4.1 4.3 2 4.3 4.3zM372.5 275.5c0 2.4-1.9 4.3-4.3 4.3s-4.3-1.9-4.3-4.3 1.9-4.3 4.3-4.3 4.3 1.9 4.3 4.3zM358.5 274.6c0 2.4-1.9 4.3-4.3 4.3s-4.3-1.9-4.3-4.3 1.9-4.3 4.3-4.3c2.4.1 4.3 2 4.3 4.3zM345.3 293.6c0 2.4-1.9 4.3-4.3 4.3s-4.3-1.9-4.3-4.3 1.9-4.3 4.3-4.3c2.3 0 4.3 1.9 4.3 4.3zM300.8 282.7c0 2.4-1.9 4.3-4.3 4.3s-4.3-1.9-4.3-4.3 1.9-4.3 4.3-4.3 4.3 1.9 4.3 4.3zM325.9 259.6c0 2.4-1.9 4.3-4.3 4.3s-4.3-1.9-4.3-4.3 1.9-4.3 4.3-4.3c2.4.1 4.3 2 4.3 4.3zM337.3 267.6c0 2.4-1.9 4.3-4.3 4.3s-4.3-1.9-4.3-4.3 1.9-4.3 4.3-4.3 4.3 1.9 4.3 4.3zM328 229.8c0 2.4-1.9 4.3-4.3 4.3s-4.3-1.9-4.3-4.3 1.9-4.3 4.3-4.3c2.4.1 4.3 2 4.3 4.3zM323.4 204.7c0 2.4-1.9 4.3-4.3 4.3s-4.3-1.9-4.3-4.3 1.9-4.3 4.3-4.3 4.3 1.9 4.3 4.3zM353.4 176.8c0 2.4-1.9 4.3-4.3 4.3s-4.3-1.9-4.3-4.3 1.9-4.3 4.3-4.3 4.3 1.9 4.3 4.3zM380.1 189.5c0 2.4-1.9 4.3-4.3 4.3s-4.3-1.9-4.3-4.3 1.9-4.3 4.3-4.3 4.3 1.9 4.3 4.3zM407.4 182.4c0 2.4-1.9 4.3-4.3 4.3s-4.3-1.9-4.3-4.3 1.9-4.3 4.3-4.3c2.3 0 4.3 1.9 4.3 4.3zM424.3 173.6c0 2.4-1.9 4.3-4.3 4.3s-4.3-1.9-4.3-4.3 1.9-4.3 4.3-4.3 4.3 1.9 4.3 4.3zM447.8 166c0 2.4-1.9 4.3-4.3 4.3s-4.3-1.9-4.3-4.3 1.9-4.3 4.3-4.3 4.3 1.9 4.3 4.3zM438.2 174.3c0 2.4-1.9 4.3-4.3 4.3s-4.3-1.9-4.3-4.3 1.9-4.3 4.3-4.3c2.4.1 4.3 2 4.3 4.3zM472.1 155.4c0 2.4-1.9 4.3-4.3 4.3s-4.3-1.9-4.3-4.3 1.9-4.3 4.3-4.3c2.4.1 4.3 2 4.3 4.3zM494.9 169.2c0 2.4-1.9 4.3-4.3 4.3s-4.3-1.9-4.3-4.3 1.9-4.3 4.3-4.3 4.3 1.9 4.3 4.3zM546.6 252.6c0 2.4-1.9 4.3-4.3 4.3s-4.3-1.9-4.3-4.3 1.9-4.3 4.3-4.3 4.3 1.9 4.3 4.3zM540 276.8c0 2.4-1.9 4.3-4.3 4.3s-4.3-1.9-4.3-4.3 1.9-4.3 4.3-4.3 4.3 1.9 4.3 4.3zM528.3 267.1c0 2.4-1.9 4.3-4.3 4.3s-4.3-1.9-4.3-4.3 1.9-4.3 4.3-4.3c2.4.1 4.3 2 4.3 4.3zM528.3 295c0 2.4-1.9 4.3-4.3 4.3s-4.3-1.9-4.3-4.3 1.9-4.3 4.3-4.3c2.4.1 4.3 2 4.3 4.3zM511.7 314.7c0 2.4-1.9 4.3-4.3 4.3s-4.3-1.9-4.3-4.3 1.9-4.3 4.3-4.3 4.3 1.9 4.3 4.3zM505.2 337.8c0 2.4-1.9 4.3-4.3 4.3s-4.3-1.9-4.3-4.3 1.9-4.3 4.3-4.3 4.3 1.9 4.3 4.3zM491.3 328.5c0 2.4-1.9 4.3-4.3 4.3s-4.3-1.9-4.3-4.3 1.9-4.3 4.3-4.3c2.4.1 4.3 2 4.3 4.3zM475 309.2c0 2.4-1.9 4.3-4.3 4.3s-4.3-1.9-4.3-4.3 1.9-4.3 4.3-4.3c2.3 0 4.3 1.9 4.3 4.3zM434.6 303.1c0 2.4-1.9 4.3-4.3 4.3s-4.3-1.9-4.3-4.3 1.9-4.3 4.3-4.3 4.3 1.9 4.3 4.3zM500.9 235.2c0 2.4-1.9 4.3-4.3 4.3s-4.3-1.9-4.3-4.3 1.9-4.3 4.3-4.3 4.3 1.9 4.3 4.3zM375.9 222.3c0 2.4-1.9 4.3-4.3 4.3s-4.3-1.9-4.3-4.3 1.9-4.3 4.3-4.3c2.3 0 4.3 1.9 4.3 4.3zM434.6 234.1c0 2.4-1.9 4.3-4.3 4.3s-4.3-1.9-4.3-4.3 1.9-4.3 4.3-4.3 4.3 1.9 4.3 4.3zM420.2 300.8c0 2.4-1.9 4.3-4.3 4.3s-4.3-1.9-4.3-4.3 1.9-4.3 4.3-4.3 4.3 1.9 4.3 4.3zM498.8 353.1c0 2.4-1.9 4.3-4.3 4.3s-4.3-1.9-4.3-4.3 1.9-4.3 4.3-4.3 4.3 1.9 4.3 4.3zM549 392.3c0 2.4-1.9 4.3-4.3 4.3s-4.3-1.9-4.3-4.3 1.9-4.3 4.3-4.3c2.4.1 4.3 2 4.3 4.3zM394 419.2c0 2.4-1.9 4.3-4.3 4.3s-4.3-1.9-4.3-4.3 1.9-4.3 4.3-4.3 4.3 1.9 4.3 4.3zM397.9 395c0 2.4-1.9 4.3-4.3 4.3s-4.3-1.9-4.3-4.3 1.9-4.3 4.3-4.3c2.3.1 4.3 2 4.3 4.3zM543.3 334.9c0 2.4-1.9 4.3-4.3 4.3s-4.3-1.9-4.3-4.3 1.9-4.3 4.3-4.3 4.3 1.9 4.3 4.3zM551.4 287.6c0 2.4-1.9 4.3-4.3 4.3s-4.3-1.9-4.3-4.3 1.9-4.3 4.3-4.3 4.3 2 4.3 4.3zM554.9 362.4c0 2.4-1.9 4.3-4.3 4.3s-4.3-1.9-4.3-4.3 1.9-4.3 4.3-4.3c2.4.1 4.3 2 4.3 4.3zM537.4 366.3c0 2.4-1.9 4.3-4.3 4.3s-4.3-1.9-4.3-4.3 1.9-4.3 4.3-4.3 4.3 1.9 4.3 4.3zM511.7 378.3c0 2.4-1.9 4.3-4.3 4.3s-4.3-1.9-4.3-4.3 1.9-4.3 4.3-4.3 4.3 1.9 4.3 4.3zM498.8 367c0 2.4-1.9 4.3-4.3 4.3s-4.3-1.9-4.3-4.3 1.9-4.3 4.3-4.3c2.4.1 4.3 2 4.3 4.3zM536.2 321.3c0 2.4-1.9 4.3-4.3 4.3s-4.3-1.9-4.3-4.3 1.9-4.3 4.3-4.3 4.3 1.9 4.3 4.3zM531.5 308.2c0 2.4-1.9 4.3-4.3 4.3s-4.3-1.9-4.3-4.3 1.9-4.3 4.3-4.3 4.3 1.9 4.3 4.3zM530.4 405c0 2.4-1.9 4.3-4.3 4.3s-4.3-1.9-4.3-4.3 1.9-4.3 4.3-4.3c2.4.1 4.3 2 4.3 4.3zM304 235c0 2.4-1.9 4.3-4.3 4.3s-4.3-1.9-4.3-4.3 1.9-4.3 4.3-4.3 4.3 1.9 4.3 4.3zM291.3 226.3c0 2.4-1.9 4.3-4.3 4.3s-4.3-1.9-4.3-4.3 1.9-4.3 4.3-4.3 4.3 1.9 4.3 4.3zM286.7 306.4c0 2.4-1.9 4.3-4.3 4.3s-4.3-1.9-4.3-4.3 1.9-4.3 4.3-4.3c2.3 0 4.3 1.9 4.3 4.3zM283.5 333.1c0 2.4-1.9 4.3-4.3 4.3s-4.3-1.9-4.3-4.3 1.9-4.3 4.3-4.3c2.4.1 4.3 2 4.3 4.3zM306.7 310.6c0 2.4-1.9 4.3-4.3 4.3s-4.3-1.9-4.3-4.3 1.9-4.3 4.3-4.3c2.4.1 4.3 2 4.3 4.3zM341 325c0 2.4-1.9 4.3-4.3 4.3s-4.3-1.9-4.3-4.3 1.9-4.3 4.3-4.3 4.3 2 4.3 4.3zM357.2 358c0 2.4-1.9 4.3-4.3 4.3s-4.3-1.9-4.3-4.3 1.9-4.3 4.3-4.3 4.3 1.9 4.3 4.3zM332.9 402.8c0 2.4-1.9 4.3-4.3 4.3s-4.3-1.9-4.3-4.3 1.9-4.3 4.3-4.3c2.4.1 4.3 2 4.3 4.3zM335.8 386.6c0 2.4-1.9 4.3-4.3 4.3s-4.3-1.9-4.3-4.3 1.9-4.3 4.3-4.3c2.4.1 4.3 2 4.3 4.3zM328.6 353.7c0 2.4-1.9 4.3-4.3 4.3s-4.3-1.9-4.3-4.3 1.9-4.3 4.3-4.3 4.3 1.9 4.3 4.3zM293.9 194c0 2.4-1.9 4.3-4.3 4.3s-4.3-1.9-4.3-4.3 1.9-4.3 4.3-4.3 4.3 1.9 4.3 4.3zM335.5 154.5c0 2.4-1.9 4.3-4.3 4.3s-4.3-1.9-4.3-4.3 1.9-4.3 4.3-4.3 4.3 1.9 4.3 4.3zM331.2 142.2c0 2.4-1.9 4.3-4.3 4.3s-4.3-1.9-4.3-4.3 1.9-4.3 4.3-4.3 4.3 1.9 4.3 4.3zM350 137.9c0 2.4-1.9 4.3-4.3 4.3s-4.3-1.9-4.3-4.3 1.9-4.3 4.3-4.3 4.3 1.9 4.3 4.3zM401.8 139.7c0 2.4-1.9 4.3-4.3 4.3s-4.3-1.9-4.3-4.3 1.9-4.3 4.3-4.3 4.3 1.9 4.3 4.3zM413.6 154.3c0 2.4-1.9 4.3-4.3 4.3s-4.3-1.9-4.3-4.3 1.9-4.3 4.3-4.3c2.3 0 4.3 2 4.3 4.3zM247.8 205.6c0 2.4-1.9 4.3-4.3 4.3s-4.3-1.9-4.3-4.3 1.9-4.3 4.3-4.3c2.4.1 4.3 2 4.3 4.3zM222.4 449.4c0 2.4-1.9 4.3-4.3 4.3s-4.3-1.9-4.3-4.3 1.9-4.3 4.3-4.3 4.3 1.9 4.3 4.3zM193.9 437.6c0 2.4-1.9 4.3-4.3 4.3s-4.3-1.9-4.3-4.3 1.9-4.3 4.3-4.3 4.3 1.9 4.3 4.3zM212.7 425.4c0 2.4-1.9 4.3-4.3 4.3s-4.3-1.9-4.3-4.3 1.9-4.3 4.3-4.3 4.3 1.9 4.3 4.3zM229.2 364.8c0 2.4-1.9 4.3-4.3 4.3s-4.3-1.9-4.3-4.3 1.9-4.3 4.3-4.3 4.3 1.9 4.3 4.3zM203.6 342.3c0 2.4-1.9 4.3-4.3 4.3s-4.3-1.9-4.3-4.3 1.9-4.3 4.3-4.3 4.3 1.9 4.3 4.3zM178.7 343.8c0 2.4-1.9 4.3-4.3 4.3s-4.3-1.9-4.3-4.3 1.9-4.3 4.3-4.3c2.4.1 4.3 2 4.3 4.3zM163.3 334.1c0 2.4-1.9 4.3-4.3 4.3s-4.3-1.9-4.3-4.3 1.9-4.3 4.3-4.3 4.3 1.9 4.3 4.3zM117.3 300.2c0 2.4-1.9 4.3-4.3 4.3s-4.3-1.9-4.3-4.3 1.9-4.3 4.3-4.3 4.3 1.9 4.3 4.3zM143.3 295.9c0 2.4-1.9 4.3-4.3 4.3s-4.3-1.9-4.3-4.3 1.9-4.3 4.3-4.3c2.3 0 4.3 1.9 4.3 4.3zM174.5 300.2c0 2.4-1.9 4.3-4.3 4.3s-4.3-1.9-4.3-4.3 1.9-4.3 4.3-4.3 4.3 1.9 4.3 4.3zM186.5 277.3c0 2.4-1.9 4.3-4.3 4.3s-4.3-1.9-4.3-4.3 1.9-4.3 4.3-4.3 4.3 1.9 4.3 4.3zM194.3 207.5c0 2.4-1.9 4.3-4.3 4.3s-4.3-1.9-4.3-4.3 1.9-4.3 4.3-4.3 4.3 1.9 4.3 4.3zM185.4 235.2c0 2.4-1.9 4.3-4.3 4.3s-4.3-1.9-4.3-4.3 1.9-4.3 4.3-4.3c2.4.1 4.3 2 4.3 4.3zM163.6 216.1c0 2.4-1.9 4.3-4.3 4.3s-4.3-1.9-4.3-4.3 1.9-4.3 4.3-4.3 4.3 1.9 4.3 4.3zM185.4 168.7c0 2.4-1.9 4.3-4.3 4.3s-4.3-1.9-4.3-4.3 1.9-4.3 4.3-4.3c2.4.1 4.3 2 4.3 4.3zM181.7 189c0 2.4-1.9 4.3-4.3 4.3s-4.3-1.9-4.3-4.3 1.9-4.3 4.3-4.3c2.4.1 4.3 2 4.3 4.3zM208.9 177.2c0 2.4-1.9 4.3-4.3 4.3s-4.3-1.9-4.3-4.3 1.9-4.3 4.3-4.3 4.3 1.9 4.3 4.3zM208.9 198.7c0 2.4-1.9 4.3-4.3 4.3s-4.3-1.9-4.3-4.3 1.9-4.3 4.3-4.3c2.4.1 4.3 2 4.3 4.3zM133.8 238.8c0 2.4-1.9 4.3-4.3 4.3s-4.3-1.9-4.3-4.3 1.9-4.3 4.3-4.3c2.4.1 4.3 2 4.3 4.3zM198.2 366.5c0 2.4-1.9 4.3-4.3 4.3s-4.3-1.9-4.3-4.3 1.9-4.3 4.3-4.3c2.3.1 4.3 2 4.3 4.3zM242.3 186.5c0 2.4-1.9 4.3-4.3 4.3s-4.3-1.9-4.3-4.3 1.9-4.3 4.3-4.3c2.3 0 4.3 1.9 4.3 4.3zM274.8 180.7c0 2.4-1.9 4.3-4.3 4.3s-4.3-1.9-4.3-4.3 1.9-4.3 4.3-4.3 4.3 1.9 4.3 4.3zM289.7 150.4c0 2.4-1.9 4.3-4.3 4.3s-4.3-1.9-4.3-4.3 1.9-4.3 4.3-4.3 4.3 1.9 4.3 4.3zM300.3 137.7c0 2.4-1.9 4.3-4.3 4.3s-4.3-1.9-4.3-4.3 1.9-4.3 4.3-4.3c2.4.1 4.3 2 4.3 4.3zM291.8 128.4c0 2.4-1.9 4.3-4.3 4.3s-4.3-1.9-4.3-4.3 1.9-4.3 4.3-4.3c2.3 0 4.3 1.9 4.3 4.3zM259.2 130.7c0 2.4-1.9 4.3-4.3 4.3s-4.3-1.9-4.3-4.3 1.9-4.3 4.3-4.3 4.3 1.9 4.3 4.3zM227.4 142c0 2.4-1.9 4.3-4.3 4.3s-4.3-1.9-4.3-4.3 1.9-4.3 4.3-4.3c2.3 0 4.3 1.9 4.3 4.3zM217.4 153.9c0 2.4-1.9 4.3-4.3 4.3s-4.3-1.9-4.3-4.3 1.9-4.3 4.3-4.3c2.3 0 4.3 2 4.3 4.3zM235.9 162.3c0 2.4-1.9 4.3-4.3 4.3s-4.3-1.9-4.3-4.3 1.9-4.3 4.3-4.3 4.3 1.9 4.3 4.3zM255.2 377c0 2.4-1.9 4.3-4.3 4.3s-4.3-1.9-4.3-4.3 1.9-4.3 4.3-4.3c2.4.1 4.3 2 4.3 4.3zM244.6 417.3c0 2.4-1.9 4.3-4.3 4.3s-4.3-1.9-4.3-4.3 1.9-4.3 4.3-4.3c2.4.1 4.3 2 4.3 4.3zM204.7 495.8c0 2.4-1.9 4.3-4.3 4.3s-4.3-1.9-4.3-4.3 1.9-4.3 4.3-4.3 4.3 1.9 4.3 4.3zM190.8 466.7c0 2.4-1.9 4.3-4.3 4.3s-4.3-1.9-4.3-4.3 1.9-4.3 4.3-4.3 4.3 1.9 4.3 4.3zM176.2 370.8c0 2.4-1.9 4.3-4.3 4.3s-4.3-1.9-4.3-4.3 1.9-4.3 4.3-4.3c2.4.1 4.3 2 4.3 4.3zM189.6 398c0 2.4-1.9 4.3-4.3 4.3s-4.3-1.9-4.3-4.3 1.9-4.3 4.3-4.3 4.3 1.9 4.3 4.3zM225 247.1c0 2.4-1.9 4.3-4.3 4.3s-4.3-1.9-4.3-4.3 1.9-4.3 4.3-4.3c2.4.1 4.3 2 4.3 4.3zM162.9 188.2c0 2.4-1.9 4.3-4.3 4.3s-4.3-1.9-4.3-4.3 1.9-4.3 4.3-4.3c2.4.1 4.3 2 4.3 4.3zM208.9 251.4c0 2.4-1.9 4.3-4.3 4.3s-4.3-1.9-4.3-4.3 1.9-4.3 4.3-4.3 4.3 1.9 4.3 4.3zM156.5 317.4c0 2.4-1.9 4.3-4.3 4.3s-4.3-1.9-4.3-4.3 1.9-4.3 4.3-4.3 4.3 1.9 4.3 4.3zM133.8 318.3c0 2.4-1.9 4.3-4.3 4.3s-4.3-1.9-4.3-4.3 1.9-4.3 4.3-4.3 4.3 1.9 4.3 4.3zM285.4 166.5c0 2.4-1.9 4.3-4.3 4.3s-4.3-1.9-4.3-4.3 1.9-4.3 4.3-4.3c2.4.1 4.3 2 4.3 4.3zM255.5 170.8c0 2.4-1.9 4.3-4.3 4.3s-4.3-1.9-4.3-4.3 1.9-4.3 4.3-4.3 4.3 1.9 4.3 4.3zM364.3 422.2c0 2.4-1.9 4.3-4.3 4.3s-4.3-1.9-4.3-4.3 1.9-4.3 4.3-4.3 4.3 1.9 4.3 4.3zM326.2 278.9c0 2.4-1.9 4.3-4.3 4.3s-4.3-1.9-4.3-4.3 1.9-4.3 4.3-4.3 4.3 1.9 4.3 4.3zM303.3 348.6c0 2.4-1.9 4.3-4.3 4.3s-4.3-1.9-4.3-4.3 1.9-4.3 4.3-4.3c2.3.1 4.3 2 4.3 4.3zM295.3 264.1c0 2.4-1.9 4.3-4.3 4.3s-4.3-1.9-4.3-4.3 1.9-4.3 4.3-4.3 4.3 1.9 4.3 4.3zM305.1 269.4c0 2.4-1.9 4.3-4.3 4.3s-4.3-1.9-4.3-4.3 1.9-4.3 4.3-4.3 4.3 1.9 4.3 4.3zM312.4 246.3c0 2.4-1.9 4.3-4.3 4.3s-4.3-1.9-4.3-4.3 1.9-4.3 4.3-4.3 4.3 1.9 4.3 4.3zM522.3 441.2c0 2.4-1.9 4.3-4.3 4.3s-4.3-1.9-4.3-4.3 1.9-4.3 4.3-4.3c2.4.1 4.3 2 4.3 4.3zM533.1 432c0 2.4-1.9 4.3-4.3 4.3s-4.3-1.9-4.3-4.3 1.9-4.3 4.3-4.3c2.4.1 4.3 2 4.3 4.3zM517.4 417.2c0 2.4-1.9 4.3-4.3 4.3s-4.3-1.9-4.3-4.3 1.9-4.3 4.3-4.3 4.3 1.9 4.3 4.3zM350.1 260.7c0 2.4-1.9 4.3-4.3 4.3s-4.3-1.9-4.3-4.3 1.9-4.3 4.3-4.3 4.3 1.9 4.3 4.3zM452.1 342.8c0 2.4-1.9 4.3-4.3 4.3s-4.3-1.9-4.3-4.3 1.9-4.3 4.3-4.3c2.4.1 4.3 2 4.3 4.3zM400.3 291.2c0 2.4-1.9 4.3-4.3 4.3s-4.3-1.9-4.3-4.3 1.9-4.3 4.3-4.3c2.4.1 4.3 2 4.3 4.3zM518.3 366.3c0 2.4-1.9 4.3-4.3 4.3s-4.3-1.9-4.3-4.3 1.9-4.3 4.3-4.3 4.3 1.9 4.3 4.3zM527.3 350.6c0 2.4-1.9 4.3-4.3 4.3s-4.3-1.9-4.3-4.3 1.9-4.3 4.3-4.3 4.3 1.9 4.3 4.3zM305.1 222.3c0 2.4-1.9 4.3-4.3 4.3s-4.3-1.9-4.3-4.3 1.9-4.3 4.3-4.3 4.3 1.9 4.3 4.3zM301.8 210.3c0 2.4-1.9 4.3-4.3 4.3s-4.3-1.9-4.3-4.3 1.9-4.3 4.3-4.3c2.3.1 4.3 2 4.3 4.3zM522.4 203.1c0 2.4-1.9 4.3-4.3 4.3s-4.3-1.9-4.3-4.3 1.9-4.3 4.3-4.3 4.3 1.9 4.3 4.3zM465.7 196.2c0 2.4-1.9 4.3-4.3 4.3s-4.3-1.9-4.3-4.3 1.9-4.3 4.3-4.3c2.4.1 4.3 2 4.3 4.3zM397.5 172c0 2.4-1.9 4.3-4.3 4.3s-4.3-1.9-4.3-4.3 1.9-4.3 4.3-4.3 4.3 1.9 4.3 4.3zM455.4 142.2c0 2.4-1.9 4.3-4.3 4.3s-4.3-1.9-4.3-4.3 1.9-4.3 4.3-4.3c2.3 0 4.3 1.9 4.3 4.3z"/>
  <path class="dns6" d="M509.4 59.9v18.3M509.4 84.3v18.3M509.4 108.7V127"/>
  <circle class="dns7" cx="108.9" cy="521.9" r="26.1"/>
  <circle class="dns7" cx="74.7" cy="529.6" r="17.9"/>
  <path class="dns6" d="M82.8 521.9c0-.8-.1-1.6 0-2.4 1.2-13.2 12.9-23.6 26.5-23.6h-.4c14.4 0 26.1 11.7 26.1 26.1 0 7.5-3.1 14.2-8.2 19"/>
  <path class="dns6" d="M109.1 506.2c-8.1.1-15.2 6.4-15.9 14.2v1.5M75 511.4c-10.1 0-18.2 8.2-18.2 18.2 0 4.5 1.6 8.6 4.3 11.7"/>
  <circle id="svg-concept" class="dns5" cx="102.5" cy="575.1" r="3.9"/>
  <path id="svg-concept" class="dns5" d="M102.5 564.2v6.8M71.5 575.1h26.9M106.5 575.1h27"/>
  <path class="dns8" d="M166.1 558.3c0 2.1-1.5 3.7-3.4 3.7H42.3c-1.9 0-3.4-1.7-3.4-3.7v-13.2c0-2.1 1.5-3.7 3.4-3.7h120.4c1.9 0 3.4 1.7 3.4 3.7v13.2z"/>
  <path class="dns6" d="M45.9 541.4V562"/>
  <path id="svg-concept" class="dns5" d="M150.1 551.7c0 2.4-2 4.4-4.4 4.4-2.4 0-4.4-2-4.4-4.4 0-2.4 2-4.4 4.4-4.4 2.4 0 4.4 2 4.4 4.4z"/>
  <path id="svg-concept" class="dns5" d="M147.3 551.7c0 .9-.7 1.6-1.6 1.6-.9 0-1.6-.7-1.6-1.6 0-.9.7-1.6 1.6-1.6.9 0 1.6.7 1.6 1.6zM150.1 551.7h-2.8M144 551.7h-2.7"/>
  <g>
    <circle class="dns8" cx="571.8" cy="523" r="24.1"/>
    <path class="dns8" d="M600 562.8V573h-56.4v-10.3c0-5.7 4.6-10.3 10.3-10.3h35.8c5.7.1 10.3 4.7 10.3 10.4z"/>
    <path class="dns6" d="M581.6 531.4c0-1.7-1.4-3.1-3.1-3.1-1.7 0-3.1 1.4-3.1 3.1M567.7 531.4c0-1.7-1.4-3.1-3.1-3.1-1.7 0-3.1 1.4-3.1 3.1M549.5 513.8H594"/>
    <path id="svg-concept" class="dns5" d="M545.3 557.1h-40.5v-37.4h43.1M504.9 545.9h48.7"/>
    <path class="dns6" d="M529.3 557.1v6.8M536.2 563.9h-13.9"/>
  </g>
  <g>
    <circle id="svg-concept" class="dns5" cx="559.8" cy="138.7" r="3.5"/>
    <path id="svg-concept" class="dns5" d="M559.8 129v6M532.2 138.7h24M563.4 138.7h24"/>
    <path class="dns8" d="M616.4 75c0 1.8-1.4 3.3-3 3.3H506.2c-1.7 0-3-1.5-3-3.3V63.2c0-1.8 1.4-3.3 3-3.3h107.2c1.7 0 3 1.5 3 3.3V75z"/>
    <path class="dns6" d="M610.2 59.9v18.4"/>
    <path id="svg-concept" class="dns5" d="M602.1 69.1c0 2.2-1.8 3.9-3.9 3.9-2.2 0-3.9-1.8-3.9-3.9 0-2.2 1.8-3.9 3.9-3.9 2.2 0 3.9 1.7 3.9 3.9z"/>
    <path id="svg-concept" class="dns5" d="M599.7 69.1c0 .8-.7 1.5-1.5 1.5s-1.5-.7-1.5-1.5.7-1.5 1.5-1.5 1.5.7 1.5 1.5zM602.1 69.1h-2.4M596.8 69.1h-2.5"/>
    <path class="dns8" d="M616.4 99.4c0 1.8-1.4 3.3-3 3.3H506.2c-1.7 0-3-1.5-3-3.3V87.6c0-1.8 1.4-3.3 3-3.3h107.2c1.7 0 3 1.5 3 3.3v11.8z"/>
    <path class="dns6" d="M610.2 84.3v18.4"/>
    <path id="svg-concept" class="dns5" d="M602.1 93.5c0 2.2-1.8 3.9-3.9 3.9-2.2 0-3.9-1.8-3.9-3.9s1.8-3.9 3.9-3.9c2.2 0 3.9 1.7 3.9 3.9z"/>
    <path id="svg-concept" class="dns5" d="M599.7 93.5c0 .8-.7 1.5-1.5 1.5s-1.5-.7-1.5-1.5.7-1.5 1.5-1.5 1.5.7 1.5 1.5zM602.1 93.5h-2.4M596.8 93.5h-2.5"/>
    <path class="dns8" d="M616.4 123.8c0 1.8-1.4 3.3-3 3.3H506.2c-1.7 0-3-1.5-3-3.3V112c0-1.8 1.4-3.3 3-3.3h107.2c1.7 0 3 1.5 3 3.3v11.8z"/>
    <path class="dns6" d="M610.2 108.7v18.4"/>
    <path id="svg-concept" class="dns5" d="M602.1 117.9c0 2.2-1.8 3.9-3.9 3.9-2.2 0-3.9-1.8-3.9-3.9s1.8-3.9 3.9-3.9c2.2 0 3.9 1.7 3.9 3.9z"/>
    <path id="svg-concept" class="dns5" d="M599.7 117.9c0 .8-.7 1.5-1.5 1.5s-1.5-.7-1.5-1.5.7-1.5 1.5-1.5 1.5.7 1.5 1.5zM602.1 117.9h-2.4M596.8 117.9h-2.5"/>
  </g>
  <g>
    <circle id="svg-concept" cx="115.2" cy="92.8" r="24.6" fill="#fff" stroke="#ed5485" stroke-linecap="round" stroke-linejoin="round" stroke-miterlimit="10"/>
    <path class="dns6" d="M115.2 88.8v11.3M103.4 64.2v-7.6c0-4.2 3.4-7.6 7.6-7.6h8.4c4.2 0 7.6 3.4 7.6 7.6v7.6"/>
  </g>
</svg>
