<svg version="1.1" id="Layer_1" xmlns="http://www.w3.org/2000/svg" x="0" y="0" viewBox="0 0 1100.6 600.5" xml:space="preserve">
  <style>
    .dom0,.dom1{stroke-linecap:round;stroke-linejoin:round}.dom0{fill:none;stroke-miterlimit:10;stroke:#fff}.dom1{stroke:gray}.dom1,.dom5,.dom6,.dom7{fill:none;stroke-miterlimit:10}.dom5{stroke-linecap:round;stroke-linejoin:round;stroke:#ee5586}.dom6,.dom7{stroke:gray}.dom7{fill:#fff;stroke:#ee5586;stroke-linecap:round;stroke-linejoin:round}
  </style>
  <path class="dom0" d="M197.4 73.2c-1.7 0-3-1.3-3-3s1.3-3 3-3 3 1.3 3 3c0 1.6-1.3 3-3 3z"/>
  <path class="dom1" d="M189.6 18.5c-1.7 0-3-1.3-3-3s1.3-3 3-3 3 1.3 3 3c0 1.6-1.4 3-3 3zM282.8 48.1c-1.7 0-3-1.3-3-3s1.3-3 3-3 3 1.3 3 3-1.3 3-3 3zM423.4 73.2c-1.7 0-3-1.3-3-3s1.3-3 3-3 3 1.3 3 3c0 1.6-1.4 3-3 3z"/>
  <path class="dom0" d="M458.7 52.2c-1.7 0-3-1.3-3-3s1.3-3 3-3 3 1.3 3 3c0 1.6-1.4 3-3 3z"/>
  <path class="dom1" d="M399.2 111c-1.7 0-3-1.3-3-3s1.3-3 3-3 3 1.3 3 3-1.3 3-3 3zM516.3 58.1c-1.7 0-3-1.3-3-3s1.3-3 3-3 3 1.3 3 3c0 1.6-1.3 3-3 3zM558.4 66c-1.7 0-3-1.3-3-3s1.3-3 3-3 3 1.3 3 3-1.3 3-3 3zM601.7 73.3c-1.7 0-3-1.3-3-3s1.3-3 3-3 3 1.3 3 3-1.3 3-3 3zM665.9 67.2c-1.7 0-3-1.3-3-3s1.3-3 3-3 3 1.3 3 3-1.3 3-3 3zM632.4 37.3c-1.7 0-3-1.3-3-3s1.3-3 3-3 3 1.3 3 3-1.3 3-3 3zM726 69.6c-1.7 0-3-1.3-3-3s1.3-3 3-3 3 1.3 3 3c0 1.6-1.3 3-3 3zM800 62.6c-1.7 0-3-1.3-3-3s1.3-3 3-3 3 1.3 3 3-1.3 3-3 3zM897.8 11.7c-1.7 0-3-1.3-3-3s1.3-3 3-3 3 1.3 3 3c0 1.6-1.3 3-3 3zM700.8 106.1c-1.7 0-3-1.3-3-3s1.3-3 3-3 3 1.3 3 3-1.3 3-3 3zM740.9 29.8c-1.7 0-3-1.3-3-3s1.3-3 3-3 3 1.3 3 3c0 1.6-1.4 3-3 3zM727.8 120.3c-1.7 0-3-1.3-3-3s1.3-3 3-3 3 1.3 3 3c0 1.6-1.4 3-3 3zM792.5 149.7c-1.7 0-3-1.3-3-3s1.3-3 3-3 3 1.3 3 3-1.3 3-3 3zM753.6 186.5c-1.7 0-3-1.3-3-3s1.3-3 3-3 3 1.3 3 3c0 1.6-1.3 3-3 3zM771.9 238.4c-1.7 0-3-1.3-3-3s1.3-3 3-3 3 1.3 3 3c0 1.6-1.4 3-3 3zM803.6 285.2c-1.7 0-3-1.3-3-3s1.3-3 3-3 3 1.3 3 3-1.4 3-3 3zM780.1 339.7c-1.7 0-3-1.3-3-3s1.3-3 3-3 3 1.3 3 3c0 1.6-1.4 3-3 3zM836.3 325.8c-1.7 0-3-1.3-3-3s1.3-3 3-3 3 1.3 3 3c0 1.6-1.3 3-3 3zM803 382.1c-1.7 0-3-1.3-3-3s1.3-3 3-3 3 1.3 3 3-1.3 3-3 3zM769.7 430.6c-1.7 0-3-1.3-3-3s1.3-3 3-3 3 1.3 3 3-1.4 3-3 3zM854.3 474.4c-1.7 0-3-1.3-3-3s1.3-3 3-3 3 1.3 3 3-1.4 3-3 3zM836.4 410.9c-1.7 0-3-1.3-3-3s1.3-3 3-3 3 1.3 3 3-1.3 3-3 3zM801.9 505.8c-1.7 0-3-1.3-3-3s1.3-3 3-3 3 1.3 3 3c0 1.6-1.4 3-3 3zM851.3 592.6c-1.7 0-3-1.3-3-3s1.3-3 3-3 3 1.3 3 3-1.4 3-3 3zM830.6 536.9c-1.7 0-3-1.3-3-3s1.3-3 3-3 3 1.3 3 3-1.4 3-3 3zM876.2 534.6c-1.7 0-3-1.3-3-3s1.3-3 3-3 3 1.3 3 3-1.3 3-3 3z"/>
  <path class="dom0" d="M775.1 581c-1.7 0-3-1.3-3-3s1.3-3 3-3 3 1.3 3 3c0 1.6-1.3 3-3 3z"/>
  <path class="dom1" d="M916.5 583.6c-1.7-.1-2.9-1.6-2.8-3.2.1-1.7 1.6-2.9 3.2-2.7 1.7.1 2.9 1.6 2.7 3.2 0 1.6-1.5 2.8-3.1 2.7zM753.1 545.8c-1.7 0-3-1.3-3-3s1.3-3 3-3 3 1.3 3 3c0 1.6-1.4 3-3 3zM672.4 577.6c-1.7 0-3-1.3-3-3s1.3-3 3-3 3 1.3 3 3-1.4 3-3 3zM650.4 534.6c-1.7 0-3-1.3-3-3s1.3-3 3-3 3 1.3 3 3c0 1.6-1.4 3-3 3zM602.5 558.8c-1.7 0-3-1.3-3-3s1.3-3 3-3 3 1.3 3 3-1.4 3-3 3zM553.2 580.6c-1.7 0-3-1.3-3-3s1.3-3 3-3 3 1.3 3 3-1.3 3-3 3zM517.5 557.1c-1.7 0-3-1.3-3-3s1.3-3 3-3 3 1.3 3 3-1.3 3-3 3zM456 557.1c-1.7 0-3-1.3-3-3s1.3-3 3-3 3 1.3 3 3-1.4 3-3 3zM496.6 592.6c-1.7 0-3-1.3-3-3s1.3-3 3-3 3 1.3 3 3-1.4 3-3 3zM423.3 591.3c-1.7 0-3-1.3-3-3s1.3-3 3-3 3 1.3 3 3-1.4 3-3 3zM396.6 523.7c-1.7 0-3-1.3-3-3s1.3-3 3-3 3 1.3 3 3c0 1.6-1.3 3-3 3zM307 555.8c-1.7 0-3-1.3-3-3s1.3-3 3-3 3 1.3 3 3-1.3 3-3 3zM233.9 563.9c-1.7 0-3-1.3-3-3s1.3-3 3-3 3 1.3 3 3-1.4 3-3 3zM304 508.1c-1.7 0-3-1.3-3-3s1.3-3 3-3 3 1.3 3 3c0 1.6-1.3 3-3 3zM169.6 584.7c-1.7 0-3-1.3-3-3s1.3-3 3-3 3 1.3 3 3c0 1.6-1.4 3-3 3z"/>
  <path class="dom0" d="M319.7 471.4c-1.7 0-3-1.3-3-3s1.3-3 3-3 3 1.3 3 3-1.3 3-3 3z"/>
  <path class="dom1" d="M317.4 437c-1.7 0-3-1.3-3-3s1.3-3 3-3 3 1.3 3 3-1.4 3-3 3zM296.6 212.3c-1.7 0-3-1.3-3-3s1.3-3 3-3 3 1.3 3 3c0 1.6-1.3 3-3 3z"/>
  <path class="dom0" d="M287.1 172.2c-1.7 0-3-1.3-3-3s1.3-3 3-3 3 1.3 3 3-1.3 3-3 3zM107.5 132.7c-1.7 0-3-1.3-3-3s1.3-3 3-3 3 1.3 3 3-1.3 3-3 3zM189.6 327.6c-1.7 0-3-1.3-3-3s1.3-3 3-3 3 1.3 3 3-1.3 3-3 3z"/>
  <path class="dom1" d="M9 593.6c-1.7 0-3-1.3-3-3s1.3-3 3-3 3 1.3 3 3c0 1.6-1.4 3-3 3zM260.8 240.2c-1.7 0-3-1.3-3-3s1.3-3 3-3 3 1.3 3 3-1.3 3-3 3zM333.9 152.4c-1.7 0-3-1.3-3-3s1.3-3 3-3 3 1.3 3 3-1.3 3-3 3zM249.6 139.4c-1.7 0-3-1.3-3-3s1.3-3 3-3 3 1.3 3 3c0 1.6-1.3 3-3 3zM84.1 88.6c-1.7 0-3-1.3-3-3s1.3-3 3-3 3 1.3 3 3c-.1 1.7-1.4 3-3 3zM288 363.8c-1.7 0-3-1.3-3-3s1.3-3 3-3 3 1.3 3 3c0 1.6-1.3 3-3 3zM282.8 322.9c-1.7 0-3-1.3-3-3s1.3-3 3-3 3 1.3 3 3c0 1.6-1.3 3-3 3zM239.5 315.4c-1.7 0-3-1.3-3-3s1.3-3 3-3 3 1.3 3 3c0 1.6-1.4 3-3 3zM254 382.1c-1.7 0-3-1.3-3-3s1.3-3 3-3 3 1.3 3 3-1.3 3-3 3zM246.6 448.4c-1.7 0-3-1.3-3-3s1.3-3 3-3 3 1.3 3 3-1.3 3-3 3zM260.7 504.1c-1.7 0-3-1.3-3-3s1.3-3 3-3 3 1.3 3 3c0 1.6-1.3 3-3 3zM54.1 211.9c-1.7 0-3-1.3-3-3s1.3-3 3-3 3 1.3 3 3-1.4 3-3 3zM42.1 330.6c-1.7 0-3-1.3-3-3s1.3-3 3-3 3 1.3 3 3-1.3 3-3 3zM34.6 37.3c-1.7 0-3-1.3-3-3s1.3-3 3-3 3 1.3 3 3c0 1.6-1.3 3-3 3zM192.6 382.1c-1.7 0-3-1.3-3-3s1.3-3 3-3 3 1.3 3 3-1.3 3-3 3zM199.3 504.1c-1.7 0-3-1.3-3-3s1.3-3 3-3 3 1.3 3 3c0 1.6-1.3 3-3 3zM87.1 451c-1.7 0-3-1.3-3-3s1.3-3 3-3 3 1.3 3 3-1.4 3-3 3zM106.9 552c-1.7 0-3-1.3-3-3s1.3-3 3-3 3 1.3 3 3c0 1.6-1.4 3-3 3zM48 520.7c-1.7 0-3-1.3-3-3s1.3-3 3-3 3 1.3 3 3c0 1.6-1.4 3-3 3zM125.5 291.9c-1.7 0-3-1.3-3-3s1.3-3 3-3 3 1.3 3 3c0 1.6-1.4 3-3 3zM129.9 349.4c-1.7 0-3-1.3-3-3s1.3-3 3-3 3 1.3 3 3-1.3 3-3 3zM136.6 471.4c-1.7 0-3-1.3-3-3s1.3-3 3-3 3 1.3 3 3c0 1.6-1.3 3-3 3zM194.4 276.2c-1.7 0-3-1.3-3-3s1.3-3 3-3 3 1.3 3 3-1.4 3-3 3zM103.9 177.6c-1.7 0-3-1.3-3-3s1.3-3 3-3 3 1.3 3 3c0 1.6-1.4 3-3 3zM148.7 36.9c-1.7 0-3-1.3-3-3s1.3-3 3-3 3 1.3 3 3c0 1.6-1.4 3-3 3zM174.2 126.3c-1.7 0-3-1.3-3-3s1.3-3 3-3 3 1.3 3 3-1.3 3-3 3zM159.8 216.4c-1.7 0-3-1.3-3-3s1.3-3 3-3 3 1.3 3 3c0 1.6-1.3 3-3 3zM364.8 489c-1.7 0-3-1.3-3-3s1.3-3 3-3 3 1.3 3 3c0 1.6-1.3 3-3 3zM336.9 587.7c-1.7 0-3-1.3-3-3s1.3-3 3-3 3 1.3 3 3c0 1.6-1.3 3-3 3zM253.7 597.6c-1.7 0-3-1.3-3-3s1.3-3 3-3 3 1.3 3 3c-.1 1.6-1.4 3-3 3zM717.1 547.5c-1.7 0-3-1.3-3-3s1.3-3 3-3 3 1.3 3 3c0 1.6-1.3 3-3 3zM717.4 491.8c-1.7 0-3-1.3-3-3s1.3-3 3-3 3 1.3 3 3-1.3 3-3 3z"/>
  <path class="dom0" d="M821.5 191.4c-1.7 0-3-1.3-3-3s1.3-3 3-3 3 1.3 3 3c0 1.6-1.3 3-3 3z"/>
  <path class="dom1" d="M876.6 70.2c-1.7 0-3-1.3-3-3s1.3-3 3-3 3 1.3 3 3-1.3 3-3 3zM833.4 251.5c-1.7 0-3-1.3-3-3s1.3-3 3-3 3 1.3 3 3c0 1.6-1.3 3-3 3zM857.3 237.6c-1.7 0-3-1.3-3-3s1.3-3 3-3 3 1.3 3 3c0 1.6-1.3 3-3 3zM916.6 221.6c-1.7 0-3-1.3-3-3s1.3-3 3-3 3 1.3 3 3c0 1.6-1.3 3-3 3zM847.1 145.1c-1.7 0-3-1.3-3-3s1.3-3 3-3 3 1.3 3 3-1.4 3-3 3zM1003 305c-1.7 0-3-1.3-3-3s1.3-3 3-3 3 1.3 3 3-1.4 3-3 3zM894.8 325.8c-1.7 0-3-1.3-3-3s1.3-3 3-3 3 1.3 3 3c0 1.6-1.3 3-3 3zM1055 128.7c-1.7 0-3-1.3-3-3s1.3-3 3-3 3 1.3 3 3c0 1.6-1.3 3-3 3zM1027.9 58.1c-1.7 0-3-1.3-3-3s1.3-3 3-3 3 1.3 3 3c0 1.6-1.3 3-3 3zM1090 14.7c-1.7 0-3-1.3-3-3s1.3-3 3-3 3 1.3 3 3c0 1.6-1.3 3-3 3zM912.8 474.4c-1.7 0-3-1.3-3-3s1.3-3 3-3 3 1.3 3 3-1.4 3-3 3zM894.9 410.9c-1.7 0-3-1.3-3-3s1.3-3 3-3 3 1.3 3 3-1.3 3-3 3zM943 303.9c-1.7 0-3-1.3-3-3s1.3-3 3-3 3 1.3 3 3-1.3 3-3 3zM905.6 145.1c-1.7 0-3-1.3-3-3s1.3-3 3-3 3 1.3 3 3-1.4 3-3 3zM833.3 100.1c-1.7 0-3-1.3-3-3s1.3-3 3-3 3 1.3 3 3-1.3 3-3 3z"/>
  <path class="dom0" d="M836.3 20.8c-1.7 0-3-1.3-3-3s1.3-3 3-3 3 1.3 3 3c0 1.6-1.3 3-3 3zM970 220.1c-1.7 0-3-1.3-3-3s1.3-3 3-3 3 1.3 3 3-1.3 3-3 3zM928 367.7c-1.7 0-3-1.3-3-3s1.3-3 3-3 3 1.3 3 3c0 1.6-1.3 3-3 3zM1014 485.8c-1.7 0-3-1.3-3-3s1.3-3 3-3 3 1.3 3 3c0 1.6-1.3 3-3 3z"/>
  <path class="dom1" d="M367 61.1c-1.7 0-3-1.3-3-3s1.3-3 3-3 3 1.3 3 3-1.4 3-3 3zM331.8 32.8c-1.7 0-3-1.3-3-3s1.3-3 3-3 3 1.3 3 3c0 1.6-1.4 3-3 3zM299.1 110.3c-1.7 0-3-1.3-3-3s1.3-3 3-3 3 1.3 3 3-1.4 3-3 3zM254.1 18.5c-1.7 0-3-1.3-3-3s1.3-3 3-3 3 1.3 3 3c-.1 1.6-1.4 3-3 3z"/>
  <path class="dom0" d="M800.2 88.4L854.9 47M788.8 122.6l30.9-23.4M329.6 549.2L275 590.6M341 515l-30.9 23.5"/>
  <radialGradient id="SVGID_1_" cx="687.8405" cy="264.5224" r=".1924" gradientTransform="matrix(1 0 0 -1 0 600)" gradientUnits="userSpaceOnUse">
    <stop offset="0" stop-color="#27aae1"/>
    <stop offset=".1987" stop-color="#2aabe1"/>
    <stop offset=".3466" stop-color="#33aee1"/>
    <stop offset=".4781" stop-color="#44b3e2"/>
    <stop offset=".6001" stop-color="#5abae3"/>
    <stop offset=".7154" stop-color="#78c4e4"/>
    <stop offset=".8259" stop-color="#9ccfe5"/>
    <stop offset=".9305" stop-color="#c6dde7"/>
    <stop offset="1" stop-color="#e6e7e8"/>
  </radialGradient>
  <path d="M688 335.6c-.4-.3-.5-.3 0 0z" fill="url(#SVGID_1_)"/>
  <path id="svg-concept" d="M775.1 312.7c0 125.4-101.7 227.1-227.1 227.1S320.9 438.1 320.9 312.7 422.6 85.6 548 85.6c125.4-.1 227.1 101.6 227.1 227.1z" fill="none" stroke="#ee5586" stroke-width="3" stroke-linecap="round" stroke-linejoin="round" stroke-miterlimit="10"/>
  <path class="dom0" d="M566.3 418.2c0 2.2-1.8 4-4 4s-4-1.8-4-4 1.8-4 4-4 4 1.7 4 4zM554.4 408.7c0 2.2-1.8 4-4 4s-4-1.8-4-4 1.8-4 4-4 4 1.8 4 4zM587.7 382.6c0 2.2-1.8 4-4 4s-4-1.8-4-4 1.8-4 4-4 4 1.8 4 4zM593 351.1c0 2.2-1.8 4-4 4s-4-1.8-4-4 1.8-4 4-4 4 1.8 4 4zM609.3 324.7c0 2.2-1.8 4-4 4s-4-1.8-4-4 1.8-4 4-4 4 1.8 4 4zM597 322.6c0 2.2-1.8 4-4 4s-4-1.8-4-4 1.8-4 4-4 4 1.8 4 4zM583.9 290.2c0 2.2-1.8 4-4 4s-4-1.8-4-4 1.8-4 4-4 4 1.8 4 4zM603.7 313.4c0 2.2-1.8 4-4 4s-4-1.8-4-4 1.8-4 4-4 4 1.7 4 4zM624.6 300c0 2.2-1.8 4-4 4s-4-1.8-4-4 1.8-4 4-4 4 1.8 4 4zM585.9 276c0 2.2-1.8 4-4 4s-4-1.8-4-4 1.8-4 4-4 4 1.8 4 4zM583.9 265.3c0 2.2-1.8 4-4 4s-4-1.8-4-4 1.8-4 4-4 4 1.8 4 4zM570.8 264.5c0 2.2-1.8 4-4 4s-4-1.8-4-4 1.8-4 4-4 4 1.8 4 4zM558.4 282.3c0 2.2-1.8 4-4 4s-4-1.8-4-4 1.8-4 4-4 4 1.8 4 4zM516.8 272c0 2.2-1.8 4-4 4s-4-1.8-4-4 1.8-4 4-4 4 1.8 4 4zM540.3 250.5c0 2.2-1.8 4-4 4s-4-1.8-4-4 1.8-4 4-4 4 1.8 4 4zM551 257.9c0 2.2-1.8 4-4 4s-4-1.8-4-4 1.8-4 4-4 4 1.8 4 4zM542.3 222.6c0 2.2-1.8 4-4 4s-4-1.8-4-4 1.8-4 4-4 4 1.7 4 4zM538 199c0 2.2-1.8 4-4 4s-4-1.8-4-4 1.8-4 4-4 4 1.8 4 4zM566.1 172.9c0 2.2-1.8 4-4 4s-4-1.8-4-4 1.8-4 4-4 4 1.8 4 4zM591.1 184.8c0 2.2-1.8 4-4 4s-4-1.8-4-4 1.8-4 4-4 4 1.7 4 4zM616.6 178.1c0 2.2-1.8 4-4 4s-4-1.8-4-4 1.8-4 4-4 4 1.8 4 4zM632.4 169.9c0 2.2-1.8 4-4 4s-4-1.8-4-4 1.8-4 4-4c2.3 0 4 1.8 4 4zM654.4 162.8c0 2.2-1.8 4-4 4s-4-1.8-4-4 1.8-4 4-4c2.3 0 4 1.7 4 4zM645.4 170.6c0 2.2-1.8 4-4 4s-4-1.8-4-4 1.8-4 4-4 4 1.8 4 4zM677.2 152.9c0 2.2-1.8 4-4 4s-4-1.8-4-4 1.8-4 4-4 4 1.8 4 4zM698.6 165.7c0 2.2-1.8 4-4 4s-4-1.8-4-4 1.8-4 4-4 4 1.8 4 4zM746.9 243.9c0 2.2-1.8 4-4 4s-4-1.8-4-4 1.8-4 4-4c2.3 0 4 1.8 4 4zM740.8 266.5c0 2.2-1.8 4-4 4s-4-1.8-4-4 1.8-4 4-4 4 1.8 4 4zM729.8 257.5c0 2.2-1.8 4-4 4s-4-1.8-4-4 1.8-4 4-4 4 1.8 4 4zM729.8 283.6c0 2.2-1.8 4-4 4s-4-1.8-4-4 1.8-4 4-4 4 1.8 4 4zM714.3 302c0 2.2-1.8 4-4 4s-4-1.8-4-4 1.8-4 4-4 4 1.8 4 4zM708.2 323.6c0 2.2-1.8 4-4 4s-4-1.8-4-4 1.8-4 4-4 4 1.8 4 4zM695.2 315c0 2.2-1.8 4-4 4s-4-1.8-4-4 1.8-4 4-4 4 1.8 4 4zM679.9 296.9c0 2.2-1.8 4-4 4s-4-1.8-4-4 1.8-4 4-4 4 1.7 4 4zM642.1 291.1c0 2.2-1.8 4-4 4s-4-1.8-4-4 1.8-4 4-4 4 1.8 4 4zM672.9 259.7c0 2.2-1.8 4-4 4s-4-1.8-4-4 1.8-4 4-4 4 1.8 4 4zM704.2 227.6c0 2.2-1.8 4-4 4s-4-1.8-4-4 1.8-4 4-4 4 1.8 4 4zM587.1 215.5c0 2.2-1.8 4-4 4s-4-1.8-4-4 1.8-4 4-4 4 1.8 4 4zM642.1 226.6c0 2.2-1.8 4-4 4s-4-1.8-4-4 1.8-4 4-4 4 1.7 4 4zM628.6 289c0 2.2-1.8 4-4 4s-4-1.8-4-4 1.8-4 4-4 4 1.8 4 4zM702.2 338c0 2.2-1.8 4-4 4s-4-1.8-4-4 1.8-4 4-4 4 1.8 4 4zM749.3 374.7c0 2.2-1.8 4-4 4s-4-1.8-4-4 1.8-4 4-4 4 1.8 4 4zM604 399.9c0 2.2-1.8 4-4 4s-4-1.8-4-4 1.8-4 4-4 4 1.8 4 4zM607.7 377.3c0 2.2-1.8 4-4 4s-4-1.8-4-4 1.8-4 4-4 4 1.8 4 4zM743.9 320.9c0 2.2-1.8 4-4 4s-4-1.8-4-4 1.8-4 4-4 4 1.8 4 4zM751.4 276.7c0 2.2-1.8 4-4 4s-4-1.8-4-4 1.8-4 4-4 4 1.8 4 4zM754.7 346.7c0 2.2-1.8 4-4 4s-4-1.8-4-4 1.8-4 4-4 4 1.8 4 4zM738.3 350.3c0 2.2-1.8 4-4 4s-4-1.8-4-4 1.8-4 4-4 4 1.8 4 4zM714.3 361.6c0 2.2-1.8 4-4 4s-4-1.8-4-4 1.8-4 4-4 4 1.8 4 4zM702.2 351c0 2.2-1.8 4-4 4s-4-1.8-4-4 1.8-4 4-4 4 1.8 4 4zM737.2 308.2c0 2.2-1.8 4-4 4s-4-1.8-4-4 1.8-4 4-4 4 1.8 4 4zM732.8 295.9c0 2.2-1.8 4-4 4s-4-1.8-4-4 1.8-4 4-4 4 1.8 4 4zM731.8 386.6c0 2.2-1.8 4-4 4s-4-1.8-4-4 1.8-4 4-4 4 1.8 4 4zM742.7 395.4c0 2.2-1.8 4-4 4s-4-1.8-4-4 1.8-4 4-4 4 1.8 4 4zM519.8 227.4c0 2.2-1.8 4-4 4s-4-1.8-4-4 1.8-4 4-4 4 1.8 4 4zM507.9 219.2c0 2.2-1.8 4-4 4s-4-1.8-4-4 1.8-4 4-4 4 1.8 4 4zM503.5 294.2c0 2.2-1.8 4-4 4s-4-1.8-4-4 1.8-4 4-4 4 1.8 4 4zM500.6 319.3c0 2.2-1.8 4-4 4s-4-1.8-4-4 1.8-4 4-4 4 1.8 4 4zM522.3 298.2c0 2.2-1.8 4-4 4s-4-1.8-4-4 1.8-4 4-4 4 1.8 4 4zM554.4 311.7c0 2.2-1.8 4-4 4s-4-1.8-4-4 1.8-4 4-4 4 1.8 4 4zM569.6 342.5c0 2.2-1.8 4-4 4s-4-1.8-4-4 1.8-4 4-4c2.2.1 4 1.8 4 4zM567.7 381.5c0 2.2-1.8 4-4 4s-4-1.8-4-4 1.8-4 4-4 4 1.8 4 4zM546.8 384.6c0 2.2-1.8 4-4 4s-4-1.8-4-4 1.8-4 4-4c2.3 0 4 1.7 4 4zM549.5 369.4c0 2.2-1.8 4-4 4s-4-1.8-4-4 1.8-4 4-4c2.3 0 4 1.8 4 4zM542.8 338.5c0 2.2-1.8 4-4 4s-4-1.8-4-4 1.8-4 4-4c2.3.1 4 1.8 4 4zM510.4 189c0 2.2-1.8 4-4 4s-4-1.8-4-4 1.8-4 4-4 4 1.8 4 4zM549.3 152c0 2.2-1.8 4-4 4s-4-1.8-4-4 1.8-4 4-4 4 1.8 4 4zM545.3 140.5c0 2.2-1.8 4-4 4s-4-1.8-4-4 1.8-4 4-4 4 1.8 4 4zM562.8 136.5c0 2.2-1.8 4-4 4s-4-1.8-4-4 1.8-4 4-4c2.3 0 4 1.8 4 4zM611.3 138.1c0 2.2-1.8 4-4 4s-4-1.8-4-4 1.8-4 4-4c2.3 0 4 1.8 4 4zM622.4 151.8c0 2.2-1.8 4-4 4s-4-1.8-4-4 1.8-4 4-4 4 1.8 4 4zM542.4 144.3l1.5 3.9M605.9 165.3l9.8-10.5"/>
  <radialGradient id="SVGID_2_" cx="425.6581" cy="352.7" r=".0255" gradientTransform="matrix(1 0 0 -1 0 600)" gradientUnits="userSpaceOnUse">
    <stop offset="0" stop-color="#27aae1"/>
    <stop offset=".1987" stop-color="#2aabe1"/>
    <stop offset=".3466" stop-color="#33aee1"/>
    <stop offset=".4781" stop-color="#44b3e2"/>
    <stop offset=".6001" stop-color="#5abae3"/>
    <stop offset=".7154" stop-color="#78c4e4"/>
    <stop offset=".8259" stop-color="#9ccfe5"/>
    <stop offset=".9305" stop-color="#c6dde7"/>
    <stop offset="1" stop-color="#e6e7e8"/>
  </radialGradient>
  <path d="M425.7 247.3c-.1 0-.1 0 0 0z" fill="url(#SVGID_2_)"/>
  <path class="dom0" d="M467.1 199.9c0 2.2-1.8 4-4 4s-4-1.8-4-4 1.8-4 4-4 4 1.8 4 4zM443.3 428.1c0 2.2-1.8 4-4 4s-4-1.8-4-4 1.8-4 4-4c2.3 0 4 1.8 4 4zM416.7 417.1c0 2.2-1.8 4-4 4s-4-1.8-4-4 1.8-4 4-4 4 1.8 4 4zM434.3 405.7c0 2.2-1.8 4-4 4s-4-1.8-4-4 1.8-4 4-4 4 1.7 4 4zM449.7 348.9c0 2.2-1.8 4-4 4s-4-1.8-4-4 1.8-4 4-4c2.2.1 4 1.8 4 4zM425.7 327.9c0 2.2-1.8 4-4 4s-4-1.8-4-4 1.8-4 4-4c2.3 0 4 1.8 4 4zM402.5 329.3c0 2.2-1.8 4-4 4s-4-1.8-4-4 1.8-4 4-4 4 1.8 4 4zM388 320.2c0 2.2-1.8 4-4 4s-4-1.8-4-4 1.8-4 4-4 4 1.8 4 4zM345 288.4c0 2.2-1.8 4-4 4s-4-1.8-4-4 1.8-4 4-4 4 1.8 4 4zM369.2 284.4c0 2.2-1.8 4-4 4s-4-1.8-4-4 1.8-4 4-4c2.3 0 4 1.8 4 4zM398.5 288.4c0 2.2-1.8 4-4 4s-4-1.8-4-4 1.8-4 4-4 4 1.8 4 4zM409.7 267c0 2.2-1.8 4-4 4s-4-1.8-4-4 1.8-4 4-4 4 1.8 4 4zM417.1 201.6c0 2.2-1.8 4-4 4s-4-1.8-4-4 1.8-4 4-4 4 1.8 4 4zM408.7 227.6c0 2.2-1.8 4-4 4s-4-1.8-4-4 1.8-4 4-4 4 1.8 4 4zM388.3 209.7c0 2.2-1.8 4-4 4s-4-1.8-4-4 1.8-4 4-4 4 1.8 4 4zM408.8 165.3c0 2.2-1.8 4-4 4s-4-1.8-4-4 1.8-4 4-4 4 1.8 4 4zM405.2 184.4c0 2.2-1.8 4-4 4s-4-1.8-4-4 1.8-4 4-4c2.3 0 4 1.7 4 4zM430.7 173.2c0 2.2-1.8 4-4 4s-4-1.8-4-4 1.8-4 4-4 4 1.8 4 4zM430.7 193.4c0 2.2-1.8 4-4 4s-4-1.8-4-4 1.8-4 4-4 4 1.8 4 4zM360.4 231c0 2.2-1.8 4-4 4s-4-1.8-4-4 1.8-4 4-4 4 1.8 4 4zM380.2 246.3c0 2.2-1.8 4-4 4s-4-1.8-4-4 1.8-4 4-4 4 1.8 4 4zM420.7 350.6c0 2.2-1.8 4-4 4s-4-1.8-4-4 1.8-4 4-4 4 1.8 4 4zM445.7 373.8c0 2.2-1.8 4-4 4s-4-1.8-4-4 1.8-4 4-4c2.2.1 4 1.8 4 4zM462 182c0 2.2-1.8 4-4 4s-4-1.8-4-4 1.8-4 4-4 4 1.7 4 4zM492.5 176.5c0 2.2-1.8 4-4 4s-4-1.8-4-4 1.8-4 4-4 4 1.8 4 4zM506.4 148.1c0 2.2-1.8 4-4 4s-4-1.8-4-4 1.8-4 4-4 4 1.8 4 4zM516.4 136.3c0 2.2-1.8 4-4 4s-4-1.8-4-4 1.8-4 4-4 4 1.8 4 4zM508.3 127.6c0 2.2-1.8 4-4 4s-4-1.8-4-4 1.8-4 4-4 4 1.7 4 4zM477.8 129.7c0 2.2-1.8 4-4 4s-4-1.8-4-4 1.8-4 4-4 4 1.8 4 4zM448 140.3c0 2.2-1.8 4-4 4s-4-1.8-4-4 1.8-4 4-4 4 1.8 4 4zM438.6 151.5c0 2.2-1.8 4-4 4s-4-1.8-4-4 1.8-4 4-4 4 1.7 4 4zM456 159.3c0 2.2-1.8 4-4 4s-4-1.8-4-4 1.8-4 4-4 4 1.8 4 4zM483.3 147.5c0 2.2-1.8 4-4 4s-4-1.8-4-4 1.8-4 4-4 4 1.7 4 4zM462.3 195.9l-2.6-10.3M460.4 178.8l7.7-8.2M467.1 164.9l-11.4-4M466.4 197.1l19.5-17.5M491.1 173.5l5-6.9M500.1 159.7l1.5-7.6M498.4 148.1l-15.1-.6M504.6 144.8l5.1-5.5M500.4 128.3l-22.7.4M474.9 133.7l3.5 9.8M470.4 131.6l-22.4 7M441.6 143.5l-4.3 4.6M448.7 157.1l-10.6-3.6M476.1 150l-21.2 6.5M477.8 151.5l-5.2 11.4M421.2 468l-9.8-20M412.9 442l22.4-13.9M435.3 428.1l-19.6-8.4M415 413.8l12.4-5.4M427.9 402.4l-16.8-19.2M434.3 404.1l22.3-7.8M456.6 396.3l-12.4-18.7M445 371.5l21.1-8.9M466.5 358.6l-17.1-7.6M409.8 376.2l4.7-22.3M414.5 353.9l-14.6 1.9M396.1 350.6l1.7-17.3M402.5 329.3l15.2-1.4M424.9 330.4l17.7 16.1M419.5 353.4l18.7 18.6M394.5 329.3l-7.7-6.2M382.2 316.2l-3-8M373.7 304.5l-13.3.9M357.3 301.4l6.1-13.4M361.2 284.4l-16.3 3.2M341 284.4l14-49.7M358.6 227.6l23.1-14.9M387.7 213.7l13.9 11.4M406.5 224l6.6-18.4M415.7 204.7l24.8 30.3M424.9 239.2l-9.2-34.5M404.7 231.6l1 31.4M403.5 270.3l-7 14.7M368.2 281.8l22.8 4.7M359.3 233.7l13.5 10.5M378.9 243.4l22.8-13.1M378.8 249.3l23.6 15.5M374.5 250l-9.3 30.4M384.3 205.7l-.6-18.1M387.7 183.6l9.5.8M401.2 180.4l3.6-11.1M408.8 165.3l13.9 5.9M426.7 177.2v12.2M553.5 411.3l5.5 4.6M565.6 414.2l4-7.5M569.6 399.7l-5.9-14.2M574.3 398.7l7.6-12.1M550.4 404.7l-7.6-16.1M542.8 380.6l2.7-7.2M549.5 371.4l10.2 7.2M545.5 365.4l18.2-19.3M538.8 342.6l6.7 22.8M569.6 344.6l15.4 6.5M565.6 378l23.4-22.9M583.7 378.6l5.3-23.5M589 347.1l16.3-18.4M597.1 323.6l4.3.5M590.6 319.4l-8.4-26M596.7 310.7l-14.5-17.3M603 311.2l14.7-8.4M617.4 296.9l-8.7-14M621.3 286.7l-12.6-3.8M628.6 289l5.7.9M640.2 294.5l12.1 29.9M657 325.3l16.2-25.5M678.9 299.4l9.3 12.9M693.6 318.2l2.3 16.5M701.2 321l-7.6-2.8M705.6 319.6l3.7-13.7M712.3 298.5l11.3-11.6M724.5 279.8l1.3-18.3M729.2 259.6l4.8 4.1M738 262.7l3.6-15.1M741 240.4l-19-39.3M718.1 194.2l-21-25.3M691.7 163l-15.6-7.4M673.2 156.9l-5 30.2M668.7 154.7l-15.2 5.4M647.2 165.1l-3.1 2.5M643.7 173.9l20.3 14.8M637.4 170.6l-5-.7M624.4 172.1L616 176M608.8 179.4l-17.9 4.1M583.5 183.1l-18.1-8M558.8 175.1l-22.3 20.8M534.7 202.9l2.5 15.8M514.6 208.2l.7 3.3M516.8 219.5l-1 3.9M525.7 234.5l10.3-8.7M522.6 241.8v4.6M518.6 251.2l-7.4 1.7M511 256.8l1.9 1.9M539.6 252.7l4.2 2.7M550.1 255.5l5.7-1.6M561.5 254.5l3 6.8M570.8 264.5l5.1.8M580.3 269.9l1.6 2.1M578.3 277.8l-20.1 3.3M551 280.2l-11.8-8.7M532.6 268.5l-16 2.5M510.9 275.6l-9.4 15.2M514.3 275.9l4 18.3M521.8 300.2l25.2 9.5M554.4 286.3l-4 21.4M575.9 293.1l-21.5 16.3M552.4 315.3l10.6 22.6M548.1 315.7l-7.5 18.9M534.3 337.9l-14.7-4M511.1 332l-11.6-10.1M496.6 315.3l2.9-17.1M503.1 296l11.2 1M542.3 222.6l36.8-7.1M587.1 188.8l-4 22.7M587.1 215.5l47 11.1M583.1 219.5l-3.2 41.8M640.9 229.4l26.3 26.1M671.9 257.1l25.5-26.5M702.9 230.6l19.7 24.6M717 199.7l-15.1 23.9M690.6 168.9l-19.9 19.4M670.4 193.5l25.8 30.9M664 193.5l-23.9 29.1M640 287.6l25.1-25.1M668.9 263.7l7 29.2M672.3 261.7l35.2 37.5M642.1 291.1l29.8 5.8M679.9 296.9l26.4 5.1M672.9 259.7l48.9-2.2M603.7 275.9L585.1 219M585.9 276l16 4M718.1 416.5l-2.5-14.5M718.5 395.2l6.4-5.8M731 384.3l11.7-6.5M745.3 378.7l-5.4 12.7M736.9 399l-4.1 8.9M723.8 418.8l4-3.8M727.8 407.9l-8.9-7.6M734.7 395.4l-15.8 4.9M735.5 393l-4.6-3.8M717.9 346.6l5.4-7.3M603.7 381.3l-3.7 14.6M424.9 468.2l12.8-36.4M409.7 440.4l2-19.4M412.7 413.1l-1.6-29.9M441.7 424.9l16.3-23.4M461.6 394.1l8.5-29.7M397.8 358.6l8.5 18.2M408.3 264l15.5-18.6M356.4 227l25.3-39.9"/>
  <path id="svg-concept" class="dom5" d="M474.1 360.4c0 2.2-1.8 4-4 4s-4-1.8-4-4 1.8-4 4-4 4 1.8 4 4zM464.1 398.1c0 2.2-1.8 4-4 4s-4-1.8-4-4 1.8-4 4-4 4 1.8 4 4zM426.8 471.6c0 2.2-1.8 4-4 4s-4-1.8-4-4 1.8-4 4-4 4 1.8 4 4zM413.8 444.4c0 2.2-1.8 4-4 4s-4-1.8-4-4 1.8-4 4-4 4 1.8 4 4zM400.1 354.6c0 2.2-1.8 4-4 4s-4-1.8-4-4 1.8-4 4-4 4 1.8 4 4zM195.2 441.4c0 2.2-1.8 4-4 4s-4-1.8-4-4 1.8-4 4-4 4 1.8 4 4zM215.6 196.1c0 2.2-1.8 4-4 4s-4-1.8-4-4 1.8-4 4-4 4 1.8 4 4zM29.1 142.1c0 2.2-1.8 4-4 4s-4-1.8-4-4 1.8-4 4-4 4 1.7 4 4zM412.7 380c0 2.2-1.8 4-4 4s-4-1.8-4-4 1.8-4 4-4 4 1.8 4 4zM445.8 238.7c0 2.2-1.8 4-4 4s-4-1.8-4-4 1.8-4 4-4c2.2.1 4 1.8 4 4zM387.7 183.6c0 2.2-1.8 4-4 4s-4-1.8-4-4 1.8-4 4-4 4 1.8 4 4zM430.7 242.7c0 2.2-1.8 4-4 4s-4-1.8-4-4 1.8-4 4-4c2.2.1 4 1.8 4 4zM254.6 79.8c0 2.2-1.8 4-4 4s-4-1.8-4-4 1.8-4 4-4c2.2.1 4 1.8 4 4zM381.7 304.5c0 2.2-1.8 4-4 4s-4-1.8-4-4 1.8-4 4-4 4 1.8 4 4zM61.1 391c0 2.2-1.8 4-4 4s-4-1.8-4-4 1.8-4 4-4 4 1.8 4 4zM360.4 305.4c0 2.2-1.8 4-4 4s-4-1.8-4-4 1.8-4 4-4 4 1.8 4 4zM502.4 163.3c0 2.2-1.8 4-4 4s-4-1.8-4-4 1.8-4 4-4 4 1.8 4 4zM474.4 167.3c0 2.2-1.8 4-4 4s-4-1.8-4-4 1.8-4 4-4 4 1.8 4 4zM576.3 402.7c0 2.2-1.8 4-4 4s-4-1.8-4-4 1.8-4 4-4 4 1.8 4 4zM540.6 268.5c0 2.2-1.8 4-4 4s-4-1.8-4-4 1.8-4 4-4 4 1.8 4 4zM519.1 333.8c0 2.2-1.8 4-4 4s-4-1.8-4-4 1.8-4 4-4 4 1.8 4 4zM511.6 254.7c0 2.2-1.8 4-4 4s-4-1.8-4-4 1.8-4 4-4 4 1.7 4 4zM520.8 259.6c0 2.2-1.8 4-4 4s-4-1.8-4-4 1.8-4 4-4 4 1.8 4 4zM526.6 250.4c0 2.2-1.8 4-4 4s-4-1.8-4-4 1.8-4 4-4 4 1.8 4 4zM527.6 238c0 2.2-1.8 4-4 4s-4-1.8-4-4 1.8-4 4-4c2.3 0 4 1.8 4 4zM526.4 249.2l6.2-.1M724.2 420.5c0 2.2-1.8 4-4 4s-4-1.8-4-4 1.8-4 4-4 4 1.8 4 4zM734.3 411.9c0 2.2-1.8 4-4 4s-4-1.8-4-4 1.8-4 4-4 4 1.8 4 4zM719.6 398c0 2.2-1.8 4-4 4s-4-1.8-4-4 1.8-4 4-4 4 1.8 4 4zM562.9 251.5c0 2.2-1.8 4-4 4s-4-1.8-4-4 1.8-4 4-4 4 1.7 4 4zM658.4 328.4c0 2.2-1.8 4-4 4s-4-1.8-4-4 1.8-4 4-4c2.3 0 4 1.8 4 4zM609.9 280c0 2.2-1.8 4-4 4s-4-1.8-4-4 1.8-4 4-4c2.3 0 4 1.8 4 4zM720.5 350.3c0 2.2-1.8 4-4 4s-4-1.8-4-4 1.8-4 4-4 4 1.8 4 4zM728.9 335.6c0 2.2-1.8 4-4 4s-4-1.8-4-4 1.8-4 4-4 4 1.8 4 4zM520.8 215.5c0 2.2-1.8 4-4 4s-4-1.8-4-4 1.8-4 4-4 4 1.8 4 4zM517.7 204.3c0 2.2-1.8 4-4 4s-4-1.8-4-4 1.8-4 4-4 4 1.8 4 4zM724.3 197.5c0 2.2-1.8 4-4 4s-4-1.8-4-4 1.8-4 4-4 4 1.8 4 4zM862.9 289c0 2.2-1.8 4-4 4s-4-1.8-4-4 1.8-4 4-4 4 1.8 4 4zM954 513c0 2.2-1.8 4-4 4s-4-1.8-4-4 1.8-4 4-4 4 1.8 4 4z"/>
  <path class="dom1" d="M959 445c-1.7 0-3-1.3-3-3s1.3-3 3-3 3 1.3 3 3-1.4 3-3 3zM1003 592.6c-1.7 0-3-1.3-3-3s1.3-3 3-3 3 1.3 3 3-1.4 3-3 3zM1027.9 534.6c-1.7 0-3-1.3-3-3s1.3-3 3-3 3 1.3 3 3-1.3 3-3 3zM1068.2 583.6c-1.7-.1-2.9-1.6-2.8-3.2.1-1.7 1.6-2.9 3.2-2.7 1.7.1 2.9 1.6 2.7 3.2 0 1.6-1.5 2.8-3.1 2.7zM1009 237.6c-1.7 0-3-1.3-3-3s1.3-3 3-3 3 1.3 3 3c0 1.6-1.3 3-3 3zM1068.3 221.6c-1.7 0-3-1.3-3-3s1.3-3 3-3 3 1.3 3 3c0 1.6-1.3 3-3 3zM1046.5 325.8c-1.7 0-3-1.3-3-3s1.3-3 3-3 3 1.3 3 3c0 1.6-1.3 3-3 3zM1064.5 474.4c-1.7 0-3-1.3-3-3s1.3-3 3-3 3 1.3 3 3-1.4 3-3 3zM1046.6 410.9c-1.7 0-3-1.3-3-3s1.3-3 3-3 3 1.3 3 3-1.3 3-3 3z"/>
  <path id="svg-concept" class="dom5" d="M991 377c0 2.2-1.8 4-4 4s-4-1.8-4-4 1.8-4 4-4 4 1.8 4 4zM1014 84.4c0 2.2-1.8 4-4 4s-4-1.8-4-4 1.8-4 4-4 4 1.8 4 4zM671.2 191.1c0 2.2-1.8 4-4 4s-4-1.8-4-4 1.8-4 4-4 4 1.8 4 4zM999 158.8c0 2.2-1.8 4-4 4s-4-1.8-4-4 1.8-4 4-4 4 1.8 4 4zM936 108c0 2.2-1.8 4-4 4s-4-1.8-4-4 1.8-4 4-4 4 1.8 4 4zM607.3 168.4c0 2.2-1.8 4-4 4s-4-1.8-4-4 1.8-4 4-4c2.3 0 4 1.8 4 4zM661.5 140.5c0 2.2-1.8 4-4 4s-4-1.8-4-4 1.8-4 4-4 4 1.8 4 4z"/>
  <path class="dom6" d="M518.6 538.7c-33.3 24.2-64.1 33-86.8 21.4-54.7-27.8-41.7-163 29-302s172.3-229 226.9-201.2c26.8 13.6 37.3 53 32.8 106M763.3 385.4c18.8 56.1 16.4 104-11.5 129.9-25.7 23.9-68.4 24.7-117.6 6.9"/>
  <path class="dom6" d="M348.5 203.9c-9.6-44-4-80.7 19.2-102.3 54.2-50.3 184.1 1.5 290.2 115.8 51.4 55.4 87.8 115.3 105.5 168"/>
  <path class="dom6" d="M775 305.3c41.1 26.8 63.4 53.9 57.6 75.7-12.2 45.9-144.2 50.6-294.9 10.6S274.7 281.9 286.9 236c4.5-17 28.2-34.4 61.6-32.1"/>
  <path id="svg-concept" class="dom7" d="M779 475.6c0 4.1-3.4 7.5-7.5 7.5s-7.5-3.4-7.5-7.5 3.4-7.5 7.5-7.5 7.5 3.4 7.5 7.5zM481.9 233.6c0 4.1-3.4 7.5-7.5 7.5s-7.5-3.4-7.5-7.5 3.4-7.5 7.5-7.5c4.1.1 7.5 3.4 7.5 7.5zM296.2 257.1c0 4.1-3.4 7.5-7.5 7.5s-7.5-3.4-7.5-7.5 3.4-7.5 7.5-7.5 7.5 3.3 7.5 7.5z"/>
</svg>
