<svg version="1.1" id="Layer_1" xmlns="http://www.w3.org/2000/svg" x="0" y="0" viewBox="0 0 657.3 652.5" xml:space="preserve">
  <style>
    .drenewal0,.drenewal1,.drenewal3{stroke-linecap:round;stroke-linejoin:round;stroke-miterlimit:10}.drenewal0{stroke-width:2;fill:#fff;stroke:#ee5586}.drenewal1,.drenewal3{fill:none;stroke:gray}.drenewal3{stroke:#ee5586}
  </style>
  <path class="drenewal1" d="M464.8 533.1H218.2M218.3 434.1l-.1 99M533 408.4V225.3M434 225.3h99"/>
  <g>
    <path id="svg-concept" class="drenewal0" d="M408.6 533.1c0 2.5-2.1 4.6-4.6 4.6-2.5 0-4.6-2.1-4.6-4.6 0-2.5 2.1-4.6 4.6-4.6 2.6 0 4.6 2.1 4.6 4.6z"/>
    <animateMotion path="M0, 0 -185 0 -185 -185 -185" begin="0s" dur="2s" repeatCount="indefinite"/>
  </g>
  <g>
    <path id="svg-concept" class="drenewal0" d="M448.5 225.3c0 2.5-2.1 4.6-4.6 4.6-2.5 0-4.6-2.1-4.6-4.6s2.1-4.6 4.6-4.6c2.5 0 4.6 2 4.6 4.6z"/>
    <animateMotion path="M0, 0 90 0 90 370 90" begin="0s" dur="2s" repeatCount="indefinite"/>
  </g>
  <path id="svg-concept" d="M434 218.3C434 99.2 337.4 2.5 218.2 2.5 99.1 2.5 2.4 99.2 2.4 218.3c0 119.2 96.6 215.8 215.8 215.8 119.2 0 215.8-96.6 215.8-215.8z" fill="#fff" stroke="#ee5586" stroke-width="3" stroke-linecap="round" stroke-linejoin="round" stroke-miterlimit="10"/>
  <path id="svg-concept" class="drenewal3" d="M337.5 218.3c0-119.2-53.4-215.8-119.3-215.8S98.9 99.1 98.9 218.3c0 119.2 53.4 215.8 119.3 215.8s119.3-96.6 119.3-215.8z"/>
  <path class="drenewal1" d="M46.6 90.2c42.8 31.7 103.8 51.6 171.6 51.6s128.9-19.9 171.6-51.6M389.8 346.5C347 314.8 286 294.9 218.2 294.9S89.3 314.8 46.6 346.5M4.3 225.3H432M218.2 4.1v427.7"/>
  <path id="svg-concept" d="M653.8 529.2c0-66.7-54.1-120.8-120.8-120.8-66.7 0-120.8 54.1-120.8 120.8 0 66.7 54.1 120.8 120.8 120.8 66.7 0 120.8-54.1 120.8-120.8z" fill="#fff" stroke="#ee5586" stroke-width="2" stroke-linecap="round" stroke-linejoin="round" stroke-miterlimit="10"/>
  <path id="svg-concept" class="drenewal3" d="M599.8 529.2c0-66.7-29.9-120.8-66.8-120.8s-66.8 54.1-66.8 120.8c0 66.7 29.9 120.8 66.8 120.8s66.8-54.1 66.8-120.8z"/>
  <path class="drenewal1" d="M437 457.5c23.9 17.8 58.1 28.9 96.1 28.9 37.9 0 72.1-11.1 96.1-28.9M629.1 600.9C605.2 583.1 571 572 533 572c-37.9 0-72.1 11.1-96.1 28.9M412.2 533.1h241.6M533 408.4V650"/>
</svg>
