<svg version="1.1" id="Layer_1" xmlns="http://www.w3.org/2000/svg" x="0" y="0" viewBox="0 0 646.6 652.5" xml:space="preserve">
  <style>
    .dmanage0,.dmanage1,.dmanage3,.dmanage4,.dmanage6,.dmanage7{fill:none;stroke:gray;stroke-linecap:round;stroke-linejoin:round;stroke-miterlimit:10}.dmanage1,.dmanage3,.dmanage4,.dmanage6,.dmanage7{fill:#fff}.dmanage3,.dmanage4,.dmanage6,.dmanage7{fill:none;stroke:#ee5586}.dmanage4,.dmanage6,.dmanage7{fill:#fff}.dmanage6,.dmanage7{fill:none}.dmanage7{fill:#fff;stroke-width:2}
  </style>
  <path class="dmanage0" d="M361.3 587c-36.6 23.4-81.5 40.5-128.9 40.5-126.5 0-229.1-97.3-229.1-217.2 0-46.6-7.3-108.1 44.1-129.4"/>
  <path class="dmanage0" d="M361.3 587c-42 45.7-81.5 62.4-128.9 62.4-124.6 0-228.8-100.6-228.8-228.5"/>
  <path class="dmanage1" d="M58.4 286.6h-8.6c-1.3 0-2.3-1-2.3-2.3v-5.1c0-1.3 1-2.3 2.3-2.3h8.7"/>
  <path class="dmanage1" d="M80.7 295.7h-13c-5.1 0-9.3-4.2-9.3-9.3v-9.1c0-5.1 4.2-9.3 9.3-9.3h13"/>
  <path class="dmanage0" d="M295.6 31.7c-2.1 0-3.7-1.7-3.7-3.7s1.7-3.7 3.7-3.7c2.1 0 3.7 1.7 3.7 3.7s-1.7 3.7-3.7 3.7z"/>
  <path class="dmanage1" d="M642.3 282.4c0 155.2-125.8 281-281 281s-281-125.8-281-281 125.8-281 281-281 281 125.8 281 281z"/>
  <radialGradient id="SVGID_1_" cx="210.0031" cy="201.5503" r=".0352" gradientUnits="userSpaceOnUse">
    <stop offset="0" stop-color="#27a8e0"/>
    <stop offset=".1991" stop-color="#2aa9e0"/>
    <stop offset=".3473" stop-color="#33ace0"/>
    <stop offset=".4791" stop-color="#44b1e1"/>
    <stop offset=".6013" stop-color="#5ab9e2"/>
    <stop offset=".7169" stop-color="#78c2e3"/>
    <stop offset=".8275" stop-color="#9ccee4"/>
    <stop offset=".9323" stop-color="#c6dce5"/>
    <stop offset="1" stop-color="#e5e6e6"/>
  </radialGradient>
  <path d="M210 201.5c0 .1-.1.1 0 0z" fill="url(#SVGID_1_)"/>
  <path class="dmanage0" d="M384 412.9c0 2.7-2.2 5-4.9 5s-4.9-2.2-4.9-5c0-2.7 2.2-4.9 4.9-4.9 2.7-.1 4.9 2.1 4.9 4.9zM369.3 401.2c0 2.7-2.2 5-4.9 5s-4.9-2.2-4.9-5c0-2.7 2.2-4.9 4.9-4.9s4.9 2.2 4.9 4.9zM410.5 368.9c0 2.7-2.2 5-4.9 5s-4.9-2.2-4.9-5c0-2.7 2.2-4.9 4.9-4.9s4.9 2.2 4.9 4.9zM417 330c0 2.7-2.2 5-4.9 5s-4.9-2.2-4.9-5c0-2.7 2.2-4.9 4.9-4.9 2.7-.1 4.9 2.1 4.9 4.9zM437.2 297.2c0 2.7-2.2 5-4.9 5s-4.9-2.2-4.9-5c0-2.7 2.2-4.9 4.9-4.9s4.9 2.2 4.9 4.9zM421.9 294.7c0 2.7-2.2 5-4.9 5s-4.9-2.2-4.9-5c0-2.7 2.2-4.9 4.9-4.9 2.7-.1 4.9 2.2 4.9 4.9zM405.7 254.6c0 2.7-2.2 5-4.9 5s-4.9-2.2-4.9-5 2.2-4.9 4.9-4.9 4.9 2.2 4.9 4.9zM430.2 283.2c0 2.7-2.2 5-4.9 5s-4.9-2.2-4.9-5c0-2.7 2.2-4.9 4.9-4.9s4.9 2.2 4.9 4.9zM456.1 266.7c0 2.7-2.2 5-4.9 5s-4.9-2.2-4.9-5c0-2.7 2.2-4.9 4.9-4.9s4.9 2.2 4.9 4.9zM408.2 237.1c0 2.7-2.2 5-4.9 5s-4.9-2.2-4.9-5 2.2-4.9 4.9-4.9c2.7-.1 4.9 2.1 4.9 4.9zM405.7 223.8c0 2.7-2.2 5-4.9 5s-4.9-2.2-4.9-5 2.2-4.9 4.9-4.9c2.7-.1 4.9 2.1 4.9 4.9zM389.6 222.8c0 2.7-2.2 5-4.9 5s-4.9-2.2-4.9-5 2.2-4.9 4.9-4.9 4.9 2.2 4.9 4.9zM374.2 244.8c0 2.7-2.2 5-4.9 5s-4.9-2.2-4.9-5 2.2-4.9 4.9-4.9c2.7-.1 4.9 2.1 4.9 4.9zM322.7 232.1c0 2.7-2.2 5-4.9 5s-4.9-2.2-4.9-5 2.2-4.9 4.9-4.9 4.9 2.2 4.9 4.9zM351.8 205.5c0 2.7-2.2 5-4.9 5s-4.9-2.2-4.9-5 2.2-4.9 4.9-4.9c2.7-.1 4.9 2.1 4.9 4.9zM365 214.6c0 2.7-2.2 5-4.9 5s-4.9-2.2-4.9-5c0-2.7 2.2-4.9 4.9-4.9s4.9 2.2 4.9 4.9zM354.2 170.9c0 2.7-2.2 5-4.9 5s-4.9-2.2-4.9-5 2.2-4.9 4.9-4.9 4.9 2.2 4.9 4.9zM349 141.8c0 2.7-2.2 5-4.9 5s-4.9-2.2-4.9-5 2.2-4.9 4.9-4.9c2.6-.1 4.9 2.1 4.9 4.9zM383.7 109.5c0 2.7-2.2 5-4.9 5s-4.9-2.2-4.9-5 2.2-4.9 4.9-4.9c2.7-.1 4.9 2.1 4.9 4.9zM414.6 124.1c0 2.7-2.2 5-4.9 5s-4.9-2.2-4.9-5 2.2-4.9 4.9-4.9 4.9 2.2 4.9 4.9zM446.2 116c0 2.7-2.2 5-4.9 5s-4.9-2.2-4.9-5 2.2-4.9 4.9-4.9c2.7-.1 4.9 2.1 4.9 4.9zM465.8 105.7c0 2.7-2.2 5-4.9 5s-4.9-2.2-4.9-5 2.2-4.9 4.9-4.9 4.9 2.2 4.9 4.9zM493 96.9c0 2.7-2.2 5-4.9 5s-4.9-2.2-4.9-5c0-2.7 2.2-4.9 4.9-4.9s4.9 2.2 4.9 4.9zM481.9 106.6c0 2.7-2.2 5-4.9 5s-4.9-2.2-4.9-5 2.2-4.9 4.9-4.9 4.9 2.2 4.9 4.9zM521.2 84.7c0 2.7-2.2 5-4.9 5s-4.9-2.2-4.9-5 2.2-4.9 4.9-4.9c2.6 0 4.9 2.2 4.9 4.9zM547.6 100.6c0 2.7-2.2 5-4.9 5s-4.9-2.2-4.9-5c0-2.7 2.2-4.9 4.9-4.9s4.9 2.2 4.9 4.9zM607.4 197.3c0 2.7-2.2 5-4.9 5s-4.9-2.2-4.9-5 2.2-4.9 4.9-4.9c2.7-.1 4.9 2.2 4.9 4.9zM599.9 225.3c0 2.7-2.2 5-4.9 5s-4.9-2.2-4.9-5 2.2-4.9 4.9-4.9c2.7-.1 4.9 2.1 4.9 4.9zM586.3 214.1c0 2.7-2.2 5-4.9 5s-4.9-2.2-4.9-5 2.2-4.9 4.9-4.9c2.6 0 4.9 2.2 4.9 4.9zM586.3 246.5c0 2.7-2.2 5-4.9 5s-4.9-2.2-4.9-5 2.2-4.9 4.9-4.9c2.6-.1 4.9 2.1 4.9 4.9zM567.1 269.2c0 2.7-2.2 5-4.9 5s-4.9-2.2-4.9-5c0-2.7 2.2-4.9 4.9-4.9 2.7-.1 4.9 2.2 4.9 4.9zM559.5 295.9c0 2.7-2.2 5-4.9 5s-4.9-2.2-4.9-5c0-2.7 2.2-4.9 4.9-4.9s4.9 2.2 4.9 4.9zM543.4 285.3c0 2.7-2.2 5-4.9 5s-4.9-2.2-4.9-5c0-2.7 2.2-4.9 4.9-4.9 2.7-.1 4.9 2.1 4.9 4.9zM524.5 262.8c0 2.7-2.2 5-4.9 5s-4.9-2.2-4.9-5c0-2.7 2.2-4.9 4.9-4.9s4.9 2.2 4.9 4.9zM477.7 255.7c0 2.7-2.2 5-4.9 5s-4.9-2.2-4.9-5 2.2-4.9 4.9-4.9 4.9 2.2 4.9 4.9zM515.8 216.8c0 2.7-2.2 5-4.9 5s-4.9-2.2-4.9-5 2.2-4.9 4.9-4.9 4.9 2.2 4.9 4.9zM554.6 177.1c0 2.7-2.2 5-4.9 5s-4.9-2.2-4.9-5c0-2.7 2.2-4.9 4.9-4.9 2.6 0 4.9 2.2 4.9 4.9zM409.7 162.2c0 2.7-2.2 5-4.9 5s-4.9-2.2-4.9-5c0-2.7 2.2-4.9 4.9-4.9 2.7-.1 4.9 2.1 4.9 4.9zM477.7 175.9c0 2.7-2.2 5-4.9 5s-4.9-2.2-4.9-5 2.2-4.9 4.9-4.9c2.7-.1 4.9 2.1 4.9 4.9zM461 253.1c0 2.7-2.2 5-4.9 5s-4.9-2.2-4.9-5 2.2-4.9 4.9-4.9 4.9 2.2 4.9 4.9zM552.1 313.7c0 2.7-2.2 5-4.9 5s-4.9-2.2-4.9-5 2.2-4.9 4.9-4.9 4.9 2.2 4.9 4.9zM610.3 359.1c0 2.7-2.2 5-4.9 5s-4.9-2.2-4.9-5c0-2.7 2.2-4.9 4.9-4.9s4.9 2.2 4.9 4.9zM430.7 390.3c0 2.7-2.2 5-4.9 5s-4.9-2.2-4.9-5c0-2.7 2.2-4.9 4.9-4.9 2.6-.1 4.9 2.1 4.9 4.9zM435.2 362.3c0 2.7-2.2 5-4.9 5s-4.9-2.2-4.9-5c0-2.7 2.2-4.9 4.9-4.9s4.9 2.2 4.9 4.9zM603.7 292.6c0 2.7-2.2 5-4.9 5s-4.9-2.2-4.9-5c0-2.7 2.2-4.9 4.9-4.9 2.6-.1 4.9 2.2 4.9 4.9zM613 237.9c0 2.7-2.2 5-4.9 5s-4.9-2.2-4.9-5 2.2-4.9 4.9-4.9c2.7-.1 4.9 2.1 4.9 4.9zM617.1 324.5c0 2.7-2.2 5-4.9 5s-4.9-2.2-4.9-5c0-2.7 2.2-4.9 4.9-4.9 2.6 0 4.9 2.2 4.9 4.9zM596.8 329c0 2.7-2.2 5-4.9 5s-4.9-2.2-4.9-5c0-2.7 2.2-4.9 4.9-4.9 2.7-.1 4.9 2.1 4.9 4.9zM567.1 342.9c0 2.7-2.2 5-4.9 5s-4.9-2.2-4.9-5c0-2.7 2.2-4.9 4.9-4.9s4.9 2.2 4.9 4.9zM552.1 329.8c0 2.7-2.2 5-4.9 5s-4.9-2.2-4.9-5c0-2.7 2.2-4.9 4.9-4.9s4.9 2.2 4.9 4.9zM595.4 276.8c0 2.7-2.2 5-4.9 5s-4.9-2.2-4.9-5c0-2.7 2.2-4.9 4.9-4.9s4.9 2.2 4.9 4.9zM590 261.7c0 2.7-2.2 5-4.9 5s-4.9-2.2-4.9-5c0-2.7 2.2-4.9 4.9-4.9 2.7-.1 4.9 2.1 4.9 4.9zM588.7 373.9c0 2.7-2.2 5-4.9 5s-4.9-2.2-4.9-5c0-2.7 2.2-4.9 4.9-4.9 2.7-.1 4.9 2.1 4.9 4.9zM602.2 384.8c0 2.7-2.2 5-4.9 5s-4.9-2.2-4.9-5c0-2.7 2.2-4.9 4.9-4.9 2.7-.1 4.9 2.1 4.9 4.9zM326.4 176.9c0 2.7-2.2 5-4.9 5s-4.9-2.2-4.9-5c0-2.7 2.2-4.9 4.9-4.9 2.7-.1 4.9 2.1 4.9 4.9zM311.8 166.8c0 2.7-2.2 5-4.9 5s-4.9-2.2-4.9-5 2.2-4.9 4.9-4.9c2.7-.1 4.9 2.1 4.9 4.9zM306.3 259.6c0 2.7-2.2 5-4.9 5s-4.9-2.2-4.9-5c0-2.7 2.2-4.9 4.9-4.9 2.7-.1 4.9 2.1 4.9 4.9zM302.7 290.6c0 2.7-2.2 5-4.9 5s-4.9-2.2-4.9-5c0-2.7 2.2-4.9 4.9-4.9 2.6-.1 4.9 2.1 4.9 4.9zM329.6 264.5c0 2.7-2.2 5-4.9 5s-4.9-2.2-4.9-5c0-2.7 2.2-4.9 4.9-4.9 2.6 0 4.9 2.2 4.9 4.9zM369.3 281.2c0 2.7-2.2 5-4.9 5s-4.9-2.2-4.9-5c0-2.7 2.2-4.9 4.9-4.9 2.7-.1 4.9 2.1 4.9 4.9zM388.1 319.4c0 2.7-2.2 5-4.9 5s-4.9-2.2-4.9-5c0-2.7 2.2-4.9 4.9-4.9 2.6-.1 4.9 2.1 4.9 4.9zM385.7 367.5c0 2.7-2.2 5-4.9 5s-4.9-2.2-4.9-5c0-2.7 2.2-4.9 4.9-4.9s4.9 2.2 4.9 4.9zM359.9 371.3c0 2.7-2.2 5-4.9 5s-4.9-2.2-4.9-5c0-2.7 2.2-4.9 4.9-4.9s4.9 2.2 4.9 4.9zM363.3 352.6c0 2.7-2.2 5-4.9 5s-4.9-2.2-4.9-5c0-2.7 2.2-4.9 4.9-4.9 2.6-.1 4.9 2.1 4.9 4.9zM355 314.4c0 2.7-2.2 5-4.9 5s-4.9-2.2-4.9-5c0-2.7 2.2-4.9 4.9-4.9s4.9 2.2 4.9 4.9zM314.8 129.4c0 2.7-2.2 5-4.9 5s-4.9-2.2-4.9-5c0-2.7 2.2-4.9 4.9-4.9 2.7-.1 4.9 2.2 4.9 4.9zM362.9 83.6c0 2.7-2.2 5-4.9 5s-4.9-2.2-4.9-5c0-2.7 2.2-4.9 4.9-4.9s4.9 2.2 4.9 4.9zM358 69.4c0 2.7-2.2 5-4.9 5s-4.9-2.2-4.9-5 2.2-4.9 4.9-4.9c2.7-.1 4.9 2.1 4.9 4.9zM379.7 64.4c0 2.7-2.2 5-4.9 5s-4.9-2.2-4.9-5c0-2.7 2.2-4.9 4.9-4.9s4.9 2.2 4.9 4.9zM439.7 66.5c0 2.7-2.2 5-4.9 5s-4.9-2.2-4.9-5c0-2.7 2.2-4.9 4.9-4.9 2.7-.1 4.9 2.1 4.9 4.9zM453.4 83.4c0 2.7-2.2 5-4.9 5s-4.9-2.2-4.9-5 2.2-4.9 4.9-4.9c2.6 0 4.9 2.2 4.9 4.9zM354.4 74.1l1.9 4.9M433 100.1l12.1-12.9M261.3 142.9c0 2.7-2.2 5-4.9 5s-4.9-2.2-4.9-5 2.2-4.9 4.9-4.9c2.7-.1 4.9 2.1 4.9 4.9zM231.9 425.2c0 2.7-2.2 5-4.9 5s-4.9-2.2-4.9-5c0-2.7 2.2-4.9 4.9-4.9s4.9 2.2 4.9 4.9zM198.9 411.6c0 2.7-2.2 5-4.9 5s-4.9-2.2-4.9-5c0-2.7 2.2-4.9 4.9-4.9 2.7-.1 4.9 2.1 4.9 4.9zM220.7 397.4c0 2.7-2.2 5-4.9 5s-4.9-2.2-4.9-5c0-2.7 2.2-4.9 4.9-4.9s4.9 2.2 4.9 4.9zM239.8 327.3c0 2.7-2.2 5-4.9 5s-4.9-2.2-4.9-5c0-2.7 2.2-4.9 4.9-4.9 2.7-.1 4.9 2.1 4.9 4.9zM210.1 301.2c0 2.7-2.2 5-4.9 5s-4.9-2.2-4.9-5c0-2.7 2.2-4.9 4.9-4.9 2.7-.1 4.9 2.2 4.9 4.9zM181.3 303c0 2.7-2.2 5-4.9 5s-4.9-2.2-4.9-5c0-2.7 2.2-4.9 4.9-4.9 2.7-.1 4.9 2.1 4.9 4.9zM163.5 291.7c0 2.7-2.2 5-4.9 5s-4.9-2.2-4.9-5c0-2.7 2.2-4.9 4.9-4.9 2.7-.1 4.9 2.1 4.9 4.9zM110.2 252.4c0 2.7-2.2 5-4.9 5s-4.9-2.2-4.9-5 2.2-4.9 4.9-4.9c2.7-.1 4.9 2.2 4.9 4.9zM140.2 247.4c0 2.7-2.2 5-4.9 5s-4.9-2.2-4.9-5 2.2-4.9 4.9-4.9 4.9 2.2 4.9 4.9zM176.4 252.4c0 2.7-2.2 5-4.9 5s-4.9-2.2-4.9-5 2.2-4.9 4.9-4.9c2.7-.1 4.9 2.2 4.9 4.9zM190.3 225.9c0 2.7-2.2 5-4.9 5s-4.9-2.2-4.9-5 2.2-4.9 4.9-4.9 4.9 2.2 4.9 4.9zM199.4 145c0 2.7-2.2 5-4.9 5s-4.9-2.2-4.9-5 2.2-4.9 4.9-4.9 4.9 2.2 4.9 4.9zM189 177.2c0 2.7-2.2 5-4.9 5s-4.9-2.2-4.9-5 2.2-4.9 4.9-4.9c2.7-.1 4.9 2.1 4.9 4.9zM163.8 155c0 2.7-2.2 5-4.9 5s-4.9-2.2-4.9-5 2.2-4.9 4.9-4.9c2.7-.1 4.9 2.1 4.9 4.9zM189.1 100.1c0 2.7-2.2 5-4.9 5s-4.9-2.2-4.9-5 2.2-4.9 4.9-4.9 4.9 2.2 4.9 4.9zM184.8 123.7c0 2.7-2.2 5-4.9 5s-4.9-2.2-4.9-5 2.2-4.9 4.9-4.9c2.6-.1 4.9 2.1 4.9 4.9zM216.3 109.9c0 2.7-2.2 5-4.9 5s-4.9-2.2-4.9-5c0-2.7 2.2-4.9 4.9-4.9s4.9 2.2 4.9 4.9zM216.3 134.9c0 2.7-2.2 5-4.9 5s-4.9-2.2-4.9-5 2.2-4.9 4.9-4.9c2.7-.1 4.9 2.1 4.9 4.9zM129.3 181.3c0 2.7-2.2 5-4.9 5s-4.9-2.2-4.9-5 2.2-4.9 4.9-4.9 4.9 2.2 4.9 4.9zM153.7 200.3c0 2.7-2.2 5-4.9 5s-4.9-2.2-4.9-5 2.2-4.9 4.9-4.9 4.9 2.2 4.9 4.9zM203.8 329.3c0 2.7-2.2 5-4.9 5s-4.9-2.2-4.9-5c0-2.7 2.2-4.9 4.9-4.9 2.7-.1 4.9 2.2 4.9 4.9zM234.8 358.1c0 2.7-2.2 5-4.9 5s-4.9-2.2-4.9-5c0-2.7 2.2-4.9 4.9-4.9 2.7-.1 4.9 2.1 4.9 4.9zM254.9 120.7c0 2.7-2.2 5-4.9 5s-4.9-2.2-4.9-5 2.2-4.9 4.9-4.9c2.7-.1 4.9 2.2 4.9 4.9zM292.7 114c0 2.7-2.2 5-4.9 5s-4.9-2.2-4.9-5 2.2-4.9 4.9-4.9c2.6-.1 4.9 2.1 4.9 4.9zM309.9 78.9c0 2.7-2.2 5-4.9 5s-4.9-2.2-4.9-5 2.2-4.9 4.9-4.9c2.7-.1 4.9 2.1 4.9 4.9zM322.2 64.2c0 2.7-2.2 5-4.9 5s-4.9-2.2-4.9-5 2.2-4.9 4.9-4.9 4.9 2.2 4.9 4.9zM312.3 53.4c0 2.7-2.2 5-4.9 5s-4.9-2.2-4.9-5c0-2.7 2.2-4.9 4.9-4.9 2.6 0 4.9 2.2 4.9 4.9zM274.6 56c0 2.7-2.2 5-4.9 5s-4.9-2.2-4.9-5 2.2-4.9 4.9-4.9c2.6 0 4.9 2.2 4.9 4.9zM237.7 69.2c0 2.7-2.2 5-4.9 5s-4.9-2.2-4.9-5 2.2-4.9 4.9-4.9c2.6-.1 4.9 2.1 4.9 4.9zM226.1 83c0 2.7-2.2 5-4.9 5s-4.9-2.2-4.9-5 2.2-4.9 4.9-4.9c2.6-.1 4.9 2.1 4.9 4.9zM247.6 92.6c0 2.7-2.2 5-4.9 5s-4.9-2.2-4.9-5 2.2-4.9 4.9-4.9 4.9 2.2 4.9 4.9zM281.2 78c0 2.7-2.2 5-4.9 5s-4.9-2.2-4.9-5 2.2-4.9 4.9-4.9 4.9 2.2 4.9 4.9zM255.4 137.9l-3.3-12.7M253 116.8l9.5-10.2M261.3 99.6l-14.2-4.9M260.4 139.5l24.2-21.7M291 110.3l6.2-8.7M302.1 93.1l1.9-9.3M300 78.9l-18.8-.9M307.7 74.8l6.3-6.9M302.5 54.3l-28.1.5M271 61l4.2 12.1M265.3 58.4L237.7 67M229.7 73.1l-5.3 5.8M238.5 90l-13.2-4.5M272.5 81.1l-26.3 8.1M274.6 83l-6.5 14.2M204.5 474.5l-12.1-24.7M194.3 442.3l27.7-17.1M222 425.2l-24.3-10.5M196.8 407.5l15.3-6.7M212.8 393.4L192 369.6M220.7 395.4l27.5-9.5M248.2 385.9L233 362.7M233.9 355.2l26.1-11.1M260.6 339.2l-21.2-9.3M190.3 361l5.8-27.6M196.1 333.4l-17.9 2.4M173.5 329.3l2-21.4M181.3 303l18.9-1.8M209 304.3l21.9 20M202.4 332.7l23.1 23M171.4 303l-9.5-7.7M156.2 286.7l-3.7-9.8M145.7 272.3l-16.4 1.1M125.5 268.5l7.5-16.6M130.3 247.4l-20.2 3.9M105.2 247.4l17.4-61.4M127 177.2l28.6-18.5M163 159.9l17.2 14.1M186.3 172.8l8.1-22.8M197.7 148.8l30.6 37.5M209.1 191.5l-11.4-42.7M184.1 182.1l1.2 38.9M182.5 230l-8.6 18.1M139 244.2l28.1 5.9M128 184.7l16.6 12.9M152.2 196.8l28.2-16.4M152 204l29.2 19.2M146.7 204.8l-11.4 37.7M158.9 150l-.8-22.3M163 122.7l11.9 1M179.8 118.7l4.3-13.6M189.1 100.1l17.3 7.3M211.3 114.9v15M368.1 404.4l6.9 5.7M383.1 407.9l5-9.2M388.1 390.1l-7.4-17.6M393.9 388.8l9.4-14.9M364.3 396.3l-9.3-20M355 366.4l3.3-8.9M363.3 355.1l12.5 8.9M358.3 347.6l22.4-23.9M350 319.4l8.3 28.2M388.1 321.9l19 8.1M383.1 363.2l28.9-28.3M405.5 364l6.5-29.1M412 325l20.2-22.8M422.1 295.9l5.2.6M414.1 290.7l-10.4-32.1M421.5 280l-17.8-21.4M429.4 280.6l18.2-10.5M447.2 262.8l-10.7-17.2M452 250.3l-15.5-4.7M461 253.1l7.1 1.1M475.4 259.9l15 37M496.2 298l20-31.5M523.3 266l11.5 15.9M541.4 289.3l2.9 20.4M550.9 292.7l-9.5-3.4M556.3 291l4.6-17M564.6 264.9l14-14.3M579.7 241.8l1.6-22.7M585.5 216.7l5.9 5.1M596.4 220.5l4.4-18.6M600.1 192.9l-23.5-48.5M571.8 135.8l-26-31.3M539.1 97.3l-19.3-9.2M516.2 89.7l-6.2 37.4M510.7 87l-18.9 6.7M484.1 99.9l-3.9 3.1M479.8 110.7l25.1 18.4M472 106.6l-6.2-.9M455.9 108.5l-10.5 4.9M436.5 117.6l-22.1 5M405.2 122l-22.3-9.8M374.6 112.2L347.2 138M344.9 146.6l3.1 19.5M320 153.1l.9 4.1M322.7 167.1l-1.2 4.8M333.8 185.8l12.6-10.8M329.9 194.8v5.6M324.9 206.3l-9.1 2.1M315.5 213.3l2.4 2.3M351 208.2l5.2 3.4M364 211.6l6.9-1.9M378.1 210.4l3.6 8.4M389.6 222.8l6.3 1M401.3 229.5l2 2.6M398.9 239.2l-24.9 4.1M365 242.3l-14.6-10.8M342.2 227.8l-19.7 3M315.4 236.5l-11.5 18.8M319.7 236.9l4.9 22.7M328.9 267l31.2 11.7M369.3 249.7l-5 26.5M395.9 258.1l-26.6 20.2M366.8 285.6l13.1 28M361.5 286.1l-9.4 23.4M344.4 313.6l-18.2-4.9M315.7 306.3l-14.3-12.4M297.7 285.6l3.7-21.1M305.8 261.8l13.9 1.2M354.2 170.9l45.6-8.7M409.7 129.1l-5 28.1M409.7 162.2l58.1 13.7M404.7 167.1l-3.9 51.7M476.2 179.4l32.6 32.2M514.6 213.6l31.5-32.8M552.9 180.8l24.4 30.4M570.4 142.7l-18.7 29.5M537.7 104.6l-24.6 24M512.8 135l31.9 38.2M504.9 135l-29.7 35.9M475.2 251.4l31-31.1M510.9 221.8l8.6 36.1M515.2 219.3l43.4 46.4M477.7 255.7l36.9 7.1M524.5 262.8l32.7 6.4M515.8 216.8l60.6-2.7M430.2 236.9l-23-70.4M408.2 237.1l19.9 4.9M571.8 410.9l-3.1-18M572.2 384.5l8-7.2M587.8 371l14.4-8M605.4 364.1l-6.7 15.7M595 389.2l-5 11M578.8 413.7l5-4.7M583.8 400.2l-11.1-9.4M592.3 384.8l-19.6 6M593.3 381.8l-5.7-4.8M571.6 324.3l6.6-9M430.2 367.2l-4.5 18.1M209 474.8l15.9-45M190.3 440.4l2.4-24M193.9 406.6l-1.9-37M229.9 421.3l20.1-29M254.5 383.2l10.5-36.8M175.6 339.2l10.5 22.5M188.6 222.2l19.1-23M124.3 176.4l31.3-49.4"/>
  <path id="svg-concept" class="dmanage3" d="M269.9 341.4c0 2.7-2.2 5-4.9 5s-4.9-2.2-4.9-5c0-2.7 2.2-4.9 4.9-4.9s4.9 2.2 4.9 4.9zM257.6 388.1c0 2.7-2.2 5-4.9 5s-4.9-2.2-4.9-5c0-2.7 2.2-4.9 4.9-4.9s4.9 2.2 4.9 4.9zM211.5 479c0 2.7-2.2 5-4.9 5s-4.9-2.2-4.9-5c0-2.7 2.2-4.9 4.9-4.9 2.6 0 4.9 2.2 4.9 4.9zM195.3 445.3c0 2.7-2.2 5-4.9 5s-4.9-2.2-4.9-5c0-2.7 2.2-4.9 4.9-4.9s4.9 2.2 4.9 4.9zM178.4 334.2c0 2.7-2.2 5-4.9 5s-4.9-2.2-4.9-5c0-2.7 2.2-4.9 4.9-4.9s4.9 2.2 4.9 4.9zM193.9 365.7c0 2.7-2.2 5-4.9 5s-4.9-2.2-4.9-5c0-2.7 2.2-4.9 4.9-4.9s4.9 2.2 4.9 4.9zM234.9 190.9c0 2.7-2.2 5-4.9 5s-4.9-2.2-4.9-5 2.2-4.9 4.9-4.9 4.9 2.2 4.9 4.9zM163 122.7c0 2.7-2.2 5-4.9 5s-4.9-2.2-4.9-5 2.2-4.9 4.9-4.9 4.9 2.2 4.9 4.9zM216.3 195.9c0 2.7-2.2 5-4.9 5s-4.9-2.2-4.9-5 2.2-4.9 4.9-4.9 4.9 2.2 4.9 4.9zM155.6 272.3c0 2.7-2.2 5-4.9 5s-4.9-2.2-4.9-5c0-2.7 2.2-4.9 4.9-4.9s4.9 2.2 4.9 4.9zM129.3 273.4c0 2.7-2.2 5-4.9 5s-4.9-2.2-4.9-5 2.2-4.9 4.9-4.9 4.9 2.2 4.9 4.9zM304.9 97.6c0 2.7-2.2 5-4.9 5s-4.9-2.2-4.9-5 2.2-4.9 4.9-4.9c2.7-.1 4.9 2.1 4.9 4.9zM270.3 102.5c0 2.7-2.2 5-4.9 5s-4.9-2.2-4.9-5 2.2-4.9 4.9-4.9c2.6 0 4.9 2.2 4.9 4.9zM396.3 393.7c0 2.7-2.2 5-4.9 5s-4.9-2.2-4.9-5c0-2.7 2.2-4.9 4.9-4.9s4.9 2.2 4.9 4.9zM352.1 227.8c0 2.7-2.2 5-4.9 5s-4.9-2.2-4.9-5 2.2-4.9 4.9-4.9c2.7-.1 4.9 2.1 4.9 4.9zM325.6 308.5c0 2.7-2.2 5-4.9 5s-4.9-2.2-4.9-5c0-2.7 2.2-4.9 4.9-4.9s4.9 2.2 4.9 4.9zM316.3 210.6c0 2.7-2.2 5-4.9 5s-4.9-2.2-4.9-5 2.2-4.9 4.9-4.9 4.9 2.2 4.9 4.9zM327.7 216.8c0 2.7-2.2 5-4.9 5s-4.9-2.2-4.9-5 2.2-4.9 4.9-4.9c2.7-.1 4.9 2.1 4.9 4.9zM334.8 205.3c0 2.7-2.2 5-4.9 5s-4.9-2.2-4.9-5 2.2-4.9 4.9-4.9 4.9 2.2 4.9 4.9zM336.2 190c0 2.7-2.2 5-4.9 5s-4.9-2.2-4.9-5 2.2-4.9 4.9-4.9c2.6-.1 4.9 2.2 4.9 4.9zM334.6 203.9l7.6-.1M579.3 415.8c0 2.7-2.2 5-4.9 5s-4.9-2.2-4.9-5c0-2.7 2.2-4.9 4.9-4.9s4.9 2.2 4.9 4.9zM591.9 405.1c0 2.7-2.2 5-4.9 5s-4.9-2.2-4.9-5c0-2.7 2.2-4.9 4.9-4.9 2.6 0 4.9 2.2 4.9 4.9zM573.6 387.9c0 2.7-2.2 5-4.9 5s-4.9-2.2-4.9-5c0-2.7 2.2-4.9 4.9-4.9s4.9 2.2 4.9 4.9zM379.8 206.7c0 2.7-2.2 5-4.9 5s-4.9-2.2-4.9-5 2.2-4.9 4.9-4.9c2.7-.1 4.9 2.1 4.9 4.9zM498 301.8c0 2.7-2.2 5-4.9 5s-4.9-2.2-4.9-5c0-2.7 2.2-4.9 4.9-4.9s4.9 2.2 4.9 4.9zM438 242c0 2.7-2.2 5-4.9 5s-4.9-2.2-4.9-5 2.2-4.9 4.9-4.9 4.9 2.2 4.9 4.9zM574.7 329c0 2.7-2.2 5-4.9 5s-4.9-2.2-4.9-5c0-2.7 2.2-4.9 4.9-4.9 2.7-.1 4.9 2.1 4.9 4.9zM585.1 310.8c0 2.7-2.2 5-4.9 5s-4.9-2.2-4.9-5c0-2.7 2.2-4.9 4.9-4.9 2.7-.1 4.9 2.1 4.9 4.9zM327.7 162.2c0 2.7-2.2 5-4.9 5s-4.9-2.2-4.9-5c0-2.7 2.2-4.9 4.9-4.9 2.7-.1 4.9 2.1 4.9 4.9zM323.8 148.3c0 2.7-2.2 5-4.9 5s-4.9-2.2-4.9-5 2.2-4.9 4.9-4.9 4.9 2.2 4.9 4.9zM579.5 139.9c0 2.7-2.2 5-4.9 5s-4.9-2.2-4.9-5 2.2-4.9 4.9-4.9c2.6 0 4.9 2.2 4.9 4.9zM513.8 132c0 2.7-2.2 5-4.9 5s-4.9-2.2-4.9-5 2.2-4.9 4.9-4.9 4.9 2.2 4.9 4.9zM434.8 103.9c0 2.7-2.2 5-4.9 5s-4.9-2.2-4.9-5 2.2-4.9 4.9-4.9c2.6 0 4.9 2.2 4.9 4.9zM501.8 69.4c0 2.7-2.2 5-4.9 5s-4.9-2.2-4.9-5 2.2-4.9 4.9-4.9c2.7-.1 4.9 2.1 4.9 4.9z"/>
  <path id="svg-concept" class="dmanage4" d="M276.4 184.6c0 3.4-2.8 6.2-6.2 6.2-3.4 0-6.2-2.8-6.2-6.2s2.8-6.2 6.2-6.2c3.5.1 6.2 2.8 6.2 6.2z"/>
  <g>
    <path id="svg-concept" d="M167.7 317.7h387.2c8.2 0 14.9 6.7 14.9 14.9v239.7c0 8.2-6.7 14.9-14.9 14.9H167.7c-8.2 0-14.9-6.7-14.9-14.9V332.5c.1-8.2 6.7-14.8 14.9-14.8z" fill="#fff" stroke="#ee5586" stroke-width="2" stroke-linecap="round" stroke-linejoin="round" stroke-miterlimit="10"/>
    <path id="svg-concept" class="dmanage6" d="M202.4 442.7h59.2"/>
    <path class="dmanage0" d="M445.6 442.7h59.2M324 442.7h59.2M202.4 479.6h59.2"/>
    <path id="svg-concept" class="dmanage6" d="M445.6 479.6h59.2"/>
    <path class="dmanage0" d="M324 479.6h59.2M202.4 516.4h59.2M445.6 516.4h59.2"/>
    <path id="svg-concept" class="dmanage6" d="M324 516.4h59.2"/>
    <path class="dmanage0" d="M202.4 553.3h59.2M445.6 553.3h59.2M324 553.3h59.2M472.2 398.2H235c-1.6 0-3-1.4-3-3v-17.6c0-1.6 1.4-3 3-3h237.2c1.6 0 3 1.4 3 3v17.6c0 1.7-1.3 3-3 3z"/>
    <path id="svg-concept" class="dmanage4" d="M196.2 335c0 1.8-1.4 3.2-3.2 3.2-1.8 0-3.2-1.4-3.2-3.2s1.4-3.2 3.2-3.2c1.8-.1 3.2 1.4 3.2 3.2z"/>
    <path class="dmanage0" d="M211.6 335c0 1.8-1.4 3.2-3.2 3.2-1.8 0-3.2-1.4-3.2-3.2s1.4-3.2 3.2-3.2c1.7-.1 3.2 1.4 3.2 3.2zM226.9 335c0 1.8-1.4 3.2-3.2 3.2-1.8 0-3.2-1.4-3.2-3.2s1.4-3.2 3.2-3.2c1.8-.1 3.2 1.4 3.2 3.2zM152.9 349.8h416.9"/>
  </g>
  <g>
    <path id="svg-concept" class="dmanage7" d="M328.5 442.7c0 2.5-2 4.5-4.5 4.5s-4.5-2-4.5-4.5 2-4.5 4.5-4.5c2.5.1 4.5 2.1 4.5 4.5z"/>
    <animateMotion path="M55, 0 0 0 0 0 55 0" begin="0s" dur="2s" repeatCount="indefinite"/>
  </g>
  <g>
    <path id="svg-concept" class="dmanage7" d="M206.9 516.4c0 2.5-2 4.5-4.5 4.5s-4.5-2-4.5-4.5 2-4.5 4.5-4.5 4.5 2 4.5 4.5z"/>
    <animateMotion path="M55, 0 0 0 0 0 55 0" begin="1s" dur="3s" repeatCount="indefinite"/>
  </g>
  <g>
    <path id="svg-concept" class="dmanage7" d="M509.3 553.2c0 2.5-2 4.5-4.5 4.5s-4.5-2-4.5-4.5 2-4.5 4.5-4.5c2.5.1 4.5 2.1 4.5 4.5z"/>
    <animateMotion path="M0, 0 -55 0 0 0 0 0" begin="2s" dur="2s" repeatCount="indefinite"/>
  </g>
</svg>
