<svg version="1.1" id="Layer_1" xmlns="http://www.w3.org/2000/svg" x="0" y="0" viewBox="0 0 1099.5 435.7" xml:space="preserve">
  <style>
    .eff0,.eff1{stroke-miterlimit:10}.eff0{fill:#fff;stroke:gray}.eff1{stroke-linecap:round}.eff1,.eff2,.eff4{fill:none;stroke:gray;stroke-linejoin:round}.eff2{stroke-miterlimit:10}.eff4{stroke-width:2;stroke-linecap:round}.eff4,.eff5,.eff6,.eff7{stroke-miterlimit:10}.eff5{fill:none;stroke-linecap:round;stroke-linejoin:round;stroke:#ee5586}.eff6,.eff7{stroke:gray}.eff6{stroke-width:2;fill:#fff}.eff7{fill:none}
  </style>
  <path class="eff0" d="M227.4 284.9H112.7V82.4h114.8v202.5z"/>
  <path class="eff1" d="M217.4 105.8c0 1.5-1.1 2.8-2.5 2.8h-90.1c-1.4 0-2.5-1.2-2.5-2.8V96c0-1.5 1.1-2.8 2.5-2.8h90.1c1.4 0 2.5 1.2 2.5 2.8v9.8zM127.5 93.2v15.4M212.2 93.2v15.4"/>
  <path class="eff1" d="M205.4 100.9c0 1.8-1.5 3.3-3.3 3.3-1.8 0-3.3-1.5-3.3-3.3 0-1.8 1.5-3.3 3.3-3.3 1.8 0 3.3 1.5 3.3 3.3z"/>
  <path class="eff1" d="M203.3 100.9c0 .7-.5 1.2-1.2 1.2s-1.2-.5-1.2-1.2.5-1.2 1.2-1.2 1.2.5 1.2 1.2zM205.4 100.9h-2.1M200.9 100.9h-2.1M217.4 126.3c0 1.5-1.1 2.8-2.5 2.8h-90.1c-1.4 0-2.5-1.2-2.5-2.8v-9.9c0-1.5 1.1-2.8 2.5-2.8h90.1c1.4 0 2.5 1.2 2.5 2.8v9.9zM127.5 113.7v15.4M212.2 113.7v15.4"/>
  <path class="eff1" d="M205.4 121.4c0 1.8-1.5 3.3-3.3 3.3-1.8 0-3.3-1.5-3.3-3.3 0-1.8 1.5-3.3 3.3-3.3 1.8 0 3.3 1.5 3.3 3.3z"/>
  <path class="eff1" d="M203.3 121.4c0 .7-.5 1.2-1.2 1.2s-1.2-.5-1.2-1.2.5-1.2 1.2-1.2 1.2.5 1.2 1.2zM205.4 121.4h-2.1M200.9 121.4h-2.1M217.4 146.9c0 1.5-1.1 2.8-2.5 2.8h-90.1c-1.4 0-2.5-1.2-2.5-2.8V137c0-1.5 1.1-2.8 2.5-2.8h90.1c1.4 0 2.5 1.2 2.5 2.8v9.9zM127.5 134.2v15.4M212.2 134.2v15.4"/>
  <path class="eff1" d="M205.4 141.9c0 1.8-1.5 3.3-3.3 3.3-1.8 0-3.3-1.5-3.3-3.3s1.5-3.3 3.3-3.3c1.8 0 3.3 1.5 3.3 3.3z"/>
  <path class="eff1" d="M203.3 141.9c0 .7-.5 1.2-1.2 1.2s-1.2-.5-1.2-1.2.5-1.2 1.2-1.2 1.2.5 1.2 1.2zM205.4 141.9h-2.1M200.9 141.9h-2.1M217.4 167.4c0 1.5-1.1 2.8-2.5 2.8h-90.1c-1.4 0-2.5-1.2-2.5-2.8v-9.9c0-1.5 1.1-2.8 2.5-2.8h90.1c1.4 0 2.5 1.2 2.5 2.8v9.9zM127.5 154.7v15.4M212.2 154.7v15.5"/>
  <path class="eff1" d="M205.4 162.4c0 1.8-1.5 3.3-3.3 3.3-1.8 0-3.3-1.5-3.3-3.3 0-1.8 1.5-3.3 3.3-3.3 1.8 0 3.3 1.5 3.3 3.3z"/>
  <path class="eff1" d="M203.3 162.4c0 .7-.5 1.2-1.2 1.2s-1.2-.5-1.2-1.2.5-1.2 1.2-1.2 1.2.6 1.2 1.2zM205.4 162.4h-2.1M200.9 162.4h-2.1M217.4 187.9c0 1.5-1.1 2.8-2.5 2.8h-90.1c-1.4 0-2.5-1.2-2.5-2.8V178c0-1.5 1.1-2.8 2.5-2.8h90.1c1.4 0 2.5 1.2 2.5 2.8v9.9zM127.5 175.2v15.4M212.2 175.2v15.5"/>
  <path class="eff1" d="M205.4 182.9c0 1.8-1.5 3.3-3.3 3.3-1.8 0-3.3-1.5-3.3-3.3 0-1.8 1.5-3.3 3.3-3.3 1.8.1 3.3 1.5 3.3 3.3z"/>
  <path class="eff1" d="M203.3 183c0 .7-.5 1.2-1.2 1.2s-1.2-.5-1.2-1.2.5-1.2 1.2-1.2c.7-.1 1.2.5 1.2 1.2zM205.4 183h-2.1M200.9 183h-2.1M217.4 208.4c0 1.5-1.1 2.8-2.5 2.8h-90.1c-1.4 0-2.5-1.2-2.5-2.8v-9.9c0-1.5 1.1-2.8 2.5-2.8h90.1c1.4 0 2.5 1.2 2.5 2.8v9.9zM127.5 195.7v15.4M212.2 195.7v15.5"/>
  <path class="eff1" d="M205.4 203.5c0 1.8-1.5 3.3-3.3 3.3-1.8 0-3.3-1.5-3.3-3.3s1.5-3.3 3.3-3.3c1.8 0 3.3 1.4 3.3 3.3z"/>
  <path class="eff1" d="M203.3 203.5c0 .7-.5 1.2-1.2 1.2s-1.2-.5-1.2-1.2.5-1.2 1.2-1.2c.7-.1 1.2.5 1.2 1.2zM205.4 203.5h-2.1M200.9 203.5h-2.1M217.4 228.9c0 1.5-1.1 2.8-2.5 2.8h-90.1c-1.4 0-2.5-1.2-2.5-2.8V219c0-1.5 1.1-2.8 2.5-2.8h90.1c1.4 0 2.5 1.2 2.5 2.8v9.9zM127.5 216.3v15.3M212.2 216.3v15.4"/>
  <path class="eff1" d="M205.4 224c0 1.8-1.5 3.3-3.3 3.3-1.8 0-3.3-1.5-3.3-3.3s1.5-3.3 3.3-3.3c1.8 0 3.3 1.4 3.3 3.3z"/>
  <path class="eff1" d="M203.3 224c0 .7-.5 1.2-1.2 1.2s-1.2-.5-1.2-1.2.5-1.2 1.2-1.2 1.2.5 1.2 1.2zM205.4 224h-2.1M200.9 224h-2.1M217.4 249.4c0 1.5-1.1 2.8-2.5 2.8h-90.1c-1.4 0-2.5-1.2-2.5-2.8v-9.9c0-1.5 1.1-2.8 2.5-2.8h90.1c1.4 0 2.5 1.2 2.5 2.8v9.9zM127.5 236.8v15.3M212.2 236.8v15.4"/>
  <path class="eff1" d="M205.4 244.5c0 1.8-1.5 3.3-3.3 3.3-1.8 0-3.3-1.5-3.3-3.3 0-1.8 1.5-3.3 3.3-3.3 1.8 0 3.3 1.5 3.3 3.3z"/>
  <path class="eff1" d="M203.3 244.5c0 .7-.5 1.2-1.2 1.2s-1.2-.5-1.2-1.2.5-1.2 1.2-1.2 1.2.5 1.2 1.2zM205.4 244.5h-2.1M200.9 244.5h-2.1M217.4 269.9c0 1.5-1.1 2.8-2.5 2.8h-90.1c-1.4 0-2.5-1.2-2.5-2.8V260c0-1.5 1.1-2.8 2.5-2.8h90.1c1.4 0 2.5 1.2 2.5 2.8v9.9zM127.5 257.3v15.4M212.2 257.3v15.4"/>
  <path class="eff1" d="M205.4 265c0 1.8-1.5 3.3-3.3 3.3-1.8 0-3.3-1.5-3.3-3.3 0-1.8 1.5-3.3 3.3-3.3 1.8 0 3.3 1.5 3.3 3.3z"/>
  <path class="eff1" d="M203.3 265c0 .7-.5 1.2-1.2 1.2s-1.2-.5-1.2-1.2.5-1.2 1.2-1.2 1.2.5 1.2 1.2zM205.4 265h-2.1M200.9 265h-2.1"/>
  <path class="eff2" d="M1032.1 353.7H756.9M1057.5 322H862.8"/>
  <path id="svg-concept" d="M662.1 424.9H426.8V9.7h235.3v415.2z" fill="#fff" stroke="#ee5586" stroke-width="3" stroke-linecap="round" stroke-linejoin="round" stroke-miterlimit="10"/>
  <path class="eff2" d="M942.9 388.5h-186M293.3 388.5H140.8M329 388.5h-14.7M1077.5 322h19M1049 353.7h20.1M1084.9 353.7h7.4M55.8 353.8H329M30.4 322.1h197M22 322.1H3M50.5 353.8H30.4"/>
  <g>
    <path id="svg-concept" class="eff5" d="M497.1 45.3h-.1c-.7 0-1.2-.5-1.2-1.2V44c0-.7.5-1.2 1.2-1.2h.1c.7 0 1.2.5 1.2 1.2v.1c.1.7-.5 1.2-1.2 1.2zM493.7 55h-.2c-.9 0-1.7-.8-1.7-1.7v-.2c0-.9.8-1.7 1.7-1.7h.2c.9 0 1.7.8 1.7 1.7v.2c0 .9-.8 1.7-1.7 1.7zM541.2 45.3h-.1c-.7 0-1.2-.5-1.2-1.2V44c0-.7.5-1.2 1.2-1.2h.1c.7 0 1.2.5 1.2 1.2v.1c.1.7-.5 1.2-1.2 1.2zM537.8 55h-.2c-.9 0-1.7-.8-1.7-1.7v-.2c0-.9.8-1.7 1.7-1.7h.2c.9 0 1.7.8 1.7 1.7v.2c0 .9-.8 1.7-1.7 1.7zM585.3 45.3h-.1c-.7 0-1.2-.5-1.2-1.2V44c0-.7.5-1.2 1.2-1.2h.1c.7 0 1.2.5 1.2 1.2v.1c.1.7-.5 1.2-1.2 1.2zM581.9 55h-.2c-.9 0-1.7-.8-1.7-1.7v-.2c0-.9.8-1.7 1.7-1.7h.2c.9 0 1.7.8 1.7 1.7v.2c0 .9-.8 1.7-1.7 1.7zM616.9 47.6c0 3.7-3 6.8-6.8 6.8-3.7 0-6.8-3-6.8-6.8s3-6.8 6.8-6.8c3.8.1 6.8 3.1 6.8 6.8z"/>
    <path id="svg-concept" class="eff5" d="M612.7 47.6c0 1.4-1.1 2.5-2.5 2.5s-2.5-1.1-2.5-2.5 1.1-2.5 2.5-2.5 2.5 1.1 2.5 2.5zM616.9 47.6h-4.2M607.7 47.6h-4.3"/>
    <path class="eff4" d="M641.5 57.7c0 3.2-2.3 5.7-5.2 5.7H451.5c-2.9 0-5.2-2.6-5.2-5.7V37.5c0-3.2 2.3-5.7 5.2-5.7h184.8c2.9 0 5.2 2.6 5.2 5.7v20.2z"/>
    <path class="eff1" d="M457 31.8v31.5M630.8 31.8v31.7M494.4 57.4h-29.7c-2.2 0-4-1.8-4-4V53c0-2.2 1.8-4 4-4h29.7c2.2 0 4 1.8 4 4v.4c0 2.2-1.8 4-4 4zM465.1 45.3h-.1c-.7 0-1.2-.5-1.2-1.2V44c0-.7.5-1.2 1.2-1.2h.1c.7 0 1.2.5 1.2 1.2v.1c0 .7-.5 1.2-1.2 1.2zM470.2 45.3h-.1c-.7 0-1.2-.5-1.2-1.2V44c0-.7.5-1.2 1.2-1.2h.1c.7 0 1.2.5 1.2 1.2v.1c.1.7-.5 1.2-1.2 1.2zM477.5 45.3h-.1c-.7 0-1.2-.5-1.2-1.2V44c0-.7.5-1.2 1.2-1.2h.1c.7 0 1.2.5 1.2 1.2v.1c0 .7-.5 1.2-1.2 1.2zM465.1 39.7h-.1c-.7 0-1.2-.5-1.2-1.2v-.1c0-.7.5-1.2 1.2-1.2h.1c.7 0 1.2.5 1.2 1.2v.1c0 .7-.5 1.2-1.2 1.2zM470.2 39.7h-.1c-.7 0-1.2-.5-1.2-1.2v-.1c0-.7.5-1.2 1.2-1.2h.1c.7 0 1.2.5 1.2 1.2v.1c.1.7-.5 1.2-1.2 1.2zM497.1 39.7h-.1c-.7 0-1.2-.5-1.2-1.2v-.1c0-.7.5-1.2 1.2-1.2h.1c.7 0 1.2.5 1.2 1.2v.1c0 .7-.6 1.2-1.2 1.2zM482.7 45.3h-.1c-.7 0-1.2-.5-1.2-1.2V44c0-.7.5-1.2 1.2-1.2h.1c.7 0 1.2.5 1.2 1.2v.1c0 .7-.5 1.2-1.2 1.2zM487.8 45.3h-.1c-.7 0-1.2-.5-1.2-1.2V44c0-.7.5-1.2 1.2-1.2h.1c.7 0 1.2.5 1.2 1.2v.1c0 .7-.6 1.2-1.2 1.2z"/>
    <path class="eff1" d="M487.8 45.3h-.1c-.7 0-1.2-.5-1.2-1.2V44c0-.7.5-1.2 1.2-1.2h.1c.7 0 1.2.5 1.2 1.2v.1c.1.7-.5 1.2-1.2 1.2zM487.8 39.7h-10c-.7 0-1.2-.5-1.2-1.2v-.1c0-.7.5-1.2 1.2-1.2h10c.7 0 1.2.5 1.2 1.2v.1c.1.7-.5 1.2-1.2 1.2zM473.9 49v8.4M487.2 55h-.2c-.9 0-1.7-.8-1.7-1.7v-.2c0-.9.8-1.7 1.7-1.7h.2c.9 0 1.7.8 1.7 1.7v.2c-.1.9-.8 1.7-1.7 1.7zM538.5 57.4h-29.7c-2.2 0-4-1.8-4-4V53c0-2.2 1.8-4 4-4h29.7c2.2 0 4 1.8 4 4v.4c0 2.2-1.8 4-4 4zM509.2 45.3h-.2c-.7 0-1.2-.5-1.2-1.2V44c0-.7.5-1.2 1.2-1.2h.1c.7 0 1.2.5 1.2 1.2v.1c.1.7-.5 1.2-1.1 1.2zM514.3 45.3h-.1c-.7 0-1.2-.5-1.2-1.2V44c0-.7.5-1.2 1.2-1.2h.1c.7 0 1.2.5 1.2 1.2v.1c.1.7-.5 1.2-1.2 1.2zM521.6 45.3h-.1c-.7 0-1.2-.5-1.2-1.2V44c0-.7.5-1.2 1.2-1.2h.1c.7 0 1.2.5 1.2 1.2v.1c0 .7-.5 1.2-1.2 1.2zM509.2 39.7h-.2c-.7 0-1.2-.5-1.2-1.2v-.1c0-.7.5-1.2 1.2-1.2h.1c.7 0 1.2.5 1.2 1.2v.1c.1.7-.5 1.2-1.1 1.2zM514.3 39.7h-.1c-.7 0-1.2-.5-1.2-1.2v-.1c0-.7.5-1.2 1.2-1.2h.1c.7 0 1.2.5 1.2 1.2v.1c.1.7-.5 1.2-1.2 1.2zM541.2 39.7h-.2c-.7 0-1.2-.5-1.2-1.2v-.1c0-.7.5-1.2 1.2-1.2h.1c.7 0 1.2.5 1.2 1.2v.1c.1.7-.5 1.2-1.1 1.2zM526.8 45.3h-.1c-.7 0-1.2-.5-1.2-1.2V44c0-.7.5-1.2 1.2-1.2h.1c.7 0 1.2.5 1.2 1.2v.1c0 .7-.6 1.2-1.2 1.2zM531.9 45.3h-.1c-.7 0-1.2-.5-1.2-1.2V44c0-.7.5-1.2 1.2-1.2h.1c.7 0 1.2.5 1.2 1.2v.1c0 .7-.6 1.2-1.2 1.2z"/>
    <path class="eff1" d="M531.9 45.3h-.1c-.7 0-1.2-.5-1.2-1.2V44c0-.7.5-1.2 1.2-1.2h.1c.7 0 1.2.5 1.2 1.2v.1c.1.7-.5 1.2-1.2 1.2zM531.9 39.7h-10c-.7 0-1.2-.5-1.2-1.2v-.1c0-.7.5-1.2 1.2-1.2h10c.7 0 1.2.5 1.2 1.2v.1c.1.7-.5 1.2-1.2 1.2zM518 49v8.4M531.3 55h-.2c-.9 0-1.7-.8-1.7-1.7v-.2c0-.9.8-1.7 1.7-1.7h.2c.9 0 1.7.8 1.7 1.7v.2c-.1.9-.8 1.7-1.7 1.7zM582.6 57.4h-29.7c-2.2 0-4-1.8-4-4V53c0-2.2 1.8-4 4-4h29.7c2.2 0 4 1.8 4 4v.4c0 2.2-1.8 4-4 4zM553.3 45.3h-.1c-.7 0-1.2-.5-1.2-1.2V44c0-.7.5-1.2 1.2-1.2h.1c.7 0 1.2.5 1.2 1.2v.1c0 .7-.6 1.2-1.2 1.2zM558.4 45.3h-.1c-.7 0-1.2-.5-1.2-1.2V44c0-.7.5-1.2 1.2-1.2h.1c.7 0 1.2.5 1.2 1.2v.1c.1.7-.5 1.2-1.2 1.2zM565.7 45.3h-.1c-.7 0-1.2-.5-1.2-1.2V44c0-.7.5-1.2 1.2-1.2h.1c.7 0 1.2.5 1.2 1.2v.1c0 .7-.5 1.2-1.2 1.2zM553.3 39.7h-.1c-.7 0-1.2-.5-1.2-1.2v-.1c0-.7.5-1.2 1.2-1.2h.1c.7 0 1.2.5 1.2 1.2v.1c0 .7-.6 1.2-1.2 1.2zM558.4 39.7h-.1c-.7 0-1.2-.5-1.2-1.2v-.1c0-.7.5-1.2 1.2-1.2h.1c.7 0 1.2.5 1.2 1.2v.1c.1.7-.5 1.2-1.2 1.2zM585.3 39.7h-.1c-.7 0-1.2-.5-1.2-1.2v-.1c0-.7.5-1.2 1.2-1.2h.1c.7 0 1.2.5 1.2 1.2v.1c0 .7-.6 1.2-1.2 1.2zM570.9 45.3h-.1c-.7 0-1.2-.5-1.2-1.2V44c0-.7.5-1.2 1.2-1.2h.1c.7 0 1.2.5 1.2 1.2v.1c0 .7-.6 1.2-1.2 1.2zM576 45.3h-.1c-.7 0-1.2-.5-1.2-1.2V44c0-.7.5-1.2 1.2-1.2h.1c.7 0 1.2.5 1.2 1.2v.1c0 .7-.6 1.2-1.2 1.2z"/>
    <path class="eff1" d="M576 45.3h-.1c-.7 0-1.2-.5-1.2-1.2V44c0-.7.5-1.2 1.2-1.2h.1c.7 0 1.2.5 1.2 1.2v.1c.1.7-.5 1.2-1.2 1.2z"/>
    <path id="svg-concept" class="eff5" d="M626.4 53.6c0 1.1-.9 2-2 2s-2-.9-2-2 .9-2 2-2 2 .9 2 2z"/>
    <path class="eff1" d="M624.5 48h-.1c-.7 0-1.2-.5-1.2-1.2v-.1c0-.7.5-1.2 1.2-1.2h.1c.7 0 1.2.5 1.2 1.2v.1c0 .6-.6 1.2-1.2 1.2zM624.5 42.3h-.1c-.7 0-1.2-.5-1.2-1.2V41c0-.7.5-1.2 1.2-1.2h.1c.7 0 1.2.5 1.2 1.2s-.6 1.3-1.2 1.3zM576 39.7h-10c-.7 0-1.2-.5-1.2-1.2v-.1c0-.7.5-1.2 1.2-1.2h10c.7 0 1.2.5 1.2 1.2v.1c.1.7-.5 1.2-1.2 1.2zM562.1 49v8.4M575.4 55h-.2c-.9 0-1.7-.8-1.7-1.7v-.2c0-.9.8-1.7 1.7-1.7h.2c.9 0 1.7.8 1.7 1.7v.2c-.1.9-.8 1.7-1.7 1.7zM502 31.8v31.7M452.4 42.4v9.4M635.5 42.4v9.4M545.8 31.8v31.7M589.6 31.8v31.7"/>
    <animate attributeName="opacity" values="0;1" begin="0s" dur="2s" fill="freeze"/>
    <animateMotion path="M20, 0 0 0 0" begin="0s" dur="2s" fill="freeze"/>
  </g>
  <g>
    <path id="svg-concept" class="eff5" d="M497.1 87.4h-.1c-.7 0-1.2-.5-1.2-1.2V86c0-.7.5-1.2 1.2-1.2h.1c.7 0 1.2.5 1.2 1.2v.1c.1.7-.5 1.3-1.2 1.3zM493.7 97h-.2c-.9 0-1.7-.8-1.7-1.7v-.2c0-.9.8-1.7 1.7-1.7h.2c.9 0 1.7.8 1.7 1.7v.2c0 1-.8 1.7-1.7 1.7zM541.2 87.4h-.1c-.7 0-1.2-.5-1.2-1.2V86c0-.7.5-1.2 1.2-1.2h.1c.7 0 1.2.5 1.2 1.2v.1c.1.7-.5 1.3-1.2 1.3zM537.8 97h-.2c-.9 0-1.7-.8-1.7-1.7v-.2c0-.9.8-1.7 1.7-1.7h.2c.9 0 1.7.8 1.7 1.7v.2c0 1-.8 1.7-1.7 1.7zM585.3 87.4h-.1c-.7 0-1.2-.5-1.2-1.2V86c0-.7.5-1.2 1.2-1.2h.1c.7 0 1.2.5 1.2 1.2v.1c.1.7-.5 1.3-1.2 1.3zM581.9 97h-.2c-.9 0-1.7-.8-1.7-1.7v-.2c0-.9.8-1.7 1.7-1.7h.2c.9 0 1.7.8 1.7 1.7v.2c0 1-.8 1.7-1.7 1.7zM616.9 89.7c0 3.7-3 6.8-6.8 6.8-3.7 0-6.8-3-6.8-6.8s3-6.8 6.8-6.8 6.8 3 6.8 6.8z"/>
    <path id="svg-concept" class="eff5" d="M612.7 89.7c0 1.4-1.1 2.5-2.5 2.5s-2.5-1.1-2.5-2.5 1.1-2.5 2.5-2.5 2.5 1.1 2.5 2.5zM616.9 89.7h-4.2M607.7 89.7h-4.3"/>
    <path class="eff4" d="M641.5 99.8c0 3.2-2.3 5.7-5.2 5.7H451.5c-2.9 0-5.2-2.6-5.2-5.7V79.6c0-3.2 2.3-5.7 5.2-5.7h184.8c2.9 0 5.2 2.6 5.2 5.7v20.2z"/>
    <path class="eff1" d="M457 73.9v31.5M630.8 73.9v31.6M494.4 99.5h-29.7c-2.2 0-4-1.8-4-4v-.4c0-2.2 1.8-4 4-4h29.7c2.2 0 4 1.8 4 4v.4c0 2.2-1.8 4-4 4zM465.1 87.4h-.1c-.7 0-1.2-.5-1.2-1.2V86c0-.7.5-1.2 1.2-1.2h.1c.7 0 1.2.5 1.2 1.2v.1c0 .7-.5 1.3-1.2 1.3zM470.2 87.4h-.1c-.7 0-1.2-.5-1.2-1.2V86c0-.7.5-1.2 1.2-1.2h.1c.7 0 1.2.5 1.2 1.2v.1c.1.7-.5 1.3-1.2 1.3zM477.5 87.4h-.1c-.7 0-1.2-.5-1.2-1.2V86c0-.7.5-1.2 1.2-1.2h.1c.7 0 1.2.5 1.2 1.2v.1c0 .7-.5 1.3-1.2 1.3zM465.1 81.8h-.1c-.7 0-1.2-.5-1.2-1.2v-.1c0-.7.5-1.2 1.2-1.2h.1c.7 0 1.2.5 1.2 1.2v.1c0 .6-.5 1.2-1.2 1.2zM470.2 81.8h-.1c-.7 0-1.2-.5-1.2-1.2v-.1c0-.7.5-1.2 1.2-1.2h.1c.7 0 1.2.5 1.2 1.2v.1c.1.6-.5 1.2-1.2 1.2zM497.1 81.8h-.1c-.7 0-1.2-.5-1.2-1.2v-.1c0-.7.5-1.2 1.2-1.2h.1c.7 0 1.2.5 1.2 1.2v.1c0 .6-.6 1.2-1.2 1.2zM482.7 87.4h-.1c-.7 0-1.2-.5-1.2-1.2V86c0-.7.5-1.2 1.2-1.2h.1c.7 0 1.2.5 1.2 1.2v.1c0 .7-.5 1.3-1.2 1.3zM487.8 87.4h-.1c-.7 0-1.2-.5-1.2-1.2V86c0-.7.5-1.2 1.2-1.2h.1c.7 0 1.2.5 1.2 1.2v.1c0 .7-.6 1.3-1.2 1.3z"/>
    <path class="eff1" d="M487.8 87.4h-.1c-.7 0-1.2-.5-1.2-1.2V86c0-.7.5-1.2 1.2-1.2h.1c.7 0 1.2.5 1.2 1.2v.1c.1.7-.5 1.3-1.2 1.3zM487.8 81.8h-10c-.7 0-1.2-.5-1.2-1.2v-.1c0-.7.5-1.2 1.2-1.2h10c.7 0 1.2.5 1.2 1.2v.1c.1.6-.5 1.2-1.2 1.2zM473.9 91.1v8.4M487.2 97h-.2c-.9 0-1.7-.8-1.7-1.7v-.2c0-.9.8-1.7 1.7-1.7h.2c.9 0 1.7.8 1.7 1.7v.2c-.1 1-.8 1.7-1.7 1.7zM538.5 99.5h-29.7c-2.2 0-4-1.8-4-4v-.4c0-2.2 1.8-4 4-4h29.7c2.2 0 4 1.8 4 4v.4c0 2.2-1.8 4-4 4zM509.2 87.4h-.2c-.7 0-1.2-.5-1.2-1.2V86c0-.7.5-1.2 1.2-1.2h.1c.7 0 1.2.5 1.2 1.2v.1c.1.7-.5 1.3-1.1 1.3zM514.3 87.4h-.1c-.7 0-1.2-.5-1.2-1.2V86c0-.7.5-1.2 1.2-1.2h.1c.7 0 1.2.5 1.2 1.2v.1c.1.7-.5 1.3-1.2 1.3zM521.6 87.4h-.1c-.7 0-1.2-.5-1.2-1.2V86c0-.7.5-1.2 1.2-1.2h.1c.7 0 1.2.5 1.2 1.2v.1c0 .7-.5 1.3-1.2 1.3zM509.2 81.8h-.2c-.7 0-1.2-.5-1.2-1.2v-.1c0-.7.5-1.2 1.2-1.2h.1c.7 0 1.2.5 1.2 1.2v.1c.1.6-.5 1.2-1.1 1.2zM514.3 81.8h-.1c-.7 0-1.2-.5-1.2-1.2v-.1c0-.7.5-1.2 1.2-1.2h.1c.7 0 1.2.5 1.2 1.2v.1c.1.6-.5 1.2-1.2 1.2zM541.2 81.8h-.2c-.7 0-1.2-.5-1.2-1.2v-.1c0-.7.5-1.2 1.2-1.2h.1c.7 0 1.2.5 1.2 1.2v.1c.1.6-.5 1.2-1.1 1.2zM526.8 87.4h-.1c-.7 0-1.2-.5-1.2-1.2V86c0-.7.5-1.2 1.2-1.2h.1c.7 0 1.2.5 1.2 1.2v.1c0 .7-.6 1.3-1.2 1.3zM531.9 87.4h-.1c-.7 0-1.2-.5-1.2-1.2V86c0-.7.5-1.2 1.2-1.2h.1c.7 0 1.2.5 1.2 1.2v.1c0 .7-.6 1.3-1.2 1.3z"/>
    <path class="eff1" d="M531.9 87.4h-.1c-.7 0-1.2-.5-1.2-1.2V86c0-.7.5-1.2 1.2-1.2h.1c.7 0 1.2.5 1.2 1.2v.1c.1.7-.5 1.3-1.2 1.3zM531.9 81.8h-10c-.7 0-1.2-.5-1.2-1.2v-.1c0-.7.5-1.2 1.2-1.2h10c.7 0 1.2.5 1.2 1.2v.1c.1.6-.5 1.2-1.2 1.2zM518 91.1v8.4M531.3 97h-.2c-.9 0-1.7-.8-1.7-1.7v-.2c0-.9.8-1.7 1.7-1.7h.2c.9 0 1.7.8 1.7 1.7v.2c-.1 1-.8 1.7-1.7 1.7zM582.6 99.5h-29.7c-2.2 0-4-1.8-4-4v-.4c0-2.2 1.8-4 4-4h29.7c2.2 0 4 1.8 4 4v.4c0 2.2-1.8 4-4 4zM553.3 87.4h-.1c-.7 0-1.2-.5-1.2-1.2V86c0-.7.5-1.2 1.2-1.2h.1c.7 0 1.2.5 1.2 1.2v.1c0 .7-.6 1.3-1.2 1.3zM558.4 87.4h-.1c-.7 0-1.2-.5-1.2-1.2V86c0-.7.5-1.2 1.2-1.2h.1c.7 0 1.2.5 1.2 1.2v.1c.1.7-.5 1.3-1.2 1.3zM565.7 87.4h-.1c-.7 0-1.2-.5-1.2-1.2V86c0-.7.5-1.2 1.2-1.2h.1c.7 0 1.2.5 1.2 1.2v.1c0 .7-.5 1.3-1.2 1.3zM553.3 81.8h-.1c-.7 0-1.2-.5-1.2-1.2v-.1c0-.7.5-1.2 1.2-1.2h.1c.7 0 1.2.5 1.2 1.2v.1c0 .6-.6 1.2-1.2 1.2zM558.4 81.8h-.1c-.7 0-1.2-.5-1.2-1.2v-.1c0-.7.5-1.2 1.2-1.2h.1c.7 0 1.2.5 1.2 1.2v.1c.1.6-.5 1.2-1.2 1.2zM585.3 81.8h-.1c-.7 0-1.2-.5-1.2-1.2v-.1c0-.7.5-1.2 1.2-1.2h.1c.7 0 1.2.5 1.2 1.2v.1c0 .6-.6 1.2-1.2 1.2zM570.9 87.4h-.1c-.7 0-1.2-.5-1.2-1.2V86c0-.7.5-1.2 1.2-1.2h.1c.7 0 1.2.5 1.2 1.2v.1c0 .7-.6 1.3-1.2 1.3zM576 87.4h-.1c-.7 0-1.2-.5-1.2-1.2V86c0-.7.5-1.2 1.2-1.2h.1c.7 0 1.2.5 1.2 1.2v.1c0 .7-.6 1.3-1.2 1.3z"/>
    <path class="eff1" d="M576 87.4h-.1c-.7 0-1.2-.5-1.2-1.2V86c0-.7.5-1.2 1.2-1.2h.1c.7 0 1.2.5 1.2 1.2v.1c.1.7-.5 1.3-1.2 1.3z"/>
    <path id="svg-concept" class="eff5" d="M626.4 95.7c0 1.1-.9 2-2 2s-2-.9-2-2 .9-2 2-2 2 .9 2 2z"/>
    <path class="eff1" d="M624.5 90h-.1c-.7 0-1.2-.5-1.2-1.2v-.1c0-.7.5-1.2 1.2-1.2h.1c.7 0 1.2.5 1.2 1.2v.1c0 .7-.6 1.2-1.2 1.2zM624.5 84.3h-.1c-.7 0-1.2-.5-1.2-1.2V83c0-.7.5-1.2 1.2-1.2h.1c.7 0 1.2.5 1.2 1.2v.1c0 .7-.6 1.2-1.2 1.2zM576 81.8h-10c-.7 0-1.2-.5-1.2-1.2v-.1c0-.7.5-1.2 1.2-1.2h10c.7 0 1.2.5 1.2 1.2v.1c.1.6-.5 1.2-1.2 1.2zM562.1 91.1v8.4M575.4 97h-.2c-.9 0-1.7-.8-1.7-1.7v-.2c0-.9.8-1.7 1.7-1.7h.2c.9 0 1.7.8 1.7 1.7v.2c-.1 1-.8 1.7-1.7 1.7zM502 73.9v31.6M452.4 84.5v9.4M635.5 84.5v9.4M545.8 73.9v31.6M589.6 73.9v31.6"/>
    <animate attributeName="opacity" values="0" begin="0s" repeatCount="indefinite"/>
    <animate attributeName="opacity" values="0;1" begin="0.5s" dur="2s" fill="freeze"/>
    <animateMotion path="M-20, 0 0 0 0" begin="0.5s" dur="2s" fill="freeze"/>
  </g>
  <g>
    <path id="svg-concept" class="eff5" d="M497.1 129.4h-.1c-.7 0-1.2-.5-1.2-1.2v-.1c0-.7.5-1.2 1.2-1.2h.1c.7 0 1.2.5 1.2 1.2v.1c.1.7-.5 1.2-1.2 1.2zM493.7 139.1h-.2c-.9 0-1.7-.8-1.7-1.7v-.2c0-.9.8-1.7 1.7-1.7h.2c.9 0 1.7.8 1.7 1.7v.2c0 .9-.8 1.7-1.7 1.7zM541.2 129.4h-.1c-.7 0-1.2-.5-1.2-1.2v-.1c0-.7.5-1.2 1.2-1.2h.1c.7 0 1.2.5 1.2 1.2v.1c.1.7-.5 1.2-1.2 1.2zM537.8 139.1h-.2c-.9 0-1.7-.8-1.7-1.7v-.2c0-.9.8-1.7 1.7-1.7h.2c.9 0 1.7.8 1.7 1.7v.2c0 .9-.8 1.7-1.7 1.7zM585.3 129.4h-.1c-.7 0-1.2-.5-1.2-1.2v-.1c0-.7.5-1.2 1.2-1.2h.1c.7 0 1.2.5 1.2 1.2v.1c.1.7-.5 1.2-1.2 1.2zM581.9 139.1h-.2c-.9 0-1.7-.8-1.7-1.7v-.2c0-.9.8-1.7 1.7-1.7h.2c.9 0 1.7.8 1.7 1.7v.2c0 .9-.8 1.7-1.7 1.7zM616.9 131.7c0 3.7-3 6.8-6.8 6.8-3.7 0-6.8-3-6.8-6.8 0-3.7 3-6.8 6.8-6.8 3.8.1 6.8 3.1 6.8 6.8z"/>
    <path id="svg-concept" class="eff5" d="M612.7 131.8c0 1.4-1.1 2.5-2.5 2.5s-2.5-1.1-2.5-2.5 1.1-2.5 2.5-2.5c1.4-.1 2.5 1.1 2.5 2.5zM616.9 131.8h-4.2M607.7 131.8h-4.3"/>
    <path class="eff4" d="M641.5 141.9c0 3.2-2.3 5.7-5.2 5.7H451.5c-2.9 0-5.2-2.6-5.2-5.7v-20.2c0-3.2 2.3-5.7 5.2-5.7h184.8c2.9 0 5.2 2.6 5.2 5.7v20.2z"/>
    <path class="eff1" d="M457 115.9v31.6M630.8 115.9v31.7M494.4 141.6h-29.7c-2.2 0-4-1.8-4-4v-.4c0-2.2 1.8-4 4-4h29.7c2.2 0 4 1.8 4 4v.4c0 2.2-1.8 4-4 4zM465.1 129.4h-.1c-.7 0-1.2-.5-1.2-1.2v-.1c0-.7.5-1.2 1.2-1.2h.1c.7 0 1.2.5 1.2 1.2v.1c0 .7-.5 1.2-1.2 1.2zM470.2 129.4h-.1c-.7 0-1.2-.5-1.2-1.2v-.1c0-.7.5-1.2 1.2-1.2h.1c.7 0 1.2.5 1.2 1.2v.1c.1.7-.5 1.2-1.2 1.2zM477.5 129.4h-.1c-.7 0-1.2-.5-1.2-1.2v-.1c0-.7.5-1.2 1.2-1.2h.1c.7 0 1.2.5 1.2 1.2v.1c0 .7-.5 1.2-1.2 1.2zM465.1 123.8h-.1c-.7 0-1.2-.5-1.2-1.2v-.1c0-.7.5-1.2 1.2-1.2h.1c.7 0 1.2.5 1.2 1.2v.1c0 .7-.5 1.2-1.2 1.2zM470.2 123.8h-.1c-.7 0-1.2-.5-1.2-1.2v-.1c0-.7.5-1.2 1.2-1.2h.1c.7 0 1.2.5 1.2 1.2v.1c.1.7-.5 1.2-1.2 1.2zM497.1 123.8h-.1c-.7 0-1.2-.5-1.2-1.2v-.1c0-.7.5-1.2 1.2-1.2h.1c.7 0 1.2.5 1.2 1.2v.1c0 .7-.6 1.2-1.2 1.2zM482.7 129.4h-.1c-.7 0-1.2-.5-1.2-1.2v-.1c0-.7.5-1.2 1.2-1.2h.1c.7 0 1.2.5 1.2 1.2v.1c0 .7-.5 1.2-1.2 1.2zM487.8 129.4h-.1c-.7 0-1.2-.5-1.2-1.2v-.1c0-.7.5-1.2 1.2-1.2h.1c.7 0 1.2.5 1.2 1.2v.1c0 .7-.6 1.2-1.2 1.2z"/>
    <path class="eff1" d="M487.8 129.4h-.1c-.7 0-1.2-.5-1.2-1.2v-.1c0-.7.5-1.2 1.2-1.2h.1c.7 0 1.2.5 1.2 1.2v.1c.1.7-.5 1.2-1.2 1.2zM487.8 123.8h-10c-.7 0-1.2-.5-1.2-1.2v-.1c0-.7.5-1.2 1.2-1.2h10c.7 0 1.2.5 1.2 1.2v.1c.1.7-.5 1.2-1.2 1.2zM473.9 133.1v8.5M487.2 139.1h-.2c-.9 0-1.7-.8-1.7-1.7v-.2c0-.9.8-1.7 1.7-1.7h.2c.9 0 1.7.8 1.7 1.7v.2c-.1.9-.8 1.7-1.7 1.7zM538.5 141.6h-29.7c-2.2 0-4-1.8-4-4v-.4c0-2.2 1.8-4 4-4h29.7c2.2 0 4 1.8 4 4v.4c0 2.2-1.8 4-4 4zM509.2 129.4h-.2c-.7 0-1.2-.5-1.2-1.2v-.1c0-.7.5-1.2 1.2-1.2h.1c.7 0 1.2.5 1.2 1.2v.1c.1.7-.5 1.2-1.1 1.2zM514.3 129.4h-.1c-.7 0-1.2-.5-1.2-1.2v-.1c0-.7.5-1.2 1.2-1.2h.1c.7 0 1.2.5 1.2 1.2v.1c.1.7-.5 1.2-1.2 1.2zM521.6 129.4h-.1c-.7 0-1.2-.5-1.2-1.2v-.1c0-.7.5-1.2 1.2-1.2h.1c.7 0 1.2.5 1.2 1.2v.1c0 .7-.5 1.2-1.2 1.2zM509.2 123.8h-.2c-.7 0-1.2-.5-1.2-1.2v-.1c0-.7.5-1.2 1.2-1.2h.1c.7 0 1.2.5 1.2 1.2v.1c.1.7-.5 1.2-1.1 1.2zM514.3 123.8h-.1c-.7 0-1.2-.5-1.2-1.2v-.1c0-.7.5-1.2 1.2-1.2h.1c.7 0 1.2.5 1.2 1.2v.1c.1.7-.5 1.2-1.2 1.2zM541.2 123.8h-.2c-.7 0-1.2-.5-1.2-1.2v-.1c0-.7.5-1.2 1.2-1.2h.1c.7 0 1.2.5 1.2 1.2v.1c.1.7-.5 1.2-1.1 1.2zM526.8 129.4h-.1c-.7 0-1.2-.5-1.2-1.2v-.1c0-.7.5-1.2 1.2-1.2h.1c.7 0 1.2.5 1.2 1.2v.1c0 .7-.6 1.2-1.2 1.2zM531.9 129.4h-.1c-.7 0-1.2-.5-1.2-1.2v-.1c0-.7.5-1.2 1.2-1.2h.1c.7 0 1.2.5 1.2 1.2v.1c0 .7-.6 1.2-1.2 1.2z"/>
    <path class="eff1" d="M531.9 129.4h-.1c-.7 0-1.2-.5-1.2-1.2v-.1c0-.7.5-1.2 1.2-1.2h.1c.7 0 1.2.5 1.2 1.2v.1c.1.7-.5 1.2-1.2 1.2zM531.9 123.8h-10c-.7 0-1.2-.5-1.2-1.2v-.1c0-.7.5-1.2 1.2-1.2h10c.7 0 1.2.5 1.2 1.2v.1c.1.7-.5 1.2-1.2 1.2zM518 133.1v8.5M531.3 139.1h-.2c-.9 0-1.7-.8-1.7-1.7v-.2c0-.9.8-1.7 1.7-1.7h.2c.9 0 1.7.8 1.7 1.7v.2c-.1.9-.8 1.7-1.7 1.7zM582.6 141.6h-29.7c-2.2 0-4-1.8-4-4v-.4c0-2.2 1.8-4 4-4h29.7c2.2 0 4 1.8 4 4v.4c0 2.2-1.8 4-4 4zM553.3 129.4h-.1c-.7 0-1.2-.5-1.2-1.2v-.1c0-.7.5-1.2 1.2-1.2h.1c.7 0 1.2.5 1.2 1.2v.1c0 .7-.6 1.2-1.2 1.2zM558.4 129.4h-.1c-.7 0-1.2-.5-1.2-1.2v-.1c0-.7.5-1.2 1.2-1.2h.1c.7 0 1.2.5 1.2 1.2v.1c.1.7-.5 1.2-1.2 1.2zM565.7 129.4h-.1c-.7 0-1.2-.5-1.2-1.2v-.1c0-.7.5-1.2 1.2-1.2h.1c.7 0 1.2.5 1.2 1.2v.1c0 .7-.5 1.2-1.2 1.2zM553.3 123.8h-.1c-.7 0-1.2-.5-1.2-1.2v-.1c0-.7.5-1.2 1.2-1.2h.1c.7 0 1.2.5 1.2 1.2v.1c0 .7-.6 1.2-1.2 1.2zM558.4 123.8h-.1c-.7 0-1.2-.5-1.2-1.2v-.1c0-.7.5-1.2 1.2-1.2h.1c.7 0 1.2.5 1.2 1.2v.1c.1.7-.5 1.2-1.2 1.2zM585.3 123.8h-.1c-.7 0-1.2-.5-1.2-1.2v-.1c0-.7.5-1.2 1.2-1.2h.1c.7 0 1.2.5 1.2 1.2v.1c0 .7-.6 1.2-1.2 1.2zM570.9 129.4h-.1c-.7 0-1.2-.5-1.2-1.2v-.1c0-.7.5-1.2 1.2-1.2h.1c.7 0 1.2.5 1.2 1.2v.1c0 .7-.6 1.2-1.2 1.2zM576 129.4h-.1c-.7 0-1.2-.5-1.2-1.2v-.1c0-.7.5-1.2 1.2-1.2h.1c.7 0 1.2.5 1.2 1.2v.1c.1.7-.5 1.2-1.2 1.2z"/>
    <path id="svg-concept" class="eff5" d="M626.4 137.7c0 1.1-.9 2-2 2s-2-.9-2-2 .9-2 2-2 2 .9 2 2z"/>
    <path class="eff1" d="M624.5 132.1h-.1c-.7 0-1.2-.5-1.2-1.2v-.1c0-.7.5-1.2 1.2-1.2h.1c.7 0 1.2.5 1.2 1.2v.1c0 .6-.6 1.2-1.2 1.2zM624.5 126.4h-.1c-.7 0-1.2-.5-1.2-1.2v-.2c0-.7.5-1.2 1.2-1.2h.1c.7 0 1.2.5 1.2 1.2v.1c0 .7-.6 1.3-1.2 1.3zM576 123.8h-10c-.7 0-1.2-.5-1.2-1.2v-.1c0-.7.5-1.2 1.2-1.2h10c.7 0 1.2.5 1.2 1.2v.1c.1.7-.5 1.2-1.2 1.2zM562.1 133.1v8.5M575.4 139.1h-.2c-.9 0-1.7-.8-1.7-1.7v-.2c0-.9.8-1.7 1.7-1.7h.2c.9 0 1.7.8 1.7 1.7v.2c-.1.9-.8 1.7-1.7 1.7zM502 115.9v31.7M452.4 126.5v9.4M635.5 126.5v9.4M545.8 115.9v31.7M589.6 115.9v31.7"/>
    <animate attributeName="opacity" values="0" begin="0s" repeatCount="indefinite"/>
    <animate attributeName="opacity" values="0;1" begin="1s" dur="2s" fill="freeze"/>
    <animateMotion path="M20, 0 0 0 0" begin="1s" dur="2s" fill="freeze"/>
  </g>
  <g>
    <path class="eff4" d="M641.5 183.9c0 3.2-2.3 5.7-5.2 5.7H451.5c-2.9 0-5.2-2.6-5.2-5.7v-20.2c0-3.2 2.3-5.7 5.2-5.7h184.8c2.9 0 5.2 2.6 5.2 5.7v20.2z"/>
    <path class="eff1" d="M457 158v31.5M630.8 158v31.7M494.4 183.6h-29.7c-2.2 0-4-1.8-4-4v-.4c0-2.2 1.8-4 4-4h29.7c2.2 0 4 1.8 4 4v.4c0 2.2-1.8 4-4 4zM465.1 171.5h-.1c-.7 0-1.2-.5-1.2-1.2v-.1c0-.7.5-1.2 1.2-1.2h.1c.7 0 1.2.5 1.2 1.2v.1c0 .7-.5 1.2-1.2 1.2zM470.2 171.5h-.1c-.7 0-1.2-.5-1.2-1.2v-.1c0-.7.5-1.2 1.2-1.2h.1c.7 0 1.2.5 1.2 1.2v.1c.1.7-.5 1.2-1.2 1.2zM477.5 171.5h-.1c-.7 0-1.2-.5-1.2-1.2v-.1c0-.7.5-1.2 1.2-1.2h.1c.7 0 1.2.5 1.2 1.2v.1c0 .7-.5 1.2-1.2 1.2zM465.1 165.9h-.1c-.7 0-1.2-.5-1.2-1.2v-.1c0-.7.5-1.2 1.2-1.2h.1c.7 0 1.2.5 1.2 1.2v.1c0 .7-.5 1.2-1.2 1.2zM470.2 165.9h-.1c-.7 0-1.2-.5-1.2-1.2v-.1c0-.7.5-1.2 1.2-1.2h.1c.7 0 1.2.5 1.2 1.2v.1c.1.7-.5 1.2-1.2 1.2zM497.1 165.9h-.1c-.7 0-1.2-.5-1.2-1.2v-.1c0-.7.5-1.2 1.2-1.2h.1c.7 0 1.2.5 1.2 1.2v.1c0 .7-.6 1.2-1.2 1.2zM482.7 171.5h-.1c-.7 0-1.2-.5-1.2-1.2v-.1c0-.7.5-1.2 1.2-1.2h.1c.7 0 1.2.5 1.2 1.2v.1c0 .7-.5 1.2-1.2 1.2zM487.8 171.5h-.1c-.7 0-1.2-.5-1.2-1.2v-.1c0-.7.5-1.2 1.2-1.2h.1c.7 0 1.2.5 1.2 1.2v.1c0 .7-.6 1.2-1.2 1.2z"/>
    <path class="eff1" d="M487.8 171.5h-.1c-.7 0-1.2-.5-1.2-1.2v-.1c0-.7.5-1.2 1.2-1.2h.1c.7 0 1.2.5 1.2 1.2v.1c.1.7-.5 1.2-1.2 1.2z"/>
    <path id="svg-concept" class="eff5" d="M497.1 171.5h-.1c-.7 0-1.2-.5-1.2-1.2v-.1c0-.7.5-1.2 1.2-1.2h.1c.7 0 1.2.5 1.2 1.2v.1c.1.7-.5 1.2-1.2 1.2z"/>
    <path class="eff1" d="M487.8 165.9h-10c-.7 0-1.2-.5-1.2-1.2v-.1c0-.7.5-1.2 1.2-1.2h10c.7 0 1.2.5 1.2 1.2v.1c.1.7-.5 1.2-1.2 1.2zM473.9 175.2v8.4M487.2 181.2h-.2c-.9 0-1.7-.8-1.7-1.7v-.2c0-.9.8-1.7 1.7-1.7h.2c.9 0 1.7.8 1.7 1.7v.2c-.1.9-.8 1.7-1.7 1.7z"/>
    <path id="svg-concept" class="eff5" d="M493.7 181.2h-.2c-.9 0-1.7-.8-1.7-1.7v-.2c0-.9.8-1.7 1.7-1.7h.2c.9 0 1.7.8 1.7 1.7v.2c0 .9-.8 1.7-1.7 1.7z"/>
    <path class="eff1" d="M538.5 183.6h-29.7c-2.2 0-4-1.8-4-4v-.4c0-2.2 1.8-4 4-4h29.7c2.2 0 4 1.8 4 4v.4c0 2.2-1.8 4-4 4zM509.2 171.5h-.2c-.7 0-1.2-.5-1.2-1.2v-.1c0-.7.5-1.2 1.2-1.2h.1c.7 0 1.2.5 1.2 1.2v.1c.1.7-.5 1.2-1.1 1.2zM514.3 171.5h-.1c-.7 0-1.2-.5-1.2-1.2v-.1c0-.7.5-1.2 1.2-1.2h.1c.7 0 1.2.5 1.2 1.2v.1c.1.7-.5 1.2-1.2 1.2zM521.6 171.5h-.1c-.7 0-1.2-.5-1.2-1.2v-.1c0-.7.5-1.2 1.2-1.2h.1c.7 0 1.2.5 1.2 1.2v.1c0 .7-.5 1.2-1.2 1.2zM509.2 165.9h-.2c-.7 0-1.2-.5-1.2-1.2v-.1c0-.7.5-1.2 1.2-1.2h.1c.7 0 1.2.5 1.2 1.2v.1c.1.7-.5 1.2-1.1 1.2zM514.3 165.9h-.1c-.7 0-1.2-.5-1.2-1.2v-.1c0-.7.5-1.2 1.2-1.2h.1c.7 0 1.2.5 1.2 1.2v.1c.1.7-.5 1.2-1.2 1.2zM541.2 165.9h-.2c-.7 0-1.2-.5-1.2-1.2v-.1c0-.7.5-1.2 1.2-1.2h.1c.7 0 1.2.5 1.2 1.2v.1c.1.7-.5 1.2-1.1 1.2zM526.8 171.5h-.1c-.7 0-1.2-.5-1.2-1.2v-.1c0-.7.5-1.2 1.2-1.2h.1c.7 0 1.2.5 1.2 1.2v.1c0 .7-.6 1.2-1.2 1.2zM531.9 171.5h-.1c-.7 0-1.2-.5-1.2-1.2v-.1c0-.7.5-1.2 1.2-1.2h.1c.7 0 1.2.5 1.2 1.2v.1c0 .7-.6 1.2-1.2 1.2z"/>
    <path class="eff1" d="M531.9 171.5h-.1c-.7 0-1.2-.5-1.2-1.2v-.1c0-.7.5-1.2 1.2-1.2h.1c.7 0 1.2.5 1.2 1.2v.1c.1.7-.5 1.2-1.2 1.2z"/>
    <path id="svg-concept" class="eff5" d="M541.2 171.5h-.1c-.7 0-1.2-.5-1.2-1.2v-.1c0-.7.5-1.2 1.2-1.2h.1c.7 0 1.2.5 1.2 1.2v.1c.1.7-.5 1.2-1.2 1.2z"/>
    <path class="eff1" d="M531.9 165.9h-10c-.7 0-1.2-.5-1.2-1.2v-.1c0-.7.5-1.2 1.2-1.2h10c.7 0 1.2.5 1.2 1.2v.1c.1.7-.5 1.2-1.2 1.2zM518 175.2v8.4M531.3 181.2h-.2c-.9 0-1.7-.8-1.7-1.7v-.2c0-.9.8-1.7 1.7-1.7h.2c.9 0 1.7.8 1.7 1.7v.2c-.1.9-.8 1.7-1.7 1.7z"/>
    <path id="svg-concept" class="eff5" d="M537.8 181.2h-.2c-.9 0-1.7-.8-1.7-1.7v-.2c0-.9.8-1.7 1.7-1.7h.2c.9 0 1.7.8 1.7 1.7v.2c0 .9-.8 1.7-1.7 1.7z"/>
    <path class="eff1" d="M582.6 183.6h-29.7c-2.2 0-4-1.8-4-4v-.4c0-2.2 1.8-4 4-4h29.7c2.2 0 4 1.8 4 4v.4c0 2.2-1.8 4-4 4zM553.3 171.5h-.1c-.7 0-1.2-.5-1.2-1.2v-.1c0-.7.5-1.2 1.2-1.2h.1c.7 0 1.2.5 1.2 1.2v.1c0 .7-.6 1.2-1.2 1.2zM558.4 171.5h-.1c-.7 0-1.2-.5-1.2-1.2v-.1c0-.7.5-1.2 1.2-1.2h.1c.7 0 1.2.5 1.2 1.2v.1c.1.7-.5 1.2-1.2 1.2zM565.7 171.5h-.1c-.7 0-1.2-.5-1.2-1.2v-.1c0-.7.5-1.2 1.2-1.2h.1c.7 0 1.2.5 1.2 1.2v.1c0 .7-.5 1.2-1.2 1.2zM553.3 165.9h-.1c-.7 0-1.2-.5-1.2-1.2v-.1c0-.7.5-1.2 1.2-1.2h.1c.7 0 1.2.5 1.2 1.2v.1c0 .7-.6 1.2-1.2 1.2zM558.4 165.9h-.1c-.7 0-1.2-.5-1.2-1.2v-.1c0-.7.5-1.2 1.2-1.2h.1c.7 0 1.2.5 1.2 1.2v.1c.1.7-.5 1.2-1.2 1.2zM585.3 165.9h-.1c-.7 0-1.2-.5-1.2-1.2v-.1c0-.7.5-1.2 1.2-1.2h.1c.7 0 1.2.5 1.2 1.2v.1c0 .7-.6 1.2-1.2 1.2zM570.9 171.5h-.1c-.7 0-1.2-.5-1.2-1.2v-.1c0-.7.5-1.2 1.2-1.2h.1c.7 0 1.2.5 1.2 1.2v.1c0 .7-.6 1.2-1.2 1.2zM576 171.5h-.1c-.7 0-1.2-.5-1.2-1.2v-.1c0-.7.5-1.2 1.2-1.2h.1c.7 0 1.2.5 1.2 1.2v.1c0 .7-.6 1.2-1.2 1.2z"/>
    <path class="eff1" d="M576 171.5h-.1c-.7 0-1.2-.5-1.2-1.2v-.1c0-.7.5-1.2 1.2-1.2h.1c.7 0 1.2.5 1.2 1.2v.1c.1.7-.5 1.2-1.2 1.2z"/>
    <path id="svg-concept" class="eff5" d="M585.3 171.5h-.1c-.7 0-1.2-.5-1.2-1.2v-.1c0-.7.5-1.2 1.2-1.2h.1c.7 0 1.2.5 1.2 1.2v.1c.1.7-.5 1.2-1.2 1.2z"/>
    <path class="eff1" d="M626.4 179.8c0 1.1-.9 2-2 2s-2-.9-2-2 .9-2 2-2 2 .9 2 2z"/>
    <path id="svg-concept" class="eff5" d="M624.5 174.1h-.1c-.7 0-1.2-.5-1.2-1.2v-.1c0-.7.5-1.2 1.2-1.2h.1c.7 0 1.2.5 1.2 1.2v.1c0 .7-.6 1.2-1.2 1.2zM624.5 168.5h-.1c-.7 0-1.2-.5-1.2-1.2v-.1c0-.7.5-1.2 1.2-1.2h.1c.7 0 1.2.5 1.2 1.2v.1c0 .6-.6 1.2-1.2 1.2z"/>
    <path class="eff1" d="M576 165.9h-10c-.7 0-1.2-.5-1.2-1.2v-.1c0-.7.5-1.2 1.2-1.2h10c.7 0 1.2.5 1.2 1.2v.1c.1.7-.5 1.2-1.2 1.2zM562.1 175.2v8.4M575.4 181.2h-.2c-.9 0-1.7-.8-1.7-1.7v-.2c0-.9.8-1.7 1.7-1.7h.2c.9 0 1.7.8 1.7 1.7v.2c-.1.9-.8 1.7-1.7 1.7z"/>
    <path id="svg-concept" class="eff5" d="M581.9 181.2h-.2c-.9 0-1.7-.8-1.7-1.7v-.2c0-.9.8-1.7 1.7-1.7h.2c.9 0 1.7.8 1.7 1.7v.2c0 .9-.8 1.7-1.7 1.7z"/>
    <path class="eff1" d="M502 158v31.7M452.4 168.6v9.4M635.5 168.6v9.4M545.8 158v31.7M589.6 158v31.7"/>
    <path id="svg-concept" class="eff5" d="M616.9 173.8c0 3.7-3 6.8-6.8 6.8-3.7 0-6.8-3-6.8-6.8 0-3.7 3-6.8 6.8-6.8 3.8.1 6.8 3.1 6.8 6.8z"/>
    <path id="svg-concept" class="eff5" d="M612.7 173.8c0 1.4-1.1 2.5-2.5 2.5s-2.5-1.1-2.5-2.5 1.1-2.5 2.5-2.5 2.5 1.1 2.5 2.5zM616.9 173.8h-4.2M607.7 173.8h-4.3"/>
    <animate attributeName="opacity" values="0" begin="0s" repeatCount="indefinite"/>
    <animate attributeName="opacity" values="0;1" begin="1.5s" dur="2s" fill="freeze"/>
    <animateMotion path="M-20, 0 0 0 0" begin="1.5s" dur="2s" fill="freeze"/>
  </g>
  <path class="eff1" d="M651.6 223.9v7.8M651.6 200.1v19.8M653.6 221.9c0 1.1-.9 2-2 2s-2-.9-2-2 .9-2 2-2 2 .9 2 2z"/>
  <g>
    <path class="eff4" d="M641.5 226c0 3.2-2.3 5.7-5.2 5.7H451.5c-2.9 0-5.2-2.6-5.2-5.7v-20.2c0-3.2 2.3-5.7 5.2-5.7h184.8c2.9 0 5.2 2.6 5.2 5.7V226z"/>
    <path class="eff1" d="M457 200.1v31.5M630.8 200.1v31.6M494.4 225.7h-29.7c-2.2 0-4-1.8-4-4v-.4c0-2.2 1.8-4 4-4h29.7c2.2 0 4 1.8 4 4v.4c0 2.2-1.8 4-4 4zM465.1 213.6h-.1c-.7 0-1.2-.5-1.2-1.2v-.1c0-.7.5-1.2 1.2-1.2h.1c.7 0 1.2.5 1.2 1.2v.1c0 .6-.5 1.2-1.2 1.2zM470.2 213.6h-.1c-.7 0-1.2-.5-1.2-1.2v-.1c0-.7.5-1.2 1.2-1.2h.1c.7 0 1.2.5 1.2 1.2v.1c.1.6-.5 1.2-1.2 1.2zM477.5 213.6h-.1c-.7 0-1.2-.5-1.2-1.2v-.1c0-.7.5-1.2 1.2-1.2h.1c.7 0 1.2.5 1.2 1.2v.1c0 .6-.5 1.2-1.2 1.2zM465.1 208h-.1c-.7 0-1.2-.5-1.2-1.2v-.1c0-.7.5-1.2 1.2-1.2h.1c.7 0 1.2.5 1.2 1.2v.1c0 .6-.5 1.2-1.2 1.2zM470.2 208h-.1c-.7 0-1.2-.5-1.2-1.2v-.1c0-.7.5-1.2 1.2-1.2h.1c.7 0 1.2.5 1.2 1.2v.1c.1.6-.5 1.2-1.2 1.2zM497.1 208h-.1c-.7 0-1.2-.5-1.2-1.2v-.1c0-.7.5-1.2 1.2-1.2h.1c.7 0 1.2.5 1.2 1.2v.1c0 .6-.6 1.2-1.2 1.2zM482.7 213.6h-.1c-.7 0-1.2-.5-1.2-1.2v-.1c0-.7.5-1.2 1.2-1.2h.1c.7 0 1.2.5 1.2 1.2v.1c0 .6-.5 1.2-1.2 1.2zM487.8 213.6h-.1c-.7 0-1.2-.5-1.2-1.2v-.1c0-.7.5-1.2 1.2-1.2h.1c.7 0 1.2.5 1.2 1.2v.1c0 .6-.6 1.2-1.2 1.2z"/>
    <path class="eff1" d="M487.8 213.6h-.1c-.7 0-1.2-.5-1.2-1.2v-.1c0-.7.5-1.2 1.2-1.2h.1c.7 0 1.2.5 1.2 1.2v.1c.1.6-.5 1.2-1.2 1.2z"/>
    <path id="svg-concept" class="eff5" d="M497.1 213.6h-.1c-.7 0-1.2-.5-1.2-1.2v-.1c0-.7.5-1.2 1.2-1.2h.1c.7 0 1.2.5 1.2 1.2v.1c.1.6-.5 1.2-1.2 1.2z"/>
    <path class="eff1" d="M487.8 208h-10c-.7 0-1.2-.5-1.2-1.2v-.1c0-.7.5-1.2 1.2-1.2h10c.7 0 1.2.5 1.2 1.2v.1c.1.6-.5 1.2-1.2 1.2zM473.9 217.3v8.4M487.2 223.2h-.2c-.9 0-1.7-.8-1.7-1.7v-.2c0-.9.8-1.7 1.7-1.7h.2c.9 0 1.7.8 1.7 1.7v.2c-.1 1-.8 1.7-1.7 1.7z"/>
    <path id="svg-concept" class="eff5" d="M493.7 223.2h-.2c-.9 0-1.7-.8-1.7-1.7v-.2c0-.9.8-1.7 1.7-1.7h.2c.9 0 1.7.8 1.7 1.7v.2c0 1-.8 1.7-1.7 1.7z"/>
    <path class="eff1" d="M538.5 225.7h-29.7c-2.2 0-4-1.8-4-4v-.4c0-2.2 1.8-4 4-4h29.7c2.2 0 4 1.8 4 4v.4c0 2.2-1.8 4-4 4zM509.2 213.6h-.2c-.7 0-1.2-.5-1.2-1.2v-.1c0-.7.5-1.2 1.2-1.2h.1c.7 0 1.2.5 1.2 1.2v.1c.1.6-.5 1.2-1.1 1.2zM514.3 213.6h-.1c-.7 0-1.2-.5-1.2-1.2v-.1c0-.7.5-1.2 1.2-1.2h.1c.7 0 1.2.5 1.2 1.2v.1c.1.6-.5 1.2-1.2 1.2zM521.6 213.6h-.1c-.7 0-1.2-.5-1.2-1.2v-.1c0-.7.5-1.2 1.2-1.2h.1c.7 0 1.2.5 1.2 1.2v.1c0 .6-.5 1.2-1.2 1.2zM509.2 208h-.2c-.7 0-1.2-.5-1.2-1.2v-.1c0-.7.5-1.2 1.2-1.2h.1c.7 0 1.2.5 1.2 1.2v.1c.1.6-.5 1.2-1.1 1.2zM514.3 208h-.1c-.7 0-1.2-.5-1.2-1.2v-.1c0-.7.5-1.2 1.2-1.2h.1c.7 0 1.2.5 1.2 1.2v.1c.1.6-.5 1.2-1.2 1.2zM541.2 208h-.2c-.7 0-1.2-.5-1.2-1.2v-.1c0-.7.5-1.2 1.2-1.2h.1c.7 0 1.2.5 1.2 1.2v.1c.1.6-.5 1.2-1.1 1.2zM526.8 213.6h-.1c-.7 0-1.2-.5-1.2-1.2v-.1c0-.7.5-1.2 1.2-1.2h.1c.7 0 1.2.5 1.2 1.2v.1c0 .6-.6 1.2-1.2 1.2zM531.9 213.6h-.1c-.7 0-1.2-.5-1.2-1.2v-.1c0-.7.5-1.2 1.2-1.2h.1c.7 0 1.2.5 1.2 1.2v.1c0 .6-.6 1.2-1.2 1.2z"/>
    <path class="eff1" d="M531.9 213.6h-.1c-.7 0-1.2-.5-1.2-1.2v-.1c0-.7.5-1.2 1.2-1.2h.1c.7 0 1.2.5 1.2 1.2v.1c.1.6-.5 1.2-1.2 1.2z"/>
    <path id="svg-concept" class="eff5" d="M541.2 213.6h-.1c-.7 0-1.2-.5-1.2-1.2v-.1c0-.7.5-1.2 1.2-1.2h.1c.7 0 1.2.5 1.2 1.2v.1c.1.6-.5 1.2-1.2 1.2z"/>
    <path class="eff1" d="M531.9 208h-10c-.7 0-1.2-.5-1.2-1.2v-.1c0-.7.5-1.2 1.2-1.2h10c.7 0 1.2.5 1.2 1.2v.1c.1.6-.5 1.2-1.2 1.2zM518 217.3v8.4M531.3 223.2h-.2c-.9 0-1.7-.8-1.7-1.7v-.2c0-.9.8-1.7 1.7-1.7h.2c.9 0 1.7.8 1.7 1.7v.2c-.1 1-.8 1.7-1.7 1.7z"/>
    <path id="svg-concept" class="eff5" d="M537.8 223.2h-.2c-.9 0-1.7-.8-1.7-1.7v-.2c0-.9.8-1.7 1.7-1.7h.2c.9 0 1.7.8 1.7 1.7v.2c0 1-.8 1.7-1.7 1.7z"/>
    <path class="eff1" d="M582.6 225.7h-29.7c-2.2 0-4-1.8-4-4v-.4c0-2.2 1.8-4 4-4h29.7c2.2 0 4 1.8 4 4v.4c0 2.2-1.8 4-4 4zM553.3 213.6h-.1c-.7 0-1.2-.5-1.2-1.2v-.1c0-.7.5-1.2 1.2-1.2h.1c.7 0 1.2.5 1.2 1.2v.1c0 .6-.6 1.2-1.2 1.2zM558.4 213.6h-.1c-.7 0-1.2-.5-1.2-1.2v-.1c0-.7.5-1.2 1.2-1.2h.1c.7 0 1.2.5 1.2 1.2v.1c.1.6-.5 1.2-1.2 1.2zM565.7 213.6h-.1c-.7 0-1.2-.5-1.2-1.2v-.1c0-.7.5-1.2 1.2-1.2h.1c.7 0 1.2.5 1.2 1.2v.1c0 .6-.5 1.2-1.2 1.2zM553.3 208h-.1c-.7 0-1.2-.5-1.2-1.2v-.1c0-.7.5-1.2 1.2-1.2h.1c.7 0 1.2.5 1.2 1.2v.1c0 .6-.6 1.2-1.2 1.2zM558.4 208h-.1c-.7 0-1.2-.5-1.2-1.2v-.1c0-.7.5-1.2 1.2-1.2h.1c.7 0 1.2.5 1.2 1.2v.1c.1.6-.5 1.2-1.2 1.2zM585.3 208h-.1c-.7 0-1.2-.5-1.2-1.2v-.1c0-.7.5-1.2 1.2-1.2h.1c.7 0 1.2.5 1.2 1.2v.1c0 .6-.6 1.2-1.2 1.2zM570.9 213.6h-.1c-.7 0-1.2-.5-1.2-1.2v-.1c0-.7.5-1.2 1.2-1.2h.1c.7 0 1.2.5 1.2 1.2v.1c0 .6-.6 1.2-1.2 1.2zM576 213.6h-.1c-.7 0-1.2-.5-1.2-1.2v-.1c0-.7.5-1.2 1.2-1.2h.1c.7 0 1.2.5 1.2 1.2v.1c0 .6-.6 1.2-1.2 1.2z"/>
    <path class="eff1" d="M576 213.6h-.1c-.7 0-1.2-.5-1.2-1.2v-.1c0-.7.5-1.2 1.2-1.2h.1c.7 0 1.2.5 1.2 1.2v.1c.1.6-.5 1.2-1.2 1.2z"/>
    <path id="svg-concept" class="eff5" d="M585.3 213.6h-.1c-.7 0-1.2-.5-1.2-1.2v-.1c0-.7.5-1.2 1.2-1.2h.1c.7 0 1.2.5 1.2 1.2v.1c.1.6-.5 1.2-1.2 1.2z"/>
    <path class="eff1" d="M626.4 221.9c0 1.1-.9 2-2 2s-2-.9-2-2 .9-2 2-2 2 .9 2 2z"/>
    <path id="svg-concept" class="eff5" d="M624.5 216.2h-.1c-.7 0-1.2-.5-1.2-1.2v-.1c0-.7.5-1.2 1.2-1.2h.1c.7 0 1.2.5 1.2 1.2v.1c0 .7-.6 1.2-1.2 1.2zM624.5 210.5h-.1c-.7 0-1.2-.5-1.2-1.2v-.1c0-.7.5-1.2 1.2-1.2h.1c.7 0 1.2.5 1.2 1.2v.1c0 .7-.6 1.2-1.2 1.2z"/>
    <path class="eff1" d="M576 208h-10c-.7 0-1.2-.5-1.2-1.2v-.1c0-.7.5-1.2 1.2-1.2h10c.7 0 1.2.5 1.2 1.2v.1c.1.6-.5 1.2-1.2 1.2zM562.1 217.3v8.4M575.4 223.2h-.2c-.9 0-1.7-.8-1.7-1.7v-.2c0-.9.8-1.7 1.7-1.7h.2c.9 0 1.7.8 1.7 1.7v.2c-.1 1-.8 1.7-1.7 1.7z"/>
    <path id="svg-concept" class="eff5" d="M581.9 223.2h-.2c-.9 0-1.7-.8-1.7-1.7v-.2c0-.9.8-1.7 1.7-1.7h.2c.9 0 1.7.8 1.7 1.7v.2c0 1-.8 1.7-1.7 1.7z"/>
    <path class="eff1" d="M502 200.1v31.6M452.4 210.7v9.4M635.5 210.7v9.4M545.8 200.1v31.6M589.6 200.1v31.6"/>
    <path id="svg-concept" class="eff5" d="M616.9 215.9c0 3.7-3 6.8-6.8 6.8-3.7 0-6.8-3-6.8-6.8 0-3.7 3-6.8 6.8-6.8s6.8 3 6.8 6.8z"/>
    <path id="svg-concept" class="eff5" d="M612.7 215.9c0 1.4-1.1 2.5-2.5 2.5s-2.5-1.1-2.5-2.5 1.1-2.5 2.5-2.5 2.5 1.1 2.5 2.5zM616.9 215.9h-4.2M607.7 215.9h-4.3"/>
    <animate attributeName="opacity" values="0" begin="0s" repeatCount="indefinite"/>
    <animate attributeName="opacity" values="0;1" begin="2s" dur="2s" fill="freeze"/>
    <animateMotion path="M20, 0 0 0 0" begin="2s" dur="2s" fill="freeze"/>
  </g>
  <g>
    <path class="eff4" d="M641.5 268.1c0 3.2-2.3 5.7-5.2 5.7H451.5c-2.9 0-5.2-2.6-5.2-5.7v-20.2c0-3.2 2.3-5.7 5.2-5.7h184.8c2.9 0 5.2 2.6 5.2 5.7v20.2z"/>
    <path class="eff1" d="M457 242.1v31.6M630.8 242.1v31.7M494.4 267.8h-29.7c-2.2 0-4-1.8-4-4v-.4c0-2.2 1.8-4 4-4h29.7c2.2 0 4 1.8 4 4v.4c0 2.2-1.8 4-4 4zM465.1 255.6h-.1c-.7 0-1.2-.5-1.2-1.2v-.1c0-.7.5-1.2 1.2-1.2h.1c.7 0 1.2.5 1.2 1.2v.1c0 .7-.5 1.2-1.2 1.2zM470.2 255.6h-.1c-.7 0-1.2-.5-1.2-1.2v-.1c0-.7.5-1.2 1.2-1.2h.1c.7 0 1.2.5 1.2 1.2v.1c.1.7-.5 1.2-1.2 1.2zM477.5 255.6h-.1c-.7 0-1.2-.5-1.2-1.2v-.1c0-.7.5-1.2 1.2-1.2h.1c.7 0 1.2.5 1.2 1.2v.1c0 .7-.5 1.2-1.2 1.2zM465.1 250h-.1c-.7 0-1.2-.5-1.2-1.2v-.1c0-.7.5-1.2 1.2-1.2h.1c.7 0 1.2.5 1.2 1.2v.1c0 .7-.5 1.2-1.2 1.2zM470.2 250h-.1c-.7 0-1.2-.5-1.2-1.2v-.1c0-.7.5-1.2 1.2-1.2h.1c.7 0 1.2.5 1.2 1.2v.1c.1.7-.5 1.2-1.2 1.2zM497.1 250h-.1c-.7 0-1.2-.5-1.2-1.2v-.1c0-.7.5-1.2 1.2-1.2h.1c.7 0 1.2.5 1.2 1.2v.1c0 .7-.6 1.2-1.2 1.2zM482.7 255.6h-.1c-.7 0-1.2-.5-1.2-1.2v-.1c0-.7.5-1.2 1.2-1.2h.1c.7 0 1.2.5 1.2 1.2v.1c0 .7-.5 1.2-1.2 1.2zM487.8 255.6h-.1c-.7 0-1.2-.5-1.2-1.2v-.1c0-.7.5-1.2 1.2-1.2h.1c.7 0 1.2.5 1.2 1.2v.1c0 .7-.6 1.2-1.2 1.2z"/>
    <path class="eff1" d="M487.8 255.6h-.1c-.7 0-1.2-.5-1.2-1.2v-.1c0-.7.5-1.2 1.2-1.2h.1c.7 0 1.2.5 1.2 1.2v.1c.1.7-.5 1.2-1.2 1.2z"/>
    <path id="svg-concept" class="eff5" d="M497.1 255.6h-.1c-.7 0-1.2-.5-1.2-1.2v-.1c0-.7.5-1.2 1.2-1.2h.1c.7 0 1.2.5 1.2 1.2v.1c.1.7-.5 1.2-1.2 1.2z"/>
    <path class="eff1" d="M487.8 250h-10c-.7 0-1.2-.5-1.2-1.2v-.1c0-.7.5-1.2 1.2-1.2h10c.7 0 1.2.5 1.2 1.2v.1c.1.7-.5 1.2-1.2 1.2zM473.9 259.3v8.5M487.2 265.3h-.2c-.9 0-1.7-.8-1.7-1.7v-.2c0-.9.8-1.7 1.7-1.7h.2c.9 0 1.7.8 1.7 1.7v.2c-.1.9-.8 1.7-1.7 1.7z"/>
    <path id="svg-concept" class="eff5" d="M493.7 265.3h-.2c-.9 0-1.7-.8-1.7-1.7v-.2c0-.9.8-1.7 1.7-1.7h.2c.9 0 1.7.8 1.7 1.7v.2c0 .9-.8 1.7-1.7 1.7z"/>
    <path class="eff1" d="M538.5 267.8h-29.7c-2.2 0-4-1.8-4-4v-.4c0-2.2 1.8-4 4-4h29.7c2.2 0 4 1.8 4 4v.4c0 2.2-1.8 4-4 4zM509.2 255.6h-.2c-.7 0-1.2-.5-1.2-1.2v-.1c0-.7.5-1.2 1.2-1.2h.1c.7 0 1.2.5 1.2 1.2v.1c.1.7-.5 1.2-1.1 1.2zM514.3 255.6h-.1c-.7 0-1.2-.5-1.2-1.2v-.1c0-.7.5-1.2 1.2-1.2h.1c.7 0 1.2.5 1.2 1.2v.1c.1.7-.5 1.2-1.2 1.2zM521.6 255.6h-.1c-.7 0-1.2-.5-1.2-1.2v-.1c0-.7.5-1.2 1.2-1.2h.1c.7 0 1.2.5 1.2 1.2v.1c0 .7-.5 1.2-1.2 1.2zM509.2 250h-.2c-.7 0-1.2-.5-1.2-1.2v-.1c0-.7.5-1.2 1.2-1.2h.1c.7 0 1.2.5 1.2 1.2v.1c.1.7-.5 1.2-1.1 1.2zM514.3 250h-.1c-.7 0-1.2-.5-1.2-1.2v-.1c0-.7.5-1.2 1.2-1.2h.1c.7 0 1.2.5 1.2 1.2v.1c.1.7-.5 1.2-1.2 1.2zM541.2 250h-.2c-.7 0-1.2-.5-1.2-1.2v-.1c0-.7.5-1.2 1.2-1.2h.1c.7 0 1.2.5 1.2 1.2v.1c.1.7-.5 1.2-1.1 1.2zM526.8 255.6h-.1c-.7 0-1.2-.5-1.2-1.2v-.1c0-.7.5-1.2 1.2-1.2h.1c.7 0 1.2.5 1.2 1.2v.1c0 .7-.6 1.2-1.2 1.2zM531.9 255.6h-.1c-.7 0-1.2-.5-1.2-1.2v-.1c0-.7.5-1.2 1.2-1.2h.1c.7 0 1.2.5 1.2 1.2v.1c0 .7-.6 1.2-1.2 1.2z"/>
    <path class="eff1" d="M531.9 255.6h-.1c-.7 0-1.2-.5-1.2-1.2v-.1c0-.7.5-1.2 1.2-1.2h.1c.7 0 1.2.5 1.2 1.2v.1c.1.7-.5 1.2-1.2 1.2z"/>
    <path id="svg-concept" class="eff5" d="M541.2 255.6h-.1c-.7 0-1.2-.5-1.2-1.2v-.1c0-.7.5-1.2 1.2-1.2h.1c.7 0 1.2.5 1.2 1.2v.1c.1.7-.5 1.2-1.2 1.2z"/>
    <path class="eff1" d="M531.9 250h-10c-.7 0-1.2-.5-1.2-1.2v-.1c0-.7.5-1.2 1.2-1.2h10c.7 0 1.2.5 1.2 1.2v.1c.1.7-.5 1.2-1.2 1.2zM518 259.3v8.5M531.3 265.3h-.2c-.9 0-1.7-.8-1.7-1.7v-.2c0-.9.8-1.7 1.7-1.7h.2c.9 0 1.7.8 1.7 1.7v.2c-.1.9-.8 1.7-1.7 1.7z"/>
    <path id="svg-concept" class="eff5" d="M537.8 265.3h-.2c-.9 0-1.7-.8-1.7-1.7v-.2c0-.9.8-1.7 1.7-1.7h.2c.9 0 1.7.8 1.7 1.7v.2c0 .9-.8 1.7-1.7 1.7z"/>
    <path class="eff1" d="M582.6 267.8h-29.7c-2.2 0-4-1.8-4-4v-.4c0-2.2 1.8-4 4-4h29.7c2.2 0 4 1.8 4 4v.4c0 2.2-1.8 4-4 4zM553.3 255.6h-.1c-.7 0-1.2-.5-1.2-1.2v-.1c0-.7.5-1.2 1.2-1.2h.1c.7 0 1.2.5 1.2 1.2v.1c0 .7-.6 1.2-1.2 1.2zM558.4 255.6h-.1c-.7 0-1.2-.5-1.2-1.2v-.1c0-.7.5-1.2 1.2-1.2h.1c.7 0 1.2.5 1.2 1.2v.1c.1.7-.5 1.2-1.2 1.2zM565.7 255.6h-.1c-.7 0-1.2-.5-1.2-1.2v-.1c0-.7.5-1.2 1.2-1.2h.1c.7 0 1.2.5 1.2 1.2v.1c0 .7-.5 1.2-1.2 1.2zM553.3 250h-.1c-.7 0-1.2-.5-1.2-1.2v-.1c0-.7.5-1.2 1.2-1.2h.1c.7 0 1.2.5 1.2 1.2v.1c0 .7-.6 1.2-1.2 1.2zM558.4 250h-.1c-.7 0-1.2-.5-1.2-1.2v-.1c0-.7.5-1.2 1.2-1.2h.1c.7 0 1.2.5 1.2 1.2v.1c.1.7-.5 1.2-1.2 1.2zM585.3 250h-.1c-.7 0-1.2-.5-1.2-1.2v-.1c0-.7.5-1.2 1.2-1.2h.1c.7 0 1.2.5 1.2 1.2v.1c0 .7-.6 1.2-1.2 1.2zM570.9 255.6h-.1c-.7 0-1.2-.5-1.2-1.2v-.1c0-.7.5-1.2 1.2-1.2h.1c.7 0 1.2.5 1.2 1.2v.1c0 .7-.6 1.2-1.2 1.2zM576 255.6h-.1c-.7 0-1.2-.5-1.2-1.2v-.1c0-.7.5-1.2 1.2-1.2h.1c.7 0 1.2.5 1.2 1.2v.1c0 .7-.6 1.2-1.2 1.2z"/>
    <path class="eff1" d="M576 255.6h-.1c-.7 0-1.2-.5-1.2-1.2v-.1c0-.7.5-1.2 1.2-1.2h.1c.7 0 1.2.5 1.2 1.2v.1c.1.7-.5 1.2-1.2 1.2z"/>
    <path id="svg-concept" class="eff5" d="M585.3 255.6h-.1c-.7 0-1.2-.5-1.2-1.2v-.1c0-.7.5-1.2 1.2-1.2h.1c.7 0 1.2.5 1.2 1.2v.1c.1.7-.5 1.2-1.2 1.2z"/>
    <path class="eff1" d="M626.4 263.9c0 1.1-.9 2-2 2s-2-.9-2-2 .9-2 2-2 2 .9 2 2z"/>
    <path id="svg-concept" class="eff5" d="M624.5 258.3h-.1c-.7 0-1.2-.5-1.2-1.2v-.1c0-.7.5-1.2 1.2-1.2h.1c.7 0 1.2.5 1.2 1.2v.1c0 .6-.6 1.2-1.2 1.2zM624.5 252.6h-.1c-.7 0-1.2-.5-1.2-1.2v-.1c0-.7.5-1.2 1.2-1.2h.1c.7 0 1.2.5 1.2 1.2v.1c0 .6-.6 1.2-1.2 1.2z"/>
    <path class="eff1" d="M576 250h-10c-.7 0-1.2-.5-1.2-1.2v-.1c0-.7.5-1.2 1.2-1.2h10c.7 0 1.2.5 1.2 1.2v.1c.1.7-.5 1.2-1.2 1.2zM562.1 259.3v8.5M575.4 265.3h-.2c-.9 0-1.7-.8-1.7-1.7v-.2c0-.9.8-1.7 1.7-1.7h.2c.9 0 1.7.8 1.7 1.7v.2c-.1.9-.8 1.7-1.7 1.7z"/>
    <path id="svg-concept" class="eff5" d="M581.9 265.3h-.2c-.9 0-1.7-.8-1.7-1.7v-.2c0-.9.8-1.7 1.7-1.7h.2c.9 0 1.7.8 1.7 1.7v.2c0 .9-.8 1.7-1.7 1.7z"/>
    <path class="eff1" d="M502 242.1v31.7M452.4 252.7v9.4M635.5 252.7v9.4M545.8 242.1v31.7M589.6 242.1v31.7"/>
    <path id="svg-concept" class="eff5" d="M616.9 257.9c0 3.7-3 6.8-6.8 6.8-3.7 0-6.8-3-6.8-6.8s3-6.8 6.8-6.8c3.8.1 6.8 3.1 6.8 6.8z"/>
    <path id="svg-concept" class="eff5" d="M612.7 257.9c0 1.4-1.1 2.5-2.5 2.5s-2.5-1.1-2.5-2.5 1.1-2.5 2.5-2.5 2.5 1.2 2.5 2.5zM616.9 258h-4.2M607.7 258h-4.3"/>
    <animate attributeName="opacity" values="0" begin="0s" repeatCount="indefinite"/>
    <animate attributeName="opacity" values="0;1" begin="2.5s" dur="2s" fill="freeze"/>
    <animateMotion path="M-20, 0 0 0 0" begin="2.5s" dur="2s" fill="freeze"/>
  </g>
  <g>
    <path class="eff4" d="M641.5 309.7c0 3.2-2.3 5.7-5.2 5.7H451.5c-2.9 0-5.2-2.6-5.2-5.7v-20.2c0-3.2 2.3-5.7 5.2-5.7h184.8c2.9 0 5.2 2.6 5.2 5.7v20.2z"/>
    <path class="eff1" d="M457 283.8v31.5M630.8 284.2v31.6M494.4 309.4h-29.7c-2.2 0-4-1.8-4-4v-.4c0-2.2 1.8-4 4-4h29.7c2.2 0 4 1.8 4 4v.4c0 2.2-1.8 4-4 4zM465.1 297.3h-.1c-.7 0-1.2-.5-1.2-1.2v-.1c0-.7.5-1.2 1.2-1.2h.1c.7 0 1.2.5 1.2 1.2v.1c0 .7-.5 1.2-1.2 1.2zM470.2 297.3h-.1c-.7 0-1.2-.5-1.2-1.2v-.1c0-.7.5-1.2 1.2-1.2h.1c.7 0 1.2.5 1.2 1.2v.1c.1.7-.5 1.2-1.2 1.2zM477.5 297.3h-.1c-.7 0-1.2-.5-1.2-1.2v-.1c0-.7.5-1.2 1.2-1.2h.1c.7 0 1.2.5 1.2 1.2v.1c0 .7-.5 1.2-1.2 1.2zM465.1 291.7h-.1c-.7 0-1.2-.5-1.2-1.2v-.1c0-.7.5-1.2 1.2-1.2h.1c.7 0 1.2.5 1.2 1.2v.1c0 .7-.5 1.2-1.2 1.2zM470.2 291.7h-.1c-.7 0-1.2-.5-1.2-1.2v-.1c0-.7.5-1.2 1.2-1.2h.1c.7 0 1.2.5 1.2 1.2v.1c.1.7-.5 1.2-1.2 1.2zM497.1 291.7h-.1c-.7 0-1.2-.5-1.2-1.2v-.1c0-.7.5-1.2 1.2-1.2h.1c.7 0 1.2.5 1.2 1.2v.1c0 .7-.6 1.2-1.2 1.2zM482.7 297.3h-.1c-.7 0-1.2-.5-1.2-1.2v-.1c0-.7.5-1.2 1.2-1.2h.1c.7 0 1.2.5 1.2 1.2v.1c0 .7-.5 1.2-1.2 1.2zM487.8 297.3h-.1c-.7 0-1.2-.5-1.2-1.2v-.1c0-.7.5-1.2 1.2-1.2h.1c.7 0 1.2.5 1.2 1.2v.1c0 .7-.6 1.2-1.2 1.2z"/>
    <path class="eff1" d="M487.8 297.3h-.1c-.7 0-1.2-.5-1.2-1.2v-.1c0-.7.5-1.2 1.2-1.2h.1c.7 0 1.2.5 1.2 1.2v.1c.1.7-.5 1.2-1.2 1.2z"/>
    <path id="svg-concept" class="eff5" d="M497.1 297.7h-.1c-.7 0-1.2-.5-1.2-1.2v-.1c0-.7.5-1.2 1.2-1.2h.1c.7 0 1.2.5 1.2 1.2v.1c.1.7-.5 1.2-1.2 1.2z"/>
    <path class="eff1" d="M487.8 291.7h-10c-.7 0-1.2-.5-1.2-1.2v-.1c0-.7.5-1.2 1.2-1.2h10c.7 0 1.2.5 1.2 1.2v.1c.1.7-.5 1.2-1.2 1.2zM473.9 301v8.4M487.2 307h-.2c-.9 0-1.7-.8-1.7-1.7v-.2c0-.9.8-1.7 1.7-1.7h.2c.9 0 1.7.8 1.7 1.7v.2c-.1.9-.8 1.7-1.7 1.7z"/>
    <path id="svg-concept" class="eff5" d="M493.7 307.4h-.2c-.9 0-1.7-.8-1.7-1.7v-.2c0-.9.8-1.7 1.7-1.7h.2c.9 0 1.7.8 1.7 1.7v.2c0 .9-.8 1.7-1.7 1.7z"/>
    <path class="eff1" d="M538.5 309.4h-29.7c-2.2 0-4-1.8-4-4v-.4c0-2.2 1.8-4 4-4h29.7c2.2 0 4 1.8 4 4v.4c0 2.2-1.8 4-4 4zM509.2 297.3h-.2c-.7 0-1.2-.5-1.2-1.2v-.1c0-.7.5-1.2 1.2-1.2h.1c.7 0 1.2.5 1.2 1.2v.1c.1.7-.5 1.2-1.1 1.2zM514.3 297.3h-.1c-.7 0-1.2-.5-1.2-1.2v-.1c0-.7.5-1.2 1.2-1.2h.1c.7 0 1.2.5 1.2 1.2v.1c.1.7-.5 1.2-1.2 1.2zM521.6 297.3h-.1c-.7 0-1.2-.5-1.2-1.2v-.1c0-.7.5-1.2 1.2-1.2h.1c.7 0 1.2.5 1.2 1.2v.1c0 .7-.5 1.2-1.2 1.2zM509.2 291.7h-.2c-.7 0-1.2-.5-1.2-1.2v-.1c0-.7.5-1.2 1.2-1.2h.1c.7 0 1.2.5 1.2 1.2v.1c.1.7-.5 1.2-1.1 1.2zM514.3 291.7h-.1c-.7 0-1.2-.5-1.2-1.2v-.1c0-.7.5-1.2 1.2-1.2h.1c.7 0 1.2.5 1.2 1.2v.1c.1.7-.5 1.2-1.2 1.2zM541.2 291.7h-.2c-.7 0-1.2-.5-1.2-1.2v-.1c0-.7.5-1.2 1.2-1.2h.1c.7 0 1.2.5 1.2 1.2v.1c.1.7-.5 1.2-1.1 1.2zM526.8 297.3h-.1c-.7 0-1.2-.5-1.2-1.2v-.1c0-.7.5-1.2 1.2-1.2h.1c.7 0 1.2.5 1.2 1.2v.1c0 .7-.6 1.2-1.2 1.2zM531.9 297.3h-.1c-.7 0-1.2-.5-1.2-1.2v-.1c0-.7.5-1.2 1.2-1.2h.1c.7 0 1.2.5 1.2 1.2v.1c0 .7-.6 1.2-1.2 1.2z"/>
    <path class="eff1" d="M531.9 297.3h-.1c-.7 0-1.2-.5-1.2-1.2v-.1c0-.7.5-1.2 1.2-1.2h.1c.7 0 1.2.5 1.2 1.2v.1c.1.7-.5 1.2-1.2 1.2z"/>
    <path id="svg-concept" class="eff5" d="M541.2 297.7h-.1c-.7 0-1.2-.5-1.2-1.2v-.1c0-.7.5-1.2 1.2-1.2h.1c.7 0 1.2.5 1.2 1.2v.1c.1.7-.5 1.2-1.2 1.2z"/>
    <path class="eff1" d="M531.9 291.7h-10c-.7 0-1.2-.5-1.2-1.2v-.1c0-.7.5-1.2 1.2-1.2h10c.7 0 1.2.5 1.2 1.2v.1c.1.7-.5 1.2-1.2 1.2zM518 301v8.4M531.3 307h-.2c-.9 0-1.7-.8-1.7-1.7v-.2c0-.9.8-1.7 1.7-1.7h.2c.9 0 1.7.8 1.7 1.7v.2c-.1.9-.8 1.7-1.7 1.7z"/>
    <path id="svg-concept" class="eff5" d="M537.8 307.4h-.2c-.9 0-1.7-.8-1.7-1.7v-.2c0-.9.8-1.7 1.7-1.7h.2c.9 0 1.7.8 1.7 1.7v.2c0 .9-.8 1.7-1.7 1.7z"/>
    <path class="eff1" d="M582.6 309.4h-29.7c-2.2 0-4-1.8-4-4v-.4c0-2.2 1.8-4 4-4h29.7c2.2 0 4 1.8 4 4v.4c0 2.2-1.8 4-4 4zM553.3 297.3h-.1c-.7 0-1.2-.5-1.2-1.2v-.1c0-.7.5-1.2 1.2-1.2h.1c.7 0 1.2.5 1.2 1.2v.1c0 .7-.6 1.2-1.2 1.2zM558.4 297.3h-.1c-.7 0-1.2-.5-1.2-1.2v-.1c0-.7.5-1.2 1.2-1.2h.1c.7 0 1.2.5 1.2 1.2v.1c.1.7-.5 1.2-1.2 1.2zM565.7 297.3h-.1c-.7 0-1.2-.5-1.2-1.2v-.1c0-.7.5-1.2 1.2-1.2h.1c.7 0 1.2.5 1.2 1.2v.1c0 .7-.5 1.2-1.2 1.2zM553.3 291.7h-.1c-.7 0-1.2-.5-1.2-1.2v-.1c0-.7.5-1.2 1.2-1.2h.1c.7 0 1.2.5 1.2 1.2v.1c0 .7-.6 1.2-1.2 1.2zM558.4 291.7h-.1c-.7 0-1.2-.5-1.2-1.2v-.1c0-.7.5-1.2 1.2-1.2h.1c.7 0 1.2.5 1.2 1.2v.1c.1.7-.5 1.2-1.2 1.2zM585.3 291.7h-.1c-.7 0-1.2-.5-1.2-1.2v-.1c0-.7.5-1.2 1.2-1.2h.1c.7 0 1.2.5 1.2 1.2v.1c0 .7-.6 1.2-1.2 1.2zM570.9 297.3h-.1c-.7 0-1.2-.5-1.2-1.2v-.1c0-.7.5-1.2 1.2-1.2h.1c.7 0 1.2.5 1.2 1.2v.1c0 .7-.6 1.2-1.2 1.2zM576 297.3h-.1c-.7 0-1.2-.5-1.2-1.2v-.1c0-.7.5-1.2 1.2-1.2h.1c.7 0 1.2.5 1.2 1.2v.1c0 .7-.6 1.2-1.2 1.2z"/>
    <path class="eff1" d="M576 297.3h-.1c-.7 0-1.2-.5-1.2-1.2v-.1c0-.7.5-1.2 1.2-1.2h.1c.7 0 1.2.5 1.2 1.2v.1c.1.7-.5 1.2-1.2 1.2z"/>
    <path id="svg-concept" class="eff5" d="M585.3 297.7h-.1c-.7 0-1.2-.5-1.2-1.2v-.1c0-.7.5-1.2 1.2-1.2h.1c.7 0 1.2.5 1.2 1.2v.1c.1.7-.5 1.2-1.2 1.2z"/>
    <path class="eff1" d="M626.4 305.6c0 1.1-.9 2-2 2s-2-.9-2-2 .9-2 2-2 2 .9 2 2z"/>
    <path id="svg-concept" class="eff5" d="M624.5 300.3h-.1c-.7 0-1.2-.5-1.2-1.2v-.1c0-.7.5-1.2 1.2-1.2h.1c.7 0 1.2.5 1.2 1.2v.1c0 .7-.6 1.2-1.2 1.2zM624.5 294.6h-.1c-.7 0-1.2-.5-1.2-1.2v-.1c0-.7.5-1.2 1.2-1.2h.1c.7 0 1.2.5 1.2 1.2v.1c0 .7-.6 1.2-1.2 1.2z"/>
    <path class="eff1" d="M576 291.7h-10c-.7 0-1.2-.5-1.2-1.2v-.1c0-.7.5-1.2 1.2-1.2h10c.7 0 1.2.5 1.2 1.2v.1c.1.7-.5 1.2-1.2 1.2zM562.1 301v8.4M575.4 307h-.2c-.9 0-1.7-.8-1.7-1.7v-.2c0-.9.8-1.7 1.7-1.7h.2c.9 0 1.7.8 1.7 1.7v.2c-.1.9-.8 1.7-1.7 1.7z"/>
    <path id="svg-concept" class="eff5" d="M581.9 307.4h-.2c-.9 0-1.7-.8-1.7-1.7v-.2c0-.9.8-1.7 1.7-1.7h.2c.9 0 1.7.8 1.7 1.7v.2c0 .9-.8 1.7-1.7 1.7z"/>
    <path class="eff1" d="M502 283.8v31.6M452.4 294.4v9.4M635.5 294.4v9.4M545.8 283.8v31.6M589.6 283.8v31.6"/>
    <path id="svg-concept" class="eff5" d="M616.9 300c0 3.7-3 6.8-6.8 6.8-3.7 0-6.8-3-6.8-6.8s3-6.8 6.8-6.8 6.8 3.1 6.8 6.8z"/>
    <path id="svg-concept" class="eff5" d="M612.7 300c0 1.4-1.1 2.5-2.5 2.5s-2.5-1.1-2.5-2.5 1.1-2.5 2.5-2.5 2.5 1.1 2.5 2.5zM616.9 300h-4.2M607.7 300h-4.3"/>
    <animate attributeName="opacity" values="0" begin="0s" repeatCount="indefinite"/>
    <animate attributeName="opacity" values="0;1" begin="3s" dur="2s" fill="freeze"/>
    <animateMotion path="M20, 0 0 0 0" begin="3s" dur="2s" fill="freeze"/>
  </g>
  <g>
    <path class="eff4" d="M641.5 351.8c0 3.2-2.3 5.7-5.2 5.7H451.5c-2.9 0-5.2-2.6-5.2-5.7v-20.2c0-3.2 2.3-5.7 5.2-5.7h184.8c2.9 0 5.2 2.6 5.2 5.7v20.2z"/>
    <path class="eff1" d="M457 325.9v31.5M630.8 325.9v31.6M494.4 351.5h-29.7c-2.2 0-4-1.8-4-4v-.4c0-2.2 1.8-4 4-4h29.7c2.2 0 4 1.8 4 4v.4c0 2.2-1.8 4-4 4zM465.1 339.4h-.1c-.7 0-1.2-.5-1.2-1.2v-.2c0-.7.5-1.2 1.2-1.2h.1c.7 0 1.2.5 1.2 1.2v.1c0 .7-.5 1.3-1.2 1.3zM470.2 339.4h-.1c-.7 0-1.2-.5-1.2-1.2v-.2c0-.7.5-1.2 1.2-1.2h.1c.7 0 1.2.5 1.2 1.2v.1c.1.7-.5 1.3-1.2 1.3zM477.5 339.4h-.1c-.7 0-1.2-.5-1.2-1.2v-.2c0-.7.5-1.2 1.2-1.2h.1c.7 0 1.2.5 1.2 1.2v.1c0 .7-.5 1.3-1.2 1.3zM465.1 333.8h-.1c-.7 0-1.2-.5-1.2-1.2v-.1c0-.7.5-1.2 1.2-1.2h.1c.7 0 1.2.5 1.2 1.2v.1c0 .6-.5 1.2-1.2 1.2zM470.2 333.8h-.1c-.7 0-1.2-.5-1.2-1.2v-.1c0-.7.5-1.2 1.2-1.2h.1c.7 0 1.2.5 1.2 1.2v.1c.1.6-.5 1.2-1.2 1.2zM497.1 333.8h-.1c-.7 0-1.2-.5-1.2-1.2v-.1c0-.7.5-1.2 1.2-1.2h.1c.7 0 1.2.5 1.2 1.2v.1c0 .6-.6 1.2-1.2 1.2zM482.7 339.4h-.1c-.7 0-1.2-.5-1.2-1.2v-.2c0-.7.5-1.2 1.2-1.2h.1c.7 0 1.2.5 1.2 1.2v.1c0 .7-.5 1.3-1.2 1.3zM487.8 339.4h-.1c-.7 0-1.2-.5-1.2-1.2v-.2c0-.7.5-1.2 1.2-1.2h.1c.7 0 1.2.5 1.2 1.2v.1c0 .7-.6 1.3-1.2 1.3z"/>
    <path class="eff1" d="M487.8 339.4h-.1c-.7 0-1.2-.5-1.2-1.2v-.2c0-.7.5-1.2 1.2-1.2h.1c.7 0 1.2.5 1.2 1.2v.1c.1.7-.5 1.3-1.2 1.3z"/>
    <path id="svg-concept" class="eff5" d="M497.1 339.8h-.1c-.7 0-1.2-.5-1.2-1.2v-.1c0-.7.5-1.2 1.2-1.2h.1c.7 0 1.2.5 1.2 1.2v.1c.1.6-.5 1.2-1.2 1.2z"/>
    <path class="eff1" d="M487.8 333.8h-10c-.7 0-1.2-.5-1.2-1.2v-.1c0-.7.5-1.2 1.2-1.2h10c.7 0 1.2.5 1.2 1.2v.1c.1.6-.5 1.2-1.2 1.2zM473.9 343.1v8.4M487.2 349h-.2c-.9 0-1.7-.8-1.7-1.7v-.2c0-.9.8-1.7 1.7-1.7h.2c.9 0 1.7.8 1.7 1.7v.2c-.1 1-.8 1.7-1.7 1.7z"/>
    <path id="svg-concept" class="eff5" d="M493.7 349.4h-.2c-.9 0-1.7-.8-1.7-1.7v-.2c0-.9.8-1.7 1.7-1.7h.2c.9 0 1.7.8 1.7 1.7v.2c0 1-.8 1.7-1.7 1.7z"/>
    <path class="eff1" d="M538.5 351.5h-29.7c-2.2 0-4-1.8-4-4v-.4c0-2.2 1.8-4 4-4h29.7c2.2 0 4 1.8 4 4v.4c0 2.2-1.8 4-4 4zM509.2 339.4h-.2c-.7 0-1.2-.5-1.2-1.2v-.2c0-.7.5-1.2 1.2-1.2h.1c.7 0 1.2.5 1.2 1.2v.1c.1.7-.5 1.3-1.1 1.3zM514.3 339.4h-.1c-.7 0-1.2-.5-1.2-1.2v-.2c0-.7.5-1.2 1.2-1.2h.1c.7 0 1.2.5 1.2 1.2v.1c.1.7-.5 1.3-1.2 1.3zM521.6 339.4h-.1c-.7 0-1.2-.5-1.2-1.2v-.2c0-.7.5-1.2 1.2-1.2h.1c.7 0 1.2.5 1.2 1.2v.1c0 .7-.5 1.3-1.2 1.3zM509.2 333.8h-.2c-.7 0-1.2-.5-1.2-1.2v-.1c0-.7.5-1.2 1.2-1.2h.1c.7 0 1.2.5 1.2 1.2v.1c.1.6-.5 1.2-1.1 1.2zM514.3 333.8h-.1c-.7 0-1.2-.5-1.2-1.2v-.1c0-.7.5-1.2 1.2-1.2h.1c.7 0 1.2.5 1.2 1.2v.1c.1.6-.5 1.2-1.2 1.2zM541.2 333.8h-.2c-.7 0-1.2-.5-1.2-1.2v-.1c0-.7.5-1.2 1.2-1.2h.1c.7 0 1.2.5 1.2 1.2v.1c.1.6-.5 1.2-1.1 1.2zM526.8 339.4h-.1c-.7 0-1.2-.5-1.2-1.2v-.2c0-.7.5-1.2 1.2-1.2h.1c.7 0 1.2.5 1.2 1.2v.1c0 .7-.6 1.3-1.2 1.3zM531.9 339.4h-.1c-.7 0-1.2-.5-1.2-1.2v-.2c0-.7.5-1.2 1.2-1.2h.1c.7 0 1.2.5 1.2 1.2v.1c0 .7-.6 1.3-1.2 1.3z"/>
    <path class="eff1" d="M531.9 339.4h-.1c-.7 0-1.2-.5-1.2-1.2v-.2c0-.7.5-1.2 1.2-1.2h.1c.7 0 1.2.5 1.2 1.2v.1c.1.7-.5 1.3-1.2 1.3z"/>
    <path id="svg-concept" class="eff5" d="M541.2 339.8h-.1c-.7 0-1.2-.5-1.2-1.2v-.1c0-.7.5-1.2 1.2-1.2h.1c.7 0 1.2.5 1.2 1.2v.1c.1.6-.5 1.2-1.2 1.2z"/>
    <path class="eff1" d="M531.9 333.8h-10c-.7 0-1.2-.5-1.2-1.2v-.1c0-.7.5-1.2 1.2-1.2h10c.7 0 1.2.5 1.2 1.2v.1c.1.6-.5 1.2-1.2 1.2zM518 343.1v8.4M531.3 349h-.2c-.9 0-1.7-.8-1.7-1.7v-.2c0-.9.8-1.7 1.7-1.7h.2c.9 0 1.7.8 1.7 1.7v.2c-.1 1-.8 1.7-1.7 1.7z"/>
    <path id="svg-concept" class="eff5" d="M537.8 349.4h-.2c-.9 0-1.7-.8-1.7-1.7v-.2c0-.9.8-1.7 1.7-1.7h.2c.9 0 1.7.8 1.7 1.7v.2c0 1-.8 1.7-1.7 1.7z"/>
    <path class="eff1" d="M582.6 351.5h-29.7c-2.2 0-4-1.8-4-4v-.4c0-2.2 1.8-4 4-4h29.7c2.2 0 4 1.8 4 4v.4c0 2.2-1.8 4-4 4zM553.3 339.4h-.1c-.7 0-1.2-.5-1.2-1.2v-.2c0-.7.5-1.2 1.2-1.2h.1c.7 0 1.2.5 1.2 1.2v.1c0 .7-.6 1.3-1.2 1.3zM558.4 339.4h-.1c-.7 0-1.2-.5-1.2-1.2v-.2c0-.7.5-1.2 1.2-1.2h.1c.7 0 1.2.5 1.2 1.2v.1c.1.7-.5 1.3-1.2 1.3zM565.7 339.4h-.1c-.7 0-1.2-.5-1.2-1.2v-.2c0-.7.5-1.2 1.2-1.2h.1c.7 0 1.2.5 1.2 1.2v.1c0 .7-.5 1.3-1.2 1.3zM553.3 333.8h-.1c-.7 0-1.2-.5-1.2-1.2v-.1c0-.7.5-1.2 1.2-1.2h.1c.7 0 1.2.5 1.2 1.2v.1c0 .6-.6 1.2-1.2 1.2zM558.4 333.8h-.1c-.7 0-1.2-.5-1.2-1.2v-.1c0-.7.5-1.2 1.2-1.2h.1c.7 0 1.2.5 1.2 1.2v.1c.1.6-.5 1.2-1.2 1.2zM585.3 333.8h-.1c-.7 0-1.2-.5-1.2-1.2v-.1c0-.7.5-1.2 1.2-1.2h.1c.7 0 1.2.5 1.2 1.2v.1c0 .6-.6 1.2-1.2 1.2zM570.9 339.4h-.1c-.7 0-1.2-.5-1.2-1.2v-.2c0-.7.5-1.2 1.2-1.2h.1c.7 0 1.2.5 1.2 1.2v.1c0 .7-.6 1.3-1.2 1.3zM576 339.4h-.1c-.7 0-1.2-.5-1.2-1.2v-.2c0-.7.5-1.2 1.2-1.2h.1c.7 0 1.2.5 1.2 1.2v.1c0 .7-.6 1.3-1.2 1.3z"/>
    <path class="eff1" d="M576 339.4h-.1c-.7 0-1.2-.5-1.2-1.2v-.2c0-.7.5-1.2 1.2-1.2h.1c.7 0 1.2.5 1.2 1.2v.1c.1.7-.5 1.3-1.2 1.3z"/>
    <path id="svg-concept" class="eff5" d="M585.3 339.8h-.1c-.7 0-1.2-.5-1.2-1.2v-.1c0-.7.5-1.2 1.2-1.2h.1c.7 0 1.2.5 1.2 1.2v.1c.1.6-.5 1.2-1.2 1.2z"/>
    <path class="eff1" d="M626.4 347.6c0 1.1-.9 2-2 2s-2-.9-2-2 .9-2 2-2c1.1.1 2 .9 2 2z"/>
    <path id="svg-concept" class="eff5" d="M624.5 342.4h-.1c-.7 0-1.2-.5-1.2-1.2v-.1c0-.7.5-1.2 1.2-1.2h.1c.7 0 1.2.5 1.2 1.2v.1c0 .7-.6 1.2-1.2 1.2zM624.5 336.7h-.1c-.7 0-1.2-.5-1.2-1.2v-.1c0-.7.5-1.2 1.2-1.2h.1c.7 0 1.2.5 1.2 1.2v.1c0 .7-.6 1.2-1.2 1.2z"/>
    <path class="eff1" d="M576 333.8h-10c-.7 0-1.2-.5-1.2-1.2v-.1c0-.7.5-1.2 1.2-1.2h10c.7 0 1.2.5 1.2 1.2v.1c.1.6-.5 1.2-1.2 1.2zM562.1 343.1v8.4M575.4 349h-.2c-.9 0-1.7-.8-1.7-1.7v-.2c0-.9.8-1.7 1.7-1.7h.2c.9 0 1.7.8 1.7 1.7v.2c-.1 1-.8 1.7-1.7 1.7z"/>
    <path id="svg-concept" class="eff5" d="M581.9 349.4h-.2c-.9 0-1.7-.8-1.7-1.7v-.2c0-.9.8-1.7 1.7-1.7h.2c.9 0 1.7.8 1.7 1.7v.2c0 1-.8 1.7-1.7 1.7z"/>
    <path class="eff1" d="M502 325.9v31.6M452.4 336.5v9.3M635.5 336.5v9.3M545.8 325.9v31.6M589.6 325.9v31.6"/>
    <path id="svg-concept" class="eff5" d="M616.9 342.1c0 3.7-3 6.8-6.8 6.8-3.7 0-6.8-3-6.8-6.8s3-6.8 6.8-6.8 6.8 3 6.8 6.8z"/>
    <path id="svg-concept" class="eff5" d="M612.7 342.1c0 1.4-1.1 2.5-2.5 2.5s-2.5-1.1-2.5-2.5 1.1-2.5 2.5-2.5 2.5 1.1 2.5 2.5zM616.9 342.1h-4.2M607.7 342.1h-4.3"/>
    <animate attributeName="opacity" values="0" begin="0s" repeatCount="indefinite"/>
    <animate attributeName="opacity" values="0;1" begin="3.5s" dur="2s" fill="freeze"/>
    <animateMotion path="M-20, 0 0 0 0" begin="3.5s" dur="2s" fill="freeze"/>
  </g>
  <g>
    <path class="eff4" d="M641.5 393.9c0 3.2-2.3 5.7-5.2 5.7H451.5c-2.9 0-5.2-2.6-5.2-5.7v-20.2c0-3.2 2.3-5.7 5.2-5.7h184.8c2.9 0 5.2 2.6 5.2 5.7v20.2z"/>
    <path class="eff1" d="M457 367.9v31.6M630.8 367.9v31.7M494.4 393.6h-29.7c-2.2 0-4-1.8-4-4v-.4c0-2.2 1.8-4 4-4h29.7c2.2 0 4 1.8 4 4v.4c0 2.2-1.8 4-4 4zM465.1 381.4h-.1c-.7 0-1.2-.5-1.2-1.2v-.1c0-.7.5-1.2 1.2-1.2h.1c.7 0 1.2.5 1.2 1.2v.1c0 .7-.5 1.2-1.2 1.2zM470.2 381.4h-.1c-.7 0-1.2-.5-1.2-1.2v-.1c0-.7.5-1.2 1.2-1.2h.1c.7 0 1.2.5 1.2 1.2v.1c.1.7-.5 1.2-1.2 1.2zM477.5 381.4h-.1c-.7 0-1.2-.5-1.2-1.2v-.1c0-.7.5-1.2 1.2-1.2h.1c.7 0 1.2.5 1.2 1.2v.1c0 .7-.5 1.2-1.2 1.2zM465.1 375.8h-.1c-.7 0-1.2-.5-1.2-1.2v-.1c0-.7.5-1.2 1.2-1.2h.1c.7 0 1.2.5 1.2 1.2v.1c0 .7-.5 1.2-1.2 1.2zM470.2 375.8h-.1c-.7 0-1.2-.5-1.2-1.2v-.1c0-.7.5-1.2 1.2-1.2h.1c.7 0 1.2.5 1.2 1.2v.1c.1.7-.5 1.2-1.2 1.2zM497.1 375.8h-.1c-.7 0-1.2-.5-1.2-1.2v-.1c0-.7.5-1.2 1.2-1.2h.1c.7 0 1.2.5 1.2 1.2v.1c0 .7-.6 1.2-1.2 1.2zM482.7 381.4h-.1c-.7 0-1.2-.5-1.2-1.2v-.1c0-.7.5-1.2 1.2-1.2h.1c.7 0 1.2.5 1.2 1.2v.1c0 .7-.5 1.2-1.2 1.2zM487.8 381.4h-.1c-.7 0-1.2-.5-1.2-1.2v-.1c0-.7.5-1.2 1.2-1.2h.1c.7 0 1.2.5 1.2 1.2v.1c0 .7-.6 1.2-1.2 1.2z"/>
    <path class="eff1" d="M487.8 381.4h-.1c-.7 0-1.2-.5-1.2-1.2v-.1c0-.7.5-1.2 1.2-1.2h.1c.7 0 1.2.5 1.2 1.2v.1c.1.7-.5 1.2-1.2 1.2z"/>
    <path id="svg-concept" class="eff5" d="M497.1 381.8h-.1c-.7 0-1.2-.5-1.2-1.2v-.1c0-.7.5-1.2 1.2-1.2h.1c.7 0 1.2.5 1.2 1.2v.1c.1.7-.5 1.2-1.2 1.2z"/>
    <path class="eff1" d="M487.8 375.8h-10c-.7 0-1.2-.5-1.2-1.2v-.1c0-.7.5-1.2 1.2-1.2h10c.7 0 1.2.5 1.2 1.2v.1c.1.7-.5 1.2-1.2 1.2zM473.9 385.1v8.5M487.2 391.1h-.2c-.9 0-1.7-.8-1.7-1.7v-.2c0-.9.8-1.7 1.7-1.7h.2c.9 0 1.7.8 1.7 1.7v.2c-.1.9-.8 1.7-1.7 1.7z"/>
    <path id="svg-concept" class="eff5" d="M493.7 391.5h-.2c-.9 0-1.7-.8-1.7-1.7v-.2c0-.9.8-1.7 1.7-1.7h.2c.9 0 1.7.8 1.7 1.7v.2c0 .9-.8 1.7-1.7 1.7z"/>
    <path class="eff1" d="M538.5 393.6h-29.7c-2.2 0-4-1.8-4-4v-.4c0-2.2 1.8-4 4-4h29.7c2.2 0 4 1.8 4 4v.4c0 2.2-1.8 4-4 4zM509.2 381.4h-.2c-.7 0-1.2-.5-1.2-1.2v-.1c0-.7.5-1.2 1.2-1.2h.1c.7 0 1.2.5 1.2 1.2v.1c.1.7-.5 1.2-1.1 1.2zM514.3 381.4h-.1c-.7 0-1.2-.5-1.2-1.2v-.1c0-.7.5-1.2 1.2-1.2h.1c.7 0 1.2.5 1.2 1.2v.1c.1.7-.5 1.2-1.2 1.2zM521.6 381.4h-.1c-.7 0-1.2-.5-1.2-1.2v-.1c0-.7.5-1.2 1.2-1.2h.1c.7 0 1.2.5 1.2 1.2v.1c0 .7-.5 1.2-1.2 1.2zM509.2 375.8h-.2c-.7 0-1.2-.5-1.2-1.2v-.1c0-.7.5-1.2 1.2-1.2h.1c.7 0 1.2.5 1.2 1.2v.1c.1.7-.5 1.2-1.1 1.2zM514.3 375.8h-.1c-.7 0-1.2-.5-1.2-1.2v-.1c0-.7.5-1.2 1.2-1.2h.1c.7 0 1.2.5 1.2 1.2v.1c.1.7-.5 1.2-1.2 1.2zM541.2 375.8h-.2c-.7 0-1.2-.5-1.2-1.2v-.1c0-.7.5-1.2 1.2-1.2h.1c.7 0 1.2.5 1.2 1.2v.1c.1.7-.5 1.2-1.1 1.2zM526.8 381.4h-.1c-.7 0-1.2-.5-1.2-1.2v-.1c0-.7.5-1.2 1.2-1.2h.1c.7 0 1.2.5 1.2 1.2v.1c0 .7-.6 1.2-1.2 1.2zM531.9 381.4h-.1c-.7 0-1.2-.5-1.2-1.2v-.1c0-.7.5-1.2 1.2-1.2h.1c.7 0 1.2.5 1.2 1.2v.1c0 .7-.6 1.2-1.2 1.2z"/>
    <path class="eff1" d="M531.9 381.4h-.1c-.7 0-1.2-.5-1.2-1.2v-.1c0-.7.5-1.2 1.2-1.2h.1c.7 0 1.2.5 1.2 1.2v.1c.1.7-.5 1.2-1.2 1.2z"/>
    <path id="svg-concept" class="eff5" d="M541.2 381.8h-.1c-.7 0-1.2-.5-1.2-1.2v-.1c0-.7.5-1.2 1.2-1.2h.1c.7 0 1.2.5 1.2 1.2v.1c.1.7-.5 1.2-1.2 1.2z"/>
    <path class="eff1" d="M531.9 375.8h-10c-.7 0-1.2-.5-1.2-1.2v-.1c0-.7.5-1.2 1.2-1.2h10c.7 0 1.2.5 1.2 1.2v.1c.1.7-.5 1.2-1.2 1.2zM518 385.1v8.5M531.3 391.1h-.2c-.9 0-1.7-.8-1.7-1.7v-.2c0-.9.8-1.7 1.7-1.7h.2c.9 0 1.7.8 1.7 1.7v.2c-.1.9-.8 1.7-1.7 1.7z"/>
    <path id="svg-concept" class="eff5" d="M537.8 391.5h-.2c-.9 0-1.7-.8-1.7-1.7v-.2c0-.9.8-1.7 1.7-1.7h.2c.9 0 1.7.8 1.7 1.7v.2c0 .9-.8 1.7-1.7 1.7z"/>
    <path class="eff1" d="M582.6 393.6h-29.7c-2.2 0-4-1.8-4-4v-.4c0-2.2 1.8-4 4-4h29.7c2.2 0 4 1.8 4 4v.4c0 2.2-1.8 4-4 4zM553.3 381.4h-.1c-.7 0-1.2-.5-1.2-1.2v-.1c0-.7.5-1.2 1.2-1.2h.1c.7 0 1.2.5 1.2 1.2v.1c0 .7-.6 1.2-1.2 1.2zM558.4 381.4h-.1c-.7 0-1.2-.5-1.2-1.2v-.1c0-.7.5-1.2 1.2-1.2h.1c.7 0 1.2.5 1.2 1.2v.1c.1.7-.5 1.2-1.2 1.2zM565.7 381.4h-.1c-.7 0-1.2-.5-1.2-1.2v-.1c0-.7.5-1.2 1.2-1.2h.1c.7 0 1.2.5 1.2 1.2v.1c0 .7-.5 1.2-1.2 1.2zM553.3 375.8h-.1c-.7 0-1.2-.5-1.2-1.2v-.1c0-.7.5-1.2 1.2-1.2h.1c.7 0 1.2.5 1.2 1.2v.1c0 .7-.6 1.2-1.2 1.2zM558.4 375.8h-.1c-.7 0-1.2-.5-1.2-1.2v-.1c0-.7.5-1.2 1.2-1.2h.1c.7 0 1.2.5 1.2 1.2v.1c.1.7-.5 1.2-1.2 1.2zM585.3 375.8h-.1c-.7 0-1.2-.5-1.2-1.2v-.1c0-.7.5-1.2 1.2-1.2h.1c.7 0 1.2.5 1.2 1.2v.1c0 .7-.6 1.2-1.2 1.2zM570.9 381.4h-.1c-.7 0-1.2-.5-1.2-1.2v-.1c0-.7.5-1.2 1.2-1.2h.1c.7 0 1.2.5 1.2 1.2v.1c0 .7-.6 1.2-1.2 1.2zM576 381.4h-.1c-.7 0-1.2-.5-1.2-1.2v-.1c0-.7.5-1.2 1.2-1.2h.1c.7 0 1.2.5 1.2 1.2v.1c0 .7-.6 1.2-1.2 1.2z"/>
    <path class="eff1" d="M576 381.4h-.1c-.7 0-1.2-.5-1.2-1.2v-.1c0-.7.5-1.2 1.2-1.2h.1c.7 0 1.2.5 1.2 1.2v.1c.1.7-.5 1.2-1.2 1.2z"/>
    <path id="svg-concept" class="eff5" d="M585.3 381.8h-.1c-.7 0-1.2-.5-1.2-1.2v-.1c0-.7.5-1.2 1.2-1.2h.1c.7 0 1.2.5 1.2 1.2v.1c.1.7-.5 1.2-1.2 1.2z"/>
    <path class="eff1" d="M626.4 389.7c0 1.1-.9 2-2 2s-2-.9-2-2 .9-2 2-2 2 .9 2 2z"/>
    <path id="svg-concept" class="eff5" d="M624.5 384.5h-.1c-.7 0-1.2-.5-1.2-1.2v-.1c0-.7.5-1.2 1.2-1.2h.1c.7 0 1.2.5 1.2 1.2v.1c0 .6-.6 1.2-1.2 1.2zM624.5 378.8h-.1c-.7 0-1.2-.5-1.2-1.2v-.1c0-.7.5-1.2 1.2-1.2h.1c.7 0 1.2.5 1.2 1.2v.1c0 .6-.6 1.2-1.2 1.2z"/>
    <path class="eff1" d="M576 375.8h-10c-.7 0-1.2-.5-1.2-1.2v-.1c0-.7.5-1.2 1.2-1.2h10c.7 0 1.2.5 1.2 1.2v.1c.1.7-.5 1.2-1.2 1.2zM562.1 385.1v8.5M575.4 391.1h-.2c-.9 0-1.7-.8-1.7-1.7v-.2c0-.9.8-1.7 1.7-1.7h.2c.9 0 1.7.8 1.7 1.7v.2c-.1.9-.8 1.7-1.7 1.7z"/>
    <path id="svg-concept" class="eff5" d="M581.9 391.5h-.2c-.9 0-1.7-.8-1.7-1.7v-.2c0-.9.8-1.7 1.7-1.7h.2c.9 0 1.7.8 1.7 1.7v.2c0 .9-.8 1.7-1.7 1.7z"/>
    <path class="eff1" d="M502 367.9v31.7M452.4 378.5v9.4M635.5 378.5v9.4M545.8 367.9v31.7M589.6 367.9v31.7"/>
    <path id="svg-concept" class="eff5" d="M616.9 384.1c0 3.7-3 6.8-6.8 6.8-3.7 0-6.8-3-6.8-6.8s3-6.8 6.8-6.8c3.8.1 6.8 3.1 6.8 6.8z"/>
    <path id="svg-concept" class="eff5" d="M612.7 384.1c0 1.4-1.1 2.5-2.5 2.5s-2.5-1.1-2.5-2.5 1.1-2.5 2.5-2.5 2.5 1.2 2.5 2.5zM616.9 384.2h-4.2M607.7 384.2h-4.3"/>
    <animate attributeName="opacity" values="0" begin="0s" repeatCount="indefinite"/>
    <animate attributeName="opacity" values="0;1" begin="4s" dur="2s" fill="freeze"/>
    <animateMotion path="M20, 0 0 0 0" begin="4s" dur="2s" fill="freeze"/>
  </g>
  <g>
    <path class="eff6" d="M837.3 321.5H685.8V54.2h151.5v267.3z"/>
    <path class="eff4" d="M824 85.1c0 2-1.5 3.7-3.4 3.7h-119c-1.9 0-3.4-1.6-3.4-3.7v-13c0-2 1.5-3.7 3.4-3.7h119c1.9 0 3.4 1.6 3.4 3.7v13z"/>
    <path class="eff1" d="M705.3 68.4v20.3M817.1 68.4v20.4"/>
    <path id="svg-concept" class="eff5" d="M808.2 78.6c0 2.4-2 4.4-4.4 4.4-2.4 0-4.4-2-4.4-4.4s2-4.4 4.4-4.4c2.5 0 4.4 2 4.4 4.4z"/>
    <path id="svg-concept" class="eff5" d="M805.5 78.6c0 .9-.7 1.6-1.6 1.6-.9 0-1.6-.7-1.6-1.6 0-.9.7-1.6 1.6-1.6.8 0 1.6.7 1.6 1.6zM808.2 78.6h-2.7M802.2 78.6h-2.7"/>
    <path class="eff4" d="M824 112.2c0 2-1.5 3.7-3.4 3.7h-119c-1.9 0-3.4-1.6-3.4-3.7v-13c0-2 1.5-3.7 3.4-3.7h119c1.9 0 3.4 1.6 3.4 3.7v13z"/>
    <path class="eff1" d="M705.3 95.5v20.3M817.1 95.5v20.4"/>
    <path id="svg-concept" class="eff5" d="M808.2 105.7c0 2.4-2 4.4-4.4 4.4-2.4 0-4.4-2-4.4-4.4 0-2.4 2-4.4 4.4-4.4 2.5 0 4.4 2 4.4 4.4z"/>
    <path id="svg-concept" class="eff5" d="M805.5 105.7c0 .9-.7 1.6-1.6 1.6-.9 0-1.6-.7-1.6-1.6s.7-1.6 1.6-1.6c.8 0 1.6.7 1.6 1.6zM808.2 105.7h-2.7M802.2 105.7h-2.7"/>
    <path class="eff4" d="M824 139.3c0 2-1.5 3.7-3.4 3.7h-119c-1.9 0-3.4-1.6-3.4-3.7v-13c0-2 1.5-3.7 3.4-3.7h119c1.9 0 3.4 1.6 3.4 3.7v13z"/>
    <path class="eff1" d="M705.3 122.6v20.3M817.1 122.6V143"/>
    <path id="svg-concept" class="eff5" d="M808.2 132.8c0 2.4-2 4.4-4.4 4.4-2.4 0-4.4-2-4.4-4.4s2-4.4 4.4-4.4c2.5 0 4.4 2 4.4 4.4z"/>
    <path id="svg-concept" class="eff5" d="M805.5 132.8c0 .9-.7 1.6-1.6 1.6-.9 0-1.6-.7-1.6-1.6s.7-1.6 1.6-1.6c.8 0 1.6.7 1.6 1.6zM808.2 132.8h-2.7M802.2 132.8h-2.7"/>
    <path class="eff4" d="M824 166.4c0 2-1.5 3.7-3.4 3.7h-119c-1.9 0-3.4-1.6-3.4-3.7v-13c0-2 1.5-3.7 3.4-3.7h119c1.9 0 3.4 1.6 3.4 3.7v13z"/>
    <path class="eff1" d="M705.3 149.7V170M817.1 149.7v20.4"/>
    <path id="svg-concept" class="eff5" d="M808.2 159.9c0 2.4-2 4.4-4.4 4.4-2.4 0-4.4-2-4.4-4.4s2-4.4 4.4-4.4c2.5 0 4.4 1.9 4.4 4.4z"/>
    <path id="svg-concept" class="eff5" d="M805.5 159.9c0 .9-.7 1.6-1.6 1.6-.9 0-1.6-.7-1.6-1.6 0-.9.7-1.6 1.6-1.6.8-.1 1.6.7 1.6 1.6zM808.2 159.9h-2.7M802.2 159.9h-2.7"/>
    <path class="eff4" d="M824 193.5c0 2-1.5 3.7-3.4 3.7h-119c-1.9 0-3.4-1.6-3.4-3.7v-13c0-2 1.5-3.7 3.4-3.7h119c1.9 0 3.4 1.6 3.4 3.7v13z"/>
    <path class="eff1" d="M705.3 176.8v20.3M817.1 176.8v20.3"/>
    <path id="svg-concept" class="eff5" d="M808.2 186.9c0 2.4-2 4.4-4.4 4.4-2.4 0-4.4-2-4.4-4.4 0-2.4 2-4.4 4.4-4.4 2.5.1 4.4 2 4.4 4.4z"/>
    <path id="svg-concept" class="eff5" d="M805.5 186.9c0 .9-.7 1.6-1.6 1.6-.9 0-1.6-.7-1.6-1.6s.7-1.6 1.6-1.6c.8 0 1.6.8 1.6 1.6zM808.2 187h-2.7M802.2 187h-2.7"/>
    <path class="eff4" d="M824 220.5c0 2-1.5 3.7-3.4 3.7h-119c-1.9 0-3.4-1.6-3.4-3.7v-13c0-2 1.5-3.7 3.4-3.7h119c1.9 0 3.4 1.6 3.4 3.7v13z"/>
    <path class="eff1" d="M705.3 203.8v20.3M817.1 203.8v20.4"/>
    <path id="svg-concept" class="eff5" d="M808.2 214c0 2.4-2 4.4-4.4 4.4-2.4 0-4.4-2-4.4-4.4s2-4.4 4.4-4.4c2.5.1 4.4 2 4.4 4.4z"/>
    <path id="svg-concept" class="eff5" d="M805.5 214c0 .9-.7 1.6-1.6 1.6-.9 0-1.6-.7-1.6-1.6s.7-1.6 1.6-1.6c.8 0 1.6.7 1.6 1.6zM808.2 214h-2.7M802.2 214h-2.7"/>
    <path class="eff4" d="M824 247.6c0 2-1.5 3.7-3.4 3.7h-119c-1.9 0-3.4-1.6-3.4-3.7v-13c0-2 1.5-3.7 3.4-3.7h119c1.9 0 3.4 1.6 3.4 3.7v13z"/>
    <path class="eff1" d="M705.3 230.9v20.3M817.1 230.9v20.4"/>
    <path id="svg-concept" class="eff5" d="M808.2 241.1c0 2.4-2 4.4-4.4 4.4-2.4 0-4.4-2-4.4-4.4s2-4.4 4.4-4.4c2.5.1 4.4 2 4.4 4.4z"/>
    <path id="svg-concept" class="eff5" d="M805.5 241.1c0 .9-.7 1.6-1.6 1.6-.9 0-1.6-.7-1.6-1.6s.7-1.6 1.6-1.6c.8 0 1.6.7 1.6 1.6zM808.2 241.1h-2.7M802.2 241.1h-2.7"/>
    <path class="eff4" d="M824 274.7c0 2-1.5 3.7-3.4 3.7h-119c-1.9 0-3.4-1.6-3.4-3.7v-13c0-2 1.5-3.7 3.4-3.7h119c1.9 0 3.4 1.6 3.4 3.7v13z"/>
    <path class="eff1" d="M705.3 258v20.3M817.1 258v20.4"/>
    <path id="svg-concept" class="eff5" d="M808.2 268.2c0 2.4-2 4.4-4.4 4.4-2.4 0-4.4-2-4.4-4.4 0-2.4 2-4.4 4.4-4.4 2.5 0 4.4 2 4.4 4.4z"/>
    <path id="svg-concept" class="eff5" d="M805.5 268.2c0 .9-.7 1.6-1.6 1.6-.9 0-1.6-.7-1.6-1.6s.7-1.6 1.6-1.6c.8 0 1.6.7 1.6 1.6zM808.2 268.2h-2.7M802.2 268.2h-2.7"/>
    <path class="eff4" d="M824 301.8c0 2-1.5 3.7-3.4 3.7h-119c-1.9 0-3.4-1.6-3.4-3.7v-13c0-2 1.5-3.7 3.4-3.7h119c1.9 0 3.4 1.6 3.4 3.7v13z"/>
    <path class="eff1" d="M705.3 285.1v20.3M817.1 285.1v20.4"/>
    <path id="svg-concept" class="eff5" d="M808.2 295.3c0 2.4-2 4.4-4.4 4.4-2.4 0-4.4-2-4.4-4.4s2-4.4 4.4-4.4c2.5 0 4.4 2 4.4 4.4z"/>
    <path id="svg-concept" class="eff5" d="M805.5 295.3c0 .9-.7 1.6-1.6 1.6-.9 0-1.6-.7-1.6-1.6s.7-1.6 1.6-1.6c.8 0 1.6.7 1.6 1.6zM808.2 295.3h-2.7M802.2 295.3h-2.7"/>
  </g>
  <g>
    <path class="eff6" d="M402.1 321.5H250.6V54.2h151.5v267.3z"/>
    <path class="eff4" d="M388.9 85.1c0 2-1.5 3.7-3.4 3.7h-119c-1.9 0-3.4-1.6-3.4-3.7v-13c0-2 1.5-3.7 3.4-3.7h119c1.9 0 3.4 1.6 3.4 3.7v13z"/>
    <path class="eff1" d="M270.1 68.4v20.3M382 68.4v20.4"/>
    <path id="svg-concept" class="eff5" d="M373 78.6c0 2.4-2 4.4-4.4 4.4-2.4 0-4.4-2-4.4-4.4s2-4.4 4.4-4.4c2.5 0 4.4 2 4.4 4.4z"/>
    <path id="svg-concept" class="eff5" d="M370.3 78.6c0 .9-.7 1.6-1.6 1.6-.9 0-1.6-.7-1.6-1.6 0-.9.7-1.6 1.6-1.6.9 0 1.6.7 1.6 1.6zM373 78.6h-2.7M367.1 78.6h-2.8"/>
    <path class="eff4" d="M388.9 112.2c0 2-1.5 3.7-3.4 3.7h-119c-1.9 0-3.4-1.6-3.4-3.7v-13c0-2 1.5-3.7 3.4-3.7h119c1.9 0 3.4 1.6 3.4 3.7v13z"/>
    <path class="eff1" d="M270.1 95.5v20.3M382 95.5v20.4"/>
    <path id="svg-concept" class="eff5" d="M373 105.7c0 2.4-2 4.4-4.4 4.4-2.4 0-4.4-2-4.4-4.4 0-2.4 2-4.4 4.4-4.4 2.5 0 4.4 2 4.4 4.4z"/>
    <path id="svg-concept" class="eff5" d="M370.3 105.7c0 .9-.7 1.6-1.6 1.6-.9 0-1.6-.7-1.6-1.6s.7-1.6 1.6-1.6c.9 0 1.6.7 1.6 1.6zM373 105.7h-2.7M367.1 105.7h-2.8"/>
    <path class="eff4" d="M388.9 139.3c0 2-1.5 3.7-3.4 3.7h-119c-1.9 0-3.4-1.6-3.4-3.7v-13c0-2 1.5-3.7 3.4-3.7h119c1.9 0 3.4 1.6 3.4 3.7v13z"/>
    <path class="eff1" d="M270.1 122.6v20.3M382 122.6V143"/>
    <path id="svg-concept" class="eff5" d="M373 132.8c0 2.4-2 4.4-4.4 4.4-2.4 0-4.4-2-4.4-4.4s2-4.4 4.4-4.4c2.5 0 4.4 2 4.4 4.4z"/>
    <path id="svg-concept" class="eff5" d="M370.3 132.8c0 .9-.7 1.6-1.6 1.6-.9 0-1.6-.7-1.6-1.6s.7-1.6 1.6-1.6c.9 0 1.6.7 1.6 1.6zM373 132.8h-2.7M367.1 132.8h-2.8"/>
    <path class="eff4" d="M388.9 166.4c0 2-1.5 3.7-3.4 3.7h-119c-1.9 0-3.4-1.6-3.4-3.7v-13c0-2 1.5-3.7 3.4-3.7h119c1.9 0 3.4 1.6 3.4 3.7v13z"/>
    <path class="eff1" d="M270.1 149.7V170M382 149.7v20.4"/>
    <path id="svg-concept" class="eff5" d="M373 159.9c0 2.4-2 4.4-4.4 4.4-2.4 0-4.4-2-4.4-4.4s2-4.4 4.4-4.4c2.5 0 4.4 1.9 4.4 4.4z"/>
    <path id="svg-concept" class="eff5" d="M370.3 159.9c0 .9-.7 1.6-1.6 1.6-.9 0-1.6-.7-1.6-1.6 0-.9.7-1.6 1.6-1.6.9-.1 1.6.7 1.6 1.6zM373 159.9h-2.7M367.1 159.9h-2.8"/>
    <path class="eff4" d="M388.9 193.5c0 2-1.5 3.7-3.4 3.7h-119c-1.9 0-3.4-1.6-3.4-3.7v-13c0-2 1.5-3.7 3.4-3.7h119c1.9 0 3.4 1.6 3.4 3.7v13z"/>
    <path class="eff1" d="M270.1 176.8v20.3M382 176.8v20.3"/>
    <path id="svg-concept" class="eff5" d="M373 186.9c0 2.4-2 4.4-4.4 4.4-2.4 0-4.4-2-4.4-4.4 0-2.4 2-4.4 4.4-4.4 2.5.1 4.4 2 4.4 4.4z"/>
    <path id="svg-concept" class="eff5" d="M370.3 186.9c0 .9-.7 1.6-1.6 1.6-.9 0-1.6-.7-1.6-1.6s.7-1.6 1.6-1.6c.9 0 1.6.8 1.6 1.6zM373 187h-2.7M367.1 187h-2.8"/>
    <path class="eff4" d="M388.9 220.5c0 2-1.5 3.7-3.4 3.7h-119c-1.9 0-3.4-1.6-3.4-3.7v-13c0-2 1.5-3.7 3.4-3.7h119c1.9 0 3.4 1.6 3.4 3.7v13z"/>
    <path class="eff1" d="M270.1 203.8v20.3M382 203.8v20.4"/>
    <path id="svg-concept" class="eff5" d="M373 214c0 2.4-2 4.4-4.4 4.4-2.4 0-4.4-2-4.4-4.4s2-4.4 4.4-4.4c2.5.1 4.4 2 4.4 4.4z"/>
    <path id="svg-concept" class="eff5" d="M370.3 214c0 .9-.7 1.6-1.6 1.6-.9 0-1.6-.7-1.6-1.6s.7-1.6 1.6-1.6c.9 0 1.6.7 1.6 1.6zM373 214h-2.7M367.1 214h-2.8"/>
    <path class="eff4" d="M388.9 247.6c0 2-1.5 3.7-3.4 3.7h-119c-1.9 0-3.4-1.6-3.4-3.7v-13c0-2 1.5-3.7 3.4-3.7h119c1.9 0 3.4 1.6 3.4 3.7v13z"/>
    <path class="eff1" d="M270.1 230.9v20.3M382 230.9v20.4"/>
    <path id="svg-concept" class="eff5" d="M373 241.1c0 2.4-2 4.4-4.4 4.4-2.4 0-4.4-2-4.4-4.4s2-4.4 4.4-4.4c2.5.1 4.4 2 4.4 4.4z"/>
    <path id="svg-concept" class="eff5" d="M370.3 241.1c0 .9-.7 1.6-1.6 1.6-.9 0-1.6-.7-1.6-1.6s.7-1.6 1.6-1.6c.9 0 1.6.7 1.6 1.6zM373 241.1h-2.7M367.1 241.1h-2.8"/>
    <path class="eff4" d="M388.9 274.7c0 2-1.5 3.7-3.4 3.7h-119c-1.9 0-3.4-1.6-3.4-3.7v-13c0-2 1.5-3.7 3.4-3.7h119c1.9 0 3.4 1.6 3.4 3.7v13z"/>
    <path class="eff1" d="M270.1 258v20.3M382 258v20.4"/>
    <path id="svg-concept" class="eff5" d="M373 268.2c0 2.4-2 4.4-4.4 4.4-2.4 0-4.4-2-4.4-4.4 0-2.4 2-4.4 4.4-4.4 2.5 0 4.4 2 4.4 4.4z"/>
    <path id="svg-concept" class="eff5" d="M370.3 268.2c0 .9-.7 1.6-1.6 1.6-.9 0-1.6-.7-1.6-1.6s.7-1.6 1.6-1.6c.9 0 1.6.7 1.6 1.6zM373 268.2h-2.7M367.1 268.2h-2.8"/>
    <path class="eff4" d="M388.9 301.8c0 2-1.5 3.7-3.4 3.7h-119c-1.9 0-3.4-1.6-3.4-3.7v-13c0-2 1.5-3.7 3.4-3.7h119c1.9 0 3.4 1.6 3.4 3.7v13z"/>
    <path class="eff1" d="M270.1 285.1v20.3M382 285.1v20.4"/>
    <path id="svg-concept" class="eff5" d="M373 295.3c0 2.4-2 4.4-4.4 4.4-2.4 0-4.4-2-4.4-4.4s2-4.4 4.4-4.4c2.5 0 4.4 2 4.4 4.4z"/>
    <path id="svg-concept" class="eff5" d="M370.3 295.3c0 .9-.7 1.6-1.6 1.6-.9 0-1.6-.7-1.6-1.6s.7-1.6 1.6-1.6c.9 0 1.6.7 1.6 1.6zM373 295.3h-2.7M367.1 295.3h-2.8"/>
  </g>
  <g>
    <path class="eff0" d="M977.5 284.9H862.8V82.4h114.8v202.5z"/>
    <path class="eff1" d="M967.5 105.8c0 1.5-1.1 2.8-2.5 2.8h-90.1c-1.4 0-2.5-1.2-2.5-2.8V96c0-1.5 1.1-2.8 2.5-2.8H965c1.4 0 2.5 1.2 2.5 2.8v9.8zM877.6 93.2v15.4M962.3 93.2v15.4"/>
    <path class="eff7" d="M955.5 100.9c0 1.8-1.5 3.3-3.3 3.3-1.8 0-3.3-1.5-3.3-3.3 0-1.8 1.5-3.3 3.3-3.3 1.8 0 3.3 1.5 3.3 3.3z"/>
    <path class="eff7" d="M953.4 100.9c0 .7-.5 1.2-1.2 1.2s-1.2-.5-1.2-1.2.5-1.2 1.2-1.2 1.2.5 1.2 1.2zM955.5 100.9h-2.1M951 100.9h-2.1"/>
    <path class="eff1" d="M967.5 126.3c0 1.5-1.1 2.8-2.5 2.8h-90.1c-1.4 0-2.5-1.2-2.5-2.8v-9.9c0-1.5 1.1-2.8 2.5-2.8H965c1.4 0 2.5 1.2 2.5 2.8v9.9zM877.6 113.7v15.4M962.3 113.7v15.4"/>
    <path class="eff7" d="M955.5 121.4c0 1.8-1.5 3.3-3.3 3.3-1.8 0-3.3-1.5-3.3-3.3 0-1.8 1.5-3.3 3.3-3.3 1.8 0 3.3 1.5 3.3 3.3z"/>
    <path class="eff7" d="M953.4 121.4c0 .7-.5 1.2-1.2 1.2s-1.2-.5-1.2-1.2.5-1.2 1.2-1.2 1.2.5 1.2 1.2zM955.5 121.4h-2.1M951 121.4h-2.1"/>
    <path class="eff1" d="M967.5 146.9c0 1.5-1.1 2.8-2.5 2.8h-90.1c-1.4 0-2.5-1.2-2.5-2.8V137c0-1.5 1.1-2.8 2.5-2.8H965c1.4 0 2.5 1.2 2.5 2.8v9.9zM877.6 134.2v15.4M962.3 134.2v15.4"/>
    <path class="eff7" d="M955.5 141.9c0 1.8-1.5 3.3-3.3 3.3-1.8 0-3.3-1.5-3.3-3.3s1.5-3.3 3.3-3.3c1.8 0 3.3 1.5 3.3 3.3z"/>
    <path class="eff7" d="M953.4 141.9c0 .7-.5 1.2-1.2 1.2s-1.2-.5-1.2-1.2.5-1.2 1.2-1.2 1.2.5 1.2 1.2zM955.5 141.9h-2.1M951 141.9h-2.1"/>
    <path class="eff1" d="M967.5 167.4c0 1.5-1.1 2.8-2.5 2.8h-90.1c-1.4 0-2.5-1.2-2.5-2.8v-9.9c0-1.5 1.1-2.8 2.5-2.8H965c1.4 0 2.5 1.2 2.5 2.8v9.9zM877.6 154.7v15.4M962.3 154.7v15.5"/>
    <path class="eff7" d="M955.5 162.4c0 1.8-1.5 3.3-3.3 3.3-1.8 0-3.3-1.5-3.3-3.3 0-1.8 1.5-3.3 3.3-3.3 1.8 0 3.3 1.5 3.3 3.3z"/>
    <path class="eff7" d="M953.4 162.4c0 .7-.5 1.2-1.2 1.2s-1.2-.5-1.2-1.2.5-1.2 1.2-1.2 1.2.6 1.2 1.2zM955.5 162.4h-2.1M951 162.4h-2.1"/>
    <path class="eff1" d="M967.5 187.9c0 1.5-1.1 2.8-2.5 2.8h-90.1c-1.4 0-2.5-1.2-2.5-2.8V178c0-1.5 1.1-2.8 2.5-2.8H965c1.4 0 2.5 1.2 2.5 2.8v9.9zM877.6 175.2v15.4M962.3 175.2v15.5"/>
    <path class="eff7" d="M955.5 182.9c0 1.8-1.5 3.3-3.3 3.3-1.8 0-3.3-1.5-3.3-3.3 0-1.8 1.5-3.3 3.3-3.3 1.8.1 3.3 1.5 3.3 3.3z"/>
    <path class="eff7" d="M953.4 183c0 .7-.5 1.2-1.2 1.2s-1.2-.5-1.2-1.2.5-1.2 1.2-1.2c.7-.1 1.2.5 1.2 1.2zM955.5 183h-2.1M951 183h-2.1"/>
    <path class="eff1" d="M967.5 208.4c0 1.5-1.1 2.8-2.5 2.8h-90.1c-1.4 0-2.5-1.2-2.5-2.8v-9.9c0-1.5 1.1-2.8 2.5-2.8H965c1.4 0 2.5 1.2 2.5 2.8v9.9zM877.6 195.7v15.4M962.3 195.7v15.5"/>
    <path class="eff7" d="M955.5 203.5c0 1.8-1.5 3.3-3.3 3.3-1.8 0-3.3-1.5-3.3-3.3s1.5-3.3 3.3-3.3c1.8 0 3.3 1.4 3.3 3.3z"/>
    <path class="eff7" d="M953.4 203.5c0 .7-.5 1.2-1.2 1.2s-1.2-.5-1.2-1.2.5-1.2 1.2-1.2c.7-.1 1.2.5 1.2 1.2zM955.5 203.5h-2.1M951 203.5h-2.1"/>
    <path class="eff1" d="M967.5 228.9c0 1.5-1.1 2.8-2.5 2.8h-90.1c-1.4 0-2.5-1.2-2.5-2.8V219c0-1.5 1.1-2.8 2.5-2.8H965c1.4 0 2.5 1.2 2.5 2.8v9.9zM877.6 216.3v15.3M962.3 216.3v15.4"/>
    <path class="eff7" d="M955.5 224c0 1.8-1.5 3.3-3.3 3.3-1.8 0-3.3-1.5-3.3-3.3s1.5-3.3 3.3-3.3c1.8 0 3.3 1.4 3.3 3.3z"/>
    <path class="eff7" d="M953.4 224c0 .7-.5 1.2-1.2 1.2s-1.2-.5-1.2-1.2.5-1.2 1.2-1.2 1.2.5 1.2 1.2zM955.5 224h-2.1M951 224h-2.1"/>
    <path class="eff1" d="M967.5 249.4c0 1.5-1.1 2.8-2.5 2.8h-90.1c-1.4 0-2.5-1.2-2.5-2.8v-9.9c0-1.5 1.1-2.8 2.5-2.8H965c1.4 0 2.5 1.2 2.5 2.8v9.9zM877.6 236.8v15.3M962.3 236.8v15.4"/>
    <path class="eff7" d="M955.5 244.5c0 1.8-1.5 3.3-3.3 3.3-1.8 0-3.3-1.5-3.3-3.3 0-1.8 1.5-3.3 3.3-3.3 1.8 0 3.3 1.5 3.3 3.3z"/>
    <path class="eff7" d="M953.4 244.5c0 .7-.5 1.2-1.2 1.2s-1.2-.5-1.2-1.2.5-1.2 1.2-1.2 1.2.5 1.2 1.2zM955.5 244.5h-2.1M951 244.5h-2.1"/>
    <path class="eff1" d="M967.5 269.9c0 1.5-1.1 2.8-2.5 2.8h-90.1c-1.4 0-2.5-1.2-2.5-2.8V260c0-1.5 1.1-2.8 2.5-2.8H965c1.4 0 2.5 1.2 2.5 2.8v9.9zM877.6 257.3v15.4M962.3 257.3v15.4"/>
    <path class="eff7" d="M955.5 265c0 1.8-1.5 3.3-3.3 3.3-1.8 0-3.3-1.5-3.3-3.3 0-1.8 1.5-3.3 3.3-3.3 1.8 0 3.3 1.5 3.3 3.3z"/>
    <path class="eff7" d="M953.4 265c0 .7-.5 1.2-1.2 1.2s-1.2-.5-1.2-1.2.5-1.2 1.2-1.2 1.2.5 1.2 1.2zM955.5 265h-2.1M951 265h-2.1"/>
  </g>
</svg>
