<svg version="1.1" id="Layer_1" xmlns="http://www.w3.org/2000/svg" x="0" y="0" viewBox="0 0 524.8 419.6" xml:space="preserve">
  <style>
    .emailc0,.emailc1,.emailc2{fill:#fff;stroke-linecap:round;stroke-linejoin:round;stroke-miterlimit:10}.emailc0{stroke-width:3;stroke:#ee5586}.emailc1,.emailc2{stroke:gray}.emailc2{stroke:#ee5586}.emailc3{fill:#ee5586}
  </style>
  <path id="svg-concept" class="emailc0" d="M369.2 5.2h28.3c7.5 0 13.5 6.1 13.5 13.5V399c0 7.5-6 13.5-13.5 13.5H17.2c-7.5 0-13.5-6-13.5-13.5V18.7c0-7.5 6-13.5 13.5-13.5H369.2z"/>
  <path class="emailc1" d="M3.7 276H411M2.5 208.8h407.3M2.5 343.2h407.3M3.7 140.2H411M139.6 140.7v271.8M275.3 140.7v271.8M91.3 221.8L50.1 263M230.4 287.5l-41.2 41.2"/>
  <g>
    <path class="emailc1" d="M315.8 78h188v209.8h-188zM443.5 211.1h-69.6M419.4 238.6h-45.5M464.8 183.6h-90.9"/>
    <path id="svg-concept" class="emailc2" d="M465.7 156.1h-91.8M419.8 128.6h-45.9M451.6 81.8v42.9l15.6-12.5 15.6 12.5V77.9s1.9-9.4-9.4-9.4h-18.7s-11.9-1.9-12.5 9.4M357.8 128.6c0 3.1-2.5 5.7-5.7 5.7-3.1 0-5.7-2.5-5.7-5.7 0-3.1 2.5-5.7 5.7-5.7s5.7 2.5 5.7 5.7zM357.8 155.9c0 3.1-2.5 5.7-5.7 5.7-3.1 0-5.7-2.5-5.7-5.7s2.5-5.7 5.7-5.7c3.2.1 5.7 2.6 5.7 5.7z"/>
    <path class="emailc1" d="M357.8 183.3c0 3.1-2.5 5.7-5.7 5.7-3.1 0-5.7-2.5-5.7-5.7s2.5-5.7 5.7-5.7 5.7 2.6 5.7 5.7zM357.8 210.7c0 3.1-2.5 5.7-5.7 5.7-3.1 0-5.7-2.5-5.7-5.7s2.5-5.7 5.7-5.7 5.7 2.5 5.7 5.7zM357.8 238c0 3.1-2.5 5.7-5.7 5.7-3.1 0-5.7-2.5-5.7-5.7s2.5-5.7 5.7-5.7c3.2.1 5.7 2.6 5.7 5.7z"/>
    <animateMotion path="M0, 0 -15 0 0 0" begin="0s" dur="3s" repeatCount="indefinite"/>
  </g>
  <g>
    <circle id="svg-ico" class="emailc3" cx="250.9" cy="163.6" r="4.3"/>
    <animate attributeName="opacity" values="0;1;0" dur="1s" repeatCount="indefinite"/>
  </g>
  <g>
    <circle id="svg-ico" class="emailc3" cx="115.7" cy="299.9" r="4.3"/>
    <animate attributeName="opacity" values="0;1;0" dur="2s" repeatCount="indefinite"/>
  </g>
  <g>
    <circle id="svg-ico" class="emailc3" cx="386.8" cy="366.9" r="4.3"/>
    <animate attributeName="opacity" values="0;1;0" dur="0.5s" repeatCount="indefinite"/>
  </g>
</svg>
