<svg version="1.1" id="Layer_1" xmlns="http://www.w3.org/2000/svg" x="0" y="0" viewBox="0 0 1469.9 615" xml:space="preserve">
  <style>
    .st0{opacity:.5;fill:none;stroke:gray;stroke-linecap:round;stroke-linejoin:round;stroke-miterlimit:10;stroke-opacity:.5}
  </style>
  <path class="st0" d="M28.1 49.4c0 2.4-1.9 4.3-4.3 4.3s-4.3-1.9-4.3-4.3 1.9-4.3 4.3-4.3 4.3 1.9 4.3 4.3zM75.4 49.4c0 2.4-1.9 4.3-4.3 4.3s-4.3-1.9-4.3-4.3 1.9-4.3 4.3-4.3 4.3 1.9 4.3 4.3zM122.9 49.4c0 2.4-1.9 4.3-4.3 4.3s-4.3-1.9-4.3-4.3 1.9-4.3 4.3-4.3 4.3 1.9 4.3 4.3zM170.3 49.4c0 2.4-1.9 4.3-4.3 4.3s-4.3-1.9-4.3-4.3 1.9-4.3 4.3-4.3c2.3 0 4.3 1.9 4.3 4.3zM217.7 49.4c0 2.4-1.9 4.3-4.3 4.3s-4.3-1.9-4.3-4.3 1.9-4.3 4.3-4.3 4.3 1.9 4.3 4.3zM265.2 49.4c0 2.4-1.9 4.3-4.3 4.3s-4.3-1.9-4.3-4.3 1.9-4.3 4.3-4.3 4.3 1.9 4.3 4.3zM312.5 49.4c0 2.4-1.9 4.3-4.3 4.3s-4.3-1.9-4.3-4.3 1.9-4.3 4.3-4.3 4.3 1.9 4.3 4.3zM75.4 49.4l66.9-35.2M66.8 49.4l-19.3-10M122.9 49.4l66.8-35.2M114.3 49.4l-19.4-10M161.6 49.4l-19.3-10M28.1 49.4l66.7-35.2M0 39.4l47.5-25.2M0 39.4l19.5 10M265.2 49.4l66.7-35.2M256.6 49.4l-19.5-10M312.5 49.4l66.9-35.2M303.9 49.4l-19.4-10M351.4 49.4l-19.5-10M217.7 49.4l66.8-35.2M170.3 49.4l66.8-35.2M189.7 39.4l19.4 10M303.9 4.3c0-2.4 1.9-4.3 4.3-4.3s4.3 1.9 4.3 4.3-1.9 4.3-4.3 4.3c-2.3 0-4.3-1.9-4.3-4.3zM256.6 4.3c0-2.4 1.9-4.3 4.3-4.3s4.3 1.9 4.3 4.3-1.9 4.3-4.3 4.3c-2.5 0-4.3-1.9-4.3-4.3zM209.1 4.3c0-2.4 1.9-4.3 4.3-4.3s4.3 1.9 4.3 4.3-1.9 4.3-4.3 4.3-4.3-1.9-4.3-4.3zM161.6 4.3c0-2.4 1.9-4.3 4.3-4.3s4.3 1.9 4.3 4.3-1.9 4.3-4.3 4.3c-2.3 0-4.3-1.9-4.3-4.3zM114.3 4.3c0-2.4 1.9-4.3 4.3-4.3s4.3 1.9 4.3 4.3-1.9 4.3-4.3 4.3-4.3-1.9-4.3-4.3zM66.8 4.3c0-2.4 1.9-4.3 4.3-4.3s4.3 1.9 4.3 4.3-1.9 4.3-4.3 4.3c-2.3 0-4.3-1.9-4.3-4.3zM19.5 4.3c0-2.4 1.9-4.3 4.3-4.3s4.3 1.9 4.3 4.3-1.9 4.3-4.3 4.3c-2.5 0-4.3-1.9-4.3-4.3zM256.6 4.3l-19.5 9.9M265.2 4.3l19.3 9.9M209.1 4.3l-19.4 9.9M217.7 4.3l19.4 9.9M170.3 4.3l19.4 9.9M303.9 4.3l-19.4 9.9M351.4 4.3l-19.5 9.9M331.9 14.2l-19.4-9.9M66.8 4.3l-19.3 9.9M75.4 4.3l19.4 9.9M19.5 4.3L0 14.2M28.1 4.3l19.4 9.9M114.3 4.3l-19.5 9.9M161.6 4.3l-19.3 9.9M142.3 14.2l-19.4-9.9M407.3 49.4c0 2.4-1.9 4.3-4.3 4.3s-4.3-1.9-4.3-4.3 1.9-4.3 4.3-4.3 4.3 1.9 4.3 4.3zM360 49.4c0 2.4-1.9 4.3-4.3 4.3s-4.3-1.9-4.3-4.3 1.9-4.3 4.3-4.3 4.3 1.9 4.3 4.3zM454.8 49.4c0 2.4-1.9 4.3-4.3 4.3s-4.3-1.9-4.3-4.3 1.9-4.3 4.3-4.3 4.3 1.9 4.3 4.3zM502.3 49.4c0 2.4-1.9 4.3-4.3 4.3s-4.3-1.9-4.3-4.3 1.9-4.3 4.3-4.3 4.3 1.9 4.3 4.3zM549.6 49.4c0 2.4-1.9 4.3-4.3 4.3s-4.3-1.9-4.3-4.3 1.9-4.3 4.3-4.3 4.3 1.9 4.3 4.3zM597.1 49.4c0 2.4-1.9 4.3-4.3 4.3s-4.3-1.9-4.3-4.3 1.9-4.3 4.3-4.3 4.3 1.9 4.3 4.3zM644.4 49.4c0 2.4-1.9 4.3-4.3 4.3s-4.3-1.9-4.3-4.3 1.9-4.3 4.3-4.3 4.3 1.9 4.3 4.3zM691.9 49.4c0 2.4-1.9 4.3-4.3 4.3s-4.3-1.9-4.3-4.3 1.9-4.3 4.3-4.3c2.3 0 4.3 1.9 4.3 4.3zM454.8 49.4l66.8-35.2M446.2 49.4l-19.4-10M502.3 49.4L569 14.2M493.6 49.4l-19.4-10M541 49.4l-19.4-10M407.3 49.4l66.9-35.2M360 49.4l66.8-35.2M379.4 39.4l19.3 10M644.4 49.4l66.9-35.2M635.8 49.4l-19.4-10M683.3 49.4l-19.4-10M730.7 49.4l-19.4-10M597.1 49.4l66.8-35.2M549.6 49.4l66.8-35.2M569 39.4l19.5 10M683.3 4.3c0-2.4 1.9-4.3 4.3-4.3s4.3 1.9 4.3 4.3-1.9 4.3-4.3 4.3-4.3-1.9-4.3-4.3zM635.8 4.3c0-2.4 1.9-4.3 4.3-4.3s4.3 1.9 4.3 4.3-1.9 4.3-4.3 4.3-4.3-1.9-4.3-4.3zM588.5 4.3c0-2.4 1.9-4.3 4.3-4.3s4.3 1.9 4.3 4.3-1.9 4.3-4.3 4.3-4.3-1.9-4.3-4.3zM541 4.3c0-2.4 1.9-4.3 4.3-4.3s4.3 1.9 4.3 4.3-1.9 4.3-4.3 4.3-4.3-1.9-4.3-4.3zM493.6 4.3c0-2.4 1.9-4.3 4.3-4.3s4.3 1.9 4.3 4.3-1.9 4.3-4.3 4.3-4.3-1.9-4.3-4.3zM446.2 4.3c0-2.4 1.9-4.3 4.3-4.3s4.3 1.9 4.3 4.3-1.9 4.3-4.3 4.3-4.3-1.9-4.3-4.3zM398.7 4.3c0-2.4 1.9-4.3 4.3-4.3s4.3 1.9 4.3 4.3-1.9 4.3-4.3 4.3-4.3-1.9-4.3-4.3zM351.4 4.3c0-2.4 1.9-4.3 4.3-4.3s4.3 1.9 4.3 4.3-1.9 4.3-4.3 4.3-4.3-1.9-4.3-4.3zM635.8 4.3l-19.4 9.9M644.4 4.3l19.5 9.9M588.5 4.3L569 14.2M597.1 4.3l19.3 9.9M549.6 4.3l19.4 9.9M683.3 4.3l-19.4 9.9M711.3 14.2l-19.4-9.9M446.2 4.3l-19.4 9.9M454.8 4.3l19.4 9.9M398.7 4.3l-19.3 9.9M407.3 4.3l19.5 9.9M360 4.3l19.4 9.9M493.6 4.3l-19.4 9.9M541 4.3l-19.4 9.9M521.6 14.2l-19.3-9.9M739.1 49.4c0 2.4-1.9 4.3-4.3 4.3s-4.3-1.9-4.3-4.3 1.9-4.3 4.3-4.3 4.3 1.9 4.3 4.3zM786.5 49.4c0 2.4-1.9 4.3-4.3 4.3s-4.3-1.9-4.3-4.3 1.9-4.3 4.3-4.3c2.3 0 4.3 1.9 4.3 4.3zM833.9 49.4c0 2.4-1.9 4.3-4.3 4.3s-4.3-1.9-4.3-4.3 1.9-4.3 4.3-4.3 4.3 1.9 4.3 4.3zM881.3 49.4c0 2.4-1.9 4.3-4.3 4.3s-4.3-1.9-4.3-4.3 1.9-4.3 4.3-4.3c2.5 0 4.3 1.9 4.3 4.3zM928.7 49.4c0 2.4-1.9 4.3-4.3 4.3s-4.3-1.9-4.3-4.3 1.9-4.3 4.3-4.3 4.3 1.9 4.3 4.3zM976.2 49.4c0 2.4-1.9 4.3-4.3 4.3s-4.3-1.9-4.3-4.3 1.9-4.3 4.3-4.3 4.3 1.9 4.3 4.3zM1023.6 49.4c0 2.4-1.9 4.3-4.3 4.3s-4.3-1.9-4.3-4.3 1.9-4.3 4.3-4.3 4.3 1.9 4.3 4.3zM1071 49.4c0 2.4-1.9 4.3-4.3 4.3s-4.3-1.9-4.3-4.3 1.9-4.3 4.3-4.3 4.3 1.9 4.3 4.3zM786.5 49.4l66.8-35.2M777.9 49.4l-19.4-10M833.9 49.4l66.9-35.2M825.3 49.4l-19.3-10M872.7 49.4l-19.4-10M739.1 49.4L806 14.2M691.7 49.4l66.8-35.2M976.2 49.4l66.8-35.2M967.6 49.4l-19.5-10M1023.6 49.4l66.8-35.2M1015 49.4l-19.4-10M1062.4 49.4l-17.6-10.9M928.7 49.4l66.9-35.2M881.4 49.4l66.7-35.2M900.8 39.4l19.3 10M1015 4.3c0-2.4 1.9-4.3 4.3-4.3s4.3 1.9 4.3 4.3-1.9 4.3-4.3 4.3-4.3-1.9-4.3-4.3zM1062.4 4.3c0-2.4 1.9-4.3 4.3-4.3s4.3 1.9 4.3 4.3-1.9 4.3-4.3 4.3-4.3-1.9-4.3-4.3zM967.6 4.3c0-2.4 1.9-4.3 4.3-4.3s4.3 1.9 4.3 4.3-1.9 4.3-4.3 4.3-4.3-1.9-4.3-4.3zM920.1 4.3c0-2.4 1.9-4.3 4.3-4.3s4.3 1.9 4.3 4.3-1.9 4.3-4.3 4.3-4.3-1.9-4.3-4.3zM872.7 4.3c0-2.4 1.9-4.3 4.3-4.3s4.3 1.9 4.3 4.3-1.9 4.3-4.3 4.3-4.3-1.9-4.3-4.3zM825.3 4.3c0-2.4 1.9-4.3 4.3-4.3s4.3 1.9 4.3 4.3-1.9 4.3-4.3 4.3-4.3-1.9-4.3-4.3zM777.9 4.3c0-2.4 1.9-4.3 4.3-4.3s4.3 1.9 4.3 4.3-1.9 4.3-4.3 4.3-4.3-1.9-4.3-4.3zM730.5 4.3c0-2.4 1.9-4.3 4.3-4.3s4.3 1.9 4.3 4.3-1.9 4.3-4.3 4.3-4.3-1.9-4.3-4.3zM967.6 4.3l-19.5 9.9M976.2 4.3l19.4 9.9M920.1 4.3l-19.3 9.9M928.7 4.3l19.4 9.9M881.3 4.3l19.5 9.9M1015 4.3l-19.4 9.9M1062.4 4.3l-19.4 9.9M1043 14.2l-19.4-9.9M777.9 4.3l-19.4 9.9M786.5 4.3l19.5 9.9M730.5 4.3l-19.2 9.9M739.1 4.3l19.4 9.9M825.3 4.3L806 14.2M872.7 4.3l-19.4 9.9M853.3 14.2l-19.4-9.9M28.1 126.3c0 2.4-1.9 4.3-4.3 4.3s-4.3-1.9-4.3-4.3 1.9-4.3 4.3-4.3 4.3 1.9 4.3 4.3zM75.4 126.3c0 2.4-1.9 4.3-4.3 4.3s-4.3-1.9-4.3-4.3 1.9-4.3 4.3-4.3 4.3 1.9 4.3 4.3zM122.9 126.3c0 2.4-1.9 4.3-4.3 4.3s-4.3-1.9-4.3-4.3 1.9-4.3 4.3-4.3 4.3 1.9 4.3 4.3zM170.3 126.3c0 2.4-1.9 4.3-4.3 4.3s-4.3-1.9-4.3-4.3 1.9-4.3 4.3-4.3c2.3 0 4.3 1.9 4.3 4.3zM217.7 126.3c0 2.4-1.9 4.3-4.3 4.3s-4.3-1.9-4.3-4.3 1.9-4.3 4.3-4.3 4.3 1.9 4.3 4.3zM265.2 126.3c0 2.4-1.9 4.3-4.3 4.3s-4.3-1.9-4.3-4.3 1.9-4.3 4.3-4.3 4.3 1.9 4.3 4.3zM312.5 126.3c0 2.4-1.9 4.3-4.3 4.3s-4.3-1.9-4.3-4.3 1.9-4.3 4.3-4.3 4.3 1.9 4.3 4.3zM75.4 126.3l66.9-35.1M66.8 126.3l-19.3-10M122.9 126.3l66.8-35.1M114.3 126.3l-19.4-10M161.6 126.3l-19.3-10M28.1 126.3l66.7-35.1M0 116.3l47.5-25.1M0 116.3l19.5 10M265.2 126.3l66.7-35.1M256.6 126.3l-19.5-10M312.5 126.3l66.9-35.1M303.9 126.3l-19.4-10M351.4 126.3l-19.5-10M217.7 126.3l66.8-35.1M170.3 126.3l66.8-35.1M189.7 116.3l19.4 10M303.9 81.3c0-2.4 1.9-4.3 4.3-4.3s4.3 1.9 4.3 4.3-1.9 4.3-4.3 4.3c-2.3-.2-4.3-2-4.3-4.3zM256.6 81.3c0-2.4 1.9-4.3 4.3-4.3s4.3 1.9 4.3 4.3-1.9 4.3-4.3 4.3c-2.5-.2-4.3-2-4.3-4.3zM209.1 81.3c0-2.4 1.9-4.3 4.3-4.3s4.3 1.9 4.3 4.3-1.9 4.3-4.3 4.3c-2.4-.2-4.3-2-4.3-4.3zM161.6 81.3c0-2.4 1.9-4.3 4.3-4.3s4.3 1.9 4.3 4.3-1.9 4.3-4.3 4.3c-2.3-.2-4.3-2-4.3-4.3zM114.3 81.3c0-2.4 1.9-4.3 4.3-4.3s4.3 1.9 4.3 4.3-1.9 4.3-4.3 4.3c-2.4-.2-4.3-2-4.3-4.3zM66.8 81.3c0-2.4 1.9-4.3 4.3-4.3s4.3 1.9 4.3 4.3-1.9 4.3-4.3 4.3c-2.3-.2-4.3-2-4.3-4.3zM19.5 81.3c0-2.4 1.9-4.3 4.3-4.3s4.3 1.9 4.3 4.3-1.9 4.3-4.3 4.3c-2.5-.2-4.3-2-4.3-4.3zM256.6 81.1l-19.5 10.1M265.2 81.1l19.3 10.1M209.1 81.1l-19.4 10.1M217.7 81.1l19.4 10.1M170.3 81.1l19.4 10.1M303.9 81.1l-19.4 10.1M351.4 81.3l-19.5 9.9M331.9 91.2l-19.4-10.1M66.8 81.1L47.5 91.2M75.4 81.1l19.4 10.1M19.5 81.1L0 91.2M28.1 81.1l19.4 10.1M114.3 81.1L94.8 91.2M161.6 81.1l-19.3 10.1M142.3 91.2l-19.4-10.1M407.3 126.3c0 2.4-1.9 4.3-4.3 4.3s-4.3-1.9-4.3-4.3 1.9-4.3 4.3-4.3 4.3 1.9 4.3 4.3zM360 126.3c0 2.4-1.9 4.3-4.3 4.3s-4.3-1.9-4.3-4.3 1.9-4.3 4.3-4.3 4.3 1.9 4.3 4.3zM454.8 126.3c0 2.4-1.9 4.3-4.3 4.3s-4.3-1.9-4.3-4.3 1.9-4.3 4.3-4.3 4.3 1.9 4.3 4.3zM502.3 126.3c0 2.4-1.9 4.3-4.3 4.3s-4.3-1.9-4.3-4.3 1.9-4.3 4.3-4.3 4.3 1.9 4.3 4.3zM549.6 126.3c0 2.4-1.9 4.3-4.3 4.3s-4.3-1.9-4.3-4.3 1.9-4.3 4.3-4.3 4.3 1.9 4.3 4.3zM597.1 126.3c0 2.4-1.9 4.3-4.3 4.3s-4.3-1.9-4.3-4.3 1.9-4.3 4.3-4.3 4.3 1.9 4.3 4.3zM644.4 126.3c0 2.4-1.9 4.3-4.3 4.3s-4.3-1.9-4.3-4.3 1.9-4.3 4.3-4.3 4.3 1.9 4.3 4.3zM691.9 126.3c0 2.4-1.9 4.3-4.3 4.3s-4.3-1.9-4.3-4.3 1.9-4.3 4.3-4.3c2.3 0 4.3 1.9 4.3 4.3zM454.8 126.3l66.8-35.1M446.2 126.3l-19.4-10M502.3 126.3L569 91.2M493.6 126.3l-19.4-10M541 126.3l-19.4-10M407.3 126.3l66.9-35.1M360 126.2l66.8-35M379.4 116.3l19.3 10M644.4 126.3l66.9-35.1M635.8 126.3l-19.4-10M683.3 126.3l-19.4-10M730.7 126.3l-19.4-10M597.1 126.3l66.8-35.1M549.6 126.3l66.8-35.1M569 116.3l19.5 10M683.3 81.3c0-2.4 1.9-4.3 4.3-4.3s4.3 1.9 4.3 4.3-1.9 4.3-4.3 4.3c-2.4-.2-4.3-2-4.3-4.3zM635.8 81.3c0-2.4 1.9-4.3 4.3-4.3s4.3 1.9 4.3 4.3-1.9 4.3-4.3 4.3c-2.4-.2-4.3-2-4.3-4.3zM588.5 81.3c0-2.4 1.9-4.3 4.3-4.3s4.3 1.9 4.3 4.3-1.9 4.3-4.3 4.3c-2.4-.2-4.3-2-4.3-4.3zM541 81.3c0-2.4 1.9-4.3 4.3-4.3s4.3 1.9 4.3 4.3-1.9 4.3-4.3 4.3c-2.4-.2-4.3-2-4.3-4.3zM493.6 81.3c0-2.4 1.9-4.3 4.3-4.3s4.3 1.9 4.3 4.3-1.9 4.3-4.3 4.3c-2.4-.2-4.3-2-4.3-4.3zM446.2 81.3c0-2.4 1.9-4.3 4.3-4.3s4.3 1.9 4.3 4.3-1.9 4.3-4.3 4.3c-2.4-.2-4.3-2-4.3-4.3zM398.7 81.3c0-2.4 1.9-4.3 4.3-4.3s4.3 1.9 4.3 4.3-1.9 4.3-4.3 4.3c-2.3-.2-4.3-2-4.3-4.3zM351.4 81.3c0-2.4 1.9-4.3 4.3-4.3s4.3 1.9 4.3 4.3-1.9 4.3-4.3 4.3c-2.4-.2-4.3-2-4.3-4.3zM635.8 81.1l-19.4 10.1M644.4 81.1l19.5 10.1M588.5 81.1L569 91.2M597.1 81.1l19.3 10.1M549.6 81.1L569 91.2M683.3 81.1l-19.4 10.1M711.3 91.2l-19.4-10.1M446.2 81.1l-19.4 10.1M454.8 81.1l19.4 10.1M398.7 81.1l-19.3 10.1M407.3 81.1l19.5 10.1M360 81.1l19.4 10.1M493.6 81.1l-19.4 10.1M541 81.1l-19.4 10.1M521.6 91.2l-19.3-10.1M739.1 126.3c0 2.4-1.9 4.3-4.3 4.3s-4.3-1.9-4.3-4.3 1.9-4.3 4.3-4.3 4.3 1.9 4.3 4.3zM786.5 126.3c0 2.4-1.9 4.3-4.3 4.3s-4.3-1.9-4.3-4.3 1.9-4.3 4.3-4.3c2.3 0 4.3 1.9 4.3 4.3zM833.9 126.3c0 2.4-1.9 4.3-4.3 4.3s-4.3-1.9-4.3-4.3 1.9-4.3 4.3-4.3 4.3 1.9 4.3 4.3zM881.3 126.3c0 2.4-1.9 4.3-4.3 4.3s-4.3-1.9-4.3-4.3 1.9-4.3 4.3-4.3c2.5 0 4.3 1.9 4.3 4.3zM928.7 126.3c0 2.4-1.9 4.3-4.3 4.3s-4.3-1.9-4.3-4.3 1.9-4.3 4.3-4.3 4.3 1.9 4.3 4.3zM976.2 126.3c0 2.4-1.9 4.3-4.3 4.3s-4.3-1.9-4.3-4.3 1.9-4.3 4.3-4.3 4.3 1.9 4.3 4.3zM1023.6 126.3c0 2.4-1.9 4.3-4.3 4.3s-4.3-1.9-4.3-4.3 1.9-4.3 4.3-4.3 4.3 1.9 4.3 4.3zM1071 126.3c0 2.4-1.9 4.3-4.3 4.3s-4.3-1.9-4.3-4.3 1.9-4.3 4.3-4.3 4.3 1.9 4.3 4.3zM786.5 126.3l66.8-35.1M777.9 126.3l-19.4-10M833.9 126.3l66.9-35.1M825.3 126.3l-19.3-10M872.7 126.3l-19.4-10M739.1 126.3L806 91.2M691.7 126.2l66.8-35M976.2 126.3l71.1-35.1M967.6 126.3l-19.5-10M1023.6 126.3l66.8-35.1M1015 126.3l-19.1-9.7M1062.4 126.3l-19.4-10M928.7 126.3l66.9-35.1M881.4 126.3l66.7-35.1M900.8 116.3l19.3 10M1015 81.3c0-2.4 1.9-4.3 4.3-4.3s4.3 1.9 4.3 4.3-1.9 4.3-4.3 4.3c-2.4-.2-4.3-2-4.3-4.3zM1062.4 81.3c0-2.4 1.9-4.3 4.3-4.3s4.3 1.9 4.3 4.3-1.9 4.3-4.3 4.3c-2.4-.2-4.3-2-4.3-4.3zM967.6 81.3c0-2.4 1.9-4.3 4.3-4.3s4.3 1.9 4.3 4.3-1.9 4.3-4.3 4.3c-2.4-.2-4.3-2-4.3-4.3zM920.1 81.3c0-2.4 1.9-4.3 4.3-4.3s4.3 1.9 4.3 4.3-1.9 4.3-4.3 4.3c-2.3-.2-4.3-2-4.3-4.3zM872.7 81.3c0-2.4 1.9-4.3 4.3-4.3s4.3 1.9 4.3 4.3-1.9 4.3-4.3 4.3c-2.4-.2-4.3-2-4.3-4.3zM825.3 81.3c0-2.4 1.9-4.3 4.3-4.3s4.3 1.9 4.3 4.3-1.9 4.3-4.3 4.3c-2.3-.2-4.3-2-4.3-4.3zM777.9 81.3c0-2.4 1.9-4.3 4.3-4.3s4.3 1.9 4.3 4.3-1.9 4.3-4.3 4.3c-2.4-.2-4.3-2-4.3-4.3zM730.5 81.3c0-2.4 1.9-4.3 4.3-4.3s4.3 1.9 4.3 4.3-1.9 4.3-4.3 4.3c-2.3-.2-4.3-2-4.3-4.3zM967.6 81.1l-19.5 10.1M976.2 81.1l19.4 10.1M920.1 81.1l-19.3 10.1M928.7 81.1l19.4 10.1M881.3 81.1l19.5 10.1M1015 81.1l-19.4 10.1M1062.8 83.2l-15.5 8M1045.1 92.2l-21.5-11.1M777.9 81.1l-19.4 10.1M786.5 81.1L806 91.2M730.5 81.1l-19.2 10.1M739.1 81.1l19.4 10.1M825.3 81.1L806 91.2M872.7 81.1l-19.4 10.1M853.3 91.2l-19.4-10.1M23.8 53.7v23.1M71.1 53.7v23.1M118.6 53.7v23.1M165.9 53.7v23.1M213.4 53.7v23.1M260.9 53.7v23.1M308.2 53.7v23.1M355.7 53.7v23.1M403.1 53.7v23.1M450.5 53.7v23.1M498 53.7v23.1M545.3 53.7v23.1M592.8 53.7v23.1M640.2 53.7v23.1M687.6 53.7v23.1M735 53.7v23.1M782.5 53.7v23.1M829.8 53.7v23.1M877.3 53.7v23.1M924.7 53.7v23.1M972.1 53.7v23.1M1019.6 53.7v23.1M1066.9 53.7v23.1M23.8 130.6v23.2M71.1 130.6v23.2M118.6 130.6v23.2M165.9 130.6v23.2M213.4 130.6v23.2M260.9 130.6v23.2M308.2 130.6v23.2M355.7 130.6v23.2M403.1 130.6v23.2M450.5 130.6v23.2M498 130.6v23.2M545.3 130.6v23.2M592.8 130.6v23.2M640.2 130.6v23.2M687.6 130.6v23.2M735 130.6v23.2M782.5 130.6v23.2M829.8 130.6v23.2M877.3 130.6v23.2M924.7 130.6v23.2M972.1 130.6v23.2M1019.6 130.6v23.2M1066.9 130.6v23.2M28.1 203.2c0 2.4-1.9 4.3-4.3 4.3s-4.3-1.9-4.3-4.3 1.9-4.3 4.3-4.3 4.3 1.9 4.3 4.3zM75.4 203.2c0 2.4-1.9 4.3-4.3 4.3s-4.3-1.9-4.3-4.3 1.9-4.3 4.3-4.3 4.3 1.9 4.3 4.3zM122.9 203.2c0 2.4-1.9 4.3-4.3 4.3s-4.3-1.9-4.3-4.3 1.9-4.3 4.3-4.3 4.3 1.9 4.3 4.3zM170.3 203.2c0 2.4-1.9 4.3-4.3 4.3s-4.3-1.9-4.3-4.3 1.9-4.3 4.3-4.3c2.3 0 4.3 1.9 4.3 4.3zM217.7 203.2c0 2.4-1.9 4.3-4.3 4.3s-4.3-1.9-4.3-4.3 1.9-4.3 4.3-4.3 4.3 1.9 4.3 4.3zM265.2 203.2c0 2.4-1.9 4.3-4.3 4.3s-4.3-1.9-4.3-4.3 1.9-4.3 4.3-4.3 4.3 1.9 4.3 4.3zM312.5 203.2c0 2.4-1.9 4.3-4.3 4.3s-4.3-1.9-4.3-4.3 1.9-4.3 4.3-4.3 4.3 1.9 4.3 4.3zM75.4 203.2l66.9-35.1M66.8 203.2l-19.3-9.9M122.9 203.2l66.8-35.1M114.3 203.2l-19.4-9.9M161.6 203.2l-19.3-9.9M28.1 203.2l66.7-35.1M0 193.3l19.5 9.9M265.2 203.2l66.7-35.1M256.6 203.2l-19.5-9.9M312.5 203.2l66.9-35.1M303.9 203.2l-19.4-9.9M351.4 203.2l-19.5-9.9M217.7 203.2l66.8-35.1M170.3 203.2l66.8-35.1M189.7 193.3l19.4 9.9M303.9 158.1c0-2.4 1.9-4.3 4.3-4.3s4.3 1.9 4.3 4.3-1.9 4.3-4.3 4.3c-2.3 0-4.3-1.9-4.3-4.3zM256.6 158.1c0-2.4 1.9-4.3 4.3-4.3s4.3 1.9 4.3 4.3-1.9 4.3-4.3 4.3c-2.5 0-4.3-1.9-4.3-4.3zM209.1 158.1c0-2.4 1.9-4.3 4.3-4.3s4.3 1.9 4.3 4.3-1.9 4.3-4.3 4.3-4.3-1.9-4.3-4.3zM161.6 158.1c0-2.4 1.9-4.3 4.3-4.3s4.3 1.9 4.3 4.3-1.9 4.3-4.3 4.3c-2.3 0-4.3-1.9-4.3-4.3zM114.3 158.1c0-2.4 1.9-4.3 4.3-4.3s4.3 1.9 4.3 4.3-1.9 4.3-4.3 4.3-4.3-1.9-4.3-4.3zM66.8 158.1c0-2.4 1.9-4.3 4.3-4.3s4.3 1.9 4.3 4.3-1.9 4.3-4.3 4.3c-2.3 0-4.3-1.9-4.3-4.3zM19.5 158.1c0-2.4 1.9-4.3 4.3-4.3s4.3 1.9 4.3 4.3-1.9 4.3-4.3 4.3c-2.5 0-4.3-1.9-4.3-4.3zM256.6 158.1l-19.5 10M265.2 158.1l19.3 10M209.1 158.1l-19.4 10M217.7 158.1l19.4 10M170.3 158.1l19.4 10M303.9 158.1l-19.4 10M351.4 158.1l-19.5 10M331.9 168.1l-19.4-10M66.8 158.1L0 193.3M75.4 158.1l19.4 10M19.5 158.1L0 168.1M28.1 158.1l19.4 10M114.3 158.1l-19.5 10M161.6 158.1l-19.3 10M142.3 168.1l-19.4-10M407.3 203.2c0 2.4-1.9 4.3-4.3 4.3s-4.3-1.9-4.3-4.3 1.9-4.3 4.3-4.3 4.3 1.9 4.3 4.3zM360 203.2c0 2.4-1.9 4.3-4.3 4.3s-4.3-1.9-4.3-4.3 1.9-4.3 4.3-4.3 4.3 1.9 4.3 4.3zM454.8 203.2c0 2.4-1.9 4.3-4.3 4.3s-4.3-1.9-4.3-4.3 1.9-4.3 4.3-4.3 4.3 1.9 4.3 4.3zM502.3 203.2c0 2.4-1.9 4.3-4.3 4.3s-4.3-1.9-4.3-4.3 1.9-4.3 4.3-4.3 4.3 1.9 4.3 4.3zM549.6 203.2c0 2.4-1.9 4.3-4.3 4.3s-4.3-1.9-4.3-4.3 1.9-4.3 4.3-4.3 4.3 1.9 4.3 4.3zM597.1 203.2c0 2.4-1.9 4.3-4.3 4.3s-4.3-1.9-4.3-4.3 1.9-4.3 4.3-4.3 4.3 1.9 4.3 4.3zM644.4 203.2c0 2.4-1.9 4.3-4.3 4.3s-4.3-1.9-4.3-4.3 1.9-4.3 4.3-4.3 4.3 1.9 4.3 4.3zM691.9 203.2c0 2.4-1.9 4.3-4.3 4.3s-4.3-1.9-4.3-4.3 1.9-4.3 4.3-4.3c2.3 0 4.3 1.9 4.3 4.3zM454.8 203.2l66.8-35.1M446.2 203.2l-19.4-9.9M502.3 203.2l66.7-35.1M493.6 203.2l-19.4-9.9M541 203.2l-19.4-9.9M407.3 203.2l66.9-35.1M360 203.2l66.8-35.1M379.4 193.3l19.3 9.9M644.4 203.2l66.9-35.1M635.8 203.2l-19.4-9.9M683.3 203.2l-19.4-9.9M730.7 203.2l-19.4-9.9M597.1 203.2l66.8-35.1M549.6 203.2l66.8-35.1M569 193.3l19.5 9.9M683.3 158.1c0-2.4 1.9-4.3 4.3-4.3s4.3 1.9 4.3 4.3-1.9 4.3-4.3 4.3-4.3-1.9-4.3-4.3zM635.8 158.1c0-2.4 1.9-4.3 4.3-4.3s4.3 1.9 4.3 4.3-1.9 4.3-4.3 4.3-4.3-1.9-4.3-4.3zM588.5 158.1c0-2.4 1.9-4.3 4.3-4.3s4.3 1.9 4.3 4.3-1.9 4.3-4.3 4.3-4.3-1.9-4.3-4.3zM541 158.1c0-2.4 1.9-4.3 4.3-4.3s4.3 1.9 4.3 4.3-1.9 4.3-4.3 4.3-4.3-1.9-4.3-4.3zM493.6 158.1c0-2.4 1.9-4.3 4.3-4.3s4.3 1.9 4.3 4.3-1.9 4.3-4.3 4.3-4.3-1.9-4.3-4.3zM446.2 158.1c0-2.4 1.9-4.3 4.3-4.3s4.3 1.9 4.3 4.3-1.9 4.3-4.3 4.3-4.3-1.9-4.3-4.3zM398.7 158.1c0-2.4 1.9-4.3 4.3-4.3s4.3 1.9 4.3 4.3-1.9 4.3-4.3 4.3-4.3-1.9-4.3-4.3zM351.4 158.1c0-2.4 1.9-4.3 4.3-4.3s4.3 1.9 4.3 4.3-1.9 4.3-4.3 4.3-4.3-1.9-4.3-4.3zM635.8 158.1l-19.4 10M644.4 158.1l19.5 10M588.5 158.1l-19.5 10M597.1 158.1l19.3 10M549.6 158.1l19.4 10M683.3 158.1l-19.4 10M711.3 168.1l-19.4-10M446.2 158.1l-19.4 10M454.8 158.1l19.4 10M398.7 158.1l-19.3 10M407.3 158.1l19.5 10M360 158.1l19.4 10M493.6 158.1l-19.4 10M541 158.1l-19.4 10M521.6 168.1l-19.3-10M739.1 203.2c0 2.4-1.9 4.3-4.3 4.3s-4.3-1.9-4.3-4.3 1.9-4.3 4.3-4.3 4.3 1.9 4.3 4.3zM786.5 203.2c0 2.4-1.9 4.3-4.3 4.3s-4.3-1.9-4.3-4.3 1.9-4.3 4.3-4.3c2.3 0 4.3 1.9 4.3 4.3zM833.9 203.2c0 2.4-1.9 4.3-4.3 4.3s-4.3-1.9-4.3-4.3 1.9-4.3 4.3-4.3 4.3 1.9 4.3 4.3zM881.3 203.2c0 2.4-1.9 4.3-4.3 4.3s-4.3-1.9-4.3-4.3 1.9-4.3 4.3-4.3c2.5 0 4.3 1.9 4.3 4.3zM928.7 203.2c0 2.4-1.9 4.3-4.3 4.3s-4.3-1.9-4.3-4.3 1.9-4.3 4.3-4.3 4.3 1.9 4.3 4.3zM976.2 203.2c0 2.4-1.9 4.3-4.3 4.3s-4.3-1.9-4.3-4.3 1.9-4.3 4.3-4.3 4.3 1.9 4.3 4.3zM1023.6 203.2c0 2.4-1.9 4.3-4.3 4.3s-4.3-1.9-4.3-4.3 1.9-4.3 4.3-4.3 4.3 1.9 4.3 4.3zM1071 203.2c0 2.4-1.9 4.3-4.3 4.3s-4.3-1.9-4.3-4.3 1.9-4.3 4.3-4.3 4.3 1.9 4.3 4.3zM786.5 203.2l66.8-35.1M777.9 203.2l-19.4-9.9M833.9 203.2l66.9-35.1M825.3 203.2l-19.3-9.9M872.7 203.2l-19.4-9.9M739.1 203.2l66.9-35.1M691.7 203.2l66.8-35.1M976.2 203.2l66.8-35.1M967.6 203.2l-19.5-9.9M1023.6 203.2l66.8-35.1M1015 203.2l-19.4-9.9M1062.4 203.2l-17.6-10.9M928.7 203.2l66.9-35.1M881.4 203.2l66.7-35.1M900.8 193.3l19.3 9.9M1015 158.1c0-2.4 1.9-4.3 4.3-4.3s4.3 1.9 4.3 4.3-1.9 4.3-4.3 4.3-4.3-1.9-4.3-4.3zM1062.4 158.1c0-2.4 1.9-4.3 4.3-4.3s4.3 1.9 4.3 4.3-1.9 4.3-4.3 4.3-4.3-1.9-4.3-4.3zM967.6 158.1c0-2.4 1.9-4.3 4.3-4.3s4.3 1.9 4.3 4.3-1.9 4.3-4.3 4.3-4.3-1.9-4.3-4.3zM920.1 158.1c0-2.4 1.9-4.3 4.3-4.3s4.3 1.9 4.3 4.3-1.9 4.3-4.3 4.3-4.3-1.9-4.3-4.3zM872.7 158.1c0-2.4 1.9-4.3 4.3-4.3s4.3 1.9 4.3 4.3-1.9 4.3-4.3 4.3-4.3-1.9-4.3-4.3zM825.3 158.1c0-2.4 1.9-4.3 4.3-4.3s4.3 1.9 4.3 4.3-1.9 4.3-4.3 4.3-4.3-1.9-4.3-4.3zM777.9 158.1c0-2.4 1.9-4.3 4.3-4.3s4.3 1.9 4.3 4.3-1.9 4.3-4.3 4.3-4.3-1.9-4.3-4.3zM730.5 158.1c0-2.4 1.9-4.3 4.3-4.3s4.3 1.9 4.3 4.3-1.9 4.3-4.3 4.3-4.3-1.9-4.3-4.3zM967.6 158.1l-19.5 10M976.2 158.1l19.4 10M920.1 158.1l-19.3 10M928.7 158.1l19.4 10M881.3 158.1l19.5 10M1015 158.1l-19.4 10M1062.4 158.1l-19.4 10M1043 168.1l-19.4-10M777.9 158.1l-19.4 10M786.5 158.1l19.5 10M730.5 158.1l-19.2 10M739.1 158.1l19.4 10M825.3 158.1l-19.3 10M872.7 158.1l-19.4 10M853.3 168.1l-19.4-10M28.1 280.1c0 2.4-1.9 4.3-4.3 4.3s-4.3-1.9-4.3-4.3 1.9-4.3 4.3-4.3 4.3 2 4.3 4.3zM75.4 280.1c0 2.4-1.9 4.3-4.3 4.3s-4.3-1.9-4.3-4.3 1.9-4.3 4.3-4.3 4.3 2 4.3 4.3zM122.9 280.1c0 2.4-1.9 4.3-4.3 4.3s-4.3-1.9-4.3-4.3 1.9-4.3 4.3-4.3 4.3 2 4.3 4.3zM170.3 280.1c0 2.4-1.9 4.3-4.3 4.3s-4.3-1.9-4.3-4.3 1.9-4.3 4.3-4.3c2.3 0 4.3 2 4.3 4.3zM217.7 280.1c0 2.4-1.9 4.3-4.3 4.3s-4.3-1.9-4.3-4.3 1.9-4.3 4.3-4.3 4.3 2 4.3 4.3zM265.2 280.1c0 2.4-1.9 4.3-4.3 4.3s-4.3-1.9-4.3-4.3 1.9-4.3 4.3-4.3 4.3 2 4.3 4.3zM312.5 280.1c0 2.4-1.9 4.3-4.3 4.3s-4.3-1.9-4.3-4.3 1.9-4.3 4.3-4.3 4.3 2 4.3 4.3zM75.4 280.1l66.9-35.2M66.8 280.1l-19.3-10M122.9 280.1l66.8-35.2M114.3 280.1l-19.4-10M161.6 280.1l-19.3-10M28.1 280.1l66.7-35.2M0 270.1l47.5-25.2M0 270.1l19.5 10M265.2 280.1l66.7-35.2M256.6 280.1l-19.5-10M312.5 280.1l66.9-35.2M303.9 280.1l-19.4-10M351.4 280.1l-19.5-10M217.7 280.1l66.8-35.2M170.3 280.1l66.8-35.2M189.7 270.1l19.4 10M303.9 235c0-2.4 1.9-4.3 4.3-4.3s4.3 1.9 4.3 4.3-1.9 4.3-4.3 4.3c-2.3 0-4.3-1.9-4.3-4.3zM256.6 235c0-2.4 1.9-4.3 4.3-4.3s4.3 1.9 4.3 4.3-1.9 4.3-4.3 4.3c-2.5 0-4.3-1.9-4.3-4.3zM209.1 235c0-2.4 1.9-4.3 4.3-4.3s4.3 1.9 4.3 4.3-1.9 4.3-4.3 4.3-4.3-1.9-4.3-4.3zM161.6 235c0-2.4 1.9-4.3 4.3-4.3s4.3 1.9 4.3 4.3-1.9 4.3-4.3 4.3c-2.3 0-4.3-1.9-4.3-4.3zM114.3 235c0-2.4 1.9-4.3 4.3-4.3s4.3 1.9 4.3 4.3-1.9 4.3-4.3 4.3-4.3-1.9-4.3-4.3zM66.8 235c0-2.4 1.9-4.3 4.3-4.3s4.3 1.9 4.3 4.3-1.9 4.3-4.3 4.3c-2.3 0-4.3-1.9-4.3-4.3zM19.5 235c0-2.4 1.9-4.3 4.3-4.3s4.3 1.9 4.3 4.3-1.9 4.3-4.3 4.3c-2.5 0-4.3-1.9-4.3-4.3zM256.6 235l-19.5 9.9M265.2 235l19.3 9.9M209.1 235l-19.4 9.9M217.7 235l19.4 9.9M170.3 235l19.4 9.9M303.9 235l-19.4 9.9M351.4 235l-19.5 9.9M331.9 244.9l-19.4-9.9M66.8 235l-19.3 9.9M75.4 235l19.4 9.9M19.5 235L0 245M28.1 235l19.4 9.9M114.3 235l-19.5 9.9M161.6 235l-19.3 9.9M142.3 244.9l-19.4-9.9M407.3 280.1c0 2.4-1.9 4.3-4.3 4.3s-4.3-1.9-4.3-4.3 1.9-4.3 4.3-4.3 4.3 2 4.3 4.3zM360 280.1c0 2.4-1.9 4.3-4.3 4.3s-4.3-1.9-4.3-4.3 1.9-4.3 4.3-4.3 4.3 2 4.3 4.3zM454.8 280.1c0 2.4-1.9 4.3-4.3 4.3s-4.3-1.9-4.3-4.3 1.9-4.3 4.3-4.3 4.3 2 4.3 4.3zM502.3 280.1c0 2.4-1.9 4.3-4.3 4.3s-4.3-1.9-4.3-4.3 1.9-4.3 4.3-4.3 4.3 2 4.3 4.3zM549.6 280.1c0 2.4-1.9 4.3-4.3 4.3s-4.3-1.9-4.3-4.3 1.9-4.3 4.3-4.3 4.3 2 4.3 4.3zM597.1 280.1c0 2.4-1.9 4.3-4.3 4.3s-4.3-1.9-4.3-4.3 1.9-4.3 4.3-4.3 4.3 2 4.3 4.3zM644.4 280.1c0 2.4-1.9 4.3-4.3 4.3s-4.3-1.9-4.3-4.3 1.9-4.3 4.3-4.3 4.3 2 4.3 4.3zM691.9 280.1c0 2.4-1.9 4.3-4.3 4.3s-4.3-1.9-4.3-4.3 1.9-4.3 4.3-4.3c2.3 0 4.3 2 4.3 4.3zM454.8 280.1l66.8-35.2M446.2 280.1l-19.4-10M502.3 280.1l66.7-35.2M493.6 280.1l-19.4-10M541 280.1l-19.4-10M407.3 280.1l66.9-35.2M360 280l66.8-35.1M379.4 270.1l19.3 10M644.4 280.1l66.9-35.2M635.8 280.1l-19.4-10M683.3 280.1l-19.4-10M730.7 280.1l-19.4-10M597.1 280.1l66.8-35.2M549.6 280.1l66.8-35.2M569 270.1l19.5 10M683.3 235c0-2.4 1.9-4.3 4.3-4.3s4.3 1.9 4.3 4.3-1.9 4.3-4.3 4.3-4.3-1.9-4.3-4.3zM635.8 235c0-2.4 1.9-4.3 4.3-4.3s4.3 1.9 4.3 4.3-1.9 4.3-4.3 4.3-4.3-1.9-4.3-4.3zM588.5 235c0-2.4 1.9-4.3 4.3-4.3s4.3 1.9 4.3 4.3-1.9 4.3-4.3 4.3-4.3-1.9-4.3-4.3zM541 235c0-2.4 1.9-4.3 4.3-4.3s4.3 1.9 4.3 4.3-1.9 4.3-4.3 4.3-4.3-1.9-4.3-4.3zM493.6 235c0-2.4 1.9-4.3 4.3-4.3s4.3 1.9 4.3 4.3-1.9 4.3-4.3 4.3-4.3-1.9-4.3-4.3zM446.2 235c0-2.4 1.9-4.3 4.3-4.3s4.3 1.9 4.3 4.3-1.9 4.3-4.3 4.3-4.3-1.9-4.3-4.3zM398.7 235c0-2.4 1.9-4.3 4.3-4.3s4.3 1.9 4.3 4.3-1.9 4.3-4.3 4.3-4.3-1.9-4.3-4.3zM351.4 235c0-2.4 1.9-4.3 4.3-4.3s4.3 1.9 4.3 4.3-1.9 4.3-4.3 4.3-4.3-1.9-4.3-4.3zM635.8 235l-19.4 9.9M644.4 235l19.5 9.9M588.5 235l-19.5 9.9M597.1 235l19.3 9.9M549.6 235l19.4 9.9M683.3 235l-19.4 9.9M711.3 244.9l-19.4-9.9M446.2 235l-19.4 9.9M454.8 235l19.4 9.9M398.7 235l-19.3 9.9M407.3 235l19.5 9.9M360 235l19.4 9.9M493.6 235l-19.4 9.9M541 235l-19.4 9.9M521.6 244.9l-19.3-9.9M739.1 280.1c0 2.4-1.9 4.3-4.3 4.3s-4.3-1.9-4.3-4.3 1.9-4.3 4.3-4.3 4.3 2 4.3 4.3zM786.5 280.1c0 2.4-1.9 4.3-4.3 4.3s-4.3-1.9-4.3-4.3 1.9-4.3 4.3-4.3c2.3 0 4.3 2 4.3 4.3zM833.9 280.1c0 2.4-1.9 4.3-4.3 4.3s-4.3-1.9-4.3-4.3 1.9-4.3 4.3-4.3 4.3 2 4.3 4.3zM881.3 280.1c0 2.4-1.9 4.3-4.3 4.3s-4.3-1.9-4.3-4.3 1.9-4.3 4.3-4.3c2.5 0 4.3 2 4.3 4.3zM928.7 280.1c0 2.4-1.9 4.3-4.3 4.3s-4.3-1.9-4.3-4.3 1.9-4.3 4.3-4.3 4.3 2 4.3 4.3zM976.2 280.1c0 2.4-1.9 4.3-4.3 4.3s-4.3-1.9-4.3-4.3 1.9-4.3 4.3-4.3 4.3 2 4.3 4.3zM1023.6 280.1c0 2.4-1.9 4.3-4.3 4.3s-4.3-1.9-4.3-4.3 1.9-4.3 4.3-4.3 4.3 2 4.3 4.3zM1071 280.1c0 2.4-1.9 4.3-4.3 4.3s-4.3-1.9-4.3-4.3 1.9-4.3 4.3-4.3 4.3 2 4.3 4.3zM786.5 280.1l66.8-35.2M777.9 280.1l-19.4-10M833.9 280.1l66.9-35.2M825.3 280.1l-19.3-10M872.7 280.1l-19.4-10M739.1 280.1l66.9-35.2M691.7 280l66.8-35.1M976.2 280.1l71.1-35.2M967.6 280.1l-19.5-10M1023.6 280.1l66.8-35.2M1015 280.1l-19.4-10M1062.4 280.1l-19.4-10M928.7 280.1l66.9-35.2M881.4 280.1l66.7-35.2M900.8 270.1l19.3 10M1015 235c0-2.4 1.9-4.3 4.3-4.3s4.3 1.9 4.3 4.3-1.9 4.3-4.3 4.3-4.3-1.9-4.3-4.3zM1062.4 235c0-2.4 1.9-4.3 4.3-4.3s4.3 1.9 4.3 4.3-1.9 4.3-4.3 4.3-4.3-1.9-4.3-4.3zM967.6 235c0-2.4 1.9-4.3 4.3-4.3s4.3 1.9 4.3 4.3-1.9 4.3-4.3 4.3-4.3-1.9-4.3-4.3zM920.1 235c0-2.4 1.9-4.3 4.3-4.3s4.3 1.9 4.3 4.3-1.9 4.3-4.3 4.3-4.3-1.9-4.3-4.3zM872.7 235c0-2.4 1.9-4.3 4.3-4.3s4.3 1.9 4.3 4.3-1.9 4.3-4.3 4.3-4.3-1.9-4.3-4.3zM825.3 235c0-2.4 1.9-4.3 4.3-4.3s4.3 1.9 4.3 4.3-1.9 4.3-4.3 4.3-4.3-1.9-4.3-4.3zM777.9 235c0-2.4 1.9-4.3 4.3-4.3s4.3 1.9 4.3 4.3-1.9 4.3-4.3 4.3-4.3-1.9-4.3-4.3zM730.5 235c0-2.4 1.9-4.3 4.3-4.3s4.3 1.9 4.3 4.3-1.9 4.3-4.3 4.3-4.3-1.9-4.3-4.3zM967.6 235l-19.5 9.9M976.2 235l19.4 9.9M920.1 235l-19.3 9.9M928.7 235l19.4 9.9M881.3 235l19.5 9.9M1015 235l-19.4 9.9M1062.8 237l-15.5 7.9M1045.1 246l-21.5-11M777.9 235l-19.4 9.9M786.5 235l19.5 9.9M730.5 235l-19.2 9.9M739.1 235l19.4 9.9M825.3 235l-19.3 9.9M872.7 235l-19.4 9.9M853.3 244.9l-19.4-9.9M23.8 207.5v23.2M71.1 207.5v23.2M118.6 207.5v23.2M165.9 207.5v23.2M213.4 207.5v23.2M260.9 207.5v23.2M308.2 207.5v23.2M355.7 207.5v23.2M403.1 207.5v23.2M450.5 207.5v23.2M498 207.5v23.2M545.3 207.5v23.2M592.8 207.5v23.2M640.2 207.5v23.2M687.6 207.5v23.2M735 207.5v23.2M782.5 207.5v23.2M829.8 207.5v23.2M877.3 207.5v23.2M924.7 207.5v23.2M972.1 207.5v23.2M1019.6 207.5v23.2M1066.9 207.5v23.2M23.8 284.4v23.2M71.1 284.4v23.2M118.6 284.4v23.2M165.9 284.4v23.2M213.4 284.4v23.2M260.9 284.4v23.2M308.2 284.4v23.2M355.7 284.4v23.2M403.1 284.4v23.2M450.5 284.4v23.2M498 284.4v23.2M545.3 284.4v23.2M592.8 284.4v23.2M640.2 284.4v23.2M687.6 284.4v23.2M735 284.4v23.2M782.5 284.4v23.2M829.8 284.4v23.2M877.3 284.4v23.2M924.7 284.4v23.2M972.1 284.4v23.2M1019.6 284.4v23.2M1066.9 284.4v23.2M28.1 357.1c0 2.4-1.9 4.3-4.3 4.3s-4.3-1.9-4.3-4.3 1.9-4.3 4.3-4.3 4.3 1.8 4.3 4.3zM75.4 357.1c0 2.4-1.9 4.3-4.3 4.3s-4.3-1.9-4.3-4.3 1.9-4.3 4.3-4.3 4.3 1.8 4.3 4.3zM122.9 357.1c0 2.4-1.9 4.3-4.3 4.3s-4.3-1.9-4.3-4.3 1.9-4.3 4.3-4.3 4.3 1.8 4.3 4.3zM170.3 357.1c0 2.4-1.9 4.3-4.3 4.3s-4.3-1.9-4.3-4.3 1.9-4.3 4.3-4.3c2.3 0 4.3 1.8 4.3 4.3zM217.7 357.1c0 2.4-1.9 4.3-4.3 4.3s-4.3-1.9-4.3-4.3 1.9-4.3 4.3-4.3 4.3 1.8 4.3 4.3zM265.2 357.1c0 2.4-1.9 4.3-4.3 4.3s-4.3-1.9-4.3-4.3 1.9-4.3 4.3-4.3 4.3 1.8 4.3 4.3zM312.5 357.1c0 2.4-1.9 4.3-4.3 4.3s-4.3-1.9-4.3-4.3 1.9-4.3 4.3-4.3 4.3 1.8 4.3 4.3zM75.4 357.1l66.9-35.2M66.8 357.1l-19.3-10M122.9 357.1l66.8-35.2M114.3 357.1l-19.4-10M161.6 357.1l-19.3-10M28.1 357.1l66.7-35.2M0 347.1l47.5-25.2M0 347.1l19.5 10M265.2 357.1l66.7-35.2M256.6 357.1l-19.5-10M312.5 357.1l66.9-35.2M303.9 357.1l-19.4-10M351.4 357.1l-19.5-10M217.7 357.1l66.8-35.2M170.3 357.1l66.8-35.2M189.7 347.1l19.4 10M303.9 312c0-2.4 1.9-4.3 4.3-4.3s4.3 1.9 4.3 4.3-1.9 4.3-4.3 4.3c-2.3 0-4.3-1.9-4.3-4.3zM256.6 312c0-2.4 1.9-4.3 4.3-4.3s4.3 1.9 4.3 4.3-1.9 4.3-4.3 4.3c-2.5 0-4.3-1.9-4.3-4.3zM209.1 312c0-2.4 1.9-4.3 4.3-4.3s4.3 1.9 4.3 4.3-1.9 4.3-4.3 4.3-4.3-1.9-4.3-4.3zM161.6 312c0-2.4 1.9-4.3 4.3-4.3s4.3 1.9 4.3 4.3-1.9 4.3-4.3 4.3c-2.3 0-4.3-1.9-4.3-4.3zM114.3 312c0-2.4 1.9-4.3 4.3-4.3s4.3 1.9 4.3 4.3-1.9 4.3-4.3 4.3-4.3-1.9-4.3-4.3zM66.8 312c0-2.4 1.9-4.3 4.3-4.3s4.3 1.9 4.3 4.3-1.9 4.3-4.3 4.3c-2.3 0-4.3-1.9-4.3-4.3zM19.5 312c0-2.4 1.9-4.3 4.3-4.3s4.3 1.9 4.3 4.3-1.9 4.3-4.3 4.3c-2.5 0-4.3-1.9-4.3-4.3zM256.6 311.9l-19.5 10M265.2 311.9l19.3 10M209.1 311.9l-19.4 10M217.7 311.9l19.4 10M170.3 311.9l19.4 10M303.9 311.9l-19.4 10M351.4 312l-19.5 9.9M331.9 321.9l-19.4-10M66.8 311.9l-19.3 10M75.4 311.9l19.4 10M19.5 311.9L0 321.9M28.1 311.9l19.4 10M114.3 311.9l-19.5 10M161.6 311.9l-19.3 10M142.3 321.9l-19.4-10M407.3 357.1c0 2.4-1.9 4.3-4.3 4.3s-4.3-1.9-4.3-4.3 1.9-4.3 4.3-4.3 4.3 1.8 4.3 4.3zM360 357.1c0 2.4-1.9 4.3-4.3 4.3s-4.3-1.9-4.3-4.3 1.9-4.3 4.3-4.3 4.3 1.8 4.3 4.3zM454.8 357.1c0 2.4-1.9 4.3-4.3 4.3s-4.3-1.9-4.3-4.3 1.9-4.3 4.3-4.3 4.3 1.8 4.3 4.3zM502.3 357.1c0 2.4-1.9 4.3-4.3 4.3s-4.3-1.9-4.3-4.3 1.9-4.3 4.3-4.3 4.3 1.8 4.3 4.3zM549.6 357.1c0 2.4-1.9 4.3-4.3 4.3s-4.3-1.9-4.3-4.3 1.9-4.3 4.3-4.3 4.3 1.8 4.3 4.3zM597.1 357.1c0 2.4-1.9 4.3-4.3 4.3s-4.3-1.9-4.3-4.3 1.9-4.3 4.3-4.3 4.3 1.8 4.3 4.3zM644.4 357.1c0 2.4-1.9 4.3-4.3 4.3s-4.3-1.9-4.3-4.3 1.9-4.3 4.3-4.3 4.3 1.8 4.3 4.3zM691.9 357.1c0 2.4-1.9 4.3-4.3 4.3s-4.3-1.9-4.3-4.3 1.9-4.3 4.3-4.3c2.3 0 4.3 1.8 4.3 4.3zM454.8 357.1l66.8-35.2M446.2 357.1l-19.4-10M502.3 357.1l66.7-35.2M493.6 357.1l-19.4-10M541 357.1l-19.4-10M407.3 357.1l66.9-35.2M360 357l66.8-35.1M379.4 347.1l19.3 10M644.4 357.1l66.9-35.2M635.8 357.1l-19.4-10M683.3 357.1l-19.4-10M730.7 357.1l-19.4-10M597.1 357.1l66.8-35.2M549.6 357.1l66.8-35.2M569 347.1l19.5 10M683.3 312c0-2.4 1.9-4.3 4.3-4.3s4.3 1.9 4.3 4.3-1.9 4.3-4.3 4.3-4.3-1.9-4.3-4.3zM635.8 312c0-2.4 1.9-4.3 4.3-4.3s4.3 1.9 4.3 4.3-1.9 4.3-4.3 4.3-4.3-1.9-4.3-4.3zM588.5 312c0-2.4 1.9-4.3 4.3-4.3s4.3 1.9 4.3 4.3-1.9 4.3-4.3 4.3-4.3-1.9-4.3-4.3zM541 312c0-2.4 1.9-4.3 4.3-4.3s4.3 1.9 4.3 4.3-1.9 4.3-4.3 4.3-4.3-1.9-4.3-4.3zM493.6 312c0-2.4 1.9-4.3 4.3-4.3s4.3 1.9 4.3 4.3-1.9 4.3-4.3 4.3-4.3-1.9-4.3-4.3zM446.2 312c0-2.4 1.9-4.3 4.3-4.3s4.3 1.9 4.3 4.3-1.9 4.3-4.3 4.3-4.3-1.9-4.3-4.3zM398.7 312c0-2.4 1.9-4.3 4.3-4.3s4.3 1.9 4.3 4.3-1.9 4.3-4.3 4.3-4.3-1.9-4.3-4.3zM351.4 312c0-2.4 1.9-4.3 4.3-4.3s4.3 1.9 4.3 4.3-1.9 4.3-4.3 4.3-4.3-1.9-4.3-4.3zM635.8 311.9l-19.4 10M644.4 311.9l19.5 10M588.5 311.9l-19.5 10M597.1 311.9l19.3 10M549.6 311.9l19.4 10M683.3 311.9l-19.4 10M711.3 321.9l-19.4-10M446.2 311.9l-19.4 10M454.8 311.9l19.4 10M398.7 311.9l-19.3 10M407.3 311.9l19.5 10M360 311.9l19.4 10M493.6 311.9l-19.4 10M541 311.9l-19.4 10M521.6 321.9l-19.3-10M739.1 357.1c0 2.4-1.9 4.3-4.3 4.3s-4.3-1.9-4.3-4.3 1.9-4.3 4.3-4.3 4.3 1.8 4.3 4.3zM786.5 357.1c0 2.4-1.9 4.3-4.3 4.3s-4.3-1.9-4.3-4.3 1.9-4.3 4.3-4.3c2.3 0 4.3 1.8 4.3 4.3zM833.9 357.1c0 2.4-1.9 4.3-4.3 4.3s-4.3-1.9-4.3-4.3 1.9-4.3 4.3-4.3 4.3 1.8 4.3 4.3zM881.3 357.1c0 2.4-1.9 4.3-4.3 4.3s-4.3-1.9-4.3-4.3 1.9-4.3 4.3-4.3c2.5 0 4.3 1.8 4.3 4.3zM928.7 357.1c0 2.4-1.9 4.3-4.3 4.3s-4.3-1.9-4.3-4.3 1.9-4.3 4.3-4.3 4.3 1.8 4.3 4.3zM976.2 357.1c0 2.4-1.9 4.3-4.3 4.3s-4.3-1.9-4.3-4.3 1.9-4.3 4.3-4.3 4.3 1.8 4.3 4.3zM1023.6 357.1c0 2.4-1.9 4.3-4.3 4.3s-4.3-1.9-4.3-4.3 1.9-4.3 4.3-4.3 4.3 1.8 4.3 4.3zM1071 357.1c0 2.4-1.9 4.3-4.3 4.3s-4.3-1.9-4.3-4.3 1.9-4.3 4.3-4.3 4.3 1.8 4.3 4.3zM786.5 357.1l66.8-35.2M777.9 357.1l-19.4-10M833.9 357.1l66.9-35.2M825.3 357.1l-19.3-10M872.7 357.1l-19.4-10M739.1 357.1l66.9-35.2M691.7 357l66.8-35.1M976.2 357.1l66.8-35.2M967.6 357.1l-19.5-10M1023.6 357.1l66.8-35.2M1015 357.1l-19.4-10M1062.4 357.1l-17.6-10.9M928.7 357.1l66.9-35.2M881.4 357.1l66.7-35.2M900.8 347.1l19.3 10M1015 312c0-2.4 1.9-4.3 4.3-4.3s4.3 1.9 4.3 4.3-1.9 4.3-4.3 4.3-4.3-1.9-4.3-4.3zM1062.4 312c0-2.4 1.9-4.3 4.3-4.3s4.3 1.9 4.3 4.3-1.9 4.3-4.3 4.3-4.3-1.9-4.3-4.3zM967.6 312c0-2.4 1.9-4.3 4.3-4.3s4.3 1.9 4.3 4.3-1.9 4.3-4.3 4.3-4.3-1.9-4.3-4.3zM920.1 312c0-2.4 1.9-4.3 4.3-4.3s4.3 1.9 4.3 4.3-1.9 4.3-4.3 4.3-4.3-1.9-4.3-4.3zM872.7 312c0-2.4 1.9-4.3 4.3-4.3s4.3 1.9 4.3 4.3-1.9 4.3-4.3 4.3-4.3-1.9-4.3-4.3zM825.3 312c0-2.4 1.9-4.3 4.3-4.3s4.3 1.9 4.3 4.3-1.9 4.3-4.3 4.3-4.3-1.9-4.3-4.3zM777.9 312c0-2.4 1.9-4.3 4.3-4.3s4.3 1.9 4.3 4.3-1.9 4.3-4.3 4.3-4.3-1.9-4.3-4.3zM730.5 312c0-2.4 1.9-4.3 4.3-4.3s4.3 1.9 4.3 4.3-1.9 4.3-4.3 4.3-4.3-1.9-4.3-4.3zM967.6 311.9l-19.5 10M976.2 311.9l19.4 10M920.1 311.9l-19.3 10M928.7 311.9l19.4 10M881.3 311.9l19.5 10M1015 311.9l-19.4 10M1062.4 312l-19.4 9.9M1043 321.9l-19.4-10M777.9 311.9l-19.4 10M786.5 311.9l19.5 10M730.5 311.9l-19.2 10M739.1 311.9l19.4 10M825.3 311.9l-19.3 10M872.7 311.9l-19.4 10M853.3 321.9l-19.4-10M28.1 433.9c0 2.4-1.9 4.3-4.3 4.3s-4.3-1.9-4.3-4.3 1.9-4.3 4.3-4.3 4.3 2 4.3 4.3zM75.4 433.9c0 2.4-1.9 4.3-4.3 4.3s-4.3-1.9-4.3-4.3 1.9-4.3 4.3-4.3 4.3 2 4.3 4.3zM122.9 433.9c0 2.4-1.9 4.3-4.3 4.3s-4.3-1.9-4.3-4.3 1.9-4.3 4.3-4.3 4.3 2 4.3 4.3zM170.3 433.9c0 2.4-1.9 4.3-4.3 4.3s-4.3-1.9-4.3-4.3 1.9-4.3 4.3-4.3c2.3 0 4.3 2 4.3 4.3zM217.7 433.9c0 2.4-1.9 4.3-4.3 4.3s-4.3-1.9-4.3-4.3 1.9-4.3 4.3-4.3 4.3 2 4.3 4.3zM265.2 433.9c0 2.4-1.9 4.3-4.3 4.3s-4.3-1.9-4.3-4.3 1.9-4.3 4.3-4.3 4.3 2 4.3 4.3zM312.5 433.9c0 2.4-1.9 4.3-4.3 4.3s-4.3-1.9-4.3-4.3 1.9-4.3 4.3-4.3 4.3 2 4.3 4.3zM75.4 433.9l66.9-35.1M66.8 433.9L47.5 424M122.9 433.9l66.8-35.1M114.3 433.9L94.9 424M161.6 433.9l-19.3-9.9M28.1 433.9l66.7-35.1M0 424l19.5 9.9M265.2 433.9l66.7-35.1M256.6 433.9l-19.5-9.9M312.5 433.9l66.9-35.1M303.9 433.9l-19.4-9.9M351.4 433.9l-19.5-9.9M217.7 433.9l66.8-35.1M170.3 433.9l66.8-35.1M189.7 424l19.4 9.9M303.9 388.8c0-2.4 1.9-4.3 4.3-4.3s4.3 1.9 4.3 4.3-1.9 4.3-4.3 4.3c-2.3 0-4.3-1.9-4.3-4.3zM256.6 388.8c0-2.4 1.9-4.3 4.3-4.3s4.3 1.9 4.3 4.3-1.9 4.3-4.3 4.3c-2.5 0-4.3-1.9-4.3-4.3zM209.1 388.8c0-2.4 1.9-4.3 4.3-4.3s4.3 1.9 4.3 4.3-1.9 4.3-4.3 4.3-4.3-1.9-4.3-4.3zM161.6 388.8c0-2.4 1.9-4.3 4.3-4.3s4.3 1.9 4.3 4.3-1.9 4.3-4.3 4.3c-2.3 0-4.3-1.9-4.3-4.3zM114.3 388.8c0-2.4 1.9-4.3 4.3-4.3s4.3 1.9 4.3 4.3-1.9 4.3-4.3 4.3-4.3-1.9-4.3-4.3zM66.8 388.8c0-2.4 1.9-4.3 4.3-4.3s4.3 1.9 4.3 4.3-1.9 4.3-4.3 4.3c-2.3 0-4.3-1.9-4.3-4.3zM19.5 388.8c0-2.4 1.9-4.3 4.3-4.3s4.3 1.9 4.3 4.3-1.9 4.3-4.3 4.3c-2.5 0-4.3-1.9-4.3-4.3zM256.6 388.8l-19.5 10M265.2 388.8l19.3 10M209.1 388.8l-19.4 10M217.7 388.8l19.4 10M170.3 388.8l19.4 10M303.9 388.8l-19.4 10M351.4 388.8l-19.5 10M331.9 398.8l-19.4-10M66.8 388.8L0 424M75.4 388.8l19.4 10M19.5 388.8L0 398.8M28.1 388.8l19.4 10M114.3 388.8l-19.5 10M161.6 388.8l-19.3 10M142.3 398.8l-19.4-10M407.3 433.9c0 2.4-1.9 4.3-4.3 4.3s-4.3-1.9-4.3-4.3 1.9-4.3 4.3-4.3 4.3 2 4.3 4.3zM360 433.9c0 2.4-1.9 4.3-4.3 4.3s-4.3-1.9-4.3-4.3 1.9-4.3 4.3-4.3 4.3 2 4.3 4.3zM454.8 433.9c0 2.4-1.9 4.3-4.3 4.3s-4.3-1.9-4.3-4.3 1.9-4.3 4.3-4.3 4.3 2 4.3 4.3zM502.3 433.9c0 2.4-1.9 4.3-4.3 4.3s-4.3-1.9-4.3-4.3 1.9-4.3 4.3-4.3 4.3 2 4.3 4.3zM549.6 433.9c0 2.4-1.9 4.3-4.3 4.3s-4.3-1.9-4.3-4.3 1.9-4.3 4.3-4.3 4.3 2 4.3 4.3zM597.1 433.9c0 2.4-1.9 4.3-4.3 4.3s-4.3-1.9-4.3-4.3 1.9-4.3 4.3-4.3 4.3 2 4.3 4.3zM644.4 433.9c0 2.4-1.9 4.3-4.3 4.3s-4.3-1.9-4.3-4.3 1.9-4.3 4.3-4.3 4.3 2 4.3 4.3zM691.9 433.9c0 2.4-1.9 4.3-4.3 4.3s-4.3-1.9-4.3-4.3 1.9-4.3 4.3-4.3c2.3 0 4.3 2 4.3 4.3zM454.8 433.9l66.8-35.1M446.2 433.9l-19.4-9.9M502.3 433.9l66.7-35.1M493.6 433.9l-19.4-9.9M541 433.9l-19.4-9.9M407.3 433.9l66.9-35.1M360 433.9l66.8-35.1M379.4 424l19.3 9.9M644.4 433.9l66.9-35.1M635.8 433.9l-19.4-9.9M683.3 433.9l-19.4-9.9M730.7 433.9l-19.4-9.9M597.1 433.9l66.8-35.1M549.6 433.9l66.8-35.1M569 424l19.5 9.9M683.3 388.8c0-2.4 1.9-4.3 4.3-4.3s4.3 1.9 4.3 4.3-1.9 4.3-4.3 4.3-4.3-1.9-4.3-4.3zM635.8 388.8c0-2.4 1.9-4.3 4.3-4.3s4.3 1.9 4.3 4.3-1.9 4.3-4.3 4.3-4.3-1.9-4.3-4.3zM588.5 388.8c0-2.4 1.9-4.3 4.3-4.3s4.3 1.9 4.3 4.3-1.9 4.3-4.3 4.3-4.3-1.9-4.3-4.3zM541 388.8c0-2.4 1.9-4.3 4.3-4.3s4.3 1.9 4.3 4.3-1.9 4.3-4.3 4.3-4.3-1.9-4.3-4.3zM493.6 388.8c0-2.4 1.9-4.3 4.3-4.3s4.3 1.9 4.3 4.3-1.9 4.3-4.3 4.3-4.3-1.9-4.3-4.3zM446.2 388.8c0-2.4 1.9-4.3 4.3-4.3s4.3 1.9 4.3 4.3-1.9 4.3-4.3 4.3-4.3-1.9-4.3-4.3zM398.7 388.8c0-2.4 1.9-4.3 4.3-4.3s4.3 1.9 4.3 4.3-1.9 4.3-4.3 4.3-4.3-1.9-4.3-4.3zM351.4 388.8c0-2.4 1.9-4.3 4.3-4.3s4.3 1.9 4.3 4.3-1.9 4.3-4.3 4.3-4.3-1.9-4.3-4.3zM635.8 388.8l-19.4 10M644.4 388.8l19.5 10M588.5 388.8l-19.5 10M597.1 388.8l19.3 10M549.6 388.8l19.4 10M683.3 388.8l-19.4 10M711.3 398.8l-19.4-10M446.2 388.8l-19.4 10M454.8 388.8l19.4 10M398.7 388.8l-19.3 10M407.3 388.8l19.5 10M360 388.8l19.4 10M493.6 388.8l-19.4 10M541 388.8l-19.4 10M521.6 398.8l-19.3-10M739.1 433.9c0 2.4-1.9 4.3-4.3 4.3s-4.3-1.9-4.3-4.3 1.9-4.3 4.3-4.3 4.3 2 4.3 4.3zM786.5 433.9c0 2.4-1.9 4.3-4.3 4.3s-4.3-1.9-4.3-4.3 1.9-4.3 4.3-4.3c2.3 0 4.3 2 4.3 4.3zM833.9 433.9c0 2.4-1.9 4.3-4.3 4.3s-4.3-1.9-4.3-4.3 1.9-4.3 4.3-4.3 4.3 2 4.3 4.3zM881.3 433.9c0 2.4-1.9 4.3-4.3 4.3s-4.3-1.9-4.3-4.3 1.9-4.3 4.3-4.3c2.5 0 4.3 2 4.3 4.3zM928.7 433.9c0 2.4-1.9 4.3-4.3 4.3s-4.3-1.9-4.3-4.3 1.9-4.3 4.3-4.3 4.3 2 4.3 4.3zM976.2 433.9c0 2.4-1.9 4.3-4.3 4.3s-4.3-1.9-4.3-4.3 1.9-4.3 4.3-4.3 4.3 2 4.3 4.3zM1023.6 433.9c0 2.4-1.9 4.3-4.3 4.3s-4.3-1.9-4.3-4.3 1.9-4.3 4.3-4.3 4.3 2 4.3 4.3zM1071 433.9c0 2.4-1.9 4.3-4.3 4.3s-4.3-1.9-4.3-4.3 1.9-4.3 4.3-4.3 4.3 2 4.3 4.3zM786.5 433.9l66.8-35.1M777.9 433.9l-19.4-9.9M833.9 433.9l66.9-35.1M825.3 433.9L806 424M872.7 433.9l-19.4-9.9M739.1 433.9l66.9-35.1M691.7 433.9l66.8-35.1M976.2 433.9l71.1-35.1M967.6 433.9l-19.5-9.9M1023.6 433.9l66.8-35.1M1015 433.9l-19.4-9.9M1062.4 433.9L1043 424M928.7 433.9l66.9-35.1M881.4 433.9l66.7-35.1M900.8 424l19.3 9.9M1015 388.8c0-2.4 1.9-4.3 4.3-4.3s4.3 1.9 4.3 4.3-1.9 4.3-4.3 4.3-4.3-1.9-4.3-4.3zM1062.4 388.8c0-2.4 1.9-4.3 4.3-4.3s4.3 1.9 4.3 4.3-1.9 4.3-4.3 4.3-4.3-1.9-4.3-4.3zM967.6 388.8c0-2.4 1.9-4.3 4.3-4.3s4.3 1.9 4.3 4.3-1.9 4.3-4.3 4.3-4.3-1.9-4.3-4.3zM920.1 388.8c0-2.4 1.9-4.3 4.3-4.3s4.3 1.9 4.3 4.3-1.9 4.3-4.3 4.3-4.3-1.9-4.3-4.3zM872.7 388.8c0-2.4 1.9-4.3 4.3-4.3s4.3 1.9 4.3 4.3-1.9 4.3-4.3 4.3-4.3-1.9-4.3-4.3zM825.3 388.8c0-2.4 1.9-4.3 4.3-4.3s4.3 1.9 4.3 4.3-1.9 4.3-4.3 4.3-4.3-1.9-4.3-4.3zM777.9 388.8c0-2.4 1.9-4.3 4.3-4.3s4.3 1.9 4.3 4.3-1.9 4.3-4.3 4.3-4.3-1.9-4.3-4.3zM730.5 388.8c0-2.4 1.9-4.3 4.3-4.3s4.3 1.9 4.3 4.3-1.9 4.3-4.3 4.3-4.3-1.9-4.3-4.3zM967.6 388.8l-19.5 10M976.2 388.8l19.4 10M920.1 388.8l-19.3 10M928.7 388.8l19.4 10M881.3 388.8l19.5 10M1015 388.8l-19.4 10M1062.8 390.8l-15.5 8M1045.1 399.9l-21.5-11.1M777.9 388.8l-19.4 10M786.5 388.8l19.5 10M730.5 388.8l-19.2 10M739.1 388.8l19.4 10M825.3 388.8l-19.3 10M872.7 388.8l-19.4 10M853.3 398.8l-19.4-10M23.8 361.4v23.1M71.1 361.4v23.1M118.6 361.4v23.1M165.9 361.4v23.1M213.4 361.4v23.1M260.9 361.4v23.1M308.2 361.4v23.1M355.7 361.4v23.1M403.1 361.4v23.1M450.5 361.4v23.1M498 361.4v23.1M545.3 361.4v23.1M592.8 361.4v23.1M640.2 361.4v23.1M687.6 361.4v23.1M735 361.4v23.1M782.5 361.4v23.1M829.8 361.4v23.1M877.3 361.4v23.1M924.7 361.4v23.1M972.1 361.4v23.1M1019.6 361.4v23.1M1066.9 361.4v23.1M23.8 438.2v23.3M71.1 438.2v23.3M118.6 438.2v23.3M165.9 438.2v23.3M213.4 438.2v23.3M260.9 438.2v23.3M308.2 438.2v23.3M355.7 438.2v23.3M403.1 438.2v23.3M450.5 438.2v23.3M498 438.2v23.3M545.3 438.2v23.3M592.8 438.2v23.3M640.2 438.2v23.3M687.6 438.2v23.3M735 438.2v23.3M782.5 438.2v23.3M829.8 438.2v23.3M877.3 438.2v23.3M924.7 438.2v23.3M972.1 438.2v23.3M1019.6 438.2v23.3M1066.9 438.2v23.3M28.1 510c0 2.4-1.9 4.3-4.3 4.3s-4.3-1.9-4.3-4.3 1.9-4.3 4.3-4.3 4.3 1.9 4.3 4.3zM75.4 510c0 2.4-1.9 4.3-4.3 4.3s-4.3-1.9-4.3-4.3 1.9-4.3 4.3-4.3 4.3 1.9 4.3 4.3zM122.9 510c0 2.4-1.9 4.3-4.3 4.3s-4.3-1.9-4.3-4.3 1.9-4.3 4.3-4.3 4.3 1.9 4.3 4.3zM170.3 510c0 2.4-1.9 4.3-4.3 4.3s-4.3-1.9-4.3-4.3 1.9-4.3 4.3-4.3c2.3 0 4.3 1.9 4.3 4.3zM217.7 510c0 2.4-1.9 4.3-4.3 4.3s-4.3-1.9-4.3-4.3 1.9-4.3 4.3-4.3 4.3 1.9 4.3 4.3zM265.2 510c0 2.4-1.9 4.3-4.3 4.3s-4.3-1.9-4.3-4.3 1.9-4.3 4.3-4.3 4.3 1.9 4.3 4.3zM312.5 510c0 2.4-1.9 4.3-4.3 4.3s-4.3-1.9-4.3-4.3 1.9-4.3 4.3-4.3 4.3 1.9 4.3 4.3zM75.4 510l66.9-34.3M66.8 510l-20.2-9.5M122.9 510l66.8-34.3M114.3 510l-20.2-9.5M161.6 510l-20.2-9.6M28.1 510l66.7-34.3M0 500.5l19.5 9.5M265.2 510l66.7-34.3M256.6 510l-20.4-9.5M312.5 510l66.9-34.3M303.9 510l-20.2-9.5M351.4 510l-20.3-9.6M217.7 510l66.8-34.3M170.3 510l66.8-34.3M188.9 500.5l20.2 9.5M303.9 465.8c0-2.4 1.9-4.3 4.3-4.3s4.3 1.9 4.3 4.3-1.9 4.3-4.3 4.3c-2.3 0-4.3-2-4.3-4.3zM256.6 465.8c0-2.4 1.9-4.3 4.3-4.3s4.3 1.9 4.3 4.3-1.9 4.3-4.3 4.3c-2.5 0-4.3-2-4.3-4.3zM209.1 465.8c0-2.4 1.9-4.3 4.3-4.3s4.3 1.9 4.3 4.3-1.9 4.3-4.3 4.3-4.3-2-4.3-4.3zM161.6 465.8c0-2.4 1.9-4.3 4.3-4.3s4.3 1.9 4.3 4.3-1.9 4.3-4.3 4.3c-2.3 0-4.3-2-4.3-4.3zM114.3 465.8c0-2.4 1.9-4.3 4.3-4.3s4.3 1.9 4.3 4.3-1.9 4.3-4.3 4.3-4.3-2-4.3-4.3zM66.8 465.8c0-2.4 1.9-4.3 4.3-4.3s4.3 1.9 4.3 4.3-1.9 4.3-4.3 4.3c-2.3 0-4.3-2-4.3-4.3zM19.5 465.8c0-2.4 1.9-4.3 4.3-4.3s4.3 1.9 4.3 4.3-1.9 4.3-4.3 4.3c-2.5 0-4.3-2-4.3-4.3zM256.6 465.8l-19.5 9.9M265.2 465.8l19.3 9.9M209.1 465.8l-19.4 9.9M217.7 465.8l19.4 9.9M170.3 465.8l19.4 9.9M303.9 465.8l-19.4 9.9M351.4 465.8l-19.5 9.9M331.9 475.7l-19.4-9.9M66.8 465.8L0 500.5M75.4 465.8l19.4 9.9M19.5 465.8L0 475.8M28.1 465.8l19.4 9.9M114.3 465.8l-19.5 9.9M161.6 465.8l-19.3 9.9M142.3 475.7l-19.4-9.9M407.3 510c0 2.4-1.9 4.3-4.3 4.3s-4.3-1.9-4.3-4.3 1.9-4.3 4.3-4.3 4.3 1.9 4.3 4.3zM360 510c0 2.4-1.9 4.3-4.3 4.3s-4.3-1.9-4.3-4.3 1.9-4.3 4.3-4.3 4.3 1.9 4.3 4.3zM454.8 510c0 2.4-1.9 4.3-4.3 4.3s-4.3-1.9-4.3-4.3 1.9-4.3 4.3-4.3 4.3 1.9 4.3 4.3zM502.3 510c0 2.4-1.9 4.3-4.3 4.3s-4.3-1.9-4.3-4.3 1.9-4.3 4.3-4.3 4.3 1.9 4.3 4.3zM549.6 510c0 2.4-1.9 4.3-4.3 4.3s-4.3-1.9-4.3-4.3 1.9-4.3 4.3-4.3 4.3 1.9 4.3 4.3zM597.1 510c0 2.4-1.9 4.3-4.3 4.3s-4.3-1.9-4.3-4.3 1.9-4.3 4.3-4.3 4.3 1.9 4.3 4.3zM644.4 510c0 2.4-1.9 4.3-4.3 4.3s-4.3-1.9-4.3-4.3 1.9-4.3 4.3-4.3 4.3 1.9 4.3 4.3zM691.9 510c0 2.4-1.9 4.3-4.3 4.3s-4.3-1.9-4.3-4.3 1.9-4.3 4.3-4.3c2.3 0 4.3 1.9 4.3 4.3zM454.8 510l66.8-34.3M446.2 510l-20.2-9.6M502.3 510l66.7-34.3M493.6 510l-20.2-9.6M541 510l-20.2-9.6M407.3 510l66.9-34.3M360 510l66.8-34.3M378.6 500.4l20.1 9.6M644.4 510l66.9-34.3M635.8 510l-20.2-9.6M683.3 510l-20.3-9.6M730.5 510l-20.1-9.6M597.1 510l66.8-34.3M549.6 510l66.8-34.3M568.2 500.4l20.3 9.6M683.3 465.8c0-2.4 1.9-4.3 4.3-4.3s4.3 1.9 4.3 4.3-1.9 4.3-4.3 4.3-4.3-2-4.3-4.3zM635.8 465.8c0-2.4 1.9-4.3 4.3-4.3s4.3 1.9 4.3 4.3-1.9 4.3-4.3 4.3-4.3-2-4.3-4.3zM588.5 465.8c0-2.4 1.9-4.3 4.3-4.3s4.3 1.9 4.3 4.3-1.9 4.3-4.3 4.3-4.3-2-4.3-4.3zM541 465.8c0-2.4 1.9-4.3 4.3-4.3s4.3 1.9 4.3 4.3-1.9 4.3-4.3 4.3-4.3-2-4.3-4.3zM493.6 465.8c0-2.4 1.9-4.3 4.3-4.3s4.3 1.9 4.3 4.3-1.9 4.3-4.3 4.3-4.3-2-4.3-4.3zM446.2 465.8c0-2.4 1.9-4.3 4.3-4.3s4.3 1.9 4.3 4.3-1.9 4.3-4.3 4.3-4.3-2-4.3-4.3zM398.7 465.8c0-2.4 1.9-4.3 4.3-4.3s4.3 1.9 4.3 4.3-1.9 4.3-4.3 4.3-4.3-2-4.3-4.3zM351.4 465.8c0-2.4 1.9-4.3 4.3-4.3s4.3 1.9 4.3 4.3-1.9 4.3-4.3 4.3-4.3-2-4.3-4.3zM635.8 465.8l-19.4 9.9M644.4 465.8l19.5 9.9M588.5 465.8l-19.5 9.9M597.1 465.8l19.3 9.9M549.6 465.8l19.4 9.9M683.3 465.8l-19.4 9.9M711.3 475.7l-19.4-9.9M446.2 465.8l-19.4 9.9M454.8 465.8l19.4 9.9M398.7 465.8l-19.3 9.9M407.3 465.8l19.5 9.9M360 465.8l19.4 9.9M493.6 465.8l-19.4 9.9M541 465.8l-19.4 9.9M521.6 475.7l-19.3-9.9M739.1 510c0 2.4-1.9 4.3-4.3 4.3s-4.3-1.9-4.3-4.3 1.9-4.3 4.3-4.3 4.3 1.9 4.3 4.3zM786.5 510c0 2.4-1.9 4.3-4.3 4.3s-4.3-1.9-4.3-4.3 1.9-4.3 4.3-4.3c2.3 0 4.3 1.9 4.3 4.3zM833.9 510c0 2.4-1.9 4.3-4.3 4.3s-4.3-1.9-4.3-4.3 1.9-4.3 4.3-4.3 4.3 1.9 4.3 4.3zM881.3 510c0 2.4-1.9 4.3-4.3 4.3s-4.3-1.9-4.3-4.3 1.9-4.3 4.3-4.3c2.5 0 4.3 1.9 4.3 4.3zM928.7 510c0 2.4-1.9 4.3-4.3 4.3s-4.3-1.9-4.3-4.3 1.9-4.3 4.3-4.3 4.3 1.9 4.3 4.3zM976.2 510c0 2.4-1.9 4.3-4.3 4.3s-4.3-1.9-4.3-4.3 1.9-4.3 4.3-4.3 4.3 1.9 4.3 4.3zM1023.6 510c0 2.4-1.9 4.3-4.3 4.3s-4.3-1.9-4.3-4.3 1.9-4.3 4.3-4.3 4.3 1.9 4.3 4.3zM1071 510c0 2.4-1.9 4.3-4.3 4.3s-4.3-1.9-4.3-4.3 1.9-4.3 4.3-4.3 4.3 1.9 4.3 4.3zM786.5 510l66.8-34.3M777.9 510l-20.3-9.6M833.9 510l66.9-34.3M825.3 510l-20.2-9.6M872.7 510l-20.1-9.6M739.1 510l66.9-34.3M691.9 510l66.6-34.3M976.2 510l66.8-34.3M967.6 510l-20.2-9.6M1023.6 510l66.8-34.3M1015 510l-20.3-9.6M1062.4 510l-18-10.2M928.7 510l66.9-34.3M881.3 510l66.8-34.3M899.9 500.4l20.2 9.6M1015 465.8c0-2.4 1.9-4.3 4.3-4.3s4.3 1.9 4.3 4.3-1.9 4.3-4.3 4.3-4.3-2-4.3-4.3zM1062.4 465.8c0-2.4 1.9-4.3 4.3-4.3s4.3 1.9 4.3 4.3-1.9 4.3-4.3 4.3-4.3-2-4.3-4.3zM967.6 465.8c0-2.4 1.9-4.3 4.3-4.3s4.3 1.9 4.3 4.3-1.9 4.3-4.3 4.3-4.3-2-4.3-4.3zM920.1 465.8c0-2.4 1.9-4.3 4.3-4.3s4.3 1.9 4.3 4.3-1.9 4.3-4.3 4.3-4.3-2-4.3-4.3zM872.7 465.8c0-2.4 1.9-4.3 4.3-4.3s4.3 1.9 4.3 4.3-1.9 4.3-4.3 4.3-4.3-2-4.3-4.3zM825.3 465.8c0-2.4 1.9-4.3 4.3-4.3s4.3 1.9 4.3 4.3-1.9 4.3-4.3 4.3-4.3-2-4.3-4.3zM777.9 465.8c0-2.4 1.9-4.3 4.3-4.3s4.3 1.9 4.3 4.3-1.9 4.3-4.3 4.3-4.3-2-4.3-4.3zM730.5 465.8c0-2.4 1.9-4.3 4.3-4.3s4.3 1.9 4.3 4.3-1.9 4.3-4.3 4.3-4.3-2-4.3-4.3zM967.6 465.8l-19.5 9.9M976.2 465.8l19.4 9.9M920.1 465.8l-19.3 9.9M928.7 465.8l19.4 9.9M881.3 465.8l19.5 9.9M1015 465.8l-19.4 9.9M1062.4 465.8l-19.4 9.9M1043 475.7l-19.4-9.9M777.9 465.8l-19.4 9.9M786.5 465.8l19.5 9.9M730.5 465.8l-19.2 9.9M739.1 465.8l19.4 9.9M825.3 465.8l-19.3 9.9M872.7 465.8l-19.4 9.9M853.3 475.7l-19.4-9.9M28.1 587c0 2.4-1.9 4.3-4.3 4.3s-4.3-1.9-4.3-4.3 1.9-4.3 4.3-4.3 4.3 1.9 4.3 4.3zM75.4 587c0 2.4-1.9 4.3-4.3 4.3s-4.3-1.9-4.3-4.3 1.9-4.3 4.3-4.3c2.4-.1 4.3 1.9 4.3 4.3zM122.9 587c0 2.4-1.9 4.3-4.3 4.3s-4.3-1.9-4.3-4.3 1.9-4.3 4.3-4.3c2.4-.1 4.3 1.9 4.3 4.3zM170.3 587c0 2.4-1.9 4.3-4.3 4.3s-4.3-1.9-4.3-4.3 1.9-4.3 4.3-4.3c2.3-.1 4.3 1.9 4.3 4.3zM217.7 587c0 2.4-1.9 4.3-4.3 4.3s-4.3-1.9-4.3-4.3 1.9-4.3 4.3-4.3 4.3 1.9 4.3 4.3zM265.2 587c0 2.4-1.9 4.3-4.3 4.3s-4.3-1.9-4.3-4.3 1.9-4.3 4.3-4.3 4.3 1.9 4.3 4.3zM312.5 587c0 2.4-1.9 4.3-4.3 4.3s-4.3-1.9-4.3-4.3 1.9-4.3 4.3-4.3 4.3 1.9 4.3 4.3zM75.4 587l66.9-35.2M66.8 587l-19.3-10.1M122.9 587l66.8-35.2M114.3 587l-19.4-10.1M161.6 587l-19.3-10.1M28.1 587l66.7-35.2M0 576.9l47.5-25.1M0 576.9L19.5 587M265.2 587l66.7-35.2M256.6 587l-19.5-10.1M312.5 587l66.9-35.2M303.9 587l-19.4-10.1M351.4 587l-19.5-10.1M217.7 587l66.8-35.2M170.3 587l66.8-35.2M189.7 576.9l19.4 10.1M303.9 541.9c0-2.4 1.9-4.3 4.3-4.3s4.3 1.9 4.3 4.3-1.9 4.3-4.3 4.3c-2.3 0-4.3-2-4.3-4.3zM256.6 541.9c0-2.4 1.9-4.3 4.3-4.3s4.3 1.9 4.3 4.3-1.9 4.3-4.3 4.3c-2.5 0-4.3-2-4.3-4.3zM209.1 541.9c0-2.4 1.9-4.3 4.3-4.3s4.3 1.9 4.3 4.3-1.9 4.3-4.3 4.3-4.3-2-4.3-4.3zM161.6 541.9c0-2.4 1.9-4.3 4.3-4.3s4.3 1.9 4.3 4.3-1.9 4.3-4.3 4.3c-2.3 0-4.3-2-4.3-4.3zM114.3 541.9c0-2.4 1.9-4.3 4.3-4.3s4.3 1.9 4.3 4.3-1.9 4.3-4.3 4.3-4.3-2-4.3-4.3zM66.8 541.9c0-2.4 1.9-4.3 4.3-4.3s4.3 1.9 4.3 4.3-1.9 4.3-4.3 4.3c-2.3 0-4.3-2-4.3-4.3zM19.5 541.9c0-2.4 1.9-4.3 4.3-4.3s4.3 1.9 4.3 4.3-1.9 4.3-4.3 4.3c-2.5 0-4.3-2-4.3-4.3zM256.6 541.9l-19.5 9.9M265.2 541.9l19.3 9.9M209.1 541.9l-19.4 9.9M217.7 541.9l19.4 9.9M170.3 541.9l19.4 9.9M303.9 541.9l-19.4 9.9M351.4 541.9l-19.5 9.9M331.9 551.8l-19.4-9.9M66.8 541.9l-19.3 9.9M75.4 541.9l19.4 9.9M19.5 541.9L0 551.8M28.1 541.9l19.4 9.9M114.3 541.9l-19.5 9.9M161.6 541.9l-19.3 9.9M142.3 551.8l-19.4-9.9M407.3 587c0 2.4-1.9 4.3-4.3 4.3s-4.3-1.9-4.3-4.3 1.9-4.3 4.3-4.3 4.3 1.9 4.3 4.3zM360 587c0 2.4-1.9 4.3-4.3 4.3s-4.3-1.9-4.3-4.3 1.9-4.3 4.3-4.3 4.3 1.9 4.3 4.3zM454.8 587c0 2.4-1.9 4.3-4.3 4.3s-4.3-1.9-4.3-4.3 1.9-4.3 4.3-4.3c2.4-.1 4.3 1.9 4.3 4.3zM502.3 587c0 2.4-1.9 4.3-4.3 4.3s-4.3-1.9-4.3-4.3 1.9-4.3 4.3-4.3 4.3 1.9 4.3 4.3zM549.6 587c0 2.4-1.9 4.3-4.3 4.3s-4.3-1.9-4.3-4.3 1.9-4.3 4.3-4.3 4.3 1.9 4.3 4.3zM597.1 587c0 2.4-1.9 4.3-4.3 4.3s-4.3-1.9-4.3-4.3 1.9-4.3 4.3-4.3 4.3 1.9 4.3 4.3zM644.4 587c0 2.4-1.9 4.3-4.3 4.3s-4.3-1.9-4.3-4.3 1.9-4.3 4.3-4.3 4.3 1.9 4.3 4.3zM691.9 587c0 2.4-1.9 4.3-4.3 4.3s-4.3-1.9-4.3-4.3 1.9-4.3 4.3-4.3c2.3-.1 4.3 1.9 4.3 4.3zM454.8 587l66.8-35.2M446.2 587l-19.4-10.1M502.3 587l66.7-35.2M493.6 587l-19.4-10.1M541 587l-19.4-10.1M407.3 587l66.9-35.2M360 586.8l66.8-35M379.4 576.9l19.3 10.1M644.4 587l66.9-35.2M635.8 587l-19.4-10.1M683.3 587l-19.4-10.1M730.7 587l-19.4-10.1M597.1 587l66.8-35.2M549.6 587l66.8-35.2M569 576.9l19.5 10.1M683.3 541.9c0-2.4 1.9-4.3 4.3-4.3s4.3 1.9 4.3 4.3-1.9 4.3-4.3 4.3-4.3-2-4.3-4.3zM635.8 541.9c0-2.4 1.9-4.3 4.3-4.3s4.3 1.9 4.3 4.3-1.9 4.3-4.3 4.3-4.3-2-4.3-4.3zM588.5 541.9c0-2.4 1.9-4.3 4.3-4.3s4.3 1.9 4.3 4.3-1.9 4.3-4.3 4.3-4.3-2-4.3-4.3zM541 541.9c0-2.4 1.9-4.3 4.3-4.3s4.3 1.9 4.3 4.3-1.9 4.3-4.3 4.3-4.3-2-4.3-4.3zM493.6 541.9c0-2.4 1.9-4.3 4.3-4.3s4.3 1.9 4.3 4.3-1.9 4.3-4.3 4.3-4.3-2-4.3-4.3zM446.2 541.9c0-2.4 1.9-4.3 4.3-4.3s4.3 1.9 4.3 4.3-1.9 4.3-4.3 4.3-4.3-2-4.3-4.3zM398.7 541.9c0-2.4 1.9-4.3 4.3-4.3s4.3 1.9 4.3 4.3-1.9 4.3-4.3 4.3-4.3-2-4.3-4.3zM351.4 541.9c0-2.4 1.9-4.3 4.3-4.3s4.3 1.9 4.3 4.3-1.9 4.3-4.3 4.3-4.3-2-4.3-4.3zM635.8 541.9l-19.4 9.9M644.4 541.9l19.5 9.9M588.5 541.9l-19.5 9.9M597.1 541.9l19.3 9.9M549.6 541.9l19.4 9.9M683.3 541.9l-19.4 9.9M711.3 551.8l-19.4-9.9M446.2 541.9l-19.4 9.9M454.8 541.9l19.4 9.9M398.7 541.9l-19.3 9.9M407.3 541.9l19.5 9.9M360 541.9l19.4 9.9M493.6 541.9l-19.4 9.9M541 541.9l-19.4 9.9M521.6 551.8l-19.3-9.9M739.1 587c0 2.4-1.9 4.3-4.3 4.3s-4.3-1.9-4.3-4.3 1.9-4.3 4.3-4.3 4.3 1.9 4.3 4.3zM786.5 587c0 2.4-1.9 4.3-4.3 4.3s-4.3-1.9-4.3-4.3 1.9-4.3 4.3-4.3c2.3-.1 4.3 1.9 4.3 4.3zM833.9 587c0 2.4-1.9 4.3-4.3 4.3s-4.3-1.9-4.3-4.3 1.9-4.3 4.3-4.3c2.4-.1 4.3 1.9 4.3 4.3zM881.3 587c0 2.4-1.9 4.3-4.3 4.3s-4.3-1.9-4.3-4.3 1.9-4.3 4.3-4.3c2.5-.1 4.3 1.9 4.3 4.3zM928.7 587c0 2.4-1.9 4.3-4.3 4.3s-4.3-1.9-4.3-4.3 1.9-4.3 4.3-4.3 4.3 1.9 4.3 4.3zM976.2 587c0 2.4-1.9 4.3-4.3 4.3s-4.3-1.9-4.3-4.3 1.9-4.3 4.3-4.3 4.3 1.9 4.3 4.3zM1023.6 587c0 2.4-1.9 4.3-4.3 4.3s-4.3-1.9-4.3-4.3 1.9-4.3 4.3-4.3 4.3 1.9 4.3 4.3zM1071 587c0 2.4-1.9 4.3-4.3 4.3s-4.3-1.9-4.3-4.3 1.9-4.3 4.3-4.3c2.4-.1 4.3 1.9 4.3 4.3zM786.5 587l66.8-35.2M777.9 587l-19.4-10.1M833.9 587l66.9-35.2M825.3 587L806 576.9M872.7 587l-19.4-10.1M739.1 587l66.9-35.2M691.7 586.8l66.8-35M976.2 587l68.9-34.2M967.6 587l-19.5-10.1M1023.6 587l66.8-35.2M1015 587l-19.4-10.1M1062.4 587l-19.4-10.1M928.7 587l66.9-35.2M881.4 587l66.7-35.2M900.8 576.9l19.3 10.1M1015 541.9c0-2.4 1.9-4.3 4.3-4.3s4.3 1.9 4.3 4.3-1.9 4.3-4.3 4.3-4.3-2-4.3-4.3zM1062.4 541.9c0-2.4 1.9-4.3 4.3-4.3s4.3 1.9 4.3 4.3-1.9 4.3-4.3 4.3-4.3-2-4.3-4.3zM967.6 541.9c0-2.4 1.9-4.3 4.3-4.3s4.3 1.9 4.3 4.3-1.9 4.3-4.3 4.3-4.3-2-4.3-4.3zM920.1 541.9c0-2.4 1.9-4.3 4.3-4.3s4.3 1.9 4.3 4.3-1.9 4.3-4.3 4.3-4.3-2-4.3-4.3zM872.7 541.9c0-2.4 1.9-4.3 4.3-4.3s4.3 1.9 4.3 4.3-1.9 4.3-4.3 4.3-4.3-2-4.3-4.3zM825.3 541.9c0-2.4 1.9-4.3 4.3-4.3s4.3 1.9 4.3 4.3-1.9 4.3-4.3 4.3-4.3-2-4.3-4.3zM777.9 541.9c0-2.4 1.9-4.3 4.3-4.3s4.3 1.9 4.3 4.3-1.9 4.3-4.3 4.3-4.3-2-4.3-4.3zM730.5 541.9c0-2.4 1.9-4.3 4.3-4.3s4.3 1.9 4.3 4.3-1.9 4.3-4.3 4.3-4.3-2-4.3-4.3zM967.6 541.9l-19.5 9.9M976.2 541.9l19.4 9.9M920.1 541.9l-19.3 9.9M928.7 541.9l19.4 9.9M881.3 541.9l19.5 9.9M1015 541.9l-19.4 9.9M1062.8 543.8l-17.7 9M1045.1 552.8l-21.5-10.9M777.9 541.9l-19.4 9.9M786.5 541.9l19.5 9.9M730.5 541.9l-19.2 9.9M739.1 541.9l19.4 9.9M825.3 541.9l-19.3 9.9M872.7 541.9l-19.4 9.9M853.3 551.8l-19.4-9.9M23.8 514.3v23.3M71.1 514.3v23.3M118.6 514.3v23.3M165.9 514.3v23.3M213.4 514.3v23.3M260.9 514.3v23.3M308.2 514.3v23.3M355.7 514.3v23.3M403.1 514.3v23.3M450.5 514.3v23.3M498 514.3v23.3M545.3 514.3v23.3M592.8 514.3v23.3M640.2 514.3v23.3M687.6 514.3v23.3M735 514.3v23.3M782.5 514.3v23.3M829.8 514.3v23.3M877.3 514.3v23.3M924.7 514.3v23.3M972.1 514.3v23.3M1019.6 514.3v23.3M1066.9 514.3v23.3M23.8 591.3v23.1M71.1 591.3v23.1M118.6 591.3v23.1M165.9 591.3v23.1M213.4 591.3v23.1M260.9 591.3v23.1M308.2 591.3v23.1M355.7 591.3v23.1M403.1 591.3v23.1M450.5 591.3v23.1M498 591.3v23.1M545.3 591.3v23.1M592.8 591.3v23.1M640.2 591.3v23.1M687.6 591.3v23.1M735 591.3v23.1M782.5 591.3v23.1M829.8 591.3v23.1M877.3 591.3v23.1M924.7 591.3v23.1M972.1 591.3v23.1M1019.6 591.3v23.1M1066.9 591.3v23.1M1118.5 49.4c0 2.4-1.9 4.3-4.3 4.3s-4.3-1.9-4.3-4.3 1.9-4.3 4.3-4.3c2.3 0 4.3 1.9 4.3 4.3zM1165.8 49.4c0 2.4-1.9 4.3-4.3 4.3s-4.3-1.9-4.3-4.3 1.9-4.3 4.3-4.3 4.3 1.9 4.3 4.3zM1213.3 49.4c0 2.4-1.9 4.3-4.3 4.3s-4.3-1.9-4.3-4.3 1.9-4.3 4.3-4.3 4.3 1.9 4.3 4.3zM1260.6 49.4c0 2.4-1.9 4.3-4.3 4.3s-4.3-1.9-4.3-4.3 1.9-4.3 4.3-4.3 4.3 1.9 4.3 4.3zM1308.1 49.4c0 2.4-1.9 4.3-4.3 4.3s-4.3-1.9-4.3-4.3 1.9-4.3 4.3-4.3 4.3 1.9 4.3 4.3zM1355.6 49.4c0 2.4-1.9 4.3-4.3 4.3s-4.3-1.9-4.3-4.3 1.9-4.3 4.3-4.3c2.3 0 4.3 1.9 4.3 4.3zM1402.9 49.4c0 2.4-1.9 4.3-4.3 4.3s-4.3-1.9-4.3-4.3 1.9-4.3 4.3-4.3 4.3 1.9 4.3 4.3zM1165.8 49.4l66.9-35.2M1157.2 49.4l-19.3-10M1213.3 49.4l66.8-35.2M1204.7 49.4l-19.4-10M1252 49.4l-19.3-10M1118.5 49.4l66.7-35.2M1071 49.4l66.9-35.2M1090.4 39.4l19.5 10M1355.6 49.4l66.7-35.2M1347 49.4l-19.5-10M1402.9 49.4l66.8-35.2M1394.3 49.4l-19.4-10M1441.8 49.4l-19.5-10M1308.1 49.4l66.8-35.2M1260.6 49.4l66.9-35.2M1280.1 39.4l19.4 10M1394.3 4.3c0-2.4 1.9-4.3 4.3-4.3s4.3 1.9 4.3 4.3-1.9 4.3-4.3 4.3-4.3-1.9-4.3-4.3zM1347 4.3c0-2.4 1.9-4.3 4.3-4.3s4.3 1.9 4.3 4.3-1.9 4.3-4.3 4.3c-2.5 0-4.3-1.9-4.3-4.3zM1299.5 4.3c0-2.4 1.9-4.3 4.3-4.3s4.3 1.9 4.3 4.3-1.9 4.3-4.3 4.3-4.3-1.9-4.3-4.3zM1252 4.3c0-2.4 1.9-4.3 4.3-4.3s4.3 1.9 4.3 4.3-1.9 4.3-4.3 4.3c-2.3 0-4.3-1.9-4.3-4.3zM1204.7 4.3c0-2.4 1.9-4.3 4.3-4.3s4.3 1.9 4.3 4.3-1.9 4.3-4.3 4.3-4.3-1.9-4.3-4.3zM1157.2 4.3c0-2.4 1.9-4.3 4.3-4.3s4.3 1.9 4.3 4.3-1.9 4.3-4.3 4.3c-2.3 0-4.3-1.9-4.3-4.3zM1109.9 4.3c0-2.4 1.9-4.3 4.3-4.3s4.3 1.9 4.3 4.3-1.9 4.3-4.3 4.3c-2.5 0-4.3-1.9-4.3-4.3zM1347 4.3l-19.5 9.9M1355.6 4.3l19.3 9.9M1299.5 4.3l-19.4 9.9M1308.1 4.3l19.4 9.9M1260.6 4.3l19.5 9.9M1394.3 4.3l-19.4 9.9M1441.8 4.3l-19.5 9.9M1422.3 14.2l-19.4-9.9M1157.2 4.3l-19.3 9.9M1165.8 4.3l19.4 9.9M1109.9 4.3l-19.5 9.9M1118.5 4.3l19.4 9.9M1071 4.3l19.4 9.9M1204.7 4.3l-19.5 9.9M1252 4.3l-19.3 9.9M1232.7 14.2l-19.4-9.9M1450.4 49.4c0 2.4-1.9 4.3-4.3 4.3s-4.3-1.9-4.3-4.3 1.9-4.3 4.3-4.3c2.3 0 4.3 1.9 4.3 4.3zM1450.4 49.4l19-10M1441.8 4.3c0-2.4 1.9-4.3 4.3-4.3s4.3 1.9 4.3 4.3-1.9 4.3-4.3 4.3-4.3-1.9-4.3-4.3zM1450.4 4.3l19.3 9.9M1118.5 126.3c0 2.4-1.9 4.3-4.3 4.3s-4.3-1.9-4.3-4.3 1.9-4.3 4.3-4.3c2.3 0 4.3 1.9 4.3 4.3zM1165.8 126.3c0 2.4-1.9 4.3-4.3 4.3s-4.3-1.9-4.3-4.3 1.9-4.3 4.3-4.3 4.3 1.9 4.3 4.3zM1213.3 126.3c0 2.4-1.9 4.3-4.3 4.3s-4.3-1.9-4.3-4.3 1.9-4.3 4.3-4.3 4.3 1.9 4.3 4.3zM1260.6 126.3c0 2.4-1.9 4.3-4.3 4.3s-4.3-1.9-4.3-4.3 1.9-4.3 4.3-4.3 4.3 1.9 4.3 4.3zM1308.1 126.3c0 2.4-1.9 4.3-4.3 4.3s-4.3-1.9-4.3-4.3 1.9-4.3 4.3-4.3 4.3 1.9 4.3 4.3zM1355.6 126.3c0 2.4-1.9 4.3-4.3 4.3s-4.3-1.9-4.3-4.3 1.9-4.3 4.3-4.3c2.3 0 4.3 1.9 4.3 4.3zM1402.9 126.3c0 2.4-1.9 4.3-4.3 4.3s-4.3-1.9-4.3-4.3 1.9-4.3 4.3-4.3 4.3 1.9 4.3 4.3zM1165.8 126.3l66.9-35.1M1157.2 126.3l-19.3-10M1213.3 126.3l66.8-35.1M1204.7 126.3l-19.4-10M1252 126.3l-19.3-10M1118.5 126.3l66.7-35.1M1071 126.3l66.9-35.1M1090.4 116.3l19.5 10M1355.6 126.3l66.7-35.1M1347 126.3l-19.5-10M1402.9 126.3l66.8-35.1M1394.3 126.3l-19.4-10M1441.8 126.3l-19.5-10M1308.1 126.3l66.8-35.1M1260.6 126.3l66.9-35.1M1280.1 116.3l19.4 10M1394.3 81.3c0-2.4 1.9-4.3 4.3-4.3s4.3 1.9 4.3 4.3-1.9 4.3-4.3 4.3c-2.4-.2-4.3-2-4.3-4.3zM1347 81.3c0-2.4 1.9-4.3 4.3-4.3s4.3 1.9 4.3 4.3-1.9 4.3-4.3 4.3c-2.5-.2-4.3-2-4.3-4.3zM1299.5 81.3c0-2.4 1.9-4.3 4.3-4.3s4.3 1.9 4.3 4.3-1.9 4.3-4.3 4.3c-2.4-.2-4.3-2-4.3-4.3zM1252 81.3c0-2.4 1.9-4.3 4.3-4.3s4.3 1.9 4.3 4.3-1.9 4.3-4.3 4.3c-2.3-.2-4.3-2-4.3-4.3zM1204.7 81.3c0-2.4 1.9-4.3 4.3-4.3s4.3 1.9 4.3 4.3-1.9 4.3-4.3 4.3c-2.4-.2-4.3-2-4.3-4.3zM1157.2 81.3c0-2.4 1.9-4.3 4.3-4.3s4.3 1.9 4.3 4.3-1.9 4.3-4.3 4.3c-2.3-.2-4.3-2-4.3-4.3zM1109.9 81.3c0-2.4 1.9-4.3 4.3-4.3s4.3 1.9 4.3 4.3-1.9 4.3-4.3 4.3c-2.5-.2-4.3-2-4.3-4.3zM1347 81.1l-19.5 10.1M1355.6 81.1l19.3 10.1M1299.5 81.1l-19.4 10.1M1308.1 81.1l19.4 10.1M1260.6 81.1l19.5 10.1M1394.3 81.1l-19.4 10.1M1441.8 81.3l-19.5 9.9M1422.3 91.2l-19.4-10.1M1157.2 81.1l-19.3 10.1M1165.8 81.1l19.4 10.1M1109.9 81.1l-19.5 10.1M1118.5 81.1l19.4 10.1M1071 81.1l19.4 10.1M1204.7 81.1l-19.5 10.1M1252 81.1l-19.3 10.1M1232.7 91.2l-19.4-10.1M1450.4 126.3c0 2.4-1.9 4.3-4.3 4.3s-4.3-1.9-4.3-4.3 1.9-4.3 4.3-4.3c2.3 0 4.3 1.9 4.3 4.3zM1450.4 126.2l18.8-9.9M1441.8 81.3c0-2.4 1.9-4.3 4.3-4.3s4.3 1.9 4.3 4.3-1.9 4.3-4.3 4.3c-2.4-.2-4.3-2-4.3-4.3zM1450.4 81.1l19.3 10.1M1114.2 53.7v23.1M1161.5 53.7v23.1M1209 53.7v23.1M1256.3 53.7v23.1M1303.8 53.7v23.1M1351.3 53.7v23.1M1398.6 53.7v23.1M1446.1 53.7v23.1M1114.2 130.6v23.2M1161.5 130.6v23.2M1209 130.6v23.2M1256.3 130.6v23.2M1303.8 130.6v23.2M1351.3 130.6v23.2M1398.6 130.6v23.2M1446.1 130.6v23.2M1118.5 203.2c0 2.4-1.9 4.3-4.3 4.3s-4.3-1.9-4.3-4.3 1.9-4.3 4.3-4.3c2.3 0 4.3 1.9 4.3 4.3zM1165.8 203.2c0 2.4-1.9 4.3-4.3 4.3s-4.3-1.9-4.3-4.3 1.9-4.3 4.3-4.3 4.3 1.9 4.3 4.3zM1213.3 203.2c0 2.4-1.9 4.3-4.3 4.3s-4.3-1.9-4.3-4.3 1.9-4.3 4.3-4.3 4.3 1.9 4.3 4.3zM1260.6 203.2c0 2.4-1.9 4.3-4.3 4.3s-4.3-1.9-4.3-4.3 1.9-4.3 4.3-4.3 4.3 1.9 4.3 4.3zM1308.1 203.2c0 2.4-1.9 4.3-4.3 4.3s-4.3-1.9-4.3-4.3 1.9-4.3 4.3-4.3 4.3 1.9 4.3 4.3zM1355.6 203.2c0 2.4-1.9 4.3-4.3 4.3s-4.3-1.9-4.3-4.3 1.9-4.3 4.3-4.3c2.3 0 4.3 1.9 4.3 4.3zM1402.9 203.2c0 2.4-1.9 4.3-4.3 4.3s-4.3-1.9-4.3-4.3 1.9-4.3 4.3-4.3 4.3 1.9 4.3 4.3zM1165.8 203.2l66.9-35.1M1157.2 203.2l-19.3-9.9M1213.3 203.2l66.8-35.1M1204.7 203.2l-19.4-9.9M1252 203.2l-19.3-9.9M1118.5 203.2l66.7-35.1M1090.4 193.3l19.5 9.9M1355.6 203.2l66.7-35.1M1347 203.2l-19.5-9.9M1402.9 203.2l66.8-35.1M1394.3 203.2l-19.4-9.9M1441.8 203.2l-19.5-9.9M1308.1 203.2l66.8-35.1M1260.6 203.2l66.9-35.1M1280.1 193.3l19.4 9.9M1394.3 158.1c0-2.4 1.9-4.3 4.3-4.3s4.3 1.9 4.3 4.3-1.9 4.3-4.3 4.3-4.3-1.9-4.3-4.3zM1347 158.1c0-2.4 1.9-4.3 4.3-4.3s4.3 1.9 4.3 4.3-1.9 4.3-4.3 4.3c-2.5 0-4.3-1.9-4.3-4.3zM1299.5 158.1c0-2.4 1.9-4.3 4.3-4.3s4.3 1.9 4.3 4.3-1.9 4.3-4.3 4.3-4.3-1.9-4.3-4.3zM1252 158.1c0-2.4 1.9-4.3 4.3-4.3s4.3 1.9 4.3 4.3-1.9 4.3-4.3 4.3c-2.3 0-4.3-1.9-4.3-4.3zM1204.7 158.1c0-2.4 1.9-4.3 4.3-4.3s4.3 1.9 4.3 4.3-1.9 4.3-4.3 4.3-4.3-1.9-4.3-4.3zM1157.2 158.1c0-2.4 1.9-4.3 4.3-4.3s4.3 1.9 4.3 4.3-1.9 4.3-4.3 4.3c-2.3 0-4.3-1.9-4.3-4.3zM1109.9 158.1c0-2.4 1.9-4.3 4.3-4.3s4.3 1.9 4.3 4.3-1.9 4.3-4.3 4.3c-2.5 0-4.3-1.9-4.3-4.3zM1347 158.1l-19.5 10M1355.6 158.1l19.3 10M1299.5 158.1l-19.4 10M1308.1 158.1l19.4 10M1260.6 158.1l19.5 10M1394.3 158.1l-19.4 10M1441.8 158.1l-19.5 10M1422.3 168.1l-19.4-10M1157.2 158.1l-86.2 45.1M1165.8 158.1l19.4 10M1109.9 158.1l-19.5 10M1118.5 158.1l19.4 10M1071 158.1l19.4 10M1204.7 158.1l-19.5 10M1252 158.1l-19.3 10M1232.7 168.1l-19.4-10M1450.4 203.2c0 2.4-1.9 4.3-4.3 4.3s-4.3-1.9-4.3-4.3 1.9-4.3 4.3-4.3c2.3 0 4.3 1.9 4.3 4.3zM1450.4 203.2l18.8-9.9M1441.8 158.1c0-2.4 1.9-4.3 4.3-4.3s4.3 1.9 4.3 4.3-1.9 4.3-4.3 4.3-4.3-1.9-4.3-4.3zM1450.4 158.1l19.3 10M1118.5 280.1c0 2.4-1.9 4.3-4.3 4.3s-4.3-1.9-4.3-4.3 1.9-4.3 4.3-4.3c2.3 0 4.3 2 4.3 4.3zM1165.8 280.1c0 2.4-1.9 4.3-4.3 4.3s-4.3-1.9-4.3-4.3 1.9-4.3 4.3-4.3 4.3 2 4.3 4.3zM1213.3 280.1c0 2.4-1.9 4.3-4.3 4.3s-4.3-1.9-4.3-4.3 1.9-4.3 4.3-4.3 4.3 2 4.3 4.3zM1260.6 280.1c0 2.4-1.9 4.3-4.3 4.3s-4.3-1.9-4.3-4.3 1.9-4.3 4.3-4.3 4.3 2 4.3 4.3zM1308.1 280.1c0 2.4-1.9 4.3-4.3 4.3s-4.3-1.9-4.3-4.3 1.9-4.3 4.3-4.3 4.3 2 4.3 4.3zM1355.6 280.1c0 2.4-1.9 4.3-4.3 4.3s-4.3-1.9-4.3-4.3 1.9-4.3 4.3-4.3c2.3 0 4.3 2 4.3 4.3zM1402.9 280.1c0 2.4-1.9 4.3-4.3 4.3s-4.3-1.9-4.3-4.3 1.9-4.3 4.3-4.3 4.3 2 4.3 4.3zM1165.8 280.1l66.9-35.2M1157.2 280.1l-19.3-10M1213.3 280.1l66.8-35.2M1204.7 280.1l-19.4-10M1252 280.1l-19.3-10M1118.5 280.1l66.7-35.2M1071 280l66.9-35.1M1090.4 270.1l19.5 10M1355.6 280.1l66.7-35.2M1347 280.1l-19.5-10M1402.9 280.1l66.8-35.2M1394.3 280.1l-19.4-10M1441.8 280.1l-19.5-10M1308.1 280.1l66.8-35.2M1260.6 280.1l66.9-35.2M1280.1 270.1l19.4 10M1394.3 235c0-2.4 1.9-4.3 4.3-4.3s4.3 1.9 4.3 4.3-1.9 4.3-4.3 4.3-4.3-1.9-4.3-4.3zM1347 235c0-2.4 1.9-4.3 4.3-4.3s4.3 1.9 4.3 4.3-1.9 4.3-4.3 4.3c-2.5 0-4.3-1.9-4.3-4.3zM1299.5 235c0-2.4 1.9-4.3 4.3-4.3s4.3 1.9 4.3 4.3-1.9 4.3-4.3 4.3-4.3-1.9-4.3-4.3zM1252 235c0-2.4 1.9-4.3 4.3-4.3s4.3 1.9 4.3 4.3-1.9 4.3-4.3 4.3c-2.3 0-4.3-1.9-4.3-4.3zM1204.7 235c0-2.4 1.9-4.3 4.3-4.3s4.3 1.9 4.3 4.3-1.9 4.3-4.3 4.3-4.3-1.9-4.3-4.3zM1157.2 235c0-2.4 1.9-4.3 4.3-4.3s4.3 1.9 4.3 4.3-1.9 4.3-4.3 4.3c-2.3 0-4.3-1.9-4.3-4.3zM1109.9 235c0-2.4 1.9-4.3 4.3-4.3s4.3 1.9 4.3 4.3-1.9 4.3-4.3 4.3c-2.5 0-4.3-1.9-4.3-4.3zM1347 235l-19.5 9.9M1355.6 235l19.3 9.9M1299.5 235l-19.4 9.9M1308.1 235l19.4 9.9M1260.6 235l19.5 9.9M1394.3 235l-19.4 9.9M1441.8 235l-19.5 9.9M1422.3 244.9l-19.4-9.9M1157.2 235l-19.3 9.9M1165.8 235l19.4 9.9M1109.9 235l-19.5 9.9M1118.5 235l19.4 9.9M1071 235l19.4 9.9M1204.7 235l-19.5 9.9M1252 235l-19.3 9.9M1232.7 244.9l-19.4-9.9M1450.4 280.1c0 2.4-1.9 4.3-4.3 4.3s-4.3-1.9-4.3-4.3 1.9-4.3 4.3-4.3c2.3 0 4.3 2 4.3 4.3zM1450.4 280l18.8-9.9M1441.8 235c0-2.4 1.9-4.3 4.3-4.3s4.3 1.9 4.3 4.3-1.9 4.3-4.3 4.3-4.3-1.9-4.3-4.3zM1450.4 235l19.3 9.9M1114.2 207.5v23.2M1161.5 207.5v23.2M1209 207.5v23.2M1256.3 207.5v23.2M1303.8 207.5v23.2M1351.3 207.5v23.2M1398.6 207.5v23.2M1446.1 207.5v23.2M1114.2 284.4v23.2M1161.5 284.4v23.2M1209 284.4v23.2M1256.3 284.4v23.2M1303.8 284.4v23.2M1351.3 284.4v23.2M1398.6 284.4v23.2M1446.1 284.4v23.2M1118.5 357.1c0 2.4-1.9 4.3-4.3 4.3s-4.3-1.9-4.3-4.3 1.9-4.3 4.3-4.3c2.3 0 4.3 1.8 4.3 4.3zM1165.8 357.1c0 2.4-1.9 4.3-4.3 4.3s-4.3-1.9-4.3-4.3 1.9-4.3 4.3-4.3 4.3 1.8 4.3 4.3zM1213.3 357.1c0 2.4-1.9 4.3-4.3 4.3s-4.3-1.9-4.3-4.3 1.9-4.3 4.3-4.3 4.3 1.8 4.3 4.3zM1260.6 357.1c0 2.4-1.9 4.3-4.3 4.3s-4.3-1.9-4.3-4.3 1.9-4.3 4.3-4.3 4.3 1.8 4.3 4.3zM1308.1 357.1c0 2.4-1.9 4.3-4.3 4.3s-4.3-1.9-4.3-4.3 1.9-4.3 4.3-4.3 4.3 1.8 4.3 4.3zM1355.6 357.1c0 2.4-1.9 4.3-4.3 4.3s-4.3-1.9-4.3-4.3 1.9-4.3 4.3-4.3c2.3 0 4.3 1.8 4.3 4.3zM1402.9 357.1c0 2.4-1.9 4.3-4.3 4.3s-4.3-1.9-4.3-4.3 1.9-4.3 4.3-4.3 4.3 1.8 4.3 4.3zM1165.8 357.1l66.9-35.2M1157.2 357.1l-19.3-10M1213.3 357.1l66.8-35.2M1204.7 357.1l-19.4-10M1252 357.1l-19.3-10M1118.5 357.1l66.7-35.2M1071 357l66.9-35.1M1090.4 347.1l19.5 10M1355.6 357.1l66.7-35.2M1347 357.1l-19.5-10M1402.9 357.1l66.8-35.2M1394.3 357.1l-19.4-10M1441.8 357.1l-19.5-10M1308.1 357.1l66.8-35.2M1260.6 357.1l66.9-35.2M1280.1 347.1l19.4 10M1394.3 312c0-2.4 1.9-4.3 4.3-4.3s4.3 1.9 4.3 4.3-1.9 4.3-4.3 4.3-4.3-1.9-4.3-4.3zM1347 312c0-2.4 1.9-4.3 4.3-4.3s4.3 1.9 4.3 4.3-1.9 4.3-4.3 4.3c-2.5 0-4.3-1.9-4.3-4.3zM1299.5 312c0-2.4 1.9-4.3 4.3-4.3s4.3 1.9 4.3 4.3-1.9 4.3-4.3 4.3-4.3-1.9-4.3-4.3zM1252 312c0-2.4 1.9-4.3 4.3-4.3s4.3 1.9 4.3 4.3-1.9 4.3-4.3 4.3c-2.3 0-4.3-1.9-4.3-4.3zM1204.7 312c0-2.4 1.9-4.3 4.3-4.3s4.3 1.9 4.3 4.3-1.9 4.3-4.3 4.3-4.3-1.9-4.3-4.3zM1157.2 312c0-2.4 1.9-4.3 4.3-4.3s4.3 1.9 4.3 4.3-1.9 4.3-4.3 4.3c-2.3 0-4.3-1.9-4.3-4.3zM1109.9 312c0-2.4 1.9-4.3 4.3-4.3s4.3 1.9 4.3 4.3-1.9 4.3-4.3 4.3c-2.5 0-4.3-1.9-4.3-4.3zM1347 311.9l-19.5 10M1355.6 311.9l19.3 10M1299.5 311.9l-19.4 10M1308.1 311.9l19.4 10M1260.6 311.9l19.5 10M1394.3 311.9l-19.4 10M1441.8 312l-19.5 9.9M1422.3 321.9l-19.4-10M1157.2 311.9l-19.3 10M1165.8 311.9l19.4 10M1109.9 311.9l-19.5 10M1118.5 311.9l19.4 10M1071 311.9l19.4 10M1204.7 311.9l-19.5 10M1252 311.9l-19.3 10M1232.7 321.9l-19.4-10M1450.4 357.1c0 2.4-1.9 4.3-4.3 4.3s-4.3-1.9-4.3-4.3 1.9-4.3 4.3-4.3c2.3 0 4.3 1.8 4.3 4.3zM1450.4 357l18.8-9.9M1441.8 312c0-2.4 1.9-4.3 4.3-4.3s4.3 1.9 4.3 4.3-1.9 4.3-4.3 4.3-4.3-1.9-4.3-4.3zM1450.4 311.9l19.3 10M1118.5 433.9c0 2.4-1.9 4.3-4.3 4.3s-4.3-1.9-4.3-4.3 1.9-4.3 4.3-4.3c2.3 0 4.3 2 4.3 4.3zM1165.8 433.9c0 2.4-1.9 4.3-4.3 4.3s-4.3-1.9-4.3-4.3 1.9-4.3 4.3-4.3 4.3 2 4.3 4.3zM1213.3 433.9c0 2.4-1.9 4.3-4.3 4.3s-4.3-1.9-4.3-4.3 1.9-4.3 4.3-4.3 4.3 2 4.3 4.3zM1260.6 433.9c0 2.4-1.9 4.3-4.3 4.3s-4.3-1.9-4.3-4.3 1.9-4.3 4.3-4.3 4.3 2 4.3 4.3zM1308.1 433.9c0 2.4-1.9 4.3-4.3 4.3s-4.3-1.9-4.3-4.3 1.9-4.3 4.3-4.3 4.3 2 4.3 4.3zM1355.6 433.9c0 2.4-1.9 4.3-4.3 4.3s-4.3-1.9-4.3-4.3 1.9-4.3 4.3-4.3c2.3 0 4.3 2 4.3 4.3zM1402.9 433.9c0 2.4-1.9 4.3-4.3 4.3s-4.3-1.9-4.3-4.3 1.9-4.3 4.3-4.3 4.3 2 4.3 4.3zM1165.8 433.9l66.9-35.1M1157.2 433.9l-19.3-9.9M1213.3 433.9l66.8-35.1M1204.7 433.9l-19.4-9.9M1252 433.9l-19.3-9.9M1118.5 433.9l66.7-35.1M1090.4 424l19.5 9.9M1355.6 433.9l66.7-35.1M1347 433.9l-19.5-9.9M1402.9 433.9l66.8-35.1M1394.3 433.9l-19.4-9.9M1441.8 433.9l-19.5-9.9M1308.1 433.9l66.8-35.1M1260.6 433.9l66.9-35.1M1280.1 424l19.4 9.9M1394.3 388.8c0-2.4 1.9-4.3 4.3-4.3s4.3 1.9 4.3 4.3-1.9 4.3-4.3 4.3-4.3-1.9-4.3-4.3zM1347 388.8c0-2.4 1.9-4.3 4.3-4.3s4.3 1.9 4.3 4.3-1.9 4.3-4.3 4.3c-2.5 0-4.3-1.9-4.3-4.3zM1299.5 388.8c0-2.4 1.9-4.3 4.3-4.3s4.3 1.9 4.3 4.3-1.9 4.3-4.3 4.3-4.3-1.9-4.3-4.3zM1252 388.8c0-2.4 1.9-4.3 4.3-4.3s4.3 1.9 4.3 4.3-1.9 4.3-4.3 4.3c-2.3 0-4.3-1.9-4.3-4.3zM1204.7 388.8c0-2.4 1.9-4.3 4.3-4.3s4.3 1.9 4.3 4.3-1.9 4.3-4.3 4.3-4.3-1.9-4.3-4.3zM1157.2 388.8c0-2.4 1.9-4.3 4.3-4.3s4.3 1.9 4.3 4.3-1.9 4.3-4.3 4.3c-2.3 0-4.3-1.9-4.3-4.3zM1109.9 388.8c0-2.4 1.9-4.3 4.3-4.3s4.3 1.9 4.3 4.3-1.9 4.3-4.3 4.3c-2.5 0-4.3-1.9-4.3-4.3zM1347 388.8l-19.5 10M1355.6 388.8l19.3 10M1299.5 388.8l-19.4 10M1308.1 388.8l19.4 10M1260.6 388.8l19.5 10M1394.3 388.8l-19.4 10M1441.8 388.8l-19.5 10M1422.3 398.8l-19.4-10M1157.2 388.8l-86.2 44.3M1165.8 388.8l19.4 10M1109.9 388.8l-19.5 10M1118.5 388.8l19.4 10M1071 388.8l19.4 10M1204.7 388.8l-19.5 10M1252 388.8l-19.3 10M1232.7 398.8l-19.4-10M1450.4 433.9c0 2.4-1.9 4.3-4.3 4.3s-4.3-1.9-4.3-4.3 1.9-4.3 4.3-4.3c2.3 0 4.3 2 4.3 4.3zM1450.4 433.9l19.3-9.9M1441.8 388.8c0-2.4 1.9-4.3 4.3-4.3s4.3 1.9 4.3 4.3-1.9 4.3-4.3 4.3-4.3-1.9-4.3-4.3zM1450.4 388.8l19.3 10M1114.2 361.4v23.1M1161.5 361.4v23.1M1209 361.4v23.1M1256.3 361.4v23.1M1303.8 361.4v23.1M1351.3 361.4v23.1M1398.6 361.4v23.1M1446.1 361.4v23.1M1114.2 438.2v23.3M1161.5 438.2v23.3M1209 438.2v23.3M1256.3 438.2v23.3M1303.8 438.2v23.3M1351.3 438.2v23.3M1398.6 438.2v23.3M1446.1 438.2v23.3M1118.5 510c0 2.4-1.9 4.3-4.3 4.3s-4.3-1.9-4.3-4.3 1.9-4.3 4.3-4.3c2.3 0 4.3 1.9 4.3 4.3zM1165.8 510c0 2.4-1.9 4.3-4.3 4.3s-4.3-1.9-4.3-4.3 1.9-4.3 4.3-4.3 4.3 1.9 4.3 4.3zM1213.3 510c0 2.4-1.9 4.3-4.3 4.3s-4.3-1.9-4.3-4.3 1.9-4.3 4.3-4.3 4.3 1.9 4.3 4.3zM1260.6 510c0 2.4-1.9 4.3-4.3 4.3s-4.3-1.9-4.3-4.3 1.9-4.3 4.3-4.3 4.3 1.9 4.3 4.3zM1308.1 510c0 2.4-1.9 4.3-4.3 4.3s-4.3-1.9-4.3-4.3 1.9-4.3 4.3-4.3 4.3 1.9 4.3 4.3zM1355.6 510c0 2.4-1.9 4.3-4.3 4.3s-4.3-1.9-4.3-4.3 1.9-4.3 4.3-4.3c2.3 0 4.3 1.9 4.3 4.3zM1402.9 510c0 2.4-1.9 4.3-4.3 4.3s-4.3-1.9-4.3-4.3 1.9-4.3 4.3-4.3 4.3 1.9 4.3 4.3zM1165.8 510l66.9-34.3M1157.2 510l-20.2-9.5M1213.3 510l66.8-34.3M1204.7 510l-20.3-9.5M1252 510l-20.2-9.6M1118.5 510l66.7-34.3M1089.5 500.5l20.4 9.5M1355.6 510l66.7-34.3M1347 510l-20.4-9.5M1402.9 510l66.8-34.3M1394.3 510l-20.2-9.5M1441.8 510l-20.3-9.6M1308.1 510l66.8-34.3M1260.6 510l66.9-34.3M1279.3 500.5l20.2 9.5M1394.3 465.8c0-2.4 1.9-4.3 4.3-4.3s4.3 1.9 4.3 4.3-1.9 4.3-4.3 4.3-4.3-2-4.3-4.3zM1347 465.8c0-2.4 1.9-4.3 4.3-4.3s4.3 1.9 4.3 4.3-1.9 4.3-4.3 4.3c-2.5 0-4.3-2-4.3-4.3zM1299.5 465.8c0-2.4 1.9-4.3 4.3-4.3s4.3 1.9 4.3 4.3-1.9 4.3-4.3 4.3-4.3-2-4.3-4.3zM1252 465.8c0-2.4 1.9-4.3 4.3-4.3s4.3 1.9 4.3 4.3-1.9 4.3-4.3 4.3c-2.3 0-4.3-2-4.3-4.3zM1204.7 465.8c0-2.4 1.9-4.3 4.3-4.3s4.3 1.9 4.3 4.3-1.9 4.3-4.3 4.3-4.3-2-4.3-4.3zM1157.2 465.8c0-2.4 1.9-4.3 4.3-4.3s4.3 1.9 4.3 4.3-1.9 4.3-4.3 4.3c-2.3 0-4.3-2-4.3-4.3zM1109.9 465.8c0-2.4 1.9-4.3 4.3-4.3s4.3 1.9 4.3 4.3-1.9 4.3-4.3 4.3c-2.5 0-4.3-2-4.3-4.3zM1347 465.8l-19.5 9.9M1355.6 465.8l19.3 9.9M1299.5 465.8l-19.4 9.9M1308.1 465.8l19.4 9.9M1260.6 465.8l19.5 9.9M1394.3 465.8l-19.4 9.9M1441.8 465.8l-19.5 9.9M1422.3 475.7l-19.4-9.9M1157.2 465.8L1071 510M1165.8 465.8l19.4 9.9M1109.9 465.8l-19.5 9.9M1118.5 465.8l19.4 9.9M1071 465.8l19.4 9.9M1204.7 465.8l-19.5 9.9M1252 465.8l-19.3 9.9M1232.7 475.7l-19.4-9.9M1450.4 510c0 2.4-1.9 4.3-4.3 4.3s-4.3-1.9-4.3-4.3 1.9-4.3 4.3-4.3c2.3 0 4.3 1.9 4.3 4.3zM1450.4 510l18.6-9.6M1441.8 465.8c0-2.4 1.9-4.3 4.3-4.3s4.3 1.9 4.3 4.3-1.9 4.3-4.3 4.3-4.3-2-4.3-4.3zM1450.4 465.8l19.3 9.9M1118.5 587c0 2.4-1.9 4.3-4.3 4.3s-4.3-1.9-4.3-4.3 1.9-4.3 4.3-4.3c2.3-.1 4.3 1.9 4.3 4.3zM1165.8 587c0 2.4-1.9 4.3-4.3 4.3s-4.3-1.9-4.3-4.3 1.9-4.3 4.3-4.3c2.4-.1 4.3 1.9 4.3 4.3zM1213.3 587c0 2.4-1.9 4.3-4.3 4.3s-4.3-1.9-4.3-4.3 1.9-4.3 4.3-4.3c2.4-.1 4.3 1.9 4.3 4.3zM1260.6 587c0 2.4-1.9 4.3-4.3 4.3s-4.3-1.9-4.3-4.3 1.9-4.3 4.3-4.3c2.4-.1 4.3 1.9 4.3 4.3zM1308.1 587c0 2.4-1.9 4.3-4.3 4.3s-4.3-1.9-4.3-4.3 1.9-4.3 4.3-4.3c2.4-.1 4.3 1.9 4.3 4.3zM1355.6 587c0 2.4-1.9 4.3-4.3 4.3s-4.3-1.9-4.3-4.3 1.9-4.3 4.3-4.3c2.3-.1 4.3 1.9 4.3 4.3zM1402.9 587c0 2.4-1.9 4.3-4.3 4.3s-4.3-1.9-4.3-4.3 1.9-4.3 4.3-4.3 4.3 1.9 4.3 4.3zM1165.8 587l66.9-35.2M1157.2 587l-19.3-10.1M1213.3 587l66.8-35.2M1204.7 587l-19.4-10.1M1252 587l-19.3-10.1M1118.5 587l66.7-35.2M1071 586.8l66.9-35M1090.4 576.9l19.5 10.1M1355.6 587l66.7-35.2M1347 587l-19.5-10.1M1402.9 587l66.8-35.2M1394.3 587l-19.4-10.1M1441.8 587l-19.5-10.1M1308.1 587l66.8-35.2M1260.6 587l66.9-35.2M1280.1 576.9l19.4 10.1M1394.3 541.9c0-2.4 1.9-4.3 4.3-4.3s4.3 1.9 4.3 4.3-1.9 4.3-4.3 4.3-4.3-2-4.3-4.3zM1347 541.9c0-2.4 1.9-4.3 4.3-4.3s4.3 1.9 4.3 4.3-1.9 4.3-4.3 4.3c-2.5 0-4.3-2-4.3-4.3zM1299.5 541.9c0-2.4 1.9-4.3 4.3-4.3s4.3 1.9 4.3 4.3-1.9 4.3-4.3 4.3-4.3-2-4.3-4.3zM1252 541.9c0-2.4 1.9-4.3 4.3-4.3s4.3 1.9 4.3 4.3-1.9 4.3-4.3 4.3c-2.3 0-4.3-2-4.3-4.3zM1204.7 541.9c0-2.4 1.9-4.3 4.3-4.3s4.3 1.9 4.3 4.3-1.9 4.3-4.3 4.3-4.3-2-4.3-4.3zM1157.2 541.9c0-2.4 1.9-4.3 4.3-4.3s4.3 1.9 4.3 4.3-1.9 4.3-4.3 4.3c-2.3 0-4.3-2-4.3-4.3zM1109.9 541.9c0-2.4 1.9-4.3 4.3-4.3s4.3 1.9 4.3 4.3-1.9 4.3-4.3 4.3c-2.5 0-4.3-2-4.3-4.3zM1347 541.9l-19.5 9.9M1355.6 541.9l19.3 9.9M1299.5 541.9l-19.4 9.9M1308.1 541.9l19.4 9.9M1260.6 541.9l19.5 9.9M1394.3 541.9l-19.4 9.9M1441.8 541.9l-19.5 9.9M1422.3 551.8l-19.4-9.9M1157.2 541.9l-19.3 9.9M1165.8 541.9l19.4 9.9M1109.9 541.9l-19.5 9.9M1118.5 541.9l19.4 9.9M1071 541.9l19.4 9.9M1204.7 541.9l-19.5 9.9M1252 541.9l-19.3 9.9M1232.7 551.8l-19.4-9.9M1450.4 587c0 2.4-1.9 4.3-4.3 4.3s-4.3-1.9-4.3-4.3 1.9-4.3 4.3-4.3c2.3-.1 4.3 1.9 4.3 4.3zM1450.4 586.8l19.3-9.9M1441.8 541.9c0-2.4 1.9-4.3 4.3-4.3s4.3 1.9 4.3 4.3-1.9 4.3-4.3 4.3-4.3-2-4.3-4.3zM1450.4 541.9l19.3 9.9M1114.2 514.3v23.3M1161.5 514.3v23.3M1209 514.3v23.3M1256.3 514.3v23.3M1303.8 514.3v23.3M1351.3 514.3v23.3M1398.6 514.3v23.3M1446.1 514.3v23.3M1114.2 591.3v23.1M1161.5 591.3v23.1M1209 591.3v23.1M1256.3 591.3v23.1M1303.8 591.3v23.1M1351.3 591.3v23.1M1398.6 591.3v23.1M1446.1 591.3v23.1"/>
</svg>
