<svg version="1.1" id="Layer_1" xmlns="http://www.w3.org/2000/svg" x="0" y="0" viewBox="0 0 1100.6 690.4" xml:space="preserve">
  <style>
    .games0,.games1{fill:none;stroke:#414142;stroke-width:2;stroke-linecap:round;stroke-linejoin:round;stroke-miterlimit:10}.games1{stroke:#ee5586}
  </style>
  <path id="svg-concept" class="games1" d="M397 306.6c-.6-.5-11.3-6.2-11.3-6.2l-12.6 1.8"/>
  <path class="games0" d="M740.7 496.8h9.7v-4.6h-9.9zM759.8 492v5.2h10.1V492zM750.4 496.8v4.7h9.3v-4.7zM750.4 501.5H741v5.5l28.9.4v-5.7l-10.2-.2M744.2 532.9v-4H739v-10.2l-3.4 2.1"/>
  <path class="games0" d="M735.3 554.4v-6.2h3.6v-8.8h2.9v-6.1h7.7v-5.9h4.2v5.9h1.7v7.1h2.3v-12.6h2.8v-2.6h3.3v-2.6h4.2v6.4h3.7M763.8 515.1h4.3v4.3h-4.3zM742.3 522h3.8v3.8h-3.8zM770.5 480.5h3.7v3.7h-3.7zM760.9 544.1h3.7v3.7h-3.7zM773.6 484.6v26.3l4.4-6.9M773.6 475.6v4.8M773.6 510.9h-36.1"/>
  <path class="games0" d="M738.9 468.1l-4 4.3-.3 3.2h39l3.4-6.5c-.2.2-15.1.2-15.1.2v1.8h-5.2v-3h-17.8v-12.9s2.1.5 2.1 0v-9.4h2.2v-6.1h10.1v6.1h2V434h2.6v-3.1h1.5v-3.6h4v6.9h1.4v2.9h1.8v-3h6.2v5h2.2v11.2h2.9v9.4h-3.2v3.1h5.5l.7 36-2.9 5.2 1.6 24h-3v-13.7H739v4.4"/>
  <path class="games0" d="M767.5 427.2h4.1v4.1h-4.1zM759.2 420.2h4.6v4.6h-4.6zM763.5 411.9h4.6v4.6h-4.6zM727.5 496.2l-3.5 12.4h4.8l4.2-12.4M724 508.6l-2 9.1 5.2.9 1.6-10"/>
  <path class="games0" d="M722 517.7l-.5 5.6 5.5.5.2-5.2"/>
  <path class="games0" d="M721.5 523.3l-.3 5.6h5.8v-5.1M721.2 528.9l-.6 4.2 1.5 2.5h4.5l1-2.4-.6-4.3M722.5 541.6l-1.3 4.5 4 5.3 3.8.3v-2.9h3.1v-6.4l-2-2.6"/>
  <path class="games0" d="M732.1 542.4v-6.2l-4.5-3 2.5 6.6-3.7 2.1-3.9-.3-2.5-3.7 2.1-2.3"/>
  <path class="games0" d="M732.1 536.2l1.4-8.6-5.9-1.2M733.5 527.6l1.1-5.8-7.1-.9M734.6 521.8l.4-5-7.1-1M735 516.8l1-4.9-7.2-1.5M736 511.9l.5-5.1-6.4-1.4"/>
  <path class="games0" d="M736.5 506.8l.9-5.2-5.4-1M737.4 501.6l3-26-7.4 18.5v2.1h-5.5l-.4-2.9 7.5-17.7M733 496.2l4.9.4M110.4 669.1h22.9s61.8-23.3 61-23.3c-.8 0-14.4-2.3-15.5-1.9-1.1.4-68.4 25.2-68.4 25.2zM232.5 632.4s13.8 2.3 14.4 2.1c.6-.2 37.9-14.6 37.9-14.6l-14.6-1.7-37.7 14.2zM230.4 668.6h22.8l54.5-25.8-17.8-2.3zM221.9 582.8l8.5 1.4 34.1-7.9-5.7-1.9zM152.3 573.8s13.8 1.8 15.2 1.8 95.3-15.7 95.3-15.7l-5.3-2-105.2 15.9zM74.9 623.8c1 0 15.6 1.2 15.6 1.2l36.3-10.9-13.2-1.2-38.7 10.9zM287.7 689.1h27.5l30.9-19.3-26.2-.6zM409.2 659.1c.6.2 20.2 1.9 20.2 1.9s31.6-25.2 31-25.6c-.6-.4-17.4-1-17.4-1l-33.8 24.7zM446.1 688.9h26.7l33.7-37.2-22.1-1.5zM607.1 689.1l8.7-36.2 19.8 1-2.1 35.6zM685.4 688.9s-5.8-41.9-4.3-42.1c1.4-.2 20.9.2 20.9.2l9.7 42.6-26.3-.7zM658.5 624.6h18.6l-3.1-19.2h-16.3zM697.6 572.9l10.3-.4-5.8-10.5-8 .2zM727.8 657.9l22.1-.4s-11.8-22.3-12.8-22.5c-1-.2-18.8-.2-18.8-.2l9.5 23.1zM778.8 638.2H799l-24.7-28.9h-16.2zM778.2 667.6l12.6 21.7s26.6.3 26.2 0c-.3-.3-15.9-22.1-15.9-22.1l-22.9.4zM868.5 686.8l-33.3-33.7h20.9l38.6 33.5zM955.7 689.7s-3.5-11.8-2.1-11.6c1.4.2 9.1 0 9.1 0l2.9 11.4M984.6 689.5l-9.7-59.1 11.1-.8 9.3 60.1M1017.9 689.5l-1.3-11.4h12.4l2.1 11.8M1043.3 689.1c0-.8-.6-11.4-.6-11.4h7.2v-49.2l8.1 3.7v16.9h7.4l1-34.1-19-8.3 19.6-.8v-9.5l8.7 1.7v7.6h17.8l2.5-47.9h3.9"/>
  <path class="games0" d="M1057.9 649.2l-4.1.8s1.7 28.1 2.7 28.1 14.9-.4 14.9-.4l-1.9-28.9-4.1.4M1056.5 678.1l.4 11M1064.3 678.5l.5 11.4M1073 689.5l1.1-32.5-4-2M1080.9 689.3l2.5-67.2-8.9-3.5 1.2-12.8"/>
  <path class="games0" d="M1089.1 688.9c.6-.6 3.7-62.6 3.7-62.6l-9.5-4.1M1093.5 605.8l-.6 20.4M1094.1 590.1l-42.6-14.3 43-.2M889.1 582l15.7-.8-21-9.7-8.3.8zM980.3 584.1l19.2-1.2-42.4-12.6-10.5 1zM952.2 688.6l-18.7-12.7h20l3.3 2.2M964 681.3l11.3 8.3M885.3 630.9l20.4-.1-30.4-19.2-14.1.5zM990.5 655.9l23.7-.6-25.9-13.7M975.5 635.9c-.7-.5-15.8-8.3-15.8-8.3l-15.7.8 33.2 19.3M1095 561.1l-34.3-.3-18.7-77.4"/>
  <path class="games0" d="M1060.7 560.8l-30.7-1s-17.7-72.7-17.7-74 29.7-2.3 29.7-2.3 54.7-.7 58.3-.3M1030 559.8l-81.7-2.4-36.6-.3-13.4-65.3-14.3 1.3-19.7-95.3M1043 418.1l34.7-1 22-7"/>
  <path class="games0" d="M948.3 557.4l-29-136 80.1-2.1M1077.7 417.1l19.3 65"/>
  <path class="games0" d="M929.7 556.8l-39.4-189.4 112.8-4.9M919.3 421.4l-16.8 5.8M1064.2 363.3l-4-14.1 39.6-1.8M1079 416.2l-12.5-44.7M1060.2 349.2l-13.7 5.2M860.3 445.8l12.7-1"/>
  <path class="games0" d="M898.3 491.8l-33.3-169 234.7-14.7M875.7 377.4l14.6-10M929.5 319.4l9.7 45.5M1041.2 312.4l8.8 39.8M962 514.2c.2.8 1.2 6 1.2 6l7-.5-1.2-6.2-7 .7zM986.8 493.7h7.4l-.4-7.5-8-.8zM1071.2 517.7l7-.3-1.4-6-7-.2zM946 456.7l7-.3-.2-5.5h-7.3z"/>
  <path class="games0" d="M971.2 409.2l7-.5-1.7-6.3-6.7.5zM929.8 395.9l6.4-.5-.7-5.2-7.7.5zM903.5 357.7l7.7-.3-1.2-5.2-7.2.2zM878.2 349.4l7.8-.5-.8-5.5-8 .3zM938.8 360.7c.8.2 14.2-.5 14.2-.5l-.5-4.8-14.8 1.2M965.2 341.2l.3 4.5 6-.5-1-5zM974 339.4l.8 5.3 16-1-1.6-5zM861.2 374.2l-9.1-40 12.9-11.4M901.8 509.8s-5.1 1.9-5.7 2.1-32.8.6-32.8.6l-1.6-33.6 18.9-1.3"/>
  <path class="games0" d="M866.4 500.1h8.8v-4.6h-8.9zM882.9 500.3l8.9-.2-.3-5.1-8.9.4z"/>
  <path class="games0" d="M875.2 500.1v3.7h8.4v-3.5c.1 0-8.4-.3-8.4-.2zM862.2 491.6h4.6v-4.8h11.8v-4.1h3.1M896.1 511.9l-15.8 6.1 1.8 18.7 16.8-1.3 7.3-4.6"/>
  <path class="games0" d="M880.3 518l16.1-1.1 2.5 18.5M896.4 516.9l6.4-3.1M862.8 507.3l-6 2M865.4 512.9l.6 15.1s-7.6 1.7-8.1 1.7l7.5-16.8zM866 528l2.9 30 42.8-.9M895.6 536.1l.9 21.2"/>
  <path class="games0" d="M890.2 557.5l-.2-5.3-21.7-.9M898.9 557.4V552l5.5-2.7-1.2-16.3M904.4 549.3l.3 7.8M691.8 519.8h6.8l-.2-6.6-6.8-.2zM670.1 530.8h6.1v-6.1l-6.4-.2zM675.9 549.8l42.5.9 9.4 4.1h37.8"/>
  <path class="games0" d="M718.4 550.7l-8.5-57.5h-53.5M702.8 493.2l-5.1-41.9 42.7-1M741 445.8l-43.8.8 3.2-4.5c-.9-.3-40.4 1-40.4 1M660 452.3l37.6-1.1-.5-4.6c-1 0-32.7.9-37.2 1.1M674.3 425.8v5.8h7.7v-6zM760.6 394.2h23.3M759.1 403.6h24.8M773.8 320.5l6.1 28.3 73.8-4.2M817.9 317.5l-4.7-21.9M814.4 291.7l19.1-24.1 10.2-.3-.5-6.7 3.3-3.9-38.3 2.7M833.5 267.6l9.2 47.7M864.8 314.8l-14.9-74 9.7-14.7 43.7-3.9 22.1 96M859.6 226.1l19.4 95.6"/>
  <path class="games0" d="M885.7 321l-5.4-24.4h4.7l5.5 24.3M896.1 320.4l-3.2-13.1h5.4l3.2 12.7M905.9 315.5l-1.5-8.3 3.8-.6 1.9 8.5zM916.5 319c0-.4-5.5-26.6-5.5-26.6l4.3.1 6.1 26.1M902.3 302.2l4.9-.2-3.8-20.5-4.6.3zM889.6 288.1l5.1-.4-2.8-15.9-5.1.4zM884.8 268.3l6.1-.7-1.1-4.6-5.7.5zM885.1 224l7.1 27.9-5.6 1-7-28.4M896.4 242.7c.2.4 4.5 20.5 4.5 20.5.4 0 4.8-.3 4.8-.3l-4.7-20.7-4.6.5zM863.9 247.5l41.8-13.7M919.5 294.2l3.7-.2 2.8 10.5 3-.2-6-18.9 2.9-.6 2.5 8.1 2.3-.2 2.8 10.4 2.9-.4-4-13 3-.3 2.8 9.2 2.5-.3-2.2-8.6 1.8-.3-.5-2.8 3.8-.4.7 2-2 1.8.1 4.7 1.8-.2.8-2.5 2.4-.3 2.6 13.5 3.9-.7-3.8-13.7 1.9-.3-.3-2.8 3.6-.5 2.1 8.6-2.6 1.3 4.6 15.7-4.3.5.6 3.3M1001.1 276.7l-84.1 4.6 38.4-34.7 89.4-8.1"/>
  <path class="games0" d="M1011.8 312.8c-.3-.7-12.5-43.2-12.5-43.2l13.8-10.7 40.2-2.3 15.3 53.5M1013.2 258.9l13.8 53.4"/>
  <path class="games0" d="M1045.8 311.1l-7.3-26 5-.7 7.2 26.5M1054.5 301.6l-7.7-30.8 4.7-.4 7.8 31.2zM1029 295.9l5-.3-1-5.2s-5.3-.2-5.2.3c.2.6 1.2 5.2 1.2 5.2zM1019.5 283.3l35-20.9M1084.8 308.9l-20-53.3-11.5 1"/>
  <path class="games0" d="M1100 298.9l-15.8-45.6-19.4 2.3"/>
  <path class="games0" d="M1100.2 263.8s-7.2 1.3-7.2.8-3.7-11.8-3.7-11.8l-5.2.5M1089.3 252.8l10.2-1.2M1099.7 220.6l-49.2 35.7-15.5-53.7-20.7 18.2-13.3-50.2 26.2-25-13-46 16.6-17.7 26-4.3-16.3-52.7 45.3-4-1.6-3.6 15.3-15.9M1085.8 20.9l14 42.7M1040.5 24.9l-14.2 19.7-44 6.5-12.7 17.5 9.3 35.3s-11 1.2-11.2 1.7c-.2.5-5.2 6.2-5.2 6.2l-38.7 5.7S916 77.7 915.5 78c-.5.3-29.3 5.2-29.3 5.2l-3.8-15.5-42.3 6.3-8.3 17.2-39.3 6.2-6.7 16.2 5.7 22.5-17.5 1.8-18.5 52.7 10.3 62.8 8.2-.3"/>
  <path class="games0" d="M765.8 253.3l15.8-30.8s41.7-3.2 42-3.7c.3-.5 7.2-13.5 7.2-13.5l173.8-18.5M781.7 222.4l-6.7-36.1 4.8-12.7 45-5 6 36.7"/>
  <path class="games0" d="M775 186.3c.5 0 42.2-3.7 42.2-3.7l6.5 36.2M824.8 168.6l-7.6 14"/>
  <path class="games0" d="M777.2 197.4l31.1-2.8 4.9 25.2M791.5 221.4l-.5-5.8 7.2-.7.5 5.9M774 137.8l5.8 35.8M792.5 97.3l9.2 37.3M791.5 135.9L924 117.4M807.7 133.4l-2.9-14.1 42-7.4-6.6-38M886.3 83.1l8 38.2M831.8 91.1l5.5 21.7M798.5 120.8l23.8-27.7M843.7 203.9l-1-6.5 6.5-1.1.8 6.5M898.8 197.8l-.6-5.9 8-1.1.8 6.1M974.5 189.4l-.8-5.6 12.8-1.5.8 5.8M911.2 255.2l14.4-15.1 43.7-3.5 37-41.9M955.4 246.6l-2.4-7.9M117.9 555.7l26.6-2.2 54.1.9 73.6-5.5.4-52.8-72.7-5.9H150M199.9 490.2l-1.3 64.2M144.5 553.5l1-38.9M294.6 457.8c-1-.3-27.9-5.2-27.9-5.2l-41.2 1-125.1-21.4-46 2.3-54.1-8.1M54.4 434.5l-3.3 41.2M100.4 432.2v15.9M225.5 453.6v38.3M266.7 452.6v42.5M.2 383.6l13.7-1.6 137.4 29.8 38.3-1.6 20.4 5.2 35-.4 32.4 7.2 36-1 13.3 4.2 50.2-1.5v-9.7l29.7-1.2v-6.2l21.8-1M13.9 382l-4 45.5M151.3 411.8l-.6 27.8M189.6 410.2l-.5 36.4"/>
  <path class="games0" d="M210 450.2v-34.8l3.5-88.8M245 415v37.2M277.4 422.2v31.9M313.4 421.2v5.8M406.6 413l2 34.6M397 455l-.3-6 46.4-2.4-1.4-39.1M327 388.2l-.3 37.2M337.8 393.2v31.5"/>
  <path class="games0" d="M263.5 418.8l1.9-114.9-17.2-9.6-16.7.7v29.6l-121.3 10.5 1.4-22.5-27.3-10.3-36.7 4.6-2.8 28.4-44.9-13.9M.2 343.8c.9 0 24.1-1.2 24.1-1.2l19 5.5-3.9 39.4"/>
  <path class="games0" d="M-.1 353.2l30.3 8.5 11.2 2.7M24.4 342.5l-.9 17.1M15.1 326.8l-.5 15.6M44.8 335.3L43.3 348M84.3 302.3l-6 93.3M105.8 401.6l4.4-66.5 20.3 6.8 26.4-3 16.2 6.2 39.3-2.8M83.6 314l27.1 8.9"/>
  <path class="games0" d="M107.4 375.1l12.3-2.5 41 13.2 33.5-2.2 16.5 4.3M108.8 355.8l10.3 4 30.4-1.6 18.1 5.2 29.6-2.7 14.6 5.8M130.5 341.9l-.9 17.4M156.9 338.9v21.6M173.1 345.1l-.3 17.7M197.2 360.7l-.3 23.1M167.6 363.4v21.8M149.5 358.2v24M118.9 360.4v44.3M160.7 385.8l-1.1 25.1M194.2 383.6l-.8 26.8M147.4 332.7v6.9M163.7 331.3v9.9M188.5 329v14.9M202.3 327.9v14.9M248.2 294.3l-2.4 120.1M265 316.1c-.7-.2-16.8-11-16.8-11M264.5 363.6h30.8M265.2 344.4h21.6v-7.3l33-1.3 9.2 5.1 29-2.1-.3-32.7 17.6-1M434 299.3h-10v28.8h-9.5l1.8 77.3M424 328.1h21.2"/>
  <path class="games0" d="M424 309.3l-28.7 1.5v35.6l-34.8 2.5-.2 7.9M415.2 377.3s-28.3.8-28.3 1.3.7 34.7.7 34.7"/>
  <path class="games0" d="M381.9 308.5v11.6l13.1-.3M265.3 329.4l29.2-1.7 4.7 3.3v-12.3l26.8-2 .2-9.7 22.3-1.5-.5-71.2-39-36.5h-6.2l1.5-44.2-4.5-4v-7.8l10.2-.5v-15.2l-8.3-6.2v-16.8l-8.3-7.3v-2.5l-7.3-5.7v-12l-7-6.2h-11.7l-5-6H255l.8-22.8-19-15.7V9.3L226.5 1v14L210.8.4s-.5 15.2-.4 17c.2 1.8-13.8-11.3-13.8-11.3l-.9 20.2 13.6 10.9s0 15.9-.4 16.4c-.4.5 37.7 31.1 37.5 32-.2.9.4 15.4.2 16.4-.2 1.1 11.4-2 11.4-2l.7-26.4 9.6-.9M348.5 298.6l25.5-2.7M348.3 267.4l21.7-1.1M372.3 259.8l-2.8-3.5-21 1.1"/>
  <path class="games0" d="M379.3 234.9l-10.6-11.5H365v-24.1l-8.3-9.7-23 2.8-3.7-3.5-6.3.7-6.5-7.5-4.5.3-2.5-2.6h-6.7M317.2 182.1l-1 22"/>
  <path class="games0" d="M323.7 189.6l4.6 5.7v20.8M333.7 192.4l-5.4 2.9M328.5 212.3l19.2-1 8.3 8.3.7-30"/>
  <path class="games0" d="M347.7 211.3v14.5l17.3-2.4M347.7 225.8l-7.7 1.3M368.7 223.4l.8 32.9M348.5 305.6L309 276.9v-79M309 276.9l-39.2 4-16.3-12.6-39.3 4.1 17.3 11.9V295l-17.9-12.1 1.3-48-54.8-38.1 2.5-48.7-24.7-19.6-37.2 7.5-26.3-19.4-40.4 9.1-4.8 61-29.5 4.8"/>
  <path class="games0" d="M253.5 268.3l1.6-76.1 15.8 10.8 1.6-36.4 12.1 10.8 1.6-32.5 7.8 6v-6.4"/>
  <path class="games0" d="M272.5 166.6l-35.6 4.8-.3-36.3"/>
  <path class="games0" d="M242.1 139.9l11.7 12.3 15.7-3.6M259.5 136.7v13.9M253.8 152.2v16.3M186.2 168.7v9.8M201.7 158.6s.2 18.5 0 18.5-34.7 4.8-34.7 4.8l-.5 18.3"/>
  <path class="games0" d="M162.4 168.7l6.4 5.7 16.9-1.8M74.4 116.6l-3.9 65.8 49.8-7.8s15.3 11 15.8 9.8c.5-1.1 1.8-56 1.8-56M100.7 136l-.9 40.7"/>
  <path class="games0" d="M120.4 174.6l-5.1 93.7 116.2 56.3M115.3 268.3L0 281.3M89.5 271v-8.4l8.9-1.4.2 7.8M6.6 280v-7.1l9.8-1.2.5 7.6M64.6 258l8.2-.4.3-7.6h-8.9z"/>
  <path class="games0" d="M176.8 275.4l9.1 3.4.5-8-8.7-3.6zM.1 170.9l30.3-5.4M30.8 103.3l21.2-2.4 10.8 8.6 24.8-4.6 14.3 12.5 27-2.7 15 10.3-.5-10.5M54.3 83.7l-1.1 17.5"/>
  <path class="games0" d="M66.2 108.8l-.2-7.9 5.5-4.2M129.7 102.2v12.5M93.2 90.8V98l13.6 11-4.9 8.4-.5 16.7M87.6 104.9L86.4 124M128.9 114.7v14.2M143.9 125v7.4M150.5 113.2l-.2 24.6M-.7 12.1l43.3-6.7L63 21.1l14.3-3.7s72 53.3 72 52.3 1.7-17.3 1.7-17.3l-14.7-9-.7-23-24-16.3.3-3.3M63 21.1l3-19.3M77.3 17.4l1.7-16M42.7 5.4l.6-4"/>
  <path class="games0" d="M-.7 18.8C.7 19.8 33 40.4 33 40.4l12-2 12.3 8.7-5 27 14.3.7 17.7 9.7 2.3-18.3 18.7 13 12.7-1.3 16.7 8.3.9-14.4L155 84.4v-8l13.3-.7 1.3-6 13-1.3-2 49 12 .3 30.7 18.7"/>
  <path class="games0" d="M-.5 52.2c1 .5 20.2 11.2 20.2 11.2l12.5-.5 20.1 11.2-10.6-6.2 1.5-11-21.7-12.7-12.5.7-9-5.5M.8 111.2l4-20.3"/>
  <path class="games0" d="M32.2 62.9L27.1 104 4.8 90.9s-4.8.2-5.8.2"/>
  <path class="games0" d="M21.5 44.2l-1.7 19.2-3.3 33M33 40.4l-1.5 8.8M10 26.7L9 44.9 8 55.4M45 38.4l-1.8 18.5M66.7 74.8c.1-.8 5.6-38.1 5.6-38.1l17.2 10.5-2.8 18.9M87.5 62.2l6 2.5 13.7-4 16.6 12 25.5-2.9M107.2 60.7l-3.3 36.9M118 77.8l-1.6 26.8M155 84.4l12.2 7 1.1-15.6 13.4 8.5M180.7 117.4l-.7 10.4 11.5 6.6 5.3-66.1 12.9 9.1-2.7 47.7"/>
  <path class="games0" d="M207.5 119.4l49.8-2.5 36.4 26.7s-23.3 5-24.2 5-10.1-11.9-10.1-11.9l-17.4 3.2-5.5-4.8-35 4.1v19.4l-15.5 2.1v8L172.4 157v-4.1l-11-10.1.5-20.6-11.4-9.1s-6.4 1.4-7.1 1.4c-.7 0-13.7-12.3-13.7-12.3l-21.9 4.8.2-5.3-14.9-11-21.7 5.9-17.1-13-22.2 5.7-1.4 13.9-3.7.7v18l-27.6 5.5M257.4 116.9l.7-16.8s10.7 7.1 11.1 6.1c.4-1.1-.7-33.4-.7-33.4s10 8.2 10 7.7c0-.5.5-11 .5-11M217.9 6.3V1M196.6 6.2l-10.3 1.7V1.3M155.7 13.5l-3-3.2-8.2.5-10-10.2"/>
  <path class="games0" d="M195.8 26.3l-12.5 1.4-.7 16.4-39.3 2.9 3.6-31.8s27.5-4.3 27.7-4.8c.2-.5 0-8.8 0-8.8"/>
  <path class="games0" d="M183.2 27.8l14.2 12.3 11.9-2.9M197.4 40.1l-.6 15.7 12.2-2.1M182.5 44.2l14.3 11.6M304.5 160.5c.6.2 14.1 8.7 14.1 8.7v13M256 49.9c.8 0 78.2-12.2 78.2-12.2l17.5 21.2-1 18.2-45.7 8.8 45.2 47.8-40.2 7.8-10.3-7 .1 7.5"/>
  <path class="games0" d="M350.2 133.7l.3-28.3-23.3-23.2M350.8 77.2l-17-18 .4-21.5M333.8 59.2l-66.5 10.2M289.2 1.4c.8 1 8 15.3 10.2 15s53.8-11.2 53.8-11.2l29 46.2s50.2-8 50.8-8.8.8-21.2.8-21.2L423.2 1.2M412.2 1.4L433 42.7M785.5 1.7v4.2l-13 1 4 49-14.8 3.5.5 50.2-21.8 1.2v-3.2l-13.2 1.2v4.5l-9 .5 2.2 17.3-12 1 2.5 22.8-9.5 1v6.2h-7.8l.2 4.2-16.8.5v-3.2h-5l-.2-4.8L693 157v-16.5l-7-13.3-8.2.8-1-14.3-9.5 1-.2-3.2-11 1v3l-8.5 1.2.2 3.2-5-.2-1.5-9.5-9.5.5v-3.2L620 109v4.8h-6.8L613 101l-2.2-1.5h-11.2v-3h-11v4.5h-7.8v13.2h-10.2l.8 8.2-6.8-.2-.5-2.5-10.8.2s.8 5.2.5 6.5-10.8-.5-10.8-.5l-3.5-2.5h-10l-.8 5-3-.5-31.5-72.5-.2-21.2 52.2-7.2s5.8 20 6.8 19.8 50.2-6.2 50.2-6.2l6.8 18.2-.8 19.7-43.2 8 3.5 9.5 1 18.5"/>
  <path class="games0" d="M494.2 55.7l52.2-5.2s5 17.2 5.8 17.2 51-4.2 51-4.2v-23M609.2 78.4l-6-15M546.2 26.9l.3 23.5M553 46.7l-.8 21M570.5 114.4l-12.3-27 7.8-1M716.8 1.7s-2.7 22.4-1.8 22.2c.9-.2 57.1-7.6 57.1-7.6M419.5 174.8v-3.1h8.3V169h4.1v-4.1h4.7V158h3.1v-2.7h8.1l2.9 2.3 7.3-.6 3.5 1.8v10h4v3.7h5.8v-20.2h14.2V139h5v-2.4h5.3v-3.8h4.7v-5h11.7l2.3 2.8 14.4-1.8"/>
  <path id="svg-concept" class="games1" d="M362.2 561.8l-24.2 70 14.7 10 23.6 4 29.2-88.9"/>
  <path id="svg-concept" class="games1" d="M376.3 645.8l-13.8-9.9-24.5-4.1M393.8 591.6l-13-11-24.5-1.5M397.8 579.3l-13.5-9.9-24.8.7M379.5 634.4l-13.2-11-24.5-3M384 623.1h13.3l12.2-17.2-12.2-24.3M389.3 606.6l8 16.5M393.8 615.4l11.4-18.1"/>
  <path id="svg-concept" class="games1" d="M404.3 613.1l19.9 1.8 23.8-64.8-35 5.2-12.5 32.1"/>
  <path id="svg-concept" class="games1" d="M409.5 605.9h4.7l10 9M428 603.8l-10.2-9-14.5-.9M433.2 552.8l-19 53.1M437.7 577.4l-11.2-6.1h-19.7M439.5 572.8l-9.8-10.2-20 1.2M453.3 547.1l17.7 56.2 19.2 2.5 9.1-12.4-15.1-50.3z"/>
  <path id="svg-concept" class="games1" d="M468.2 594.8l19 1.5 9.3-11.5M490.2 605.8L471 545.1M362.5 635.9l27.5-83 15.5 4 44.8-7.5v-2.3l39.7-4.8.7-66.5h-8.4l13.4-26.4-3.4-11.1h-13.5l-22.6 35.5h-5.5v-16l-44.5-3.5-14.4 1.3-1.5-21.8-23.5-2.7-10.6 2.5.1 21.8-9.8-2-.3-24-23.2-3-12.2 2.2v25.5l-19.1 5.2v51.1l-13.7 4.5.8 40.5 33.9 10.9 29.1-10.2 21.7 6 26.5-9.2M350.5 558.7l7.4 15.2M492.3 438.3l-19.1 36.5"/>
  <path id="svg-concept" class="games1" d="M482.3 475.8l-31.6-2-.4 73.3M421.8 456.3v11.3l15.7 1.3.5 57.9-8 .5v13.3l7.8-.7v11M405.5 556.9l.7-102.6M405.8 512.9h9.5v-14l-9.6.5"/>
  <path id="svg-concept" class="games1" d="M430 527.3v-16.4h-8.5v16.7zM414.5 555.2v-13.4l8.8-.7v12.5M390 552.9l12.5-4.9-1.2-85.3-9.1-1.7-.4-5.4"/>
  <path id="svg-concept" class="games1" d="M401.3 462.7l-40.5 9.8 2.7 90.2M360.8 472.5l-69.1-13.2M310.8 454.1l25.2 4.4 10.7-2.3-.2-2.8"/>
  <path id="svg-concept" class="games1" d="M310.8 428.6l24.5 3.8-.1 25.6M356.2 433.6l23.9 3.2 1.2 30.2-25.1-5zM392.2 461v3.9M380.1 436.8l10.2-3M335.3 432.4l10.9-3M305 506.2l-13.3 4.2M341.8 556.1l-1-41.7M278.5 544.7l34.3 9.4 28.4-9.2"/>
  <path id="svg-concept" class="games1" d="M312.7 566.3l-.3-43.4 28.4-8.5M331.1 517.4l1.4 41.9M312.4 522.9l-34.4-8"/>
  <path id="svg-concept" class="games1" d="M327.8 511.5l-27.7 8.7v13.2l-13-3.2v-13l26.6-8.8M298.5 513.7l12.4 3M291.6 502.8l70.3 16.4M291.7 488.7l69.9 13.2M300.7 504.9v-28l13.1 1.8v29.2M336.3 513.3v-30.9l13.6 1.8v32.4M291.7 498.7l-8.8-.3.4 13.6M-.2 477.9l60.4-2.1-1.7-12.7 31.3-14.3 54 1.3 8.7 62.2-28.8 8.5v16.1h-6.2v46.5L97 585.9l-7-2v2l-22.3 1.2h-23l-.5-9H22.5v3.2l-22.7 1.5"/>
  <path id="svg-concept" class="games1" d="M0 535.8l66.3 1.8 51.2-.7M22.5 578.1l.8-41.3M35 577.9l-.3-40.6M34.8 571.3h5.4v6.6M44.2 578.1l-1.7-40.7M5.5 582.3v-7.2H-.2M16.7 581.6v-7.3H11l-.2 8M66.5 578.8l6.5-.4v8.2M79 586.3v-8.5h4.8l.4 8.3M97 585.9l1.8-48.3M90 583.9l-2.5-46.3M97.2 577.3h4.3v7.8M106.8 584.6v-8h4.9v7.3"/>
  <path id="svg-concept" class="games1" d="M60.2 475.8h6.6l-.5 61.8.5 49.2M123.7 520.8l-51.2 1.6-5.7-46.6"/>
  <path id="svg-concept" class="games1" d="M123.7 525.8l-54.5.5v-29.9"/>
  <path id="svg-concept" class="games1" d="M89.8 448.8l7.7 65.6 55-2.1M97.5 514.4l-25 8M82.7 502.3l4.8-1.5-2.7-24.7-4.8.8z"/>
  <path id="svg-concept" class="games1" d="M109.2 506.6l6.6-2.8 26.7-.5-2.7-24-27.3-.4-5.5 3z"/>
  <path id="svg-concept" class="games1" d="M109.2 506.6v2.7l28.8-1.4 4.5-4.6M112.5 478.9l3.3 24.9M115 495.9l26.7.2M113.5 487.3h27.2M120.8 487.8l.7 8M133.8 487.6l.5 8.5M92.5 472.4h14.7v9.5l-13.7-.3M99.8 472.8l.5 8.8M134.2 479.3v-6.7h12.6M148.2 481.3h-8M141.2 473.1l.5 8.2M12.8 530.3h48v-7.7h-48s.5 7.7 0 7.7zM22.7 506.3h27.7v8.2H22.7zM3.7 500.1l57.1-.8v-9l-57.1 1.5zM317.2 388.7v-3.4l9.4-3v-5l5.3-2.1-4.5-13.8h4.7v-6.9h-4.5v-6.3l-9.8-2.3-7.1.8v14.1h-7.6l-8 3.6-2.6 10.4 1.3 3h4.3v7.5h6.3v3.4"/>
  <path id="svg-concept" class="games1" d="M298.1 385.3l10.1-4.2 18.4 1.2M308.2 381.1v-19.9M298.1 377.8l5.3-1.1 3.2-15.6M303.1 360.8l-3 12-7.3 1.8M300.1 372.8l3.3 3.9M308.2 368.4h18.1l.3 8.9M327.4 361.4h-10.1v-7l10.3.1M317.8 345.9l-.5 8.5M317.5 350.5h3.3v3.8"/>
  <path id="svg-concept" class="games1" d="M327.7 351h-3.3v10.4M319.7 368.2v-6.7M326.3 368.4v-7"/>
  <g>
    <path id="svg-concept" class="games1" d="M782 272.1s25.6-.4 25.6-.8-.2-27.4-.2-27.4l-26.9.9 1.5 27.3zM781.6 266.6h-3.9l-.7-18.7.6-3 2.9-.1"/>
    <path id="svg-concept" class="games1" d="M776.9 250.8l-33.1 33.3v28.5l35.1-24.9 35.5 7.1-4.2-32h-7.1v8.6M778.9 287.7l-1.2-21.1M749 309.1v3.3M752.6 306.4v5.8M752.5 307.8h12.3M765 297.6v14.6"/>
    <path id="svg-concept" class="games1" d="M772.2 312.3l4.6-2.3 16.4 2.1-1.6-17.8-16.9-3.1 2.1 18.8M776.8 310l1.6 10.3M790.8 311.9v7.4M795 295l1.8 18.1 13.8 1.2-1.9-16.6z"/>
    <path id="svg-concept" class="games1" d="M790.8 315.7l6-2.6v5.8M807.3 314.6v3.8M781.1 254.1h8.7v4.5h-8.5M807.3 253.8h-8.8v4.6h8.9M791.1 271.8v-8.7h7.4v8.6M781.3 262.9h5.5v9M814.4 294.8l-5.7 2.9"/>
  </g>
  <path class="games0" d="M715.4 305.3H728l2 8.7 13.8-1.4 28.4-.3 1.6 8.2 91-5.7 1 7.2"/>
  <g>
    <path class="games0" d="M608.1 608.2l28.3 1.9 16.4-19.6-35.6-2.3"/>
    <path id="svg-concept" class="games1" d="M506.8 593.8l16.2 61 63.3 5.2-16.1-63.3zM506.7 593.8l72.7-128.6M650.1 305l-13.1-6.1-101 17.5-4 153 103.6-11.7-65.4 139M586.3 660L658 488.9l-12-23 13 11.5 3.1-103.7"/>
    <path id="svg-concept" class="games1" d="M622.2 574.4l3.2 4.1 40 2 13.2-38.5-30.1-31.4"/>
    <path id="svg-concept" class="games1" d="M663.1 526.1l-6.8 17.8 6.5 5.7-7.7 20.6-30.3-1.4M633.6 547.2l31.4 33.4M607.5 606.9l.4 1.3M522.2 566.4l61.8 1.2 9.7 28.2 6.2-13.6 7.6 24.7M559.5 523.8l29.9-1.2 5.6-11-29.6 2.1zM532 469.4l13.7 7.9-7.1 16 15.9 16.1M538.6 493.3h25M545.7 477.3l28.2-2.6M637 298.9l-1.4 158.8M620.8 459.4v-11l-14.3 1.5v-13l-73.7 8.8M559.8 312.7v12.1l12.3-2.3v12.6l24.8-3.3v-13.9l13.5-2.4v-11.6M536 316.4l-11-8.5 4.3-102.2 101.1-21.2 43.3 37.9-2.9 70.6"/>
    <path id="svg-concept" class="games1" d="M653.1 295.9l53-7.8 54.5 106.1-6.7 39.8-53.5 8.1-59.8-106.3z"/>
    <path id="svg-concept" class="games1" d="M640.6 335.8l54.4-7.5 11.1-40.2M725.5 326.8L715 366.6l-52.9 7.1M695 328.3L753.9 434M650.9 302.5l-27.3-13.7-98.6 19.1"/>
    <path id="svg-concept" class="games1" d="M546.7 303.6L548 276l12.9-1.9-.4 12 25.1-4.7.2-12.4 13.1-2.2-.8 27.1"/>
    <path id="svg-concept" class="games1" d="M560.9 274.1l24.9-5.1.5-13.1-24.8 4.8zM561.5 260.7l.4-13.1-24.2 5.6-.4 12.6zM586.3 255.9l.6-13.6 25.9-5.5v14.1zM600.1 239.6v14M549.1 250.8v12.4M527.5 243.3l12-2.1.1-14.1 73.8-15.8v12.6l13.7-2.7M630.4 184.5l-6.8 104.3M626.4 249.2l6.1 4.1 1-13.2 11.5 9.1-1.9 27.2 11.7 6.8-.4 9.2 7.7 1.8M447.7 338.8l-31.5 15.1 13.7 54.9 52.5-6.7 52.1-33.3M526.5 309.1l-26.4 4.5-18.9 9.1"/>
    <path id="svg-concept" class="games1" d="M531.5 370.3l-12.5-52-35.6 6"/>
    <path id="svg-concept" class="games1" d="M416.2 353.9l51.6-7.5 61.8-34.5M468.5 404.2l18.9 11.6 13.2-.9 8-29.3"/>
    <path id="svg-concept" class="games1" d="M500.6 414.9l-18.2-12.8-14.6-55.7"/>
    <path id="svg-concept" class="games1" d="M478.1 410.3l12.7-2.1 3.1-13.3 10.5 6M446.3 344.1s12.5-1.3 13.8-1.7 28.7-14.8 28.7-14.8l-11-6.4 3.9-13.8-10.3-5.7 3.6-14.5-10.7-5.7 4.3-14.3-11.1-6.1 4.8-13.8-11.7-6 2.3-6.7 30.1 19.1 13.7-1.9 1.9-6.6 12.7-1.3 4.6-14.3-11.6-6.3 5.1-14.4-52.5-30.4-13.4 1.1-1.4 7.1-19.5-12.1-13.3 2.3-10 34.5-12.8 1.6-20.5 69.7 11 5.6-4 14 8.8 6.3 15.1-1.9 1.4-6.4 12.5-1.4 9.6-33.7 10.3 5.4-4.1 13.8 10.3 6-3.6 14.1 10.1 5.7-3.6 14 10.4 6.1-3.9 13.8z"/>
    <path id="svg-concept" class="games1" d="M450.3 330.3l13.5-1.5 11.1 5.9 2.9-13.5-20.9-12.6M439.9 324.2l13.2-1.5M443.5 310.2l13.4-1.6 7.4-27.2-20.8-12.6M433.3 304.5l12.9-1.6"/>
    <path id="svg-concept" class="games1" d="M436.9 290.4l13.2-1.8 7.3-27.6M426.6 284.4l13.2-1.5M430.8 270.6l12.7-1.8 7.1-27.6M463.8 328.8l7.6-27.2-21.3-13"/>
    <path id="svg-concept" class="games1" d="M496.7 251.7l-51.9-31.1-7.9 28.3"/>
    <path id="svg-concept" class="games1" d="M420.5 265.1l9.8-36.2 20.4 12.7M457.7 261l-21.1-12.2"/>
    <path id="svg-concept" class="games1" d="M398.4 300.2l17.4-63.1 10.4 5.8 10.7 6-4.1 13.5 10.7 6.4-3.7 14.1 10.3 5.7-3.9 14.3 10.7 5.7-3.8 14.1 10.7 6.1-3.7 13.6M511.2 243.9l-52-31.1-6.3 21.7"/>
    <path id="svg-concept" class="games1" d="M498.5 245.2l5.7-21.8-51.7-30.3-4 13.8-10.2-5.1-4 13.5-10.6-5.5-3.7 13.1-10.7-5.3-23.6 82.8"/>
    <path id="svg-concept" class="games1" d="M411 298.8l-31.8-17.9-13.2 1.8M377 288.2l12.3-1.3M379.2 280.9l20.1-69.4 10 6.1 13.2-42.9"/>
    <path id="svg-concept" class="games1" d="M401 205.6l12.3-1.3 10.4 5.5 8.8-28.4"/>
    <path id="svg-concept" class="games1" d="M456.9 178.6l-4.4 14.5-10.5-6.2-3.7 14.9-20.6-11.4-12.5.9M659.8 447.6l-16.3-9.7v13.5l-7.8-3.7"/>
  </g>
  <g>
    <path id="svg-concept" class="games1" d="M773.1 587.9l30.8 1.8 3.4-9.4 1.6 8.4 31.3 2.8 4.9-6.5 13.3.5 8.6-46.4-10.9-11.7 3.6-88.2h2.6l1.9-62.4-14.4-8.8h-64.7l-1.3 66.5h3.9l-1.8 93.9h-14.1l-11.2 47.5z"/>
    <path id="svg-concept" class="games1" d="M787.7 434.5l60.8-.3 13.8 5h-74.8M849 439.4l-3.1 95.8 9.9-.3-4.9 32.1 3.1 2.9-1.6 8.3 6 7.3"/>
    <path id="svg-concept" class="games1" d="M845.1 585l6.3-11.5-5.5-38.3-.2-4.7-31.6-2.6-11.2 14.8 4.4 37.6"/>
    <path id="svg-concept" class="games1" d="M806.5 573.5l32.1 2.1.9 8.2 3-4.3.7 7.7M845.7 530.5l-10.8 14.3 3.7 30.8M802.9 542.7l32 2.1M808.8 534.9l-6.2-5.3-16.7-1.2"/>
    <path id="svg-concept" class="games1" d="M802.6 529.6l-10.6 48 11.9 12.1M760.6 575.9l31.4 1.7M764.2 560.1l31.2 1.1M839.5 583.4l.7 8.1"/>
    <path id="svg-concept" class="games1" d="M793.8 570.1l4.6 2.7-2.2 8.5M799.3 433.9v-23.8h8.9v-8.5h16.3v8.8h8.2v23.9"/>
    <path id="svg-concept" class="games1" d="M807.3 434.3v-7.9h16.5v7.6M808.3 401.6h-16.1v-16.8h15.9zM824.5 401.6v-17.1h16.7v17.4zM849.8 368l-1.3 66.2M823.2 528.5v-26.8h-7.5v-25.2h-7.3V493l-16.2-.5v8H808v17.1h6.1l.1 10.2M830.8 501.3v17.1h8v-16.8zM847.2 492.9h-8.1V477h8.6M810.1 439.6v12h7.4v-11.7M832.6 439.6v12h7.5v-11.8M848.7 451.7h-8.6v8.5h8.5M786.6 492.4h5.5v-8.6h-5.3"/>
    <path id="svg-concept" class="games1" d="M792.1 483.8h9.2v-7.7h-9.2v7.7z"/>
  </g>
  <path class="games0" d="M360.5 423.9l-.2-67.1-22.5 1.4v35l-10.8-5-63 3.4"/>
  <g>
    <path id="svg-concept" class="games1" d="M1001.5 428.2l12.5-2.5 11.8 32.8-2.8 2.8 5.5.8 5.5-3 7.8 4.8 17.8-5.8-9-5.5-4.2 1.8-2.8-1.2-3.5-34.5 23-5-8.8-35s2.5-.2 3.2-.5 18.2-13.5 18.2-13.5l-2.8-5.5-22.8 12-7.8-30.2-7.8-4.2L1007 347l1.5 10.2-6.2 2.2 4.5 16 8.8.8-8.2 3.2-30.2-8-10.2 11.5-.5 6.2 27.5 7 7.5 32.1z"/>
    <path id="svg-concept" class="games1" d="M1012.3 377.9l11.3 45.1 16.4-4.6M1014 425.7l9.6-2.7M1020.3 424.2l12.5 32.3 5.7-1.3 3.1.6-7.6 3.1M1033.9 420.3l3.3 34.9M1007.5 379.2l-.1 7.9-13.4 9.1"/>
    <path id="svg-concept" class="games1" d="M966.5 389.2l9.9-9.9 31 7.8M977.2 371.2l-.8 8.1M1057.5 377.9l-4.5-7.7M1017.4 375.5l3.8 14.3 7.1.5 12.6-4.6-3.4-15-5.3-1.1-16.4 6.3"/>
    <path id="svg-concept" class="games1" d="M1021.2 389.8l13.9-5.1 5.8 1M1035.1 384.7l-2.9-15.1M1034.8 336.4l11.9 47.1 5.6.5-2.1-13.1 4 7.5M1052.3 384l-24 6.3M1037 364.6l-4.6-15.3-29.9 9.9M1032.4 349.3l6 2.7M1008.1 353.2l6.9-2.3.7 3.6M1029.3 350.1l-.7-3.6 7.7-2.2"/>
    <path id="svg-concept" class="games1" d="M1036.6 370.6l6.4-2-6-4-30 10.6"/>
  </g>
  <path id="svg-concept" class="games1" d="M420.8 265.5l12-3.1"/>
</svg>
