<svg version="1.1" id="Layer_1" xmlns="http://www.w3.org/2000/svg" x="0" y="0" viewBox="0 0 623.8 467.8" xml:space="preserve">
  <style>
    .git1,.git2,.git3,.git6{stroke-linecap:round;stroke-linejoin:round;stroke-miterlimit:10}.git1{stroke-width:2;fill:#fff;stroke:gray}.git2,.git3,.git6{fill:none;stroke:#ee5586}.git3,.git6{stroke:gray}.git6{fill:#fff;stroke:#ee5586;stroke-width:2}
  </style>
  <path d="M545.4 17l-92.1 65.5c-5.1 3.2-9.2 8.3-9.2 18.5v271.8c0 10.1 3.6 14.6 9.2 18.5l92.1 58.1" fill="#fff" stroke="gray" stroke-linecap="round" stroke-linejoin="round" stroke-miterlimit="10"/>
  <path class="git1" d="M558.8 461.5c-7.4 0-13.4-5.5-13.4-12.2V17c0-6.7 6-12.2 13.4-12.2h47.3c7.4 0 13.4 5.5 13.4 12.2v432.4c0 6.7-6 12.2-13.4 12.2h-47.3z"/>
  <path id="svg-concept" class="git2" d="M587.9 125.3v-3.6c0-.7.5-1.2 1.2-1.2h3.6c.7 0 1.2.5 1.2 1.2v3.6c0 .7-.5 1.2-1.2 1.2h-3.6c-.7.1-1.2-.5-1.2-1.2zM565.3 117.9V113c0-.9.8-1.7 1.7-1.7h4.9c.9 0 1.7.8 1.7 1.7v4.9c0 .9-.8 1.7-1.7 1.7H567c-1 0-1.7-.8-1.7-1.7zM587.9 228.5v-3.6c0-.7.5-1.2 1.2-1.2h3.6c.7 0 1.2.5 1.2 1.2v3.6c0 .7-.5 1.2-1.2 1.2h-3.6c-.7 0-1.2-.5-1.2-1.2zM565.3 221.1v-4.9c0-.9.8-1.7 1.7-1.7h4.9c.9 0 1.7.8 1.7 1.7v4.9c0 .9-.8 1.7-1.7 1.7H567c-1 0-1.7-.8-1.7-1.7zM587.9 331.7v-3.6c0-.7.5-1.2 1.2-1.2h3.6c.7 0 1.2.5 1.2 1.2v3.6c0 .7-.5 1.2-1.2 1.2h-3.6c-.7 0-1.2-.5-1.2-1.2zM565.3 324.3v-4.9c0-.9.8-1.7 1.7-1.7h4.9c.9 0 1.7.8 1.7 1.7v4.9c0 .9-.8 1.7-1.7 1.7H567c-1 0-1.7-.8-1.7-1.7zM582.5 404c-8.8 0-15.9-7.1-15.9-15.8 0-8.7 7.1-15.8 15.9-15.8s15.8 7.1 15.8 15.8c0 8.7-7.1 15.8-15.8 15.8z"/>
  <path id="svg-concept" class="git2" d="M582.5 394c-3.2 0-5.9-2.6-5.9-5.9 0-3.2 2.6-5.9 5.9-5.9s5.9 2.6 5.9 5.9c-.1 3.3-2.7 5.9-5.9 5.9zM582.4 404v-10M582.4 382.3v-10"/>
  <path class="git3" d="M619.5 29.9h-73.8M619.5 436.4h-74.1M559.5 122.6V42.4c0-2.2 1.8-4 4-4h11.8c2.2 0 4 1.8 4 4v80.2c0 2.2-1.8 4-4 4h-11.8c-2.2 0-4-1.8-4-4zM587.9 50.3v-3.6c0-.7.5-1.2 1.2-1.2h3.6c.7 0 1.2.5 1.2 1.2v3.6c0 .7-.5 1.2-1.2 1.2h-3.6c-.7 0-1.2-.5-1.2-1.2zM587.9 62.4v-3.6c0-.7.5-1.2 1.2-1.2h3.6c.7 0 1.2.5 1.2 1.2v3.6c0 .7-.5 1.2-1.2 1.2h-3.6c-.7 0-1.2-.5-1.2-1.2zM587.9 79.4v-3.6c0-.7.5-1.2 1.2-1.2h3.6c.7 0 1.2.5 1.2 1.2v3.6c0 .7-.5 1.2-1.2 1.2h-3.6c-.7 0-1.2-.5-1.2-1.2zM601 50.3v-3.6c0-.7.5-1.2 1.2-1.2h3.6c.7 0 1.2.5 1.2 1.2v3.6c0 .7-.5 1.2-1.2 1.2h-3.6c-.7 0-1.2-.5-1.2-1.2zM601 62.4v-3.6c0-.7.5-1.2 1.2-1.2h3.6c.7 0 1.2.5 1.2 1.2v3.6c0 .7-.5 1.2-1.2 1.2h-3.6c-.7 0-1.2-.5-1.2-1.2zM601 125.2v-3.6c0-.7.5-1.2 1.2-1.2h3.6c.7 0 1.2.5 1.2 1.2v3.6c0 .7-.5 1.2-1.2 1.2h-3.6c-.7 0-1.2-.6-1.2-1.2zM587.9 91.5v-3.6c0-.7.5-1.2 1.2-1.2h3.6c.7 0 1.2.5 1.2 1.2v3.6c0 .7-.5 1.2-1.2 1.2h-3.6c-.7 0-1.2-.5-1.2-1.2zM587.9 103.4v-3.6c0-.7.5-1.2 1.2-1.2h3.6c.7 0 1.2.5 1.2 1.2v3.6c0 .7-.5 1.2-1.2 1.2h-3.6c-.7 0-1.2-.5-1.2-1.2z"/>
  <path class="git3" d="M587.9 103.6V100c0-.7.5-1.2 1.2-1.2h3.6c.7 0 1.2.5 1.2 1.2v3.6c0 .7-.5 1.2-1.2 1.2h-3.6c-.7 0-1.2-.5-1.2-1.2zM601 103.6V76.9c0-.7.5-1.2 1.2-1.2h3.6c.7 0 1.2.5 1.2 1.2v26.7c0 .7-.5 1.2-1.2 1.2h-3.6c-.7 0-1.2-.5-1.2-1.2zM579.2 69.4h-19.7M565.3 102.6v-4.9c0-.9.8-1.7 1.7-1.7h4.9c.9 0 1.7.8 1.7 1.7v4.9c0 .9-.8 1.7-1.7 1.7H567c-1 0-1.7-.8-1.7-1.7zM559.5 225.7v-80.2c0-2.2 1.8-4 4-4h11.8c2.2 0 4 1.8 4 4v80.2c0 2.2-1.8 4-4 4h-11.8c-2.2 0-4-1.8-4-4zM587.9 153.5v-3.6c0-.7.5-1.2 1.2-1.2h3.6c.7 0 1.2.5 1.2 1.2v3.6c0 .7-.5 1.2-1.2 1.2h-3.6c-.7 0-1.2-.5-1.2-1.2zM587.9 165.6V162c0-.7.5-1.2 1.2-1.2h3.6c.7 0 1.2.5 1.2 1.2v3.6c0 .7-.5 1.2-1.2 1.2h-3.6c-.7 0-1.2-.5-1.2-1.2zM587.9 182.6V179c0-.7.5-1.2 1.2-1.2h3.6c.7 0 1.2.5 1.2 1.2v3.6c0 .7-.5 1.2-1.2 1.2h-3.6c-.7 0-1.2-.5-1.2-1.2zM601 153.5v-3.6c0-.7.5-1.2 1.2-1.2h3.6c.7 0 1.2.5 1.2 1.2v3.6c0 .7-.5 1.2-1.2 1.2h-3.6c-.7 0-1.2-.5-1.2-1.2zM601 165.6V162c0-.7.5-1.2 1.2-1.2h3.6c.7 0 1.2.5 1.2 1.2v3.6c0 .7-.5 1.2-1.2 1.2h-3.6c-.7 0-1.2-.5-1.2-1.2zM601 228.3v-3.6c0-.7.5-1.2 1.2-1.2h3.6c.7 0 1.2.5 1.2 1.2v3.6c0 .7-.5 1.2-1.2 1.2h-3.6c-.7.1-1.2-.5-1.2-1.2zM587.9 194.7v-3.6c0-.7.5-1.2 1.2-1.2h3.6c.7 0 1.2.5 1.2 1.2v3.6c0 .7-.5 1.2-1.2 1.2h-3.6c-.7 0-1.2-.5-1.2-1.2zM587.9 206.6V203c0-.7.5-1.2 1.2-1.2h3.6c.7 0 1.2.5 1.2 1.2v3.6c0 .7-.5 1.2-1.2 1.2h-3.6c-.7 0-1.2-.6-1.2-1.2z"/>
  <path class="git3" d="M587.9 206.8v-3.6c0-.7.5-1.2 1.2-1.2h3.6c.7 0 1.2.5 1.2 1.2v3.6c0 .7-.5 1.2-1.2 1.2h-3.6c-.7 0-1.2-.6-1.2-1.2zM601 206.8v-26.7c0-.7.5-1.2 1.2-1.2h3.6c.7 0 1.2.5 1.2 1.2v26.7c0 .7-.5 1.2-1.2 1.2h-3.6c-.7 0-1.2-.6-1.2-1.2zM579.2 172.6h-19.7M565.3 205.8v-4.9c0-.9.8-1.7 1.7-1.7h4.9c.9 0 1.7.8 1.7 1.7v4.9c0 .9-.8 1.7-1.7 1.7H567c-1 0-1.7-.8-1.7-1.7zM559.5 328.9v-80.2c0-2.2 1.8-4 4-4h11.8c2.2 0 4 1.8 4 4v80.2c0 2.2-1.8 4-4 4h-11.8c-2.2 0-4-1.8-4-4zM587.9 256.7v-3.6c0-.7.5-1.2 1.2-1.2h3.6c.7 0 1.2.5 1.2 1.2v3.6c0 .7-.5 1.2-1.2 1.2h-3.6c-.7 0-1.2-.5-1.2-1.2zM587.9 268.8v-3.6c0-.7.5-1.2 1.2-1.2h3.6c.7 0 1.2.5 1.2 1.2v3.6c0 .7-.5 1.2-1.2 1.2h-3.6c-.7 0-1.2-.6-1.2-1.2zM587.9 285.8v-3.6c0-.7.5-1.2 1.2-1.2h3.6c.7 0 1.2.5 1.2 1.2v3.6c0 .7-.5 1.2-1.2 1.2h-3.6c-.7 0-1.2-.6-1.2-1.2zM601 256.7v-3.6c0-.7.5-1.2 1.2-1.2h3.6c.7 0 1.2.5 1.2 1.2v3.6c0 .7-.5 1.2-1.2 1.2h-3.6c-.7 0-1.2-.5-1.2-1.2zM601 268.8v-3.6c0-.7.5-1.2 1.2-1.2h3.6c.7 0 1.2.5 1.2 1.2v3.6c0 .7-.5 1.2-1.2 1.2h-3.6c-.7 0-1.2-.6-1.2-1.2zM601 331.5v-3.6c0-.7.5-1.2 1.2-1.2h3.6c.7 0 1.2.5 1.2 1.2v3.6c0 .7-.5 1.2-1.2 1.2h-3.6c-.7 0-1.2-.5-1.2-1.2zM587.9 297.9v-3.6c0-.7.5-1.2 1.2-1.2h3.6c.7 0 1.2.5 1.2 1.2v3.6c0 .7-.5 1.2-1.2 1.2h-3.6c-.7 0-1.2-.6-1.2-1.2zM587.9 309.7v-3.6c0-.7.5-1.2 1.2-1.2h3.6c.7 0 1.2.5 1.2 1.2v3.6c0 .7-.5 1.2-1.2 1.2h-3.6c-.7.1-1.2-.5-1.2-1.2z"/>
  <path class="git3" d="M587.9 309.9v-3.6c0-.7.5-1.2 1.2-1.2h3.6c.7 0 1.2.5 1.2 1.2v3.6c0 .7-.5 1.2-1.2 1.2h-3.6c-.7.1-1.2-.5-1.2-1.2z"/>
  <path id="svg-concept" class="git2" d="M568.5 426.2c-2.6 0-4.7-2.1-4.7-4.7s2.1-4.7 4.7-4.7 4.7 2.1 4.7 4.7c-.1 2.6-2.1 4.7-4.7 4.7z"/>
  <path class="git3" d="M581.7 423.3v-3.6c0-.7.5-1.2 1.2-1.2h3.6c.7 0 1.2.5 1.2 1.2v3.6c0 .7-.5 1.2-1.2 1.2h-3.6c-.7 0-1.2-.5-1.2-1.2zM595 423.3v-3.6c0-.7.5-1.2 1.2-1.2h3.6c.7 0 1.2.5 1.2 1.2v3.6c0 .7-.5 1.2-1.2 1.2h-3.6c-.6 0-1.2-.5-1.2-1.2zM601 309.9v-26.7c0-.7.5-1.2 1.2-1.2h3.6c.7 0 1.2.5 1.2 1.2v26.7c0 .7-.5 1.2-1.2 1.2h-3.6c-.7.1-1.2-.5-1.2-1.2zM579.2 275.8h-19.7M565.3 309v-5c0-.9.8-1.7 1.7-1.7h4.9c.9 0 1.7.8 1.7 1.7v4.9c0 .9-.8 1.7-1.7 1.7H567c-1 0-1.7-.7-1.7-1.6zM619.5 135h-74.1M459.6 116.5v-14.9M465.4 112.7V98.4M471.4 109V94.6M477.5 105.3V90.8M483.5 101.4V87M594.7 19h-22M594.7 447.5h-22M619.5 237.5h-74.1M619.5 339.9h-74.1M477.6 309.4v56.9c0 3.4-2.9 7.2-6.2 6.2l-6-2.2c-4.1-1.1-5.8-4.3-5.8-7.6v-53.2c0-3.4 2.8-6.2 6.2-6.2h5.7c3.3-.1 6.1 2.7 6.1 6.1z"/>
  <g>
    <circle id="svg-concept" cx="40.8" cy="234" r="34.5" fill="#fff" stroke="#ee5586" stroke-width="3" stroke-linecap="round" stroke-linejoin="round" stroke-miterlimit="10"/>
    <path class="git1" d="M195.7 90.6c0-19 15.4-34.5 34.5-34.5 19 0 34.5 15.5 34.5 34.5 0 19.1-15.5 34.5-34.5 34.5-19.1 0-34.5-15.4-34.5-34.5z"/>
    <circle class="git1" cx="149.4" cy="367.9" r="34.5"/>
    <path id="svg-concept" class="git2" d="M75.3 234h420.6"/>
    <path class="git3" d="M432 234L336.7 90.6M336.7 90.6h-72M352.4 234l-79.6 133.9M272.8 367.9h-88.9"/>
    <circle id="svg-ico" cx="495.4" cy="233.6" r="3.7" fill="#ee5586"/>
  </g>
  <g>
    <path id="svg-concept" class="git6" d="M87.4 234c0 2.7-2.2 4.9-4.9 4.9s-4.9-2.2-4.9-4.9 2.2-4.9 4.9-4.9c2.7-.1 4.9 2.1 4.9 4.9z"/>
    <animateMotion path="M0, 0 412 0 0" begin="1s" dur="3s" repeatCount="indefinite"/>
  </g>
  <g>
    <path id="svg-concept" class="git6" d="M197.2 367.9c0 2.7-2.2 4.9-4.9 4.9s-4.9-2.2-4.9-4.9 2.2-4.9 4.9-4.9c2.7-.1 4.9 2.1 4.9 4.9z"/>
    <animateMotion path="M0, 0 80 0 160 -135 0" begin="1s" dur="3s" repeatCount="indefinite"/>
  </g>
  <g>
    <path id="svg-concept" class="git6" d="M276.4 90.2c0 2.7-2.2 4.9-4.9 4.9s-4.9-2.2-4.9-4.9 2.2-4.9 4.9-4.9 4.9 2.2 4.9 4.9z"/>
    <animateMotion path="M0, 0 65 0 160 140 0" begin="1s" dur="3s" repeatCount="indefinite"/>
  </g>
</svg>
