<svg version="1.1" id="Layer_1" xmlns="http://www.w3.org/2000/svg" x="0" y="0" viewBox="0 0 603.8 423.8" xml:space="preserve">
  <style>
    .gpull0,.gpull1{fill:none;stroke:#d7d7d7;stroke-miterlimit:10}.gpull1{stroke:gray;stroke-linecap:round;stroke-linejoin:round}.gpull2,.gpull3{stroke:#ee5586;stroke-miterlimit:10}.gpull2{stroke-width:2;stroke-linecap:round;stroke-linejoin:round;fill:#fff}.gpull3{fill:none}.gpull3,.gpull4{stroke-linecap:round;stroke-linejoin:round}.gpull4,.gpull5,.gpull6,.gpull7{fill:#fff;stroke:gray;stroke-miterlimit:10}.gpull6,.gpull7{fill:none}.gpull7{stroke:#d7d7d7;stroke-linecap:round}
  </style>
  <path class="gpull1" d="M257.6 272.4H117.7M117.5 346.1V146.4M257.6 346.1H117.5"/>
  <g>
    <path id="svg-concept" class="gpull2" d="M122.4 140.5c0 2.5-2 4.5-4.5 4.5s-4.5-2-4.5-4.5 2-4.5 4.5-4.5 4.5 2 4.5 4.5z"/>
    <animateMotion path="M0, 0 0 205 205 205" begin="0s" dur="3s" repeatCount="indefinite"/>
  </g>
  <g>
    <path id="svg-concept" class="gpull2" d="M269.3 272.4c0 2.5-2 4.5-4.5 4.5s-4.5-2-4.5-4.5 2-4.5 4.5-4.5 4.5 2 4.5 4.5z"/>
    <animateMotion path="M0, 0 -147 0 -147 -130 130" begin="1s" dur="2s" repeatCount="indefinite"/>
  </g>
  <circle id="svg-concept" class="gpull2" cx="428.5" cy="408.9" r="10.5"/>
  <path id="svg-concept" class="gpull3" d="M428.5 379.6v18.1M345.1 408.9h72.5M439.4 408.9h72.5"/>
  <path class="gpull4" d="M599.4 216.5c0 5.5-4.1 10-9.1 10H266.7c-5 0-9.1-4.5-9.1-10V181c0-5.5 4.1-10 9.1-10h323.5c5 0 9.1 4.5 9.1 10v35.5z"/>
  <path class="gpull1" d="M276.4 171v55.2M580.6 171v55.5"/>
  <path id="svg-concept" class="gpull3" d="M556.3 198.7c0 6.6-5.3 11.9-11.9 11.9-6.5 0-11.8-5.3-11.8-11.9s5.3-11.8 11.8-11.8c6.6 0 11.9 5.3 11.9 11.8z"/>
  <path id="svg-concept" class="gpull3" d="M548.9 198.7c0 2.4-2 4.4-4.4 4.4-2.4 0-4.4-2-4.4-4.4s2-4.4 4.4-4.4c2.4 0 4.4 2 4.4 4.4zM556.3 198.8h-7.4M540.1 198.8h-7.5"/>
  <path class="gpull4" d="M599.4 290.1c0 5.5-4.1 10-9.1 10H266.7c-5 0-9.1-4.5-9.1-10v-35.4c0-5.5 4.1-10 9.1-10h323.5c5 0 9.1 4.5 9.1 10v35.4z"/>
  <path class="gpull1" d="M276.4 244.7v55.2M580.6 244.7v55.4"/>
  <path id="svg-concept" class="gpull3" d="M556.3 272.4c0 6.6-5.3 11.9-11.9 11.9-6.5 0-11.8-5.3-11.8-11.9 0-6.6 5.3-11.8 11.8-11.8 6.6-.1 11.9 5.2 11.9 11.8z"/>
  <path id="svg-concept" class="gpull3" d="M548.9 272.4c0 2.4-2 4.4-4.4 4.4-2.4 0-4.4-2-4.4-4.4s2-4.4 4.4-4.4c2.4 0 4.4 2 4.4 4.4zM556.3 272.4h-7.4M540.1 272.4h-7.5"/>
  <path class="gpull4" d="M599.4 363.8c0 5.5-4.1 10-9.1 10H266.7c-5 0-9.1-4.5-9.1-10v-35.4c0-5.5 4.1-10 9.1-10h323.5c5 0 9.1 4.5 9.1 10v35.4z"/>
  <path class="gpull1" d="M276.4 318.3v55.2M580.6 318.3v55.5"/>
  <path id="svg-concept" class="gpull3" d="M556.3 346c0 6.6-5.3 11.9-11.9 11.9-6.5 0-11.8-5.3-11.8-11.9 0-6.6 5.3-11.8 11.8-11.8 6.6 0 11.9 5.3 11.9 11.8z"/>
  <path id="svg-concept" class="gpull3" d="M548.9 346c0 2.4-2 4.4-4.4 4.4-2.4 0-4.4-2-4.4-4.4 0-2.4 2-4.4 4.4-4.4 2.4 0 4.4 2 4.4 4.4zM556.3 346.1h-7.4M540.1 346.1h-7.5"/>
  <g>
    <path class="gpull5" d="M2.2 136.2c0-.8.7-1.5 1.5-1.5h228.1c.8 0 1.5.7 1.5 1.5v4.6s-.1 5.6-11.7 5.6H13.9c-11.6 0-11.7-5.6-11.7-5.6v-4.6zM207.9 127.3V8.4c0-3.4-2.7-6.1-6-6.1H34.8c-3.3 0-6 2.7-6 6.1v118.9h179.1z"/>
    <path class="gpull6" d="M233.3 140.8H2.2M117.7 134.7h-17.6s.3 2.5 3 2.5h29.2c2.8 0 3-2.5 3-2.5h-17.6z"/>
    <path class="gpull0" d="M36.9 15.3H199V120H36.9z"/>
    <path id="svg-concept" class="gpull2" d="M53.7 22c0 .7-.6 1.3-1.3 1.3-.7 0-1.3-.6-1.3-1.3 0-.7.6-1.3 1.3-1.3.8.1 1.3.6 1.3 1.3z"/>
    <path class="gpull0" d="M59.7 22c0 .7-.6 1.3-1.3 1.3-.7 0-1.3-.6-1.3-1.3 0-.7.6-1.3 1.3-1.3.7.1 1.3.6 1.3 1.3zM65.7 22c0 .7-.6 1.3-1.3 1.3-.7 0-1.3-.6-1.3-1.3 0-.7.6-1.3 1.3-1.3.7.1 1.3.6 1.3 1.3zM36.9 27.9h43.9l2.7-5.6h31.8l2.5 5.6H199M42.3 32.7l-1.7 1.8 1.7 1.7M45.9 34.5h-5.3M52.8 36.2l1.7-1.7-1.7-1.8M49.2 34.5h5.3M61.6 32.7c-1.1 0-2 .9-2 2s.9 2 2 2 2-.9 2-2"/>
    <path class="gpull0" d="M61.6 33.2v-1.1l1.1.6z"/>
    <circle id="svg-concept" class="gpull2" cx="100.4" cy="108.1" r="2.2"/>
    <path class="gpull7" d="M100.4 55.6l-9 6M91.4 61.6v32.5M100.4 60.6l8.4 5M108.8 65.6v33.6"/>
    <path class="gpull1" d="M91.4 98.5c-1.2 0-2.2-1-2.2-2.2 0-1.2 1-2.2 2.2-2.2 1.2 0 2.2 1 2.2 2.2 0 1.2-1 2.2-2.2 2.2z"/>
    <circle class="gpull1" cx="108.8" cy="101.3" r="2.2"/>
    <path class="gpull7" d="M91.8 74.8l8.4 4.9"/>
    <path id="svg-concept" class="gpull3" d="M100.4 106V40.6"/>
    <path class="gpull7" d="M125.4 61.6h58.1M125.4 70.8h48.4M125.4 94h58.1M125.4 82.8h58.1M125.4 103.1h48.4M50.1 61.6h22.8M50.1 70.8h19M50.1 94h22.8M50.1 103.1h19"/>
    <path class="gpull0" d="M36.9 40.6H199"/>
  </g>
</svg>
