<svg version="1.1" id="Layer_1" xmlns="http://www.w3.org/2000/svg" x="0" y="0" viewBox="0 0 1099.5 337.7" xml:space="preserve">
  <style>
    .hard0,.hard1{stroke:#ee5586;stroke-linecap:round;stroke-linejoin:round;stroke-miterlimit:10}.hard0{stroke-width:3;fill:#fff}.hard1{fill:none}.hard2{fill:#fff}.hard4{stroke-opacity:.35}.hard4,.hard5,.hard6{fill:none;stroke:gray;stroke-linecap:round;stroke-linejoin:round;stroke-miterlimit:10}.hard6{stroke:#d8d8d8}.hard7{fill:#fff}
  </style>
  <path id="svg-concept" class="hard0" d="M189.4 167.8H147M168.5 146.8v42.4M379.2 167.8h-42.4M358.3 146.8v42.4M758.4 167.8H716M737.5 146.8v42.4M948.1 167.8h-42.4M927.1 146.8v42.4"/>
  <g>
    <path class="hard2" d="M166.8 146.3h3.5v21.4h-3.5z"/>
    <animateMotion path="M0, 0 0 -25 0" begin="1s" dur="2s" fill="freeze"/>
  </g>
  <g>
    <path class="hard2" d="M166.8 167.7h3.5v22h-3.5z"/>
    <animateMotion path="M0, 0 0 25 0" begin="1s" dur="2s" fill="freeze"/>
  </g>
  <g>
    <path transform="rotate(90 179.2397 167.7275)" class="hard2" d="M177.5 157h3.5v21.4h-3.5z"/>
    <animateMotion path="M0, 0 25 0 0" begin="1s" dur="2s" fill="freeze"/>
  </g>
  <g>
    <path transform="rotate(90 157.509 167.7275)" class="hard2" d="M155.8 156.7h3.5v22h-3.5z"/>
    <animateMotion path="M0, 0 -25 0 0" begin="1s" dur="2s" fill="freeze"/>
  </g>
  <path id="svg-concept" class="hard0" d="M568.8 167.8h-42.4M547.8 146.8v42.4"/>
  <g>
    <path class="hard2" d="M546.1 146.3h3.5v21.4h-3.5z"/>
    <animateMotion path="M0, 0 0 -25 0" begin="1s" dur="2s" fill="freeze"/>
  </g>
  <g>
    <path class="hard2" d="M546.1 167.7h3.5v22h-3.5z"/>
    <animateMotion path="M0, 0 0 25 0" begin="1s" dur="2s" fill="freeze"/>
  </g>
  <g>
    <path transform="rotate(90 558.5885 167.7275)" class="hard2" d="M556.8 157h3.5v21.4h-3.5z"/>
    <animateMotion path="M0, 0 25 0 0" begin="1s" dur="2s" fill="freeze"/>
  </g>
  <g>
    <path transform="rotate(90 536.8578 167.7275)" class="hard2" d="M535.1 156.7h3.5v22h-3.5z"/>
    <animateMotion path="M0, 0 -25 0 0" begin="1s" dur="2s" fill="freeze"/>
  </g>
  <g>
    <path class="hard2" d="M925.4 146.3h3.5v21.4h-3.5z"/>
    <animateMotion path="M0, 0 0 -25 0" begin="1s" dur="2s" fill="freeze"/>
  </g>
  <g>
    <path class="hard2" d="M925.4 167.7h3.5v22h-3.5z"/>
    <animateMotion path="M0, 0 0 25 0" begin="1s" dur="2s" fill="freeze"/>
  </g>
  <g>
    <path transform="rotate(90 937.8693 167.7275)" class="hard2" d="M936.1 157h3.5v21.4h-3.5z"/>
    <animateMotion path="M0, 0 25 0 0" begin="1s" dur="2s" fill="freeze"/>
  </g>
  <g>
    <path transform="rotate(90 916.1386 167.7275)" class="hard2" d="M914.4 156.7h3.5v22h-3.5z"/>
    <animateMotion path="M0, 0 -25 0 0" begin="1s" dur="2s" fill="freeze"/>
  </g>
  <path id="svg-concept" transform="rotate(-45 168.5165 262.5745)" class="hard7" d="M117.4 211.4h102.3v102.3H117.4z"/>
  <path class="hard4" d="M210.1 265.1c-1.5 1.5-3.9 1.5-5.4 0-1.5-1.5-1.5-3.9 0-5.4 1.5-1.5 3.9-1.5 5.4 0 1.5 1.5 1.5 3.8 0 5.4zM171.3 304c-1.5 1.5-3.9 1.5-5.4 0-1.5-1.5-1.5-3.9 0-5.4 1.5-1.5 3.9-1.5 5.4 0 1.4 1.6 1.4 3.9 0 5.4z"/>
  <path transform="rotate(-45 168.4847 262.5424)" class="hard5" d="M129.1 223.2h78.7v78.7h-78.7z"/>
  <path class="hard4" d="M132.3 265.2c-1.5 1.5-3.9 1.5-5.4 0-1.5-1.5-1.5-3.9 0-5.4 1.5-1.5 3.9-1.5 5.4 0 1.6 1.4 1.6 3.9 0 5.4zM171.3 226.2c-1.5 1.5-3.9 1.5-5.4 0-1.5-1.5-1.5-3.9 0-5.4 1.5-1.5 3.9-1.5 5.4 0 1.5 1.4 1.5 3.9 0 5.4z"/>
  <g class="hard5">
    <path transform="rotate(-45 168.53 262.4092)" d="M152.8 246.7h31.4v31.4h-31.4z"/>
    <path d="M153.6 263.4c-.6.6-1.5.6-2 0-.6-.6-.6-1.5 0-2 .6-.6 1.5-.6 2 0s.4 1.5 0 2zM157.6 259.4c-.6.6-1.5.6-2 0-.6-.6-.6-1.5 0-2 .6-.6 1.5-.6 2 0s.6 1.5 0 2zM161.6 255.4c-.6.6-1.5.6-2 0-.6-.6-.6-1.5 0-2 .6-.6 1.5-.6 2 0 .6.6.6 1.5 0 2zM165.6 251.3c-.6.6-1.5.6-2 0-.6-.6-.6-1.5 0-2 .6-.6 1.5-.6 2 0 .6.7.6 1.6 0 2zM169.6 247.3c-.6.6-1.5.6-2 0-.6-.6-.6-1.5 0-2 .6-.6 1.5-.6 2 0 .6.7.6 1.4 0 2zM157.6 267.5c-.6.6-1.5.6-2 0-.6-.6-.6-1.5 0-2 .6-.6 1.5-.6 2 0 .6.5.6 1.4 0 2zM161.6 263.5c-.6.6-1.5.6-2 0-.6-.6-.6-1.5 0-2 .6-.6 1.5-.6 2 0 .6.5.6 1.4 0 2zM165.6 259.4c-.6.6-1.5.6-2 0-.6-.6-.6-1.5 0-2 .6-.6 1.5-.6 2 0 .6.6.6 1.5 0 2zM169.6 255.4c-.6.6-1.5.6-2 0-.6-.6-.6-1.5 0-2 .6-.6 1.5-.6 2 0 .6.6.6 1.5 0 2zM173.6 251.3c-.6.6-1.5.6-2 0-.6-.6-.6-1.5 0-2 .6-.6 1.5-.6 2 0 .6.7.6 1.6 0 2zM161.6 271.5c-.6.6-1.5.6-2 0-.6-.6-.6-1.5 0-2 .6-.6 1.5-.6 2 0 .6.5.6 1.4 0 2zM165.6 267.5c-.6.6-1.5.6-2 0-.6-.6-.6-1.5 0-2 .6-.6 1.5-.6 2 0 .6.5.6 1.4 0 2zM169.6 263.5c-.6.6-1.5.6-2 0-.6-.6-.6-1.5 0-2 .6-.6 1.5-.6 2 0 .6.5.6 1.4 0 2zM173.6 259.5c-.6.6-1.5.6-2 0-.6-.6-.6-1.5 0-2 .6-.6 1.5-.6 2 0 .6.5.6 1.4 0 2zM177.6 255.4c-.6.6-1.5.6-2 0-.6-.6-.6-1.5 0-2 .6-.6 1.5-.6 2 0 .6.6.6 1.5 0 2zM165.6 275.5c-.6.6-1.5.6-2 0-.6-.6-.6-1.5 0-2 .6-.6 1.5-.6 2 0 .6.5.6 1.4 0 2zM169.6 271.5c-.6.6-1.5.6-2 0-.6-.6-.6-1.5 0-2 .6-.6 1.5-.6 2 0 .6.5.6 1.4 0 2zM173.6 267.5c-.6.6-1.5.6-2 0-.6-.6-.6-1.5 0-2 .6-.6 1.5-.6 2 0 .6.5.6 1.4 0 2zM177.7 263.5c-.6.6-1.5.6-2 0-.6-.6-.6-1.5 0-2 .6-.6 1.5-.6 2 0 .5.5.5 1.4 0 2zM181.8 259.5c-.6.6-1.5.6-2 0-.6-.6-.6-1.5 0-2 .6-.6 1.5-.6 2 0 .4.5.4 1.4 0 2zM169.6 279.5c-.6.6-1.5.6-2 0-.6-.6-.6-1.5 0-2 .6-.6 1.5-.6 2 0 .6.6.6 1.4 0 2zM173.7 275.5c-.6.6-1.5.6-2 0-.6-.6-.6-1.5 0-2 .6-.6 1.5-.6 2 0 .5.5.5 1.4 0 2zM177.7 271.5c-.6.6-1.5.6-2 0-.6-.6-.6-1.5 0-2 .6-.6 1.5-.6 2 0 .5.5.5 1.4 0 2zM181.8 267.5c-.6.6-1.5.6-2 0-.6-.6-.6-1.5 0-2 .6-.6 1.5-.6 2 0 .4.5.4 1.4 0 2zM185.8 263.5c-.6.6-1.5.6-2 0-.6-.6-.6-1.5 0-2 .6-.6 1.5-.6 2 0 .4.5.4 1.4 0 2z"/>
  </g>
  <path transform="rotate(-45 358.2837 262.5339)" id="svg-concept" class="hard0" d="M307.2 211.4h102.3v102.3H307.2z"/>
  <path class="hard4" d="M399.8 265.1c-1.5 1.5-3.9 1.5-5.4 0-1.5-1.5-1.5-3.9 0-5.4 1.5-1.5 3.9-1.5 5.4 0 1.4 1.5 1.4 3.8 0 5.4zM360.9 304c-1.5 1.5-3.9 1.5-5.4 0-1.5-1.5-1.5-3.9 0-5.4 1.5-1.5 3.9-1.5 5.4 0 1.5 1.6 1.5 3.9 0 5.4z"/>
  <path transform="rotate(-45 358.034 262.566)" class="hard5" d="M318.7 223.2h78.7v78.7h-78.7z"/>
  <path class="hard4" d="M321.9 265.2c-1.5 1.5-3.9 1.5-5.4 0-1.5-1.5-1.5-3.9 0-5.4 1.5-1.5 3.9-1.5 5.4 0 1.5 1.4 1.5 3.9 0 5.4zM360.9 226.2c-1.5 1.5-3.9 1.5-5.4 0-1.5-1.5-1.5-3.9 0-5.4 1.5-1.5 3.9-1.5 5.4 0 1.5 1.4 1.5 3.9 0 5.4z"/>
  <path transform="rotate(-45 358.0794 262.4327)" id="svg-concept" class="hard1" d="M342.4 246.7h31.4v31.4h-31.4z"/>
  <path id="svg-concept" class="hard1" d="M343.2 263.4c-.6.6-1.5.6-2 0-.6-.6-.6-1.5 0-2 .6-.6 1.5-.6 2 0 .6.6.6 1.5 0 2zM347.2 259.4c-.6.6-1.5.6-2 0-.6-.6-.6-1.5 0-2 .6-.6 1.5-.6 2 0 .6.6.6 1.5 0 2zM351.2 255.4c-.6.6-1.5.6-2 0-.6-.6-.6-1.5 0-2 .6-.6 1.5-.6 2 0 .6.6.6 1.5 0 2zM355.2 251.3c-.6.6-1.5.6-2 0-.6-.6-.6-1.5 0-2 .6-.6 1.5-.6 2 0 .6.7.6 1.6 0 2zM359.2 247.3c-.6.6-1.5.6-2 0-.6-.6-.6-1.5 0-2 .6-.6 1.5-.6 2 0 .6.7.6 1.4 0 2zM347.2 267.5c-.6.6-1.5.6-2 0-.6-.6-.6-1.5 0-2 .6-.6 1.5-.6 2 0 .6.5.6 1.4 0 2zM351.2 263.5c-.6.6-1.5.6-2 0-.6-.6-.6-1.5 0-2 .6-.6 1.5-.6 2 0 .6.5.6 1.4 0 2zM355.3 259.4c-.6.6-1.5.6-2 0-.6-.6-.6-1.5 0-2 .6-.6 1.5-.6 2 0s.5 1.5 0 2zM359.3 255.4c-.6.6-1.5.6-2 0-.6-.6-.6-1.5 0-2 .6-.6 1.5-.6 2 0s.5 1.5 0 2zM363.3 251.3c-.6.6-1.5.6-2 0-.6-.6-.6-1.5 0-2 .6-.6 1.5-.6 2 0 .5.7.5 1.6 0 2zM351.3 271.5c-.6.6-1.5.6-2 0-.6-.6-.6-1.5 0-2 .6-.6 1.5-.6 2 0 .5.5.5 1.4 0 2zM355.3 267.5c-.6.6-1.5.6-2 0-.6-.6-.6-1.5 0-2 .6-.6 1.5-.6 2 0 .5.5.5 1.4 0 2zM359.3 263.5c-.6.6-1.5.6-2 0-.6-.6-.6-1.5 0-2 .6-.6 1.5-.6 2 0 .5.5.5 1.4 0 2zM363.3 259.5c-.6.6-1.5.6-2 0-.6-.6-.6-1.5 0-2 .6-.6 1.5-.6 2 0 .5.5.5 1.4 0 2zM367.3 255.4c-.6.6-1.5.6-2 0-.6-.6-.6-1.5 0-2 .6-.6 1.5-.6 2 0s.7 1.5 0 2zM355.3 275.5c-.6.6-1.5.6-2 0-.6-.6-.6-1.5 0-2 .6-.6 1.5-.6 2 0 .5.5.5 1.4 0 2zM359.3 271.5c-.6.6-1.5.6-2 0-.6-.6-.6-1.5 0-2 .6-.6 1.5-.6 2 0 .5.5.5 1.4 0 2zM363.3 267.5c-.6.6-1.5.6-2 0-.6-.6-.6-1.5 0-2 .6-.6 1.5-.6 2 0 .7.5.7 1.4 0 2zM367.3 263.5c-.6.6-1.5.6-2 0-.6-.6-.6-1.5 0-2 .6-.6 1.5-.6 2 0 .7.5.7 1.4 0 2zM371.3 259.5c-.6.6-1.5.6-2 0-.6-.6-.6-1.5 0-2 .6-.6 1.5-.6 2 0 .7.5.7 1.4 0 2zM359.3 279.5c-.6.6-1.5.6-2 0-.6-.6-.6-1.5 0-2 .6-.6 1.5-.6 2 0 .6.6.6 1.4 0 2zM363.3 275.5c-.6.6-1.5.6-2 0-.6-.6-.6-1.5 0-2 .6-.6 1.5-.6 2 0 .7.5.7 1.4 0 2zM367.3 271.5c-.6.6-1.5.6-2 0-.6-.6-.6-1.5 0-2 .6-.6 1.5-.6 2 0 .7.5.7 1.4 0 2zM371.3 267.5c-.6.6-1.5.6-2 0-.6-.6-.6-1.5 0-2 .6-.6 1.5-.6 2 0 .7.5.7 1.4 0 2zM375.4 263.5c-.6.6-1.5.6-2 0-.6-.6-.6-1.5 0-2 .6-.6 1.5-.6 2 0 .6.5.6 1.4 0 2z"/>
  <g>
    <path id="svg-concept" transform="rotate(-45 263.007 167.8378)" class="hard7" d="M211.9 116.7h102.3V219H211.9z"/>
    <path class="hard4" d="M304.7 170.5c-1.5 1.5-3.9 1.5-5.4 0-1.5-1.5-1.5-3.9 0-5.4 1.5-1.5 3.9-1.5 5.4 0 1.5 1.4 1.5 3.8 0 5.4zM265.7 209.5c-1.5 1.5-3.9 1.5-5.4 0-1.5-1.5-1.5-3.9 0-5.4 1.5-1.5 3.9-1.5 5.4 0 1.5 1.4 1.5 3.8 0 5.4z"/>
    <path transform="rotate(-45 263.1478 167.9149)" class="hard5" d="M223.8 128.6h78.7v78.7h-78.7z"/>
    <path class="hard4" d="M226.9 170.5c-1.5 1.5-3.9 1.5-5.4 0-1.5-1.5-1.5-3.9 0-5.4 1.5-1.5 3.9-1.5 5.4 0 1.5 1.5 1.5 4 0 5.4zM265.8 131.5c-1.5 1.5-3.9 1.5-5.4 0-1.5-1.5-1.5-3.9 0-5.4s3.9-1.5 5.4 0c1.4 1.6 1.4 4 0 5.4z"/>
    <g class="hard5">
      <path transform="rotate(-45 263.0841 167.8905)" d="M247.4 152.2h31.4v31.4h-31.4z"/>
      <path d="M248.1 168.8c-.6.6-1.5.6-2 0-.6-.6-.6-1.5 0-2 .6-.6 1.5-.6 2 0s.5 1.5 0 2zM252.1 164.8c-.6.6-1.5.6-2 0-.6-.6-.6-1.5 0-2 .6-.6 1.5-.6 2 0 .5.5.5 1.4 0 2zM256.1 160.8c-.6.6-1.5.6-2 0-.6-.6-.6-1.5 0-2 .6-.6 1.5-.6 2 0 .5.4.5 1.4 0 2zM260.1 156.8c-.6.6-1.5.6-2 0-.6-.6-.6-1.5 0-2 .6-.6 1.5-.6 2 0 .7.4.7 1.4 0 2zM264.2 152.8c-.6.6-1.5.6-2 0-.6-.6-.6-1.5 0-2 .6-.6 1.5-.6 2 0 .6.4.6 1.4 0 2zM252.1 172.8c-.6.6-1.5.6-2 0-.6-.6-.6-1.5 0-2 .6-.6 1.5-.6 2 0s.5 1.5 0 2zM256.1 168.8c-.6.6-1.5.6-2 0-.6-.6-.6-1.5 0-2 .6-.6 1.5-.6 2 0 .7.6.7 1.5 0 2zM260.1 164.8c-.6.6-1.5.6-2 0-.6-.6-.6-1.5 0-2 .6-.6 1.5-.6 2 0 .7.6.7 1.5 0 2zM264.2 160.8c-.6.6-1.5.6-2 0-.6-.6-.6-1.5 0-2 .6-.6 1.5-.6 2 0 .6.4.6 1.4 0 2zM268.2 156.8c-.6.6-1.5.6-2 0-.6-.6-.6-1.5 0-2 .6-.6 1.5-.6 2 0 .6.4.6 1.4 0 2zM256.1 177c-.6.6-1.5.6-2 0-.6-.6-.6-1.5 0-2 .6-.6 1.5-.6 2 0 .7.4.7 1.3 0 2zM260.1 172.8c-.6.6-1.5.6-2 0-.6-.6-.6-1.5 0-2 .6-.6 1.5-.6 2 0 .7.6.7 1.5 0 2zM264.2 168.8c-.6.6-1.5.6-2 0-.6-.6-.6-1.5 0-2 .6-.6 1.5-.6 2 0 .6.6.6 1.5 0 2zM268.2 164.8c-.6.6-1.5.6-2 0-.6-.6-.6-1.5 0-2 .6-.6 1.5-.6 2 0 .6.6.6 1.5 0 2zM272.2 160.8c-.6.6-1.5.6-2 0-.6-.6-.6-1.5 0-2 .6-.6 1.5-.6 2 0 .6.6.6 1.5 0 2zM260.1 181c-.6.6-1.5.6-2 0-.6-.6-.6-1.5 0-2 .6-.6 1.5-.6 2 0 .7.4.7 1.3 0 2zM264.2 177c-.6.6-1.5.6-2 0-.6-.6-.6-1.5 0-2 .6-.6 1.5-.6 2 0 .6.4.6 1.3 0 2zM268.2 173c-.6.6-1.5.6-2 0-.6-.6-.6-1.5 0-2 .6-.6 1.5-.6 2 0 .6.4.6 1.3 0 2zM272.2 168.8c-.6.6-1.5.6-2 0-.6-.6-.6-1.5 0-2 .6-.6 1.5-.6 2 0 .6.6.6 1.5 0 2zM276.2 164.8c-.6.6-1.5.6-2 0-.6-.6-.6-1.5 0-2 .6-.6 1.5-.6 2 0 .6.6.6 1.5 0 2zM264.2 185c-.6.6-1.5.6-2 0-.6-.6-.6-1.5 0-2 .6-.6 1.5-.6 2 0 .6.4.6 1.4 0 2zM268.2 181c-.6.6-1.5.6-2 0-.6-.6-.6-1.5 0-2 .6-.6 1.5-.6 2 0 .6.4.6 1.3 0 2zM272.2 177c-.6.6-1.5.6-2 0-.6-.6-.6-1.5 0-2 .6-.6 1.5-.6 2 0 .6.4.6 1.3 0 2zM276.3 173c-.6.6-1.5.6-2 0-.6-.6-.6-1.5 0-2 .6-.6 1.5-.6 2 0 .5.4.5 1.3 0 2zM280.3 168.9c-.6.6-1.5.6-2 0-.6-.6-.6-1.5 0-2 .6-.6 1.5-.6 2 0 .5.5.5 1.4 0 2z"/>
    </g>
    <animateMotion path="M0, -25 0 0" begin="1s" dur="2s" fill="freeze"/>
  </g>
  <g>
    <path id="svg-concept" transform="rotate(-45 547.8333 262.4938)" class="hard7" d="M496.7 211.4H599v102.3H496.7z"/>
    <path class="hard4" d="M589.4 265.1c-1.5 1.5-3.9 1.5-5.4 0-1.5-1.5-1.5-3.9 0-5.4 1.5-1.5 3.9-1.5 5.4 0 1.6 1.5 1.6 3.8 0 5.4zM550.5 304c-1.5 1.5-3.9 1.5-5.4 0-1.5-1.5-1.5-3.9 0-5.4 1.5-1.5 3.9-1.5 5.4 0 1.5 1.6 1.5 3.9 0 5.4z"/>
    <path transform="rotate(-45 547.8013 262.5257)" class="hard5" d="M508.5 223.2h78.7v78.7h-78.7z"/>
    <path class="hard4" d="M511.7 265.2c-1.5 1.5-3.9 1.5-5.4 0-1.5-1.5-1.5-3.9 0-5.4 1.5-1.5 3.9-1.5 5.4 0 1.5 1.4 1.5 3.9 0 5.4zM550.6 226.2c-1.5 1.5-3.9 1.5-5.4 0-1.5-1.5-1.5-3.9 0-5.4 1.5-1.5 3.9-1.5 5.4 0 1.4 1.4 1.4 3.9 0 5.4z"/>
    <g class="hard5">
      <path transform="rotate(-45 547.8468 262.3925)" d="M532.1 246.7h31.4v31.4h-31.4z"/>
      <path d="M532.9 263.4c-.6.6-1.5.6-2 0-.6-.6-.6-1.5 0-2 .6-.6 1.5-.6 2 0s.5 1.5 0 2zM536.9 259.4c-.6.6-1.5.6-2 0-.6-.6-.6-1.5 0-2 .6-.6 1.5-.6 2 0s.5 1.5 0 2zM540.9 255.4c-.6.6-1.5.6-2 0-.6-.6-.6-1.5 0-2 .6-.6 1.5-.6 2 0s.5 1.5 0 2zM544.9 251.3c-.6.6-1.5.6-2 0-.6-.6-.6-1.5 0-2 .6-.6 1.5-.6 2 0 .5.7.6 1.6 0 2zM548.9 247.3c-.6.6-1.5.6-2 0-.6-.6-.6-1.5 0-2 .6-.6 1.5-.6 2 0 .6.7.6 1.4 0 2zM536.9 267.5c-.6.6-1.5.6-2 0-.6-.6-.6-1.5 0-2 .6-.6 1.5-.6 2 0 .5.5.5 1.4 0 2zM540.9 263.5c-.6.6-1.5.6-2 0-.6-.6-.6-1.5 0-2 .6-.6 1.5-.6 2 0 .6.5.6 1.4 0 2zM544.9 259.4c-.6.6-1.5.6-2 0-.6-.6-.6-1.5 0-2 .6-.6 1.5-.6 2 0 .6.6.6 1.5 0 2zM548.9 255.4c-.6.6-1.5.6-2 0-.6-.6-.6-1.5 0-2 .6-.6 1.5-.6 2 0 .6.6.6 1.5 0 2zM552.9 251.3c-.6.6-1.5.6-2 0-.6-.6-.6-1.5 0-2 .6-.6 1.5-.6 2 0 .6.7.6 1.6 0 2zM540.9 271.5c-.6.6-1.5.6-2 0-.6-.6-.6-1.5 0-2 .6-.6 1.5-.6 2 0 .6.5.6 1.4 0 2zM544.9 267.5c-.6.6-1.5.6-2 0-.6-.6-.6-1.5 0-2 .6-.6 1.5-.6 2 0 .6.5.6 1.4 0 2zM548.9 263.5c-.6.6-1.5.6-2 0-.6-.6-.6-1.5 0-2 .6-.6 1.5-.6 2 0 .6.5.6 1.4 0 2zM552.9 259.5c-.6.6-1.5.6-2 0-.6-.6-.6-1.5 0-2 .6-.6 1.5-.6 2 0 .6.5.6 1.4 0 2zM556.9 255.4c-.6.6-1.5.6-2 0-.6-.6-.6-1.5 0-2 .6-.6 1.5-.6 2 0 .7.6.7 1.5 0 2zM544.9 275.5c-.6.6-1.5.6-2 0-.6-.6-.6-1.5 0-2 .6-.6 1.5-.6 2 0 .6.5.6 1.4 0 2zM548.9 271.5c-.6.6-1.5.6-2 0-.6-.6-.6-1.5 0-2 .6-.6 1.5-.6 2 0 .6.5.6 1.4 0 2zM552.9 267.5c-.6.6-1.5.6-2 0-.6-.6-.6-1.5 0-2 .6-.6 1.5-.6 2 0 .6.5.6 1.4 0 2zM556.9 263.5c-.6.6-1.5.6-2 0-.6-.6-.6-1.5 0-2 .6-.6 1.5-.6 2 0 .7.5.7 1.4 0 2zM560.9 259.5c-.6.6-1.5.6-2 0-.6-.6-.6-1.5 0-2 .6-.6 1.5-.6 2 0 .7.5.7 1.4 0 2zM548.9 279.5c-.6.6-1.5.6-2 0-.6-.6-.6-1.5 0-2 .6-.6 1.5-.6 2 0 .6.6.6 1.4 0 2zM552.9 275.5c-.6.6-1.5.6-2 0-.6-.6-.6-1.5 0-2 .6-.6 1.5-.6 2 0 .6.5.6 1.4 0 2zM556.9 271.5c-.6.6-1.5.6-2 0-.6-.6-.6-1.5 0-2 .6-.6 1.5-.6 2 0 .7.5.7 1.4 0 2zM561.1 267.5c-.6.6-1.5.6-2 0-.6-.6-.6-1.5 0-2 .6-.6 1.5-.6 2 0 .5.5.5 1.4 0 2zM565.1 263.5c-.6.6-1.5.6-2 0-.6-.6-.6-1.5 0-2 .6-.6 1.5-.6 2 0 .5.5.5 1.4 0 2z"/>
    </g>
  </g>
  <g>
    <path transform="rotate(-45 737.4916 262.6262)" id="svg-concept" class="hard0" d="M686.4 211.5h102.3v102.3H686.4z"/>
    <path class="hard4" d="M779.2 265.1c-1.5 1.5-3.9 1.5-5.4 0-1.5-1.5-1.5-3.9 0-5.4 1.5-1.5 3.9-1.5 5.4 0 1.4 1.5 1.4 3.8 0 5.4zM740.2 304c-1.5 1.5-3.9 1.5-5.4 0-1.5-1.5-1.5-3.9 0-5.4 1.5-1.5 3.9-1.5 5.4 0 1.4 1.6 1.4 3.9 0 5.4z"/>
    <path transform="rotate(-45 737.4597 262.3764)" class="hard5" d="M698.1 223h78.7v78.7h-78.7z"/>
    <path class="hard4" d="M701.2 265.2c-1.5 1.5-3.9 1.5-5.4 0-1.5-1.5-1.5-3.9 0-5.4 1.5-1.5 3.9-1.5 5.4 0 1.6 1.4 1.6 3.9 0 5.4zM740.2 226.2c-1.5 1.5-3.9 1.5-5.4 0-1.5-1.5-1.5-3.9 0-5.4 1.5-1.5 3.9-1.5 5.4 0 1.6 1.4 1.6 3.9 0 5.4z"/>
    <path transform="rotate(-45 737.3961 262.352)" id="svg-concept" class="hard1" d="M721.7 246.6h31.4V278h-31.4z"/>
    <path id="svg-concept" class="hard1" d="M722.5 263.4c-.6.6-1.5.6-2 0-.6-.6-.6-1.5 0-2 .6-.6 1.5-.6 2 0 .6.6.6 1.5 0 2zM726.5 259.4c-.6.6-1.5.6-2 0-.6-.6-.6-1.5 0-2 .6-.6 1.5-.6 2 0 .6.6.6 1.5 0 2zM730.5 255.4c-.6.6-1.5.6-2 0-.6-.6-.6-1.5 0-2 .6-.6 1.5-.6 2 0 .6.6.6 1.5 0 2zM734.5 251.3c-.6.6-1.5.6-2 0-.6-.6-.6-1.5 0-2 .6-.6 1.5-.6 2 0 .6.7.6 1.6 0 2zM738.5 247.3c-.6.6-1.5.6-2 0-.6-.6-.6-1.5 0-2 .6-.6 1.5-.6 2 0 .6.7.6 1.4 0 2zM726.5 267.5c-.6.6-1.5.6-2 0-.6-.6-.6-1.5 0-2 .6-.6 1.5-.6 2 0 .6.5.6 1.4 0 2zM730.5 263.5c-.6.6-1.5.6-2 0-.6-.6-.6-1.5 0-2 .6-.6 1.5-.6 2 0 .6.5.6 1.4 0 2zM734.5 259.4c-.6.6-1.5.6-2 0-.6-.6-.6-1.5 0-2 .6-.6 1.5-.6 2 0 .6.6.6 1.5 0 2zM738.5 255.4c-.6.6-1.5.6-2 0-.6-.6-.6-1.5 0-2 .6-.6 1.5-.6 2 0 .6.6.6 1.5 0 2zM742.7 251.3c-.6.6-1.5.6-2 0-.6-.6-.6-1.5 0-2 .6-.6 1.5-.6 2 0 .4.7.4 1.6 0 2zM730.5 271.5c-.6.6-1.5.6-2 0-.6-.6-.6-1.5 0-2 .6-.6 1.5-.6 2 0 .6.5.6 1.4 0 2zM734.5 267.5c-.6.6-1.5.6-2 0-.6-.6-.6-1.5 0-2 .6-.6 1.5-.6 2 0 .6.5.6 1.4 0 2zM738.7 263.5c-.6.6-1.5.6-2 0-.6-.6-.6-1.5 0-2 .6-.6 1.5-.6 2 0 .4.5.4 1.4 0 2zM742.7 259.5c-.6.6-1.5.6-2 0-.6-.6-.6-1.5 0-2 .6-.6 1.5-.6 2 0 .4.5.4 1.4 0 2zM746.7 255.4c-.6.6-1.5.6-2 0-.6-.6-.6-1.5 0-2 .6-.6 1.5-.6 2 0 .4.6.4 1.5 0 2zM734.7 275.5c-.6.6-1.5.6-2 0-.6-.6-.6-1.5 0-2 .6-.6 1.5-.6 2 0 .4.5.4 1.4 0 2zM738.7 271.5c-.6.6-1.5.6-2 0-.6-.6-.6-1.5 0-2 .6-.6 1.5-.6 2 0 .4.5.4 1.4 0 2zM742.7 267.5c-.6.6-1.5.6-2 0-.6-.6-.6-1.5 0-2 .6-.6 1.5-.6 2 0 .4.5.4 1.4 0 2zM746.7 263.5c-.6.6-1.5.6-2 0-.6-.6-.6-1.5 0-2 .6-.6 1.5-.6 2 0 .4.5.4 1.4 0 2zM750.7 259.5c-.6.6-1.5.6-2 0-.6-.6-.6-1.5 0-2 .6-.6 1.5-.6 2 0 .6.5.6 1.4 0 2zM738.7 279.5c-.6.6-1.5.6-2 0-.6-.6-.6-1.5 0-2 .6-.6 1.5-.6 2 0 .4.6.4 1.4 0 2zM742.7 275.5c-.6.6-1.5.6-2 0-.6-.6-.6-1.5 0-2 .6-.6 1.5-.6 2 0 .4.5.4 1.4 0 2zM746.7 271.5c-.6.6-1.5.6-2 0-.6-.6-.6-1.5 0-2 .6-.6 1.5-.6 2 0 .6.5.6 1.4 0 2zM750.7 267.5c-.6.6-1.5.6-2 0-.6-.6-.6-1.5 0-2 .6-.6 1.5-.6 2 0 .6.5.6 1.4 0 2zM754.7 263.5c-.6.6-1.5.6-2 0-.6-.6-.6-1.5 0-2 .6-.6 1.5-.6 2 0 .6.5.6 1.4 0 2z"/>
  </g>
  <g>
    <path id="svg-concept" transform="rotate(-45 642.4326 167.8662)" class="hard7" d="M591.3 116.7h102.3V219H591.3z"/>
    <path class="hard4" d="M684 170.5c-1.5 1.5-3.9 1.5-5.4 0-1.5-1.5-1.5-3.9 0-5.4 1.5-1.5 3.9-1.5 5.4 0 1.5 1.4 1.5 3.8 0 5.4zM645 209.5c-1.5 1.5-3.9 1.5-5.4 0-1.5-1.5-1.5-3.9 0-5.4 1.5-1.5 3.9-1.5 5.4 0 1.6 1.4 1.6 3.8 0 5.4z"/>
    <path transform="rotate(-45 642.3556 168.0071)" class="hard5" d="M603 128.6h78.7v78.7H603z"/>
    <path class="hard4" d="M606.2 170.5c-1.5 1.5-3.9 1.5-5.4 0-1.5-1.5-1.5-3.9 0-5.4 1.5-1.5 3.9-1.5 5.4 0 1.4 1.5 1.4 4 0 5.4zM645.2 131.5c-1.5 1.5-3.9 1.5-5.4 0-1.5-1.5-1.5-3.9 0-5.4s3.9-1.5 5.4 0c1.4 1.6 1.4 4 0 5.4z"/>
    <g class="hard5">
      <path transform="rotate(-45 642.4007 167.8736)" d="M626.7 152.2h31.4v31.4h-31.4z"/>
      <path d="M627.3 168.8c-.6.6-1.5.6-2 0-.6-.6-.6-1.5 0-2 .6-.6 1.5-.6 2 0 .6.6.6 1.5 0 2zM631.5 164.8c-.6.6-1.5.6-2 0-.6-.6-.6-1.5 0-2 .6-.6 1.5-.6 2 0 .4.5.4 1.4 0 2zM635.5 160.8c-.6.6-1.5.6-2 0-.6-.6-.6-1.5 0-2 .6-.6 1.5-.6 2 0 .4.4.4 1.4 0 2zM639.5 156.8c-.6.6-1.5.6-2 0-.6-.6-.6-1.5 0-2 .6-.6 1.5-.6 2 0 .4.4.4 1.4 0 2zM643.5 152.8c-.6.6-1.5.6-2 0-.6-.6-.6-1.5 0-2 .6-.6 1.5-.6 2 0 .5.4.5 1.4 0 2zM631.5 172.8c-.6.6-1.5.6-2 0-.6-.6-.6-1.5 0-2 .6-.6 1.5-.6 2 0 .4.6.4 1.5 0 2zM635.5 168.8c-.6.6-1.5.6-2 0-.6-.6-.6-1.5 0-2 .6-.6 1.5-.6 2 0 .4.6.4 1.5 0 2zM639.5 164.8c-.6.6-1.5.6-2 0-.6-.6-.6-1.5 0-2 .6-.6 1.5-.6 2 0 .4.6.4 1.5 0 2zM643.5 160.8c-.6.6-1.5.6-2 0-.6-.6-.6-1.5 0-2 .6-.6 1.5-.6 2 0 .6.4.6 1.4 0 2zM647.5 156.8c-.6.6-1.5.6-2 0-.6-.6-.6-1.5 0-2 .6-.6 1.5-.6 2 0 .6.4.6 1.4 0 2zM635.5 177c-.6.6-1.5.6-2 0-.6-.6-.6-1.5 0-2 .6-.6 1.5-.6 2 0 .4.4.4 1.3 0 2zM639.5 172.8c-.6.6-1.5.6-2 0-.6-.6-.6-1.5 0-2 .6-.6 1.5-.6 2 0 .6.6.6 1.5 0 2zM643.5 168.8c-.6.6-1.5.6-2 0-.6-.6-.6-1.5 0-2 .6-.6 1.5-.6 2 0 .6.6.6 1.5 0 2zM647.5 164.8c-.6.6-1.5.6-2 0-.6-.6-.6-1.5 0-2 .6-.6 1.5-.6 2 0 .6.6.6 1.5 0 2zM651.5 160.8c-.6.6-1.5.6-2 0-.6-.6-.6-1.5 0-2 .6-.6 1.5-.6 2 0 .6.6.6 1.5 0 2zM639.5 181c-.6.6-1.5.6-2 0-.6-.6-.6-1.5 0-2 .6-.6 1.5-.6 2 0 .6.4.6 1.3 0 2zM643.5 177c-.6.6-1.5.6-2 0-.6-.6-.6-1.5 0-2 .6-.6 1.5-.6 2 0 .6.4.6 1.3 0 2zM647.5 173c-.6.6-1.5.6-2 0-.6-.6-.6-1.5 0-2 .6-.6 1.5-.6 2 0 .6.4.6 1.3 0 2zM651.5 168.8c-.6.6-1.5.6-2 0-.6-.6-.6-1.5 0-2 .6-.6 1.5-.6 2 0 .6.6.6 1.5 0 2zM655.5 164.8c-.6.6-1.5.6-2 0-.6-.6-.6-1.5 0-2 .6-.6 1.5-.6 2 0 .6.6.6 1.5 0 2zM643.5 185c-.6.6-1.5.6-2 0-.6-.6-.6-1.5 0-2 .6-.6 1.5-.6 2 0 .6.4.6 1.4 0 2zM647.5 181c-.6.6-1.5.6-2 0-.6-.6-.6-1.5 0-2 .6-.6 1.5-.6 2 0 .6.4.6 1.3 0 2zM651.5 177c-.6.6-1.5.6-2 0-.6-.6-.6-1.5 0-2 .6-.6 1.5-.6 2 0 .6.4.6 1.3 0 2zM655.5 173c-.6.6-1.5.6-2 0-.6-.6-.6-1.5 0-2 .6-.6 1.5-.6 2 0 .6.4.6 1.3 0 2zM659.5 168.9c-.6.6-1.5.6-2 0-.6-.6-.6-1.5 0-2 .6-.6 1.5-.6 2 0 .6.5.6 1.4 0 2z"/>
    </g>
    <animateMotion path="M0, -25 0 0" begin="1s" dur="2s" fill="freeze"/>
  </g>
  <g>
    <path transform="rotate(-45 358.2681 73.422)" id="svg-concept" class="hard0" d="M307.1 22.3h102.3v102.3H307.1z"/>
    <path class="hard6" d="M399.8 75.9c-1.5 1.5-3.9 1.5-5.4 0-1.5-1.5-1.5-3.9 0-5.4 1.5-1.5 3.9-1.5 5.4 0 1.4 1.6 1.4 4 0 5.4zM360.9 114.9c-1.5 1.5-3.9 1.5-5.4 0-1.5-1.5-1.5-3.9 0-5.4 1.5-1.5 3.9-1.5 5.4 0 1.5 1.5 1.5 3.8 0 5.4z"/>
    <path transform="rotate(-45 358.1273 73.345)" class="hard5" d="M318.8 34h78.7v78.7h-78.7z"/>
    <path class="hard6" d="M321.9 76.1c-1.5 1.5-3.9 1.5-5.4 0s-1.5-3.9 0-5.4 3.9-1.5 5.4 0c1.5 1.4 1.5 3.8 0 5.4zM360.9 37.1c-1.5 1.5-3.9 1.5-5.4 0-1.5-1.5-1.5-3.9 0-5.4 1.5-1.5 3.9-1.5 5.4 0 1.5 1.4 1.5 3.9 0 5.4z"/>
    <path transform="rotate(-45 358.0637 73.3207)" id="svg-concept" class="hard1" d="M342.4 57.6h31.4V89h-31.4z"/>
    <path id="svg-concept" class="hard1" d="M343.2 74.4c-.6.6-1.5.6-2 0-.6-.6-.6-1.5 0-2 .6-.6 1.5-.6 2 0 .6.4.6 1.4 0 2zM347.2 70.4c-.6.6-1.5.6-2 0-.6-.6-.6-1.5 0-2 .6-.6 1.5-.6 2 0 .6.4.6 1.4 0 2zM351.2 66.2c-.6.6-1.5.6-2 0-.6-.6-.6-1.5 0-2 .6-.6 1.5-.6 2 0 .6.6.6 1.6 0 2zM355.2 62.2c-.6.6-1.5.6-2 0-.6-.6-.6-1.5 0-2 .6-.6 1.5-.6 2 0 .6.6.6 1.6 0 2zM359.2 58.2c-.6.6-1.5.6-2 0-.6-.6-.6-1.5 0-2 .6-.6 1.5-.6 2 0 .6.6.6 1.5 0 2zM347.2 78.4c-.6.6-1.5.6-2 0-.6-.6-.6-1.5 0-2 .6-.6 1.5-.6 2 0 .6.4.6 1.4 0 2zM351.2 74.4c-.6.6-1.5.6-2 0-.6-.6-.6-1.5 0-2 .6-.6 1.5-.6 2 0 .6.4.6 1.4 0 2zM355.3 70.4c-.6.6-1.5.6-2 0-.6-.6-.6-1.5 0-2 .6-.6 1.5-.6 2 0 .5.4.5 1.4 0 2zM359.3 66.4c-.6.6-1.5.6-2 0-.6-.6-.6-1.5 0-2 .6-.6 1.5-.6 2 0 .5.4.5 1.4 0 2zM363.3 62.2c-.6.6-1.5.6-2 0-.6-.6-.6-1.5 0-2 .6-.6 1.5-.6 2 0s.5 1.6 0 2zM351.3 82.4c-.6.6-1.5.6-2 0-.6-.6-.6-1.5 0-2 .6-.6 1.5-.6 2 0 .5.5.5 1.4 0 2zM355.3 78.4c-.6.6-1.5.6-2 0-.6-.6-.6-1.5 0-2 .6-.6 1.5-.6 2 0 .5.4.5 1.4 0 2zM359.3 74.4c-.6.6-1.5.6-2 0-.6-.6-.6-1.5 0-2 .6-.6 1.5-.6 2 0 .5.4.5 1.4 0 2zM363.3 70.4c-.6.6-1.5.6-2 0-.6-.6-.6-1.5 0-2 .6-.6 1.5-.6 2 0 .5.4.5 1.4 0 2zM367.3 66.4c-.6.6-1.5.6-2 0-.6-.6-.6-1.5 0-2 .6-.6 1.5-.6 2 0 .5.4.7 1.4 0 2zM355.3 86.4c-.6.6-1.5.6-2 0-.6-.6-.6-1.5 0-2 .6-.6 1.5-.6 2 0s.5 1.4 0 2zM359.3 82.4c-.6.6-1.5.6-2 0-.6-.6-.6-1.5 0-2 .6-.6 1.5-.6 2 0 .5.5.5 1.4 0 2zM363.3 78.4c-.6.6-1.5.6-2 0-.6-.6-.6-1.5 0-2 .6-.6 1.5-.6 2 0 .7.4.7 1.4 0 2zM367.3 74.4c-.6.6-1.5.6-2 0-.6-.6-.6-1.5 0-2 .6-.6 1.5-.6 2 0 .7.4.7 1.4 0 2zM371.3 70.4c-.6.6-1.5.6-2 0-.6-.6-.6-1.5 0-2 .6-.6 1.5-.6 2 0 .7.4.7 1.4 0 2zM359.3 90.4c-.6.6-1.5.6-2 0-.6-.6-.6-1.5 0-2 .6-.6 1.5-.6 2 0 .6.6.6 1.5 0 2zM363.3 86.4c-.6.6-1.5.6-2 0-.6-.6-.6-1.5 0-2 .6-.6 1.5-.6 2 0 .7.6.7 1.5 0 2zM367.3 82.4c-.6.6-1.5.6-2 0-.6-.6-.6-1.5 0-2 .6-.6 1.5-.6 2 0 .7.6.7 1.4 0 2zM371.3 78.4c-.6.6-1.5.6-2 0-.6-.6-.6-1.5 0-2 .6-.6 1.5-.6 2 0 .7.4.7 1.4 0 2zM375.4 74.4c-.6.6-1.5.6-2 0-.6-.6-.6-1.5 0-2 .6-.6 1.5-.6 2 0 .6.4.6 1.4 0 2z"/>
  </g>
  <g>
    <path id="svg-concept" transform="rotate(-45 547.8176 73.382)" class="hard7" d="M496.7 22.2H599v102.3H496.7z"/>
    <path class="hard4" d="M589.4 75.9c-1.5 1.5-3.9 1.5-5.4 0-1.5-1.5-1.5-3.9 0-5.4 1.5-1.5 3.9-1.5 5.4 0s1.6 4 0 5.4zM550.5 114.9c-1.5 1.5-3.9 1.5-5.4 0s-1.5-3.9 0-5.4c1.5-1.5 3.9-1.5 5.4 0 1.5 1.5 1.5 3.8 0 5.4z"/>
    <path transform="rotate(-45 547.7858 73.4137)" class="hard5" d="M508.4 34.1h78.7v78.7h-78.7z"/>
    <path class="hard4" d="M511.7 76.1c-1.5 1.5-3.9 1.5-5.4 0s-1.5-3.9 0-5.4 3.9-1.5 5.4 0c1.5 1.4 1.5 3.8 0 5.4zM550.6 37.1c-1.5 1.5-3.9 1.5-5.4 0s-1.5-3.9 0-5.4c1.5-1.5 3.9-1.5 5.4 0 1.4 1.4 1.4 3.9 0 5.4z"/>
    <g class="hard5">
      <path transform="rotate(-45 547.831 73.2802)" d="M532.1 57.6h31.4V89h-31.4z"/>
      <path d="M532.9 74.4c-.6.6-1.5.6-2 0-.6-.6-.6-1.5 0-2 .6-.6 1.5-.6 2 0 .5.4.5 1.4 0 2zM536.9 70.4c-.6.6-1.5.6-2 0-.6-.6-.6-1.5 0-2 .6-.6 1.5-.6 2 0 .5.4.5 1.4 0 2zM540.9 66.2c-.6.6-1.5.6-2 0-.6-.6-.6-1.5 0-2 .6-.6 1.5-.6 2 0s.5 1.6 0 2zM544.9 62.2c-.6.6-1.5.6-2 0-.6-.6-.6-1.5 0-2 .6-.6 1.5-.6 2 0s.6 1.6 0 2zM548.9 58.2c-.6.6-1.5.6-2 0-.6-.6-.6-1.5 0-2 .6-.6 1.5-.6 2 0 .6.6.6 1.5 0 2zM536.9 78.4c-.6.6-1.5.6-2 0-.6-.6-.6-1.5 0-2 .6-.6 1.5-.6 2 0 .5.4.5 1.4 0 2zM540.9 74.4c-.6.6-1.5.6-2 0-.6-.6-.6-1.5 0-2 .6-.6 1.5-.6 2 0 .6.4.6 1.4 0 2zM544.9 70.4c-.6.6-1.5.6-2 0-.6-.6-.6-1.5 0-2 .6-.6 1.5-.6 2 0 .6.4.6 1.4 0 2zM548.9 66.4c-.6.6-1.5.6-2 0-.6-.6-.6-1.5 0-2 .6-.6 1.5-.6 2 0 .6.4.6 1.4 0 2zM552.9 62.2c-.6.6-1.5.6-2 0-.6-.6-.6-1.5 0-2 .6-.6 1.5-.6 2 0 .6.6.6 1.6 0 2zM540.9 82.4c-.6.6-1.5.6-2 0-.6-.6-.6-1.5 0-2 .6-.6 1.5-.6 2 0 .6.5.6 1.4 0 2zM544.9 78.4c-.6.6-1.5.6-2 0-.6-.6-.6-1.5 0-2 .6-.6 1.5-.6 2 0 .6.4.6 1.4 0 2zM548.9 74.4c-.6.6-1.5.6-2 0-.6-.6-.6-1.5 0-2 .6-.6 1.5-.6 2 0 .6.4.6 1.4 0 2zM552.9 70.4c-.6.6-1.5.6-2 0-.6-.6-.6-1.5 0-2 .6-.6 1.5-.6 2 0 .6.4.6 1.4 0 2zM556.9 66.4c-.6.6-1.5.6-2 0-.6-.6-.6-1.5 0-2 .6-.6 1.5-.6 2 0 .7.4.7 1.4 0 2zM544.9 86.4c-.6.6-1.5.6-2 0-.6-.6-.6-1.5 0-2 .6-.6 1.5-.6 2 0 .6.6.6 1.4 0 2zM548.9 82.4c-.6.6-1.5.6-2 0-.6-.6-.6-1.5 0-2 .6-.6 1.5-.6 2 0 .6.5.6 1.4 0 2zM552.9 78.4c-.6.6-1.5.6-2 0-.6-.6-.6-1.5 0-2 .6-.6 1.5-.6 2 0 .6.4.6 1.4 0 2zM556.9 74.4c-.6.6-1.5.6-2 0-.6-.6-.6-1.5 0-2 .6-.6 1.5-.6 2 0 .7.4.7 1.4 0 2zM560.9 70.4c-.6.6-1.5.6-2 0-.6-.6-.6-1.5 0-2 .6-.6 1.5-.6 2 0 .7.4.7 1.4 0 2zM548.9 90.4c-.6.6-1.5.6-2 0-.6-.6-.6-1.5 0-2 .6-.6 1.5-.6 2 0 .6.6.6 1.5 0 2zM552.9 86.4c-.6.6-1.5.6-2 0-.6-.6-.6-1.5 0-2 .6-.6 1.5-.6 2 0 .6.6.6 1.5 0 2zM556.9 82.4c-.6.6-1.5.6-2 0-.6-.6-.6-1.5 0-2 .6-.6 1.5-.6 2 0 .7.6.7 1.4 0 2zM561.1 78.4c-.6.6-1.5.6-2 0-.6-.6-.6-1.5 0-2 .6-.6 1.5-.6 2 0 .5.4.5 1.4 0 2zM565.1 74.4c-.6.6-1.5.6-2 0-.6-.6-.6-1.5 0-2 .6-.6 1.5-.6 2 0 .5.4.5 1.4 0 2z"/>
    </g>
  </g>
  <g>
    <path id="svg-concept" transform="rotate(-45 452.6654 167.9065)" class="hard7" d="M401.5 116.8h102.3v102.3H401.5z"/>
    <path class="hard4" d="M494.4 170.5c-1.5 1.5-3.9 1.5-5.4 0-1.5-1.5-1.5-3.9 0-5.4 1.5-1.5 3.9-1.5 5.4 0 1.4 1.4 1.4 3.8 0 5.4zM455.4 209.5c-1.5 1.5-3.9 1.5-5.4 0-1.5-1.5-1.5-3.9 0-5.4 1.5-1.5 3.9-1.5 5.4 0 1.4 1.4 1.6 3.8 0 5.4z"/>
    <path transform="rotate(-45 452.6972 167.9385)" class="hard5" d="M413.3 128.6H492v78.7h-78.7z"/>
    <path class="hard4" d="M416.5 170.5c-1.5 1.5-3.9 1.5-5.4 0-1.5-1.5-1.5-3.9 0-5.4 1.5-1.5 3.9-1.5 5.4 0 1.5 1.5 1.5 4 0 5.4zM455.4 131.5c-1.5 1.5-3.9 1.5-5.4 0-1.5-1.5-1.5-3.9 0-5.4s3.9-1.5 5.4 0 1.6 4 0 5.4z"/>
    <g class="hard5">
      <path transform="rotate(-45 452.8513 167.8502)" d="M437.1 152.1h31.4v31.4h-31.4z"/>
      <path d="M437.7 168.8c-.6.6-1.5.6-2 0-.6-.6-.6-1.5 0-2 .6-.6 1.5-.6 2 0 .6.6.6 1.5 0 2zM441.7 164.8c-.6.6-1.5.6-2 0-.6-.6-.6-1.5 0-2 .6-.6 1.5-.6 2 0 .6.5.6 1.4 0 2zM445.7 160.8c-.6.6-1.5.6-2 0-.6-.6-.6-1.5 0-2 .6-.6 1.5-.6 2 0 .7.4.7 1.4 0 2zM449.7 156.8c-.6.6-1.5.6-2 0-.6-.6-.6-1.5 0-2 .6-.6 1.5-.6 2 0 .7.4.7 1.4 0 2zM453.7 152.8c-.6.6-1.5.6-2 0-.6-.6-.6-1.5 0-2 .6-.6 1.5-.6 2 0 .7.4.7 1.4 0 2zM441.7 172.8c-.6.6-1.5.6-2 0-.6-.6-.6-1.5 0-2 .6-.6 1.5-.6 2 0 .6.6.6 1.5 0 2zM445.7 168.8c-.6.6-1.5.6-2 0-.6-.6-.6-1.5 0-2 .6-.6 1.5-.6 2 0 .7.6.7 1.5 0 2zM449.7 164.8c-.6.6-1.5.6-2 0-.6-.6-.6-1.5 0-2 .6-.6 1.5-.6 2 0 .7.6.7 1.5 0 2zM453.7 160.8c-.6.6-1.5.6-2 0-.6-.6-.6-1.5 0-2 .6-.6 1.5-.6 2 0 .7.4.7 1.4 0 2zM457.9 156.8c-.6.6-1.5.6-2 0-.6-.6-.6-1.5 0-2 .6-.6 1.5-.6 2 0 .5.4.5 1.4 0 2zM445.7 177c-.6.6-1.5.6-2 0-.6-.6-.6-1.5 0-2 .6-.6 1.5-.6 2 0 .7.4.7 1.3 0 2zM449.7 172.8c-.6.6-1.5.6-2 0-.6-.6-.6-1.5 0-2 .6-.6 1.5-.6 2 0 .7.6.7 1.5 0 2zM453.9 168.8c-.6.6-1.5.6-2 0-.6-.6-.6-1.5 0-2 .6-.6 1.5-.6 2 0s.5 1.5 0 2zM457.9 164.8c-.6.6-1.5.6-2 0-.6-.6-.6-1.5 0-2 .6-.6 1.5-.6 2 0s.5 1.5 0 2zM461.9 160.8c-.6.6-1.5.6-2 0-.6-.6-.6-1.5 0-2 .6-.6 1.5-.6 2 0s.5 1.5 0 2zM449.9 181c-.6.6-1.5.6-2 0-.6-.6-.6-1.5 0-2 .6-.6 1.5-.6 2 0 .5.4.5 1.3 0 2zM453.9 177c-.6.6-1.5.6-2 0-.6-.6-.6-1.5 0-2 .6-.6 1.5-.6 2 0 .5.4.5 1.3 0 2zM457.9 173c-.6.6-1.5.6-2 0-.6-.6-.6-1.5 0-2 .6-.6 1.5-.6 2 0 .5.4.5 1.3 0 2zM461.9 168.8c-.6.6-1.5.6-2 0-.6-.6-.6-1.5 0-2 .6-.6 1.5-.6 2 0s.5 1.5 0 2zM465.9 164.8c-.6.6-1.5.6-2 0-.6-.6-.6-1.5 0-2 .6-.6 1.5-.6 2 0 .6.6.6 1.5 0 2zM453.9 185c-.6.6-1.5.6-2 0-.6-.6-.6-1.5 0-2 .6-.6 1.5-.6 2 0 .5.4.5 1.4 0 2zM457.9 181c-.6.6-1.5.6-2 0-.6-.6-.6-1.5 0-2 .6-.6 1.5-.6 2 0 .5.4.6 1.3 0 2zM461.9 177c-.6.6-1.5.6-2 0-.6-.6-.6-1.5 0-2 .6-.6 1.5-.6 2 0 .6.4.6 1.3 0 2zM465.9 173c-.6.6-1.5.6-2 0-.6-.6-.6-1.5 0-2 .6-.6 1.5-.6 2 0 .6.4.6 1.3 0 2zM469.9 168.9c-.6.6-1.5.6-2 0-.6-.6-.6-1.5 0-2 .6-.6 1.5-.6 2 0 .6.5.6 1.4 0 2z"/>
    </g>
    <animateMotion path="M0, 25 0 0" begin="1s" dur="2s" fill="freeze"/>
  </g>
  <g>
    <path id="svg-concept" transform="rotate(-45 168.501 73.4624)" class="hard7" d="M117.4 22.3h102.3v102.3H117.4z"/>
    <path class="hard4" d="M210.1 75.9c-1.5 1.5-3.9 1.5-5.4 0s-1.5-3.9 0-5.4 3.9-1.5 5.4 0c1.5 1.6 1.5 4 0 5.4zM171.3 114.9c-1.5 1.5-3.9 1.5-5.4 0-1.5-1.5-1.5-3.9 0-5.4 1.5-1.5 3.9-1.5 5.4 0 1.4 1.5 1.4 3.8 0 5.4z"/>
    <path transform="rotate(-45 168.578 73.3216)" class="hard5" d="M129.2 34h78.7v78.7h-78.7z"/>
    <path class="hard4" d="M132.3 76.1c-1.5 1.5-3.9 1.5-5.4 0s-1.5-3.9 0-5.4 3.9-1.5 5.4 0c1.6 1.4 1.6 3.8 0 5.4zM171.3 37.1c-1.5 1.5-3.9 1.5-5.4 0-1.5-1.5-1.5-3.9 0-5.4 1.5-1.5 3.9-1.5 5.4 0 1.5 1.4 1.5 3.9 0 5.4z"/>
    <g class="hard5">
      <path transform="rotate(-45 168.5145 73.2971)" d="M152.8 57.6h31.4V89h-31.4z"/>
      <path d="M153.6 74.4c-.6.6-1.5.6-2 0-.6-.6-.6-1.5 0-2 .6-.6 1.5-.6 2 0 .4.4.4 1.4 0 2zM157.6 70.4c-.6.6-1.5.6-2 0-.6-.6-.6-1.5 0-2 .6-.6 1.5-.6 2 0 .4.4.6 1.4 0 2zM161.6 66.2c-.6.6-1.5.6-2 0-.6-.6-.6-1.5 0-2 .6-.6 1.5-.6 2 0 .6.6.6 1.6 0 2zM165.6 62.2c-.6.6-1.5.6-2 0-.6-.6-.6-1.5 0-2 .6-.6 1.5-.6 2 0 .6.6.6 1.6 0 2zM169.6 58.2c-.6.6-1.5.6-2 0-.6-.6-.6-1.5 0-2 .6-.6 1.5-.6 2 0 .6.6.6 1.5 0 2zM157.6 78.4c-.6.6-1.5.6-2 0-.6-.6-.6-1.5 0-2 .6-.6 1.5-.6 2 0 .6.4.6 1.4 0 2zM161.6 74.4c-.6.6-1.5.6-2 0-.6-.6-.6-1.5 0-2 .6-.6 1.5-.6 2 0 .6.4.6 1.4 0 2zM165.6 70.4c-.6.6-1.5.6-2 0-.6-.6-.6-1.5 0-2 .6-.6 1.5-.6 2 0 .6.4.6 1.4 0 2zM169.6 66.4c-.6.6-1.5.6-2 0-.6-.6-.6-1.5 0-2 .6-.6 1.5-.6 2 0 .6.4.6 1.4 0 2zM173.6 62.2c-.6.6-1.5.6-2 0-.6-.6-.6-1.5 0-2 .6-.6 1.5-.6 2 0 .6.6.6 1.6 0 2zM161.6 82.4c-.6.6-1.5.6-2 0-.6-.6-.6-1.5 0-2 .6-.6 1.5-.6 2 0 .6.5.6 1.4 0 2zM165.6 78.4c-.6.6-1.5.6-2 0-.6-.6-.6-1.5 0-2 .6-.6 1.5-.6 2 0 .6.4.6 1.4 0 2zM169.6 74.4c-.6.6-1.5.6-2 0-.6-.6-.6-1.5 0-2 .6-.6 1.5-.6 2 0 .6.4.6 1.4 0 2zM173.6 70.4c-.6.6-1.5.6-2 0-.6-.6-.6-1.5 0-2 .6-.6 1.5-.6 2 0 .6.4.6 1.4 0 2zM177.6 66.4c-.6.6-1.5.6-2 0-.6-.6-.6-1.5 0-2 .6-.6 1.5-.6 2 0 .6.4.6 1.4 0 2zM165.6 86.4c-.6.6-1.5.6-2 0-.6-.6-.6-1.5 0-2 .6-.6 1.5-.6 2 0 .6.6.6 1.4 0 2zM169.6 82.4c-.6.6-1.5.6-2 0-.6-.6-.6-1.5 0-2 .6-.6 1.5-.6 2 0 .6.5.6 1.4 0 2zM173.6 78.4c-.6.6-1.5.6-2 0-.6-.6-.6-1.5 0-2 .6-.6 1.5-.6 2 0 .6.4.6 1.4 0 2zM177.7 74.4c-.6.6-1.5.6-2 0-.6-.6-.6-1.5 0-2 .6-.6 1.5-.6 2 0 .5.4.5 1.4 0 2zM181.8 70.4c-.6.6-1.5.6-2 0-.6-.6-.6-1.5 0-2 .6-.6 1.5-.6 2 0 .4.4.4 1.4 0 2zM169.6 90.4c-.6.6-1.5.6-2 0-.6-.6-.6-1.5 0-2 .6-.6 1.5-.6 2 0 .6.6.6 1.5 0 2zM173.7 86.4c-.6.6-1.5.6-2 0-.6-.6-.6-1.5 0-2 .6-.6 1.5-.6 2 0s.5 1.5 0 2zM177.7 82.4c-.6.6-1.5.6-2 0-.6-.6-.6-1.5 0-2 .6-.6 1.5-.6 2 0s.5 1.4 0 2zM181.8 78.4c-.6.6-1.5.6-2 0-.6-.6-.6-1.5 0-2 .6-.6 1.5-.6 2 0 .4.4.4 1.4 0 2zM185.8 74.4c-.6.6-1.5.6-2 0-.6-.6-.6-1.5 0-2 .6-.6 1.5-.6 2 0 .4.4.4 1.4 0 2z"/>
    </g>
  </g>
  <g>
    <path id="svg-concept" transform="rotate(-45 73.4576 167.8145)" class="hard7" d="M22.3 116.7h102.3V219H22.3z"/>
    <path class="hard4" d="M115.1 170.5c-1.5 1.5-3.9 1.5-5.4 0-1.5-1.5-1.5-3.9 0-5.4 1.5-1.5 3.9-1.5 5.4 0 1.4 1.4 1.5 3.8 0 5.4zM76.1 209.5c-1.5 1.5-3.9 1.5-5.4 0-1.5-1.5-1.5-3.9 0-5.4 1.5-1.5 3.9-1.5 5.4 0 1.5 1.4 1.5 3.8 0 5.4z"/>
    <path transform="rotate(-45 73.3806 167.9553)" class="hard5" d="M34 128.6h78.7v78.7H34z"/>
    <path class="hard4" d="M37.3 170.5c-1.5 1.5-3.9 1.5-5.4 0-1.5-1.5-1.5-3.9 0-5.4 1.5-1.5 3.9-1.5 5.4 0 1.4 1.5 1.4 4 0 5.4zM76.1 131.5c-1.5 1.5-3.9 1.5-5.4 0-1.5-1.5-1.5-3.9 0-5.4s3.9-1.5 5.4 0c1.5 1.6 1.5 4 0 5.4z"/>
    <g class="hard5">
      <path transform="rotate(-45 73.317 167.9307)" d="M57.6 152.2H89v31.4H57.6z"/>
      <path d="M58.4 168.8c-.6.6-1.5.6-2 0-.6-.6-.6-1.5 0-2 .6-.6 1.5-.6 2 0 .6.6.6 1.5 0 2zM62.4 164.8c-.6.6-1.5.6-2 0-.6-.6-.6-1.5 0-2 .6-.6 1.5-.6 2 0 .6.5.6 1.4 0 2zM66.4 160.8c-.6.6-1.5.6-2 0-.6-.6-.6-1.5 0-2 .6-.6 1.5-.6 2 0 .6.4.6 1.4 0 2zM70.4 156.8c-.6.6-1.5.6-2 0-.6-.6-.6-1.5 0-2 .6-.6 1.5-.6 2 0 .6.4.6 1.4 0 2zM74.6 152.8c-.6.6-1.5.6-2 0-.6-.6-.6-1.5 0-2 .6-.6 1.5-.6 2 0 .4.4.4 1.4 0 2zM62.4 172.8c-.6.6-1.5.6-2 0-.6-.6-.6-1.5 0-2 .6-.6 1.5-.6 2 0 .6.6.6 1.5 0 2zM66.4 168.8c-.6.6-1.5.6-2 0-.6-.6-.6-1.5 0-2 .6-.6 1.5-.6 2 0 .6.6.6 1.5 0 2zM70.6 164.8c-.6.6-1.5.6-2 0-.6-.6-.6-1.5 0-2 .6-.6 1.5-.6 2 0 .4.6.4 1.5 0 2zM74.6 160.8c-.6.6-1.5.6-2 0-.6-.6-.6-1.5 0-2 .6-.6 1.5-.6 2 0 .4.4.4 1.4 0 2zM78.6 156.8c-.6.6-1.5.6-2 0-.6-.6-.6-1.5 0-2 .6-.6 1.5-.6 2 0 .4.4.4 1.4 0 2zM66.5 177c-.6.6-1.5.6-2 0-.6-.6-.6-1.5 0-2 .6-.6 1.5-.6 2 0 .5.4.5 1.3 0 2zM70.6 172.8c-.6.6-1.5.6-2 0-.6-.6-.6-1.5 0-2 .6-.6 1.5-.6 2 0 .4.6.4 1.5 0 2zM74.6 168.8c-.6.6-1.5.6-2 0-.6-.6-.6-1.5 0-2 .6-.6 1.5-.6 2 0s.4 1.5 0 2zM78.6 164.8c-.6.6-1.5.6-2 0-.6-.6-.6-1.5 0-2 .6-.6 1.5-.6 2 0 .4.6.4 1.5 0 2zM82.6 160.8c-.6.6-1.5.6-2 0-.6-.6-.6-1.5 0-2 .6-.6 1.5-.6 2 0 .6.6.6 1.5 0 2zM70.6 181c-.6.6-1.5.6-2 0-.6-.6-.6-1.5 0-2 .6-.6 1.5-.6 2 0 .4.4.4 1.3 0 2zM74.6 177c-.6.6-1.5.6-2 0-.6-.6-.6-1.5 0-2 .6-.6 1.5-.6 2 0 .4.4.4 1.3 0 2z"/>
      <path class="hard5" d="M78.6 173c-.6.6-1.5.6-2 0-.6-.6-.6-1.5 0-2 .6-.6 1.5-.6 2 0 .6.4.6 1.3 0 2z"/>
      <path d="M82.6 168.8c-.6.6-1.5.6-2 0-.6-.6-.6-1.5 0-2 .6-.6 1.5-.6 2 0 .6.6.6 1.5 0 2zM86.6 164.8c-.6.6-1.5.6-2 0-.6-.6-.6-1.5 0-2 .6-.6 1.5-.6 2 0 .6.6.6 1.5 0 2zM74.6 185c-.6.6-1.5.6-2 0-.6-.6-.6-1.5 0-2 .6-.6 1.5-.6 2 0 .6.4.6 1.4 0 2zM78.6 181c-.6.6-1.5.6-2 0-.6-.6-.6-1.5 0-2 .6-.6 1.5-.6 2 0 .6.4.6 1.3 0 2zM82.6 177c-.6.6-1.5.6-2 0-.6-.6-.6-1.5 0-2 .6-.6 1.5-.6 2 0 .6.4.6 1.3 0 2zM86.6 173c-.6.6-1.5.6-2 0-.6-.6-.6-1.5 0-2 .6-.6 1.5-.6 2 0 .6.4.6 1.3 0 2zM90.6 168.9c-.6.6-1.5.6-2 0-.6-.6-.6-1.5 0-2 .6-.6 1.5-.6 2 0 .6.5.6 1.4 0 2z"/>
    </g>
  </g>
  <g>
    <path id="svg-concept" transform="rotate(-45 927.1498 262.4771)" class="hard7" d="M876 211.3h102.3v102.3H876z"/>
    <path class="hard4" d="M968.8 265.1c-1.5 1.5-3.9 1.5-5.4 0-1.5-1.5-1.5-3.9 0-5.4 1.5-1.5 3.9-1.5 5.4 0 1.5 1.5 1.5 3.8 0 5.4zM929.8 304c-1.5 1.5-3.9 1.5-5.4 0-1.5-1.5-1.5-3.9 0-5.4 1.5-1.5 3.9-1.5 5.4 0 1.5 1.6 1.5 3.9 0 5.4z"/>
    <path transform="rotate(-45 927.118 262.509)" class="hard5" d="M887.8 223.1h78.7v78.7h-78.7z"/>
    <path class="hard4" d="M891 265.2c-1.5 1.5-3.9 1.5-5.4 0-1.5-1.5-1.5-3.9 0-5.4 1.5-1.5 3.9-1.5 5.4 0 1.4 1.4 1.4 3.9 0 5.4zM930 226.2c-1.5 1.5-3.9 1.5-5.4 0-1.5-1.5-1.5-3.9 0-5.4 1.5-1.5 3.9-1.5 5.4 0 1.3 1.4 1.3 3.9 0 5.4z"/>
    <g class="hard5">
      <path transform="rotate(-45 927.0545 262.4844)" d="M911.3 246.8h31.4v31.4h-31.4z"/>
      <path d="M912.1 263.4c-.6.6-1.5.6-2 0-.6-.6-.6-1.5 0-2 .6-.6 1.5-.6 2 0 .6.6.6 1.5 0 2zM916.3 259.4c-.6.6-1.5.6-2 0-.6-.6-.6-1.5 0-2 .6-.6 1.5-.6 2 0 .4.6.4 1.5 0 2zM920.3 255.4c-.6.6-1.5.6-2 0-.6-.6-.6-1.5 0-2 .6-.6 1.5-.6 2 0 .4.6.4 1.5 0 2zM924.3 251.3c-.6.6-1.5.6-2 0-.6-.6-.6-1.5 0-2 .6-.6 1.5-.6 2 0 .4.7.4 1.6 0 2zM928.3 247.3c-.6.6-1.5.6-2 0-.6-.6-.6-1.5 0-2 .6-.6 1.5-.6 2 0 .4.7.4 1.4 0 2zM916.3 267.5c-.6.6-1.5.6-2 0-.6-.6-.6-1.5 0-2 .6-.6 1.5-.6 2 0 .4.5.4 1.4 0 2zM920.3 263.5c-.6.6-1.5.6-2 0-.6-.6-.6-1.5 0-2 .6-.6 1.5-.6 2 0 .4.5.4 1.4 0 2zM924.3 259.4c-.6.6-1.5.6-2 0-.6-.6-.6-1.5 0-2 .6-.6 1.5-.6 2 0s.4 1.5 0 2zM928.3 255.4c-.6.6-1.5.6-2 0-.6-.6-.6-1.5 0-2 .6-.6 1.5-.6 2 0 .6.6.6 1.5 0 2zM932.3 251.3c-.6.6-1.5.6-2 0-.6-.6-.6-1.5 0-2 .6-.6 1.5-.6 2 0 .6.7.6 1.6 0 2zM920.3 271.5c-.6.6-1.5.6-2 0-.6-.6-.6-1.5 0-2 .6-.6 1.5-.6 2 0 .4.5.4 1.4 0 2zM924.3 267.5c-.6.6-1.5.6-2 0-.6-.6-.6-1.5 0-2 .6-.6 1.5-.6 2 0 .6.5.6 1.4 0 2zM928.3 263.5c-.6.6-1.5.6-2 0-.6-.6-.6-1.5 0-2 .6-.6 1.5-.6 2 0 .6.5.6 1.4 0 2zM932.3 259.5c-.6.6-1.5.6-2 0-.6-.6-.6-1.5 0-2 .6-.6 1.5-.6 2 0 .6.5.6 1.4 0 2zM936.3 255.4c-.6.6-1.5.6-2 0-.6-.6-.6-1.5 0-2 .6-.6 1.5-.6 2 0 .6.6.6 1.5 0 2zM924.3 275.5c-.6.6-1.5.6-2 0-.6-.6-.6-1.5 0-2 .6-.6 1.5-.6 2 0 .6.5.6 1.4 0 2zM928.3 271.5c-.6.6-1.5.6-2 0-.6-.6-.6-1.5 0-2 .6-.6 1.5-.6 2 0 .6.5.6 1.4 0 2zM932.3 267.5c-.6.6-1.5.6-2 0-.6-.6-.6-1.5 0-2 .6-.6 1.5-.6 2 0 .6.5.6 1.4 0 2zM936.3 263.5c-.6.6-1.5.6-2 0-.6-.6-.6-1.5 0-2 .6-.6 1.5-.6 2 0 .6.5.6 1.4 0 2zM940.3 259.5c-.6.6-1.5.6-2 0-.6-.6-.6-1.5 0-2 .6-.6 1.5-.6 2 0 .6.5.6 1.4 0 2zM928.3 279.5c-.6.6-1.5.6-2 0-.6-.6-.6-1.5 0-2 .6-.6 1.5-.6 2 0 .6.6.6 1.4 0 2zM932.3 275.5c-.6.6-1.5.6-2 0-.6-.6-.6-1.5 0-2 .6-.6 1.5-.6 2 0 .6.5.6 1.4 0 2zM936.3 271.5c-.6.6-1.5.6-2 0-.6-.6-.6-1.5 0-2 .6-.6 1.5-.6 2 0 .6.5.6 1.4 0 2zM940.3 267.5c-.6.6-1.5.6-2 0-.6-.6-.6-1.5 0-2 .6-.6 1.5-.6 2 0 .6.5.6 1.4 0 2zM944.3 263.5c-.6.6-1.5.6-2 0-.6-.6-.6-1.5 0-2 .6-.6 1.5-.6 2 0 .6.5.6 1.4 0 2z"/>
    </g>
  </g>
  <g>
    <path id="svg-concept" transform="rotate(-45 1021.7491 167.8494)" class="hard7" d="M970.6 116.7h102.3V219H970.6z"/>
    <path class="hard4" d="M1063.3 170.5c-1.5 1.5-3.9 1.5-5.4 0-1.5-1.5-1.5-3.9 0-5.4 1.5-1.5 3.9-1.5 5.4 0 1.6 1.4 1.6 3.8 0 5.4zM1024.4 209.5c-1.5 1.5-3.9 1.5-5.4 0-1.5-1.5-1.5-3.9 0-5.4 1.5-1.5 3.9-1.5 5.4 0 1.5 1.4 1.5 3.8 0 5.4z"/>
    <path transform="rotate(-45 1021.672 167.9903)" class="hard5" d="M982.3 128.6h78.7v78.7h-78.7z"/>
    <path class="hard4" d="M985.6 170.5c-1.5 1.5-3.9 1.5-5.4 0-1.5-1.5-1.5-3.9 0-5.4 1.5-1.5 3.9-1.5 5.4 0 1.3 1.5 1.3 4 0 5.4zM1024.4 131.5c-1.5 1.5-3.9 1.5-5.4 0-1.5-1.5-1.5-3.9 0-5.4 1.5-1.5 3.9-1.5 5.4 0s1.5 4 0 5.4z"/>
    <g class="hard5">
      <path transform="rotate(-45 1021.7175 167.8567)" d="M1006 152.1h31.4v31.4H1006z"/>
      <path d="M1006.7 168.8c-.6.6-1.5.6-2 0-.6-.6-.6-1.5 0-2 .6-.6 1.5-.6 2 0 .6.6.6 1.5 0 2zM1010.7 164.8c-.6.6-1.5.6-2 0-.6-.6-.6-1.5 0-2 .6-.6 1.5-.6 2 0 .6.5.6 1.4 0 2zM1014.7 160.8c-.6.6-1.5.6-2 0-.6-.6-.6-1.5 0-2 .6-.6 1.5-.6 2 0 .6.4.6 1.4 0 2zM1018.8 156.8c-.6.6-1.5.6-2 0-.6-.6-.6-1.5 0-2 .6-.6 1.5-.6 2 0 .5.4.5 1.4 0 2zM1022.8 152.8c-.6.6-1.5.6-2 0-.6-.6-.6-1.5 0-2 .6-.6 1.5-.6 2 0 .5.4.5 1.4 0 2zM1010.7 172.8c-.6.6-1.5.6-2 0-.6-.6-.6-1.5 0-2 .6-.6 1.5-.6 2 0 .6.6.6 1.5 0 2zM1014.8 168.8c-.6.6-1.5.6-2 0-.6-.6-.6-1.5 0-2 .6-.6 1.5-.6 2 0s.5 1.5 0 2zM1018.8 164.8c-.6.6-1.5.6-2 0-.6-.6-.6-1.5 0-2 .6-.6 1.5-.6 2 0s.5 1.5 0 2zM1022.8 160.8c-.6.6-1.5.6-2 0-.6-.6-.6-1.5 0-2 .6-.6 1.5-.6 2 0 .5.4.5 1.4 0 2zM1026.8 156.8c-.6.6-1.5.6-2 0-.6-.6-.6-1.5 0-2 .6-.6 1.5-.6 2 0 .5.4.5 1.4 0 2zM1014.8 177c-.6.6-1.5.6-2 0-.6-.6-.6-1.5 0-2 .6-.6 1.5-.6 2 0 .5.4.5 1.3 0 2zM1018.8 172.8c-.6.6-1.5.6-2 0-.6-.6-.6-1.5 0-2 .6-.6 1.5-.6 2 0s.5 1.5 0 2zM1022.8 168.8c-.6.6-1.5.6-2 0-.6-.6-.6-1.5 0-2 .6-.6 1.5-.6 2 0s.6 1.5 0 2zM1026.8 164.8c-.6.6-1.5.6-2 0-.6-.6-.6-1.5 0-2 .6-.6 1.5-.6 2 0 .7.6.7 1.5 0 2zM1030.8 160.8c-.6.6-1.5.6-2 0-.6-.6-.6-1.5 0-2 .6-.6 1.5-.6 2 0 .7.6.7 1.5 0 2zM1018.8 181c-.6.6-1.5.6-2 0-.6-.6-.6-1.5 0-2 .6-.6 1.5-.6 2 0 .5.4.6 1.3 0 2zM1022.8 177c-.6.6-1.5.6-2 0-.6-.6-.6-1.5 0-2 .6-.6 1.5-.6 2 0 .6.4.6 1.3 0 2zM1026.8 173c-.6.6-1.5.6-2 0-.6-.6-.6-1.5 0-2 .6-.6 1.5-.6 2 0 .7.4.7 1.3 0 2zM1030.8 168.8c-.6.6-1.5.6-2 0-.6-.6-.6-1.5 0-2 .6-.6 1.5-.6 2 0 .7.6.7 1.5 0 2zM1034.8 164.8c-.6.6-1.5.6-2 0-.6-.6-.6-1.5 0-2 .6-.6 1.5-.6 2 0 .7.6.7 1.5 0 2zM1022.8 185c-.6.6-1.5.6-2 0-.6-.6-.6-1.5 0-2 .6-.6 1.5-.6 2 0 .6.4.6 1.4 0 2zM1026.8 181c-.6.6-1.5.6-2 0-.6-.6-.6-1.5 0-2 .6-.6 1.5-.6 2 0 .7.4.7 1.3 0 2zM1030.8 177c-.6.6-1.5.6-2 0-.6-.6-.6-1.5 0-2 .6-.6 1.5-.6 2 0 .7.4.7 1.3 0 2zM1034.8 173c-.6.6-1.5.6-2 0-.6-.6-.6-1.5 0-2 .6-.6 1.5-.6 2 0 .7.4.7 1.3 0 2zM1038.8 168.9c-.6.6-1.5.6-2 0-.6-.6-.6-1.5 0-2 .6-.6 1.5-.6 2 0 .7.5.7 1.4 0 2z"/>
    </g>
  </g>
  <g>
    <path transform="rotate(-45 737.4759 73.5142)" id="svg-concept" class="hard0" d="M686.3 22.4h102.3v102.3H686.3z"/>
    <path class="hard4" d="M779.2 75.9c-1.5 1.5-3.9 1.5-5.4 0s-1.5-3.9 0-5.4 3.9-1.5 5.4 0c1.4 1.6 1.4 4 0 5.4zM740.2 114.9c-1.5 1.5-3.9 1.5-5.4 0s-1.5-3.9 0-5.4c1.5-1.5 3.9-1.5 5.4 0 1.4 1.5 1.4 3.8 0 5.4z"/>
    <path transform="rotate(-45 737.553 73.3735)" class="hard5" d="M698.2 34h78.7v78.7h-78.7z"/>
    <path class="hard4" d="M701.2 76.1c-1.5 1.5-3.9 1.5-5.4 0s-1.5-3.9 0-5.4 3.9-1.5 5.4 0c1.6 1.4 1.6 3.8 0 5.4zM740.2 37.1c-1.5 1.5-3.9 1.5-5.4 0s-1.5-3.9 0-5.4c1.5-1.5 3.9-1.5 5.4 0 1.6 1.4 1.6 3.9 0 5.4z"/>
    <path transform="rotate(-45 737.4894 73.349)" id="svg-concept" class="hard1" d="M721.8 57.6h31.4V89h-31.4z"/>
    <path id="svg-concept" class="hard1" d="M722.5 74.4c-.6.6-1.5.6-2 0-.6-.6-.6-1.5 0-2 .6-.6 1.5-.6 2 0 .6.4.6 1.4 0 2zM726.5 70.4c-.6.6-1.5.6-2 0-.6-.6-.6-1.5 0-2 .6-.6 1.5-.6 2 0 .6.4.6 1.4 0 2zM730.5 66.2c-.6.6-1.5.6-2 0-.6-.6-.6-1.5 0-2 .6-.6 1.5-.6 2 0 .6.6.6 1.6 0 2zM734.5 62.2c-.6.6-1.5.6-2 0-.6-.6-.6-1.5 0-2 .6-.6 1.5-.6 2 0 .6.6.6 1.6 0 2zM738.5 58.2c-.6.6-1.5.6-2 0-.6-.6-.6-1.5 0-2 .6-.6 1.5-.6 2 0 .6.6.6 1.5 0 2zM726.5 78.4c-.6.6-1.5.6-2 0-.6-.6-.6-1.5 0-2 .6-.6 1.5-.6 2 0 .6.4.6 1.4 0 2zM730.5 74.4c-.6.6-1.5.6-2 0-.6-.6-.6-1.5 0-2 .6-.6 1.5-.6 2 0 .6.4.6 1.4 0 2zM734.5 70.4c-.6.6-1.5.6-2 0-.6-.6-.6-1.5 0-2 .6-.6 1.5-.6 2 0 .6.4.6 1.4 0 2zM738.5 66.4c-.6.6-1.5.6-2 0-.6-.6-.6-1.5 0-2 .6-.6 1.5-.6 2 0 .6.4.6 1.4 0 2zM742.7 62.2c-.6.6-1.5.6-2 0-.6-.6-.6-1.5 0-2 .6-.6 1.5-.6 2 0s.4 1.6 0 2zM730.5 82.4c-.6.6-1.5.6-2 0-.6-.6-.6-1.5 0-2 .6-.6 1.5-.6 2 0 .6.5.6 1.4 0 2zM734.5 78.4c-.6.6-1.5.6-2 0-.6-.6-.6-1.5 0-2 .6-.6 1.5-.6 2 0 .6.4.6 1.4 0 2zM738.7 74.4c-.6.6-1.5.6-2 0-.6-.6-.6-1.5 0-2 .6-.6 1.5-.6 2 0 .4.4.4 1.4 0 2zM742.7 70.4c-.6.6-1.5.6-2 0-.6-.6-.6-1.5 0-2 .6-.6 1.5-.6 2 0 .4.4.4 1.4 0 2zM746.7 66.4c-.6.6-1.5.6-2 0-.6-.6-.6-1.5 0-2 .6-.6 1.5-.6 2 0 .4.4.4 1.4 0 2zM734.7 86.4c-.6.6-1.5.6-2 0-.6-.6-.6-1.5 0-2 .6-.6 1.5-.6 2 0 .4.6.4 1.4 0 2zM738.7 82.4c-.6.6-1.5.6-2 0-.6-.6-.6-1.5 0-2 .6-.6 1.5-.6 2 0 .4.5.4 1.4 0 2zM742.7 78.4c-.6.6-1.5.6-2 0-.6-.6-.6-1.5 0-2 .6-.6 1.5-.6 2 0 .4.4.4 1.4 0 2zM746.7 74.4c-.6.6-1.5.6-2 0-.6-.6-.6-1.5 0-2 .6-.6 1.5-.6 2 0 .4.4.4 1.4 0 2zM750.7 70.4c-.6.6-1.5.6-2 0-.6-.6-.6-1.5 0-2 .6-.6 1.5-.6 2 0 .6.4.6 1.4 0 2zM738.7 90.4c-.6.6-1.5.6-2 0-.6-.6-.6-1.5 0-2 .6-.6 1.5-.6 2 0 .4.6.4 1.5 0 2zM742.7 86.4c-.6.6-1.5.6-2 0-.6-.6-.6-1.5 0-2 .6-.6 1.5-.6 2 0s.4 1.5 0 2zM746.7 82.4c-.6.6-1.5.6-2 0-.6-.6-.6-1.5 0-2 .6-.6 1.5-.6 2 0 .6.6.6 1.4 0 2zM750.7 78.4c-.6.6-1.5.6-2 0-.6-.6-.6-1.5 0-2 .6-.6 1.5-.6 2 0 .6.4.6 1.4 0 2zM754.7 74.4c-.6.6-1.5.6-2 0-.6-.6-.6-1.5 0-2 .6-.6 1.5-.6 2 0 .6.4.6 1.4 0 2z"/>
  </g>
  <g>
    <path id="svg-concept" transform="rotate(-45 927.243 73.474)" class="hard7" d="M876.1 22.3h102.3v102.3H876.1z"/>
    <path class="hard4" d="M968.8 75.9c-1.5 1.5-3.9 1.5-5.4 0s-1.5-3.9 0-5.4 3.9-1.5 5.4 0 1.5 4 0 5.4zM929.8 114.9c-1.5 1.5-3.9 1.5-5.4 0s-1.5-3.9 0-5.4c1.5-1.5 3.9-1.5 5.4 0 1.5 1.5 1.5 3.8 0 5.4z"/>
    <path transform="rotate(-45 927.1024 73.3971)" class="hard5" d="M887.7 34h78.7v78.7h-78.7z"/>
    <path class="hard4" d="M891 76.1c-1.5 1.5-3.9 1.5-5.4 0s-1.5-3.9 0-5.4 3.9-1.5 5.4 0c1.4 1.4 1.4 3.8 0 5.4zM930 37.1c-1.5 1.5-3.9 1.5-5.4 0-1.5-1.5-1.5-3.9 0-5.4 1.5-1.5 3.9-1.5 5.4 0 1.3 1.4 1.3 3.9 0 5.4z"/>
    <g class="hard5">
      <path transform="rotate(-45 927.0389 73.3725)" d="M911.3 57.7h31.4v31.4h-31.4z"/>
      <path d="M912.1 74.4c-.6.6-1.5.6-2 0-.6-.6-.6-1.5 0-2 .6-.6 1.5-.6 2 0 .6.4.6 1.4 0 2zM916.3 70.4c-.6.6-1.5.6-2 0-.6-.6-.6-1.5 0-2 .6-.6 1.5-.6 2 0 .4.4.4 1.4 0 2zM920.3 66.2c-.6.6-1.5.6-2 0-.6-.6-.6-1.5 0-2 .6-.6 1.5-.6 2 0 .4.6.4 1.6 0 2zM924.3 62.2c-.6.6-1.5.6-2 0-.6-.6-.6-1.5 0-2 .6-.6 1.5-.6 2 0s.4 1.6 0 2zM928.3 58.2c-.6.6-1.5.6-2 0-.6-.6-.6-1.5 0-2 .6-.6 1.5-.6 2 0s.4 1.5 0 2zM916.3 78.4c-.6.6-1.5.6-2 0-.6-.6-.6-1.5 0-2 .6-.6 1.5-.6 2 0 .4.4.4 1.4 0 2zM920.3 74.4c-.6.6-1.5.6-2 0-.6-.6-.6-1.5 0-2 .6-.6 1.5-.6 2 0 .4.4.4 1.4 0 2zM924.3 70.4c-.6.6-1.5.6-2 0-.6-.6-.6-1.5 0-2 .6-.6 1.5-.6 2 0 .4.4.4 1.4 0 2zM928.3 66.4c-.6.6-1.5.6-2 0-.6-.6-.6-1.5 0-2 .6-.6 1.5-.6 2 0 .6.4.6 1.4 0 2zM932.3 62.2c-.6.6-1.5.6-2 0-.6-.6-.6-1.5 0-2 .6-.6 1.5-.6 2 0 .6.6.6 1.6 0 2zM920.3 82.4c-.6.6-1.5.6-2 0-.6-.6-.6-1.5 0-2 .6-.6 1.5-.6 2 0 .4.5.4 1.4 0 2zM924.3 78.4c-.6.6-1.5.6-2 0-.6-.6-.6-1.5 0-2 .6-.6 1.5-.6 2 0 .6.4.6 1.4 0 2zM928.3 74.4c-.6.6-1.5.6-2 0-.6-.6-.6-1.5 0-2 .6-.6 1.5-.6 2 0 .6.4.6 1.4 0 2zM932.3 70.4c-.6.6-1.5.6-2 0-.6-.6-.6-1.5 0-2 .6-.6 1.5-.6 2 0 .6.4.6 1.4 0 2zM936.3 66.4c-.6.6-1.5.6-2 0-.6-.6-.6-1.5 0-2 .6-.6 1.5-.6 2 0 .6.4.6 1.4 0 2zM924.3 86.4c-.6.6-1.5.6-2 0-.6-.6-.6-1.5 0-2 .6-.6 1.5-.6 2 0 .6.6.6 1.4 0 2zM928.3 82.4c-.6.6-1.5.6-2 0-.6-.6-.6-1.5 0-2 .6-.6 1.5-.6 2 0 .6.5.6 1.4 0 2zM932.3 78.4c-.6.6-1.5.6-2 0-.6-.6-.6-1.5 0-2 .6-.6 1.5-.6 2 0 .6.4.6 1.4 0 2zM936.3 74.4c-.6.6-1.5.6-2 0-.6-.6-.6-1.5 0-2 .6-.6 1.5-.6 2 0 .6.4.6 1.4 0 2zM940.3 70.4c-.6.6-1.5.6-2 0-.6-.6-.6-1.5 0-2 .6-.6 1.5-.6 2 0 .6.4.6 1.4 0 2zM928.3 90.4c-.6.6-1.5.6-2 0-.6-.6-.6-1.5 0-2 .6-.6 1.5-.6 2 0 .6.6.6 1.5 0 2zM932.3 86.4c-.6.6-1.5.6-2 0-.6-.6-.6-1.5 0-2 .6-.6 1.5-.6 2 0 .6.6.6 1.5 0 2zM936.3 82.4c-.6.6-1.5.6-2 0-.6-.6-.6-1.5 0-2 .6-.6 1.5-.6 2 0 .6.6.6 1.4 0 2zM940.3 78.4c-.6.6-1.5.6-2 0-.6-.6-.6-1.5 0-2 .6-.6 1.5-.6 2 0 .6.4.6 1.4 0 2zM944.3 74.4c-.6.6-1.5.6-2 0-.6-.6-.6-1.5 0-2 .6-.6 1.5-.6 2 0 .6.4.6 1.4 0 2z"/>
    </g>
  </g>
  <g>
    <path id="svg-concept" transform="rotate(-45 831.982 167.8897)" class="hard7" d="M780.8 116.7h102.3V219H780.8z"/>
    <path class="hard4" d="M873.6 170.5c-1.5 1.5-3.9 1.5-5.4 0-1.5-1.5-1.5-3.9 0-5.4 1.5-1.5 3.9-1.5 5.4 0 1.5 1.4 1.5 3.8 0 5.4zM834.8 209.5c-1.5 1.5-3.9 1.5-5.4 0-1.5-1.5-1.5-3.9 0-5.4 1.5-1.5 3.9-1.5 5.4 0 1.4 1.4 1.4 3.8 0 5.4z"/>
    <path transform="rotate(-45 832.1227 167.9667)" class="hard5" d="M792.8 128.6h78.7v78.7h-78.7z"/>
    <path class="hard4" d="M795.8 170.5c-1.5 1.5-3.9 1.5-5.4 0-1.5-1.5-1.5-3.9 0-5.4 1.5-1.5 3.9-1.5 5.4 0 1.6 1.5 1.6 4 0 5.4zM834.8 131.5c-1.5 1.5-3.9 1.5-5.4 0-1.5-1.5-1.5-3.9 0-5.4s3.9-1.5 5.4 0c1.5 1.6 1.5 4 0 5.4z"/>
    <g class="hard5">
      <path transform="rotate(-45 832.168 167.8332)" d="M816.5 152.1h31.4v31.4h-31.4z"/>
      <path d="M817.1 168.8c-.6.6-1.5.6-2 0-.6-.6-.6-1.5 0-2 .6-.6 1.5-.6 2 0 .6.6.6 1.5 0 2zM821.1 164.8c-.6.6-1.5.6-2 0-.6-.6-.6-1.5 0-2 .6-.6 1.5-.6 2 0 .6.5.6 1.4 0 2zM825.1 160.8c-.6.6-1.5.6-2 0-.6-.6-.6-1.5 0-2 .6-.6 1.5-.6 2 0 .6.4.6 1.4 0 2zM829.1 156.8c-.6.6-1.5.6-2 0-.6-.6-.6-1.5 0-2 .6-.6 1.5-.6 2 0 .6.4.6 1.4 0 2zM833.1 152.8c-.6.6-1.5.6-2 0-.6-.6-.6-1.5 0-2 .6-.6 1.5-.6 2 0 .6.4.6 1.4 0 2zM821.1 172.8c-.6.6-1.5.6-2 0-.6-.6-.6-1.5 0-2 .6-.6 1.5-.6 2 0 .6.6.6 1.5 0 2zM825.1 168.8c-.6.6-1.5.6-2 0-.6-.6-.6-1.5 0-2 .6-.6 1.5-.6 2 0 .6.6.6 1.5 0 2zM829.1 164.8c-.6.6-1.5.6-2 0-.6-.6-.6-1.5 0-2 .6-.6 1.5-.6 2 0 .6.6.6 1.5 0 2zM833.1 160.8c-.6.6-1.5.6-2 0-.6-.6-.6-1.5 0-2 .6-.6 1.5-.6 2 0 .6.4.6 1.4 0 2zM837.1 156.8c-.6.6-1.5.6-2 0-.6-.6-.6-1.5 0-2 .6-.6 1.5-.6 2 0 .6.4.6 1.4 0 2zM825.1 177c-.6.6-1.5.6-2 0-.6-.6-.6-1.5 0-2 .6-.6 1.5-.6 2 0 .6.4.6 1.3 0 2zM829.1 172.8c-.6.6-1.5.6-2 0-.6-.6-.6-1.5 0-2 .6-.6 1.5-.6 2 0 .6.6.6 1.5 0 2zM833.1 168.8c-.6.6-1.5.6-2 0-.6-.6-.6-1.5 0-2 .6-.6 1.5-.6 2 0 .6.6.6 1.5 0 2zM837.1 164.8c-.6.6-1.5.6-2 0-.6-.6-.6-1.5 0-2 .6-.6 1.5-.6 2 0 .6.6.6 1.5 0 2zM841.2 160.8c-.6.6-1.5.6-2 0-.6-.6-.6-1.5 0-2 .6-.6 1.5-.6 2 0s.5 1.5 0 2zM829.1 181c-.6.6-1.5.6-2 0-.6-.6-.6-1.5 0-2 .6-.6 1.5-.6 2 0 .6.4.6 1.3 0 2zM833.1 177c-.6.6-1.5.6-2 0-.6-.6-.6-1.5 0-2 .6-.6 1.5-.6 2 0 .6.4.6 1.3 0 2zM837.2 173c-.6.6-1.5.6-2 0-.6-.6-.6-1.5 0-2 .6-.6 1.5-.6 2 0 .5.4.5 1.3 0 2zM841.2 168.8c-.6.6-1.5.6-2 0-.6-.6-.6-1.5 0-2 .6-.6 1.5-.6 2 0s.5 1.5 0 2zM845.3 164.8c-.6.6-1.5.6-2 0-.6-.6-.6-1.5 0-2 .6-.6 1.5-.6 2 0 .4.6.4 1.5 0 2zM833.2 185c-.6.6-1.5.6-2 0-.6-.6-.6-1.5 0-2 .6-.6 1.5-.6 2 0 .5.4.5 1.4 0 2zM837.2 181c-.6.6-1.5.6-2 0-.6-.6-.6-1.5 0-2 .6-.6 1.5-.6 2 0 .5.4.5 1.3 0 2zM841.2 177c-.6.6-1.5.6-2 0-.6-.6-.6-1.5 0-2 .6-.6 1.5-.6 2 0 .5.4.5 1.3 0 2zM845.3 173c-.6.6-1.5.6-2 0-.6-.6-.6-1.5 0-2 .6-.6 1.5-.6 2 0 .4.4.6 1.3 0 2zM849.3 168.9c-.6.6-1.5.6-2 0-.6-.6-.6-1.5 0-2 .6-.6 1.5-.6 2 0 .6.5.6 1.4 0 2z"/>
    </g>
    <animateMotion path="M0, 25 0 0" begin="1s" dur="2s" fill="freeze"/>
  </g>
</svg>
