<svg version="1.1" id="Layer_1" xmlns="http://www.w3.org/2000/svg" x="0" y="0" viewBox="0 0 763.8 600.5" xml:space="preserve">
  <style>
    .hcpanel2,.hcpanel3,.hcpanel4,.hcpanel5,.hcpanel6{stroke:#ee5586;stroke-linecap:round;stroke-linejoin:round;stroke-miterlimit:10}.hcpanel2{stroke-width:2;fill:none}.hcpanel3,.hcpanel4,.hcpanel5,.hcpanel6{fill:#fff}.hcpanel4,.hcpanel5,.hcpanel6{fill:none;stroke:#d7d7d7}.hcpanel5,.hcpanel6{stroke:#fff}.hcpanel6{stroke:gray}.hcpanel7{fill:#fff}
  </style>
  <path d="M77 83.3V38.8c0-11 8.9-20 20-20h630.4c11 0 20 8.9 20 20v461.1c0 11-8.9 20-20 20H691" fill="none" stroke="gray" stroke-width="2" stroke-linecap="round" stroke-linejoin="round" stroke-miterlimit="10"/>
  <path d="M40.6 83.3H671c11 0 20 8.9 20 20v461.1c0 11-8.9 20-20 20H40.6c-11 0-20-8.9-20-20V103.2c0-11 8.9-19.9 20-19.9z" fill="none" stroke="#fff" stroke-width="3" stroke-linecap="round" stroke-linejoin="round" stroke-miterlimit="10"/>
  <path id="svg-concept" class="hcpanel2" d="M75.6 171h565.1v58.1H75.6z"/>
  <path id="svg-concept" class="hcpanel3" d="M93.8 114.6c0 2.9-2.4 5.3-5.3 5.3s-5.3-2.4-5.3-5.3 2.4-5.3 5.3-5.3c3 0 5.3 2.4 5.3 5.3z"/>
  <path class="hcpanel4" d="M119.2 114.6c0 2.9-2.4 5.3-5.3 5.3s-5.3-2.4-5.3-5.3 2.4-5.3 5.3-5.3 5.3 2.4 5.3 5.3zM144.6 114.6c0 2.9-2.4 5.3-5.3 5.3s-5.3-2.4-5.3-5.3 2.4-5.3 5.3-5.3 5.3 2.4 5.3 5.3zM22.1 139.5h667.1M639.7 266.7H199.9"/>
  <path id="svg-concept" class="hcpanel2" d="M200.4 302h40.5v35.3h-40.5z"/>
  <path class="hcpanel4" d="M346.8 302h40.5v35.3h-40.5z"/>
  <path id="svg-concept" class="hcpanel2" d="M493 302h40.5v35.3H493z"/>
  <path class="hcpanel5" d="M200.4 349.7h40.5V385h-40.5z"/>
  <path id="svg-concept" class="hcpanel2" d="M346.8 349.7h40.5V385h-40.5z"/>
  <path class="hcpanel5" d="M492.8 349.7h40.5V385h-40.5z"/>
  <path class="hcpanel4" d="M75.6 292.2h100.8M75.6 266.7h100.8M75.6 305h100.8"/>
  <path class="hcpanel6" d="M261.8 314.5h63.7M261.8 327.3h53M406.2 314.5H470M406.2 327.3h53.1M550.7 314.5h63.7M550.7 327.3h53"/>
  <path class="hcpanel5" d="M261.8 359.8h63.7M261.8 372.6h53"/>
  <path class="hcpanel6" d="M406.2 359.8H470M406.2 372.6h53.1"/>
  <path class="hcpanel5" d="M550.7 359.8h63.7M550.7 372.6h53"/>
  <path class="hcpanel4" d="M639.7 425.8H199.9"/>
  <path class="hcpanel5" d="M200.4 466.6h40.5v35.3h-40.5z"/>
  <path id="svg-concept" class="hcpanel2" d="M346.8 466.6h40.5v35.3h-40.5z"/>
  <path class="hcpanel5" d="M493 466.6h40.5v35.3H493z"/>
  <path id="svg-concept" class="hcpanel2" d="M200.4 514.2h40.5v35.3h-40.5z"/>
  <path class="hcpanel4" d="M346.8 514.2h40.5v35.3h-40.5z"/>
  <path id="svg-concept" class="hcpanel2" d="M492.8 514.2h40.5v35.3h-40.5z"/>
  <path class="hcpanel5" d="M261.8 479.1h63.7M261.8 491.9h53"/>
  <path class="hcpanel6" d="M406.2 479.1H470M406.2 491.9h53.1"/>
  <path class="hcpanel5" d="M550.7 479.1h63.7M550.7 491.9h53"/>
  <path class="hcpanel6" d="M261.8 524.4h63.7M261.8 537.2h53M406.2 524.4H470M406.2 537.2h53.1M550.7 524.4h63.7M550.7 537.2h53"/>
  <path class="hcpanel4" d="M75.6 317.7h100.8M75.6 330.5h100.8M75.6 343.3h100.8"/>
  <path class="hcpanel6" d="M75.6 356h100.8M75.6 368.8h100.8"/>
  <path class="hcpanel4" d="M75.6 397.2h100.8M75.6 410h100.8M75.6 422.8h100.8M75.6 435.5h100.8"/>
  <path class="hcpanel6" d="M75.6 448.3h100.8M75.6 461.1h100.8"/>
  <path class="hcpanel4" d="M75.6 473.9h100.8M75.6 501.9h44.3M75.6 514.7h44.3M75.6 527.4h44.3M75.6 540.2h44.3M132.5 501.9h44.2M132.5 514.7h44.2"/>
  <path class="hcpanel6" d="M132.5 527.4h44.2M132.5 540.2h44.2"/>
  <path class="hcpanel5" d="M523.5 212.1c0 .4-.4.7-.9.7h-88.2c-.5 0-.9-.3-.9-.7v-22.8c0-.4.4-.7.9-.7h88.2c.5 0 .9.3.9.7v22.8zM612.3 212.1c0 .4-.3.7-.7.7h-67.8c-.4 0-.7-.3-.7-.7v-22.8c0-.4.3-.7.7-.7h67.8c.4 0 .7.3.7.7v22.8z"/>
  <path class="hcpanel7" d="M144.3 200.3l.1-.3c0-.2 0-.3-.1-.4-.1-.1-.2-.2-.4-.2H134c-.4 0-.8-.1-1.2-.3-.3-.2-.6-.4-.9-.7-.2-.3-.4-.6-.5-1-.1-.4-.1-.8 0-1.2l.6-2.3h13.4c.8 0 1.6.2 2.3.5.7.4 1.3.8 1.7 1.4.5.6.8 1.3.9 2 .2.8.2 1.5 0 2.4l-2.4 8.9c-.2.9-.7 1.7-1.5 2.2-.7.6-1.6.9-2.5.9H134c-.9 0-1.7-.2-2.4-.6-.7-.4-1.3-.9-1.8-1.5s-.8-1.3-1-2.1c-.2-.8-.2-1.6.1-2.4l.1-.5c.1-.6.4-1.1.7-1.6.3-.5.7-.9 1.2-1.2.4-.3.9-.6 1.5-.8.5-.2 1.1-.3 1.7-.3h8.3l-.6 2.3c-.2.5-.5 1-.9 1.3-.4.3-1 .5-1.5.5h-3.7c-.3 0-.6.2-.7.5-.1.2 0 .4.1.6.1.2.3.3.5.3h6c.2 0 .4-.1.6-.2.2-.1.3-.3.3-.5l.1-.2 1.7-5.5zM102.9 194h6.9l-1.1 4.1c-.2.6-.5 1-.9 1.4-.4.3-1 .5-1.6.5H103c-.7 0-1.4.2-1.9.6-.6.4-.9 1-1.2 1.7-.1.5-.2 1.1 0 1.6.1.5.3.9.6 1.3s.6.7 1.1.9c.4.2.9.3 1.5.3h1.9c.4 0 .7.1.9.4.2.3.3.6.2 1l-1.2 4.5h-2.1c-1.5 0-2.8-.3-4-1-1.2-.6-2.2-1.5-3.1-2.5-.8-1.1-1.4-2.3-1.7-3.6-.3-1.3-.3-2.7.1-4.2l.1-.5c.3-1 .7-1.9 1.2-2.7.6-.8 1.2-1.5 2-2.1.8-.6 1.6-1 2.5-1.4 1-.2 2-.3 3-.3M106.4 212.3l6-22.5c.2-.6.5-1 .9-1.4.4-.3 1-.5 1.6-.5h6.4c1.5 0 2.8.3 4 1 1.2.6 2.2 1.5 3.1 2.5.8 1.1 1.4 2.3 1.7 3.6.3 1.4.3 2.7-.1 4.2l-.1.5c-.3 1-.7 1.9-1.2 2.7-.5.8-1.2 1.5-2 2.1-.8.6-1.6 1-2.5 1.4-.9.3-1.9.5-2.9.5h-5.5l1.1-4.1c.2-.5.5-1 .9-1.3.4-.3 1-.5 1.6-.5h1.8c.7 0 1.4-.2 2-.7.6-.4 1-1 1.1-1.7.1-.5.2-1 0-1.5-.1-.5-.3-.9-.6-1.3s-.6-.7-1.1-.9c-.4-.2-.9-.4-1.5-.4h-3.4l-4.4 16.5c-.2.5-.5 1-.9 1.3-.4.3-1 .5-1.5.5h-4.5zM162.1 194c1.5 0 2.8.3 4.1 1 1.2.6 2.2 1.5 3.1 2.5.8 1.1 1.4 2.3 1.7 3.6.3 1.4.2 2.7-.1 4.2l-1.5 5.7c-.1.4-.3.7-.7 1-.3.2-.7.4-1.1.4h-3.3c-.4 0-.7-.1-.9-.4-.2-.3-.3-.6-.2-1l1.8-6.9c.1-.5.2-1 0-1.5-.1-.5-.3-.9-.6-1.3s-.7-.7-1.1-.9c-.4-.2-.9-.4-1.5-.4h-3.4l-3 11c-.1.4-.3.7-.7 1-.3.2-.7.4-1.1.4h-3.3c-.4 0-.7-.1-.9-.4-.2-.3-.3-.6-.2-1l4.5-16.9h8.4zM180 199.8c-.2.2-.4.4-.5.7l-1.4 5.2c-.1.3 0 .5.2.8.2.2.4.4.7.4h12.6l-1 3.6c-.2.5-.5 1-.9 1.3-.4.3-1 .5-1.5.5h-11.5c-.8 0-1.6-.2-2.3-.5-.7-.4-1.3-.8-1.7-1.4-.5-.6-.8-1.3-.9-2-.2-.8-.1-1.5.1-2.3l1.9-6.9c.2-.8.5-1.4.9-2.1.4-.6.9-1.2 1.5-1.6.6-.4 1.2-.8 1.9-1.1.7-.3 1.5-.4 2.2-.4h8.1c.8 0 1.6.2 2.3.5.7.4 1.3.8 1.7 1.4.5.6.8 1.3.9 2 .2.8.1 1.6-.1 2.3l-.5 2.1c-.2.9-.7 1.6-1.5 2.2-.7.6-1.6.8-2.5.8h-9.2l.6-2.3c.1-.5.4-1 .9-1.3.4-.3 1-.5 1.6-.5h3.7c.3 0 .6-.2.7-.5l.1-.5c.1-.2 0-.4-.1-.6-.1-.2-.3-.3-.5-.3h-5.7c-.3.2-.6.3-.8.5M191.5 212.3l6.1-23c.1-.4.3-.7.7-1 .3-.3.7-.4 1.1-.4h3.3c.4 0 .7.1.9.4.2.3.3.6.2 1l-4.6 16.9c-.2.9-.6 1.7-1.1 2.4-.5.7-1.1 1.4-1.8 1.9s-1.4.9-2.3 1.2c-.7.5-1.6.6-2.5.6"/>
  <path id="svg-concept" class="hcpanel3" d="M632.9 139.5c0 2.9-2.4 5.3-5.3 5.3s-5.3-2.4-5.3-5.3 2.4-5.3 5.3-5.3 5.3 2.4 5.3 5.3z"/>
</svg>
