<svg version="1.1" id="Layer_1" xmlns="http://www.w3.org/2000/svg" x="0" y="0" viewBox="0 0 608.9 468" xml:space="preserve">
  <style>
    .install0,.install2,.install4{fill:none;stroke:#ee5586;stroke-linecap:round;stroke-linejoin:round;stroke-miterlimit:10}.install2,.install4{stroke:gray}.install4{fill:#fff}.install6{fill:#ee5586}.install10{fill:none;stroke:gray;stroke-linecap:round;stroke-linejoin:round;stroke-miterlimit:10}.install11{fill:#fff}.install12{fill:none;stroke:#ee5586;stroke-width:2;stroke-linecap:round;stroke-linejoin:round;stroke-miterlimit:10}
  </style>
  <path class="install4" d="M21.2 461.7c-7.4 0-13.3-5.5-13.3-12.2V18.2c0-6.7 6-12.2 13.3-12.2h47.2c7.4 0 13.3 5.5 13.3 12.2v431.4c0 6.7-6 12.2-13.3 12.2H21.2zM81.7 18.2l91.9 65.4c5.1 3.2 9.2 8.3 9.2 18.4v271.2c0 10.1-3.6 14.5-9.2 18.4l-91.9 58"/>
  <path id="svg-concept" class="install0" d="M50.2 126.3v-3.6c0-.7.5-1.2 1.2-1.2H55c.7 0 1.2.5 1.2 1.2v3.6c0 .7-.5 1.2-1.2 1.2h-3.6c-.7 0-1.2-.5-1.2-1.2zM27.6 118.9V114c0-.9.8-1.7 1.7-1.7h4.9c.9 0 1.7.8 1.7 1.7v4.9c0 .9-.8 1.7-1.7 1.7h-4.9c-.9 0-1.7-.8-1.7-1.7zM50.2 229.2v-3.6c0-.7.5-1.2 1.2-1.2H55c.7 0 1.2.5 1.2 1.2v3.6c0 .7-.5 1.2-1.2 1.2h-3.6c-.7.1-1.2-.5-1.2-1.2zM27.6 221.8v-4.9c0-.9.8-1.7 1.7-1.7h4.9c.9 0 1.7.8 1.7 1.7v4.9c0 .9-.8 1.7-1.7 1.7h-4.9c-.9 0-1.7-.7-1.7-1.7zM50.2 332.2v-3.6c0-.7.5-1.2 1.2-1.2H55c.7 0 1.2.5 1.2 1.2v3.6c0 .7-.5 1.2-1.2 1.2h-3.6c-.7 0-1.2-.6-1.2-1.2zM27.6 324.8v-4.9c0-.9.8-1.7 1.7-1.7h4.9c.9 0 1.7.8 1.7 1.7v4.9c0 .9-.8 1.7-1.7 1.7h-4.9c-.9 0-1.7-.8-1.7-1.7zM44.8 404.3c-8.7 0-15.8-7.1-15.8-15.8 0-8.7 7.1-15.8 15.8-15.8s15.8 7.1 15.8 15.8c0 8.7-7.1 15.8-15.8 15.8z"/>
  <path id="svg-concept" class="install0" d="M44.8 394.4c-3.2 0-5.9-2.6-5.9-5.9 0-3.2 2.6-5.9 5.9-5.9 3.2 0 5.9 2.6 5.9 5.9-.1 3.3-2.7 5.9-5.9 5.9zM44.8 404.3v-9.9M44.8 382.7v-10"/>
  <path class="install2" d="M81.7 31.1H8.1M81.7 436.6H7.8M21.9 123.5v-80c0-2.2 1.8-4 4-4h11.7c2.2 0 4 1.8 4 4v80c0 2.2-1.8 4-4 4H25.9c-2.2 0-4-1.8-4-4zM50.2 51.5v-3.6c0-.7.5-1.2 1.2-1.2H55c.7 0 1.2.5 1.2 1.2v3.6c0 .7-.5 1.2-1.2 1.2h-3.6c-.7 0-1.2-.6-1.2-1.2zM50.2 63.5v-3.6c0-.7.5-1.2 1.2-1.2H55c.7 0 1.2.5 1.2 1.2v3.6c0 .7-.5 1.2-1.2 1.2h-3.6c-.7 0-1.2-.5-1.2-1.2zM50.2 80.5v-3.6c0-.7.5-1.2 1.2-1.2H55c.7 0 1.2.5 1.2 1.2v3.6c0 .7-.5 1.2-1.2 1.2h-3.6c-.7 0-1.2-.5-1.2-1.2zM63.2 51.5v-3.6c0-.7.5-1.2 1.2-1.2H68c.7 0 1.2.5 1.2 1.2v3.6c0 .7-.5 1.2-1.2 1.2h-3.6c-.6 0-1.2-.6-1.2-1.2zM63.2 63.5v-3.6c0-.7.5-1.2 1.2-1.2H68c.7 0 1.2.5 1.2 1.2v3.6c0 .7-.5 1.2-1.2 1.2h-3.6c-.6 0-1.2-.5-1.2-1.2zM63.2 126.1v-3.6c0-.7.5-1.2 1.2-1.2H68c.7 0 1.2.5 1.2 1.2v3.6c0 .7-.5 1.2-1.2 1.2h-3.6c-.6.1-1.2-.5-1.2-1.2zM50.2 92.5V89c0-.7.5-1.2 1.2-1.2H55c.7 0 1.2.5 1.2 1.2v3.6c0 .7-.5 1.2-1.2 1.2h-3.6c-.7 0-1.2-.6-1.2-1.3zM50.2 104.4v-3.6c0-.7.5-1.2 1.2-1.2H55c.7 0 1.2.5 1.2 1.2v3.6c0 .7-.5 1.2-1.2 1.2h-3.6c-.7 0-1.2-.5-1.2-1.2z"/>
  <path class="install2" d="M50.2 104.6V101c0-.7.5-1.2 1.2-1.2H55c.7 0 1.2.5 1.2 1.2v3.6c0 .7-.5 1.2-1.2 1.2h-3.6c-.7 0-1.2-.5-1.2-1.2zM63.2 104.6V78c0-.7.5-1.2 1.2-1.2H68c.7 0 1.2.5 1.2 1.2v26.6c0 .7-.5 1.2-1.2 1.2h-3.6c-.6 0-1.2-.5-1.2-1.2zM41.6 70.5H21.9M27.6 103.6v-4.9c0-.9.8-1.7 1.7-1.7h4.9c.9 0 1.7.8 1.7 1.7v4.9c0 .9-.8 1.7-1.7 1.7h-4.9c-.9 0-1.7-.8-1.7-1.7zM21.9 226.5v-80c0-2.2 1.8-4 4-4h11.7c2.2 0 4 1.8 4 4v80c0 2.2-1.8 4-4 4H25.9c-2.2 0-4-1.8-4-4zM50.2 154.4v-3.6c0-.7.5-1.2 1.2-1.2H55c.7 0 1.2.5 1.2 1.2v3.6c0 .7-.5 1.2-1.2 1.2h-3.6c-.7 0-1.2-.5-1.2-1.2zM50.2 166.5v-3.6c0-.7.5-1.2 1.2-1.2H55c.7 0 1.2.5 1.2 1.2v3.6c0 .7-.5 1.2-1.2 1.2h-3.6c-.7 0-1.2-.6-1.2-1.2zM50.2 183.4v-3.6c0-.7.5-1.2 1.2-1.2H55c.7 0 1.2.5 1.2 1.2v3.6c0 .7-.5 1.2-1.2 1.2h-3.6c-.7.1-1.2-.5-1.2-1.2zM63.2 154.4v-3.6c0-.7.5-1.2 1.2-1.2H68c.7 0 1.2.5 1.2 1.2v3.6c0 .7-.5 1.2-1.2 1.2h-3.6c-.6 0-1.2-.5-1.2-1.2zM63.2 166.5v-3.6c0-.7.5-1.2 1.2-1.2H68c.7 0 1.2.5 1.2 1.2v3.6c0 .7-.5 1.2-1.2 1.2h-3.6c-.6 0-1.2-.6-1.2-1.2zM63.2 229.1v-3.6c0-.7.5-1.2 1.2-1.2H68c.7 0 1.2.5 1.2 1.2v3.6c0 .7-.5 1.2-1.2 1.2h-3.6c-.6 0-1.2-.6-1.2-1.2zM50.2 195.5v-3.6c0-.7.5-1.2 1.2-1.2H55c.7 0 1.2.5 1.2 1.2v3.6c0 .7-.5 1.2-1.2 1.2h-3.6c-.7 0-1.2-.5-1.2-1.2zM50.2 207.3v-3.6c0-.7.5-1.2 1.2-1.2H55c.7 0 1.2.5 1.2 1.2v3.6c0 .7-.5 1.2-1.2 1.2h-3.6c-.7.1-1.2-.5-1.2-1.2z"/>
  <path class="install2" d="M50.2 207.5V204c0-.7.5-1.2 1.2-1.2H55c.7 0 1.2.5 1.2 1.2v3.6c0 .7-.5 1.2-1.2 1.2h-3.6c-.7 0-1.2-.6-1.2-1.3zM63.2 207.5v-26.6c0-.7.5-1.2 1.2-1.2H68c.7 0 1.2.5 1.2 1.2v26.6c0 .7-.5 1.2-1.2 1.2h-3.6c-.6 0-1.2-.5-1.2-1.2zM41.6 173.5H21.9M27.6 206.6v-4.9c0-.9.8-1.7 1.7-1.7h4.9c.9 0 1.7.8 1.7 1.7v4.9c0 .9-.8 1.7-1.7 1.7h-4.9c-.9-.1-1.7-.8-1.7-1.7zM21.9 329.4v-80c0-2.2 1.8-4 4-4h11.7c2.2 0 4 1.8 4 4v80c0 2.2-1.8 4-4 4H25.9c-2.2 0-4-1.8-4-4zM50.2 257.3v-3.6c0-.7.5-1.2 1.2-1.2H55c.7 0 1.2.5 1.2 1.2v3.6c0 .7-.5 1.2-1.2 1.2h-3.6c-.7.1-1.2-.5-1.2-1.2zM50.2 269.4v-3.6c0-.7.5-1.2 1.2-1.2H55c.7 0 1.2.5 1.2 1.2v3.6c0 .7-.5 1.2-1.2 1.2h-3.6c-.7 0-1.2-.5-1.2-1.2zM50.2 286.4v-3.6c0-.7.5-1.2 1.2-1.2H55c.7 0 1.2.5 1.2 1.2v3.6c0 .7-.5 1.2-1.2 1.2h-3.6c-.7 0-1.2-.6-1.2-1.2zM63.2 257.3v-3.6c0-.7.5-1.2 1.2-1.2H68c.7 0 1.2.5 1.2 1.2v3.6c0 .7-.5 1.2-1.2 1.2h-3.6c-.6.1-1.2-.5-1.2-1.2zM63.2 269.4v-3.6c0-.7.5-1.2 1.2-1.2H68c.7 0 1.2.5 1.2 1.2v3.6c0 .7-.5 1.2-1.2 1.2h-3.6c-.6 0-1.2-.5-1.2-1.2zM63.2 332v-3.6c0-.7.5-1.2 1.2-1.2H68c.7 0 1.2.5 1.2 1.2v3.6c0 .7-.5 1.2-1.2 1.2h-3.6c-.6 0-1.2-.5-1.2-1.2zM50.2 298.4v-3.6c0-.7.5-1.2 1.2-1.2H55c.7 0 1.2.5 1.2 1.2v3.6c0 .7-.5 1.2-1.2 1.2h-3.6c-.7 0-1.2-.5-1.2-1.2zM50.2 310.3v-3.6c0-.7.5-1.2 1.2-1.2H55c.7 0 1.2.5 1.2 1.2v3.6c0 .7-.5 1.2-1.2 1.2h-3.6c-.7 0-1.2-.6-1.2-1.2z"/>
  <path class="install2" d="M50.2 310.5v-3.6c0-.7.5-1.2 1.2-1.2H55c.7 0 1.2.5 1.2 1.2v3.6c0 .7-.5 1.2-1.2 1.2h-3.6c-.7 0-1.2-.6-1.2-1.2z"/>
  <path id="svg-concept" class="install0" d="M30.8 426.4c-2.6 0-4.7-2.1-4.7-4.7s2.1-4.7 4.7-4.7 4.6 2.1 4.6 4.7c.1 2.6-2 4.7-4.6 4.7z"/>
  <path class="install2" d="M44 423.6V420c0-.7.5-1.2 1.2-1.2h3.6c.7 0 1.2.5 1.2 1.2v3.6c0 .7-.5 1.2-1.2 1.2h-3.6c-.6 0-1.2-.6-1.2-1.2zM57.3 423.6V420c0-.7.5-1.2 1.2-1.2h3.6c.7 0 1.2.5 1.2 1.2v3.6c0 .7-.5 1.2-1.2 1.2h-3.6c-.6 0-1.2-.6-1.2-1.2zM63.2 310.5v-26.6c0-.7.5-1.2 1.2-1.2H68c.7 0 1.2.5 1.2 1.2v26.6c0 .7-.5 1.2-1.2 1.2h-3.6c-.6 0-1.2-.6-1.2-1.2zM41.6 276.4H21.9M27.6 309.5v-4.9c0-.9.8-1.7 1.7-1.7h4.9c.9 0 1.7.8 1.7 1.7v4.9c0 .9-.8 1.7-1.7 1.7h-4.9c-.9 0-1.7-.8-1.7-1.7zM81.7 135.9H7.8M167.3 117.5v-14.9M161.6 113.7V99.4M155.5 110V95.6M149.5 106.3V91.9M143.5 102.4V88.1M57 20.2H35M57 447.7H35M81.7 238.2H7.8M81.7 340.4H7.8M149.4 309.9v56.7c0 3.4 2.9 7.2 6.1 6.1l6-2.2c4-1.1 5.8-4.2 5.8-7.6v-53c0-3.4-2.8-6.1-6.1-6.1h-5.6c-3.4 0-6.2 2.7-6.2 6.1z"/>
  <path fill="none" stroke="gray" stroke-miterlimit="10" d="M143.5 238.2H274"/>
  <path class="install4" d="M600.5 360.7H282c-4.4 0-8-3.6-8-8v-229c0-4.4 3.6-8 8-8h318.5c4.4 0 8 3.6 8 8v229c0 4.4-3.6 8-8 8z"/>
  <path id="svg-concept" fill="#fff" stroke="#ee5586" stroke-width="3" stroke-linecap="round" stroke-linejoin="round" stroke-miterlimit="10" d="M343.1 238.2h196.3"/>
  <circle id="svg-ico" class="install6" cx="274" cy="238.2" r="3.7"/>
  <circle id="svg-ico" class="install6" cx="143.5" cy="238.2" r="3.7"/>
  <g>
    <path id="svg-concept" d="M213.7 238.2c0 2.7-2.2 4.9-4.9 4.9s-4.9-2.2-4.9-4.9 2.2-4.9 4.9-4.9 4.9 2.1 4.9 4.9z" fill="#fff" stroke="#ee5586" stroke-width="2" stroke-linecap="round" stroke-linejoin="round" stroke-miterlimit="10"/>
    <animateMotion path="M53, 0 53 0 -53 0 53 0" begin="0s" dur="2s" repeatCount="indefinite"/>
  </g>
  <g>
    <path fill="none" stroke="#efefef" stroke-width="4" stroke-linejoin="round" stroke-miterlimit="10" d="M361.3 238.2h179.8"/>
    <animateMotion path="M0, 0 200 0 -200" begin="0s" dur="5s" repeatCount="indefinite"/>
  </g>
  <path d="M595.7 122.8H286.8c-3.7 0-6.7 3-6.7 6.7v217.3c0 3.7 3 6.7 6.7 6.7h308.8c3.7 0 6.7-3 6.7-6.7V129.5c.1-3.7-2.9-6.7-6.6-6.7zm-44 125.2c0 1.4-1.1 2.5-2.5 2.5h-216c-1.4 0-2.5-1.1-2.5-2.5v-19.6c0-1.4 1.1-2.5 2.5-2.5h216c1.3 0 2.5 1.1 2.5 2.5V248z" fill="#fff" stroke="gray" stroke-linecap="round" stroke-linejoin="round" stroke-miterlimit="10"/>
  <g>
    <path class="install2" d="M551.7 248c0 1.4-1.1 2.5-2.5 2.5h-216c-1.4 0-2.5-1.1-2.5-2.5v-19.6c0-1.4 1.1-2.5 2.5-2.5h216c1.3 0 2.5 1.1 2.5 2.5V248z"/>
    <path class="install10" d="M330.8 196.7h167.4M330.8 178.6h53.7M391.5 178.6h33M431.4 178.6h21.5M523.6 140.8h33M563.6 140.8h21.5M391.5 311.7h-60.7M458.5 311.7h-60.7M504.7 329.7H403.1M395.5 329.7h-33M352.3 329.7h-21.5"/>
  </g>
  <path class="install11" d="M603 232.6h4.9v11.2H603z"/>
  <path class="install4" d="M608.5 232.6v11.2"/>
  <g>
    <path id="svg-concept" class="install12" d="M536.1 161.2c-7 .8-12.4 6.7-12.4 14 0 7.8 6.3 14.1 14.1 14.1s14.1-6.3 14.1-14.1c0-7.2-5.4-13.2-12.4-14"/>
    <path id="svg-concept" class="install12" d="M542.7 167.8l-5 14.7-6.7-3.3"/>
  </g>
  <path class="install11" d="M541.1 234.7h9.9v8.4h-9.9z"/>
</svg>
