<svg version="1.1" id="Layer_1" xmlns="http://www.w3.org/2000/svg" x="0" y="0" viewBox="0 0 1100.6 600.5" xml:space="preserve">
  <style>
    .iptv0,.iptv1,.iptv3{fill:none;stroke:gray;stroke-linecap:round;stroke-linejoin:round;stroke-miterlimit:10}.iptv1,.iptv3{stroke:#ee5586;stroke-width:2}.iptv3{stroke:gray}.iptv4{stroke-width:3}.iptv4,.iptv5,.iptv6{fill:none;stroke:#ee5586;stroke-linecap:round;stroke-linejoin:round;stroke-miterlimit:10}.iptv6{fill:#fff;stroke-width:2}
  </style>
  <path class="iptv0" d="M169.6 178.6c-1.7 0-3-1.3-3-3s1.3-3 3-3 3 1.3 3 3-1.3 3-3 3zM576.5 46.7c-1.7 0-3-1.3-3-3s1.3-3 3-3 3 1.3 3 3c0 1.6-1.3 3-3 3zM922.5 171.6c-1.7 0-3-1.3-3-3s1.3-3 3-3 3 1.3 3 3-1.3 3-3 3zM982.7 112.3c-1.7 0-3-1.3-3-3s1.3-3 3-3 3 1.3 3 3-1.3 3-3 3zM202.9 128.1c-1.7 0-3-1.3-3-3s1.3-3 3-3 3 1.3 3 3c0 1.6-1.3 3-3 3zM280.8 16.7c-1.7 0-3-1.3-3-3s1.3-3 3-3 3 1.3 3 3c0 1.6-1.3 3-3 3zM80 37.5c-1.7 0-3-1.3-3-3s1.3-3 3-3 3 1.3 3 3c0 1.6-1.3 3-3 3zM551.4 14.5c-1.7 0-3-1.3-3-3s1.3-3 3-3 3 1.3 3 3c0 1.6-1.3 3-3 3zM604.3 29.7c-1.7 0-3-1.3-3-3s1.3-3 3-3 3 1.3 3 3c-.1 1.7-1.4 3-3 3zM885.4 125.1c-1.7 0-3-1.3-3-3s1.3-3 3-3 3 1.3 3 3c0 1.6-1.4 3-3 3zM872.1 26.7c-1.7 0-3-1.3-3-3s1.3-3 3-3 3 1.3 3 3c0 1.6-1.4 3-3 3zM869.1 82.5c-1.7 0-3-1.3-3-3s1.3-3 3-3 3 1.3 3 3-1.4 3-3 3zM1027.9 94.1c-1.7 0-3-1.3-3-3s1.3-3 3-3 3 1.3 3 3-1.4 3-3 3z"/>
  <path id="svg-concept" class="iptv1" d="M964.6 60.3c-1.7 0-3-1.3-3-3s1.3-3 3-3 3 1.3 3 3c0 1.6-1.3 3-3 3zM857.8 175.6c-1.7 0-3-1.3-3-3s1.3-3 3-3 3 1.3 3 3-1.4 3-3 3z"/>
  <path class="iptv0" d="M352 40.5c-1.7 0-3-1.3-3-3s1.3-3 3-3 3 1.3 3 3c0 1.6-1.4 3-3 3z"/>
  <path id="svg-concept" class="iptv1" d="M495.7 40.5c-1.7 0-3-1.3-3-3s1.3-3 3-3 3 1.3 3 3c0 1.6-1.4 3-3 3zM683.7 37.5c-1.7 0-3-1.3-3-3s1.3-3 3-3 3 1.3 3 3c0 1.6-1.3 3-3 3z"/>
  <path class="iptv0" d="M230.2 79.5c-1.7 0-3-1.3-3-3s1.3-3 3-3 3 1.3 3 3-1.4 3-3 3zM199.9 26.7c-1.7 0-3-1.3-3-3s1.3-3 3-3 3 1.3 3 3c-.1 1.6-1.4 3-3 3zM432 11.5c-1.7 0-3-1.3-3-3s1.3-3 3-3 3 1.3 3 3c-.1 1.6-1.4 3-3 3zM912 14.5c-1.7 0-3-1.3-3-3s1.3-3 3-3 3 1.3 3 3c-.1 1.6-1.3 3-3 3zM1037.7 29.7c-1.7 0-3-1.3-3-3s1.3-3 3-3 3 1.3 3 3c-.1 1.6-1.4 3-3 3z"/>
  <path id="svg-concept" class="iptv1" d="M224 168.6c0 2.2-1.8 4-4 4s-4-1.8-4-4 1.8-4 4-4 4 1.8 4 4zM899 238.1c0 2.2-1.8 4-4 4s-4-1.8-4-4 1.8-4 4-4 4 1.8 4 4zM979.4 165.6c0 2.2-1.8 4-4 4s-4-1.8-4-4 1.8-4 4-4 4 1.8 4 4zM213.9 247.3c0 2.2-1.8 4-4 4s-4-1.8-4-4 1.8-4 4-4 4 1.8 4 4zM109.7 102.3c0 2.2-1.8 4-4 4s-4-1.8-4-4 1.8-4 4-4 4 1.7 4 4zM166.6 73.5c0 2.2-1.8 4-4 4s-4-1.8-4-4 1.8-4 4-4c2.2.1 4 1.8 4 4zM919.5 91.1c0 2.2-1.8 4-4 4s-4-1.8-4-4 1.8-4 4-4c2.2.1 4 1.8 4 4zM797.5 16.7c0 2.2-1.8 4-4 4s-4-1.8-4-4 1.8-4 4-4c2.2.1 4 1.8 4 4z"/>
  <path d="M827.7 351.3H272.9c-5.8 0-10.6-3.6-10.6-8v-278c0-4.4 4.8-8 10.6-8h554.8c5.8 0 10.6 3.6 10.6 8v277.9c0 4.5-4.8 8.1-10.6 8.1z" fill="none" stroke="gray" stroke-width="3" stroke-linecap="round" stroke-linejoin="round" stroke-miterlimit="10"/>
  <path class="iptv3" d="M816.8 76.5h-533v255.7h532.8l.2-255.7z"/>
  <path class="iptv0" d="M643.5 102.3h39.7M691.5 102.3h63.8M344.7 154.6h267.6M344.7 132.9h85.9M484.3 132.9h39.6M532.2 132.9H558"/>
  <path class="iptv3" d="M464.8 236.2h-44.9c-1.6 0-3-1.3-3-3v-44.9c0-1.6 1.4-3 3-3h44.9c1.6 0 3 1.4 3 3v44.9c0 1.7-1.3 3-3 3zM536.8 236.2h-44.9c-1.7 0-3-1.3-3-3v-44.9c0-1.6 1.3-3 3-3h44.9c1.7 0 3 1.4 3 3v44.9c0 1.7-1.4 3-3 3z"/>
  <path id="svg-concept" class="iptv4" d="M608.7 236.2h-44.9c-1.7 0-3-1.3-3-3v-44.9c0-1.6 1.3-3 3-3h44.9c1.7 0 3 1.4 3 3v44.9c0 1.7-1.3 3-3 3z"/>
  <path class="iptv3" d="M680.7 236.2h-44.9c-1.6 0-3-1.3-3-3v-44.9c0-1.6 1.4-3 3-3h44.9c1.7 0 3 1.4 3 3v44.9c0 1.7-1.4 3-3 3z"/>
  <path id="svg-concept" class="iptv4" d="M464.8 302.2h-44.9c-1.6 0-3-1.4-3-3v-44.9c0-1.6 1.4-3 3-3h44.9c1.6 0 3 1.4 3 3v44.9c0 1.6-1.3 3-3 3z"/>
  <path class="iptv3" d="M536.8 302.2h-44.9c-1.7 0-3-1.4-3-3v-44.9c0-1.6 1.3-3 3-3h44.9c1.7 0 3 1.4 3 3v44.9c0 1.6-1.4 3-3 3zM608.7 302.2h-44.9c-1.7 0-3-1.4-3-3v-44.9c0-1.6 1.3-3 3-3h44.9c1.7 0 3 1.4 3 3v44.9c0 1.6-1.3 3-3 3z"/>
  <path id="svg-concept" class="iptv4" d="M752.3 236.2h-44.9c-1.7 0-3-1.3-3-3v-44.9c0-1.6 1.3-3 3-3h44.9c1.7 0 3 1.4 3 3v44.9c0 1.7-1.3 3-3 3z"/>
  <path class="iptv3" d="M752.3 302.2h-44.9c-1.7 0-3-1.4-3-3v-44.9c0-1.6 1.3-3 3-3h44.9c1.7 0 3 1.4 3 3v44.9c0 1.6-1.3 3-3 3z"/>
  <path id="svg-concept" class="iptv4" d="M392.6 236.2h-44.9c-1.7 0-3-1.3-3-3v-44.9c0-1.6 1.3-3 3-3h44.9c1.7 0 3 1.4 3 3v44.9c0 1.7-1.3 3-3 3z"/>
  <path class="iptv3" d="M392.6 302.2h-44.9c-1.7 0-3-1.4-3-3v-44.9c0-1.6 1.3-3 3-3h44.9c1.7 0 3 1.4 3 3v44.9c0 1.6-1.3 3-3 3zM680.7 302.2h-44.9c-1.6 0-3-1.4-3-3v-44.9c0-1.6 1.4-3 3-3h44.9c1.7 0 3 1.4 3 3v44.9c0 1.6-1.4 3-3 3zM1016.6 441.7H84c-4.1 0-7.6-2.5-7.6-5.7v-45.3c0-3.1 3.3-5.7 7.6-5.7h932.7c4.1 0 7.6 2.5 7.6 5.7V436c-.2 3.1-3.5 5.7-7.7 5.7zM366 385v56.7M734.6 385v56.7"/>
  <path class="iptv0" d="M541.1 414.4h-25.8l-17-17.1M604.3 397.3l-17 17.1h-25.8"/>
  <path class="iptv0" d="M559.9 424.6h-17.1c-.9 0-1.7-.8-1.7-1.7v-17.1c0-.9.8-1.7 1.7-1.7h17.1c.9 0 1.7.8 1.7 1.7v17.1c-.1.9-.8 1.7-1.7 1.7z"/>
  <path id="svg-concept" class="iptv5" d="M487 414.3c0 4-3.2 7.2-7.2 7.2-3.9 0-7.2-3.2-7.2-7.2s3.2-7.1 7.2-7.1 7.2 3.2 7.2 7.1z"/>
  <path id="svg-concept" class="iptv5" d="M482.5 414.3c0 1.5-1.2 2.7-2.7 2.7s-2.7-1.2-2.7-2.7 1.2-2.7 2.7-2.7c1.5.1 2.7 1.3 2.7 2.7zM487 414.3h-4.5M477.2 414.3h-4.5M497 419.4c0 1.2-.9 2.1-2.1 2.1s-2.1-.9-2.1-2.1.9-2.1 2.1-2.1c1.1 0 2.1.9 2.1 2.1z"/>
  <path class="iptv0" d="M459.5 397.3v33.4M643.1 397.3v33.5"/>
  <path id="svg-concept" class="iptv5" d="M605 417.4c-1.6 0-3-1.3-3-2.9 0-1.6 1.3-2.9 3-2.9 1.6 0 3 1.3 3 2.9 0 1.5-1.3 2.9-3 2.9z"/>
  <path class="iptv0" d="M615.4 417.2h-.2c-1.2 0-2.2-1-2.2-2.2 0-1.2 1-2.2 2.2-2.2 1.2 0 2.2 1 2.2 2.2v.2c0 1.2-1 2-2 2z"/>
  <path id="svg-concept" class="iptv5" d="M624 417.2c-1.2 0-2.2-1-2.2-2.2 0-1.2 1-2.2 2.2-2.2 1.2 0 2.2 1 2.2 2.2 0 1.2-1 2.2-2.2 2.2z"/>
  <path class="iptv0" d="M632.8 417.2c-1.2 0-2.2-1-2.2-2.2 0-1.2 1-2.2 2.2-2.2 1.2 0 2.2 1 2.2 2.2 0 1.2-1 2.2-2.2 2.2zM633 409.2h-17.6c-1.1 0-2-.8-2-2v-.5c0-1.1.8-2 2-2H633c1.1 0 2 .8 2 2v.5c0 1.2-.8 2-2 2zM556.7 415.6H546c-.7 0-1.2-.5-1.2-1.2v-.3c0-.7.5-1.2 1.2-1.2h10.7c.7 0 1.2.5 1.2 1.2v.3c0 .7-.6 1.2-1.2 1.2z"/>
  <path id="svg-concept" class="iptv4" d="M972.9 376.8h-75.3s-6.7-7-6.7-9.4c0-1.9 1.2-2.7 2.7-2.7h79.3c1.5 0 2.7 1.2 2.7 2.7v6.7c-.1 1.5-1.3 2.7-2.7 2.7z"/>
  <path class="iptv3" d="M381.7 523.9c0-32.3 26.2-58.5 58.5-58.5s58.5 26.2 58.5 58.5M605.4 523.9c0-32.3 26.2-58.5 58.5-58.5s58.5 26.2 58.5 58.5M1.8 600.5v-39.6c0-20.3 18.2-37 40.5-37h1015.4c22.2 0 40.5 16.6 40.5 37v39.6"/>
  <path id="svg-concept" class="iptv1" d="M654.4 424.8c0 3.3-2.5 6-5.5 6H453.7c-3 0-5.5-2.7-5.5-6v-21.4c0-3.3 2.5-6 5.5-6H649c3 0 5.5 2.7 5.5 6l-.1 21.4z"/>
  <g>
    <path id="svg-concept" class="iptv6" d="M294.8 76.5c0 3.1-2.5 5.7-5.7 5.7s-5.7-2.5-5.7-5.7c0-3.1 2.5-5.7 5.7-5.7 3.1 0 5.7 2.6 5.7 5.7z"/>
    <animateMotion accumulate="none" additive="replace" begin="0s" calcMode="paced" dur="20s" fill="remove" path="M0, 0 527 0 527 250 527 0 0 0 250" repeatCount="indefinite" restart="always"/>
  </g>
  <g>
    <path id="svg-concept" class="iptv6" d="M371.8 390.5c0 3.1-2.5 5.7-5.7 5.7-3.1 0-5.7-2.5-5.7-5.7 0-3.1 2.5-5.7 5.7-5.7s5.7 2.6 5.7 5.7z"/>
    <animateMotion accumulate="none" additive="replace" begin="0s" calcMode="paced" dur="4s" fill="remove" path="M0, 43 0 3 0 43" repeatCount="indefinite" restart="always"/>
  </g>
  <g>
    <path id="svg-concept" class="iptv6" d="M740.3 436.1c0 3.1-2.5 5.7-5.7 5.7s-5.7-2.5-5.7-5.7c0-3.1 2.5-5.7 5.7-5.7s5.7 2.6 5.7 5.7z"/>
    <animateMotion accumulate="none" additive="replace" begin="0s" calcMode="paced" dur="2s" fill="remove" path="M0, -43 0 -3 0 -43" repeatCount="indefinite" restart="always"/>
  </g>
</svg>
