<svg version="1.1" id="Layer_1" xmlns="http://www.w3.org/2000/svg" x="0" y="0" viewBox="0 0 408.8 419.6" xml:space="preserve">
  <style>
    .kanga1{fill:none;stroke:gray;stroke-linecap:round;stroke-linejoin:round;stroke-miterlimit:10}
  </style>
  <path id="svg-concept" d="M204.3 130.2s9.4-9.4 30.1-.7C279.9 21.7 390.4-4.4 403.1 4.3s-40.2 141.9-82.3 151.9c-42.2 10-27.4 61.3-27.4 61.3l.1.1c7 13.7 10.9 29.1 10.9 45.5 0 34.6-17.5 65-44.1 83l-.6.5c1 4.2 1.5 8.3 1.5 12.8 0 31.4-25.4 56.8-56.8 56.8s-56.8-25.4-56.8-56.8c0-4.4.5-8.6 1.4-12.7l.1-.2c-27-17.9-44.8-48.6-44.8-83.5 0-16.4 3.9-31.8 10.9-45.5l.1-.2s15-51.3-27.2-61.3C45.6 146.2-7.2 13 5.5 4.3s123.2 17.4 168.7 125.2c20.7-8.7 30.1.7 30.1.7" fill="none" stroke="#ee5586" stroke-width="3" stroke-linecap="round" stroke-linejoin="round" stroke-miterlimit="10"/>
  <path class="kanga1" d="M94.2 51.2s46.1 37.7 32.5 112M311.5 51.2s-46.1 37.7-32.5 112M170.6 283.5c8.5 72.7-27.5 73.4 0 105.5M238.1 283.5c-8.5 72.7 27.5 73.4 0 105.5"/>
  <path class="kanga1" d="M229.8 350.4c13.6 41-25.7 25.5-25.7 53 0-27.3-39.1-9.7-27.2-53.1 0 0 10.9 22.3 27.2 22.3s25.7-22.2 25.7-22.2zM150.2 239.9c.5 1.2.8 2.5.8 3.8 0 5.1-4.2 9.3-9.3 9.3-5.1 0-9.3-4.2-9.3-9.3 0-3.8 2.3-7.1 5.6-8.5M267.3 235c3.5 1.3 6 4.7 6 8.7 0 5.1-4.2 9.3-9.3 9.3-5.1 0-9.3-4.2-9.3-9.3 0-1.1.2-2.2.5-3.2M123.5 225.6s-6.2-20.8 35-20.8M283.4 225.6s6.2-20.8-35-20.8M151.4 270s-26.9 22-26.9-6.8M254.3 270s26.9 22 26.9-6.8"/>
  <path class="kanga1" d="M123.2 234.4c13.4 3.4-1.5 14.7 10.7 23 12.2 7.1 22-9.9 27.5-4.4-11.1-23.9-38.2-18.6-38.2-18.6zM283.5 234.4c-13.4 3.4 1.5 14.7-10.7 23-12.2 7.1-22-9.9-27.5-4.4 11-23.9 38.2-18.6 38.2-18.6z"/>
</svg>
