<svg version="1.1" id="Layer_1" xmlns="http://www.w3.org/2000/svg" x="0" y="0" viewBox="0 0 1099.5 435.7" xml:space="preserve">
  <style>
    .maxs0{fill:#fff;stroke:gray}.maxs0,.maxs1,.maxs2{stroke-linecap:round;stroke-linejoin:round;stroke-miterlimit:10}.maxs1{stroke-width:3;fill:#fff;stroke:#ee5586}.maxs2{fill:none;stroke:gray}.maxs4{fill:#ee5586}
  </style>
  <path class="maxs0" d="M190 15L10.6 3.7c-1.6 0-3 1.3-3 3v132.8c0 1.6 1.3 3 3 3H190c1.6 0 3-1.3 3-3V17.9c-.1-1.6-1.4-2.9-3-2.9zM637.5 24.1l-179.3-1.5c-1.6 0-3 1.3-3 3v113.8c0 1.6 1.3 3 3 3h179.3c1.6 0 3-1.3 3-3V27.1c-.1-1.6-1.4-3-3-3zM861.1 19.7l-179.3 3.7c-1.6 0-3 1.3-3 3v113.1c0 1.6 1.3 3 3 3h179.3c1.6 0 3-1.3 3-3V22.7c0-1.7-1.3-3-3-3zM1084.5 9l-179.3 9.2c-1.6 0-3 1.3-3 3v118.3c0 1.6 1.3 3 3 3h179.3c1.6 0 3-1.3 3-3V11.9c0-1.6-1.3-2.9-3-2.9zM905.2 289.6l179.3 11.3c1.6 0 3-1.3 3-3V165.1c0-1.6-1.3-3-3-3H905.2c-1.6 0-3 1.3-3 3v121.5c0 1.6 1.4 3 3 3zM457.7 280.4l179.3 1.5c1.6 0 3-1.3 3-3V165.1c0-1.6-1.3-3-3-3H457.7c-1.6 0-3 1.3-3 3v112.4c.1 1.6 1.4 2.9 3 2.9zM469.4 428.1l155.9 1.6c1.8 0 3.3-1.5 3.3-3.3L649.5 306c1.1-5.7 0-9.7-7.7-9.7H453.9c-7.2 0-9.2 4.3-8.6 10.1l20.8 118.4c0 1.8 1.5 3.3 3.3 3.3zM233.5 284.8l179.3-3.7c1.6 0 3-1.3 3-3v-113c0-1.6-1.3-3-3-3H233.5c-1.6 0-3 1.3-3 3v116.8c0 1.6 1.3 2.9 3 2.9zM10.6 295.6l179.3-9.2c1.6 0 3-1.3 3-3V165.1c0-1.6-1.3-3-3-3H10.6c-1.6 0-3 1.3-3 3v127.5c.1 1.6 1.4 3 3 3z"/>
  <path class="maxs0" d="M605 296.3H489.7c0-31.9 25.8-57.7 57.7-57.7s57.6 25.9 57.6 57.7z"/>
  <path class="maxs2" d="M448 329c-137.9 2.3-284.4 9-443.9 19.6M1094.2 348.6c-157.2-11.3-304.5-17.9-448.7-19.8"/>
  <circle id="svg-ico" class="maxs4" cx="4" cy="348.6" r="3"/>
  <circle id="svg-ico" class="maxs4" cx="1094.2" cy="348.6" r="3"/>
  <g>
    <path id="svg-concept" class="maxs1" d="M412.8 22.7L233.5 16c-1.6 0-3 1.3-3 3v120.5c0 1.6 1.3 3 3 3h179.3c1.6 0 3-1.3 3-3V25.6c0-1.6-1.4-2.9-3-2.9z"/>
    <animate attributeName="opacity" values="0;1;0" begin="0s" dur="1s" repeatCount="indefinite"/>
  </g>
  <g>
    <path id="svg-concept" class="maxs1" d="M681.8 281.9l179.3 6.6c1.6 0 3-1.3 3-3V165.1c0-1.6-1.3-3-3-3H681.8c-1.6 0-3 1.3-3 3v113.8c.1 1.6 1.4 3 3 3z"/>
    <animate attributeName="opacity" values="0;1;0" begin="1s" dur="1s" repeatCount="indefinite"/>
  </g>
</svg>
