<svg version="1.1" id="Layer_1" xmlns="http://www.w3.org/2000/svg" x="0" y="0" viewBox="0 0 674.4 597" xml:space="preserve">
  <style>
    .mo0,.mo1{stroke-miterlimit:10}.mo0{stroke-linecap:round;stroke-linejoin:round;fill:#fff;stroke:#ee5586}.mo1{fill:none;stroke:#d8d8d8}.mo2{stroke:gray;stroke-linecap:round;stroke-linejoin:round}.mo2,.mo3,.mo4,.mo5{fill:none;stroke-miterlimit:10}.mo3{stroke-linecap:round;stroke-linejoin:round;stroke:#ee5586}.mo4,.mo5{stroke:gray}.mo5{stroke:#d8d8d8;stroke-linecap:round;stroke-linejoin:round}.mo6{stroke:#efefef}.mo6,.mo7,.mo8{fill:none;stroke-linecap:round;stroke-linejoin:round}.mo7{stroke-dasharray:2.9819,2.9819;stroke:#efefef}.mo8{stroke:#ee5586;stroke-width:3;stroke-miterlimit:10}
  </style>
  <path d="M176.5 81.5h444.9c22 0 40 18 40 40v420c0 22-18 40-40 40h-570c-22 0-40-18-40-40v-420c0-22 18-40 40-40h50.1" fill="#fff" stroke="gray" stroke-linecap="round" stroke-linejoin="round" stroke-miterlimit="10"/>
  <path id="svg-concept" class="mo0" d="M601.8 161.9c0 1-.7 1.7-1.6 1.7h-56.5c-.9 0-1.6-.8-1.6-1.7v-6.2c0-1 .7-1.7 1.6-1.7h56.5c.9 0 1.6.8 1.6 1.7v6.2z"/>
  <path id="svg-concept" class="mo0" d="M594.3 158.8c0 1.1-.9 2.1-2.1 2.1-1.1 0-2.1-.9-2.1-2.1 0-1.1.9-2.1 2.1-2.1 1.2 0 2.1 1 2.1 2.1zM601.8 200.5c0 1-.7 1.7-1.6 1.7h-56.5c-.9 0-1.6-.8-1.6-1.7v-6.2c0-1 .7-1.7 1.6-1.7h56.5c.9 0 1.6.8 1.6 1.7v6.2z"/>
  <path id="svg-concept" class="mo0" d="M594.3 197.4c0 1.1-.9 2.1-2.1 2.1-1.1 0-2.1-.9-2.1-2.1 0-1.1.9-2.1 2.1-2.1 1.2 0 2.1.9 2.1 2.1zM601.8 213.3c0 1-.7 1.7-1.6 1.7h-56.5c-.9 0-1.6-.8-1.6-1.7v-6.2c0-1 .7-1.7 1.6-1.7h56.5c.9 0 1.6.8 1.6 1.7v6.2z"/>
  <path id="svg-concept" class="mo0" d="M594.3 210.2c0 1.1-.9 2.1-2.1 2.1-1.1 0-2.1-.9-2.1-2.1 0-1.1.9-2.1 2.1-2.1 1.2.1 2.1 1 2.1 2.1zM510.4 149c0 1-.7 1.7-1.6 1.7h-56.5c-.9 0-1.6-.8-1.6-1.7v-6.2c0-1 .7-1.7 1.6-1.7h56.5c.9 0 1.6.8 1.6 1.7v6.2z"/>
  <path id="svg-concept" class="mo0" d="M502.9 145.9c0 1.1-.9 2.1-2.1 2.1-1.1 0-2.1-.9-2.1-2.1 0-1.1.9-2.1 2.1-2.1 1.2.1 2.1 1 2.1 2.1zM510.4 161.9c0 1-.7 1.7-1.6 1.7h-56.5c-.9 0-1.6-.8-1.6-1.7v-6.2c0-1 .7-1.7 1.6-1.7h56.5c.9 0 1.6.8 1.6 1.7v6.2z"/>
  <path id="svg-concept" class="mo0" d="M502.9 158.8c0 1.1-.9 2.1-2.1 2.1-1.1 0-2.1-.9-2.1-2.1 0-1.1.9-2.1 2.1-2.1 1.2 0 2.1 1 2.1 2.1z"/>
  <path class="mo1" d="M608.5 492.5c1.6 14-8.5 26.7-22.5 28.3-14 1.6-26.7-8.5-28.3-22.5-1.6-14 8.5-26.7 22.5-28.3 14.1-1.6 26.7 8.5 28.3 22.5z"/>
  <path class="mo2" d="M565.8 508.1c-2.2-2.9-3.6-6.5-4.1-10.4-1.3-11.8 7.2-22.4 18.9-23.8 7.9-.9 15.3 2.6 19.7 8.6"/>
  <path id="svg-concept" class="mo3" d="M599.5 495.2l-16.2.2"/>
  <path class="mo2" d="M589.7 475l-.7 2.2"/>
  <path id="svg-concept" class="mo3" d="M600.4 482.7l-1.8 1.3M604.6 495.1h-2.1M600.6 507.8l-1.8-1.3"/>
  <path class="mo2" d="M561.6 495.5h2.3M565.7 482.8l1.9 1.3M576.4 475l.8 2.1M565.8 508.1l1.7-1.2"/>
  <path id="svg-concept" class="mo0" d="M583.8 495.4c0 .3-.3.6-.6.6s-.6-.3-.6-.6.3-.6.6-.6c.4 0 .6.3.6.6z"/>
  <path class="mo1" d="M608.5 415.4c1.6 14-8.5 26.7-22.5 28.3-14 1.6-26.7-8.5-28.3-22.5-1.6-14 8.5-26.7 22.5-28.3 14.1-1.6 26.7 8.5 28.3 22.5z"/>
  <path class="mo2" d="M565.8 431.1c-2.2-2.9-3.6-6.5-4.1-10.4-1.3-11.8 7.2-22.4 18.9-23.8 7.9-.9 15.3 2.6 19.7 8.6"/>
  <path id="svg-concept" class="mo3" d="M578.7 405.6l4.6 12.7"/>
  <path class="mo2" d="M589.7 397.9l-.7 2.2"/>
  <path id="svg-concept" class="mo3" d="M600.4 405.6l-1.8 1.4M604.6 418l-2.1.1M600.6 430.7l-1.8-1.3"/>
  <path class="mo2" d="M561.6 418.4h2.3M565.7 405.7l1.9 1.3M576.4 397.9l.8 2.2M565.8 431.1l1.7-1.3"/>
  <path id="svg-concept" class="mo0" d="M583.8 418.3c0 .3-.3.6-.6.6s-.6-.3-.6-.6.3-.6.6-.6c.4 0 .6.3.6.6z"/>
  <path class="mo1" d="M608.5 338.3c1.6 14-8.5 26.7-22.5 28.3-14 1.6-26.7-8.5-28.3-22.5-1.6-14 8.5-26.7 22.5-28.3 14.1-1.6 26.7 8.5 28.3 22.5z"/>
  <path class="mo2" d="M565.8 354c-2.2-2.9-3.6-6.5-4.1-10.4-1.3-11.8 7.2-22.4 18.9-23.8 7.9-.9 15.3 2.6 19.7 8.6"/>
  <path id="svg-concept" class="mo3" d="M590.8 330.1l-7.5 11.1"/>
  <path class="mo2" d="M589.7 320.8l-.7 2.2"/>
  <path id="svg-concept" class="mo3" d="M600.4 328.5l-1.8 1.4M604.6 341h-2.1M600.6 353.6l-1.8-1.3"/>
  <path class="mo2" d="M561.6 341.3h2.3M565.7 328.6l1.9 1.3M576.4 320.8l.8 2.2M565.8 354l1.7-1.3"/>
  <path id="svg-concept" class="mo0" d="M583.8 341.2c0 .3-.3.6-.6.6s-.6-.3-.6-.6.3-.6.6-.6c.4 0 .6.3.6.6z"/>
  <path class="mo1" d="M617.3 571.1H55.5c-18.4 0-33.4-15-33.4-33.4V125.3c0-18.4 15-33.4 33.4-33.4h561.8c18.4 0 33.4 15 33.4 33.4v412.4c0 18.4-15.1 33.4-33.4 33.4z"/>
  <path class="mo4" d="M101.5 81.5V71.1h8.4M168.3 71.1h8.2v10.4"/>
  <path class="mo5" d="M71.5 520.7h453.3"/>
  <path class="mo6" d="M71.5 364.1H73"/>
  <path class="mo7" d="M76 364.1h445.8"/>
  <path class="mo6" d="M523.3 364.1h1.5M71.5 462.2H73"/>
  <path class="mo7" d="M76 462.2h445.8"/>
  <path class="mo6" d="M523.3 462.2h1.5M76.3 413.4h1.5"/>
  <path class="mo7" d="M80.8 413.4h445.8"/>
  <path class="mo6" d="M528.1 413.4h1.5"/>
  <path class="mo5" d="M371.8 267.8h35.1M463.2 267.8h35.2M554.4 267.8h35.2M71.5 520.7V295.8M608.1 248.4h-72v-127h72v127z"/>
  <path class="mo5" d="M601.8 136.2c0 1-.7 1.7-1.6 1.7h-56.5c-.9 0-1.6-.8-1.6-1.7V130c0-1 .7-1.7 1.6-1.7h56.5c.9 0 1.6.8 1.6 1.7v6.2z"/>
  <path class="mo2" d="M594.3 133.1c0 1.1-.9 2.1-2.1 2.1-1.1 0-2.1-.9-2.1-2.1s.9-2.1 2.1-2.1c1.2 0 2.1.9 2.1 2.1z"/>
  <path class="mo5" d="M601.8 149c0 1-.7 1.7-1.6 1.7h-56.5c-.9 0-1.6-.8-1.6-1.7v-6.2c0-1 .7-1.7 1.6-1.7h56.5c.9 0 1.6.8 1.6 1.7v6.2z"/>
  <path class="mo2" d="M594.3 145.9c0 1.1-.9 2.1-2.1 2.1-1.1 0-2.1-.9-2.1-2.1 0-1.1.9-2.1 2.1-2.1 1.2.1 2.1 1 2.1 2.1z"/>
  <path class="mo5" d="M601.8 174.8c0 1-.7 1.7-1.6 1.7h-56.5c-.9 0-1.6-.8-1.6-1.7v-6.2c0-1 .7-1.7 1.6-1.7h56.5c.9 0 1.6.8 1.6 1.7v6.2z"/>
  <path class="mo2" d="M594.3 171.7c0 1.1-.9 2.1-2.1 2.1-1.1 0-2.1-.9-2.1-2.1 0-1.1.9-2.1 2.1-2.1 1.2 0 2.1.9 2.1 2.1z"/>
  <path class="mo5" d="M601.8 187.6c0 1-.7 1.7-1.6 1.7h-56.5c-.9 0-1.6-.8-1.6-1.7v-6.2c0-1 .7-1.7 1.6-1.7h56.5c.9 0 1.6.8 1.6 1.7v6.2z"/>
  <path class="mo2" d="M594.3 184.5c0 1.1-.9 2.1-2.1 2.1-1.1 0-2.1-.9-2.1-2.1s.9-2.1 2.1-2.1c1.2.1 2.1 1 2.1 2.1z"/>
  <path class="mo5" d="M601.8 226.2c0 1-.7 1.7-1.6 1.7h-56.5c-.9 0-1.6-.8-1.6-1.7V220c0-1 .7-1.7 1.6-1.7h56.5c.9 0 1.6.8 1.6 1.7v6.2z"/>
  <path class="mo2" d="M594.3 223.1c0 1.1-.9 2.1-2.1 2.1-1.1 0-2.1-.9-2.1-2.1 0-1.1.9-2.1 2.1-2.1 1.2 0 2.1 1 2.1 2.1z"/>
  <path class="mo5" d="M601.8 239.1c0 1-.7 1.7-1.6 1.7h-56.5c-.9 0-1.6-.8-1.6-1.7v-6.2c0-1 .7-1.7 1.6-1.7h56.5c.9 0 1.6.8 1.6 1.7v6.2z"/>
  <path class="mo2" d="M594.3 236c0 1.1-.9 2.1-2.1 2.1-1.1 0-2.1-.9-2.1-2.1s.9-2.1 2.1-2.1c1.2 0 2.1.9 2.1 2.1z"/>
  <path class="mo5" d="M516.7 248.4h-72v-127h72v127z"/>
  <path class="mo5" d="M510.4 136.2c0 1-.7 1.7-1.6 1.7h-56.5c-.9 0-1.6-.8-1.6-1.7V130c0-1 .7-1.7 1.6-1.7h56.5c.9 0 1.6.8 1.6 1.7v6.2z"/>
  <path class="mo2" d="M502.9 133.1c0 1.1-.9 2.1-2.1 2.1-1.1 0-2.1-.9-2.1-2.1s.9-2.1 2.1-2.1c1.2 0 2.1.9 2.1 2.1z"/>
  <path class="mo5" d="M510.4 174.8c0 1-.7 1.7-1.6 1.7h-56.5c-.9 0-1.6-.8-1.6-1.7v-6.2c0-1 .7-1.7 1.6-1.7h56.5c.9 0 1.6.8 1.6 1.7v6.2z"/>
  <path class="mo2" d="M502.9 171.7c0 1.1-.9 2.1-2.1 2.1-1.1 0-2.1-.9-2.1-2.1 0-1.1.9-2.1 2.1-2.1 1.2 0 2.1.9 2.1 2.1z"/>
  <path class="mo5" d="M510.4 187.6c0 1-.7 1.7-1.6 1.7h-56.5c-.9 0-1.6-.8-1.6-1.7v-6.2c0-1 .7-1.7 1.6-1.7h56.5c.9 0 1.6.8 1.6 1.7v6.2z"/>
  <path class="mo2" d="M502.9 184.5c0 1.1-.9 2.1-2.1 2.1-1.1 0-2.1-.9-2.1-2.1s.9-2.1 2.1-2.1c1.2.1 2.1 1 2.1 2.1z"/>
  <path class="mo5" d="M510.4 200.5c0 1-.7 1.7-1.6 1.7h-56.5c-.9 0-1.6-.8-1.6-1.7v-6.2c0-1 .7-1.7 1.6-1.7h56.5c.9 0 1.6.8 1.6 1.7v6.2z"/>
  <path class="mo2" d="M502.9 197.4c0 1.1-.9 2.1-2.1 2.1-1.1 0-2.1-.9-2.1-2.1 0-1.1.9-2.1 2.1-2.1 1.2 0 2.1.9 2.1 2.1z"/>
  <path class="mo5" d="M510.4 213.3c0 1-.7 1.7-1.6 1.7h-56.5c-.9 0-1.6-.8-1.6-1.7v-6.2c0-1 .7-1.7 1.6-1.7h56.5c.9 0 1.6.8 1.6 1.7v6.2z"/>
  <path class="mo2" d="M502.9 210.2c0 1.1-.9 2.1-2.1 2.1-1.1 0-2.1-.9-2.1-2.1 0-1.1.9-2.1 2.1-2.1 1.2.1 2.1 1 2.1 2.1z"/>
  <path class="mo5" d="M510.4 226.2c0 1-.7 1.7-1.6 1.7h-56.5c-.9 0-1.6-.8-1.6-1.7V220c0-1 .7-1.7 1.6-1.7h56.5c.9 0 1.6.8 1.6 1.7v6.2z"/>
  <path class="mo2" d="M502.9 223.1c0 1.1-.9 2.1-2.1 2.1-1.1 0-2.1-.9-2.1-2.1 0-1.1.9-2.1 2.1-2.1 1.2 0 2.1 1 2.1 2.1z"/>
  <path class="mo5" d="M510.4 239.1c0 1-.7 1.7-1.6 1.7h-56.5c-.9 0-1.6-.8-1.6-1.7v-6.2c0-1 .7-1.7 1.6-1.7h56.5c.9 0 1.6.8 1.6 1.7v6.2z"/>
  <path class="mo2" d="M502.9 236c0 1.1-.9 2.1-2.1 2.1-1.1 0-2.1-.9-2.1-2.1s.9-2.1 2.1-2.1c1.2 0 2.1.9 2.1 2.1z"/>
  <path class="mo5" d="M425.3 248.4h-72v-127h72v127z"/>
  <path class="mo5" d="M419 136.2c0 1-.7 1.7-1.6 1.7h-56.5c-.9 0-1.6-.8-1.6-1.7V130c0-1 .7-1.7 1.6-1.7h56.5c.9 0 1.6.8 1.6 1.7v6.2z"/>
  <path class="mo2" d="M411.5 133.1c0 1.1-.9 2.1-2.1 2.1-1.1 0-2.1-.9-2.1-2.1s.9-2.1 2.1-2.1c1.2 0 2.1.9 2.1 2.1z"/>
  <path class="mo5" d="M419 149c0 1-.7 1.7-1.6 1.7h-56.5c-.9 0-1.6-.8-1.6-1.7v-6.2c0-1 .7-1.7 1.6-1.7h56.5c.9 0 1.6.8 1.6 1.7v6.2z"/>
  <path class="mo2" d="M411.5 145.9c0 1.1-.9 2.1-2.1 2.1-1.1 0-2.1-.9-2.1-2.1 0-1.1.9-2.1 2.1-2.1 1.2.1 2.1 1 2.1 2.1zM411.5 158.8c0 1.1-.9 2.1-2.1 2.1-1.1 0-2.1-.9-2.1-2.1 0-1.1.9-2.1 2.1-2.1 1.2 0 2.1 1 2.1 2.1z"/>
  <path class="mo5" d="M419 174.8c0 1-.7 1.7-1.6 1.7h-56.5c-.9 0-1.6-.8-1.6-1.7v-6.2c0-1 .7-1.7 1.6-1.7h56.5c.9 0 1.6.8 1.6 1.7v6.2z"/>
  <path class="mo2" d="M411.5 171.7c0 1.1-.9 2.1-2.1 2.1-1.1 0-2.1-.9-2.1-2.1 0-1.1.9-2.1 2.1-2.1 1.2 0 2.1.9 2.1 2.1z"/>
  <path class="mo5" d="M419 187.6c0 1-.7 1.7-1.6 1.7h-56.5c-.9 0-1.6-.8-1.6-1.7v-6.2c0-1 .7-1.7 1.6-1.7h56.5c.9 0 1.6.8 1.6 1.7v6.2z"/>
  <path class="mo2" d="M411.5 184.5c0 1.1-.9 2.1-2.1 2.1-1.1 0-2.1-.9-2.1-2.1s.9-2.1 2.1-2.1c1.2.1 2.1 1 2.1 2.1z"/>
  <path class="mo5" d="M419 200.5c0 1-.7 1.7-1.6 1.7h-56.5c-.9 0-1.6-.8-1.6-1.7v-6.2c0-1 .7-1.7 1.6-1.7h56.5c.9 0 1.6.8 1.6 1.7v6.2z"/>
  <path class="mo2" d="M411.5 197.4c0 1.1-.9 2.1-2.1 2.1-1.1 0-2.1-.9-2.1-2.1 0-1.1.9-2.1 2.1-2.1 1.2 0 2.1.9 2.1 2.1z"/>
  <path class="mo5" d="M419 213.3c0 1-.7 1.7-1.6 1.7h-56.5c-.9 0-1.6-.8-1.6-1.7v-6.2c0-1 .7-1.7 1.6-1.7h56.5c.9 0 1.6.8 1.6 1.7v6.2z"/>
  <path class="mo2" d="M411.5 210.2c0 1.1-.9 2.1-2.1 2.1-1.1 0-2.1-.9-2.1-2.1 0-1.1.9-2.1 2.1-2.1 1.2.1 2.1 1 2.1 2.1z"/>
  <path class="mo5" d="M419 226.2c0 1-.7 1.7-1.6 1.7h-56.5c-.9 0-1.6-.8-1.6-1.7V220c0-1 .7-1.7 1.6-1.7h56.5c.9 0 1.6.8 1.6 1.7v6.2z"/>
  <path class="mo2" d="M411.5 223.1c0 1.1-.9 2.1-2.1 2.1-1.1 0-2.1-.9-2.1-2.1 0-1.1.9-2.1 2.1-2.1 1.2 0 2.1 1 2.1 2.1z"/>
  <path class="mo5" d="M419 239.1c0 1-.7 1.7-1.6 1.7h-56.5c-.9 0-1.6-.8-1.6-1.7v-6.2c0-1 .7-1.7 1.6-1.7h56.5c.9 0 1.6.8 1.6 1.7v6.2z"/>
  <path class="mo2" d="M411.5 236c0 1.1-.9 2.1-2.1 2.1-1.1 0-2.1-.9-2.1-2.1s.9-2.1 2.1-2.1c1.2 0 2.1.9 2.1 2.1z"/>
  <path class="mo5" d="M280.4 267.8h35.2M333.9 248.4h-72v-127h72v127z"/>
  <path class="mo5" d="M327.6 136.2c0 1-.7 1.7-1.6 1.7h-56.5c-.9 0-1.6-.8-1.6-1.7V130c0-1 .7-1.7 1.6-1.7H326c.9 0 1.6.8 1.6 1.7v6.2z"/>
  <path class="mo2" d="M320.1 133.1c0 1.1-.9 2.1-2.1 2.1-1.1 0-2.1-.9-2.1-2.1s.9-2.1 2.1-2.1c1.2 0 2.1.9 2.1 2.1z"/>
  <path class="mo5" d="M327.6 149c0 1-.7 1.7-1.6 1.7h-56.5c-.9 0-1.6-.8-1.6-1.7v-6.2c0-1 .7-1.7 1.6-1.7H326c.9 0 1.6.8 1.6 1.7v6.2z"/>
  <path class="mo2" d="M320.1 145.9c0 1.1-.9 2.1-2.1 2.1-1.1 0-2.1-.9-2.1-2.1 0-1.1.9-2.1 2.1-2.1 1.2.1 2.1 1 2.1 2.1z"/>
  <path class="mo5" d="M327.6 161.9c0 1-.7 1.7-1.6 1.7h-56.5c-.9 0-1.6-.8-1.6-1.7v-6.2c0-1 .7-1.7 1.6-1.7H326c.9 0 1.6.8 1.6 1.7v6.2z"/>
  <path class="mo2" d="M320.1 158.8c0 1.1-.9 2.1-2.1 2.1-1.1 0-2.1-.9-2.1-2.1 0-1.1.9-2.1 2.1-2.1 1.2 0 2.1 1 2.1 2.1z"/>
  <path class="mo5" d="M327.6 174.8c0 1-.7 1.7-1.6 1.7h-56.5c-.9 0-1.6-.8-1.6-1.7v-6.2c0-1 .7-1.7 1.6-1.7H326c.9 0 1.6.8 1.6 1.7v6.2z"/>
  <path class="mo2" d="M320.1 171.7c0 1.1-.9 2.1-2.1 2.1-1.1 0-2.1-.9-2.1-2.1 0-1.1.9-2.1 2.1-2.1 1.2 0 2.1.9 2.1 2.1z"/>
  <path class="mo5" d="M327.6 187.6c0 1-.7 1.7-1.6 1.7h-56.5c-.9 0-1.6-.8-1.6-1.7v-6.2c0-1 .7-1.7 1.6-1.7H326c.9 0 1.6.8 1.6 1.7v6.2z"/>
  <path class="mo2" d="M320.1 184.5c0 1.1-.9 2.1-2.1 2.1-1.1 0-2.1-.9-2.1-2.1s.9-2.1 2.1-2.1c1.2.1 2.1 1 2.1 2.1z"/>
  <path class="mo5" d="M327.6 200.5c0 1-.7 1.7-1.6 1.7h-56.5c-.9 0-1.6-.8-1.6-1.7v-6.2c0-1 .7-1.7 1.6-1.7H326c.9 0 1.6.8 1.6 1.7v6.2z"/>
  <path class="mo2" d="M320.1 197.4c0 1.1-.9 2.1-2.1 2.1-1.1 0-2.1-.9-2.1-2.1 0-1.1.9-2.1 2.1-2.1 1.2 0 2.1.9 2.1 2.1z"/>
  <path class="mo5" d="M327.6 213.3c0 1-.7 1.7-1.6 1.7h-56.5c-.9 0-1.6-.8-1.6-1.7v-6.2c0-1 .7-1.7 1.6-1.7H326c.9 0 1.6.8 1.6 1.7v6.2z"/>
  <path class="mo2" d="M320.1 210.2c0 1.1-.9 2.1-2.1 2.1-1.1 0-2.1-.9-2.1-2.1 0-1.1.9-2.1 2.1-2.1 1.2.1 2.1 1 2.1 2.1z"/>
  <path class="mo5" d="M327.6 226.2c0 1-.7 1.7-1.6 1.7h-56.5c-.9 0-1.6-.8-1.6-1.7V220c0-1 .7-1.7 1.6-1.7H326c.9 0 1.6.8 1.6 1.7v6.2z"/>
  <path class="mo2" d="M320.1 223.1c0 1.1-.9 2.1-2.1 2.1-1.1 0-2.1-.9-2.1-2.1 0-1.1.9-2.1 2.1-2.1 1.2 0 2.1 1 2.1 2.1z"/>
  <path class="mo5" d="M327.6 239.1c0 1-.7 1.7-1.6 1.7h-56.5c-.9 0-1.6-.8-1.6-1.7v-6.2c0-1 .7-1.7 1.6-1.7H326c.9 0 1.6.8 1.6 1.7v6.2z"/>
  <path class="mo2" d="M320.1 236c0 1.1-.9 2.1-2.1 2.1-1.1 0-2.1-.9-2.1-2.1s.9-2.1 2.1-2.1c1.2 0 2.1.9 2.1 2.1z"/>
  <path class="mo5" d="M419 161.9c0 1-.7 1.7-1.6 1.7h-56.5c-.9 0-1.6-.8-1.6-1.7v-6.2c0-1 .7-1.7 1.6-1.7h56.5c.9 0 1.6.8 1.6 1.7v6.2z"/>
  <path id="svg-concept" class="mo3" d="M600.4 328.5c2.2 2.9 3.6 6.4 4 10.3.6 5.5-.9 10.7-3.8 14.8"/>
  <path class="mo1" d="M163.6 248.4c0-19.5 14.6-36.3 34.5-38.6 21.3-2.4 40.5 12.9 42.9 34.2.2 1.3.2 2.7.2 4"/>
  <path class="mo2" d="M169.9 248.8c-.2-16.5 12.2-30.8 29-32.7 12-1.4 23.2 4 29.9 13.1"/>
  <path id="svg-concept" class="mo3" d="M223.5 242.1l-20.8 6.3"/>
  <path class="mo2" d="M212.5 217.4l-1.1 3.4"/>
  <path id="svg-concept" class="mo3" d="M228.7 229.1l-2.8 2.1M235.1 248l-3.3.1"/>
  <path class="mo2" d="M169.8 248.6h3.4M176.1 229.3l2.8 2M192.4 217.5l1.1 3.3"/>
  <path id="svg-concept" class="mo0" d="M203.6 248.4c0 .5-.4.9-.9.9s-.9-.4-.9-.9.4-.9.9-.9c.5.1.9.5.9.9z"/>
  <path id="svg-concept" class="mo3" d="M228.7 229.1c3.3 4.4 5.5 9.8 6.1 15.7.1 1 .2 2.1.2 3.1"/>
  <path class="mo1" d="M71.5 248.4c0-19.5 14.6-36.3 34.5-38.6 21.3-2.4 40.5 12.9 42.9 34.2.2 1.3.2 2.7.2 4"/>
  <path class="mo2" d="M77.7 248.8c-.2-16.5 12.2-30.8 29-32.7 12-1.4 23.2 4 29.9 13.1"/>
  <path id="svg-concept" class="mo3" d="M123.7 230.3l-13.1 18.1"/>
  <path class="mo2" d="M120.3 217.4l-1 3.4"/>
  <path id="svg-concept" class="mo3" d="M136.6 229.1l-2.8 2.1M142.9 248l-3.2.1"/>
  <path class="mo2" d="M77.7 248.6h3.4M84 229.3l2.8 2M100.2 217.5l1.1 3.3"/>
  <path id="svg-concept" class="mo0" d="M111.4 248.4c0 .5-.4.9-.9.9s-.9-.4-.9-.9.4-.9.9-.9c.5.1.9.5.9.9z"/>
  <path id="svg-concept" class="mo3" d="M136.6 229.1c3.3 4.4 5.5 9.8 6.1 15.7.1 1 .2 2.1.2 3.1M600.4 405.6c2.2 2.9 3.6 6.4 4 10.3.6 5.5-.9 10.7-3.8 14.8M600.4 482.6c2.2 2.9 3.6 6.4 4 10.3.6 5.5-.9 10.7-3.8 14.8"/>
  <path class="mo4" d="M71.5 413.1l16.6-5.8 19.8 10.8 19.6-15 18.5 15.5 17.3-22.6 22.7 50.1 25.5-70.4 20.5 37.4 19-114.9 27.5 198.2 24.3-153.2 18.7 97.7 26-58.3 23.5 30.5 19-16.7 21 16.7 20 12.7 22.5-24.2 24.2 17.9 19.3-6.4h27.8"/>
  <path class="mo2" d="M661.4 188h4.3c1.1 0 2 .9 2 2v14.8c0 1.1-.9 2-2 2h-4.3M661.4 158.8h4.3c1.1 0 2 .9 2 2v14.8c0 1.1-.9 2-2 2h-4.3"/>
  <g>
    <path id="svg-concept" class="mo3" d="M103.7 53.9H89.5M188.8 53.9h-14.2M139 3.7V18M165.1 9.3l-8.4 14.1M112.9 9.5l8.4 14M183.8 28.1l-14 8.2M94.5 28.1l13.8 8.4"/>
    <animate attributeName="opacity" values="0;1;0" dur="1s" repeatCount="indefinite"/>
  </g>
  <g>
    <path id="svg-concept" d="M524.7 520.7c0 2.8-2.2 5-5 5s-5-2.2-5-5 2.2-5 5-5 5 2.3 5 5z" fill="#fff" stroke="#ee5586" stroke-width="2" stroke-linecap="round" stroke-linejoin="round" stroke-miterlimit="10"/>
    <animateMotion path="M0, 0 -448 0 -448 -225 -450 0 0 0 225" begin="0s" dur="20s" repeatCount="indefinite"/>
  </g>
  <g>
    <path id="svg-concept" class="mo8" d="M107.1 298.2v199.1"/>
    <animateMotion path="M420, 0 -35 0 420 0" begin="0s" dur="80s" repeatCount="indefinite"/>
  </g>
  <path id="svg-concept" class="mo8" d="M168.4 52.1l-.1 18.9-58.4.1v-19c0-16.2 13.1-29.2 29.2-29.2s29.3 13 29.3 29.2z"/>
</svg>
