<svg version="1.1" id="Layer_1" xmlns="http://www.w3.org/2000/svg" x="0" y="0" viewBox="0 0 1436.1 615" xml:space="preserve">
  <style>
    .st0{opacity:.5;fill:none;stroke:gray;stroke-linecap:round;stroke-linejoin:round;stroke-miterlimit:10;stroke-opacity:.5;enable-background:new}
  </style>
  <path class="st0" d="M54.2 412.9l48.3 48.3-48.3 48.3M12.8 448.4l35.5-35.5M48.3 509.5l-35.5-35.4"/>
  <path class="st0" d="M51.2 516.7c-2.3 0-4.2-1.9-4.2-4.2s1.9-4.2 4.2-4.2 4.2 1.9 4.2 4.2c0 2.3-1.8 4.2-4.2 4.2zM51.2 414.2c-2.3 0-4.2-1.9-4.2-4.2 0-2.3 1.9-4.2 4.2-4.2s4.2 1.9 4.2 4.2c0 2.3-1.8 4.2-4.2 4.2zM47 615c0-2.3 1.9-4.2 4.2-4.2s4.2 1.9 4.2 4.2M12.8 345.9l35.5-35.4M48.3 407l-35.5-35.4"/>
  <path class="st0" d="M54.2 310.5l48.3 48.2L54.2 407M54.2 208l48.3 48.2-48.3 48.3M12.8 243.4L48.3 208M48.3 304.5l-35.5-35.4"/>
  <path class="st0" d="M51.2 311.7c-2.3 0-4.2-1.9-4.2-4.2s1.9-4.2 4.2-4.2 4.2 1.9 4.2 4.2-1.8 4.2-4.2 4.2zM12.6 551.1l35.7-35.7M48.3 612l-35.7-35.6M54.2 515.4l48.3 48.3L54.2 612M0 615l25.3-25.3M0 563.7h51.3M64.1 551l-12.7 12.7M64.1 576.5l-12.8-12.8M25.6 486.9L.1 512.5M25.6 538L.1 512.5M25.6 384.4L.1 410M25.6 435.6L.1 410M25.6 281.9L.1 307.5M25.6 333L.1 307.5M0 461.2h51.3M64.1 448.4l-12.7 12.8M64.1 474l-12.8-12.8M55.4 512.5h47.2M55.4 615h47.2M55.4 409.9h47.2M55.4 307.4h47.2M55.4 205h47.2M55.4 102.5h47.2M0 358.7h51.3M64.1 346l-12.7 12.7M64.1 371.5l-12.8-12.8M0 256.2h51.3M64.1 243.5l-12.7 12.7M64.1 269l-12.8-12.8M51.2 209.2c-2.3 0-4.2-1.9-4.2-4.2s1.9-4.2 4.2-4.2 4.2 1.9 4.2 4.2-1.8 4.2-4.2 4.2zM12.8 140.9l35.5-35.4M48.3 202l-35.5-35.4"/>
  <path class="st0" d="M54.2 105.5l48.3 48.3L54.2 202M54.2 3l48.3 48.2-48.3 48.3M12.8 38.5L48.3 3M48.3 99.5L12.8 64.1"/>
  <path class="st0" d="M51.2 106.7c-2.3 0-4.2-1.9-4.2-4.2 0-2.3 1.9-4.2 4.2-4.2s4.2 1.9 4.2 4.2c0 2.3-1.8 4.2-4.2 4.2zM55.4 0c0 2.3-1.9 4.2-4.2 4.2S47 2.3 47 0M25.6 179.4L.1 205M25.6 230.6L.1 205M25.6 76.9L.1 102.5M25.6 128.1L.1 102.5M25.6 25.6L.1 0M0 153.8h51.3M64.1 141l-12.7 12.8M64.1 166.5l-12.8-12.7M0 51.2h51.3M64.6 38L51.4 51.2M64.1 64L51.3 51.2M156.7 412.9l48.3 48.3-48.3 48.3M115.4 448.4l35.4-35.5M150.8 509.5l-35.4-35.4"/>
  <path class="st0" d="M153.8 516.7c-2.3 0-4.2-1.9-4.2-4.2s1.9-4.2 4.2-4.2 4.2 1.9 4.2 4.2c0 2.3-1.9 4.2-4.2 4.2zM153.8 414.2c-2.3 0-4.2-1.9-4.2-4.2 0-2.3 1.9-4.2 4.2-4.2s4.2 1.9 4.2 4.2c0 2.3-1.9 4.2-4.2 4.2zM149.6 615c0-2.3 1.9-4.2 4.2-4.2s4.2 1.9 4.2 4.2M115.4 345.9l35.4-35.4M150.8 407l-35.4-35.4"/>
  <path class="st0" d="M156.7 310.5l48.3 48.2-48.3 48.3M156.7 208l48.3 48.2-48.3 48.3M115.4 243.4l35.4-35.4M150.8 304.5l-35.4-35.4"/>
  <path class="st0" d="M153.8 311.7c-2.3 0-4.2-1.9-4.2-4.2s1.9-4.2 4.2-4.2 4.2 1.9 4.2 4.2-1.9 4.2-4.2 4.2zM115.2 551.1l35.6-35.7M150.8 612l-35.6-35.6M156.7 515.4l48.3 48.3-48.3 48.3M102.5 615l25.3-25.3M102.5 563.7h51.4M166.7 551l-12.8 12.7M166.7 576.5l-12.8-12.8M128.2 486.9l-25.6 25.6M128.2 538l-25.6-25.5M128.2 384.4L102.6 410M128.2 435.6L102.6 410M128.2 281.9l-25.6 25.6M128.2 333l-25.6-25.5M102.5 461.2h51.4M166.7 448.4l-12.8 12.8M166.7 474l-12.8-12.8M158 512.5h47.1M158 615h47.1M158 409.9h47.1M158 307.4h47.1M158 205h47.1M158 102.5h47.1M102.5 358.7h51.4M166.7 346l-12.8 12.7M166.7 371.5l-12.8-12.8M102.5 256.2h51.4M166.7 243.5l-12.8 12.7M166.7 269l-12.8-12.8M153.8 209.2c-2.3 0-4.2-1.9-4.2-4.2s1.9-4.2 4.2-4.2 4.2 1.9 4.2 4.2-1.9 4.2-4.2 4.2zM115.4 140.9l35.4-35.4M150.8 202l-35.4-35.4"/>
  <path class="st0" d="M156.7 105.5l48.3 48.3-48.3 48.2M156.7 3L205 51.2l-48.3 48.3M115.3 38.5L150.8 3M150.8 99.5l-35.4-35.4"/>
  <path class="st0" d="M153.8 106.7c-2.3 0-4.2-1.9-4.2-4.2 0-2.3 1.9-4.2 4.2-4.2s4.2 1.9 4.2 4.2c0 2.3-1.9 4.2-4.2 4.2zM158 0c0 2.3-1.9 4.2-4.2 4.2s-4.2-1.9-4.2-4.2M128.2 179.4L102.6 205M128.2 230.6L102.6 205M128.2 76.9l-25.6 25.6M128.2 128.1l-25.6-25.6M128.2 25.6L102.6 0M102.5 153.8h51.4M166.7 141l-12.8 12.8M166.7 166.5l-12.8-12.7M102.5 51.2h51.4M167.1 38l-13.2 13.2M166.7 64l-12.8-12.8M259.2 412.9l48.3 48.3-48.3 48.3M217.9 448.4l35.4-35.5M253.3 509.5l-35.4-35.4"/>
  <path class="st0" d="M256.2 516.7c-2.3 0-4.2-1.9-4.2-4.2s1.9-4.2 4.2-4.2c2.3 0 4.2 1.9 4.2 4.2 0 2.3-1.8 4.2-4.2 4.2zM256.2 414.2c-2.3 0-4.2-1.9-4.2-4.2 0-2.3 1.9-4.2 4.2-4.2 2.3 0 4.2 1.9 4.2 4.2 0 2.3-1.8 4.2-4.2 4.2zM252.1 615c0-2.3 1.9-4.2 4.2-4.2s4.2 1.9 4.2 4.2M217.9 345.9l35.4-35.4M253.3 407l-35.4-35.4"/>
  <path class="st0" d="M259.2 310.5l48.3 48.2-48.3 48.3M259.2 208l48.3 48.2-48.3 48.3M217.9 243.4l35.4-35.4M253.3 304.5l-35.4-35.4"/>
  <path class="st0" d="M256.2 311.7c-2.3 0-4.2-1.9-4.2-4.2s1.9-4.2 4.2-4.2c2.3 0 4.2 1.9 4.2 4.2s-1.8 4.2-4.2 4.2zM217.6 551.1l35.7-35.7M253.3 612l-35.7-35.6M259.2 515.4l48.3 48.3-48.3 48.3M205 615l25.3-25.3M205 563.7h51.4M269.1 551l-12.7 12.7M269.1 576.5l-12.7-12.8M230.6 486.9l-25.5 25.6M230.6 538l-25.5-25.5M230.6 384.4L205.1 410M230.6 435.6L205.1 410M230.6 281.9l-25.5 25.6M230.6 333l-25.5-25.5M205 461.2h51.4M269.1 448.4l-12.7 12.8M269.1 474l-12.7-12.8M260.4 512.5h47.2M260.4 615h47.2M260.4 409.9h47.2M260.4 307.4h47.2M260.4 205h47.2M260.4 102.5h47.2M205 358.7h51.4M269.1 346l-12.7 12.7M269.1 371.5l-12.7-12.8M205 256.2h51.4M269.1 243.5l-12.7 12.7M269.1 269l-12.7-12.8M256.2 209.2c-2.3 0-4.2-1.9-4.2-4.2s1.9-4.2 4.2-4.2c2.3 0 4.2 1.9 4.2 4.2 0 2.3-1.8 4.2-4.2 4.2zM217.9 140.9l35.4-35.4M253.3 202l-35.4-35.4"/>
  <path class="st0" d="M259.2 105.5l48.3 48.3-48.3 48.2M259.2 3l48.3 48.2-48.3 48.3M217.8 38.5L253.3 3M253.3 99.5l-35.4-35.4"/>
  <path class="st0" d="M256.2 106.7c-2.3 0-4.2-1.9-4.2-4.2 0-2.3 1.9-4.2 4.2-4.2 2.3 0 4.2 1.9 4.2 4.2 0 2.3-1.8 4.2-4.2 4.2zM260.4 0c0 2.3-1.9 4.2-4.2 4.2S252 2.3 252 0M230.6 179.4L205.1 205M230.6 230.6L205.1 205M230.6 76.9l-25.5 25.6M230.6 128.1l-25.5-25.6M230.6 25.6L205.1 0M205 153.8h51.4M269.1 141l-12.7 12.8M269.1 166.5l-12.7-12.7M205 51.2h51.4M269.6 38l-13.2 13.2M269.1 64l-12.7-12.8M361.7 412.9l48.3 48.3-48.3 48.3M320.4 448.4l35.4-35.5M355.8 509.5l-35.4-35.4"/>
  <path class="st0" d="M358.8 516.7c-2.3 0-4.2-1.9-4.2-4.2s1.9-4.2 4.2-4.2 4.2 1.9 4.2 4.2c0 2.3-1.9 4.2-4.2 4.2zM358.8 414.2c-2.3 0-4.2-1.9-4.2-4.2 0-2.3 1.9-4.2 4.2-4.2s4.2 1.9 4.2 4.2c0 2.3-1.9 4.2-4.2 4.2zM354.6 615c0-2.3 1.9-4.2 4.2-4.2s4.2 1.9 4.2 4.2M320.4 345.9l35.4-35.4M355.8 407l-35.4-35.4"/>
  <path class="st0" d="M361.7 310.5l48.3 48.2-48.3 48.3M361.7 208l48.3 48.2-48.3 48.3M320.4 243.4l35.4-35.4M355.8 304.5l-35.4-35.4"/>
  <path class="st0" d="M358.8 311.7c-2.3 0-4.2-1.9-4.2-4.2s1.9-4.2 4.2-4.2 4.2 1.9 4.2 4.2-1.9 4.2-4.2 4.2zM320.2 551.1l35.6-35.7M355.8 612l-35.6-35.6M361.7 515.4l48.3 48.3-48.3 48.3M307.5 615l25.3-25.3M307.5 563.7h51.4M371.7 551l-12.8 12.7M371.7 576.5l-12.8-12.8M333.2 486.9l-25.6 25.6M333.2 538l-25.6-25.5M333.2 384.4L307.6 410M333.2 435.6L307.6 410M333.2 281.9l-25.6 25.6M333.2 333l-25.6-25.5M307.5 461.2h51.4M371.7 448.4l-12.8 12.8M371.7 474l-12.8-12.8M363 512.5h47.1M363 615h47.1M363 409.9h47.1M363 307.4h47.1M363 205h47.1M363 102.5h47.1M307.5 358.7h51.4M371.7 346l-12.8 12.7M371.7 371.5l-12.8-12.8M307.5 256.2h51.4M371.7 243.5l-12.8 12.7M371.7 269l-12.8-12.8M358.8 209.2c-2.3 0-4.2-1.9-4.2-4.2s1.9-4.2 4.2-4.2 4.2 1.9 4.2 4.2-1.9 4.2-4.2 4.2zM320.4 140.9l35.4-35.4M355.8 202l-35.4-35.4"/>
  <path class="st0" d="M361.7 105.5l48.3 48.3-48.3 48.2M361.7 3L410 51.2l-48.3 48.3M320.3 38.5L355.8 3M355.8 99.5l-35.4-35.4"/>
  <path class="st0" d="M358.8 106.7c-2.3 0-4.2-1.9-4.2-4.2 0-2.3 1.9-4.2 4.2-4.2s4.2 1.9 4.2 4.2c0 2.3-1.9 4.2-4.2 4.2zM363 0c0 2.3-1.9 4.2-4.2 4.2s-4.2-1.9-4.2-4.2M333.2 179.4L307.6 205M333.2 230.6L307.6 205M333.2 76.9l-25.6 25.6M333.2 128.1l-25.6-25.6M333.2 25.6L307.6 0M307.5 153.8h51.4M371.7 141l-12.8 12.8M371.7 166.5l-12.8-12.7M307.5 51.2h51.4M372.1 38l-13.2 13.2M371.7 64l-12.8-12.8M464.2 412.9l48.3 48.3-48.3 48.3M422.9 448.4l35.4-35.5M458.3 509.5l-35.4-35.4"/>
  <path class="st0" d="M461.3 516.7c-2.3 0-4.2-1.9-4.2-4.2s1.9-4.2 4.2-4.2 4.2 1.9 4.2 4.2c0 2.3-1.9 4.2-4.2 4.2zM461.3 414.2c-2.3 0-4.2-1.9-4.2-4.2 0-2.3 1.9-4.2 4.2-4.2s4.2 1.9 4.2 4.2c0 2.3-1.9 4.2-4.2 4.2zM457.1 615c0-2.3 1.9-4.2 4.2-4.2s4.2 1.9 4.2 4.2M422.9 345.9l35.4-35.4M458.3 407l-35.4-35.4"/>
  <path class="st0" d="M464.2 310.5l48.3 48.2-48.3 48.3M464.2 208l48.3 48.2-48.3 48.3M422.9 243.4l35.4-35.4M458.3 304.5l-35.4-35.4"/>
  <path class="st0" d="M461.3 311.7c-2.3 0-4.2-1.9-4.2-4.2s1.9-4.2 4.2-4.2 4.2 1.9 4.2 4.2-1.9 4.2-4.2 4.2zM422.6 551.1l35.7-35.7M458.3 612l-35.7-35.6M464.2 515.4l48.3 48.3-48.3 48.3M410 615l25.3-25.3M410 563.7h51.4M474.1 551l-12.7 12.7M474.1 576.5l-12.7-12.8M435.6 486.9l-25.5 25.6M435.6 538l-25.5-25.5M435.6 384.4L410.1 410M435.6 435.6L410.1 410M435.6 281.9l-25.5 25.6M435.6 333l-25.5-25.5M410 461.2h51.4M474.1 448.4l-12.7 12.8M474.1 474l-12.7-12.8M465.5 512.5h47.1M465.5 615h47.1M465.5 409.9h47.1M465.5 307.4h47.1M465.5 205h47.1M465.5 102.5h47.1M410 358.7h51.4M474.1 346l-12.7 12.7M474.1 371.5l-12.7-12.8M410 256.2h51.4M474.1 243.5l-12.7 12.7M474.1 269l-12.7-12.8M461.3 209.2c-2.3 0-4.2-1.9-4.2-4.2s1.9-4.2 4.2-4.2 4.2 1.9 4.2 4.2-1.9 4.2-4.2 4.2zM422.9 140.9l35.4-35.4M458.3 202l-35.4-35.4"/>
  <path class="st0" d="M464.2 105.5l48.3 48.3-48.3 48.2M464.2 3l48.3 48.2-48.3 48.3M422.8 38.5L458.3 3M458.3 99.5l-35.4-35.4"/>
  <path class="st0" d="M461.3 106.7c-2.3 0-4.2-1.9-4.2-4.2 0-2.3 1.9-4.2 4.2-4.2s4.2 1.9 4.2 4.2c0 2.3-1.9 4.2-4.2 4.2zM465.5 0c0 2.3-1.9 4.2-4.2 4.2s-4.2-1.9-4.2-4.2M435.6 179.4L410.1 205M435.6 230.6L410.1 205M435.6 76.9l-25.5 25.6M435.6 128.1l-25.5-25.6M435.6 25.6L410.1 0M410 153.8h51.4M474.1 141l-12.7 12.8M474.1 166.5l-12.7-12.7M410 51.2h51.4M1284.3 412.9l48.3 48.3-48.3 48.3M1243 448.4l35.4-35.5M1278.4 509.5l-35.4-35.4"/>
  <path class="st0" d="M1281.4 516.7c-2.3 0-4.2-1.9-4.2-4.2s1.9-4.2 4.2-4.2c2.3 0 4.2 1.9 4.2 4.2 0 2.3-1.9 4.2-4.2 4.2zM1281.4 414.2c-2.3 0-4.2-1.9-4.2-4.2 0-2.3 1.9-4.2 4.2-4.2 2.3 0 4.2 1.9 4.2 4.2 0 2.3-1.9 4.2-4.2 4.2zM1277.2 615c0-2.3 1.9-4.2 4.2-4.2 2.3 0 4.2 1.9 4.2 4.2M1243 345.9l35.4-35.4M1278.4 407l-35.4-35.4"/>
  <path class="st0" d="M1284.3 310.5l48.3 48.2-48.3 48.3M1284.3 208l48.3 48.2-48.3 48.3M1243 243.4l35.4-35.4M1278.4 304.5l-35.4-35.4"/>
  <path class="st0" d="M1281.4 311.7c-2.3 0-4.2-1.9-4.2-4.2s1.9-4.2 4.2-4.2c2.3 0 4.2 1.9 4.2 4.2s-1.9 4.2-4.2 4.2zM1242.8 551.1l35.6-35.7M1278.4 612l-35.6-35.6M1284.3 515.4l48.3 48.3-48.3 48.3M1230.1 615l25.3-25.3M1230.1 563.7h51.4M1294.3 551l-12.8 12.7M1294.3 576.5l-12.8-12.8M1255.8 486.9l-25.6 25.6M1255.8 538l-25.6-25.5M1255.8 384.4l-25.6 25.6M1255.8 435.6l-25.6-25.6M1255.8 281.9l-25.6 25.6M1255.8 333l-25.6-25.5M1230.1 461.2h51.4M1294.3 448.4l-12.8 12.8M1294.3 474l-12.8-12.8M1285.6 512.5h47.1M1285.6 615h47.1M1285.6 409.9h47.1M1285.6 307.4h47.1M1285.6 205h47.1M1285.6 102.5h47.1M1230.1 358.7h51.4M1294.3 346l-12.8 12.7M1294.3 371.5l-12.8-12.8M1230.1 256.2h51.4M1294.3 243.5l-12.8 12.7M1294.3 269l-12.8-12.8M1281.4 209.2c-2.3 0-4.2-1.9-4.2-4.2s1.9-4.2 4.2-4.2c2.3 0 4.2 1.9 4.2 4.2s-1.9 4.2-4.2 4.2zM1243 140.9l35.4-35.4M1278.4 202l-35.4-35.4"/>
  <path class="st0" d="M1284.3 105.5l48.3 48.3-48.3 48.2M1284.3 3l48.3 48.2-48.3 48.3M1242.9 38.5L1278.4 3M1278.4 99.5L1243 64.1"/>
  <path class="st0" d="M1281.4 106.7c-2.3 0-4.2-1.9-4.2-4.2 0-2.3 1.9-4.2 4.2-4.2 2.3 0 4.2 1.9 4.2 4.2 0 2.3-1.9 4.2-4.2 4.2zM1285.6 0c0 2.3-1.9 4.2-4.2 4.2-2.3 0-4.2-1.9-4.2-4.2M1255.8 179.4l-25.6 25.6M1255.8 230.6l-25.6-25.6M1255.8 76.9l-25.6 25.6M1255.8 128.1l-25.6-25.6M1255.8 25.6L1230.2 0M1230.1 153.8h51.4M1294.3 141l-12.8 12.8M1294.3 166.5l-12.8-12.7M1230.1 51.2h51.4M1294.7 38l-13.2 13.2M1294.3 64l-12.8-12.8M1386.9 412.9l48.2 48.3-48.2 48.3M1345.5 448.4l35.4-35.5M1380.9 509.5l-35.4-35.4"/>
  <path class="st0" d="M1383.9 516.7c-2.3 0-4.2-1.9-4.2-4.2s1.9-4.2 4.2-4.2 4.2 1.9 4.2 4.2c0 2.3-1.9 4.2-4.2 4.2zM1383.9 414.2c-2.3 0-4.2-1.9-4.2-4.2 0-2.3 1.9-4.2 4.2-4.2s4.2 1.9 4.2 4.2c0 2.3-1.9 4.2-4.2 4.2zM1379.7 615c0-2.3 1.9-4.2 4.2-4.2s4.2 1.9 4.2 4.2M1345.5 345.9l35.4-35.4M1380.9 407l-35.4-35.4"/>
  <path class="st0" d="M1386.8 310.5l48.3 48.2-48.2 48.3M1386.9 208l48.2 48.2-48.2 48.3M1345.5 243.4l35.4-35.4M1380.9 304.5l-35.4-35.4"/>
  <path class="st0" d="M1383.9 311.7c-2.3 0-4.2-1.9-4.2-4.2s1.9-4.2 4.2-4.2 4.2 1.9 4.2 4.2-1.9 4.2-4.2 4.2zM1345.3 551.1l35.6-35.7M1380.9 612l-35.6-35.6M1386.8 515.4l48.3 48.3-48.2 48.3M1332.7 615l25.2-25.3M1332.7 563.7h51.3M1396.8 551l-12.8 12.7M1396.8 576.5l-12.8-12.8M1358.3 486.9l-25.6 25.6M1358.3 538l-25.6-25.5M1358.3 384.4l-25.6 25.6M1358.3 435.6l-25.6-25.6M1358.3 281.9l-25.6 25.6M1358.3 333l-25.6-25.5M1332.7 461.2h51.3M1396.8 448.4l-12.8 12.8M1396.8 474l-12.8-12.8M1388.1 512.5h47.1M1388.1 615h47.1M1388.1 409.9h47.1M1388.1 307.4h47.1M1388.1 205h47.1M1388.1 102.5h47.1M1332.7 358.7h51.3M1396.8 346l-12.8 12.7M1396.8 371.5l-12.8-12.8M1332.7 256.2h51.3M1396.8 243.5l-12.8 12.7M1396.8 269l-12.8-12.8M1383.9 209.2c-2.3 0-4.2-1.9-4.2-4.2s1.9-4.2 4.2-4.2 4.2 1.9 4.2 4.2-1.9 4.2-4.2 4.2zM1345.5 140.9l35.4-35.4M1380.9 202l-35.4-35.4"/>
  <path class="st0" d="M1386.8 105.5l48.3 48.3-48.2 48.2M1386.9 3l48.2 48.2-48.2 48.3M1345.4 38.5L1380.9 3M1380.9 99.5l-35.4-35.4"/>
  <path class="st0" d="M1383.9 106.7c-2.3 0-4.2-1.9-4.2-4.2 0-2.3 1.9-4.2 4.2-4.2s4.2 1.9 4.2 4.2c0 2.3-1.9 4.2-4.2 4.2zM1388.1 0c0 2.3-1.9 4.2-4.2 4.2s-4.2-1.9-4.2-4.2M1358.3 179.4l-25.6 25.6M1358.3 230.6l-25.6-25.6M1358.3 76.9l-25.6 25.6M1358.3 128.1l-25.6-25.6M1358.3 25.6L1332.7 0M1332.7 153.8h51.3M1396.8 141l-12.8 12.8M1396.8 166.5l-12.8-12.7M1332.7 51.2h51.3M1397.2 38L1384 51.2M1396.8 64L1384 51.2M474.6 38l-13.2 13.2M474.1 64l-12.7-12.8M566.7 412.9l48.3 48.3-48.3 48.3M525.4 448.4l35.4-35.5M560.8 509.5l-35.4-35.4"/>
  <path class="st0" d="M563.8 516.7c-2.3 0-4.2-1.9-4.2-4.2s1.9-4.2 4.2-4.2 4.2 1.9 4.2 4.2c0 2.3-1.9 4.2-4.2 4.2zM563.8 414.2c-2.3 0-4.2-1.9-4.2-4.2 0-2.3 1.9-4.2 4.2-4.2s4.2 1.9 4.2 4.2c0 2.3-1.9 4.2-4.2 4.2zM559.6 615c0-2.3 1.9-4.2 4.2-4.2s4.2 1.9 4.2 4.2M525.4 345.9l35.4-35.4M560.8 407l-35.4-35.4"/>
  <path class="st0" d="M566.7 310.5l48.3 48.2-48.3 48.3M566.7 208l48.3 48.2-48.3 48.3M525.4 243.4l35.4-35.4M560.8 304.5l-35.4-35.4"/>
  <path class="st0" d="M563.8 311.7c-2.3 0-4.2-1.9-4.2-4.2s1.9-4.2 4.2-4.2 4.2 1.9 4.2 4.2-1.9 4.2-4.2 4.2zM525.2 551.1l35.6-35.7M560.8 612l-35.6-35.6M566.7 515.4l48.3 48.3-48.3 48.3M512.5 615l25.3-25.3M512.5 563.7h51.4M576.7 551l-12.8 12.7M576.7 576.5l-12.8-12.8M538.2 486.9l-25.6 25.6M538.2 538l-25.6-25.5M538.2 384.4L512.6 410M538.2 435.6L512.6 410M538.2 281.9l-25.6 25.6M538.2 333l-25.6-25.5M512.5 461.2h51.4M576.7 448.4l-12.8 12.8M576.7 474l-12.8-12.8M568 512.5h47.1M568 615h47.1M568 409.9h47.1M568 307.4h47.1M568 205h47.1M568 102.5h47.1M512.5 358.7h51.4M576.7 346l-12.8 12.7M576.7 371.5l-12.8-12.8M512.5 256.2h51.4M576.7 243.5l-12.8 12.7M576.7 269l-12.8-12.8M563.8 209.2c-2.3 0-4.2-1.9-4.2-4.2s1.9-4.2 4.2-4.2 4.2 1.9 4.2 4.2-1.9 4.2-4.2 4.2zM525.4 140.9l35.4-35.4M560.8 202l-35.4-35.4"/>
  <path class="st0" d="M566.7 105.5l48.3 48.3-48.3 48.2M566.7 3L615 51.2l-48.3 48.3M525.3 38.5L560.8 3M560.8 99.5l-35.4-35.4"/>
  <path class="st0" d="M563.8 106.7c-2.3 0-4.2-1.9-4.2-4.2 0-2.3 1.9-4.2 4.2-4.2s4.2 1.9 4.2 4.2c0 2.3-1.9 4.2-4.2 4.2zM568 0c0 2.3-1.9 4.2-4.2 4.2s-4.2-1.9-4.2-4.2M538.2 179.4L512.6 205M538.2 230.6L512.6 205M538.2 76.9l-25.6 25.6M538.2 128.1l-25.6-25.6M538.2 25.6L512.6 0M512.5 153.8h51.4M576.7 141l-12.8 12.8M576.7 166.5l-12.8-12.7M512.5 51.2h51.4M577.1 38l-13.2 13.2M576.7 64l-12.8-12.8M669.3 412.9l48.2 48.3-48.2 48.3M627.9 448.4l35.4-35.5M663.3 509.5l-35.4-35.4"/>
  <path class="st0" d="M666.3 516.7c-2.3 0-4.2-1.9-4.2-4.2s1.9-4.2 4.2-4.2 4.2 1.9 4.2 4.2c0 2.3-1.9 4.2-4.2 4.2zM666.3 414.2c-2.3 0-4.2-1.9-4.2-4.2 0-2.3 1.9-4.2 4.2-4.2s4.2 1.9 4.2 4.2c0 2.3-1.9 4.2-4.2 4.2zM662.1 615c0-2.3 1.9-4.2 4.2-4.2s4.2 1.9 4.2 4.2M627.9 345.9l35.5-35.4M663.3 407l-35.4-35.4"/>
  <path class="st0" d="M669.3 310.5l48.2 48.2-48.2 48.3M669.3 208l48.2 48.2-48.2 48.3M627.9 243.4l35.4-35.4M663.3 304.5l-35.4-35.4"/>
  <path class="st0" d="M666.3 311.7c-2.3 0-4.2-1.9-4.2-4.2s1.9-4.2 4.2-4.2 4.2 1.9 4.2 4.2-1.9 4.2-4.2 4.2zM627.7 551.1l35.7-35.7M663.3 612l-35.6-35.6M669.3 515.4l48.2 48.3-48.2 48.3M615.1 615l25.2-25.3M615.1 563.7h51.3M679.2 551l-12.8 12.7M679.2 576.5l-12.8-12.8M640.7 486.9l-25.6 25.6M640.7 538l-25.6-25.5M640.7 384.4L615.1 410M640.7 435.6L615.1 410M640.7 281.9l-25.6 25.6M640.7 333l-25.6-25.5M615.1 461.2h51.3M679.2 448.4l-12.8 12.8M679.2 474l-12.8-12.8M670.5 512.5h47.2M670.5 615h47.2M670.5 409.9h47.2M670.5 307.4h47.2M670.5 205h47.2M670.5 102.5h47.2M615.1 358.7h51.3M679.2 346l-12.8 12.7M679.2 371.5l-12.8-12.8M615.1 256.2h51.3M679.2 243.5l-12.8 12.7M679.2 269l-12.8-12.8M666.3 209.2c-2.3 0-4.2-1.9-4.2-4.2s1.9-4.2 4.2-4.2 4.2 1.9 4.2 4.2-1.9 4.2-4.2 4.2zM627.9 140.9l35.5-35.4M663.3 202l-35.4-35.4"/>
  <path class="st0" d="M669.3 105.5l48.2 48.3-48.2 48.2M669.3 3l48.2 48.2-48.2 48.3M627.8 38.5L663.3 3M663.3 99.5l-35.4-35.4"/>
  <path class="st0" d="M666.3 106.7c-2.3 0-4.2-1.9-4.2-4.2 0-2.3 1.9-4.2 4.2-4.2s4.2 1.9 4.2 4.2c0 2.3-1.9 4.2-4.2 4.2zM670.5 0c0 2.3-1.9 4.2-4.2 4.2s-4.2-1.9-4.2-4.2M640.7 179.4L615.1 205M640.7 230.6L615.1 205M640.7 76.9l-25.6 25.6M640.7 128.1l-25.6-25.6M640.7 25.6L615.1 0M615.1 153.8h51.3M679.2 141l-12.8 12.8M679.2 166.5l-12.8-12.7M615.1 51.2h51.3M679.7 38l-13.3 13.2M679.2 64l-12.8-12.8M771.8 412.9l48.3 48.3-48.3 48.3M730.4 448.4l35.5-35.5M765.9 509.5l-35.5-35.4"/>
  <path class="st0" d="M768.8 516.7c-2.3 0-4.2-1.9-4.2-4.2s1.9-4.2 4.2-4.2 4.2 1.9 4.2 4.2c0 2.3-1.9 4.2-4.2 4.2zM768.8 414.2c-2.3 0-4.2-1.9-4.2-4.2 0-2.3 1.9-4.2 4.2-4.2s4.2 1.9 4.2 4.2c0 2.3-1.9 4.2-4.2 4.2zM764.6 615c0-2.3 1.9-4.2 4.2-4.2s4.2 1.9 4.2 4.2M730.4 345.9l35.5-35.4M765.9 407l-35.5-35.4"/>
  <path class="st0" d="M771.8 310.5l48.3 48.2-48.3 48.3M771.8 208l48.3 48.2-48.3 48.3M730.4 243.4l35.5-35.4M765.9 304.5l-35.5-35.4"/>
  <path class="st0" d="M768.8 311.7c-2.3 0-4.2-1.9-4.2-4.2s1.9-4.2 4.2-4.2 4.2 1.9 4.2 4.2-1.9 4.2-4.2 4.2zM730.2 551.1l35.7-35.7M765.9 612l-35.7-35.6M771.8 515.4l48.3 48.3-48.3 48.3M717.6 615l25.3-25.3M717.6 563.7h51.3M781.7 551l-12.8 12.7M781.7 576.5l-12.8-12.8M743.2 486.9l-25.5 25.6M743.2 538l-25.6-25.5M743.2 384.4L717.7 410M743.2 435.6L717.6 410M743.2 281.9l-25.5 25.6M743.2 333l-25.6-25.5M717.6 461.2h51.3M781.7 448.4l-12.8 12.8M781.7 474l-12.8-12.8M773 512.5h47.2M773 615h47.2M773 409.9h47.2M773 307.4h47.2M773 205h47.2M773 102.5h47.2M717.6 358.7h51.3M781.7 346l-12.8 12.7M781.7 371.5l-12.8-12.8M717.6 256.2h51.3M781.7 243.5l-12.8 12.7M781.7 269l-12.8-12.8M768.8 209.2c-2.3 0-4.2-1.9-4.2-4.2s1.9-4.2 4.2-4.2 4.2 1.9 4.2 4.2-1.9 4.2-4.2 4.2zM730.4 140.9l35.5-35.4M765.9 202l-35.5-35.4"/>
  <path class="st0" d="M771.8 105.5l48.3 48.3-48.3 48.2M771.8 3l48.3 48.2-48.3 48.3M730.4 38.5L765.9 3M765.9 99.5l-35.5-35.4"/>
  <path class="st0" d="M768.8 106.7c-2.3 0-4.2-1.9-4.2-4.2 0-2.3 1.9-4.2 4.2-4.2s4.2 1.9 4.2 4.2c0 2.3-1.9 4.2-4.2 4.2zM773 0c0 2.3-1.9 4.2-4.2 4.2s-4.2-1.9-4.2-4.2M743.2 179.4L717.7 205M743.2 230.6L717.6 205M743.2 76.9l-25.5 25.6M743.2 128.1l-25.6-25.6M743.2 25.6L717.6 0M717.6 153.8h51.3M781.7 141l-12.8 12.8M781.7 166.5l-12.8-12.7M717.6 51.2h51.3M782.2 38l-13.3 13.2M781.7 64l-12.8-12.8M874.3 412.9l48.3 48.3-48.3 48.3M832.9 448.4l35.4-35.5M868.3 509.5l-35.4-35.4"/>
  <path class="st0" d="M871.3 516.7c-2.3 0-4.2-1.9-4.2-4.2s1.9-4.2 4.2-4.2 4.2 1.9 4.2 4.2c0 2.3-1.9 4.2-4.2 4.2zM871.3 414.2c-2.3 0-4.2-1.9-4.2-4.2 0-2.3 1.9-4.2 4.2-4.2s4.2 1.9 4.2 4.2c0 2.3-1.9 4.2-4.2 4.2zM867.1 615c0-2.3 1.9-4.2 4.2-4.2s4.2 1.9 4.2 4.2M832.9 345.9l35.5-35.4M868.3 407l-35.4-35.4"/>
  <path class="st0" d="M874.3 310.5l48.3 48.2-48.3 48.3M874.3 208l48.3 48.2-48.3 48.3M832.9 243.4l35.4-35.4M868.3 304.5l-35.4-35.4"/>
  <path class="st0" d="M871.3 311.7c-2.3 0-4.2-1.9-4.2-4.2s1.9-4.2 4.2-4.2 4.2 1.9 4.2 4.2-1.9 4.2-4.2 4.2zM832.7 551.1l35.7-35.7M868.3 612l-35.6-35.6M874.3 515.4l48.3 48.3-48.3 48.3M820.1 615l25.2-25.3M820.1 563.7h51.3M884.2 551l-12.8 12.7M884.2 576.5l-12.8-12.8M845.7 486.9l-25.6 25.6M845.7 538l-25.6-25.5M845.7 384.4L820.1 410M845.7 435.6L820.1 410M845.7 281.9l-25.6 25.6M845.7 333l-25.6-25.5M820.1 461.2h51.3M884.2 448.4l-12.8 12.8M884.2 474l-12.8-12.8M875.5 512.5h47.2M875.5 615h47.2M875.5 409.9h47.2M875.5 307.4h47.2M875.5 205h47.2M875.5 102.5h47.2M820.1 358.7h51.3M884.2 346l-12.8 12.7M884.2 371.5l-12.8-12.8M820.1 256.2h51.3M884.2 243.5l-12.8 12.7M884.2 269l-12.8-12.8M871.3 209.2c-2.3 0-4.2-1.9-4.2-4.2s1.9-4.2 4.2-4.2 4.2 1.9 4.2 4.2-1.9 4.2-4.2 4.2zM832.9 140.9l35.5-35.4M868.3 202l-35.4-35.4"/>
  <path class="st0" d="M874.3 105.5l48.3 48.3-48.3 48.2M874.3 3l48.3 48.2-48.3 48.3M832.9 38.5L868.3 3M868.3 99.5l-35.4-35.4"/>
  <path class="st0" d="M871.3 106.7c-2.3 0-4.2-1.9-4.2-4.2 0-2.3 1.9-4.2 4.2-4.2s4.2 1.9 4.2 4.2c0 2.3-1.9 4.2-4.2 4.2zM875.5 0c0 2.3-1.9 4.2-4.2 4.2s-4.2-1.9-4.2-4.2M845.7 179.4L820.1 205M845.7 230.6L820.1 205M845.7 76.9l-25.6 25.6M845.7 128.1l-25.6-25.6M845.7 25.6L820.1 0M820.1 153.8h51.3M884.2 141l-12.8 12.8M884.2 166.5l-12.8-12.7M820.1 51.2h51.3M884.7 38l-13.3 13.2M884.2 64l-12.8-12.8M976.8 412.9l48.3 48.3-48.3 48.3M935.4 448.4l35.5-35.5M970.9 509.5l-35.5-35.4"/>
  <path class="st0" d="M973.8 516.7c-2.3 0-4.2-1.9-4.2-4.2s1.9-4.2 4.2-4.2 4.2 1.9 4.2 4.2c0 2.3-1.9 4.2-4.2 4.2zM973.8 414.2c-2.3 0-4.2-1.9-4.2-4.2 0-2.3 1.9-4.2 4.2-4.2s4.2 1.9 4.2 4.2c0 2.3-1.9 4.2-4.2 4.2zM969.6 615c0-2.3 1.9-4.2 4.2-4.2s4.2 1.9 4.2 4.2M935.4 345.9l35.5-35.4M970.9 407l-35.5-35.4"/>
  <path class="st0" d="M976.8 310.5l48.3 48.2-48.3 48.3M976.8 208l48.3 48.2-48.3 48.3M935.4 243.4l35.5-35.4M970.9 304.5l-35.5-35.4"/>
  <path class="st0" d="M973.8 311.7c-2.3 0-4.2-1.9-4.2-4.2s1.9-4.2 4.2-4.2 4.2 1.9 4.2 4.2-1.9 4.2-4.2 4.2zM935.2 551.1l35.7-35.7M970.9 612l-35.7-35.6M976.8 515.4l48.3 48.3-48.3 48.3M922.6 615l25.3-25.3M922.6 563.7h51.3M986.7 551l-12.8 12.7M986.7 576.5l-12.8-12.8M948.2 486.9l-25.5 25.6M948.2 538l-25.5-25.5M948.2 384.4L922.7 410M948.2 435.6L922.7 410M948.2 281.9l-25.5 25.6M948.2 333l-25.5-25.5M922.6 461.2h51.3M986.7 448.4l-12.8 12.8M986.7 474l-12.8-12.8M978 512.5h47.2M978 615h47.2M978 409.9h47.2M978 307.4h47.2M978 205h47.2M978 102.5h47.2M922.6 358.7h51.3M986.7 346l-12.8 12.7M986.7 371.5l-12.8-12.8M922.6 256.2h51.3M986.7 243.5l-12.8 12.7M986.7 269l-12.8-12.8M973.8 209.2c-2.3 0-4.2-1.9-4.2-4.2s1.9-4.2 4.2-4.2 4.2 1.9 4.2 4.2-1.9 4.2-4.2 4.2zM935.4 140.9l35.5-35.4M970.9 202l-35.5-35.4"/>
  <path class="st0" d="M976.8 105.5l48.3 48.3-48.3 48.2M976.8 3l48.3 48.2-48.3 48.3M935.4 38.5L970.9 3M970.9 99.5l-35.5-35.4"/>
  <path class="st0" d="M973.8 106.7c-2.3 0-4.2-1.9-4.2-4.2 0-2.3 1.9-4.2 4.2-4.2s4.2 1.9 4.2 4.2c0 2.3-1.9 4.2-4.2 4.2zM978 0c0 2.3-1.9 4.2-4.2 4.2s-4.2-1.9-4.2-4.2M948.2 179.4L922.7 205M948.2 230.6L922.7 205M948.2 76.9l-25.5 25.6M948.2 128.1l-25.5-25.6M948.2 25.6L922.7 0M922.6 153.8h51.3M986.7 141l-12.8 12.8M986.7 166.5l-12.8-12.7M922.6 51.2h51.3M987.2 38l-13.3 13.2M986.7 64l-12.8-12.8M1079.3 412.9l48.3 48.3-48.3 48.3M1037.9 448.4l35.5-35.5M1073.4 509.5l-35.5-35.4"/>
  <path class="st0" d="M1076.3 516.7c-2.3 0-4.2-1.9-4.2-4.2s1.9-4.2 4.2-4.2c2.3 0 4.2 1.9 4.2 4.2 0 2.3-1.9 4.2-4.2 4.2zM1076.3 414.2c-2.3 0-4.2-1.9-4.2-4.2 0-2.3 1.9-4.2 4.2-4.2 2.3 0 4.2 1.9 4.2 4.2 0 2.3-1.9 4.2-4.2 4.2zM1072.1 615c0-2.3 1.9-4.2 4.2-4.2 2.3 0 4.2 1.9 4.2 4.2M1037.9 345.9l35.5-35.4M1073.4 407l-35.5-35.4"/>
  <path class="st0" d="M1079.3 310.5l48.3 48.2-48.3 48.3M1079.3 208l48.3 48.2-48.3 48.3M1037.9 243.4l35.5-35.4M1073.4 304.5l-35.5-35.4"/>
  <path class="st0" d="M1076.3 311.7c-2.3 0-4.2-1.9-4.2-4.2s1.9-4.2 4.2-4.2c2.3 0 4.2 1.9 4.2 4.2s-1.9 4.2-4.2 4.2zM1037.7 551.1l35.7-35.7M1073.4 612l-35.7-35.6M1079.3 515.4l48.3 48.3-48.3 48.3M1025.1 615l25.2-25.3M1025.1 563.7h51.3M1089.2 551l-12.8 12.7M1089.2 576.5l-12.8-12.8M1050.7 486.9l-25.6 25.6M1050.7 538l-25.6-25.5M1050.7 384.4l-25.6 25.6M1050.7 435.6l-25.6-25.6M1050.7 281.9l-25.6 25.6M1050.7 333l-25.6-25.5M1025.1 461.2h51.3M1089.2 448.4l-12.8 12.8M1089.2 474l-12.8-12.8M1080.5 512.5h47.2M1080.5 615h47.2M1080.5 409.9h47.2M1080.5 307.4h47.2M1080.5 205h47.2M1080.5 102.5h47.2M1025.1 358.7h51.3M1089.2 346l-12.8 12.7M1089.2 371.5l-12.8-12.8M1025.1 256.2h51.3M1089.2 243.5l-12.8 12.7M1089.2 269l-12.8-12.8M1076.3 209.2c-2.3 0-4.2-1.9-4.2-4.2s1.9-4.2 4.2-4.2c2.3 0 4.2 1.9 4.2 4.2s-1.9 4.2-4.2 4.2zM1037.9 140.9l35.5-35.4M1073.4 202l-35.5-35.4"/>
  <path class="st0" d="M1079.3 105.5l48.3 48.3-48.3 48.2M1079.3 3l48.3 48.2-48.3 48.3M1037.9 38.5L1073.4 3M1073.4 99.5l-35.5-35.4"/>
  <path class="st0" d="M1076.3 106.7c-2.3 0-4.2-1.9-4.2-4.2 0-2.3 1.9-4.2 4.2-4.2 2.3 0 4.2 1.9 4.2 4.2 0 2.3-1.9 4.2-4.2 4.2zM1080.5 0c0 2.3-1.9 4.2-4.2 4.2-2.3 0-4.2-1.9-4.2-4.2M1050.7 179.4l-25.6 25.6M1050.7 230.6l-25.6-25.6M1050.7 76.9l-25.6 25.6M1050.7 128.1l-25.6-25.6M1050.7 25.6L1025.1 0M1025.1 153.8h51.3M1089.2 141l-12.8 12.8M1089.2 166.5l-12.8-12.7M1025.1 51.2h51.3M1089.7 38l-13.3 13.2M1089.2 64l-12.8-12.8M1181.8 412.9l48.3 48.3-48.3 48.3M1140.4 448.4l35.5-35.5M1175.9 509.5l-35.5-35.4"/>
  <path class="st0" d="M1178.8 516.7c-2.3 0-4.2-1.9-4.2-4.2s1.9-4.2 4.2-4.2c2.3 0 4.2 1.9 4.2 4.2 0 2.3-1.8 4.2-4.2 4.2zM1178.8 414.2c-2.3 0-4.2-1.9-4.2-4.2 0-2.3 1.9-4.2 4.2-4.2 2.3 0 4.2 1.9 4.2 4.2 0 2.3-1.8 4.2-4.2 4.2zM1174.6 615c0-2.3 1.9-4.2 4.2-4.2 2.3 0 4.2 1.9 4.2 4.2M1140.4 345.9l35.5-35.4M1175.9 407l-35.5-35.4"/>
  <path class="st0" d="M1181.8 310.5l48.3 48.2-48.3 48.3M1181.8 208l48.3 48.2-48.3 48.3M1140.4 243.4l35.5-35.4M1175.9 304.5l-35.5-35.4"/>
  <path class="st0" d="M1178.8 311.7c-2.3 0-4.2-1.9-4.2-4.2s1.9-4.2 4.2-4.2c2.3 0 4.2 1.9 4.2 4.2s-1.8 4.2-4.2 4.2zM1140.2 551.1l35.7-35.7M1175.9 612l-35.7-35.6M1181.8 515.4l48.3 48.3-48.3 48.3M1127.6 615l25.3-25.3M1127.6 563.7h51.3M1191.7 551l-12.7 12.7M1191.7 576.5l-12.8-12.8M1153.2 486.9l-25.5 25.6M1153.2 538l-25.5-25.5M1153.2 384.4l-25.5 25.6M1153.2 435.6l-25.5-25.6M1153.2 281.9l-25.5 25.6M1153.2 333l-25.5-25.5M1127.6 461.2h51.3M1191.7 448.4l-12.7 12.8M1191.7 474l-12.8-12.8M1183 512.5h47.2M1183 615h47.2M1183 409.9h47.2M1183 307.4h47.2M1183 205h47.2M1183 102.5h47.2M1127.6 358.7h51.3M1191.7 346l-12.7 12.7M1191.7 371.5l-12.8-12.8M1127.6 256.2h51.3M1191.7 243.5l-12.7 12.7M1191.7 269l-12.8-12.8M1178.8 209.2c-2.3 0-4.2-1.9-4.2-4.2s1.9-4.2 4.2-4.2c2.3 0 4.2 1.9 4.2 4.2s-1.8 4.2-4.2 4.2zM1140.4 140.9l35.5-35.4M1175.9 202l-35.5-35.4"/>
  <path class="st0" d="M1181.8 105.5l48.3 48.3-48.3 48.2M1181.8 3l48.3 48.2-48.3 48.3M1140.4 38.5L1175.9 3M1175.9 99.5l-35.5-35.4"/>
  <path class="st0" d="M1178.8 106.7c-2.3 0-4.2-1.9-4.2-4.2 0-2.3 1.9-4.2 4.2-4.2 2.3 0 4.2 1.9 4.2 4.2 0 2.3-1.8 4.2-4.2 4.2zM1183 0c0 2.3-1.9 4.2-4.2 4.2-2.3 0-4.2-1.9-4.2-4.2M1153.2 179.4l-25.5 25.6M1153.2 230.6l-25.5-25.6M1153.2 76.9l-25.5 25.6M1153.2 128.1l-25.5-25.6M1153.2 25.6L1127.7 0M1127.6 153.8h51.3M1191.7 141l-12.7 12.8M1191.7 166.5l-12.8-12.7M1127.6 51.2h51.3M1192.2 38L1179 51.2M1191.7 64l-12.8-12.8"/>
</svg>
