<svg version="1.1" id="Layer_1" xmlns="http://www.w3.org/2000/svg" x="0" y="0" viewBox="0 0 1100 426.8" xml:space="preserve">
  <style>
    .os0{fill:#fff}.os1{fill:#ee5586}.os2,.os3{fill:gray}.os3{fill-rule:evenodd;clip-rule:evenodd}.os4{fill:#fff;stroke:gray;stroke-miterlimit:10}.os4,.os5{stroke-linecap:round;stroke-linejoin:round}.os5,.os6,.os7{fill:none;stroke:gray;stroke-miterlimit:10}.os7{fill:#fff;stroke:#ee5586;stroke-width:3;stroke-linecap:round;stroke-linejoin:round}.os8{fill:#ee5586}.os9{fill:none;stroke-linecap:round;stroke-linejoin:round;stroke-miterlimit:10}
  </style>
  <path class="os0" d="M0 169.5h1100v86.9H0z"/>
  <circle class="os0" cx="549" cy="212.9" r="49.5"/>
  <path id="svg-ico" class="os1" d="M549 263c-27.6 0-50.1-22.5-50.1-50.1s22.5-50.1 50.1-50.1 50.1 22.5 50.1 50.1S576.6 263 549 263zm0-99c-27 0-48.9 21.9-48.9 48.9s21.9 48.9 48.9 48.9 48.9-21.9 48.9-48.9C597.9 186 576 164 549 164z"/>
  <path id="svg-ico" class="os1" d="M566.6 233.1c3.5 0 6.4 2.9 6.4 6.4 0 3.5-2.9 6.4-6.4 6.4-3.5 0-6.4-2.9-6.4-6.4 0-3.6 2.8-6.4 6.4-6.4zM551.3 197.1c8 0 14.6 5.9 15.7 13.6h11c-.5-6-3-11.7-7.2-16.1-2.7 1.4-6 1.4-8.8-.2-2.8-1.6-4.4-4.5-4.6-7.5-2-.5-4-.7-6.1-.7-4 0-7.9.9-11.4 2.5l5.5 9.5c1.8-.7 3.8-1.1 5.9-1.1zM535.4 212.9c0-5 2.4-9.6 6.1-12.5L536 191c-1.3.9-2.5 1.9-3.6 3.1-3.2 3.2-5.5 7-6.7 11.2 2.5 1.6 4.2 4.5 4.2 7.7s-1.7 6.1-4.2 7.7c1.3 4.2 3.5 8 6.7 11.2 1.1 1.1 2.4 2.2 3.6 3.1l5.5-9.5c-3.7-3-6.1-7.5-6.1-12.6z"/>
  <path id="svg-ico" class="os1" d="M520.7 206.5c3.5 0 6.4 2.9 6.4 6.4 0 3.5-2.9 6.4-6.4 6.4-3.5 0-6.4-2.9-6.4-6.4 0-3.5 2.8-6.4 6.4-6.4zM567 215.2c-1.1 7.7-7.7 13.6-15.7 13.6-2.1 0-4.1-.4-5.9-1.1l-5.5 9.5c3.5 1.7 7.4 2.5 11.4 2.5 2.1 0 4.1-.2 6.1-.7.2-3 1.8-5.9 4.6-7.5 2.8-1.6 6.1-1.6 8.8-.2 4.2-4.4 6.7-10.1 7.2-16.1h-11zM566.6 180c3.5 0 6.4 2.9 6.4 6.4 0 3.5-2.9 6.4-6.4 6.4-3.5 0-6.4-2.9-6.4-6.4 0-3.5 2.8-6.4 6.4-6.4z"/>
  <circle class="os0" cx="343.5" cy="213" r="49.6"/>
  <path class="os2" d="M343.5 263.1c-27.6 0-50.1-22.5-50.1-50.1s22.5-50.1 50.1-50.1 50.1 22.5 50.1 50.1-22.5 50.1-50.1 50.1zm0-99.1c-27 0-49 22-49 49s22 49 49 49 49-22 49-49-22-49-49-49z"/>
  <g>
    <path class="os3" d="M319.9 189.5h11l-11 11v-11zM356.3 189.5H367v10.7l-10.7-10.7zM367 225.2v11h-11zM330.5 236.2h-10.6v-10.7l4.8 4.9zM321.4 204l4.7-4.7 10.8 10.9h-15.5V204zM336.9 215.6l-11 10.9-4.5-4.5v-6.4h15.5zM310.3 213l7.5-7.5v15.1l-7.5-7.6zM349.9 210.2l11-11 4.6 4.5v6.5h-15.6zM365.5 221.7l-4.7 4.7-10.9-10.8h15.6v6.1zM369.1 205.2l7.5 7.5-7.5 7.5zM346.3 219.8l11.6 11.6-4.8 4.8h-6.8v-16.4zM351 238.3l-7.7 7.7-7.8-7.7zM329.7 230.4l11-11v15.3h-6.6l-4.4-4.3zM346.1 206.4l10.9-10.8-4.5-4.5h-6.4v15.3zM351 187.5l-7.7-7.7-7.8 7.7zM329.7 195.4l11 11v-15.3h-6.6l-4.4 4.3z"/>
  </g>
  <g>
    <g>
      <circle class="os0" cx="754.7" cy="213" r="49.6"/>
      <path id="svg-concept" class="os9" d="M754.7 263.1c-27.6 0-50.1-22.5-50.1-50.1s22.5-50.1 50.1-50.1 50.1 22.5 50.1 50.1-22.4 50.1-50.1 50.1zm0-99.1c-27 0-49 22-49 49s22 49 49 49 49-22 49-49-22-49-49-49z"/>
      <animate attributeName="opacity" values="0;1;0" begin="1s" dur="1s" repeatCount="indefinite"/>
    </g>
    <path id="svg-ico" class="os9" d="M726.4 211.2c0 .6 0 1.7.1 2.3v3.9c0 2.5.1 5.8.2 6.7.1 3 1 5.8 1.9 7.7.9 1.9 2.1 3.9 4.2 6.6 2.1 2.7 3.4 3.9 5.2 5.3 1.1.9 2.4 1.6 3.5 2.2 1.8-.3 3.6-.5 5.4-.6 0 0 .1 0 .1-.1 0-.2-1.6-.7-1.8-.7-.1 0 .4-.6.5-.7.1-.2-.2-.1-.3-.1-.2 0-.4-.2-.5-.3-.1-.1-.3-.2-.3-.2l-.3-.3c-.1-.1-.2-.2-.3-.2-.1-.1-.3-.3-.3-.4-.3-.3-.6-.7-.7-.9-.1-.2-.1-.2-.4-.2s-.3.1-.6.1-.2-.1-.4-.3c-.1-.2-.3-.4-.4-.5-.1-.1-.2-.3-.3-.4-.1-.1-.1-.2-.2-.3-.1-.1-.6-1-.6-1.2v-.8l-.4.6s-.7-1-1.1-1.6c-.5-.6-2.1-2.7-2.3-3-.2-.3.1-.3.2-.3s.9.4.9.4-.3-.2-.7-.5c-.4-.3-.8-1-.8-1.1 0-.1.2-.1.2-.2s.1-.1.2-.2-.1-.3-.3-.6c-.2-.3-.6-.8-.8-1.3-.2-.5-.4-.6-.4-.8 0-.2-.1-.2-.1-.6 0-.4 0-.3.3.1.2.4.8.6 1 .6.2 0-.1-.3-.7-1.6-.2-.6-.7-1.6-.9-2-.2-.4-.4-.8-.6-.8-.4 0-.5 1.9-.9 1.9-.3 0-1.7-4.2-1.7-4.2h.4s-.3-.4-.4-.8c-.1-.4-.4-.6-.4-.6s.1-.6.1-1 .1-.6.1-.8c0-.2-.1-.3-.7-1.1-.5-.8-.7-1.7-.7-2.3 0-.6 0-1.1.1-2 .1-.9.4-2.4.5-3.3.1-.9.3-2.7.4-4 .1-1.3.4-2 .7-2.6.3-.6.7-.7 1.1-1.7.4-.9.9-2.2.9-2.2l-.7-.1s.1 0 .2-.2c.2-.2.2-.4 1.1-1.6.8-1.2 2.3-2.8 4-4.5 1.7-1.8 3.2-1.8 3.6-1.8h.7c.1 0 0-.1.7-.8.4-.4.1-.3 0-.1-.1.2-.7.6-.8.6-.2 0-.3-.2-.3-.2s.3-.4 1.3-1.3 1.3-1.1 1.6-1.1c.3 0 .7.1 1.3.1 1.3 0 2.5-.9 2.5-1 0-.1-.1.1-1.2.5-.9.3-1.1.3-1.1.3s.2-.4.4-.5c.1-.1.9-.2 2-.6 1-.4 1.2-.6 1.2-1s.9-.6 1.8-.7c1-.1 2-.2 2.1-.2.1 0 .3 0 .3.1s-.3.2-.9.3c-.8.2-.7.4-.7.4s.3-.2.7-.3c.4-.1.7-.2.9-.2.1 0 0-.2.2-.2.1 0 .2-.1.6-.2.4-.1 1.4-.3 2.6-.3 1.2 0 3 .2 3.9.4.9.2 2.6.8 3.3 1.1.7.3 2 .9 3.6 1.8s2 1.3 3.1 2.2c1 .9 1.6 1.6 2.5 2.8.9 1.3 1.1 1.8 1.5 2.4.5 1 .9 3 .9 3.5.1.5.3 2.6.3 2.8 0 .2.1.2.2.2s.1.2.1.6c0 .4-.1.6-.1 1.3 0 .7.2 2.3.2 2.9 0 1.3-.7 3.6-.7 3.6l.7-1.7v1.6c0 .2-.1.4-.4 1-.3.6-.7 1.4-.7 1.7 0 .3-.5.3-.6.4-.1.1-.3.2-.4.2-.1 0-.5 1-.6 1.2-.1.3.2.2.3.2.1 0 0 .3-.1.6-.1.2-.2.5-.4.6-.2.2-.6.5-1.6 1.4-1 .9-2.4 2.3-3.1 2.3-.5 0-.1-.3.2-.5.3-.2.4-.5.3-.5-.1 0-1.1.8-1.3 1-.2.2-.1.2-.3.5-.1.3-.4.3-1.1.5-.7.2-1.1.4-1.3.4-.1 0-.2-.2-.2-.2s-3.9 1.7-5.9 1.7c-1.6 0-4-1-5.9-2.5-1.9-1.5-3-3.4-3.4-5.1-.4-1.7-.4-4.8-.4-5.2 0-.5-.1-.1-.1.1 0 .1-.2 0-.2.1s-.1.2-.1 0v-.9c0-.4-.1-.5-.1-.8v-1.4c0-.4.1-.9.4-2 .3-1 1.3-2.4 2-3.1.7-.6 1.5-1.1 2.6-1.7 1.1-.6 2.3-1.1 3.1-1.4.9-.4 1.8-.5 2.8-.5s2.3.4 3.1.7c.7.3 1.6 1 2 1.4.5.4 1.1.9 1.1.9s-.4-.5-.6-.7c-.2-.2-.7-.9-1.1-1.2-.3-.3-.9-.8-1.7-1.3-.8-.5-2-.7-2.5-.7H758c-.5 0-2.5.2-3 .4s-1.3.5-1.6.8c-.3.2-.6.4-.8.6-.3.2-.6.6-.9.9-.3.3-1 1.8-1.1 2-.1.2-.8.6-1.3 1.1-.4.5-.6 1.7-.7 2.3-.1.7-.3 1-.5 1.2-.3.2-.3.4-.3.7 0 .9-.4 3.1-.4 5.9 0 1.2.6 2.1.8 2.6.3.5.8 1.4 1 1.7.2.4.3.4.3.4l-.3-.8s1.2 1.2 1.5 1.4c.3.2 1.3 1 1.7 1.3.4.3 1.8 1.4 2.3 1.8.5.4.8.6.8.7 0 0-.1 0-.1.1 0 0 .4.2 2 .8 3.3 1.2 5 1.2 5.5 1.2.6 0 1.4 0 3.2-.4 1.8-.4 3.5-1.6 4.3-2.2.8-.6 2.2-1.6 2.5-1.9.3-.3.8-.6 1-.8.2-.2.3-.2.5-.4s.4-.5.8-.9.8-.5.8-.5-.4.5-.5.6c-.1.2.1.1.3.1.2 0-.2.5-.2.5 0 .2.8-1.3.8-1.5 0-.2-.4 0-.5 0s-.2 0-.2-.1.2-.4.5-.9.8-1.2.8-1.2l.7 1.1v-1.3c0-.5.6-1.1.8-1.4.1-.2.4-.5.7-1 .4-.5.5-1.3.5-1.9V210s.1-.2.2-.3c.2-.2.1.1.1.4 0 .3.2.6.2.6v-.5c0-.2-.1-.1-.1-.3 0-.2-.2-.1-.2-.2s.1-.1.1-.6c0-.3.1-.4.1-.1 0 .1.2.1.2.5.1.3.3.8.3.8s-.2-.6-.2-1.3c0-.8.3-1 .5-1.4.1-.4.3-.5.5-1.1.1-.6.3-.6 0-.6s-.4.5-.6.5c-.2 0-.3-1.5-.3-2.2 0-.7.2-.7.2-.6.1.1 0 .1.2 0 .1-.1 0-.1-.3-.4-.3-.3-.5-.9-.7-1.7-.2-.7 0-.7.1-.7s.2.3.4.7c.1.4.3.5.4.5.1-.1-.3-1.7-.5-1.9-.1-.3-.1-1-.1-1.2 0-.2-.3-.8-.6-1.2-.3-.5-.1 0-.1.6.1.6-.5-.2-.7-1.2-.3-1-.4-1.4-.2-1.4s.9.9 1.1.9c.2 0 .3-.8.3-.8s1 1.5 1.4 2.6c.3.7.7 1.8.9 2.7.2.9.6 2.3.6 2.3s-.4-2.1-.6-2.8l-.8-2.4c-.2-.2-.1-.3 0-.3s.2 0 .1-.3-.7-2.3-.5-2.3c.1 0 1 1.5 1 1.5s-.8-2.4-1.4-4c-.6-1.6-2.1-3.4-2.8-4.2-.7-.8-1.8-1.8-2.6-2.3-.8-.6-2.1-1.4-2.5-1.6-.5-.2-1.5-.9-1.5-.9s.7.8.9 1c.3.2.1.3.1.3s-1.6-1-1.8-1.2c-.2-.1-.2-.3-.2-.6s-1.3-.8-1.7-.8c-.4 0-.5.4-.7.5-.2.1-.8 0-.8 0s-1.6-.8-2.3-1.2c-.7-.4-1.1-.5-1.9-.6-.8-.1-3.1-1-3.1-1l.2.7s-1.5-.5-1.8-.5c-.6 0-.7.6-1.5.6h-1.6c-.3 0-.3-.2-.1-.2.2 0 .3-.1.5-.1s.7-.2.7-.2-.8.2-1.3.2c-.6 0-.7-.4-1-.4-.3 0-1.6.3-1.6.3l.6-.4c.3-.2.9-.5.9-.5h-.7c-.7 0-2.3.6-2.9.7-.6.1.1-.5.1-.5s-.9.3-1.5.7c-.7.4-1.9.8-3 1.2-1.1.4-2 .8-2.8 1.2-.7.4-1.6 1-2.1 1.4-.5.4-1.2 1-1.4 1.2-.2.2-.3.1-.3-.1s-.1-.3-.1-.3-.1.2-.6.7c-.5.5-1.4 1.4-1.8 1.6-.4.3-1.1.9-1.5 1.2-.4.3-1.2 1-1.4 1.3-.2.3-.5.6-.7 1.3-.2.7-.2.8-.4.8s-.2.1-.3.4c-.1.3-.4.5-.5.8-.1.3-.3.7-.5 1.2-.1.5-.4 1.2-.7 1.6-.3.4-.6 1-.8 1-.2 0-.3-.5-.3-.5s-.1.3-.2.7c-.2.4-1 2.1-1.4 3.1-.4 1.1-1.7 5.4-1.7 5.5 0 .1.3.7.3.9 0 .4-.2 3.8-.2 4.4z"/>
  </g>
  <g>
    <circle class="os0" cx="960.2" cy="213" r="49.6"/>
    <path class="os2" d="M960.2 263.1c-27.6 0-50.1-22.5-50.1-50.1s22.5-50.1 50.1-50.1 50.1 22.5 50.1 50.1-22.5 50.1-50.1 50.1zm0-99.1c-27 0-49 22-49 49s22 49 49 49 49-22 49-49-22-49-49-49z"/>
    <g>
      <path class="os2" d="M934.6 191.6c3 0 5.5 1.1 7.5 3.3 5.4 5.8 10.7 11.7 16 17.6.2.3.3.4 0 .7-5.4 5.9-10.8 11.9-16.2 17.8-3.7 4.1-10.1 4.3-14.1.6-.4-.3-.4-.5 0-.9l15.9-17.4c.3-.3.3-.5 0-.8-5.3-5.8-10.6-11.6-15.9-17.5-.3-.4-.3-.5.1-.8 1.8-1.6 4.1-2.5 6.7-2.6zM985.5 191.6c3 0 5.2.9 7.2 2.6.3.3.4.4.1.8-2.6 2.8-5.1 5.6-7.7 8.5-2.7 3-5.5 6-8.2 9-.4.4-.2.6.1.9 5.3 5.8 10.5 11.6 15.8 17.4.3.4.3.5-.1.8-4.3 3.8-10.5 3.4-14.4-.8-5.2-5.8-10.5-11.6-15.8-17.4-.3-.4-.4-.6 0-1 5.3-5.8 10.6-11.7 16-17.5 1.9-2.1 4.4-3.3 7-3.3zM945.4 184.4c2.4 0 4.6 1.1 6.5 3.1 2.7 2.9 5.3 5.8 8 8.8.3.3.4.3.7 0 2.6-2.9 5.3-5.8 7.9-8.7 3.5-3.8 9.4-4.1 13.1-.7.3.3.3.4 0 .7l-21 23.1c-.3.4-.5.3-.8 0l-21-23.1c-.3-.3-.3-.5 0-.8 1.9-1.6 3.9-2.4 6.6-2.4zM975.4 241.4c-2.6 0-4.9-1-6.6-2.9-2.7-2.9-5.4-5.9-8.1-8.9-.3-.3-.5-.4-.8 0-2.6 2.9-5.3 5.8-7.9 8.7-3.5 3.8-9.1 4.1-13 .7-.4-.3-.3-.5 0-.8l21-23.1c.3-.3.4-.3.7 0 7 7.7 14 15.5 21.1 23.2.3.3.3.5 0 .7-2 1.5-4 2.4-6.4 2.4z"/>
    </g>
  </g>
  <g>
    <circle class="os0" cx="137.9" cy="213" r="49.6"/>
    <path class="os2" d="M137.9 263.1c-27.6 0-50.1-22.5-50.1-50.1s22.5-50.1 50.1-50.1S188 185.4 188 213s-22.4 50.1-50.1 50.1zm0-99.1c-27 0-49 22-49 49s22 49 49 49 49-22 49-49-22-49-49-49z"/>
    <g>
      <path class="os2" d="M108.8 234.7l24.2 3.1v-23.4h-24.2zM108.8 212.1H133v-23.5l-24.2 3.4zM135.3 188.3v23.8H167v-28.2zM135.3 238.1l31.7 4v-27.7h-31.7z"/>
    </g>
  </g>
  <path class="os0" d="M0 155.3h1100v17H0zM0 253.4h1100v17H0z"/>
  <path class="os4" d="M0 168.9h1100M1100 256.9H0"/>
  <g>
    <path class="os0" d="M549.2 107.1c-58.3 0-105.6 47.3-105.6 105.6s47.3 105.6 105.6 105.6S654.8 271 654.8 212.7s-47.3-105.6-105.6-105.6zm0 191.8c-47.6 0-86.2-38.6-86.2-86.2s38.6-86.2 86.2-86.2 86.2 38.6 86.2 86.2-38.5 86.2-86.2 86.2z"/>
    <circle class="os5" cx="549.2" cy="213" r="105.6"/>
    <circle class="os5" cx="549.2" cy="212.6" r="86.2"/>
    <path class="os4" d="M461.6 6.6h79.5c2.6 0 4.7 2.1 4.7 4.7v100.5c0 2.6-2.1 4.7-4.7 4.7h-180c-4.2 0-6.3-5.1-3.3-8L458.3 8c.9-.9 2.1-1.4 3.3-1.4zM636.3 6.6h-79.5c-2.6 0-4.7 2.1-4.7 4.7v100.5c0 2.6 2.1 4.7 4.7 4.7h180.1c4.2 0 6.3-5.1 3.3-8L639.7 8c-.9-.9-2.1-1.4-3.4-1.4z"/>
    <path class="os6" d="M519.3 36c-4.6 4.6-11.9 4.6-16.5 0s-4.5-11.9 0-16.5c4.6-4.6 11.9-4.5 16.5 0 4.5 4.6 4.5 11.9 0 16.5z"/>
    <path class="os6" d="M514.1 30.8c-1.7 1.7-4.4 1.7-6.1 0-1.7-1.7-1.7-4.4 0-6.1 1.7-1.7 4.4-1.7 6.1 0 1.7 1.7 1.7 4.4 0 6.1zM519.2 36l-5.1-5.2M507.2 25.5l-5.2-5.2M592.8 36c-4.6 4.6-11.9 4.6-16.5 0s-4.5-11.9 0-16.5c4.6-4.6 11.9-4.5 16.5 0 4.5 4.6 4.6 11.9 0 16.5z"/>
    <path class="os6" d="M587.6 30.8c-1.7 1.7-4.4 1.7-6.1 0-1.7-1.7-1.7-4.4 0-6.1 1.7-1.7 4.4-1.7 6.1 0 1.7 1.7 1.7 4.4 0 6.1zM592.8 36l-5.2-5.2M580.7 25.5l-5.2-5.2"/>
    <path class="os4" d="M461.6 418.7h79.5c2.6 0 4.7-2.1 4.7-4.7V313.5c0-2.6-2.1-4.7-4.7-4.7h-180c-4.2 0-6.3 5.1-3.3 8l100.5 100.5c.9.9 2.1 1.4 3.3 1.4zM636.3 418.7h-79.5c-2.6 0-4.7-2.1-4.7-4.7V313.5c0-2.6 2.1-4.7 4.7-4.7h180.1c4.2 0 6.3 5.1 3.3 8L639.7 417.3c-.9.9-2.1 1.4-3.4 1.4z"/>
    <g>
      <path class="os6" d="M519.3 389.3c-4.6-4.6-11.9-4.6-16.5 0s-4.5 11.9 0 16.5c4.6 4.6 11.9 4.5 16.5 0 4.5-4.5 4.5-11.9 0-16.5z"/>
      <path class="os6" d="M514.1 394.5c-1.7-1.7-4.4-1.7-6.1 0-1.7 1.7-1.7 4.4 0 6.1 1.7 1.7 4.4 1.7 6.1 0 1.7-1.7 1.7-4.4 0-6.1zM519.2 389.3l-5.1 5.2M507.2 399.8L502 405"/>
    </g>
    <g>
      <path class="os6" d="M592.8 389.3c-4.6-4.6-11.9-4.6-16.5 0s-4.5 11.9 0 16.5c4.6 4.6 11.9 4.5 16.5 0 4.5-4.5 4.6-11.9 0-16.5z"/>
      <path class="os6" d="M587.6 394.5c-1.7-1.7-4.4-1.7-6.1 0-1.7 1.7-1.7 4.4 0 6.1 1.7 1.7 4.4 1.7 6.1 0 1.7-1.7 1.7-4.4 0-6.1zM592.8 389.3l-5.2 5.2M580.7 399.8l-5.2 5.2"/>
    </g>
    <path id="svg-concept" class="os7" d="M707.9 136.4H642c-22.1-26.7-55.5-43.8-92.9-43.8-37.4 0-70.8 17-92.9 43.8h-65.9l87.6-87.6h142.3l87.7 87.6M707.9 289.6H642c-22.1 26.7-55.5 43.8-92.9 43.8-37.4 0-70.8-17-92.9-43.8h-65.9l87.6 87.6h142.3l87.7-87.6"/>
    <path class="os4" d="M462.7 152.5c21.9-29.7 53-45 86.5-45s64.5 14.4 86.5 45h-173zM635.7 273.8c-21.9 29.7-53 45-86.5 45s-64.5-14.4-86.5-45h173z"/>
    <g>
      <path id="svg-ico" class="os8" d="M523.4 355.9c0 3.5-2.8 6.3-6.3 6.3s-6.3-2.8-6.3-6.3 2.8-6.3 6.3-6.3 6.3 2.8 6.3 6.3z"/>
    </g>
    <g>
      <path id="svg-ico" class="os8" d="M555.5 355.9c0 3.5-2.8 6.3-6.3 6.3s-6.3-2.8-6.3-6.3 2.8-6.3 6.3-6.3 6.3 2.8 6.3 6.3z"/>
    </g>
    <g>
      <path id="svg-ico" class="os8" d="M587.6 355.9c0 3.5-2.8 6.3-6.3 6.3s-6.3-2.8-6.3-6.3 2.8-6.3 6.3-6.3 6.3 2.8 6.3 6.3z"/>
    </g>
    <animateMotion path="M0, 0 205 0 0" begin="1s" dur="3s" fill="freeze"/>
  </g>
</svg>
