<svg version="1.1" id="Layer_1" xmlns="http://www.w3.org/2000/svg" x="0" y="0" viewBox="0 0 693.4 556" xml:space="preserve">
  <style>
    .perf0{fill:#fff}.perf1,.perf2{fill:none;stroke:#ee5586;stroke-linecap:round;stroke-linejoin:round;stroke-miterlimit:10}.perf2{stroke:gray}.perf3{fill:#ee5586}.perf4{fill:#fff;stroke:gray;stroke-linecap:round;stroke-linejoin:round;stroke-miterlimit:10}
  </style>
  <circle class="perf0" cx="344.4" cy="347.6" r="184.2"/>
  <path class="perf0" d="M57.2 378.6c0 4.4-3.5 7.9-7.9 7.9-4.3 0-7.9-3.5-7.9-7.9s3.5-7.9 7.9-7.9 7.9 3.5 7.9 7.9z"/>
  <g>
    <path class="perf0" d="M57.5 315.9c0 4.4-3.5 7.9-7.9 7.9-4.3 0-7.9-3.5-7.9-7.9s3.5-7.9 7.9-7.9c4.4.1 7.9 3.6 7.9 7.9z"/>
    <animate accumulate="none" additive="replace" attributeName="stroke" calcMode="linear" dur="1s" fill="freeze" restart="always" stroke="gray" values="#808080;#ee5486;#ee5486;#808080"/>
  </g>
  <g>
    <path class="perf0" d="M71 254.7c0 4.4-3.5 7.9-7.9 7.9-4.3 0-7.9-3.5-7.9-7.9s3.5-7.9 7.9-7.9c4.4.1 7.9 3.6 7.9 7.9z"/>
    <animate accumulate="none" additive="replace" attributeName="stroke" calcMode="linear" dur="1s" fill="freeze" restart="always" stroke="gray" values="#808080;#ee5486;#ee5486;#808080"/>
  </g>
  <g>
    <path class="perf0" d="M95.8 198.2c0 4.4-3.5 7.9-7.9 7.9-4.3 0-7.9-3.5-7.9-7.9s3.5-7.9 7.9-7.9c4.3 0 7.9 3.6 7.9 7.9z"/>
    <animate accumulate="none" additive="replace" attributeName="stroke" calcMode="linear" dur="1s" fill="freeze" restart="always" stroke="gray" values="#808080;#ee5486;#ee5486;#808080"/>
  </g>
  <g>
    <path class="perf0" d="M132.7 148.3c0 4.4-3.5 7.9-7.9 7.9-4.3 0-7.9-3.5-7.9-7.9s3.5-7.9 7.9-7.9c4.3 0 7.9 3.5 7.9 7.9z"/>
    <animate accumulate="none" additive="replace" attributeName="stroke" calcMode="linear" dur="2s" fill="freeze" restart="always" stroke="gray" values="#808080;#ee5486;#ee5486;#808080"/>
  </g>
  <g>
    <path class="perf0" d="M179.1 107.3c0 4.4-3.5 7.9-7.9 7.9-4.3 0-7.9-3.5-7.9-7.9s3.5-7.9 7.9-7.9c4.3.1 7.9 3.6 7.9 7.9z"/>
    <animate accumulate="none" additive="replace" attributeName="stroke" calcMode="linear" dur="2s" fill="freeze" restart="always" stroke="gray" values="#808080;#ee5486;#ee5486;#808080"/>
  </g>
  <g>
    <path class="perf0" d="M232.3 76c0 4.4-3.5 7.9-7.9 7.9-4.3 0-7.9-3.5-7.9-7.9s3.5-7.9 7.9-7.9 7.9 3.5 7.9 7.9z"/>
    <animate accumulate="none" additive="replace" attributeName="stroke" calcMode="linear" dur="2s" fill="freeze" restart="always" stroke="gray" values="#808080;#ee5486;#ee5486;#808080"/>
  </g>
  <g>
    <path class="perf0" d="M291.7 57.5c0 4.4-3.5 7.9-7.9 7.9-4.3 0-7.9-3.5-7.9-7.9s3.5-7.9 7.9-7.9c4.4.1 7.9 3.6 7.9 7.9z"/>
    <animate accumulate="none" additive="replace" attributeName="stroke" calcMode="linear" dur="2s" fill="freeze" restart="always" stroke="gray" values="#808080;#ee5486;#ee5486;#808080"/>
  </g>
  <g>
    <path class="perf0" d="M353.1 51c0 4.4-3.5 7.9-7.9 7.9-4.3 0-7.9-3.5-7.9-7.9s3.5-7.9 7.9-7.9c4.4.1 7.9 3.6 7.9 7.9z"/>
    <animate accumulate="none" additive="replace" attributeName="stroke" calcMode="linear" dur="3s" fill="freeze" restart="always" stroke="gray" values="#808080;#ee5486;#ee5486;#808080"/>
  </g>
  <g>
    <path class="perf0" d="M414.3 57.5c0 4.4-3.5 7.9-7.9 7.9-4.3 0-7.9-3.5-7.9-7.9s3.5-7.9 7.9-7.9 7.9 3.5 7.9 7.9z"/>
    <animate accumulate="none" additive="replace" attributeName="stroke" calcMode="linear" dur="3s" fill="freeze" restart="always" stroke="gray" values="#808080;#ee5486;#ee5486;#808080"/>
  </g>
  <g>
    <path class="perf0" d="M473.2 76.4c0 4.4-3.5 7.9-7.9 7.9-4.3 0-7.9-3.5-7.9-7.9s3.5-7.9 7.9-7.9c4.3.1 7.9 3.6 7.9 7.9z"/>
    <animate accumulate="none" additive="replace" attributeName="stroke" calcMode="linear" dur="3s" fill="freeze" restart="always" stroke="gray" values="#808080;#ee5486;#ee5486;#808080"/>
  </g>
  <g>
    <path class="perf0" d="M526.8 107.7c0 4.4-3.5 7.9-7.9 7.9-4.3 0-7.9-3.5-7.9-7.9s3.5-7.9 7.9-7.9c4.4.1 7.9 3.6 7.9 7.9z"/>
    <animate accumulate="none" additive="replace" attributeName="stroke" calcMode="linear" dur="3s" fill="freeze" restart="always" stroke="gray" values="#808080;#ee5486;#ee5486;#808080"/>
  </g>
  <g>
    <path class="perf0" d="M573 148.7c0 4.4-3.5 7.9-7.9 7.9-4.3 0-7.9-3.5-7.9-7.9s3.5-7.9 7.9-7.9c4.4.1 7.9 3.6 7.9 7.9z"/>
    <animate accumulate="none" additive="replace" attributeName="stroke" calcMode="linear" dur="3s" fill="freeze" restart="always" stroke="gray" values="#808080;#ee5486;#ee5486;#808080"/>
  </g>
  <path id="svg-ico" class="perf3" d="M609.4 199c0 4.4-3.5 7.9-7.9 7.9-4.3 0-7.9-3.5-7.9-7.9s3.5-7.9 7.9-7.9c4.3 0 7.9 3.5 7.9 7.9zM634.5 255.1c0 4.4-3.5 7.9-7.9 7.9-4.3 0-7.9-3.5-7.9-7.9s3.5-7.9 7.9-7.9 7.9 3.5 7.9 7.9zM647.4 316c0 4.4-3.5 7.9-7.9 7.9-4.3 0-7.9-3.5-7.9-7.9s3.5-7.9 7.9-7.9 7.9 3.5 7.9 7.9zM646.9 378.1c0 4.4-3.5 7.9-7.9 7.9-4.3 0-7.9-3.5-7.9-7.9s3.5-7.9 7.9-7.9 7.9 3.5 7.9 7.9z"/>
  <g>
    <path id="svg-concept" class="perf1" d="M300.1 179.5s35.6 50.9 37.5 139.6M238.6 209.6s52.5 33.2 88.5 114.4M193.6 261s61.2 10.6 125.6 71.7M172 324.6s60.6-13.4 143.4 18.8M176.4 392.6s50.9-35.5 139.6-37.4M206.9 454s33.3-52.3 114.6-88.1M494 435.5s-60.9-10.7-124.8-72.3M516.4 370.8s-60.3 13.6-143.1-18.6M512.1 302.7s-50.6 35.7-139.3 37.7M482.5 242.3s-33.3 52.2-114.7 87.7M431.5 197.2s-11 61-72.7 124.9M366.6 175.2s13.2 60.7-19.2 143.3M258.3 498.8s10.6-61.2 71.8-125.5M322.8 520.3s-13.7-60.6 18.2-143.4M389.5 515.6S353.8 460.5 352 376M449.9 485.9s-52.3-33.4-88-114.7"/>
    <animateTransform accumulate="none" additive="replace" attributeName="transform" begin="0s" calcMode="linear" dur="2s" fill="remove" from="0 343 350" repeatCount="indefinite" restart="always" to="360 347 345" type="rotate"/>
  </g>
  <path class="perf2" d="M345.2 8.1v19.4M6.6 311.5l19.4 2M6.6 382.7l19.3-2M21.7 241.3l18.6 6.1M51 176.9l16.7 9.7M93 119.6l14.3 12.9M145.8 72.4L157.1 88M207 37.1l7.9 17.7M274.2 15.2l4 19.1M6.6 382.7c-1.2-11.5-1.8-35-1.8-35C4.8 160.1 156.9 8.1 344.4 8.1S684 160.2 684 347.7c0 11.7-.6 23.3-1.8 34.7M5.2 365.2l9-.4M4.8 347.1h8.9M5.3 328.7l8.9.5M9 293.8l8.9 1.4M12.3 276.6l8.4 1.8M16.4 259.3l8.6 2.4M28.1 223.7l8.3 3.3M34.7 208.2l8.1 3.6M42.3 192.4l7.9 4M60.9 160.6l7.5 4.9M70.7 146.6l7.2 5.3M81.7 132.4l6.9 5.7M106.6 105.3l6.3 6.3M118.9 94.1l5.8 6.4M132 82.7l5.5 7M160.5 62.5l4.6 7.2M175.5 53l4.4 7.7M190.9 44.7l4.1 7.9M223.1 30.4l3.2 8.3M239.3 24.7l2.8 8.4M256.4 19.6l2.3 8.6M292 12.4l1.3 8.5M310.6 9.7l.9 8.9M328.3 8.5l.4 8.5M682.2 311.6l-19.5 2.1M682.3 382.5l-19.4-2.1M667.2 241.8l-18.5 6.1M638.4 177.5l-16.9 9.8M596.7 120.3l-14.5 13M544.2 73l-11.5 15.8M483.2 37.6l-7.9 17.8M416.2 15.7l-4.1 19M683.7 365.2l-9.1-.5M684.1 347.1H675M683.6 328.8l-9.1.5M679.9 294.1l-9 1.4M676.7 276.9l-8.8 1.9M672.5 259.8l-8.6 2.3M660.9 224.2l-8.4 3.3M654.5 208.8l-8.3 3.7M646.9 193l-8 4.1M628.4 161.3l-7.5 5M618.7 147.3l-7.2 5.4M607.8 133.2l-7 5.7M583.1 106l-6.3 6.4M571 94.7l-6 6.7M557.9 83.5l-5.7 7M529.7 63l-4.9 7.5M514.6 53.7l-4.5 7.8M499.2 45.3l-4.1 8M467.2 30.9l-3.3 8.4M451 25.1l-2.8 8.5M433.9 20l-2.3 8.6M398.4 12.4l-1.3 8.8M379.8 9.9l-.9 8.9M362.1 8.5l-.4 8.9"/>
  <circle id="svg-ico" class="perf3" cx="6.8" cy="382.7" r="3"/>
  <circle id="svg-ico" class="perf3" cx="6.7" cy="311.5" r="3"/>
  <circle id="svg-ico" class="perf3" cx="21.8" cy="241.3" r="3"/>
  <circle id="svg-ico" class="perf3" cx="51.2" cy="177" r="3"/>
  <circle id="svg-ico" class="perf3" cx="93.2" cy="119.7" r="3"/>
  <circle id="svg-ico" class="perf3" cx="146" cy="72.6" r="3"/>
  <circle id="svg-ico" class="perf3" cx="207.2" cy="37.4" r="3"/>
  <circle id="svg-ico" class="perf3" cx="274.2" cy="15.4" r="3"/>
  <circle id="svg-ico" class="perf3" cx="345.2" cy="8.1" r="3"/>
  <circle id="svg-ico" class="perf3" cx="416.1" cy="16.1" r="3"/>
  <circle id="svg-ico" class="perf3" cx="483" cy="37.9" r="3"/>
  <circle id="svg-ico" class="perf3" cx="544" cy="73.2" r="3"/>
  <circle id="svg-ico" class="perf3" cx="596.3" cy="120.6" r="3"/>
  <circle id="svg-ico" class="perf3" cx="638.2" cy="177.6" r="3"/>
  <circle id="svg-ico" class="perf3" cx="666.9" cy="241.9" r="3"/>
  <circle id="svg-ico" class="perf3" cx="681.8" cy="311.7" r="3"/>
  <circle id="svg-ico" class="perf3" cx="682" cy="382.4" r="3"/>
  <g>
    <path class="perf4" d="M480.4 483.7c75.2-75.2 75.2-197.1 0-272.2-75.2-75.2-197.1-75.2-272.2 0s-75.2 197.1 0 272.2c75.1 75.2 197 75.2 272.2 0zm-258.3-43.9c25.4-25.4 25.4-66.5 0-91.9-13.9-13.9-32.6-20.2-50.8-18.8 4.2-38.1 21-75.1 50.2-104.3s66.2-45.9 104.3-50.2c-1.4 18.2 4.9 36.9 18.8 50.8 25.4 25.4 66.5 25.4 91.9 0 5.3-5.3 9.5-11.3 12.6-17.8 6.9 5.1 13.6 10.8 19.9 17.1 52.4 52.4 64.6 129.8 36.7 193.8-25.3-17.3-60.1-14.8-82.6 7.7s-25 57.3-7.7 82.6c-64 28-141.4 15.7-193.8-36.7-6.3-6.3-12-12.9-17.1-19.9 6.2-2.9 12.2-7.1 17.6-12.4z"/>
    <path class="perf4" d="M457.6 450.5c0 3.5-2.9 6.4-6.4 6.4s-6.4-2.9-6.4-6.4 2.9-6.4 6.4-6.4 6.4 2.9 6.4 6.4z"/>
    <path class="perf4" d="M453.5 450.5c0 1.3-1.1 2.4-2.4 2.4s-2.4-1.1-2.4-2.4 1.1-2.4 2.4-2.4c1.4 0 2.4 1.1 2.4 2.4z"/>
    <path class="perf2" d="M457.6 450.5h-4.1M448.7 450.5h-4"/>
    <path class="perf4" d="M387.2 206.9c0 3.5-2.9 6.4-6.4 6.4s-6.4-2.9-6.4-6.4 2.9-6.4 6.4-6.4c3.6-.1 6.4 2.8 6.4 6.4z"/>
    <path class="perf4" d="M383.2 206.9c0 1.3-1.1 2.4-2.4 2.4s-2.4-1.1-2.4-2.4c0-1.3 1.1-2.4 2.4-2.4s2.4 1 2.4 2.4z"/>
    <path class="perf2" d="M387.2 206.9h-4M378.4 206.9h-4"/>
    <path class="perf4" d="M210.9 382.7c0 3.5-2.9 6.4-6.4 6.4s-6.4-2.9-6.4-6.4 2.9-6.4 6.4-6.4c3.6 0 6.4 2.9 6.4 6.4z"/>
    <path class="perf4" d="M206.9 382.7c0 1.3-1.1 2.4-2.4 2.4-1.3 0-2.4-1.1-2.4-2.4s1.1-2.4 2.4-2.4c1.3 0 2.4 1.1 2.4 2.4z"/>
    <path class="perf2" d="M210.9 382.7h-4M202.1 382.7h-4"/>
    <path id="svg-concept" d="M151.9 355.3c-.1-2.5-.1-5.1-.1-7.6 0-106.3 86.2-192.5 192.5-192.5s192.5 86.2 192.5 192.5-86.2 192.5-192.5 192.5c-103.8-.1-188.4-82.2-192.4-184.9" fill="none" stroke="#ee5586" stroke-width="3" stroke-linecap="round" stroke-linejoin="round" stroke-miterlimit="10"/>
    <path class="perf4" d="M365.1 368.4c-11.5 11.5-30 11.5-41.5 0-11.4-11.4-11.4-30 0-41.5 11.5-11.5 30-11.4 41.4 0 11.5 11.5 11.6 30 .1 41.5z"/>
    <path class="perf2" d="M352.1 355.4c-4.2 4.2-11.1 4.3-15.4 0-4.2-4.2-4.2-11.1 0-15.4 4.2-4.2 11.1-4.2 15.4 0 4.2 4.2 4.2 11.1 0 15.4zM365.1 368.4l-13.1-13M334.7 342l-13-13"/>
  </g>
  <g>
    <path id="svg-concept" d="M155.3 378l-35-4.5c-3.8-.5-4.4-5.8-.8-7.1l33.4-12.4" fill="#fff" stroke="#ee5586" stroke-width="3" stroke-linejoin="round" stroke-miterlimit="10"/>
    <animateTransform accumulate="none" additive="replace" attributeName="transform" calcMode="linear" dur="2s" fill="freeze" from="0 346 348" restart="always" to="192 344 349" type="rotate"/>
  </g>
</svg>
