<svg version="1.1" id="Layer_1" xmlns="http://www.w3.org/2000/svg" x="0" y="0" viewBox="0 0 1476.3 615" xml:space="preserve">
  <style>
    .promo0{fill:none;stroke:#fff;stroke-linecap:round;stroke-linejoin:round;stroke-miterlimit:10;stroke-opacity:.35}.promo0,.promo1,.promo2{opacity:.15;enable-background:new}.promo2{opacity:.35;fill:none;stroke:#fff;stroke-linecap:round;stroke-linejoin:round;stroke-miterlimit:10}.promo3{opacity:.7}.promo3,.promo4,.st5{enable-background:new}.promo4{fill:none;stroke:#ee5586;stroke-linecap:round;stroke-linejoin:round;stroke-miterlimit:10;opacity:.35}.st5{opacity:.71}
  </style>
  <path class="promo0" d="M35.4 461.7l57.9 57.9-57.9 57.9M.1 489.9l28.2-28.2M28.3 577.5L.1 549.3"/>
  <path class="promo0" d="M31.9 586.1c-2.8 0-5-2.3-5-5 0-2.8 2.3-5 5-5s5 2.3 5 5c0 2.8-2.3 5-5 5zM31.9 463.2c-2.8 0-5-2.3-5-5s2.3-5 5-5 5 2.3 5 5-2.3 5-5 5zM.1 367l28.2-28.3M28.3 454.6L0 426.2"/>
  <path class="promo0" d="M35.4 338.7l57.9 58-57.9 57.9M35.4 215.8l57.9 57.9-57.9 57.9M.1 244l28.2-28.2M28.3 331.6L0 303.3"/>
  <path class="promo0" d="M31.9 340.2c-2.8 0-5-2.3-5-5s2.3-5 5-5 5 2.3 5 5-2.3 5-5 5zM.1 612.9l28.2-28.2M35.4 584.7L66 615.3M31.9 217.2c-2.8 0-5-2.3-5-5 0-2.8 2.3-5 5-5s5 2.3 5 5c0 2.8-2.3 5-5 5zM.1 121.1l28.2-28.3M28.3 208.7L.1 180.4"/>
  <path class="promo0" d="M35.4 92.8l57.9 57.9-57.9 58M65.9.4l27.4 27.4-57.9 57.9M28.3 85.7L.1 57.4"/>
  <path class="promo0" d="M31.9 94.3c-2.8 0-5-2.3-5-5 0-2.8 2.3-5 5-5s5 2.3 5 5-2.3 5-5 5zM158.4 461.7l57.9 57.9-57.9 57.9M108.8 504.2l42.5-42.5M151.3 577.5L108.8 535"/>
  <path class="promo0" d="M154.9 586.1c-2.8 0-5-2.3-5-5 0-2.8 2.3-5 5-5s5 2.3 5 5c0 2.8-2.3 5-5 5zM154.9 463.2c-2.8 0-5-2.3-5-5s2.3-5 5-5 5 2.3 5 5-2.3 5-5 5zM108.8 381.3l42.5-42.6M151.3 454.6l-42.5-42.5"/>
  <path class="promo0" d="M158.4 338.7l57.9 58-57.9 57.9M158.4 215.8l57.9 57.9-57.9 57.9M108.8 258.3l42.5-42.5M151.3 331.6l-42.5-42.5"/>
  <path class="promo0" d="M154.9 340.2c-2.8 0-5-2.3-5-5s2.3-5 5-5 5 2.3 5 5-2.3 5-5 5zM120.7 615.3l30.6-30.6M158.4 584.7l30.6 30.6M154.9 217.2c-2.8 0-5-2.3-5-5 0-2.8 2.3-5 5-5s5 2.3 5 5c0 2.8-2.3 5-5 5zM108.8 135.3l42.5-42.5M151.3 208.7l-42.5-42.6"/>
  <path class="promo0" d="M158.4 92.8l57.9 57.9-57.9 58M189 .5l27.3 27.3-57.9 57.9M108.7 12.4l12-11.9M151.3 85.7l-42.5-42.5"/>
  <path class="promo0" d="M154.9 94.3c-2.8 0-5-2.3-5-5 0-2.8 2.3-5 5-5s5 2.3 5 5-2.3 5-5 5zM281.4 461.7l57.9 57.9-57.9 57.9M231.7 504.2l42.5-42.5M274.2 577.5L231.7 535"/>
  <path class="promo0" d="M277.8 586.1c-2.8 0-5-2.3-5-5 0-2.8 2.3-5 5-5 2.8 0 5 2.3 5 5 0 2.8-2.2 5-5 5zM277.8 463.2c-2.8 0-5-2.3-5-5s2.3-5 5-5c2.8 0 5 2.3 5 5s-2.2 5-5 5zM231.7 381.3l42.6-42.6M274.2 454.6l-42.5-42.5"/>
  <path class="promo0" d="M281.3 338.7l58 58-57.9 57.9M281.4 215.8l57.9 57.9-57.9 57.9M231.7 258.3l42.5-42.5M274.2 331.6l-42.5-42.5"/>
  <path class="promo0" d="M277.8 340.2c-2.8 0-5-2.3-5-5s2.3-5 5-5c2.8 0 5 2.3 5 5s-2.2 5-5 5zM243.6 615.3l30.7-30.6M281.3 584.7l30.7 30.6M277.8 217.2c-2.8 0-5-2.3-5-5 0-2.8 2.3-5 5-5 2.8 0 5 2.3 5 5 0 2.8-2.2 5-5 5zM231.7 135.3l42.6-42.5M274.2 208.7l-42.5-42.6"/>
  <path class="promo0" d="M281.3 92.8l58 57.9-57.9 58M312 .5l27.3 27.3-57.9 57.9M231.7 12.4L243.6.5M274.2 85.7l-42.5-42.5"/>
  <path class="promo0" d="M277.8 94.3c-2.8 0-5-2.3-5-5 0-2.8 2.3-5 5-5 2.8 0 5 2.3 5 5s-2.2 5-5 5zM404.3 461.7l58 57.9-57.9 57.9M354.7 504.2l42.5-42.5M397.2 577.5L354.7 535"/>
  <path class="promo0" d="M400.8 586.1c-2.8 0-5-2.3-5-5 0-2.8 2.3-5 5-5 2.8 0 5 2.3 5 5 0 2.8-2.2 5-5 5zM400.8 463.2c-2.8 0-5-2.3-5-5s2.3-5 5-5c2.8 0 5 2.3 5 5s-2.2 5-5 5zM354.7 381.3l42.6-42.6M397.2 454.6l-42.5-42.5"/>
  <path class="promo0" d="M404.3 338.7l58 58-58 57.9M404.3 215.8l58 57.9-57.9 57.9M354.7 258.3l42.5-42.5M397.2 331.6l-42.5-42.5"/>
  <path class="promo0" d="M400.8 340.2c-2.8 0-5-2.3-5-5s2.3-5 5-5c2.8 0 5 2.3 5 5s-2.2 5-5 5zM366.6 615.3l30.7-30.6M404.3 584.7l30.7 30.6M400.8 217.2c-2.8 0-5-2.3-5-5 0-2.8 2.3-5 5-5 2.8 0 5 2.3 5 5 0 2.8-2.2 5-5 5zM354.7 135.3l42.6-42.5M397.2 208.7l-42.5-42.6"/>
  <path class="promo0" d="M404.3 92.8l58 57.9-58 58M434.9.4l27.4 27.4-57.9 57.9M354.7 12.4L366.6.5M397.2 85.7l-42.5-42.5"/>
  <path class="promo0" d="M400.8 94.3c-2.8 0-5-2.3-5-5 0-2.8 2.3-5 5-5 2.8 0 5 2.3 5 5s-2.2 5-5 5zM527.3 461.7l57.9 57.9-57.9 57.9M477.7 504.2l42.5-42.5M520.2 577.5L477.7 535"/>
  <path class="promo0" d="M523.7 586.1c-2.8 0-5-2.3-5-5 0-2.8 2.3-5 5-5 2.8 0 5 2.3 5 5 .1 2.8-2.2 5-5 5zM523.7 463.2c-2.8 0-5-2.3-5-5s2.3-5 5-5c2.8 0 5 2.3 5 5s-2.2 5-5 5zM477.7 381.3l42.5-42.6M520.2 454.6l-42.5-42.5"/>
  <path class="promo0" d="M527.3 338.7l57.9 58-57.9 57.9M527.3 215.8l57.9 57.9-57.9 57.9M477.7 258.3l42.5-42.5M520.2 331.6l-42.5-42.5"/>
  <path class="promo0" d="M523.7 340.2c-2.8 0-5-2.3-5-5s2.3-5 5-5c2.8 0 5 2.3 5 5s-2.2 5-5 5zM489.6 615.3l30.6-30.6M527.3 584.7l30.6 30.6M523.7 217.2c-2.8 0-5-2.3-5-5 0-2.8 2.3-5 5-5 2.8 0 5 2.3 5 5 .1 2.8-2.2 5-5 5zM477.7 135.3l42.5-42.5M520.2 208.7l-42.5-42.6"/>
  <path class="promo0" d="M527.3 92.8l57.9 57.9-57.9 58M557.9.5l27.3 27.3-57.9 57.9M477.6 12.4L489.5.5M520.2 85.7l-42.5-42.5"/>
  <path class="promo0" d="M523.7 94.3c-2.8 0-5-2.3-5-5 0-2.8 2.3-5 5-5 2.8 0 5 2.3 5 5 .1 2.7-2.2 5-5 5zM650.3 461.7l57.9 57.9-57.9 57.9M600.7 504.2l42.5-42.5M643.2 577.5L600.7 535"/>
  <path class="promo0" d="M646.7 586.1c-2.8 0-5-2.3-5-5 0-2.8 2.3-5 5-5 2.8 0 5 2.3 5 5 .1 2.8-2.2 5-5 5zM646.7 463.2c-2.8 0-5-2.3-5-5s2.3-5 5-5c2.8 0 5 2.3 5 5s-2.2 5-5 5zM600.7 381.3l42.5-42.6M643.2 454.6l-42.5-42.5"/>
  <path class="promo0" d="M650.3 338.7l57.9 58-57.9 57.9M650.3 215.8l57.9 57.9-57.9 57.9M600.7 258.3l42.5-42.5M643.2 331.6l-42.5-42.5"/>
  <path class="promo0" d="M646.7 340.2c-2.8 0-5-2.3-5-5s2.3-5 5-5c2.8 0 5 2.3 5 5s-2.2 5-5 5zM612.6 615.3l30.6-30.6M650.3 584.7l30.6 30.6M646.7 217.2c-2.8 0-5-2.3-5-5 0-2.8 2.3-5 5-5 2.8 0 5 2.3 5 5 .1 2.8-2.2 5-5 5zM600.7 135.3l42.5-42.5M643.2 208.7l-42.5-42.6"/>
  <path class="promo0" d="M650.3 92.8l57.9 57.9-57.9 58M680.9.5l27.3 27.3-57.9 57.9M600.6 12.4L612.5.5M643.2 85.7l-42.5-42.5"/>
  <path class="promo0" d="M646.7 94.3c-2.8 0-5-2.3-5-5 0-2.8 2.3-5 5-5 2.8 0 5 2.3 5 5 .1 2.7-2.2 5-5 5zM773.3 461.7l57.9 57.9-57.9 57.9M723.7 504.2l42.5-42.5M766.2 577.5L723.7 535"/>
  <path class="promo0" d="M769.7 586.1c-2.8 0-5-2.3-5-5 0-2.8 2.3-5 5-5 2.8 0 5 2.3 5 5 .1 2.8-2.2 5-5 5zM769.7 463.2c-2.8 0-5-2.3-5-5s2.3-5 5-5c2.8 0 5 2.3 5 5s-2.2 5-5 5zM723.7 381.3l42.5-42.6M766.2 454.6l-42.5-42.5"/>
  <path class="promo0" d="M773.3 338.7l57.9 58-57.9 57.9M773.3 215.8l57.9 57.9-57.9 57.9M723.7 258.3l42.5-42.5M766.2 331.6l-42.5-42.5"/>
  <path class="promo0" d="M769.7 340.2c-2.8 0-5-2.3-5-5s2.3-5 5-5c2.8 0 5 2.3 5 5s-2.2 5-5 5zM735.6 615.3l30.6-30.6M773.3 584.7l30.6 30.6M769.7 217.2c-2.8 0-5-2.3-5-5 0-2.8 2.3-5 5-5 2.8 0 5 2.3 5 5 .1 2.8-2.2 5-5 5zM723.7 135.3l42.5-42.5M766.2 208.7l-42.5-42.6"/>
  <path class="promo0" d="M773.3 92.8l57.9 57.9-57.9 58M803.9.5l27.3 27.3-57.9 57.9M723.6 12.4L735.5.5M766.2 85.7l-42.5-42.5"/>
  <path class="promo0" d="M769.7 94.3c-2.8 0-5-2.3-5-5 0-2.8 2.3-5 5-5 2.8 0 5 2.3 5 5 .1 2.7-2.2 5-5 5zM896.3 461.7l57.9 57.9-57.9 57.9M846.7 504.2l42.5-42.5M889.2 577.5L846.7 535"/>
  <path class="promo0" d="M892.7 586.1c-2.8 0-5-2.3-5-5 0-2.8 2.3-5 5-5 2.8 0 5 2.3 5 5 .1 2.8-2.2 5-5 5zM892.7 463.2c-2.8 0-5-2.3-5-5s2.3-5 5-5c2.8 0 5 2.3 5 5s-2.2 5-5 5zM846.7 381.3l42.5-42.6M889.2 454.6l-42.5-42.5"/>
  <path class="promo0" d="M896.3 338.7l57.9 58-57.9 57.9M896.3 215.8l57.9 57.9-57.9 57.9M846.7 258.3l42.5-42.5M889.2 331.6l-42.5-42.5"/>
  <path class="promo0" d="M892.7 340.2c-2.8 0-5-2.3-5-5s2.3-5 5-5c2.8 0 5 2.3 5 5s-2.2 5-5 5zM858.5 615.3l30.7-30.6M896.3 584.7l30.6 30.6M892.7 217.2c-2.8 0-5-2.3-5-5 0-2.8 2.3-5 5-5 2.8 0 5 2.3 5 5 .1 2.8-2.2 5-5 5zM846.7 135.3l42.5-42.5M889.2 208.7l-42.5-42.6"/>
  <path class="promo0" d="M896.3 92.8l57.9 57.9-57.9 58M926.9.5l27.3 27.3-57.9 57.9M846.6 12.4l12-12M889.2 85.7l-42.5-42.5"/>
  <path class="promo0" d="M892.7 94.3c-2.8 0-5-2.3-5-5 0-2.8 2.3-5 5-5 2.8 0 5 2.3 5 5 .1 2.7-2.2 5-5 5zM1019.2 461.7l58 57.9-58 57.9M969.6 504.2l42.5-42.5M1012.1 577.5L969.6 535"/>
  <path class="promo0" d="M1015.7 586.1c-2.8 0-5-2.3-5-5 0-2.8 2.3-5 5-5 2.8 0 5 2.3 5 5 0 2.8-2.2 5-5 5zM1015.7 463.2c-2.8 0-5-2.3-5-5s2.3-5 5-5c2.8 0 5 2.3 5 5s-2.2 5-5 5zM969.6 381.3l42.5-42.6M1012.1 454.6l-42.5-42.5"/>
  <path class="promo0" d="M1019.2 338.7l58 58-58 57.9M1019.2 215.8l58 57.9-58 57.9M969.6 258.3l42.5-42.5M1012.1 331.6l-42.5-42.5"/>
  <path class="promo0" d="M1015.7 340.2c-2.8 0-5-2.3-5-5s2.3-5 5-5c2.8 0 5 2.3 5 5s-2.2 5-5 5zM981.5 615.3l30.6-30.6M1019.2 584.7l30.7 30.6M1015.7 217.2c-2.8 0-5-2.3-5-5 0-2.8 2.3-5 5-5 2.8 0 5 2.3 5 5 0 2.8-2.2 5-5 5zM969.6 135.3l42.5-42.5M1012.1 208.7l-42.5-42.6"/>
  <path class="promo0" d="M1019.2 92.8l58 57.9-58 58M1049.9.5l27.3 27.3-58 57.9M969.5 12.4L981.4.6M1012.1 85.7l-42.5-42.5"/>
  <path class="promo0" d="M1015.7 94.3c-2.8 0-5-2.3-5-5 0-2.8 2.3-5 5-5 2.8 0 5 2.3 5 5s-2.2 5-5 5zM1142.2 461.7l58 57.9-58 57.9M1092.6 504.2l42.5-42.5M1135.1 577.5l-42.5-42.5"/>
  <path class="promo0" d="M1138.7 586.1c-2.8 0-5-2.3-5-5 0-2.8 2.3-5 5-5 2.8 0 5 2.3 5 5 0 2.8-2.3 5-5 5zM1138.7 463.2c-2.8 0-5-2.3-5-5s2.3-5 5-5c2.8 0 5 2.3 5 5s-2.3 5-5 5zM1092.6 381.3l42.5-42.6M1135.1 454.6l-42.5-42.5"/>
  <path class="promo0" d="M1142.2 338.7l58 58-58 57.9M1142.2 215.8l58 57.9-58 57.9M1092.6 258.3l42.5-42.5M1135.1 331.6l-42.5-42.5"/>
  <path class="promo0" d="M1138.7 340.2c-2.8 0-5-2.3-5-5s2.3-5 5-5c2.8 0 5 2.3 5 5s-2.3 5-5 5zM1104.5 615.3l30.6-30.6M1142.2 584.7l30.7 30.6M1138.7 217.2c-2.8 0-5-2.3-5-5 0-2.8 2.3-5 5-5 2.8 0 5 2.3 5 5 0 2.8-2.3 5-5 5zM1092.6 135.3l42.5-42.5M1135.1 208.7l-42.5-42.6"/>
  <path class="promo0" d="M1142.2 92.8l58 57.9-58 58M1172.9.5l27.3 27.3-58 57.9M1092.5 12.4l12-11.9M1135.1 85.7l-42.5-42.5"/>
  <path class="promo0" d="M1138.7 94.3c-2.8 0-5-2.3-5-5 0-2.8 2.3-5 5-5 2.8 0 5 2.3 5 5s-2.3 5-5 5zM1265.2 461.7l57.9 57.9-57.9 57.9M1215.6 504.2l42.5-42.5M1258.1 577.5l-42.5-42.5"/>
  <path class="promo0" d="M1261.6 586.1c-2.8 0-5-2.3-5-5 0-2.8 2.3-5 5-5 2.8 0 5 2.3 5 5 .1 2.8-2.2 5-5 5zM1261.6 463.2c-2.8 0-5-2.3-5-5s2.3-5 5-5c2.8 0 5 2.3 5 5s-2.2 5-5 5zM1215.6 381.3l42.5-42.6M1258.1 454.6l-42.5-42.5"/>
  <path class="promo0" d="M1265.2 338.7l57.9 58-57.9 57.9M1265.2 215.8l57.9 57.9-57.9 57.9M1215.6 258.3l42.5-42.5M1258.1 331.6l-42.5-42.5"/>
  <path class="promo0" d="M1261.6 340.2c-2.8 0-5-2.3-5-5s2.3-5 5-5c2.8 0 5 2.3 5 5s-2.2 5-5 5zM1227.4 615.3l30.7-30.6M1265.2 584.7l30.6 30.6M1261.6 217.2c-2.8 0-5-2.3-5-5 0-2.8 2.3-5 5-5 2.8 0 5 2.3 5 5 .1 2.8-2.2 5-5 5zM1215.6 135.3l42.5-42.5M1258.1 208.7l-42.5-42.6"/>
  <path class="promo0" d="M1265.2 92.8l57.9 57.9-57.9 58M1295.8.5l27.3 27.3-57.9 57.9M1215.5 12.4L1227.4.5M1258.1 85.7l-42.5-42.5"/>
  <path class="promo0" d="M1261.6 94.3c-2.8 0-5-2.3-5-5 0-2.8 2.3-5 5-5 2.8 0 5 2.3 5 5 .1 2.7-2.2 5-5 5zM1388.2 461.7l57.9 57.9-57.9 57.9M1338.6 504.2l42.5-42.5M1381.1 577.5l-42.5-42.5"/>
  <path class="promo0" d="M1384.6 586.1c-2.8 0-5-2.3-5-5 0-2.8 2.3-5 5-5 2.8 0 5 2.3 5 5 .1 2.8-2.2 5-5 5zM1384.6 463.2c-2.8 0-5-2.3-5-5s2.3-5 5-5c2.8 0 5 2.3 5 5s-2.2 5-5 5zM1338.6 381.3l42.5-42.6M1381.1 454.6l-42.5-42.5"/>
  <path class="promo0" d="M1388.2 338.7l57.9 58-57.9 57.9M1388.2 215.8l57.9 57.9-57.9 57.9M1338.6 258.3l42.5-42.5M1381.1 331.6l-42.5-42.5"/>
  <path class="promo0" d="M1384.6 340.2c-2.8 0-5-2.3-5-5s2.3-5 5-5c2.8 0 5 2.3 5 5s-2.2 5-5 5zM1350.4 615.3l30.7-30.6M1388.2 584.7l30.6 30.6M1384.6 217.2c-2.8 0-5-2.3-5-5 0-2.8 2.3-5 5-5 2.8 0 5 2.3 5 5 .1 2.8-2.2 5-5 5zM1338.6 135.3l42.5-42.5M1381.1 208.7l-42.5-42.6"/>
  <path class="promo0" d="M1388.2 92.8l57.9 57.9-57.9 58M1418.8.5l27.3 27.3-57.9 57.9M1338.5 12.4L1350.4.5M1381.1 85.7l-42.5-42.5"/>
  <path class="promo0" d="M1384.6 94.3c-2.8 0-5-2.3-5-5 0-2.8 2.3-5 5-5 2.8 0 5 2.3 5 5 .1 2.7-2.2 5-5 5z"/>
  <g class="promo1">
    <path class="promo2" d="M635.5 40.9H633c-.4 0-.7-.3-.7-.6l-.8-5M656.7 40.9h-12M621.8 7.3h8.9"/>
    <path class="promo2" d="M667.5 30.9L632 36.1c-.2 0-.4-.2-.4-.5L628 11.9c0-.3.2-.5.5-.5h42.6c.3 0 .5.2.5.5l-3.7 18.4c0 .3-.2.6-.4.6M638.9 17.5v9.6M645.9 17.5v9.6M653 17.5v9.6M660 17.5v9.6M644.9 43.3c0 2.7-2.2 4.8-4.8 4.8-2.7 0-4.8-2.2-4.8-4.8 0-2.7 2.2-4.8 4.8-4.8s4.8 2.2 4.8 4.8M666.1 43.3c0 2.7-2.2 4.8-4.8 4.8-2.7 0-4.8-2.2-4.8-4.8 0-2.7 2.2-4.8 4.8-4.8 2.6 0 4.8 2.2 4.8 4.8"/>
  </g>
  <g class="promo1">
    <path class="promo2" d="M451.1 225.4h-2.5c-.4 0-.7-.3-.7-.6l-.8-5M472.3 225.4h-12.1M437.4 191.8h8.9"/>
    <path class="promo2" d="M483.1 215.4l-35.5 5.2c-.2 0-.4-.2-.4-.5l-3.7-23.7c0-.3.2-.5.5-.5h42.6c.3 0 .5.2.5.5l-3.7 18.4c.1.3-.1.6-.3.6M454.4 202v9.6M461.5 202v9.6M468.5 202v9.6M475.6 202v9.6M460.5 227.8c0 2.7-2.2 4.8-4.8 4.8-2.7 0-4.8-2.2-4.8-4.8 0-2.7 2.2-4.8 4.8-4.8s4.8 2.1 4.8 4.8M481.6 227.8c0 2.7-2.2 4.8-4.8 4.8-2.7 0-4.8-2.2-4.8-4.8 0-2.7 2.2-4.8 4.8-4.8 2.7 0 4.8 2.1 4.8 4.8"/>
  </g>
  <g class="promo3">
    <path id="svg-concept" class="promo4" d="M881.6 163.9h-2.5c-.4 0-.7-.3-.7-.6l-.8-5M902.7 163.9h-12M867.8 130.3h9"/>
    <path id="svg-concept" class="promo4" d="M913.6 153.9l-35.5 5.2c-.2 0-.4-.2-.4-.5l-3.7-23.7c0-.3.2-.5.5-.5h42.6c.3 0 .5.2.5.5l-3.7 18.4c.1.3-.1.6-.3.6M884.9 140.5v9.7M892 140.5v9.7M899 140.5v9.7M906.1 140.5v9.7M890.9 166.3c0 2.7-2.2 4.8-4.8 4.8-2.7 0-4.8-2.2-4.8-4.8 0-2.7 2.2-4.8 4.8-4.8 2.7 0 4.8 2.2 4.8 4.8M912.1 166.3c0 2.7-2.2 4.8-4.8 4.8s-4.8-2.2-4.8-4.8c0-2.7 2.2-4.8 4.8-4.8s4.8 2.2 4.8 4.8"/>
  </g>
  <g class="promo1">
    <path class="promo2" d="M53.9 19.1c1.3 0 2.3 1 2.3 2.3v29c0 1.3-1 2.3-2.3 2.3h-44c-1.3 0-2.3-1-2.3-2.3v-29c0-1.3 1-2.3 2.3-2.3"/>
    <path class="promo2" d="M53.9 19.1l-22 16.2-22-16.2"/>
    <path class="promo2" d="M53.9 19.1l-22-16.2-22 16.2M24.9 30.7L8.7 51.5M38.8 30.7L55 51.5"/>
  </g>
  <g class="promo1">
    <path class="promo2" d="M668.7 142c1.3 0 2.3 1 2.3 2.3v29c0 1.3-1 2.3-2.3 2.3h-44c-1.3 0-2.3-1-2.3-2.3v-29c0-1.3 1-2.3 2.3-2.3"/>
    <path class="promo2" d="M668.7 142l-22 16.3-22-16.3M668.7 142l-22-16.2-22 16.2M639.8 153.6l-16.2 20.9M653.7 153.6l16.2 20.9"/>
  </g>
  <g class="promo3">
    <path id="svg-concept" class="promo4" d="M361.3 80.5c1.3 0 2.3 1 2.3 2.3v29c0 1.3-1 2.3-2.3 2.3h-44c-1.3 0-2.3-1-2.3-2.3v-29c0-1.3 1-2.3 2.3-2.3"/>
    <path id="svg-concept" class="promo4" d="M361.3 80.5l-22 16.3-22-16.3M361.3 80.5l-22-16.2-22 16.2M332.3 92.1L316.1 113M346.2 92.1l16.2 20.9"/>
  </g>
  <g class="promo1">
    <path class="promo2" d="M238.3 203.5c1.3 0 2.3 1 2.3 2.3v29c0 1.3-1 2.3-2.3 2.3h-44c-1.3 0-2.3-1-2.3-2.3v-29c0-1.3 1-2.3 2.3-2.3"/>
    <path class="promo2" d="M238.3 203.5l-22 16.2-22-16.2M238.3 203.5l-22-16.2-22 16.2M209.4 215.1l-16.2 20.8M223.3 215.1l16.2 20.8"/>
  </g>
  <path class="promo0" d="M376.2 19.7c0-11.3 6-13.4 13.4-13.4 4.7 0 8.8 2.4 11.2 6 2.4-3.6 6.5-6 11.2-6 7.4 0 13.4 2.7 13.4 13.4 0 10.8-24.6 29.7-24.6 29.7s-24.6-18.3-24.6-29.7zM7.2 142.6c0-11.3 6-13.4 13.4-13.4 4.7 0 8.8 2.4 11.2 6 2.4-3.6 6.5-6 11.2-6 7.4 0 13.4 2.7 13.4 13.4 0 10.8-24.6 29.7-24.6 29.7S7.2 154 7.2 142.6zM929.6 81.2c0-11.3 6-13.4 13.4-13.4 4.7 0 8.8 2.4 11.2 6 2.4-3.6 6.5-6 11.2-6 7.4 0 13.4 2.7 13.4 13.4 0 10.8-24.6 29.7-24.6 29.7s-24.6-18.4-24.6-29.7z"/>
  <g class="promo1">
    <path class="promo2" d="M1031.9 33.1c0 1.1-.9 2.1-2.1 2.1-1.1 0-2.1-.9-2.1-2.1 0-1.1.9-2.1 2.1-2.1 1.2 0 2.1.9 2.1 2.1z"/>
    <circle class="promo2" cx="1015.7" cy="50.7" r="2.1"/>
    <path class="promo2" d="M1040.4 39.6c0 1.3-1.2 2.4-2.6 2.4h-44.2c-1.4 0-2.6-1.1-2.6-2.4V26.5c0-1.3 1.2-2.4 2.6-2.4h44.2c1.4 0 2.6 1.1 2.6 2.4v13.1zM1031.9 11.7c0 1.1-.9 2.1-2.1 2.1-1.1 0-2.1-.9-2.1-2.1s.9-2.1 2.1-2.1c1.2 0 2.1 1 2.1 2.1z"/>
    <path class="promo2" d="M1040.4 18.3c0 1.3-1.2 2.4-2.6 2.4h-44.2c-1.4 0-2.6-1.1-2.6-2.4V5.1c0-1.3 1.2-2.4 2.6-2.4h44.2c1.4 0 2.6 1.1 2.6 2.4v13.2zM1015.7 45v3.5M999.4 50.7h14.2M1017.8 50.7h14.2"/>
  </g>
  <g class="promo3">
    <path id="svg-concept" class="promo4" d="M1278 156c0 1.1-.9 2.1-2.1 2.1-1.1 0-2.1-.9-2.1-2.1s.9-2.1 2.1-2.1c1.2.1 2.1 1 2.1 2.1z"/>
    <circle id="svg-concept" class="promo4" cx="1261.8" cy="173.7" r="2.1"/>
    <path id="svg-concept" class="promo4" d="M1286.5 162.6c0 1.3-1.2 2.4-2.6 2.4h-44.2c-1.4 0-2.6-1.1-2.6-2.4v-13.1c0-1.3 1.2-2.4 2.6-2.4h44.2c1.4 0 2.6 1.1 2.6 2.4v13.1zM1278 134.7c0 1.1-.9 2.1-2.1 2.1-1.1 0-2.1-.9-2.1-2.1s.9-2.1 2.1-2.1c1.2 0 2.1.9 2.1 2.1z"/>
    <path id="svg-concept" class="promo4" d="M1286.5 141.2c0 1.3-1.2 2.4-2.6 2.4h-44.2c-1.4 0-2.6-1.1-2.6-2.4v-13.1c0-1.3 1.2-2.4 2.6-2.4h44.2c1.4 0 2.6 1.1 2.6 2.4v13.1zM1261.8 167.9v3.6M1245.5 173.7h14.2M1263.9 173.7h14.2"/>
  </g>
  <g class="promo1">
    <path class="promo2" d="M749 51.1c0 1.1-.9 2.1-2.1 2.1-1.1 0-2.1-.9-2.1-2.1 0-1.1.9-2.1 2.1-2.1 1.2.1 2.1 1 2.1 2.1zM769.7 27.4v5.5M769.7 40.8V49M767 14.6h-2.8M775.2 14.6h-2.7"/>
    <circle class="promo2" cx="769.7" cy="13.3" r="11"/>
    <path class="promo2" d="M783.1 32.2v4.9h-26.8v-4.9c0-2.7 2.2-4.9 4.9-4.9h17c2.7.1 4.9 2.3 4.9 4.9zM760 9l16.8-4.1M748.4 49.7l8.6-8.6M790.3 51.1c0 1.1.9 2.1 2.1 2.1 1.2 0 2.1-.9 2.1-2.1 0-1.1-.9-2.1-2.1-2.1-1.2.1-2.1 1-2.1 2.1zM767.6 51.1c0 1.1.9 2.1 2.1 2.1 1.1 0 2.1-.9 2.1-2.1 0-1.1-.9-2.1-2.1-2.1-1.1.1-2.1 1-2.1 2.1zM790.9 49.7l-8.7-8.6"/>
  </g>
  <g class="promo3">
    <path id="svg-concept" class="promo4" d="M1056.2 235.4c0 1.1-.9 2.1-2.1 2.1-1.1 0-2.1-.9-2.1-2.1 0-1.1.9-2.1 2.1-2.1 1.2 0 2.1 1 2.1 2.1zM1077 211.7v5.4M1077 225.1v8.2M1074.2 198.9h-2.7M1082.4 198.9h-2.7"/>
    <circle id="svg-concept" class="promo4" cx="1077" cy="197.6" r="11"/>
    <path id="svg-concept" class="promo4" d="M1090.4 216.5v4.9h-26.8v-4.9c0-2.7 2.2-4.9 4.9-4.9h17c2.7.1 4.9 2.2 4.9 4.9zM1067.2 193.2l16.9-4M1055.6 233.9l8.6-8.5M1097.5 235.4c0 1.1.9 2.1 2.1 2.1s2.1-.9 2.1-2.1c0-1.1-.9-2.1-2.1-2.1-1.1 0-2.1 1-2.1 2.1zM1074.9 235.4c0 1.1.9 2.1 2.1 2.1 1.1 0 2.1-.9 2.1-2.1 0-1.1-.9-2.1-2.1-2.1s-2.1 1-2.1 2.1zM1098.1 233.9l-8.7-8.5"/>
  </g>
  <g class="promo1">
    <path class="promo2" d="M257.1 174.1c0 1.1-.9 2.1-2.1 2.1-1.1 0-2.1-.9-2.1-2.1 0-1.1.9-2.1 2.1-2.1s2.1.9 2.1 2.1zM277.8 150.3v5.5M277.8 163.8v8.2M275.1 137.6h-2.7M283.3 137.6h-2.7"/>
    <circle class="promo2" cx="277.8" cy="136.3" r="11"/>
    <path class="promo2" d="M291.2 155.2v4.9h-26.8v-4.9c0-2.7 2.2-4.9 4.9-4.9h17c2.7 0 4.9 2.2 4.9 4.9zM268.1 131.9l16.8-4M256.5 172.6l8.6-8.5M298.4 174.1c0 1.1.9 2.1 2.1 2.1s2.1-.9 2.1-2.1c0-1.1-.9-2.1-2.1-2.1-1.1 0-2.1.9-2.1 2.1zM275.8 174.1c0 1.1.9 2.1 2.1 2.1 1.1 0 2.1-.9 2.1-2.1 0-1.1-.9-2.1-2.1-2.1-1.2 0-2.1.9-2.1 2.1zM299 172.6l-8.7-8.5"/>
  </g>
  <g class="promo1">
    <path class="promo2" d="M441.7 112.6c0 1.1-.9 2.1-2.1 2.1-1.1 0-2.1-.9-2.1-2.1 0-1.1.9-2.1 2.1-2.1 1.2.1 2.1 1 2.1 2.1zM462.4 88.9v5.5M462.4 102.3v8.2M459.7 76.1H457M467.9 76.1h-2.7"/>
    <circle class="promo2" cx="462.4" cy="74.8" r="11"/>
    <path class="promo2" d="M475.8 93.8v4.9H449v-4.9c0-2.7 2.2-4.9 4.9-4.9h17c2.8 0 4.9 2.2 4.9 4.9zM452.7 70.5l16.8-4.1M441.1 111.2l8.6-8.6M483 112.6c0 1.1.9 2.1 2.1 2.1s2.1-.9 2.1-2.1c0-1.1-.9-2.1-2.1-2.1-1.1.1-2.1 1-2.1 2.1zM460.4 112.6c0 1.1.9 2.1 2.1 2.1 1.1 0 2.1-.9 2.1-2.1 0-1.1-.9-2.1-2.1-2.1-1.2.1-2.1 1-2.1 2.1zM483.6 111.2l-8.7-8.6"/>
  </g>
  <g class="promo3">
    <path id="svg-concept" class="promo4" d="M899.9 42.4c0 1.1-.9 2.1-2.1 2.1-1.1 0-2.1-.9-2.1-2.1 0-1.1.9-2.1 2.1-2.1 1.2.1 2.1 1 2.1 2.1zM908.8 42.4c0 1.1-.9 2.1-2.1 2.1-1.1 0-2.1-.9-2.1-2.1 0-1.1.9-2.1 2.1-2.1 1.2.1 2.1 1 2.1 2.1zM899.9 25.7c0 1.1-.9 2.1-2.1 2.1-1.1 0-2.1-.9-2.1-2.1 0-1.1.9-2.1 2.1-2.1s2.1 1 2.1 2.1zM908.8 25.7c0 1.1-.9 2.1-2.1 2.1-1.1 0-2.1-.9-2.1-2.1 0-1.1.9-2.1 2.1-2.1 1.2 0 2.1 1 2.1 2.1zM899.9 9c0 1.1-.9 2.1-2.1 2.1-1.1 0-2.1-.9-2.1-2.1 0-1.1.9-2.1 2.1-2.1 1.2 0 2.1.9 2.1 2.1zM908.8 9c0 1.1-.9 2.1-2.1 2.1-1.1 0-2.1-.9-2.1-2.1 0-1.1.9-2.1 2.1-2.1 1.2 0 2.1.9 2.1 2.1z"/>
    <path id="svg-concept" class="promo4" d="M915.5 3.2c0-1.2-1.1-2.2-2.4-2.2h-40.8c-1.3 0-2.4 1-2.4 2.2v45c0 1.2 1.1 2.2 2.4 2.2h40.8c1.3 0 2.4-1 2.4-2.2v-45zM875.5 17.7h34.4M875.5 33.7h34.4"/>
    <path id="svg-concept" class="promo4" d="M883.6 50.4v4.1h-6.8v-4.1M908.6 50.4v4.1h-6.9v-4.1"/>
  </g>
  <g class="promo3">
    <path id="svg-concept" class="promo4" d="M530.9 165.4c0 1.1-.9 2.1-2.1 2.1-1.1 0-2.1-.9-2.1-2.1 0-1.1.9-2.1 2.1-2.1s2.1 1 2.1 2.1zM539.9 165.4c0 1.1-.9 2.1-2.1 2.1-1.1 0-2.1-.9-2.1-2.1 0-1.1.9-2.1 2.1-2.1s2.1 1 2.1 2.1zM530.9 148.7c0 1.1-.9 2.1-2.1 2.1-1.1 0-2.1-.9-2.1-2.1 0-1.1.9-2.1 2.1-2.1 1.2 0 2.1.9 2.1 2.1zM539.9 148.7c0 1.1-.9 2.1-2.1 2.1-1.1 0-2.1-.9-2.1-2.1 0-1.1.9-2.1 2.1-2.1 1.2 0 2.1.9 2.1 2.1zM530.9 131.9c0 1.1-.9 2.1-2.1 2.1-1.1 0-2.1-.9-2.1-2.1 0-1.1.9-2.1 2.1-2.1 1.2.1 2.1 1 2.1 2.1zM539.9 131.9c0 1.1-.9 2.1-2.1 2.1-1.1 0-2.1-.9-2.1-2.1 0-1.1.9-2.1 2.1-2.1 1.2.1 2.1 1 2.1 2.1z"/>
    <path id="svg-concept" class="promo4" d="M546.5 126.1c0-1.2-1.1-2.2-2.4-2.2h-40.8c-1.3 0-2.4 1-2.4 2.2v45c0 1.2 1.1 2.2 2.4 2.2h40.8c1.3 0 2.4-1 2.4-2.2v-45zM506.6 140.7h34.3M506.6 156.7h34.3M514.7 173.4v4.1h-6.9v-4.1M539.7 173.4v4.1h-6.9v-4.1"/>
  </g>
  <g class="promo1">
    <path class="promo2" d="M1207.3 103.9c0 1.1-.9 2.1-2.1 2.1-1.1 0-2.1-.9-2.1-2.1 0-1.1.9-2.1 2.1-2.1 1.2.1 2.1 1 2.1 2.1zM1216.3 103.9c0 1.1-.9 2.1-2.1 2.1-1.1 0-2.1-.9-2.1-2.1 0-1.1.9-2.1 2.1-2.1 1.2.1 2.1 1 2.1 2.1zM1207.3 87.2c0 1.1-.9 2.1-2.1 2.1-1.1 0-2.1-.9-2.1-2.1 0-1.1.9-2.1 2.1-2.1s2.1.9 2.1 2.1zM1216.3 87.2c0 1.1-.9 2.1-2.1 2.1-1.1 0-2.1-.9-2.1-2.1 0-1.1.9-2.1 2.1-2.1s2.1.9 2.1 2.1zM1207.3 70.5c0 1.1-.9 2.1-2.1 2.1-1.1 0-2.1-.9-2.1-2.1 0-1.1.9-2.1 2.1-2.1s2.1.9 2.1 2.1zM1216.3 70.5c0 1.1-.9 2.1-2.1 2.1-1.1 0-2.1-.9-2.1-2.1 0-1.1.9-2.1 2.1-2.1s2.1.9 2.1 2.1z"/>
    <path class="promo2" d="M1222.9 64.7c0-1.2-1.1-2.2-2.4-2.2h-40.8c-1.3 0-2.4 1-2.4 2.2v45c0 1.2 1.1 2.2 2.4 2.2h40.8c1.3 0 2.4-1 2.4-2.2v-45zM1183 79.2h34.3M1183 95.2h34.3M1191.1 111.9v4.1h-6.9v-4.1M1216.1 111.9v4.1h-6.9v-4.1"/>
  </g>
  <g class="promo3">
    <path id="svg-concept" class="promo4" d="M523.9 3.5s-1.3 1.9-2.9 2.7c-1.6.9 0 2.1 0 2.1l-2.4 2.4-3.3 1.9-3.9-.4.4-2.4 2.1-1.3.3-1.9-.2-1.1M507.3 9.9v6.3l-.7.4-.7 6.7s-2.6 1-2.9 1l-3.5 1.5M500 33.1l3.4-1.4 2.6 2-.4.7 2.6 2.9h.7l2.6 1.4 1.1.6s-.1.7 0 1-.9 1.7-.9 1.7v1.9l1.6 1.9.7.7 2.9 1.4 2.9 4M536.6 7.2c-.3-.1-3.1 3.8-3.1 3.8l.9 2.1-.6.4-2 1-2.4 1.3s-.9 2-1.6 2.6c-.7.6-2.3 1.9-2.3 1.9l-1.9 4.4-2.4 4.9.1 2.6 2.1 2.6 2.6-1.4 1.9.9.1 3 1.4 1.4s-.3.9-.4 1.1l-.9 1.9-.9.4.6 2.6 2.3 2.3s2-1.3 2.1-1.6c.1-.1 1.6-3.4 1.6-3.4l3.3-3.3 1.9-2.6 1.4-3.3-.7-2-1-1.1.7-1.1s1.7-1.6 1.9-1.1c.1.4.9 3.3.9 3.3l2.4-.7.1-.7 3.3-1.1"/>
    <path id="svg-concept" class="promo4" d="M523.7 3.5C538 3.5 548 15.3 548 27.8c0 13.4-10.9 24.3-24.3 24.3s-24.3-10.9-24.3-24.3c.1-13.4 10.9-24.3 24.3-24.3z"/>
  </g>
  <g class="promo3">
    <path id="svg-concept" class="promo4" d="M339.5 188.1s-1.3 1.9-2.9 2.7c-1.6.9 0 2.1 0 2.1l-2.4 2.4-3.3 1.9-3.9-.4.4-2.4 2.1-1.3.3-1.9-.3-1.1M322.8 194.5v6.3l-.7.4-.7 6.7s-2.6 1-2.9 1l-3.5 1.5M315.6 217.6l3.4-1.4 2.6 2-.4.7 2.6 2.9h.7l2.6 1.4 1.1.6s-.1.7 0 1-.9 1.7-.9 1.7v1.9l1.6 1.9.7.7 2.9 1.4 2.9 4M352.1 191.7c-.3-.1-3.1 3.8-3.1 3.8l.9 2.1-.6.4-2 1-2.4 1.3s-.9 2-1.6 2.6-2.3 1.9-2.3 1.9l-1.9 4.4-2.4 4.9.1 2.6 2.1 2.6 2.6-1.4 1.9.9.1 3 1.4 1.4s-.3.9-.4 1.1l-.9 1.9-.9.4.6 2.6 2.3 2.3s2-1.3 2.1-1.6c.1-.1 1.6-3.4 1.6-3.4l3.3-3.3 1.9-2.6 1.4-3.3-.7-2-1-1.1.7-1.1s1.7-1.6 1.9-1.1c.1.4.9 3.3.9 3.3l2.4-.7.1-.7 3.3-.8"/>
    <path id="svg-concept" class="promo4" d="M339.3 188.1c14.2 0 24.3 11.8 24.3 24.3 0 13.4-10.9 24.3-24.3 24.3S315 225.8 315 212.4c0-13.5 10.9-24.3 24.3-24.3z"/>
  </g>
  <g class="promo3">
    <path id="svg-concept" class="promo4" d="M155 126.5s-1.3 1.9-2.9 2.7c-1.6.9 0 2.1 0 2.1l-2.4 2.4-3.3 1.9-3.9-.4.4-2.4 2.1-1.3.3-1.9-.3-1.1M138.4 132.8v6.3l-.7.4-.7 6.7s-2.6 1-2.9 1l-3.5 1.5M131.1 156l3.4-1.4 2.6 2-.4.7 2.6 2.9h.7l2.6 1.4 1.1.6s-.1.7 0 1-.9 1.7-.9 1.7v1.9l1.6 1.9.7.7 2.9 1.4 2.9 4M167.6 130.1c-.3-.1-3.1 3.8-3.1 3.8l.9 2.1-.6.4-2 1-2.4 1.3s-.9 2-1.6 2.6c-.7.6-2.3 1.9-2.3 1.9l-1.9 4.4-2.4 4.9.1 2.6 2.1 2.6 2.6-1.4 1.9.9.1 3 1.4 1.4s-.3.9-.4 1.1l-.9 1.9-.9.4.6 2.6 2.3 2.3s2-1.3 2.1-1.6c.1-.1 1.6-3.4 1.6-3.4l3.3-3.3 1.9-2.6 1.4-3.3-.7-2-1-1.1.7-1.1s1.7-1.6 1.9-1.1c.1.4.9 3.3.9 3.3l2.4-.7.1-.7 3.3-.8"/>
    <path id="svg-concept" class="promo4" d="M154.8 126.4c14.2 0 24.3 11.8 24.3 24.3 0 13.4-10.9 24.3-24.3 24.3s-24.3-10.9-24.3-24.3 10.9-24.3 24.3-24.3z"/>
  </g>
  <g class="promo3">
    <path id="svg-concept" class="promo4" d="M1077.4 65s-1.3 1.9-2.9 2.7c-1.6.9 0 2.1 0 2.1l-2.5 2.5-3.3 1.9-3.9-.4.4-2.4 2.1-1.3.3-1.9-.3-1.1M1060.7 71.4v6.3l-.7.4-.7 6.7s-2.6 1-2.9 1l-3.4 1.5M1053.5 94.5l3.4-1.4 2.6 2-.4.7 2.6 2.9h.7l2.6 1.4 1.1.6s-.1.7 0 1-.9 1.7-.9 1.7v1.9l1.6 1.9.7.7 2.9 1.4 2.9 4M1090 68.6c-.3-.1-3.1 3.8-3.1 3.8l.9 2.1-.6.4-2 1-2.4 1.3s-.9 2-1.6 2.6-2.3 1.9-2.3 1.9l-1.9 4.4-2.4 4.9.1 2.6 2.1 2.6 2.6-1.4 1.9.9.1 3 1.4 1.4s-.3.9-.4 1.1l-.9 1.9-.9.4.6 2.6 2.3 2.3s2-1.3 2.1-1.6c.1-.1 1.6-3.4 1.6-3.4l3.3-3.3 1.9-2.6 1.4-3.3-.7-2-1-1.1.7-1.1s1.7-1.6 1.9-1.1c.1.4.9 3.3.9 3.3l2.4-.7.1-.7 3.3-.8"/>
    <path id="svg-concept" class="promo4" d="M1077.2 65c14.2 0 24.3 11.8 24.3 24.3 0 13.4-10.9 24.3-24.3 24.3s-24.3-10.9-24.3-24.3c0-13.5 10.8-24.3 24.3-24.3z"/>
  </g>
  <g class="promo1">
    <path class="promo2" d="M1151.2 21.4c0 .9-.7 1.7-1.7 1.7-.9 0-1.7-.7-1.7-1.7 0-.9.7-1.7 1.7-1.7 1 .1 1.7.8 1.7 1.7zM1151.2 34.8c0 .9-.7 1.7-1.7 1.7-.9 0-1.7-.7-1.7-1.7 0-.9.7-1.7 1.7-1.7 1 .1 1.7.8 1.7 1.7zM1158.7 9c0 3.6-8.9 6.6-19.9 6.6s-19.9-3-19.9-6.6c0-3.7 8.9-6.6 19.9-6.6s19.9 2.9 19.9 6.6z"/>
    <path class="promo2" d="M1158.7 22.3c0 3.6-8.9 6.6-19.9 6.6s-19.9-3-19.9-6.6M1158.7 35.6c0 3.6-8.9 6.6-19.9 6.6s-19.9-3-19.9-6.6M1118.8 35.6V9M1158.7 35.6V9M1140.3 51.1c0 1.1-.9 2.1-2.1 2.1s-2.1-.9-2.1-2.1c0-1.1.9-2.1 2.1-2.1s2.1 1 2.1 2.1zM1138.2 44.9v4.2M1124.7 51.1h11.5M1140.3 51.1h11.5"/>
  </g>
  <g class="promo1">
    <path class="promo2" d="M782.2 142.5c0 .9-.7 1.7-1.7 1.7-.9 0-1.7-.7-1.7-1.7 0-.9.7-1.7 1.7-1.7.9.1 1.7.8 1.7 1.7zM782.2 155.9c0 .9-.7 1.7-1.7 1.7-.9 0-1.7-.7-1.7-1.7 0-.9.7-1.7 1.7-1.7.9.1 1.7.8 1.7 1.7zM789.6 130.1c0 3.6-8.9 6.6-19.9 6.6s-19.9-3-19.9-6.6c0-3.7 8.9-6.6 19.9-6.6s19.9 2.9 19.9 6.6z"/>
    <path class="promo2" d="M789.6 143.4c0 3.6-8.9 6.6-19.9 6.6s-19.9-3-19.9-6.6M789.6 156.7c0 3.6-8.9 6.6-19.9 6.6s-19.9-3-19.9-6.6M749.7 156.7v-26.6M789.6 156.7v-26.6M771.3 172.2c0 1.1-.9 2.1-2.1 2.1s-2.1-.9-2.1-2.1c0-1.1.9-2.1 2.1-2.1s2.1 1 2.1 2.1zM769.2 166v4.2M755.6 172.2h11.5M771.3 172.2h11.5"/>
  </g>
  <g class="promo1">
    <path class="promo2" d="M597.7 205.9c0 .9-.7 1.7-1.7 1.7-.9 0-1.7-.7-1.7-1.7 0-.9.7-1.7 1.7-1.7s1.7.8 1.7 1.7zM597.7 219.3c0 .9-.7 1.7-1.7 1.7-.9 0-1.7-.7-1.7-1.7 0-.9.7-1.7 1.7-1.7s1.7.8 1.7 1.7zM605.2 193.4c0 3.6-8.9 6.6-19.9 6.6s-19.9-3-19.9-6.6c0-3.7 8.9-6.6 19.9-6.6 10.9 0 19.9 3 19.9 6.6z"/>
    <path class="promo2" d="M605.2 206.7c0 3.6-8.9 6.6-19.9 6.6s-19.9-3-19.9-6.6M605.2 220c0 3.6-8.9 6.6-19.9 6.6s-19.9-3-19.9-6.6M565.3 220.1v-26.7M605.2 220.1v-26.7M586.8 235.6c0 1.1-.9 2.1-2.1 2.1s-2.1-.9-2.1-2.1c0-1.1.9-2.1 2.1-2.1s2.1.9 2.1 2.1zM584.7 229.4v4.1M571.2 235.6h11.5M586.8 235.6h11.5"/>
  </g>
  <g class="promo1">
    <path class="promo2" d="M843.7 82.9c0 .9-.7 1.7-1.7 1.7-.9 0-1.7-.7-1.7-1.7 0-.9.7-1.7 1.7-1.7s1.7.8 1.7 1.7zM843.7 96.3c0 .9-.7 1.7-1.7 1.7-.9 0-1.7-.7-1.7-1.7 0-.9.7-1.7 1.7-1.7s1.7.8 1.7 1.7zM851.2 70.4c0 3.6-8.9 6.6-19.9 6.6s-19.9-3-19.9-6.6c0-3.7 8.9-6.6 19.9-6.6s19.9 3 19.9 6.6z"/>
    <path class="promo2" d="M851.2 83.7c0 3.6-8.9 6.6-19.9 6.6s-19.9-3-19.9-6.6M851.2 97.1c0 3.6-8.9 6.6-19.9 6.6s-19.9-3-19.9-6.6M811.3 97.1V70.4M851.2 97.1V70.4M832.8 112.6c0 1.1-.9 2.1-2.1 2.1s-2.1-.9-2.1-2.1c0-1.1.9-2.1 2.1-2.1s2.1.9 2.1 2.1zM830.7 106.4v4.1M817.2 112.6h11.5M832.8 112.6h11.5"/>
  </g>
  <g class="promo1">
    <path class="promo2" d="M1402.8 33.7c0 1.1-.9 2.1-2.1 2.1-1.1 0-2.1-.9-2.1-2.1 0-1.1.9-2.1 2.1-2.1 1.2 0 2.1.9 2.1 2.1z"/>
    <path class="promo2" d="M1409.3 39c0 1.1-.9 1.9-2.1 1.9h-35.8c-1.2 0-2.1-.9-2.1-1.9V28.4c0-1.1.9-1.9 2.1-1.9h35.8c1.2 0 2.1.9 2.1 1.9V39zM1373.1 16.8v-1.2c.6-6.7 6.6-12 13.5-12h-.2c7.3 0 13.2 5.9 13.2 13.2 0 3.8-1.6 7.2-4.2 9.6"/>
    <path class="promo2" d="M1386.4 8.9c-4.1.1-7.7 3.3-8.1 7.2v.7M1369.1 11.5c-5.1 0-9.3 4.1-9.3 9.3 0 5.1 4.2 9.3 9.3 9.3M1391.7 49.8c0 1.1-.9 2.1-2.1 2.1-1.1 0-2.1-.9-2.1-2.1 0-1.1.9-2.1 2.1-2.1 1.2.1 2.1 1 2.1 2.1zM1389.6 43.7v4.1M1376.1 49.9h11.5M1391.7 49.9h11.5"/>
  </g>
  <g class="promo1">
    <path class="promo2" d="M1156.3 156.7c0 1.1-.9 2.1-2.1 2.1-1.1 0-2.1-.9-2.1-2.1 0-1.1.9-2.1 2.1-2.1 1.2 0 2.1.9 2.1 2.1z"/>
    <path class="promo2" d="M1162.8 162c0 1.1-.9 1.9-2.1 1.9h-35.8c-1.2 0-2.1-.9-2.1-1.9v-10.7c0-1.1.9-1.9 2.1-1.9h35.8c1.2 0 2.1.9 2.1 1.9V162zM1126.6 139.8v-1.2c.6-6.7 6.6-12 13.5-12h-.2c7.3 0 13.2 5.9 13.2 13.2 0 3.8-1.6 7.2-4.2 9.6"/>
    <path class="promo2" d="M1139.9 131.9c-4.1.1-7.7 3.3-8.1 7.2v.7M1122.6 134.5c-5.1 0-9.3 4.1-9.3 9.3 0 5.1 4.2 9.3 9.3 9.3M1145.2 172.9c0 1.1-.9 2.1-2.1 2.1s-2.1-.9-2.1-2.1c0-1.1.9-2.1 2.1-2.1s2.1.9 2.1 2.1zM1143.1 166.7v4.1M1129.6 172.9h11.5M1145.2 172.9h11.5"/>
  </g>
  <g class="promo1">
    <path class="promo2" d="M90 88.2v-6.6H76.1v6.6M76.1 79.3H90V65.8l-13.9 1.9zM92.4 65.6v13.7h18.1V63.1zM110.5 88.2v-6.6H92.4v6.6M107.8 96c0 1.1-.9 2.1-2.1 2.1-1.1 0-2.1-.9-2.1-2.1 0-1.1.9-2.1 2.1-2.1 1.2.1 2.1 1 2.1 2.1z"/>
    <path class="promo2" d="M115 101.8c0 1.1-1 2.1-2.3 2.1H74c-1.3 0-2.3-.9-2.3-2.1V90.3c0-1.1 1-2.1 2.3-2.1h38.7c1.3 0 2.3.9 2.3 2.1v11.5zM95.4 113.4c0 1.1-.9 2.1-2.1 2.1-1.1 0-2.1-.9-2.1-2.1 0-1.1.9-2.1 2.1-2.1s2.1.9 2.1 2.1zM93.3 107.2v4.1M79.8 113.4h11.5M95.4 113.4h11.5"/>
  </g>
  <g class="promo3">
    <path id="svg-concept" class="promo4" d="M177.6 22.6h-46.5c-.6 0-1.1.5-1.1 1.1v3.2c0 .6.5 1.1 1.1 1.1h2.2v23.3c0 .6.5 1.1 1.1 1.1h39.9c.6 0 1.1-.5 1.1-1.1V28.1h2.2c.6 0 1.1-.5 1.1-1.1v-3.2c0-.7-.5-1.2-1.1-1.2zM145 22.6l7-19.4M156.9 3.2l6.8 19.4M145 33.8v13.8"/>
    <g>
      <path id="svg-concept" class="promo4" d="M163.7 33.8v13.8"/>
    </g>
  </g>
  <g class="promo1">
    <path class="promo2" d="M424 145.5h-46.5c-.6 0-1.1.5-1.1 1.1v3.2c0 .6.5 1.1 1.1 1.1h2.2v23.2c0 .6.5 1.1 1.1 1.1h39.9c.6 0 1.1-.5 1.1-1.1v-23.2h2.2c.6 0 1.1-.5 1.1-1.1v-3.2c0-.6-.5-1.1-1.1-1.1zM391.4 145.5l7-19.4M403.3 126.1l6.8 19.4M391.4 156.7v13.8"/>
    <g>
      <path class="promo2" d="M410.1 156.7v13.8"/>
    </g>
  </g>
  <g class="promo1">
    <path class="promo2" d="M1346.4 84h-46.5c-.6 0-1.1.5-1.1 1.1v3.2c0 .6.5 1.1 1.1 1.1h2.2v23.2c0 .6.5 1.1 1.1 1.1h39.9c.6 0 1.1-.5 1.1-1.1v-23h2.2c.6 0 1.1-.5 1.1-1.1v-3.2c0-.8-.5-1.3-1.1-1.3zM1313.8 84l6.9-19.3M1325.6 64.7l6.8 19.3M1313.8 95.3V109"/>
    <g>
      <path class="promo2" d="M1332.4 95.3V109"/>
    </g>
  </g>
  <g class="promo1">
    <path class="promo2" d="M286.7 25c-5.1.1-10 4-10 9.9M265.1 28.3c-6.4 0-11.5 5.2-11.5 11.5 0 6.4 5.2 11.5 11.5 11.5h21.4c9.1 0 16.5-7.4 16.5-16.5s-7.4-16.5-16.5-16.5h.2c-8.6 0-16.7 5.8-16.7 16.5"/>
    <circle class="promo2" cx="265.5" cy="10.8" r="2.1"/>
    <path class="promo2" d="M263.6 28.3c-.4-1-.7-2.1-.7-3.3 0-3.7 2.4-6.7 5.4-6.7 2.8 0 5 2.6 5.3 5.9"/>
    <circle class="promo2" cx="271.1" cy="10.8" r="2.1"/>
    <path class="promo2" d="M265.5 14.5l2.8 1.4 2.8-1.4"/>
    <path class="promo2" d="M279.3 19.8c-2.2-3.2-4.3-6.5-4.3-8.7v-.3c0-3.7-3-6.7-6.7-6.7s-6.7 3-6.7 6.7v.3c0 4.7-10.2 15.1-9 17.4"/>
  </g>
  <g class="promo1">
    <path class="promo2" d="M594.2 86.5c-5.1.1-10 4-10 9.9M572.7 89.8c-6.4 0-11.5 5.2-11.5 11.5 0 6.4 5.2 11.5 11.5 11.5h21.4c9.1 0 16.5-7.4 16.5-16.5s-7.4-16.5-16.5-16.5h.2c-8.6 0-16.7 5.8-16.7 16.5"/>
    <circle class="promo2" cx="573.1" cy="72.3" r="2.1"/>
    <path class="promo2" d="M571.2 89.8c-.4-1-.7-2.1-.7-3.3 0-3.7 2.4-6.7 5.4-6.7 2.8 0 5 2.6 5.3 5.9"/>
    <circle class="promo2" cx="578.7" cy="72.3" r="2.1"/>
    <path class="promo2" d="M573.1 76l2.8 1.3 2.8-1.3"/>
    <path class="promo2" d="M586.8 81.3c-2.2-3.2-4.3-6.5-4.3-8.7v-.3c0-3.7-3-6.7-6.7-6.7s-6.7 3-6.7 6.7v.3c0 4.7-10.2 15.1-9 17.4"/>
  </g>
  <g class="promo3">
    <path id="svg-concept" class="promo4" d="M1259.5 12.3c-1.9.2-3.7.6-5.4 1.2-3.1-3.7-7.2-5-12.5-3.6-.4.1-.8.5-.9.9s0 .9.4 1.1c2.4 2.4 3.4 4.7 3.1 7.2-1.4 1.4-2.5 3.1-3.3 4.7h-1.3c-1.8 0-3.3 1.5-3.3 3.2v7.1c0 1.8 1.5 3.3 3.3 3.3h3.2c.6.8 1.4 1.5 2.2 2.3V48c0 1.8 1.4 3.3 3.3 3.3h3.4c1.8 0 3.3-1.4 3.3-3.3v-2.8c5.6 1.5 12.1 1.4 17.7-.3v3.2c0 1.8 1.4 3.3 3.3 3.3h3.3c1.9 0 3.4-1.5 3.4-3.4v-8.9c2.8-2.9 4.4-6.5 4.4-10 0-6.4-4.9-11.9-12.1-14.8"/>
    <circle id="svg-concept" class="promo4" cx="1267.6" cy="9.6" r="5.5"/>
  </g>
  <g class="promo1">
    <path class="promo2" d="M1013.5 135.2c-1.9.2-3.7.6-5.4 1.2-3.1-3.7-7.2-5-12.5-3.6-.4.1-.8.5-.9.9-.1.4 0 .9.4 1.1 2.4 2.4 3.4 4.7 3.1 7.2-1.4 1.4-2.5 3.1-3.3 4.7h-1.3c-1.8 0-3.3 1.5-3.3 3.2v7.1c0 1.8 1.5 3.3 3.3 3.3h3.2c.6.8 1.4 1.5 2.2 2.3v8.3c0 1.8 1.4 3.3 3.3 3.3h3.4c1.8 0 3.3-1.4 3.3-3.3v-2.8c5.6 1.5 12.1 1.4 17.7-.3v3.2c0 1.8 1.4 3.3 3.3 3.3h3.3c1.9 0 3.4-1.5 3.4-3.4V162c2.8-2.9 4.4-6.5 4.4-10 0-6.4-4.9-11.9-12.1-14.8"/>
    <circle transform="rotate(-80.781 1021.7034 132.5833)" class="promo2" cx="1021.7" cy="132.6" r="5.5"/>
  </g>
  <g class="promo3">
    <path id="svg-concept" class="promo4" d="M706.2 73.7c-1.9.2-3.7.6-5.4 1.2-3.1-3.7-7.2-5-12.5-3.6-.4.1-.8.5-.9.9-.1.4 0 .9.4 1.1 2.4 2.4 3.4 4.7 3.1 7.2-1.4 1.4-2.5 3.1-3.3 4.7h-1.3c-1.8 0-3.3 1.5-3.3 3.2v7.1c0 1.8 1.5 3.3 3.3 3.3h3.2c.6.8 1.4 1.5 2.2 2.3v8.3c0 1.8 1.4 3.3 3.3 3.3h3.4c1.8 0 3.3-1.4 3.3-3.3v-2.8c5.6 1.5 12.1 1.4 17.7-.3v3.2c0 1.8 1.4 3.3 3.3 3.3h3.3c1.9 0 3.4-1.5 3.4-3.4v-8.9c2.8-2.9 4.4-6.5 4.4-10 0-6.4-4.9-11.9-12.1-14.8"/>
    <circle id="svg-concept" class="promo4" cx="714.3" cy="71.1" r="5.5"/>
  </g>
  <g class="promo1">
    <path class="promo2" d="M216.3 72.7v5.7M198.2 85.2h36.3v28h-36.3zM216.3 85.2v28M198.6 99.2H234M207.1 78.4c-1.2-1-2-2.6-2-4.3 0-3.1 2.5-5.6 5.6-5.6s5.6 2.5 5.6 5.6M216.3 72.7c0-4.1 3-7.4 7.1-7.4s7.4 3.3 7.4 7.4c0 2-.8 3.9-2.2 5.2M194.3 78.3h44"/>
  </g>
  <g class="promo1">
    <path class="promo2" d="M1392.8 147.7c-5.1.1-10 4-10 9.9M1371.3 151c-6.4 0-11.5 5.2-11.5 11.5 0 6.4 5.2 11.5 11.5 11.5h21.4c9.1 0 16.5-7.4 16.5-16.5s-7.4-16.5-16.5-16.5h.2c-8.6 0-16.7 5.8-16.7 16.5"/>
    <circle class="promo2" cx="1371.7" cy="133.5" r="2.1"/>
    <path class="promo2" d="M1369.8 151c-.4-1-.7-2.1-.7-3.3 0-3.7 2.4-6.7 5.4-6.7 2.8 0 5 2.6 5.3 5.9"/>
    <circle class="promo2" cx="1377.3" cy="133.5" r="2.1"/>
    <path class="promo2" d="M1371.7 137.2l2.8 1.3 2.8-1.3"/>
    <path class="promo2" d="M1385.4 142.5c-2.2-3.2-4.3-6.5-4.3-8.7v-.3c0-3.7-3-6.7-6.7-6.7s-6.7 3-6.7 6.7v.3c0 4.7-10.2 15.1-9 17.4"/>
  </g>
  <g class="promo1">
    <path class="promo2" d="M635.5 284.5H633c-.4 0-.7-.3-.7-.6l-.8-5M656.7 284.5h-12M621.8 250.9h8.9"/>
    <path class="promo2" d="M667.5 274.5l-35.5 5.2c-.2 0-.4-.2-.4-.5l-3.7-23.7c0-.3.2-.5.5-.5H671c.3 0 .5.2.5.5l-3.7 18.4c.1.3-.1.6-.3.6M638.9 261.1v9.6M645.9 261.1v9.6M653 261.1v9.6M660 261.1v9.6M644.9 286.9c0 2.7-2.2 4.8-4.8 4.8-2.7 0-4.8-2.2-4.8-4.8 0-2.7 2.2-4.8 4.8-4.8 2.6 0 4.8 2.1 4.8 4.8M666.1 286.9c0 2.7-2.2 4.8-4.8 4.8-2.7 0-4.8-2.2-4.8-4.8 0-2.7 2.2-4.8 4.8-4.8 2.6 0 4.8 2.1 4.8 4.8"/>
  </g>
  <g class="st5">
    <path id="svg-concept" class="promo4" d="M881.6 407.5h-2.5c-.4 0-.7-.3-.7-.6l-.8-5M902.7 407.5h-12M867.8 373.9h9"/>
    <path id="svg-concept" class="promo4" d="M913.6 397.5l-35.5 5.2c-.2 0-.4-.2-.4-.5l-3.7-23.7c0-.3.2-.5.5-.5h42.6c.3 0 .5.2.5.5l-3.7 18.4c.1.3-.1.6-.3.6M884.9 384.1v9.6M892 384.1v9.6M899 384.1v9.6M906.1 384.1v9.6M890.9 409.9c0 2.7-2.2 4.8-4.8 4.8-2.7 0-4.8-2.2-4.8-4.8 0-2.7 2.2-4.8 4.8-4.8 2.7 0 4.8 2.1 4.8 4.8M912.1 409.9c0 2.7-2.2 4.8-4.8 4.8s-4.8-2.2-4.8-4.8c0-2.7 2.2-4.8 4.8-4.8s4.8 2.1 4.8 4.8"/>
  </g>
  <g class="promo1">
    <path class="promo2" d="M53.9 262.7c1.3 0 2.3 1 2.3 2.3v29c0 1.3-1 2.3-2.3 2.3h-44c-1.3 0-2.3-1-2.3-2.3v-29c0-1.3 1-2.3 2.3-2.3"/>
    <path class="promo2" d="M53.9 262.7l-22 16.2-22-16.2M53.9 262.7l-22-16.2-22 16.2M24.9 274.3L8.7 295.1M38.8 274.3L55 295.1"/>
  </g>
  <g class="promo1">
    <path class="promo2" d="M668.7 385.6c1.3 0 2.3 1 2.3 2.3v29c0 1.3-1 2.3-2.3 2.3h-44c-1.3 0-2.3-1-2.3-2.3v-29c0-1.3 1-2.3 2.3-2.3"/>
    <path class="promo2" d="M668.7 385.6l-22 16.2-22-16.2M668.7 385.6l-22-16.2-22 16.2M639.8 397.2l-16.2 20.9M653.7 397.2l16.2 20.9"/>
  </g>
  <g class="st5">
    <path id="svg-concept" class="promo4" d="M361.3 324.1c1.3 0 2.3 1 2.3 2.3v29c0 1.3-1 2.3-2.3 2.3h-44c-1.3 0-2.3-1-2.3-2.3v-29c0-1.3 1-2.3 2.3-2.3"/>
    <path id="svg-concept" class="promo4" d="M361.3 324.1l-22 16.2-22-16.2M361.3 324.1l-22-16.2-22 16.2M332.3 335.7l-16.2 20.9M346.2 335.7l16.2 20.9"/>
  </g>
  <g class="promo1">
    <path class="promo2" d="M976.4 203.5c1.3 0 2.3 1 2.3 2.3v29c0 1.3-1 2.3-2.3 2.3h-44c-1.3 0-2.3-1-2.3-2.3v-29c0-1.3 1-2.3 2.3-2.3"/>
    <path class="promo2" d="M976.4 203.5l-22 16.2-22-16.2M976.4 203.5l-22-16.2-22 16.2M947.4 215.1l-16.2 20.8M961.3 215.1l16.2 20.8"/>
  </g>
  <path class="promo0" d="M376.2 263.3c0-11.3 6-13.4 13.4-13.4 4.7 0 8.8 2.4 11.2 6 2.4-3.6 6.5-6 11.2-6 7.4 0 13.4 2.7 13.4 13.4 0 10.8-24.6 29.7-24.6 29.7s-24.6-18.3-24.6-29.7zM806.6 204.1c0-11.3 6-13.4 13.4-13.4 4.7 0 8.8 2.4 11.2 6 2.4-3.6 6.5-6 11.2-6 7.4 0 13.4 2.7 13.4 13.4 0 10.8-24.6 29.7-24.6 29.7s-24.6-18.4-24.6-29.7zM7.2 386.2c0-11.3 6-13.4 13.4-13.4 4.7 0 8.8 2.4 11.2 6 2.4-3.6 6.5-6 11.2-6 7.4 0 13.4 2.7 13.4 13.4 0 10.8-24.6 29.7-24.6 29.7S7.2 397.5 7.2 386.2zM929.6 324.7c0-11.3 6-13.4 13.4-13.4 4.7 0 8.8 2.4 11.2 6 2.4-3.6 6.5-6 11.2-6 7.4 0 13.4 2.7 13.4 13.4 0 10.8-24.6 29.7-24.6 29.7s-24.6-18.3-24.6-29.7z"/>
  <g class="promo1">
    <path class="promo2" d="M1031.9 276.6c0 1.1-.9 2.1-2.1 2.1-1.1 0-2.1-.9-2.1-2.1 0-1.1.9-2.1 2.1-2.1 1.2.1 2.1 1 2.1 2.1z"/>
    <circle class="promo2" cx="1015.7" cy="294.3" r="2.1"/>
    <path class="promo2" d="M1040.4 283.2c0 1.3-1.2 2.4-2.6 2.4h-44.2c-1.4 0-2.6-1.1-2.6-2.4v-13.1c0-1.3 1.2-2.4 2.6-2.4h44.2c1.4 0 2.6 1.1 2.6 2.4v13.1zM1031.9 255.3c0 1.1-.9 2.1-2.1 2.1-1.1 0-2.1-.9-2.1-2.1 0-1.1.9-2.1 2.1-2.1s2.1.9 2.1 2.1z"/>
    <path class="promo2" d="M1040.4 261.9c0 1.3-1.2 2.4-2.6 2.4h-44.2c-1.4 0-2.6-1.1-2.6-2.4v-13.1c0-1.3 1.2-2.4 2.6-2.4h44.2c1.4 0 2.6 1.1 2.6 2.4v13.1zM1015.7 288.5v3.6M999.4 294.3h14.2M1017.8 294.3h14.2"/>
  </g>
  <g class="promo3">
    <path id="svg-concept" class="promo4" d="M724.5 217.5c0 1.1-.9 2.1-2.1 2.1-1.1 0-2.1-.9-2.1-2.1s.9-2.1 2.1-2.1c1.1.1 2.1 1 2.1 2.1z"/>
    <circle id="svg-concept" class="promo4" cx="708.2" cy="235.1" r="2.1"/>
    <path id="svg-concept" class="promo4" d="M732.9 224.1c0 1.3-1.2 2.4-2.6 2.4h-44.2c-1.4 0-2.6-1.1-2.6-2.4V211c0-1.3 1.2-2.4 2.6-2.4h44.2c1.4 0 2.6 1.1 2.6 2.4v13.1zM724.5 196.1c0 1.1-.9 2.1-2.1 2.1-1.1 0-2.1-.9-2.1-2.1s.9-2.1 2.1-2.1c1.1.1 2.1 1 2.1 2.1z"/>
    <path id="svg-concept" class="promo4" d="M732.9 202.7c0 1.3-1.2 2.4-2.6 2.4h-44.2c-1.4 0-2.6-1.1-2.6-2.4v-13.1c0-1.3 1.2-2.4 2.6-2.4h44.2c1.4 0 2.6 1.1 2.6 2.4v13.1zM708.2 229.4v3.6M691.9 235.1h14.2M710.4 235.1h14.1"/>
  </g>
  <g class="st5">
    <path id="svg-concept" class="promo4" d="M1278 399.6c0 1.1-.9 2.1-2.1 2.1-1.1 0-2.1-.9-2.1-2.1 0-1.1.9-2.1 2.1-2.1 1.2.1 2.1 1 2.1 2.1z"/>
    <circle id="svg-concept" class="promo4" cx="1261.8" cy="417.2" r="2.1"/>
    <path id="svg-concept" class="promo4" d="M1286.5 406.2c0 1.3-1.2 2.4-2.6 2.4h-44.2c-1.4 0-2.6-1.1-2.6-2.4v-13.1c0-1.3 1.2-2.4 2.6-2.4h44.2c1.4 0 2.6 1.1 2.6 2.4v13.1zM1278 378.3c0 1.1-.9 2.1-2.1 2.1-1.1 0-2.1-.9-2.1-2.1 0-1.1.9-2.1 2.1-2.1s2.1.9 2.1 2.1z"/>
    <path id="svg-concept" class="promo4" d="M1286.5 384.8c0 1.3-1.2 2.4-2.6 2.4h-44.2c-1.4 0-2.6-1.1-2.6-2.4v-13.1c0-1.3 1.2-2.4 2.6-2.4h44.2c1.4 0 2.6 1.1 2.6 2.4v13.1zM1261.8 411.5v3.6M1245.5 417.2h14.2M1263.9 417.2h14.2"/>
  </g>
  <g class="promo1">
    <path class="promo2" d="M749 294.7c0 1.1-.9 2.1-2.1 2.1-1.1 0-2.1-.9-2.1-2.1 0-1.1.9-2.1 2.1-2.1s2.1 1 2.1 2.1zM769.7 271v5.5M769.7 284.4v8.2M767 258.2h-2.8M775.2 258.2h-2.7"/>
    <circle class="promo2" cx="769.7" cy="256.9" r="11"/>
    <path class="promo2" d="M783.1 275.8v4.9h-26.8v-4.9c0-2.7 2.2-4.9 4.9-4.9h17c2.7.1 4.9 2.2 4.9 4.9zM760 252.6l16.8-4.1M748.4 293.2l8.6-8.5M790.3 294.7c0 1.1.9 2.1 2.1 2.1 1.2 0 2.1-.9 2.1-2.1 0-1.1-.9-2.1-2.1-2.1s-2.1 1-2.1 2.1zM767.6 294.7c0 1.1.9 2.1 2.1 2.1 1.1 0 2.1-.9 2.1-2.1 0-1.1-.9-2.1-2.1-2.1-1.1 0-2.1 1-2.1 2.1zM790.9 293.2l-8.7-8.5"/>
  </g>
  <g class="promo1">
    <path class="promo2" d="M257.1 417.7c0 1.1-.9 2.1-2.1 2.1-1.1 0-2.1-.9-2.1-2.1 0-1.1.9-2.1 2.1-2.1s2.1.9 2.1 2.1zM277.8 393.9v5.5M277.8 407.3v8.3M275.1 381.2h-2.7M283.3 381.2h-2.7"/>
    <circle class="promo2" cx="277.8" cy="379.9" r="11"/>
    <path class="promo2" d="M291.2 398.8v4.9h-26.8v-4.9c0-2.7 2.2-4.9 4.9-4.9h17c2.7 0 4.9 2.2 4.9 4.9zM268.1 375.5l16.8-4M256.5 416.2l8.6-8.6M298.4 417.7c0 1.1.9 2.1 2.1 2.1s2.1-.9 2.1-2.1c0-1.1-.9-2.1-2.1-2.1-1.1 0-2.1.9-2.1 2.1zM275.8 417.7c0 1.1.9 2.1 2.1 2.1 1.1 0 2.1-.9 2.1-2.1 0-1.1-.9-2.1-2.1-2.1-1.2 0-2.1.9-2.1 2.1zM299 416.2l-8.7-8.6"/>
  </g>
  <g class="promo1">
    <path class="promo2" d="M441.7 356.2c0 1.1-.9 2.1-2.1 2.1-1.1 0-2.1-.9-2.1-2.1 0-1.1.9-2.1 2.1-2.1 1.2 0 2.1 1 2.1 2.1zM462.4 332.5v5.5M462.4 345.9v8.2M459.7 319.7H457M467.9 319.7h-2.7"/>
    <circle class="promo2" cx="462.4" cy="318.4" r="11"/>
    <path class="promo2" d="M475.8 337.3v4.9H449v-4.9c0-2.7 2.2-4.9 4.9-4.9h17c2.8.1 4.9 2.2 4.9 4.9zM452.7 314.1l16.8-4.1M441.1 354.7l8.6-8.5M483 356.2c0 1.1.9 2.1 2.1 2.1s2.1-.9 2.1-2.1c0-1.1-.9-2.1-2.1-2.1-1.1 0-2.1 1-2.1 2.1zM460.4 356.2c0 1.1.9 2.1 2.1 2.1 1.1 0 2.1-.9 2.1-2.1 0-1.1-.9-2.1-2.1-2.1s-2.1 1-2.1 2.1zM483.6 354.7l-8.7-8.5"/>
  </g>
  <g class="promo3">
    <path id="svg-concept" class="promo4" d="M899.9 286c0 1.1-.9 2.1-2.1 2.1-1.1 0-2.1-.9-2.1-2.1 0-1.1.9-2.1 2.1-2.1 1.2.1 2.1 1 2.1 2.1zM908.8 286c0 1.1-.9 2.1-2.1 2.1-1.1 0-2.1-.9-2.1-2.1 0-1.1.9-2.1 2.1-2.1 1.2.1 2.1 1 2.1 2.1zM899.9 269.3c0 1.1-.9 2.1-2.1 2.1-1.1 0-2.1-.9-2.1-2.1 0-1.1.9-2.1 2.1-2.1s2.1.9 2.1 2.1zM908.8 269.3c0 1.1-.9 2.1-2.1 2.1-1.1 0-2.1-.9-2.1-2.1 0-1.1.9-2.1 2.1-2.1 1.2 0 2.1.9 2.1 2.1zM899.9 252.5c0 1.1-.9 2.1-2.1 2.1-1.1 0-2.1-.9-2.1-2.1 0-1.1.9-2.1 2.1-2.1 1.2.1 2.1 1 2.1 2.1zM908.8 252.5c0 1.1-.9 2.1-2.1 2.1-1.1 0-2.1-.9-2.1-2.1 0-1.1.9-2.1 2.1-2.1 1.2.1 2.1 1 2.1 2.1z"/>
    <path id="svg-concept" class="promo4" d="M915.5 246.8c0-1.2-1.1-2.2-2.4-2.2h-40.8c-1.3 0-2.4 1-2.4 2.2v45c0 1.2 1.1 2.2 2.4 2.2h40.8c1.3 0 2.4-1 2.4-2.2v-45zM875.5 261.3h34.4M875.5 277.3h34.4M883.6 294v4.1h-6.8V294M908.6 294v4.1h-6.9V294"/>
  </g>
  <g class="st5">
    <path id="svg-concept" class="promo4" d="M530.9 409c0 1.1-.9 2.1-2.1 2.1-1.1 0-2.1-.9-2.1-2.1 0-1.1.9-2.1 2.1-2.1s2.1.9 2.1 2.1zM539.9 409c0 1.1-.9 2.1-2.1 2.1-1.1 0-2.1-.9-2.1-2.1 0-1.1.9-2.1 2.1-2.1s2.1.9 2.1 2.1zM530.9 392.2c0 1.1-.9 2.1-2.1 2.1-1.1 0-2.1-.9-2.1-2.1 0-1.1.9-2.1 2.1-2.1 1.2.1 2.1 1 2.1 2.1zM539.9 392.2c0 1.1-.9 2.1-2.1 2.1-1.1 0-2.1-.9-2.1-2.1 0-1.1.9-2.1 2.1-2.1 1.2.1 2.1 1 2.1 2.1zM530.9 375.5c0 1.1-.9 2.1-2.1 2.1-1.1 0-2.1-.9-2.1-2.1 0-1.1.9-2.1 2.1-2.1 1.2.1 2.1 1 2.1 2.1zM539.9 375.5c0 1.1-.9 2.1-2.1 2.1-1.1 0-2.1-.9-2.1-2.1 0-1.1.9-2.1 2.1-2.1 1.2.1 2.1 1 2.1 2.1z"/>
    <path id="svg-concept" class="promo4" d="M546.5 369.7c0-1.2-1.1-2.2-2.4-2.2h-40.8c-1.3 0-2.4 1-2.4 2.2v45c0 1.2 1.1 2.2 2.4 2.2h40.8c1.3 0 2.4-1 2.4-2.2v-45zM506.6 384.2h34.3M506.6 400.3h34.3M514.7 416.9v4.2h-6.9v-4.2M539.7 416.9v4.2h-6.9v-4.2"/>
  </g>
  <g class="promo1">
    <path class="promo2" d="M1207.3 347.5c0 1.1-.9 2.1-2.1 2.1-1.1 0-2.1-.9-2.1-2.1 0-1.1.9-2.1 2.1-2.1s2.1 1 2.1 2.1zM1216.3 347.5c0 1.1-.9 2.1-2.1 2.1-1.1 0-2.1-.9-2.1-2.1 0-1.1.9-2.1 2.1-2.1s2.1 1 2.1 2.1zM1207.3 330.8c0 1.1-.9 2.1-2.1 2.1-1.1 0-2.1-.9-2.1-2.1 0-1.1.9-2.1 2.1-2.1s2.1.9 2.1 2.1zM1216.3 330.8c0 1.1-.9 2.1-2.1 2.1-1.1 0-2.1-.9-2.1-2.1 0-1.1.9-2.1 2.1-2.1s2.1.9 2.1 2.1zM1207.3 314c0 1.1-.9 2.1-2.1 2.1-1.1 0-2.1-.9-2.1-2.1 0-1.1.9-2.1 2.1-2.1 1.2.1 2.1 1 2.1 2.1zM1216.3 314c0 1.1-.9 2.1-2.1 2.1-1.1 0-2.1-.9-2.1-2.1 0-1.1.9-2.1 2.1-2.1 1.2.1 2.1 1 2.1 2.1z"/>
    <path class="promo2" d="M1222.9 308.3c0-1.2-1.1-2.2-2.4-2.2h-40.8c-1.3 0-2.4 1-2.4 2.2v45c0 1.2 1.1 2.2 2.4 2.2h40.8c1.3 0 2.4-1 2.4-2.2v-45zM1183 322.8h34.3M1183 338.8h34.3M1191.1 355.5v4.1h-6.9v-4.1M1216.1 355.5v4.1h-6.9v-4.1"/>
  </g>
  <g class="promo3">
    <path id="svg-concept" class="promo4" d="M523.9 247.1s-1.3 1.9-2.9 2.7c-1.6.9 0 2.1 0 2.1l-2.4 2.4-3.3 1.9-3.9-.4.4-2.4 2.1-1.3.3-1.9-.3-1.1M507.3 253.5v6.3l-.7.4-.7 6.7s-2.6 1-2.9 1l-3.5 1.5M500 276.7l3.4-1.4 2.6 2-.4.7 2.6 2.9h.7l2.6 1.4 1.1.6s-.1.7 0 1-.9 1.7-.9 1.7v1.9l1.6 1.9.7.7 2.9 1.4 2.9 4M536.6 250.7c-.3-.1-3.1 3.8-3.1 3.8l.9 2.1-.6.4-2 1-2.4 1.3s-.9 2-1.6 2.6c-.7.6-2.3 1.9-2.3 1.9l-1.9 4.4-2.4 4.9.1 2.6 2.1 2.6 2.6-1.4 1.9.9.1 3 1.4 1.4s-.3.9-.4 1.1l-.9 1.9-.9.4.6 2.6 2.3 2.3s2-1.3 2.1-1.6c.1-.1 1.6-3.4 1.6-3.4l3.3-3.3 1.9-2.6 1.4-3.3-.7-2-1-1.1.7-1.1s1.7-1.6 1.9-1.1c.1.4.9 3.3.9 3.3l2.4-.7.1-.7 3.3-.8"/>
    <path id="svg-concept" class="promo4" d="M523.7 247.1c14.2 0 24.3 11.8 24.3 24.3 0 13.4-10.9 24.3-24.3 24.3s-24.3-10.9-24.3-24.3c.1-13.4 10.9-24.3 24.3-24.3z"/>
  </g>
  <g class="st5">
    <path id="svg-concept" class="promo4" d="M155 370s-1.3 1.9-2.9 2.7c-1.6.9 0 2.1 0 2.1l-2.4 2.4-3.3 1.9-3.9-.4.4-2.4 2.1-1.3.3-1.9-.3-1.1M138.4 376.4v6.3l-.7.4-.7 6.7s-2.6 1-2.9 1l-3.5 1.5M131.1 399.6l3.4-1.4 2.6 2-.4.7 2.6 2.9h.7l2.6 1.4 1.1.6s-.1.7 0 1-.9 1.7-.9 1.7v1.9l1.6 1.9.7.7 2.9 1.4 2.9 4M167.6 373.7c-.3-.1-3.1 3.8-3.1 3.8l.9 2.1-.6.4-2 1-2.4 1.3s-.9 2-1.6 2.6c-.7.6-2.3 1.9-2.3 1.9l-1.9 4.4-2.4 4.9.1 2.6 2.1 2.6 2.6-1.4 1.9.9.1 3 1.4 1.4s-.3.9-.4 1.1l-.9 1.9-.9.4.6 2.6 2.3 2.3s2-1.3 2.1-1.6c.1-.1 1.6-3.4 1.6-3.4l3.3-3.3 1.9-2.6 1.4-3.3-.7-2-1-1.1.7-1.1s1.7-1.6 1.9-1.1c.1.4.9 3.3.9 3.3l2.4-.7.1-.7 3.3-.8"/>
    <path id="svg-concept" class="promo4" d="M154.8 370c14.2 0 24.3 11.8 24.3 24.3 0 13.4-10.9 24.3-24.3 24.3s-24.3-10.9-24.3-24.3 10.9-24.3 24.3-24.3z"/>
  </g>
  <g class="st5">
    <path id="svg-concept" class="promo4" d="M1077.4 308.6s-1.3 1.9-2.9 2.7c-1.6.9 0 2.1 0 2.1l-2.4 2.4-3.3 1.9-3.9-.4.4-2.4 2.1-1.3.3-1.9-.3-1.1M1060.7 315v6.3l-.7.4-.7 6.7s-2.6 1-2.9 1l-3.5 1.5M1053.5 338.1l3.4-1.4 2.6 2-.4.7 2.6 2.9h.7l2.6 1.4 1.1.6s-.1.7 0 1-.9 1.7-.9 1.7v1.9l1.6 1.9.7.7 2.9 1.4 2.9 4M1090 312.2c-.3-.1-3.1 3.8-3.1 3.8l.9 2.1-.6.4-2 1-2.4 1.3s-.9 2-1.6 2.6-2.3 1.9-2.3 1.9l-1.9 4.4-2.4 4.9.1 2.6 2.1 2.6 2.6-1.4 1.9.9.1 3 1.4 1.4s-.3.9-.4 1.1l-.9 1.9-.9.4.6 2.6 2.3 2.3s2-1.3 2.1-1.6c.1-.1 1.6-3.4 1.6-3.4l3.3-3.3 1.9-2.6 1.4-3.3-.7-2-1-1.1.7-1.1s1.7-1.6 1.9-1.1c.1.4.9 3.3.9 3.3l2.4-.7.1-.7 3.3-.8"/>
    <path id="svg-concept" class="promo4" d="M1077.2 308.6c14.2 0 24.3 11.8 24.3 24.3 0 13.4-10.9 24.3-24.3 24.3s-24.3-10.9-24.3-24.3c0-13.5 10.8-24.3 24.3-24.3z"/>
  </g>
  <g class="promo1">
    <path class="promo2" d="M1151.2 265c0 .9-.7 1.7-1.7 1.7-.9 0-1.7-.7-1.7-1.7 0-.9.7-1.7 1.7-1.7s1.7.8 1.7 1.7zM1151.2 278.4c0 .9-.7 1.7-1.7 1.7-.9 0-1.7-.7-1.7-1.7 0-.9.7-1.7 1.7-1.7s1.7.8 1.7 1.7zM1158.7 252.5c0 3.6-8.9 6.6-19.9 6.6s-19.9-3-19.9-6.6c0-3.7 8.9-6.6 19.9-6.6s19.9 3 19.9 6.6z"/>
    <path class="promo2" d="M1158.7 265.8c0 3.6-8.9 6.6-19.9 6.6s-19.9-3-19.9-6.6M1158.7 279.2c0 3.6-8.9 6.6-19.9 6.6s-19.9-3-19.9-6.6M1118.8 279.2v-26.7M1158.7 279.2v-26.7M1140.3 294.7c0 1.1-.9 2.1-2.1 2.1s-2.1-.9-2.1-2.1c0-1.1.9-2.1 2.1-2.1s2.1 1 2.1 2.1zM1138.2 288.5v4.1M1124.7 294.7h11.5M1140.3 294.7h11.5"/>
  </g>
  <g class="promo1">
    <path class="promo2" d="M782.2 386.1c0 .9-.7 1.7-1.7 1.7-.9 0-1.7-.7-1.7-1.7 0-.9.7-1.7 1.7-1.7.9.1 1.7.8 1.7 1.7zM782.2 399.5c0 .9-.7 1.7-1.7 1.7-.9 0-1.7-.7-1.7-1.7 0-.9.7-1.7 1.7-1.7.9.1 1.7.8 1.7 1.7zM789.6 373.6c0 3.6-8.9 6.6-19.9 6.6s-19.9-3-19.9-6.6c0-3.7 8.9-6.6 19.9-6.6s19.9 3 19.9 6.6z"/>
    <path class="promo2" d="M789.6 387c0 3.6-8.9 6.6-19.9 6.6s-19.9-3-19.9-6.6M789.6 400.3c0 3.6-8.9 6.6-19.9 6.6s-19.9-3-19.9-6.6M749.7 400.3v-26.7M789.6 400.3v-26.7M771.3 415.8c0 1.1-.9 2.1-2.1 2.1s-2.1-.9-2.1-2.1c0-1.1.9-2.1 2.1-2.1s2.1 1 2.1 2.1zM769.2 409.6v4.1M755.6 415.8h11.5M771.3 415.8h11.5"/>
  </g>
  <g class="promo1">
    <path class="promo2" d="M843.7 326.5c0 .9-.7 1.7-1.7 1.7-.9 0-1.7-.7-1.7-1.7 0-.9.7-1.7 1.7-1.7s1.7.8 1.7 1.7zM843.7 339.9c0 .9-.7 1.7-1.7 1.7-.9 0-1.7-.7-1.7-1.7 0-.9.7-1.7 1.7-1.7s1.7.8 1.7 1.7zM851.2 314c0 3.6-8.9 6.6-19.9 6.6s-19.9-3-19.9-6.6c0-3.7 8.9-6.6 19.9-6.6s19.9 3 19.9 6.6z"/>
    <path class="promo2" d="M851.2 327.3c0 3.6-8.9 6.6-19.9 6.6s-19.9-3-19.9-6.6M851.2 340.6c0 3.6-8.9 6.6-19.9 6.6s-19.9-3-19.9-6.6M811.3 340.7V314M851.2 340.7V314M832.8 356.2c0 1.1-.9 2.1-2.1 2.1s-2.1-.9-2.1-2.1c0-1.1.9-2.1 2.1-2.1s2.1.9 2.1 2.1zM830.7 350v4.1M817.2 356.2h11.5M832.8 356.2h11.5"/>
  </g>
  <g class="promo1">
    <path class="promo2" d="M1402.8 277.3c0 1.1-.9 2.1-2.1 2.1-1.1 0-2.1-.9-2.1-2.1 0-1.1.9-2.1 2.1-2.1s2.1.9 2.1 2.1z"/>
    <path class="promo2" d="M1409.3 282.6c0 1.1-.9 1.9-2.1 1.9h-35.8c-1.2 0-2.1-.9-2.1-1.9v-10.7c0-1.1.9-1.9 2.1-1.9h35.8c1.2 0 2.1.9 2.1 1.9v10.7zM1373.1 260.4v-1.2c.6-6.7 6.6-12 13.5-12h-.2c7.3 0 13.2 5.9 13.2 13.2 0 3.8-1.6 7.2-4.2 9.6"/>
    <path class="promo2" d="M1386.4 252.4c-4.1.1-7.7 3.3-8.1 7.2v.7M1369.1 255.1c-5.1 0-9.3 4.1-9.3 9.3 0 5.1 4.2 9.3 9.3 9.3M1391.7 293.4c0 1.1-.9 2.1-2.1 2.1-1.1 0-2.1-.9-2.1-2.1 0-1.1.9-2.1 2.1-2.1 1.2.1 2.1 1 2.1 2.1zM1389.6 287.3v4.1M1376.1 293.4h11.5M1391.7 293.4h11.5"/>
  </g>
  <g class="promo1">
    <path class="promo2" d="M1156.3 400.3c0 1.1-.9 2.1-2.1 2.1-1.1 0-2.1-.9-2.1-2.1 0-1.1.9-2.1 2.1-2.1s2.1.9 2.1 2.1z"/>
    <path class="promo2" d="M1162.8 405.6c0 1.1-.9 1.9-2.1 1.9h-35.8c-1.2 0-2.1-.9-2.1-1.9v-10.7c0-1.1.9-1.9 2.1-1.9h35.8c1.2 0 2.1.9 2.1 1.9v10.7zM1126.6 383.4v-1.2c.6-6.7 6.6-12 13.5-12h-.2c7.3 0 13.2 5.9 13.2 13.2 0 3.8-1.6 7.2-4.2 9.6"/>
    <path class="promo2" d="M1139.9 375.4c-4.1.1-7.7 3.3-8.1 7.2v.7M1122.6 378.1c-5.1 0-9.3 4.1-9.3 9.3 0 5.1 4.2 9.3 9.3 9.3M1145.2 416.4c0 1.1-.9 2.1-2.1 2.1s-2.1-.9-2.1-2.1c0-1.1.9-2.1 2.1-2.1s2.1 1 2.1 2.1zM1143.1 410.3v4.1M1129.6 416.4h11.5M1145.2 416.4h11.5"/>
  </g>
  <g class="promo1">
    <path class="promo2" d="M90 331.8v-6.6H76.1v6.6M76.1 322.8H90v-13.4l-13.9 1.9zM92.4 309.2v13.6h18.1v-16.1zM110.5 331.8v-6.6H92.4v6.6M107.8 339.6c0 1.1-.9 2.1-2.1 2.1-1.1 0-2.1-.9-2.1-2.1 0-1.1.9-2.1 2.1-2.1 1.2 0 2.1 1 2.1 2.1z"/>
    <path class="promo2" d="M115 345.4c0 1.1-1 2.1-2.3 2.1H74c-1.3 0-2.3-.9-2.3-2.1v-11.5c0-1.1 1-2.1 2.3-2.1h38.7c1.3 0 2.3.9 2.3 2.1v11.5zM95.4 356.9c0 1.1-.9 2.1-2.1 2.1-1.1 0-2.1-.9-2.1-2.1 0-1.1.9-2.1 2.1-2.1 1.2.1 2.1 1 2.1 2.1zM93.3 350.8v4.1M79.8 356.9h11.5M95.4 356.9h11.5"/>
  </g>
  <g class="promo3">
    <path id="svg-concept" class="promo4" d="M177.6 266.2h-46.5c-.6 0-1.1.5-1.1 1.1v3.2c0 .6.5 1.1 1.1 1.1h2.2v23.2c0 .6.5 1.1 1.1 1.1h39.9c.6 0 1.1-.5 1.1-1.1v-23.2h2.2c.6 0 1.1-.5 1.1-1.1v-3.2c0-.6-.5-1.1-1.1-1.1zM145 266.2l7-19.4M156.9 246.8l6.8 19.4M145 277.4v13.7"/>
    <g>
      <path id="svg-concept" class="promo4" d="M163.7 277.4v13.7"/>
    </g>
  </g>
  <g class="promo1">
    <path class="promo2" d="M424 389.1h-46.5c-.6 0-1.1.5-1.1 1.1v3.2c0 .6.5 1.1 1.1 1.1h2.2v23.2c0 .6.5 1.1 1.1 1.1h39.9c.6 0 1.1-.5 1.1-1.1v-23.2h2.2c.6 0 1.1-.5 1.1-1.1v-3.2c0-.6-.5-1.1-1.1-1.1zM391.4 389.1l7-19.4M403.3 369.7l6.8 19.4M391.4 400.3v13.8"/>
    <g>
      <path class="promo2" d="M410.1 400.3v13.8"/>
    </g>
  </g>
  <g class="promo1">
    <path class="promo2" d="M1346.4 327.6h-46.5c-.6 0-1.1.5-1.1 1.1v3.2c0 .6.5 1.1 1.1 1.1h2.2v23.3c0 .6.5 1.1 1.1 1.1h39.9c.6 0 1.1-.5 1.1-1.1v-23.2h2.2c.6 0 1.1-.5 1.1-1.1v-3.2c0-.7-.5-1.2-1.1-1.2zM1313.8 327.6l6.9-19.4M1325.6 308.2l6.8 19.4M1313.8 338.9v13.7"/>
    <g>
      <path class="promo2" d="M1332.4 338.9v13.7"/>
    </g>
  </g>
  <g class="promo1">
    <path class="promo2" d="M286.7 268.6c-5.1.1-10 4-10 9.9M265.1 271.9c-6.4 0-11.5 5.2-11.5 11.5 0 6.4 5.2 11.5 11.5 11.5h21.4c9.1 0 16.5-7.4 16.5-16.5s-7.4-16.5-16.5-16.5h.2c-8.6 0-16.7 5.8-16.7 16.5"/>
    <circle class="promo2" cx="265.5" cy="254.4" r="2.1"/>
    <path class="promo2" d="M263.6 271.9c-.4-1-.7-2.1-.7-3.3 0-3.7 2.4-6.7 5.4-6.7 2.8 0 5 2.6 5.3 5.9"/>
    <circle class="promo2" cx="271.1" cy="254.4" r="2.1"/>
    <path class="promo2" d="M265.5 258.1l2.8 1.3 2.8-1.3"/>
    <path class="promo2" d="M279.3 263.4c-2.2-3.2-4.3-6.5-4.3-8.7v-.3c0-3.7-3-6.7-6.7-6.7s-6.7 3-6.7 6.7v.3c0 4.7-10.2 15.1-9 17.4"/>
  </g>
  <g class="promo1">
    <path class="promo2" d="M102.2 210.1c-5.1.1-10 4-10 9.9M80.7 213.4c-6.4 0-11.5 5.2-11.5 11.5 0 6.4 5.2 11.5 11.5 11.5h21.4c9.1 0 16.5-7.4 16.5-16.5s-7.4-16.5-16.5-16.5h.2c-8.6 0-16.7 5.8-16.7 16.5"/>
    <circle class="promo2" cx="81.1" cy="195.8" r="2.1"/>
    <path class="promo2" d="M79.2 213.4c-.4-1-.7-2.1-.7-3.3 0-3.7 2.4-6.7 5.4-6.7 2.8 0 5 2.6 5.3 5.9"/>
    <circle class="promo2" cx="86.7" cy="195.8" r="2.1"/>
    <path class="promo2" d="M81.1 199.6l2.8 1.3 2.8-1.3"/>
    <path class="promo2" d="M94.8 204.8c-2.2-3.2-4.3-6.5-4.3-8.7v-.3c0-3.7-3-6.7-6.7-6.7s-6.7 3-6.7 6.7v.3c0 4.7-10.2 15.1-9 17.4"/>
  </g>
  <g class="promo1">
    <path class="promo2" d="M594.2 330.1c-5.1.1-10 4-10 9.9M572.7 333.4c-6.4 0-11.5 5.2-11.5 11.5 0 6.4 5.2 11.5 11.5 11.5h21.4c9.1 0 16.5-7.4 16.5-16.5s-7.4-16.5-16.5-16.5h.2c-8.6 0-16.7 5.8-16.7 16.5"/>
    <circle class="promo2" cx="573.1" cy="315.9" r="2.1"/>
    <path class="promo2" d="M571.2 333.4c-.4-1-.7-2.1-.7-3.3 0-3.7 2.4-6.7 5.4-6.7 2.8 0 5 2.6 5.3 5.9"/>
    <circle class="promo2" cx="578.7" cy="315.9" r="2.1"/>
    <path class="promo2" d="M573.1 319.6l2.8 1.3 2.8-1.3"/>
    <path class="promo2" d="M586.8 324.9c-2.2-3.2-4.3-6.5-4.3-8.7v-.3c0-3.7-3-6.7-6.7-6.7s-6.7 3-6.7 6.7v.3c0 4.7-10.2 15.1-9 17.4"/>
  </g>
  <g class="promo3">
    <path id="svg-concept" class="promo4" d="M1259.5 255.8c-1.9.2-3.7.6-5.4 1.2-3.1-3.7-7.2-5-12.5-3.6-.4.1-.8.5-.9.9s0 .9.4 1.1c2.4 2.4 3.4 4.7 3.1 7.2-1.4 1.4-2.5 3.1-3.3 4.7h-1.3c-1.8 0-3.3 1.5-3.3 3.2v7.1c0 1.8 1.5 3.3 3.3 3.3h3.2c.6.8 1.4 1.5 2.2 2.3v8.3c0 1.8 1.4 3.3 3.3 3.3h3.4c1.8 0 3.3-1.4 3.3-3.3v-2.8c5.6 1.5 12.1 1.4 17.7-.3v3.2c0 1.8 1.4 3.3 3.3 3.3h3.3c1.9 0 3.4-1.5 3.4-3.4v-8.9c2.8-2.9 4.4-6.5 4.4-10 0-6.4-4.9-11.9-12.1-14.8"/>
    <circle id="svg-concept" class="promo4" cx="1267.6" cy="253.2" r="5.5"/>
  </g>
  <g class="promo1">
    <path class="promo2" d="M1013.5 378.8c-1.9.2-3.7.6-5.4 1.2-3.1-3.7-7.2-5-12.5-3.6-.4.1-.8.5-.9.9-.1.4 0 .9.4 1.1 2.4 2.4 3.4 4.7 3.1 7.2-1.4 1.4-2.5 3.1-3.3 4.7h-1.3c-1.8 0-3.3 1.5-3.3 3.2v7.1c0 1.8 1.5 3.3 3.3 3.3h3.2c.6.8 1.4 1.5 2.2 2.3v8.3c0 1.8 1.4 3.3 3.3 3.3h3.4c1.8 0 3.3-1.4 3.3-3.3v-2.8c5.6 1.5 12.1 1.4 17.7-.3v3.2c0 1.8 1.4 3.3 3.3 3.3h3.3c1.9 0 3.4-1.5 3.4-3.4v-8.9c2.8-2.9 4.4-6.5 4.4-10 0-6.4-4.9-11.9-12.1-14.8"/>
    <circle transform="rotate(-80.781 1021.7075 376.1836)" class="promo2" cx="1021.7" cy="376.2" r="5.5"/>
  </g>
  <g class="st5">
    <path id="svg-concept" class="promo4" d="M706.2 317.3c-1.9.2-3.7.6-5.4 1.2-3.1-3.7-7.2-5-12.5-3.6-.4.1-.8.5-.9.9-.1.4 0 .9.4 1.1 2.4 2.4 3.4 4.7 3.1 7.2-1.4 1.4-2.5 3.1-3.3 4.7h-1.3c-1.8 0-3.3 1.5-3.3 3.2v7.1c0 1.8 1.5 3.3 3.3 3.3h3.2c.6.8 1.4 1.5 2.2 2.3v8.3c0 1.8 1.4 3.3 3.3 3.3h3.4c1.8 0 3.3-1.4 3.3-3.3v-2.7c5.6 1.5 12.1 1.4 17.7-.3v3.2c0 1.8 1.4 3.3 3.3 3.3h3.3c1.9 0 3.4-1.5 3.4-3.4v-8.9c2.8-2.9 4.4-6.5 4.4-10 0-6.4-4.9-11.9-12.1-14.8"/>
    <circle id="svg-concept" class="promo4" cx="714.3" cy="314.7" r="5.5"/>
  </g>
  <g class="promo1">
    <path class="promo2" d="M216.3 316.3v5.6M198.2 328.8h36.3v28h-36.3zM216.3 328.8v28M198.6 342.8H234M207.1 321.9c-1.2-1-2-2.6-2-4.3 0-3.1 2.5-5.6 5.6-5.6s5.6 2.5 5.6 5.6M216.3 316.3c0-4.1 3-7.4 7.1-7.4s7.4 3.3 7.4 7.4c0 2-.8 3.9-2.2 5.2M194.3 321.9h44"/>
  </g>
  <g class="promo1">
    <path class="promo2" d="M1392.8 391.3c-5.1.1-10 4-10 9.9M1371.3 394.6c-6.4 0-11.5 5.2-11.5 11.5 0 6.4 5.2 11.5 11.5 11.5h21.4c9.1 0 16.5-7.4 16.5-16.5s-7.4-16.5-16.5-16.5h.2c-8.6 0-16.7 5.8-16.7 16.5"/>
    <circle class="promo2" cx="1371.7" cy="377" r="2.1"/>
    <path class="promo2" d="M1369.8 394.6c-.4-1-.7-2.1-.7-3.3 0-3.7 2.4-6.7 5.4-6.7 2.8 0 5 2.6 5.3 5.9"/>
    <circle class="promo2" cx="1377.3" cy="377" r="2.1"/>
    <path class="promo2" d="M1371.7 380.8l2.8 1.3 2.8-1.3"/>
    <path class="promo2" d="M1385.4 386c-2.2-3.2-4.3-6.5-4.3-8.7v-.3c0-3.7-3-6.7-6.7-6.7s-6.7 3-6.7 6.7v.3c0 4.7-10.2 15.1-9 17.4"/>
  </g>
  <g class="promo1">
    <path class="promo2" d="M635.5 529.5H633c-.4 0-.7-.3-.7-.6l-.8-5M656.7 529.5h-12M621.8 495.9h8.9"/>
    <path class="promo2" d="M667.5 519.4l-35.5 5.2c-.2 0-.4-.2-.4-.5l-3.7-23.7c0-.3.2-.5.5-.5H671c.3 0 .5.2.5.5l-3.7 18.4c.1.4-.1.6-.3.6M638.9 506.1v9.6M645.9 506.1v9.6M653 506.1v9.6M660 506.1v9.6M644.9 531.9c0 2.7-2.2 4.8-4.8 4.8-2.7 0-4.8-2.2-4.8-4.8 0-2.7 2.2-4.8 4.8-4.8 2.6-.1 4.8 2.1 4.8 4.8M666.1 531.9c0 2.7-2.2 4.8-4.8 4.8-2.7 0-4.8-2.2-4.8-4.8 0-2.7 2.2-4.8 4.8-4.8 2.6-.1 4.8 2.1 4.8 4.8"/>
  </g>
  <g class="promo1">
    <path class="promo2" d="M1311.9 225.7h-2.5c-.4 0-.7-.3-.7-.6l-.8-5M1333.1 225.7h-12M1298.2 192.1h8.9"/>
    <path class="promo2" d="M1343.9 215.6l-35.5 5.2c-.2 0-.4-.2-.4-.5l-3.7-23.7c0-.3.2-.5.5-.5h42.6c.3 0 .5.2.5.5l-3.7 18.4c.1.4 0 .6-.3.6M1315.3 202.3v9.6M1322.3 202.3v9.6M1329.4 202.3v9.6M1336.4 202.3v9.6M1321.3 228.1c0 2.7-2.2 4.8-4.8 4.8-2.7 0-4.8-2.2-4.8-4.8 0-2.7 2.2-4.8 4.8-4.8 2.6 0 4.8 2.1 4.8 4.8M1342.5 228.1c0 2.7-2.2 4.8-4.8 4.8-2.7 0-4.8-2.2-4.8-4.8 0-2.7 2.2-4.8 4.8-4.8s4.8 2.1 4.8 4.8"/>
  </g>
  <g class="promo1">
    <path class="promo2" d="M53.9 507.7c1.3 0 2.3 1 2.3 2.3v29c0 1.3-1 2.3-2.3 2.3h-44c-1.3 0-2.3-1-2.3-2.3v-29c0-1.3 1-2.3 2.3-2.3"/>
    <path class="promo2" d="M53.9 507.7l-22 16.2-22-16.2M53.9 507.7l-22-16.2-22 16.2M24.9 519.2L8.7 540.1M38.8 519.2L55 540.1"/>
  </g>
  <g class="st5">
    <path id="svg-concept" class="promo4" d="M361.3 569.1c1.3 0 2.3 1 2.3 2.3v29c0 1.3-1 2.3-2.3 2.3h-44c-1.3 0-2.3-1-2.3-2.3v-29c0-1.3 1-2.3 2.3-2.3"/>
    <path id="svg-concept" class="promo4" d="M361.3 569.1l-22 16.2-22-16.2M361.3 569.1l-22-16.2-22 16.2M332.3 580.7l-16.2 20.8M346.2 580.7l16.2 20.8"/>
  </g>
  <path class="promo0" d="M376.2 508.3c0-11.3 6-13.4 13.4-13.4 4.7 0 8.8 2.4 11.2 6 2.4-3.6 6.5-6 11.2-6 7.4 0 13.4 2.7 13.4 13.4 0 10.8-24.6 29.7-24.6 29.7s-24.6-18.4-24.6-29.7zM929.6 569.7c0-11.3 6-13.4 13.4-13.4 4.7 0 8.8 2.4 11.2 6 2.4-3.6 6.5-6 11.2-6 7.4 0 13.4 2.7 13.4 13.4 0 10.8-24.6 29.7-24.6 29.7s-24.6-18.4-24.6-29.7z"/>
  <g class="promo1">
    <path class="promo2" d="M1031.9 521.6c0 1.1-.9 2.1-2.1 2.1-1.1 0-2.1-.9-2.1-2.1 0-1.1.9-2.1 2.1-2.1s2.1 1 2.1 2.1z"/>
    <circle class="promo2" cx="1015.7" cy="539.2" r="2.1"/>
    <path class="promo2" d="M1040.4 528.2c0 1.3-1.2 2.4-2.6 2.4h-44.2c-1.4 0-2.6-1.1-2.6-2.4v-13.1c0-1.3 1.2-2.4 2.6-2.4h44.2c1.4 0 2.6 1.1 2.6 2.4v13.1zM1031.9 500.2c0 1.1-.9 2.1-2.1 2.1-1.1 0-2.1-.9-2.1-2.1 0-1.1.9-2.1 2.1-2.1 1.2.1 2.1 1 2.1 2.1z"/>
    <path class="promo2" d="M1040.4 506.8c0 1.3-1.2 2.4-2.6 2.4h-44.2c-1.4 0-2.6-1.1-2.6-2.4v-13.1c0-1.3 1.2-2.4 2.6-2.4h44.2c1.4 0 2.6 1.1 2.6 2.4v13.1zM1015.7 533.5v3.5M999.4 539.2h14.2M1017.8 539.2h14.2"/>
  </g>
  <g class="promo1">
    <path class="promo2" d="M749 539.7c0 1.1-.9 2.1-2.1 2.1-1.1 0-2.1-.9-2.1-2.1 0-1.1.9-2.1 2.1-2.1 1.2 0 2.1.9 2.1 2.1zM769.7 515.9v5.5M769.7 529.3v8.3M767 503.1h-2.8M775.2 503.1h-2.7"/>
    <circle class="promo2" cx="769.7" cy="501.9" r="11"/>
    <path class="promo2" d="M783.1 520.8v4.9h-26.8v-4.9c0-2.7 2.2-4.9 4.9-4.9h17c2.7 0 4.9 2.2 4.9 4.9zM760 497.5l16.8-4M748.4 538.2l8.6-8.6M790.3 539.7c0 1.1.9 2.1 2.1 2.1 1.2 0 2.1-.9 2.1-2.1 0-1.1-.9-2.1-2.1-2.1-1.2 0-2.1.9-2.1 2.1zM767.6 539.7c0 1.1.9 2.1 2.1 2.1 1.1 0 2.1-.9 2.1-2.1 0-1.1-.9-2.1-2.1-2.1-1.1 0-2.1.9-2.1 2.1zM790.9 538.2l-8.7-8.6"/>
  </g>
  <g class="promo1">
    <path class="promo2" d="M441.7 601.2c0 1.1-.9 2.1-2.1 2.1-1.1 0-2.1-.9-2.1-2.1 0-1.1.9-2.1 2.1-2.1 1.2 0 2.1.9 2.1 2.1zM462.4 577.4v5.5M462.4 590.8v8.3M459.7 564.7H457M467.9 564.7h-2.7"/>
    <circle class="promo2" cx="462.4" cy="563.4" r="11"/>
    <path class="promo2" d="M475.8 582.3v4.9H449v-4.9c0-2.7 2.2-4.9 4.9-4.9h17c2.8 0 4.9 2.2 4.9 4.9zM452.7 559l16.8-4M441.1 599.7l8.6-8.6M483 601.2c0 1.1.9 2.1 2.1 2.1s2.1-.9 2.1-2.1c0-1.1-.9-2.1-2.1-2.1-1.1 0-2.1.9-2.1 2.1zM460.4 601.2c0 1.1.9 2.1 2.1 2.1 1.1 0 2.1-.9 2.1-2.1 0-1.1-.9-2.1-2.1-2.1-1.2 0-2.1.9-2.1 2.1zM483.6 599.7l-8.7-8.6"/>
  </g>
  <g class="st5">
    <path id="svg-concept" class="promo4" d="M899.9 531c0 1.1-.9 2.1-2.1 2.1-1.1 0-2.1-.9-2.1-2.1 0-1.1.9-2.1 2.1-2.1 1.2 0 2.1.9 2.1 2.1zM908.8 531c0 1.1-.9 2.1-2.1 2.1-1.1 0-2.1-.9-2.1-2.1 0-1.1.9-2.1 2.1-2.1 1.2 0 2.1.9 2.1 2.1zM899.9 514.2c0 1.1-.9 2.1-2.1 2.1-1.1 0-2.1-.9-2.1-2.1 0-1.1.9-2.1 2.1-2.1 1.2.1 2.1 1 2.1 2.1zM908.8 514.2c0 1.1-.9 2.1-2.1 2.1-1.1 0-2.1-.9-2.1-2.1 0-1.1.9-2.1 2.1-2.1 1.2.1 2.1 1 2.1 2.1zM899.9 497.5c0 1.1-.9 2.1-2.1 2.1-1.1 0-2.1-.9-2.1-2.1 0-1.1.9-2.1 2.1-2.1s2.1 1 2.1 2.1zM908.8 497.5c0 1.1-.9 2.1-2.1 2.1-1.1 0-2.1-.9-2.1-2.1 0-1.1.9-2.1 2.1-2.1 1.2 0 2.1 1 2.1 2.1z"/>
    <path id="svg-concept" class="promo4" d="M915.5 491.7c0-1.2-1.1-2.2-2.4-2.2h-40.8c-1.3 0-2.4 1-2.4 2.2v45c0 1.2 1.1 2.2 2.4 2.2h40.8c1.3 0 2.4-1 2.4-2.2v-45zM875.5 506.2h34.4M875.5 522.2h34.4"/>
    <path id="svg-concept" class="promo4" d="M883.6 538.9v4.1h-6.8v-4.1M908.6 538.9v4.1h-6.9v-4.1"/>
  </g>
  <g class="promo1">
    <path class="promo2" d="M1207.3 592.5c0 1.1-.9 2.1-2.1 2.1-1.1 0-2.1-.9-2.1-2.1 0-1.1.9-2.1 2.1-2.1 1.2 0 2.1.9 2.1 2.1zM1216.3 592.5c0 1.1-.9 2.1-2.1 2.1-1.1 0-2.1-.9-2.1-2.1 0-1.1.9-2.1 2.1-2.1 1.2 0 2.1.9 2.1 2.1zM1207.3 575.7c0 1.1-.9 2.1-2.1 2.1-1.1 0-2.1-.9-2.1-2.1 0-1.1.9-2.1 2.1-2.1 1.2.1 2.1 1 2.1 2.1zM1216.3 575.7c0 1.1-.9 2.1-2.1 2.1-1.1 0-2.1-.9-2.1-2.1 0-1.1.9-2.1 2.1-2.1 1.2.1 2.1 1 2.1 2.1zM1207.3 559c0 1.1-.9 2.1-2.1 2.1-1.1 0-2.1-.9-2.1-2.1 0-1.1.9-2.1 2.1-2.1 1.2 0 2.1 1 2.1 2.1zM1216.3 559c0 1.1-.9 2.1-2.1 2.1-1.1 0-2.1-.9-2.1-2.1 0-1.1.9-2.1 2.1-2.1 1.2 0 2.1 1 2.1 2.1z"/>
    <path class="promo2" d="M1222.9 553.2c0-1.2-1.1-2.2-2.4-2.2h-40.8c-1.3 0-2.4 1-2.4 2.2v45c0 1.2 1.1 2.2 2.4 2.2h40.8c1.3 0 2.4-1 2.4-2.2v-45zM1183 567.7h34.3M1183 583.7h34.3"/>
    <path class="promo2" d="M1191.1 600.4v4.1h-6.9v-4.1M1216.1 600.4v4.1h-6.9v-4.1"/>
  </g>
  <g class="st5">
    <path id="svg-concept" class="promo4" d="M523.9 492.1s-1.3 1.9-2.9 2.7c-1.6.9 0 2.1 0 2.1l-2.4 2.4-3.3 1.9-3.9-.4.4-2.4 2.1-1.3.3-1.9-.3-1.1M507.3 498.5v6.3l-.7.4-.7 6.7s-2.6 1-2.9 1l-3.5 1.5M500 521.6l3.4-1.4 2.6 2-.4.7 2.6 2.9h.7l2.6 1.4 1.1.6s-.1.7 0 1-.9 1.7-.9 1.7v1.9l1.6 1.9.7.7 2.9 1.4 2.9 4M536.6 495.7c-.3-.1-3.1 3.8-3.1 3.8l.9 2.1-.6.4-2 1-2.4 1.3s-.9 2-1.6 2.6c-.7.6-2.3 1.9-2.3 1.9l-1.9 4.4-2.4 4.9.1 2.6 2.1 2.6 2.6-1.4 1.9.9.1 3 1.4 1.4s-.3.9-.4 1.1l-.9 1.9-.9.4.6 2.6 2.3 2.3s2-1.3 2.1-1.6c.1-.1 1.6-3.4 1.6-3.4l3.3-3.3 1.9-2.6 1.4-3.3-.7-2-1-1.1.7-1.1s1.7-1.6 1.9-1.1c.1.4.9 3.3.9 3.3l2.4-.7.1-.7 3.3-.8"/>
    <path id="svg-concept" class="promo4" d="M523.7 492.1c14.2 0 24.3 11.8 24.3 24.3 0 13.4-10.9 24.3-24.3 24.3s-24.3-10.9-24.3-24.3c.1-13.5 10.9-24.3 24.3-24.3z"/>
  </g>
  <g class="st5">
    <path id="svg-concept" class="promo4" d="M1077.4 553.5s-1.3 1.9-2.9 2.7c-1.6.9 0 2.1 0 2.1l-2.4 2.4-3.3 1.9-3.9-.4.4-2.4 2.1-1.3.3-1.9-.3-1.1M1060.7 559.9v6.3l-.7.4-.7 6.7s-2.6 1-2.9 1l-3.5 1.5M1053.5 583.1l3.4-1.4 2.6 2-.4.7 2.6 2.9h.7l2.6 1.4 1.1.6s-.1.7 0 1-.9 1.7-.9 1.7v1.9l1.6 1.9.7.7 2.9 1.4 2.9 4M1090 557.2c-.3-.1-3.1 3.8-3.1 3.8l.9 2.1-.6.4-2 1-2.4 1.3s-.9 2-1.6 2.6-2.3 1.9-2.3 1.9l-1.9 4.4-2.4 4.9.1 2.6 2.1 2.6 2.6-1.4 1.9.9.1 3 1.4 1.4s-.3.9-.4 1.1l-.9 1.9-.9.4.6 2.6 2.3 2.3s2-1.3 2.1-1.6c.1-.1 1.6-3.4 1.6-3.4l3.3-3.3 1.9-2.6 1.4-3.3-.7-2-1-1.1.7-1.1s1.7-1.6 1.9-1.1c.1.4.9 3.3.9 3.3l2.4-.7.1-.7 3.3-.8"/>
    <path id="svg-concept" class="promo4" d="M1077.2 553.5c14.2 0 24.3 11.8 24.3 24.3 0 13.4-10.9 24.3-24.3 24.3s-24.3-10.9-24.3-24.3 10.8-24.3 24.3-24.3z"/>
  </g>
  <g class="promo1">
    <path class="promo2" d="M1151.2 510c0 .9-.7 1.7-1.7 1.7-.9 0-1.7-.7-1.7-1.7 0-.9.7-1.7 1.7-1.7s1.7.7 1.7 1.7zM1151.2 523.4c0 .9-.7 1.7-1.7 1.7-.9 0-1.7-.7-1.7-1.7 0-.9.7-1.7 1.7-1.7s1.7.7 1.7 1.7zM1158.7 497.5c0 3.6-8.9 6.6-19.9 6.6s-19.9-3-19.9-6.6c0-3.7 8.9-6.6 19.9-6.6s19.9 2.9 19.9 6.6z"/>
    <path class="promo2" d="M1158.7 510.8c0 3.6-8.9 6.6-19.9 6.6s-19.9-3-19.9-6.6M1158.7 524.1c0 3.6-8.9 6.6-19.9 6.6s-19.9-3-19.9-6.6M1118.8 524.1v-26.6M1158.7 524.1v-26.6M1140.3 539.7c0 1.1-.9 2.1-2.1 2.1s-2.1-.9-2.1-2.1c0-1.1.9-2.1 2.1-2.1s2.1.9 2.1 2.1zM1138.2 533.5v4.1M1124.7 539.7h11.5M1140.3 539.7h11.5"/>
  </g>
  <g class="promo1">
    <path class="promo2" d="M843.7 571.4c0 .9-.7 1.7-1.7 1.7-.9 0-1.7-.7-1.7-1.7 0-.9.7-1.7 1.7-1.7 1 .1 1.7.8 1.7 1.7zM843.7 584.8c0 .9-.7 1.7-1.7 1.7-.9 0-1.7-.7-1.7-1.7 0-.9.7-1.7 1.7-1.7 1 .1 1.7.8 1.7 1.7zM851.2 559c0 3.6-8.9 6.6-19.9 6.6s-19.9-3-19.9-6.6c0-3.7 8.9-6.6 19.9-6.6s19.9 2.9 19.9 6.6z"/>
    <path class="promo2" d="M851.2 572.3c0 3.6-8.9 6.6-19.9 6.6s-19.9-3-19.9-6.6M851.2 585.6c0 3.6-8.9 6.6-19.9 6.6s-19.9-3-19.9-6.6M811.3 585.6V559M851.2 585.6V559M832.8 601.1c0 1.1-.9 2.1-2.1 2.1s-2.1-.9-2.1-2.1c0-1.1.9-2.1 2.1-2.1s2.1 1 2.1 2.1zM830.7 594.9v4.2M817.2 601.1h11.5M832.8 601.1h11.5"/>
  </g>
  <g class="promo1">
    <path class="promo2" d="M1402.8 522.2c0 1.1-.9 2.1-2.1 2.1-1.1 0-2.1-.9-2.1-2.1 0-1.1.9-2.1 2.1-2.1 1.2.1 2.1 1 2.1 2.1z"/>
    <path class="promo2" d="M1409.3 527.6c0 1.1-.9 1.9-2.1 1.9h-35.8c-1.2 0-2.1-.9-2.1-1.9v-10.7c0-1.1.9-1.9 2.1-1.9h35.8c1.2 0 2.1.9 2.1 1.9v10.7zM1373.1 505.3v-1.2c.6-6.7 6.6-12 13.5-12h-.2c7.3 0 13.2 5.9 13.2 13.2 0 3.8-1.6 7.2-4.2 9.6"/>
    <path class="promo2" d="M1386.4 497.4c-4.1.1-7.7 3.3-8.1 7.2v.7M1369.1 500c-5.1 0-9.3 4.1-9.3 9.3 0 5.1 4.2 9.3 9.3 9.3M1391.7 538.4c0 1.1-.9 2.1-2.1 2.1-1.1 0-2.1-.9-2.1-2.1 0-1.1.9-2.1 2.1-2.1 1.2 0 2.1.9 2.1 2.1zM1389.6 532.2v4.1M1376.1 538.4h11.5M1391.7 538.4h11.5"/>
  </g>
  <g class="promo1">
    <path class="promo2" d="M90 576.8v-6.7H76.1v6.7M76.1 567.8H90v-13.5l-13.9 1.9zM92.4 554.1v13.7h18.1v-16.2zM110.5 576.8v-6.7H92.4v6.7M107.8 584.6c0 1.1-.9 2.1-2.1 2.1-1.1 0-2.1-.9-2.1-2.1 0-1.1.9-2.1 2.1-2.1s2.1.9 2.1 2.1z"/>
    <path class="promo2" d="M115 590.3c0 1.1-1 2.1-2.3 2.1H74c-1.3 0-2.3-.9-2.3-2.1v-11.5c0-1.1 1-2.1 2.3-2.1h38.7c1.3 0 2.3.9 2.3 2.1v11.5zM95.4 601.9c0 1.1-.9 2.1-2.1 2.1-1.1 0-2.1-.9-2.1-2.1 0-1.1.9-2.1 2.1-2.1s2.1 1 2.1 2.1zM93.3 595.7v4.1M79.8 601.9h11.5M95.4 601.9h11.5"/>
  </g>
  <g class="st5">
    <path id="svg-concept" class="promo4" d="M177.6 511.1h-46.5c-.6 0-1.1.5-1.1 1.1v3.2c0 .6.5 1.1 1.1 1.1h2.2v23.2c0 .6.5 1.1 1.1 1.1h39.9c.6 0 1.1-.5 1.1-1.1v-23.2h2.2c.6 0 1.1-.5 1.1-1.1v-3.1c0-.7-.5-1.2-1.1-1.2zM145 511.1l7-19.3M156.9 491.8l6.8 19.3M145 522.4v13.7"/>
    <g>
      <path id="svg-concept" class="promo4" d="M163.7 522.4v13.7"/>
    </g>
  </g>
  <g class="promo1">
    <path class="promo2" d="M1346.4 572.6h-46.5c-.6 0-1.1.5-1.1 1.1v3.2c0 .6.5 1.1 1.1 1.1h2.2v23.3c0 .6.5 1.1 1.1 1.1h39.9c.6 0 1.1-.5 1.1-1.1v-23.2h2.2c.6 0 1.1-.5 1.1-1.1v-3.2c0-.7-.5-1.2-1.1-1.2zM1313.8 572.6l6.9-19.4M1325.6 553.2l6.8 19.4M1313.8 583.8v13.7"/>
    <g>
      <path class="promo2" d="M1332.4 583.8v13.7"/>
    </g>
  </g>
  <g class="promo1">
    <path class="promo2" d="M286.7 513.6c-5.1.1-10 4-10 9.9M265.1 516.9c-6.4 0-11.5 5.2-11.5 11.5 0 6.4 5.2 11.5 11.5 11.5h21.4c9.1 0 16.5-7.4 16.5-16.5s-7.4-16.5-16.5-16.5h.2c-8.6 0-16.7 5.8-16.7 16.5"/>
    <circle class="promo2" cx="265.5" cy="499.3" r="2.1"/>
    <path class="promo2" d="M263.6 516.9c-.4-1-.7-2.1-.7-3.3 0-3.7 2.4-6.7 5.4-6.7 2.8 0 5 2.6 5.3 5.9"/>
    <circle class="promo2" cx="271.1" cy="499.3" r="2.1"/>
    <path class="promo2" d="M265.5 503.1l2.8 1.3 2.8-1.3"/>
    <path class="promo2" d="M279.3 508.3c-2.2-3.2-4.3-6.5-4.3-8.7v-.3c0-3.7-3-6.7-6.7-6.7s-6.7 3-6.7 6.7v.3c0 4.7-10.2 15.1-9 17.4"/>
  </g>
  <g class="promo1">
    <path class="promo2" d="M594.2 575.1c-5.1.1-10 4-10 9.9M572.7 578.4c-6.4 0-11.5 5.2-11.5 11.5 0 6.4 5.2 11.5 11.5 11.5h21.4c9.1 0 16.5-7.4 16.5-16.5s-7.4-16.5-16.5-16.5h.2c-8.6 0-16.7 5.8-16.7 16.5"/>
    <circle class="promo2" cx="573.1" cy="560.8" r="2.1"/>
    <path class="promo2" d="M571.2 578.4c-.4-1-.7-2.1-.7-3.3 0-3.7 2.4-6.7 5.4-6.7 2.8 0 5 2.6 5.3 5.9"/>
    <circle class="promo2" cx="578.7" cy="560.8" r="2.1"/>
    <path class="promo2" d="M573.1 564.6l2.8 1.3 2.8-1.3"/>
    <path class="promo2" d="M586.8 569.8c-2.2-3.2-4.3-6.5-4.3-8.7v-.3c0-3.7-3-6.7-6.7-6.7s-6.7 3-6.7 6.7v.3c0 4.7-10.2 15.1-9 17.4"/>
  </g>
  <g class="st5">
    <path id="svg-concept" class="promo4" d="M1259.5 500.8c-1.9.2-3.7.6-5.4 1.2-3.1-3.7-7.2-5-12.5-3.6-.4.1-.8.5-.9.9s0 .9.4 1.1c2.4 2.4 3.4 4.7 3.1 7.2-1.4 1.4-2.5 3.1-3.3 4.7h-1.3c-1.8 0-3.3 1.5-3.3 3.2v7.1c0 1.8 1.5 3.3 3.3 3.3h3.2c.6.8 1.4 1.5 2.2 2.3v8.3c0 1.8 1.4 3.3 3.3 3.3h3.4c1.8 0 3.3-1.4 3.3-3.3v-2.8c5.6 1.5 12.1 1.4 17.7-.3v3.2c0 1.8 1.4 3.3 3.3 3.3h3.3c1.9 0 3.4-1.5 3.4-3.4v-8.9c2.8-2.9 4.4-6.5 4.4-10 0-6.4-4.9-11.9-12.1-14.8"/>
    <circle id="svg-concept" class="promo4" cx="1267.6" cy="498.1" r="5.5"/>
  </g>
  <g class="st5">
    <path id="svg-concept" class="promo4" d="M706.2 562.3c-1.9.2-3.7.6-5.4 1.2-3.1-3.7-7.2-5-12.5-3.6-.4.1-.8.5-.9.9-.1.4 0 .9.4 1.1 2.4 2.4 3.4 4.7 3.1 7.2-1.4 1.4-2.5 3.1-3.3 4.7h-1.3c-1.8 0-3.3 1.5-3.3 3.2v7.1c0 1.8 1.5 3.3 3.3 3.3h3.2c.6.8 1.4 1.5 2.2 2.3v8.3c0 1.8 1.4 3.3 3.3 3.3h3.4c1.8 0 3.3-1.4 3.3-3.3v-2.8c5.6 1.5 12.1 1.4 17.7-.3v3.2c0 1.8 1.4 3.3 3.3 3.3h3.3c1.9 0 3.4-1.5 3.4-3.4v-8.9c2.8-2.9 4.4-6.5 4.4-10 0-6.4-4.9-11.9-12.1-14.8"/>
    <circle id="svg-concept" class="promo4" cx="714.3" cy="559.6" r="5.5"/>
  </g>
  <g class="promo1">
    <path class="promo2" d="M216.3 561.3v5.6M198.2 573.7h36.3v28h-36.3zM216.3 573.7v28M198.6 587.7H234M207.1 566.9c-1.2-1-2-2.6-2-4.3 0-3.1 2.5-5.6 5.6-5.6s5.6 2.5 5.6 5.6M216.3 561.3c0-4.1 3-7.4 7.1-7.4s7.4 3.3 7.4 7.4c0 2-.8 3.9-2.2 5.2M194.3 566.9h44"/>
  </g>
  <g class="promo1">
    <path class="promo2" d="M1209 209.5c-5.1.1-10 4-10 9.9M1187.5 212.8c-6.4 0-11.5 5.2-11.5 11.5 0 6.4 5.2 11.5 11.5 11.5h21.4c9.1 0 16.5-7.4 16.5-16.5s-7.4-16.5-16.5-16.5h.2c-8.6 0-16.7 5.8-16.7 16.5"/>
    <circle class="promo2" cx="1187.9" cy="195.2" r="2.1"/>
    <path class="promo2" d="M1186 212.8c-.4-1-.7-2.1-.7-3.3 0-3.7 2.4-6.7 5.4-6.7 2.8 0 5 2.6 5.3 5.9"/>
    <circle class="promo2" cx="1193.5" cy="195.2" r="2.1"/>
    <path class="promo2" d="M1187.9 199l2.8 1.3 2.8-1.3"/>
    <path class="promo2" d="M1201.6 204.2c-2.2-3.2-4.3-6.5-4.3-8.7v-.3c0-3.7-3-6.7-6.7-6.7s-6.7 3-6.7 6.7v.3c0 4.7-10.2 15.1-9 17.4"/>
  </g>
  <g class="promo1">
    <path class="promo2" d="M451.1 469.2h-2.5c-.4 0-.7-.3-.7-.6l-.8-5M472.3 469.2h-12.1M437.4 435.6h8.9"/>
    <path class="promo2" d="M483.1 459.2l-35.5 5.2c-.2 0-.4-.2-.4-.5l-3.7-23.7c0-.3.2-.5.5-.5h42.6c.3 0 .5.2.5.5l-3.7 18.4c.1.3-.1.6-.3.6M454.4 445.8v9.6M461.5 445.8v9.6M468.5 445.8v9.6M475.6 445.8v9.6M460.5 471.6c0 2.7-2.2 4.8-4.8 4.8-2.7 0-4.8-2.2-4.8-4.8 0-2.7 2.2-4.8 4.8-4.8s4.8 2.1 4.8 4.8M481.6 471.6c0 2.7-2.2 4.8-4.8 4.8-2.7 0-4.8-2.2-4.8-4.8 0-2.7 2.2-4.8 4.8-4.8 2.7 0 4.8 2.1 4.8 4.8"/>
  </g>
  <g class="promo1">
    <path class="promo2" d="M238.3 447.3c1.3 0 2.3 1 2.3 2.3v29c0 1.3-1 2.3-2.3 2.3h-44c-1.3 0-2.3-1-2.3-2.3v-29c0-1.3 1-2.3 2.3-2.3"/>
    <path class="promo2" d="M238.3 447.3l-22 16.2-22-16.2M238.3 447.3l-22-16.2-22 16.2M209.4 458.9l-16.2 20.8M223.3 458.9l16.2 20.8"/>
  </g>
  <g class="st5">
    <path id="svg-concept" class="promo4" d="M1056.2 479.2c0 1.1-.9 2.1-2.1 2.1-1.1 0-2.1-.9-2.1-2.1 0-1.1.9-2.1 2.1-2.1 1.2 0 2.1 1 2.1 2.1zM1077 455.5v5.4M1077 468.9v8.2M1074.2 442.7h-2.7M1082.4 442.7h-2.7"/>
    <circle id="svg-concept" class="promo4" cx="1077" cy="441.4" r="11"/>
    <path id="svg-concept" class="promo4" d="M1090.4 460.3v4.9h-26.8v-4.9c0-2.7 2.2-4.9 4.9-4.9h17c2.7.1 4.9 2.2 4.9 4.9zM1067.2 437l16.9-4M1055.6 477.7l8.6-8.5M1097.5 479.2c0 1.1.9 2.1 2.1 2.1s2.1-.9 2.1-2.1c0-1.1-.9-2.1-2.1-2.1-1.1 0-2.1 1-2.1 2.1zM1074.9 479.2c0 1.1.9 2.1 2.1 2.1 1.1 0 2.1-.9 2.1-2.1 0-1.1-.9-2.1-2.1-2.1s-2.1 1-2.1 2.1zM1098.1 477.7l-8.7-8.5"/>
  </g>
  <g class="st5">
    <path id="svg-concept" class="promo4" d="M339.5 431.9s-1.3 1.9-2.9 2.7c-1.6.9 0 2.1 0 2.1l-2.4 2.4-3.3 1.9-3.9-.4.4-2.4 2.1-1.3.3-1.9-.3-1.1M322.8 438.3v6.3l-.7.4-.7 6.7s-2.6 1-2.9 1l-3.5 1.5M315.6 461.4l3.4-1.4 2.6 2-.4.7 2.6 2.9h.7l2.6 1.4 1.1.6s-.1.7 0 1-.9 1.7-.9 1.7v1.9l1.6 1.9.7.7 2.9 1.4 2.9 4M352.1 435.5c-.3-.1-3.1 3.8-3.1 3.8l.9 2.1-.6.4-2 1-2.4 1.3s-.9 2-1.6 2.6-2.3 1.9-2.3 1.9l-1.9 4.4-2.4 4.9.1 2.6 2.1 2.6 2.6-1.4 1.9.9.1 3 1.4 1.4s-.3.9-.4 1.1l-.9 1.9-.9.4.6 2.6 2.3 2.3s2-1.3 2.1-1.6c.1-.1 1.6-3.4 1.6-3.4l3.3-3.3 1.9-2.6 1.4-3.3-.7-2-1-1.1.7-1.1s1.7-1.6 1.9-1.1c.1.4.9 3.3.9 3.3l2.4-.7.1-.7 3.3-.8"/>
    <path id="svg-concept" class="promo4" d="M339.3 431.9c14.2 0 24.3 11.8 24.3 24.3 0 13.4-10.9 24.3-24.3 24.3S315 469.6 315 456.2c0-13.5 10.9-24.3 24.3-24.3z"/>
  </g>
  <g class="promo1">
    <path class="promo2" d="M597.7 449.7c0 .9-.7 1.7-1.7 1.7-.9 0-1.7-.7-1.7-1.7 0-.9.7-1.7 1.7-1.7s1.7.8 1.7 1.7zM597.7 463.1c0 .9-.7 1.7-1.7 1.7-.9 0-1.7-.7-1.7-1.7 0-.9.7-1.7 1.7-1.7s1.7.8 1.7 1.7zM605.2 437.2c0 3.6-8.9 6.6-19.9 6.6s-19.9-3-19.9-6.6c0-3.7 8.9-6.6 19.9-6.6 10.9 0 19.9 3 19.9 6.6z"/>
    <path class="promo2" d="M605.2 450.5c0 3.6-8.9 6.6-19.9 6.6s-19.9-3-19.9-6.6M605.2 463.8c0 3.6-8.9 6.6-19.9 6.6s-19.9-3-19.9-6.6M565.3 463.9v-26.7M605.2 463.9v-26.7M586.8 479.4c0 1.1-.9 2.1-2.1 2.1s-2.1-.9-2.1-2.1c0-1.1.9-2.1 2.1-2.1s2.1.9 2.1 2.1zM584.7 473.2v4.1M571.2 479.4h11.5M586.8 479.4h11.5"/>
  </g>
  <g class="promo1">
    <path class="promo2" d="M976.4 447.3c1.3 0 2.3 1 2.3 2.3v29c0 1.3-1 2.3-2.3 2.3h-44c-1.3 0-2.3-1-2.3-2.3v-29c0-1.3 1-2.3 2.3-2.3"/>
    <path class="promo2" d="M976.4 447.3l-22 16.2-22-16.2M976.4 447.3l-22-16.2-22 16.2M947.4 458.9l-16.2 20.8M961.3 458.9l16.2 20.8"/>
  </g>
  <path class="promo0" d="M806.6 447.9c0-11.3 6-13.4 13.4-13.4 4.7 0 8.8 2.4 11.2 6 2.4-3.6 6.5-6 11.2-6 7.4 0 13.4 2.7 13.4 13.4 0 10.8-24.6 29.7-24.6 29.7s-24.6-18.4-24.6-29.7z"/>
  <g class="st5">
    <path id="svg-concept" class="promo4" d="M724.5 461.3c0 1.1-.9 2.1-2.1 2.1-1.1 0-2.1-.9-2.1-2.1 0-1.1.9-2.1 2.1-2.1 1.1.1 2.1 1 2.1 2.1z"/>
    <circle id="svg-concept" class="promo4" cx="708.2" cy="478.9" r="2.1"/>
    <path id="svg-concept" class="promo4" d="M732.9 467.9c0 1.3-1.2 2.4-2.6 2.4h-44.2c-1.4 0-2.6-1.1-2.6-2.4v-13.1c0-1.3 1.2-2.4 2.6-2.4h44.2c1.4 0 2.6 1.1 2.6 2.4v13.1zM724.5 439.9c0 1.1-.9 2.1-2.1 2.1-1.1 0-2.1-.9-2.1-2.1 0-1.1.9-2.1 2.1-2.1 1.1.1 2.1 1 2.1 2.1z"/>
    <path id="svg-concept" class="promo4" d="M732.9 446.5c0 1.3-1.2 2.4-2.6 2.4h-44.2c-1.4 0-2.6-1.1-2.6-2.4v-13.1c0-1.3 1.2-2.4 2.6-2.4h44.2c1.4 0 2.6 1.1 2.6 2.4v13.1zM708.2 473.2v3.6M691.9 478.9h14.2M710.4 478.9h14.1"/>
  </g>
  <g class="promo1">
    <path class="promo2" d="M102.2 453.9c-5.1.1-10 4-10 9.9M80.7 457.2c-6.4 0-11.5 5.2-11.5 11.5 0 6.4 5.2 11.5 11.5 11.5h21.4c9.1 0 16.5-7.4 16.5-16.5s-7.4-16.5-16.5-16.5h.2c-8.6 0-16.7 5.8-16.7 16.5"/>
    <circle class="promo2" cx="81.1" cy="439.6" r="2.1"/>
    <path class="promo2" d="M79.2 457.2c-.4-1-.7-2.1-.7-3.3 0-3.7 2.4-6.7 5.4-6.7 2.8 0 5 2.6 5.3 5.9"/>
    <circle class="promo2" cx="86.7" cy="439.6" r="2.1"/>
    <path class="promo2" d="M81.1 443.4l2.8 1.3 2.8-1.3"/>
    <path class="promo2" d="M94.8 448.6c-2.2-3.2-4.3-6.5-4.3-8.7v-.3c0-3.7-3-6.7-6.7-6.7s-6.7 3-6.7 6.7v.3c0 4.7-10.2 15.1-9 17.4"/>
  </g>
  <g class="promo1">
    <path class="promo2" d="M1311.9 469.5h-2.5c-.4 0-.7-.3-.7-.6l-.8-5M1333.1 469.5h-12M1298.2 435.9h8.9"/>
    <path class="promo2" d="M1343.9 459.4l-35.5 5.2c-.2 0-.4-.2-.4-.5l-3.7-23.7c0-.3.2-.5.5-.5h42.6c.3 0 .5.2.5.5l-3.7 18.4c.1.4 0 .6-.3.6M1315.3 446.1v9.6M1322.3 446.1v9.6M1329.4 446.1v9.6M1336.4 446.1v9.6M1321.3 471.9c0 2.7-2.2 4.8-4.8 4.8-2.7 0-4.8-2.2-4.8-4.8 0-2.7 2.2-4.8 4.8-4.8 2.6 0 4.8 2.1 4.8 4.8M1342.5 471.9c0 2.7-2.2 4.8-4.8 4.8-2.7 0-4.8-2.2-4.8-4.8 0-2.7 2.2-4.8 4.8-4.8 2.6 0 4.8 2.1 4.8 4.8"/>
  </g>
  <g class="promo1">
    <path class="promo2" d="M1209 453.3c-5.1.1-10 4-10 9.9M1187.5 456.6c-6.4 0-11.5 5.2-11.5 11.5 0 6.4 5.2 11.5 11.5 11.5h21.4c9.1 0 16.5-7.4 16.5-16.5s-7.4-16.5-16.5-16.5h.2c-8.6 0-16.7 5.8-16.7 16.5"/>
    <circle class="promo2" cx="1187.9" cy="439" r="2.1"/>
    <path class="promo2" d="M1186 456.6c-.4-1-.7-2.1-.7-3.3 0-3.7 2.4-6.7 5.4-6.7 2.8 0 5 2.6 5.3 5.9"/>
    <circle class="promo2" cx="1193.5" cy="439" r="2.1"/>
    <path class="promo2" d="M1187.9 442.8l2.8 1.3 2.8-1.3"/>
    <path class="promo2" d="M1201.6 448c-2.2-3.2-4.3-6.5-4.3-8.7v-.3c0-3.7-3-6.7-6.7-6.7s-6.7 3-6.7 6.7v.3c0 4.7-10.2 15.1-9 17.4"/>
  </g>
  <path class="promo0" d="M1461.5 504.2l14.5-14.5M1476 549.6l-14.5-14.6M1461.5 381.3l14.5-14.6M1476 426.6l-14.5-14.5M1461.5 258.3l14.5-14.6M1476 303.6l-14.5-14.5M1473.3 615.3l2.7-2.7M1461.5 135.3l14.5-14.5M1476 180.7l-14.5-14.6M1461.4 12.4L1473.3.5M1476 57.7l-14.5-14.5"/>
  <g class="st5">
    <path id="svg-concept" class="promo4" d="M1469.3 84h-46.5c-.6 0-1.1.5-1.1 1.1v3.2c0 .6.5 1.1 1.1 1.1h2.2v23.2c0 .6.5 1.1 1.1 1.1h39.9c.6 0 1.1-.5 1.1-1.1v-23h2.2c.6 0 1.1-.5 1.1-1.1v-3.2c0-.8-.5-1.3-1.1-1.3zM1436.7 84l6.9-19.3M1448.5 64.7l6.8 19.3M1436.7 95.3V109"/>
    <g>
      <path id="svg-concept" class="promo4" d="M1455.3 95.3V109"/>
    </g>
  </g>
  <g class="st5">
    <path id="svg-concept" class="promo4" d="M1469.3 327.6h-46.5c-.6 0-1.1.5-1.1 1.1v3.2c0 .6.5 1.1 1.1 1.1h2.2v23.3c0 .6.5 1.1 1.1 1.1h39.9c.6 0 1.1-.5 1.1-1.1v-23.2h2.2c.6 0 1.1-.5 1.1-1.1v-3.2c0-.7-.5-1.2-1.1-1.2zM1436.7 327.6l6.9-19.4M1448.5 308.2l6.8 19.4M1436.7 338.9v13.7"/>
    <g>
      <path id="svg-concept" class="promo4" d="M1455.3 338.9v13.7"/>
    </g>
  </g>
  <g class="promo3">
    <path id="svg-concept" class="promo4" d="M1434.8 225.7h-2.5c-.4 0-.7-.3-.7-.6l-.8-5M1456 225.7h-12M1421.1 192.1h8.9"/>
    <path id="svg-concept" class="promo4" d="M1466.8 215.6l-35.5 5.2c-.2 0-.4-.2-.4-.5l-3.7-23.7c0-.3.2-.5.5-.5h42.6c.3 0 .5.2.5.5l-3.7 18.4c.1.4 0 .6-.3.6M1438.2 202.3v9.6M1445.2 202.3v9.6M1452.3 202.3v9.6M1459.3 202.3v9.6M1444.2 228.1c0 2.7-2.2 4.8-4.8 4.8-2.7 0-4.8-2.2-4.8-4.8 0-2.7 2.2-4.8 4.8-4.8s4.8 2.1 4.8 4.8M1465.4 228.1c0 2.7-2.2 4.8-4.8 4.8-2.7 0-4.8-2.2-4.8-4.8 0-2.7 2.2-4.8 4.8-4.8 2.6 0 4.8 2.1 4.8 4.8"/>
  </g>
  <g class="st5">
    <path id="svg-concept" class="promo4" d="M1469.3 572.6h-46.5c-.6 0-1.1.5-1.1 1.1v3.2c0 .6.5 1.1 1.1 1.1h2.2v23.3c0 .6.5 1.1 1.1 1.1h39.9c.6 0 1.1-.5 1.1-1.1v-23.2h2.2c.6 0 1.1-.5 1.1-1.1v-3.2c0-.7-.5-1.2-1.1-1.2zM1436.7 572.6l6.9-19.4M1448.5 553.2l6.8 19.4M1436.7 583.8v13.7"/>
    <g>
      <path id="svg-concept" class="promo4" d="M1455.3 583.8v13.7"/>
    </g>
  </g>
  <g class="st5">
    <path id="svg-concept" class="promo4" d="M1434.8 469.5h-2.5c-.4 0-.7-.3-.7-.6l-.8-5M1456 469.5h-12M1421.1 435.9h8.9"/>
    <path id="svg-concept" class="promo4" d="M1466.8 459.4l-35.5 5.2c-.2 0-.4-.2-.4-.5l-3.7-23.7c0-.3.2-.5.5-.5h42.6c.3 0 .5.2.5.5l-3.7 18.4c.1.4 0 .6-.3.6M1438.2 446.1v9.6M1445.2 446.1v9.6M1452.3 446.1v9.6M1459.3 446.1v9.6M1444.2 471.9c0 2.7-2.2 4.8-4.8 4.8-2.7 0-4.8-2.2-4.8-4.8 0-2.7 2.2-4.8 4.8-4.8 2.6 0 4.8 2.1 4.8 4.8M1465.4 471.9c0 2.7-2.2 4.8-4.8 4.8-2.7 0-4.8-2.2-4.8-4.8 0-2.7 2.2-4.8 4.8-4.8 2.6 0 4.8 2.1 4.8 4.8"/>
  </g>
</svg>
