<svg version="1.1" id="Layer_1" xmlns="http://www.w3.org/2000/svg" x="0" y="0" viewBox="0 0 1476.3 615" xml:space="preserve">
  <style>
    .st0{fill:none;stroke:gray;stroke-linecap:round;stroke-linejoin:round;stroke-miterlimit:10;stroke-opacity:.5}.st0,.st1{opacity:.5;enable-background:new}.st2{opacity:.35;fill:none;stroke:gray;stroke-linecap:round;stroke-linejoin:round;stroke-miterlimit:10}
  </style>
  <path class="st0" d="M35.4 461.4l57.9 57.9-57.9 57.9M.1 489.6l28.2-28.2M28.3 577.2L.1 549"/>
  <path class="st0" d="M31.9 585.8c-2.8 0-5-2.3-5-5 0-2.8 2.3-5 5-5s5 2.3 5 5c0 2.8-2.3 5-5 5zM31.9 462.9c-2.8 0-5-2.3-5-5s2.3-5 5-5 5 2.3 5 5-2.3 5-5 5zM.1 366.7l28.2-28.3M28.3 454.3L0 425.9"/>
  <path class="st0" d="M35.4 338.4l57.9 58-57.9 57.9M35.4 215.5l57.9 57.9-57.9 57.9M.1 243.7l28.2-28.2M28.3 331.3L0 303"/>
  <path class="st0" d="M31.9 339.9c-2.8 0-5-2.3-5-5s2.3-5 5-5 5 2.3 5 5-2.3 5-5 5zM.1 612.6l28.2-28.2M35.4 584.4L66 615M31.9 216.9c-2.8 0-5-2.3-5-5 0-2.8 2.3-5 5-5s5 2.3 5 5c0 2.8-2.3 5-5 5zM.1 120.8l28.2-28.3M28.3 208.4L.1 180.1"/>
  <path class="st0" d="M35.4 92.5l57.9 57.9-57.9 58M65.9.1l27.4 27.4-57.9 57.9M28.3 85.4L.1 57.1"/>
  <path class="st0" d="M31.9 94c-2.8 0-5-2.3-5-5 0-2.8 2.3-5 5-5s5 2.3 5 5-2.3 5-5 5zM158.4 461.4l57.9 57.9-57.9 57.9M108.8 503.9l42.5-42.5M151.3 577.2l-42.5-42.5"/>
  <path class="st0" d="M154.9 585.8c-2.8 0-5-2.3-5-5 0-2.8 2.3-5 5-5s5 2.3 5 5c0 2.8-2.3 5-5 5zM154.9 462.9c-2.8 0-5-2.3-5-5s2.3-5 5-5 5 2.3 5 5-2.3 5-5 5zM108.8 381l42.5-42.6M151.3 454.3l-42.5-42.5"/>
  <path class="st0" d="M158.4 338.4l57.9 58-57.9 57.9M158.4 215.5l57.9 57.9-57.9 57.9M108.8 258l42.5-42.5M151.3 331.3l-42.5-42.5"/>
  <path class="st0" d="M154.9 339.9c-2.8 0-5-2.3-5-5s2.3-5 5-5 5 2.3 5 5-2.3 5-5 5zM120.7 615l30.6-30.6M158.4 584.4L189 615M154.9 216.9c-2.8 0-5-2.3-5-5 0-2.8 2.3-5 5-5s5 2.3 5 5c0 2.8-2.3 5-5 5zM108.8 135l42.5-42.5M151.3 208.4l-42.5-42.6"/>
  <path class="st0" d="M158.4 92.5l57.9 57.9-57.9 58M189 .2l27.3 27.3-57.9 57.9M108.7 12.1l12-11.9M151.3 85.4l-42.5-42.5"/>
  <path class="st0" d="M154.9 94c-2.8 0-5-2.3-5-5 0-2.8 2.3-5 5-5s5 2.3 5 5-2.3 5-5 5zM281.4 461.4l57.9 57.9-57.9 57.9M231.7 503.9l42.5-42.5M274.2 577.2l-42.5-42.5"/>
  <path class="st0" d="M277.8 585.8c-2.8 0-5-2.3-5-5 0-2.8 2.3-5 5-5 2.8 0 5 2.3 5 5 0 2.8-2.2 5-5 5zM277.8 462.9c-2.8 0-5-2.3-5-5s2.3-5 5-5c2.8 0 5 2.3 5 5s-2.2 5-5 5zM231.7 381l42.6-42.6M274.2 454.3l-42.5-42.5"/>
  <path class="st0" d="M281.3 338.4l58 58-57.9 57.9M281.4 215.5l57.9 57.9-57.9 57.9M231.7 258l42.5-42.5M274.2 331.3l-42.5-42.5"/>
  <path class="st0" d="M277.8 339.9c-2.8 0-5-2.3-5-5s2.3-5 5-5c2.8 0 5 2.3 5 5s-2.2 5-5 5zM243.6 615l30.7-30.6M281.3 584.4L312 615M277.8 216.9c-2.8 0-5-2.3-5-5 0-2.8 2.3-5 5-5 2.8 0 5 2.3 5 5 0 2.8-2.2 5-5 5zM231.7 135l42.6-42.5M274.2 208.4l-42.5-42.6"/>
  <path class="st0" d="M281.3 92.5l58 57.9-57.9 58M312 .2l27.3 27.3-57.9 57.9M231.7 12.1L243.6.2M274.2 85.4l-42.5-42.5"/>
  <path class="st0" d="M277.8 94c-2.8 0-5-2.3-5-5 0-2.8 2.3-5 5-5 2.8 0 5 2.3 5 5s-2.2 5-5 5zM404.3 461.4l58 57.9-57.9 57.9M354.7 503.9l42.5-42.5M397.2 577.2l-42.5-42.5"/>
  <path class="st0" d="M400.8 585.8c-2.8 0-5-2.3-5-5 0-2.8 2.3-5 5-5 2.8 0 5 2.3 5 5 0 2.8-2.2 5-5 5zM400.8 462.9c-2.8 0-5-2.3-5-5s2.3-5 5-5c2.8 0 5 2.3 5 5s-2.2 5-5 5zM354.7 381l42.6-42.6M397.2 454.3l-42.5-42.5"/>
  <path class="st0" d="M404.3 338.4l58 58-58 57.9M404.3 215.5l58 57.9-57.9 57.9M354.7 258l42.5-42.5M397.2 331.3l-42.5-42.5"/>
  <path class="st0" d="M400.8 339.9c-2.8 0-5-2.3-5-5s2.3-5 5-5c2.8 0 5 2.3 5 5s-2.2 5-5 5zM366.6 615l30.7-30.6M404.3 584.4L435 615M400.8 216.9c-2.8 0-5-2.3-5-5 0-2.8 2.3-5 5-5 2.8 0 5 2.3 5 5 0 2.8-2.2 5-5 5zM354.7 135l42.6-42.5M397.2 208.4l-42.5-42.6"/>
  <path class="st0" d="M404.3 92.5l58 57.9-58 58M434.9.1l27.4 27.4-57.9 57.9M354.7 12.1L366.6.2M397.2 85.4l-42.5-42.5"/>
  <path class="st0" d="M400.8 94c-2.8 0-5-2.3-5-5 0-2.8 2.3-5 5-5 2.8 0 5 2.3 5 5s-2.2 5-5 5zM527.3 461.4l57.9 57.9-57.9 57.9M477.7 503.9l42.5-42.5M520.2 577.2l-42.5-42.5"/>
  <path class="st0" d="M523.7 585.8c-2.8 0-5-2.3-5-5 0-2.8 2.3-5 5-5 2.8 0 5 2.3 5 5 .1 2.8-2.2 5-5 5zM523.7 462.9c-2.8 0-5-2.3-5-5s2.3-5 5-5c2.8 0 5 2.3 5 5s-2.2 5-5 5zM477.7 381l42.5-42.6M520.2 454.3l-42.5-42.5"/>
  <path class="st0" d="M527.3 338.4l57.9 58-57.9 57.9M527.3 215.5l57.9 57.9-57.9 57.9M477.7 258l42.5-42.5M520.2 331.3l-42.5-42.5"/>
  <path class="st0" d="M523.7 339.9c-2.8 0-5-2.3-5-5s2.3-5 5-5c2.8 0 5 2.3 5 5s-2.2 5-5 5zM489.6 615l30.6-30.6M527.3 584.4l30.6 30.6M523.7 216.9c-2.8 0-5-2.3-5-5 0-2.8 2.3-5 5-5 2.8 0 5 2.3 5 5 .1 2.8-2.2 5-5 5zM477.7 135l42.5-42.5M520.2 208.4l-42.5-42.6"/>
  <path class="st0" d="M527.3 92.5l57.9 57.9-57.9 58M557.9.2l27.3 27.3-57.9 57.9M477.6 12.1L489.5.2M520.2 85.4l-42.5-42.5"/>
  <path class="st0" d="M523.7 94c-2.8 0-5-2.3-5-5 0-2.8 2.3-5 5-5 2.8 0 5 2.3 5 5 .1 2.7-2.2 5-5 5zM650.3 461.4l57.9 57.9-57.9 57.9M600.7 503.9l42.5-42.5M643.2 577.2l-42.5-42.5"/>
  <path class="st0" d="M646.7 585.8c-2.8 0-5-2.3-5-5 0-2.8 2.3-5 5-5 2.8 0 5 2.3 5 5 .1 2.8-2.2 5-5 5zM646.7 462.9c-2.8 0-5-2.3-5-5s2.3-5 5-5c2.8 0 5 2.3 5 5s-2.2 5-5 5zM600.7 381l42.5-42.6M643.2 454.3l-42.5-42.5"/>
  <path class="st0" d="M650.3 338.4l57.9 58-57.9 57.9M650.3 215.5l57.9 57.9-57.9 57.9M600.7 258l42.5-42.5M643.2 331.3l-42.5-42.5"/>
  <path class="st0" d="M646.7 339.9c-2.8 0-5-2.3-5-5s2.3-5 5-5c2.8 0 5 2.3 5 5s-2.2 5-5 5zM612.6 615l30.6-30.6M650.3 584.4l30.6 30.6M646.7 216.9c-2.8 0-5-2.3-5-5 0-2.8 2.3-5 5-5 2.8 0 5 2.3 5 5 .1 2.8-2.2 5-5 5zM600.7 135l42.5-42.5M643.2 208.4l-42.5-42.6"/>
  <path class="st0" d="M650.3 92.5l57.9 57.9-57.9 58M680.9.2l27.3 27.3-57.9 57.9M600.6 12.1L612.5.2M643.2 85.4l-42.5-42.5"/>
  <path class="st0" d="M646.7 94c-2.8 0-5-2.3-5-5 0-2.8 2.3-5 5-5 2.8 0 5 2.3 5 5 .1 2.7-2.2 5-5 5zM773.3 461.4l57.9 57.9-57.9 57.9M723.7 503.9l42.5-42.5M766.2 577.2l-42.5-42.5"/>
  <path class="st0" d="M769.7 585.8c-2.8 0-5-2.3-5-5 0-2.8 2.3-5 5-5 2.8 0 5 2.3 5 5 .1 2.8-2.2 5-5 5zM769.7 462.9c-2.8 0-5-2.3-5-5s2.3-5 5-5c2.8 0 5 2.3 5 5s-2.2 5-5 5zM723.7 381l42.5-42.6M766.2 454.3l-42.5-42.5"/>
  <path class="st0" d="M773.3 338.4l57.9 58-57.9 57.9M773.3 215.5l57.9 57.9-57.9 57.9M723.7 258l42.5-42.5M766.2 331.3l-42.5-42.5"/>
  <path class="st0" d="M769.7 339.9c-2.8 0-5-2.3-5-5s2.3-5 5-5c2.8 0 5 2.3 5 5s-2.2 5-5 5zM735.6 615l30.6-30.6M773.3 584.4l30.6 30.6M769.7 216.9c-2.8 0-5-2.3-5-5 0-2.8 2.3-5 5-5 2.8 0 5 2.3 5 5 .1 2.8-2.2 5-5 5zM723.7 135l42.5-42.5M766.2 208.4l-42.5-42.6"/>
  <path class="st0" d="M773.3 92.5l57.9 57.9-57.9 58M803.9.2l27.3 27.3-57.9 57.9M723.6 12.1L735.5.2M766.2 85.4l-42.5-42.5"/>
  <path class="st0" d="M769.7 94c-2.8 0-5-2.3-5-5 0-2.8 2.3-5 5-5 2.8 0 5 2.3 5 5 .1 2.7-2.2 5-5 5zM896.3 461.4l57.9 57.9-57.9 57.9M846.7 503.9l42.5-42.5M889.2 577.2l-42.5-42.5"/>
  <path class="st0" d="M892.7 585.8c-2.8 0-5-2.3-5-5 0-2.8 2.3-5 5-5 2.8 0 5 2.3 5 5 .1 2.8-2.2 5-5 5zM892.7 462.9c-2.8 0-5-2.3-5-5s2.3-5 5-5c2.8 0 5 2.3 5 5s-2.2 5-5 5zM846.7 381l42.5-42.6M889.2 454.3l-42.5-42.5"/>
  <path class="st0" d="M896.3 338.4l57.9 58-57.9 57.9M896.3 215.5l57.9 57.9-57.9 57.9M846.7 258l42.5-42.5M889.2 331.3l-42.5-42.5"/>
  <path class="st0" d="M892.7 339.9c-2.8 0-5-2.3-5-5s2.3-5 5-5c2.8 0 5 2.3 5 5s-2.2 5-5 5zM858.5 615l30.7-30.6M896.3 584.4l30.6 30.6M892.7 216.9c-2.8 0-5-2.3-5-5 0-2.8 2.3-5 5-5 2.8 0 5 2.3 5 5 .1 2.8-2.2 5-5 5zM846.7 135l42.5-42.5M889.2 208.4l-42.5-42.6"/>
  <path class="st0" d="M896.3 92.5l57.9 57.9-57.9 58M926.9.2l27.3 27.3-57.9 57.9M846.6 12.1l12-12M889.2 85.4l-42.5-42.5"/>
  <path class="st0" d="M892.7 94c-2.8 0-5-2.3-5-5 0-2.8 2.3-5 5-5 2.8 0 5 2.3 5 5 .1 2.7-2.2 5-5 5zM1019.2 461.4l58 57.9-58 57.9M969.6 503.9l42.5-42.5M1012.1 577.2l-42.5-42.5"/>
  <path class="st0" d="M1015.7 585.8c-2.8 0-5-2.3-5-5 0-2.8 2.3-5 5-5 2.8 0 5 2.3 5 5 0 2.8-2.2 5-5 5zM1015.7 462.9c-2.8 0-5-2.3-5-5s2.3-5 5-5c2.8 0 5 2.3 5 5s-2.2 5-5 5zM969.6 381l42.5-42.6M1012.1 454.3l-42.5-42.5"/>
  <path class="st0" d="M1019.2 338.4l58 58-58 57.9M1019.2 215.5l58 57.9-58 57.9M969.6 258l42.5-42.5M1012.1 331.3l-42.5-42.5"/>
  <path class="st0" d="M1015.7 339.9c-2.8 0-5-2.3-5-5s2.3-5 5-5c2.8 0 5 2.3 5 5s-2.2 5-5 5zM981.5 615l30.6-30.6M1019.2 584.4l30.7 30.6M1015.7 216.9c-2.8 0-5-2.3-5-5 0-2.8 2.3-5 5-5 2.8 0 5 2.3 5 5 0 2.8-2.2 5-5 5zM969.6 135l42.5-42.5M1012.1 208.4l-42.5-42.6"/>
  <path class="st0" d="M1019.2 92.5l58 57.9-58 58M1049.9.2l27.3 27.3-58 57.9M969.5 12.1L981.4.3M1012.1 85.4l-42.5-42.5"/>
  <path class="st0" d="M1015.7 94c-2.8 0-5-2.3-5-5 0-2.8 2.3-5 5-5 2.8 0 5 2.3 5 5s-2.2 5-5 5zM1142.2 461.4l58 57.9-58 57.9M1092.6 503.9l42.5-42.5M1135.1 577.2l-42.5-42.5"/>
  <path class="st0" d="M1138.7 585.8c-2.8 0-5-2.3-5-5 0-2.8 2.3-5 5-5 2.8 0 5 2.3 5 5 0 2.8-2.3 5-5 5zM1138.7 462.9c-2.8 0-5-2.3-5-5s2.3-5 5-5c2.8 0 5 2.3 5 5s-2.3 5-5 5zM1092.6 381l42.5-42.6M1135.1 454.3l-42.5-42.5"/>
  <path class="st0" d="M1142.2 338.4l58 58-58 57.9M1142.2 215.5l58 57.9-58 57.9M1092.6 258l42.5-42.5M1135.1 331.3l-42.5-42.5"/>
  <path class="st0" d="M1138.7 339.9c-2.8 0-5-2.3-5-5s2.3-5 5-5c2.8 0 5 2.3 5 5s-2.3 5-5 5zM1104.5 615l30.6-30.6M1142.2 584.4l30.7 30.6M1138.7 216.9c-2.8 0-5-2.3-5-5 0-2.8 2.3-5 5-5 2.8 0 5 2.3 5 5 0 2.8-2.3 5-5 5zM1092.6 135l42.5-42.5M1135.1 208.4l-42.5-42.6"/>
  <path class="st0" d="M1142.2 92.5l58 57.9-58 58M1172.9.2l27.3 27.3-58 57.9M1092.5 12.1l12-11.9M1135.1 85.4l-42.5-42.5"/>
  <path class="st0" d="M1138.7 94c-2.8 0-5-2.3-5-5 0-2.8 2.3-5 5-5 2.8 0 5 2.3 5 5s-2.3 5-5 5zM1265.2 461.4l57.9 57.9-57.9 57.9M1215.6 503.9l42.5-42.5M1258.1 577.2l-42.5-42.5"/>
  <path class="st0" d="M1261.6 585.8c-2.8 0-5-2.3-5-5 0-2.8 2.3-5 5-5 2.8 0 5 2.3 5 5 .1 2.8-2.2 5-5 5zM1261.6 462.9c-2.8 0-5-2.3-5-5s2.3-5 5-5c2.8 0 5 2.3 5 5s-2.2 5-5 5zM1215.6 381l42.5-42.6M1258.1 454.3l-42.5-42.5"/>
  <path class="st0" d="M1265.2 338.4l57.9 58-57.9 57.9M1265.2 215.5l57.9 57.9-57.9 57.9M1215.6 258l42.5-42.5M1258.1 331.3l-42.5-42.5"/>
  <path class="st0" d="M1261.6 339.9c-2.8 0-5-2.3-5-5s2.3-5 5-5c2.8 0 5 2.3 5 5s-2.2 5-5 5zM1227.4 615l30.7-30.6M1265.2 584.4l30.6 30.6M1261.6 216.9c-2.8 0-5-2.3-5-5 0-2.8 2.3-5 5-5 2.8 0 5 2.3 5 5 .1 2.8-2.2 5-5 5zM1215.6 135l42.5-42.5M1258.1 208.4l-42.5-42.6"/>
  <path class="st0" d="M1265.2 92.5l57.9 57.9-57.9 58M1295.8.2l27.3 27.3-57.9 57.9M1215.5 12.1L1227.4.2M1258.1 85.4l-42.5-42.5"/>
  <path class="st0" d="M1261.6 94c-2.8 0-5-2.3-5-5 0-2.8 2.3-5 5-5 2.8 0 5 2.3 5 5 .1 2.7-2.2 5-5 5zM1388.2 461.4l57.9 57.9-57.9 57.9M1338.6 503.9l42.5-42.5M1381.1 577.2l-42.5-42.5"/>
  <path class="st0" d="M1384.6 585.8c-2.8 0-5-2.3-5-5 0-2.8 2.3-5 5-5 2.8 0 5 2.3 5 5 .1 2.8-2.2 5-5 5zM1384.6 462.9c-2.8 0-5-2.3-5-5s2.3-5 5-5c2.8 0 5 2.3 5 5s-2.2 5-5 5zM1338.6 381l42.5-42.6M1381.1 454.3l-42.5-42.5"/>
  <path class="st0" d="M1388.2 338.4l57.9 58-57.9 57.9M1388.2 215.5l57.9 57.9-57.9 57.9M1338.6 258l42.5-42.5M1381.1 331.3l-42.5-42.5"/>
  <path class="st0" d="M1384.6 339.9c-2.8 0-5-2.3-5-5s2.3-5 5-5c2.8 0 5 2.3 5 5s-2.2 5-5 5zM1350.4 615l30.7-30.6M1388.2 584.4l30.6 30.6M1384.6 216.9c-2.8 0-5-2.3-5-5 0-2.8 2.3-5 5-5 2.8 0 5 2.3 5 5 .1 2.8-2.2 5-5 5zM1338.6 135l42.5-42.5M1381.1 208.4l-42.5-42.6"/>
  <path class="st0" d="M1388.2 92.5l57.9 57.9-57.9 58M1418.8.2l27.3 27.3-57.9 57.9M1338.5 12.1L1350.4.2M1381.1 85.4l-42.5-42.5"/>
  <path class="st0" d="M1384.6 94c-2.8 0-5-2.3-5-5 0-2.8 2.3-5 5-5 2.8 0 5 2.3 5 5 .1 2.7-2.2 5-5 5z"/>
  <g class="st1">
    <path class="st2" d="M635.5 40.6H633c-.4 0-.7-.3-.7-.6l-.8-5M656.7 40.6h-12M621.8 7h8.9"/>
    <path class="st2" d="M667.5 30.6L632 35.8c-.2 0-.4-.2-.4-.5L628 11.6c0-.3.2-.5.5-.5h42.6c.3 0 .5.2.5.5L667.9 30c0 .3-.2.6-.4.6M638.9 17.2v9.6M645.9 17.2v9.6M653 17.2v9.6M660 17.2v9.6M644.9 43c0 2.7-2.2 4.8-4.8 4.8-2.7 0-4.8-2.2-4.8-4.8 0-2.7 2.2-4.8 4.8-4.8 2.6 0 4.8 2.2 4.8 4.8M666.1 43c0 2.7-2.2 4.8-4.8 4.8-2.7 0-4.8-2.2-4.8-4.8 0-2.7 2.2-4.8 4.8-4.8 2.6 0 4.8 2.2 4.8 4.8"/>
  </g>
  <g class="st1">
    <path class="st2" d="M451.1 225.1h-2.5c-.4 0-.7-.3-.7-.6l-.8-5M472.3 225.1h-12.1M437.4 191.5h8.9"/>
    <path class="st2" d="M483.1 215.1l-35.5 5.2c-.2 0-.4-.2-.4-.5l-3.7-23.7c0-.3.2-.5.5-.5h42.6c.3 0 .5.2.5.5l-3.7 18.4c.1.3-.1.6-.3.6M454.4 201.7v9.6M461.5 201.7v9.6M468.5 201.7v9.6M475.6 201.7v9.6M460.5 227.5c0 2.7-2.2 4.8-4.8 4.8-2.7 0-4.8-2.2-4.8-4.8 0-2.7 2.2-4.8 4.8-4.8 2.6 0 4.8 2.1 4.8 4.8M481.6 227.5c0 2.7-2.2 4.8-4.8 4.8-2.7 0-4.8-2.2-4.8-4.8 0-2.7 2.2-4.8 4.8-4.8 2.7 0 4.8 2.1 4.8 4.8"/>
  </g>
  <g class="st1">
    <path class="st2" d="M881.6 163.6h-2.5c-.4 0-.7-.3-.7-.6l-.8-5M902.7 163.6h-12M867.8 130h9"/>
    <path class="st2" d="M913.6 153.6l-35.5 5.2c-.2 0-.4-.2-.4-.5l-3.7-23.7c0-.3.2-.5.5-.5h42.6c.3 0 .5.2.5.5l-3.7 18.4c.1.3-.1.6-.3.6M884.9 140.2v9.7M892 140.2v9.7M899 140.2v9.7M906.1 140.2v9.7M890.9 166c0 2.7-2.2 4.8-4.8 4.8-2.7 0-4.8-2.2-4.8-4.8 0-2.7 2.2-4.8 4.8-4.8 2.7 0 4.8 2.2 4.8 4.8M912.1 166c0 2.7-2.2 4.8-4.8 4.8s-4.8-2.2-4.8-4.8c0-2.7 2.2-4.8 4.8-4.8s4.8 2.2 4.8 4.8"/>
  </g>
  <g class="st1">
    <path class="st2" d="M53.9 18.8c1.3 0 2.3 1 2.3 2.3v29c0 1.3-1 2.3-2.3 2.3h-44c-1.3 0-2.3-1-2.3-2.3v-29c0-1.3 1-2.3 2.3-2.3"/>
    <path class="st2" d="M53.9 18.8L31.9 35l-22-16.2M53.9 18.8l-22-16.2-22 16.2M24.9 30.4L8.7 51.2M38.8 30.4L55 51.2"/>
  </g>
  <g class="st1">
    <path class="st2" d="M668.7 141.7c1.3 0 2.3 1 2.3 2.3v29c0 1.3-1 2.3-2.3 2.3h-44c-1.3 0-2.3-1-2.3-2.3v-29c0-1.3 1-2.3 2.3-2.3"/>
    <path class="st2" d="M668.7 141.7l-22 16.3-22-16.3M668.7 141.7l-22-16.2-22 16.2M639.8 153.3l-16.2 20.9M653.7 153.3l16.2 20.9"/>
  </g>
  <g class="st1">
    <path class="st2" d="M361.3 80.2c1.3 0 2.3 1 2.3 2.3v29c0 1.3-1 2.3-2.3 2.3h-44c-1.3 0-2.3-1-2.3-2.3v-29c0-1.3 1-2.3 2.3-2.3"/>
    <path class="st2" d="M361.3 80.2l-22 16.3-22-16.3M361.3 80.2l-22-16.2-22 16.2M332.3 91.8l-16.2 20.9M346.2 91.8l16.2 20.9"/>
  </g>
  <g class="st1">
    <path class="st2" d="M238.3 203.2c1.3 0 2.3 1 2.3 2.3v29c0 1.3-1 2.3-2.3 2.3h-44c-1.3 0-2.3-1-2.3-2.3v-29c0-1.3 1-2.3 2.3-2.3"/>
    <path class="st2" d="M238.3 203.2l-22 16.2-22-16.2M238.3 203.2l-22-16.2-22 16.2M209.4 214.8l-16.2 20.8M223.3 214.8l16.2 20.8"/>
  </g>
  <path class="st0" d="M376.2 19.4c0-11.3 6-13.4 13.4-13.4 4.7 0 8.8 2.4 11.2 6 2.4-3.6 6.5-6 11.2-6 7.4 0 13.4 2.7 13.4 13.4 0 10.8-24.6 29.7-24.6 29.7s-24.6-18.3-24.6-29.7zM7.2 142.3c0-11.3 6-13.4 13.4-13.4 4.7 0 8.8 2.4 11.2 6 2.4-3.6 6.5-6 11.2-6 7.4 0 13.4 2.7 13.4 13.4 0 10.8-24.6 29.7-24.6 29.7S7.2 153.7 7.2 142.3zM929.6 80.9c0-11.3 6-13.4 13.4-13.4 4.7 0 8.8 2.4 11.2 6 2.4-3.6 6.5-6 11.2-6 7.4 0 13.4 2.7 13.4 13.4 0 10.8-24.6 29.7-24.6 29.7s-24.6-18.4-24.6-29.7z"/>
  <g class="st1">
    <path class="st2" d="M1031.9 32.8c0 1.1-.9 2.1-2.1 2.1-1.1 0-2.1-.9-2.1-2.1 0-1.1.9-2.1 2.1-2.1 1.2 0 2.1.9 2.1 2.1z"/>
    <circle class="st2" cx="1015.7" cy="50.4" r="2.1"/>
    <path class="st2" d="M1040.4 39.3c0 1.3-1.2 2.4-2.6 2.4h-44.2c-1.4 0-2.6-1.1-2.6-2.4V26.2c0-1.3 1.2-2.4 2.6-2.4h44.2c1.4 0 2.6 1.1 2.6 2.4v13.1zM1031.9 11.4c0 1.1-.9 2.1-2.1 2.1-1.1 0-2.1-.9-2.1-2.1s.9-2.1 2.1-2.1c1.2 0 2.1 1 2.1 2.1z"/>
    <path class="st2" d="M1040.4 18c0 1.3-1.2 2.4-2.6 2.4h-44.2c-1.4 0-2.6-1.1-2.6-2.4V4.8c0-1.3 1.2-2.4 2.6-2.4h44.2c1.4 0 2.6 1.1 2.6 2.4V18zM1015.7 44.7v3.5M999.4 50.4h14.2M1017.8 50.4h14.2"/>
  </g>
  <g class="st1">
    <path class="st2" d="M1278 155.7c0 1.1-.9 2.1-2.1 2.1-1.1 0-2.1-.9-2.1-2.1s.9-2.1 2.1-2.1c1.2.1 2.1 1 2.1 2.1z"/>
    <circle class="st2" cx="1261.8" cy="173.4" r="2.1"/>
    <path class="st2" d="M1286.5 162.3c0 1.3-1.2 2.4-2.6 2.4h-44.2c-1.4 0-2.6-1.1-2.6-2.4v-13.1c0-1.3 1.2-2.4 2.6-2.4h44.2c1.4 0 2.6 1.1 2.6 2.4v13.1zM1278 134.4c0 1.1-.9 2.1-2.1 2.1-1.1 0-2.1-.9-2.1-2.1s.9-2.1 2.1-2.1c1.2 0 2.1.9 2.1 2.1z"/>
    <path class="st2" d="M1286.5 140.9c0 1.3-1.2 2.4-2.6 2.4h-44.2c-1.4 0-2.6-1.1-2.6-2.4v-13.1c0-1.3 1.2-2.4 2.6-2.4h44.2c1.4 0 2.6 1.1 2.6 2.4v13.1zM1261.8 167.6v3.6M1245.5 173.4h14.2M1263.9 173.4h14.2"/>
  </g>
  <g class="st1">
    <path class="st2" d="M749 50.8c0 1.1-.9 2.1-2.1 2.1-1.1 0-2.1-.9-2.1-2.1 0-1.1.9-2.1 2.1-2.1 1.2.1 2.1 1 2.1 2.1zM769.7 27.1v5.5M769.7 40.5v8.2M767 14.3h-2.8M775.2 14.3h-2.7"/>
    <circle class="st2" cx="769.7" cy="13" r="11"/>
    <path class="st2" d="M783.1 31.9v4.9h-26.8v-4.9c0-2.7 2.2-4.9 4.9-4.9h17c2.7.1 4.9 2.3 4.9 4.9zM760 8.7l16.8-4.1M748.4 49.4l8.6-8.6M790.3 50.8c0 1.1.9 2.1 2.1 2.1 1.2 0 2.1-.9 2.1-2.1 0-1.1-.9-2.1-2.1-2.1-1.2.1-2.1 1-2.1 2.1zM767.6 50.8c0 1.1.9 2.1 2.1 2.1 1.1 0 2.1-.9 2.1-2.1 0-1.1-.9-2.1-2.1-2.1-1.1.1-2.1 1-2.1 2.1zM790.9 49.4l-8.7-8.6"/>
  </g>
  <g class="st1">
    <path class="st2" d="M1056.2 235.1c0 1.1-.9 2.1-2.1 2.1-1.1 0-2.1-.9-2.1-2.1 0-1.1.9-2.1 2.1-2.1 1.2 0 2.1 1 2.1 2.1zM1077 211.4v5.4M1077 224.8v8.2M1074.2 198.6h-2.7M1082.4 198.6h-2.7"/>
    <circle class="st2" cx="1077" cy="197.3" r="11"/>
    <path class="st2" d="M1090.4 216.2v4.9h-26.8v-4.9c0-2.7 2.2-4.9 4.9-4.9h17c2.7.1 4.9 2.2 4.9 4.9zM1067.2 192.9l16.9-4M1055.6 233.6l8.6-8.5M1097.5 235.1c0 1.1.9 2.1 2.1 2.1 1.2 0 2.1-.9 2.1-2.1 0-1.1-.9-2.1-2.1-2.1-1.1 0-2.1 1-2.1 2.1zM1074.9 235.1c0 1.1.9 2.1 2.1 2.1 1.1 0 2.1-.9 2.1-2.1 0-1.1-.9-2.1-2.1-2.1-1.2 0-2.1 1-2.1 2.1zM1098.1 233.6l-8.7-8.5"/>
  </g>
  <g class="st1">
    <path class="st2" d="M257.1 173.8c0 1.1-.9 2.1-2.1 2.1-1.1 0-2.1-.9-2.1-2.1 0-1.1.9-2.1 2.1-2.1 1.2 0 2.1.9 2.1 2.1zM277.8 150v5.5M277.8 163.5v8.2M275.1 137.3h-2.7M283.3 137.3h-2.7"/>
    <circle class="st2" cx="277.8" cy="136" r="11"/>
    <path class="st2" d="M291.2 154.9v4.9h-26.8v-4.9c0-2.7 2.2-4.9 4.9-4.9h17c2.7 0 4.9 2.2 4.9 4.9zM268.1 131.6l16.8-4M256.5 172.3l8.6-8.5M298.4 173.8c0 1.1.9 2.1 2.1 2.1 1.2 0 2.1-.9 2.1-2.1 0-1.1-.9-2.1-2.1-2.1-1.1 0-2.1.9-2.1 2.1zM275.8 173.8c0 1.1.9 2.1 2.1 2.1 1.1 0 2.1-.9 2.1-2.1 0-1.1-.9-2.1-2.1-2.1-1.2 0-2.1.9-2.1 2.1zM299 172.3l-8.7-8.5"/>
  </g>
  <g class="st1">
    <path class="st2" d="M441.7 112.3c0 1.1-.9 2.1-2.1 2.1-1.1 0-2.1-.9-2.1-2.1 0-1.1.9-2.1 2.1-2.1 1.2.1 2.1 1 2.1 2.1zM462.4 88.6v5.5M462.4 102v8.2M459.7 75.8H457M467.9 75.8h-2.7"/>
    <circle class="st2" cx="462.4" cy="74.5" r="11"/>
    <path class="st2" d="M475.8 93.5v4.9H449v-4.9c0-2.7 2.2-4.9 4.9-4.9h17c2.8 0 4.9 2.2 4.9 4.9zM452.7 70.2l16.8-4.1M441.1 110.9l8.6-8.6M483 112.3c0 1.1.9 2.1 2.1 2.1 1.2 0 2.1-.9 2.1-2.1 0-1.1-.9-2.1-2.1-2.1-1.1.1-2.1 1-2.1 2.1zM460.4 112.3c0 1.1.9 2.1 2.1 2.1 1.1 0 2.1-.9 2.1-2.1 0-1.1-.9-2.1-2.1-2.1-1.2.1-2.1 1-2.1 2.1zM483.6 110.9l-8.7-8.6"/>
  </g>
  <g class="st1">
    <path class="st2" d="M899.9 42.1c0 1.1-.9 2.1-2.1 2.1-1.1 0-2.1-.9-2.1-2.1 0-1.1.9-2.1 2.1-2.1 1.2.1 2.1 1 2.1 2.1zM908.8 42.1c0 1.1-.9 2.1-2.1 2.1-1.1 0-2.1-.9-2.1-2.1 0-1.1.9-2.1 2.1-2.1 1.2.1 2.1 1 2.1 2.1zM899.9 25.4c0 1.1-.9 2.1-2.1 2.1-1.1 0-2.1-.9-2.1-2.1 0-1.1.9-2.1 2.1-2.1 1.2 0 2.1 1 2.1 2.1zM908.8 25.4c0 1.1-.9 2.1-2.1 2.1-1.1 0-2.1-.9-2.1-2.1 0-1.1.9-2.1 2.1-2.1 1.2 0 2.1 1 2.1 2.1zM899.9 8.7c0 1.1-.9 2.1-2.1 2.1-1.1 0-2.1-.9-2.1-2.1 0-1.1.9-2.1 2.1-2.1 1.2 0 2.1.9 2.1 2.1zM908.8 8.7c0 1.1-.9 2.1-2.1 2.1-1.1 0-2.1-.9-2.1-2.1 0-1.1.9-2.1 2.1-2.1 1.2 0 2.1.9 2.1 2.1z"/>
    <path class="st2" d="M915.5 2.9c0-1.2-1.1-2.2-2.4-2.2h-40.8c-1.3 0-2.4 1-2.4 2.2v45c0 1.2 1.1 2.2 2.4 2.2h40.8c1.3 0 2.4-1 2.4-2.2v-45zM875.5 17.4h34.4M875.5 33.4h34.4M883.6 50.1v4.1h-6.8v-4.1M908.6 50.1v4.1h-6.9v-4.1"/>
  </g>
  <g class="st1">
    <path class="st2" d="M530.9 165.1c0 1.1-.9 2.1-2.1 2.1-1.1 0-2.1-.9-2.1-2.1 0-1.1.9-2.1 2.1-2.1 1.2 0 2.1 1 2.1 2.1zM539.9 165.1c0 1.1-.9 2.1-2.1 2.1-1.1 0-2.1-.9-2.1-2.1 0-1.1.9-2.1 2.1-2.1 1.2 0 2.1 1 2.1 2.1zM530.9 148.4c0 1.1-.9 2.1-2.1 2.1-1.1 0-2.1-.9-2.1-2.1 0-1.1.9-2.1 2.1-2.1 1.2 0 2.1.9 2.1 2.1zM539.9 148.4c0 1.1-.9 2.1-2.1 2.1-1.1 0-2.1-.9-2.1-2.1 0-1.1.9-2.1 2.1-2.1 1.2 0 2.1.9 2.1 2.1zM530.9 131.6c0 1.1-.9 2.1-2.1 2.1-1.1 0-2.1-.9-2.1-2.1 0-1.1.9-2.1 2.1-2.1 1.2.1 2.1 1 2.1 2.1zM539.9 131.6c0 1.1-.9 2.1-2.1 2.1-1.1 0-2.1-.9-2.1-2.1 0-1.1.9-2.1 2.1-2.1 1.2.1 2.1 1 2.1 2.1z"/>
    <path class="st2" d="M546.5 125.8c0-1.2-1.1-2.2-2.4-2.2h-40.8c-1.3 0-2.4 1-2.4 2.2v45c0 1.2 1.1 2.2 2.4 2.2h40.8c1.3 0 2.4-1 2.4-2.2v-45zM506.6 140.4h34.3M506.6 156.4h34.3M514.7 173.1v4.1h-6.9v-4.1M539.7 173.1v4.1h-6.9v-4.1"/>
  </g>
  <g class="st1">
    <path class="st2" d="M1207.3 103.6c0 1.1-.9 2.1-2.1 2.1-1.1 0-2.1-.9-2.1-2.1 0-1.1.9-2.1 2.1-2.1 1.2.1 2.1 1 2.1 2.1zM1216.3 103.6c0 1.1-.9 2.1-2.1 2.1-1.1 0-2.1-.9-2.1-2.1 0-1.1.9-2.1 2.1-2.1 1.2.1 2.1 1 2.1 2.1zM1207.3 86.9c0 1.1-.9 2.1-2.1 2.1-1.1 0-2.1-.9-2.1-2.1 0-1.1.9-2.1 2.1-2.1 1.2 0 2.1.9 2.1 2.1zM1216.3 86.9c0 1.1-.9 2.1-2.1 2.1-1.1 0-2.1-.9-2.1-2.1 0-1.1.9-2.1 2.1-2.1 1.2 0 2.1.9 2.1 2.1zM1207.3 70.2c0 1.1-.9 2.1-2.1 2.1-1.1 0-2.1-.9-2.1-2.1 0-1.1.9-2.1 2.1-2.1 1.2 0 2.1.9 2.1 2.1zM1216.3 70.2c0 1.1-.9 2.1-2.1 2.1-1.1 0-2.1-.9-2.1-2.1 0-1.1.9-2.1 2.1-2.1 1.2 0 2.1.9 2.1 2.1z"/>
    <path class="st2" d="M1222.9 64.4c0-1.2-1.1-2.2-2.4-2.2h-40.8c-1.3 0-2.4 1-2.4 2.2v45c0 1.2 1.1 2.2 2.4 2.2h40.8c1.3 0 2.4-1 2.4-2.2v-45zM1183 78.9h34.3M1183 94.9h34.3"/>
    <path class="st2" d="M1191.1 111.6v4.1h-6.9v-4.1M1216.1 111.6v4.1h-6.9v-4.1"/>
  </g>
  <g class="st1">
    <path class="st2" d="M523.9 3.2s-1.3 1.9-2.9 2.7c-1.6.9 0 2.1 0 2.1l-2.4 2.4-3.3 1.9-3.9-.4.4-2.4 2.1-1.3.3-1.9-.2-1.1M507.3 9.6v6.3l-.7.4-.7 6.7s-2.6 1-2.9 1l-3.5 1.5M500 32.8l3.4-1.4 2.6 2-.4.7 2.6 2.9h.7l2.6 1.4 1.1.6s-.1.7 0 1c.1.3-.9 1.7-.9 1.7v1.9l1.6 1.9.7.7 2.9 1.4 2.9 4M536.6 6.9c-.3-.1-3.1 3.8-3.1 3.8l.9 2.1-.6.4-2 1-2.4 1.3s-.9 2-1.6 2.6c-.7.6-2.3 1.9-2.3 1.9l-1.9 4.4-2.4 4.9.1 2.6 2.1 2.6 2.6-1.4 1.9.9.1 3 1.4 1.4s-.3.9-.4 1.1l-.9 1.9-.9.4.6 2.6 2.3 2.3s2-1.3 2.1-1.6c.1-.1 1.6-3.4 1.6-3.4l3.3-3.3 1.9-2.6 1.4-3.3-.7-2-1-1.1.7-1.1s1.7-1.6 1.9-1.1c.1.4.9 3.3.9 3.3l2.4-.7.1-.7L548 28"/>
    <path class="st2" d="M523.7 3.2C538 3.2 548 15 548 27.5c0 13.4-10.9 24.3-24.3 24.3s-24.3-10.9-24.3-24.3c.1-13.4 10.9-24.3 24.3-24.3z"/>
  </g>
  <g class="st1">
    <path class="st2" d="M339.5 187.8s-1.3 1.9-2.9 2.7c-1.6.9 0 2.1 0 2.1l-2.4 2.4-3.3 1.9-3.9-.4.4-2.4 2.1-1.3.3-1.9-.3-1.1M322.8 194.2v6.3l-.7.4-.7 6.7s-2.6 1-2.9 1l-3.5 1.5M315.6 217.3l3.4-1.4 2.6 2-.4.7 2.6 2.9h.7l2.6 1.4 1.1.6s-.1.7 0 1c.1.3-.9 1.7-.9 1.7v1.9l1.6 1.9.7.7 2.9 1.4 2.9 4M352.1 191.4c-.3-.1-3.1 3.8-3.1 3.8l.9 2.1-.6.4-2 1-2.4 1.3s-.9 2-1.6 2.6c-.7.6-2.3 1.9-2.3 1.9l-1.9 4.4-2.4 4.9.1 2.6 2.1 2.6 2.6-1.4 1.9.9.1 3 1.4 1.4s-.3.9-.4 1.1l-.9 1.9-.9.4.6 2.6 2.3 2.3s2-1.3 2.1-1.6c.1-.1 1.6-3.4 1.6-3.4l3.3-3.3 1.9-2.6 1.4-3.3-.7-2-1-1.1.7-1.1s1.7-1.6 1.9-1.1c.1.4.9 3.3.9 3.3l2.4-.7.1-.7 3.3-.8"/>
    <path class="st2" d="M339.3 187.8c14.2 0 24.3 11.8 24.3 24.3 0 13.4-10.9 24.3-24.3 24.3S315 225.5 315 212.1c0-13.5 10.9-24.3 24.3-24.3z"/>
  </g>
  <g class="st1">
    <path class="st2" d="M155 126.2s-1.3 1.9-2.9 2.7c-1.6.9 0 2.1 0 2.1l-2.4 2.4-3.3 1.9-3.9-.4.4-2.4 2.1-1.3.3-1.9-.3-1.1M138.4 132.5v6.3l-.7.4-.7 6.7s-2.6 1-2.9 1l-3.5 1.5M131.1 155.7l3.4-1.4 2.6 2-.4.7 2.6 2.9h.7l2.6 1.4 1.1.6s-.1.7 0 1c.1.3-.9 1.7-.9 1.7v1.9l1.6 1.9.7.7 2.9 1.4 2.9 4M167.6 129.8c-.3-.1-3.1 3.8-3.1 3.8l.9 2.1-.6.4-2 1-2.4 1.3s-.9 2-1.6 2.6c-.7.6-2.3 1.9-2.3 1.9l-1.9 4.4-2.4 4.9.1 2.6 2.1 2.6 2.6-1.4 1.9.9.1 3 1.4 1.4s-.3.9-.4 1.1l-.9 1.9-.9.4.6 2.6 2.3 2.3s2-1.3 2.1-1.6c.1-.1 1.6-3.4 1.6-3.4l3.3-3.3 1.9-2.6 1.4-3.3-.7-2-1-1.1.7-1.1s1.7-1.6 1.9-1.1c.1.4.9 3.3.9 3.3l2.4-.7.1-.7 3.3-.8"/>
    <path class="st2" d="M154.8 126.1c14.2 0 24.3 11.8 24.3 24.3 0 13.4-10.9 24.3-24.3 24.3s-24.3-10.9-24.3-24.3 10.9-24.3 24.3-24.3z"/>
  </g>
  <g class="st1">
    <path class="st2" d="M1077.4 64.7s-1.3 1.9-2.9 2.7c-1.6.9 0 2.1 0 2.1L1072 72l-3.3 1.9-3.9-.4.4-2.4 2.1-1.3.3-1.9-.3-1.1M1060.7 71.1v6.3l-.7.4-.7 6.7s-2.6 1-2.9 1L1053 87M1053.5 94.2l3.4-1.4 2.6 2-.4.7 2.6 2.9h.7l2.6 1.4 1.1.6s-.1.7 0 1c.1.3-.9 1.7-.9 1.7v1.9l1.6 1.9.7.7 2.9 1.4 2.9 4M1090 68.3c-.3-.1-3.1 3.8-3.1 3.8l.9 2.1-.6.4-2 1-2.4 1.3s-.9 2-1.6 2.6c-.7.6-2.3 1.9-2.3 1.9l-1.9 4.4-2.4 4.9.1 2.6 2.1 2.6 2.6-1.4 1.9.9.1 3 1.4 1.4s-.3.9-.4 1.1l-.9 1.9-.9.4.6 2.6 2.3 2.3s2-1.3 2.1-1.6c.1-.1 1.6-3.4 1.6-3.4l3.3-3.3 1.9-2.6 1.4-3.3-.7-2-1-1.1.7-1.1s1.7-1.6 1.9-1.1c.1.4.9 3.3.9 3.3l2.4-.7.1-.7 3.3-.8"/>
    <path class="st2" d="M1077.2 64.7c14.2 0 24.3 11.8 24.3 24.3 0 13.4-10.9 24.3-24.3 24.3s-24.3-10.9-24.3-24.3c0-13.5 10.8-24.3 24.3-24.3z"/>
  </g>
  <g class="st1">
    <path class="st2" d="M1151.2 21.1c0 .9-.7 1.7-1.7 1.7-.9 0-1.7-.7-1.7-1.7 0-.9.7-1.7 1.7-1.7 1 .1 1.7.8 1.7 1.7zM1151.2 34.5c0 .9-.7 1.7-1.7 1.7-.9 0-1.7-.7-1.7-1.7 0-.9.7-1.7 1.7-1.7 1 .1 1.7.8 1.7 1.7zM1158.7 8.7c0 3.6-8.9 6.6-19.9 6.6s-19.9-3-19.9-6.6c0-3.7 8.9-6.6 19.9-6.6s19.9 2.9 19.9 6.6z"/>
    <path class="st2" d="M1158.7 22c0 3.6-8.9 6.6-19.9 6.6s-19.9-3-19.9-6.6M1158.7 35.3c0 3.6-8.9 6.6-19.9 6.6s-19.9-3-19.9-6.6M1118.8 35.3V8.7M1158.7 35.3V8.7M1140.3 50.8c0 1.1-.9 2.1-2.1 2.1s-2.1-.9-2.1-2.1c0-1.1.9-2.1 2.1-2.1s2.1 1 2.1 2.1zM1138.2 44.6v4.2M1124.7 50.8h11.5M1140.3 50.8h11.5"/>
  </g>
  <g class="st1">
    <path class="st2" d="M782.2 142.2c0 .9-.7 1.7-1.7 1.7-.9 0-1.7-.7-1.7-1.7 0-.9.7-1.7 1.7-1.7.9.1 1.7.8 1.7 1.7zM782.2 155.6c0 .9-.7 1.7-1.7 1.7-.9 0-1.7-.7-1.7-1.7 0-.9.7-1.7 1.7-1.7.9.1 1.7.8 1.7 1.7zM789.6 129.8c0 3.6-8.9 6.6-19.9 6.6s-19.9-3-19.9-6.6c0-3.7 8.9-6.6 19.9-6.6s19.9 2.9 19.9 6.6z"/>
    <path class="st2" d="M789.6 143.1c0 3.6-8.9 6.6-19.9 6.6s-19.9-3-19.9-6.6M789.6 156.4c0 3.6-8.9 6.6-19.9 6.6s-19.9-3-19.9-6.6M749.7 156.4v-26.6M789.6 156.4v-26.6M771.3 171.9c0 1.1-.9 2.1-2.1 2.1s-2.1-.9-2.1-2.1c0-1.1.9-2.1 2.1-2.1s2.1 1 2.1 2.1zM769.2 165.7v4.2M755.6 171.9h11.5M771.3 171.9h11.5"/>
  </g>
  <g class="st1">
    <path class="st2" d="M597.7 205.6c0 .9-.7 1.7-1.7 1.7-.9 0-1.7-.7-1.7-1.7 0-.9.7-1.7 1.7-1.7s1.7.8 1.7 1.7zM597.7 219c0 .9-.7 1.7-1.7 1.7-.9 0-1.7-.7-1.7-1.7 0-.9.7-1.7 1.7-1.7s1.7.8 1.7 1.7zM605.2 193.1c0 3.6-8.9 6.6-19.9 6.6-11 0-19.9-3-19.9-6.6 0-3.7 8.9-6.6 19.9-6.6 10.9 0 19.9 3 19.9 6.6z"/>
    <path class="st2" d="M605.2 206.4c0 3.6-8.9 6.6-19.9 6.6-11 0-19.9-3-19.9-6.6M605.2 219.7c0 3.6-8.9 6.6-19.9 6.6-11 0-19.9-3-19.9-6.6M565.3 219.8v-26.7M605.2 219.8v-26.7M586.8 235.3c0 1.1-.9 2.1-2.1 2.1s-2.1-.9-2.1-2.1c0-1.1.9-2.1 2.1-2.1s2.1.9 2.1 2.1zM584.7 229.1v4.1M571.2 235.3h11.5M586.8 235.3h11.5"/>
  </g>
  <g class="st1">
    <path class="st2" d="M843.7 82.6c0 .9-.7 1.7-1.7 1.7-.9 0-1.7-.7-1.7-1.7 0-.9.7-1.7 1.7-1.7s1.7.8 1.7 1.7zM843.7 96c0 .9-.7 1.7-1.7 1.7-.9 0-1.7-.7-1.7-1.7 0-.9.7-1.7 1.7-1.7s1.7.8 1.7 1.7zM851.2 70.1c0 3.6-8.9 6.6-19.9 6.6s-19.9-3-19.9-6.6c0-3.7 8.9-6.6 19.9-6.6s19.9 3 19.9 6.6z"/>
    <path class="st2" d="M851.2 83.4c0 3.6-8.9 6.6-19.9 6.6s-19.9-3-19.9-6.6M851.2 96.8c0 3.6-8.9 6.6-19.9 6.6s-19.9-3-19.9-6.6M811.3 96.8V70.1M851.2 96.8V70.1M832.8 112.3c0 1.1-.9 2.1-2.1 2.1s-2.1-.9-2.1-2.1c0-1.1.9-2.1 2.1-2.1s2.1.9 2.1 2.1zM830.7 106.1v4.1M817.2 112.3h11.5M832.8 112.3h11.5"/>
  </g>
  <g class="st1">
    <path class="st2" d="M1402.8 33.4c0 1.1-.9 2.1-2.1 2.1-1.1 0-2.1-.9-2.1-2.1 0-1.1.9-2.1 2.1-2.1 1.2 0 2.1.9 2.1 2.1z"/>
    <path class="st2" d="M1409.3 38.7c0 1.1-.9 1.9-2.1 1.9h-35.8c-1.2 0-2.1-.9-2.1-1.9V28.1c0-1.1.9-1.9 2.1-1.9h35.8c1.2 0 2.1.9 2.1 1.9v10.6zM1373.1 16.5v-1.2c.6-6.7 6.6-12 13.5-12h-.2c7.3 0 13.2 5.9 13.2 13.2 0 3.8-1.6 7.2-4.2 9.6"/>
    <path class="st2" d="M1386.4 8.6c-4.1.1-7.7 3.3-8.1 7.2v.7M1369.1 11.2c-5.1 0-9.3 4.1-9.3 9.3 0 5.1 4.2 9.3 9.3 9.3M1391.7 49.5c0 1.1-.9 2.1-2.1 2.1-1.1 0-2.1-.9-2.1-2.1 0-1.1.9-2.1 2.1-2.1 1.2.1 2.1 1 2.1 2.1zM1389.6 43.4v4.1M1376.1 49.6h11.5M1391.7 49.6h11.5"/>
  </g>
  <g class="st1">
    <path class="st2" d="M1156.3 156.4c0 1.1-.9 2.1-2.1 2.1-1.1 0-2.1-.9-2.1-2.1 0-1.1.9-2.1 2.1-2.1 1.2 0 2.1.9 2.1 2.1z"/>
    <path class="st2" d="M1162.8 161.7c0 1.1-.9 1.9-2.1 1.9h-35.8c-1.2 0-2.1-.9-2.1-1.9V151c0-1.1.9-1.9 2.1-1.9h35.8c1.2 0 2.1.9 2.1 1.9v10.7zM1126.6 139.5v-1.2c.6-6.7 6.6-12 13.5-12h-.2c7.3 0 13.2 5.9 13.2 13.2 0 3.8-1.6 7.2-4.2 9.6"/>
    <path class="st2" d="M1139.9 131.6c-4.1.1-7.7 3.3-8.1 7.2v.7M1122.6 134.2c-5.1 0-9.3 4.1-9.3 9.3 0 5.1 4.2 9.3 9.3 9.3M1145.2 172.6c0 1.1-.9 2.1-2.1 2.1s-2.1-.9-2.1-2.1c0-1.1.9-2.1 2.1-2.1s2.1.9 2.1 2.1zM1143.1 166.4v4.1M1129.6 172.6h11.5M1145.2 172.6h11.5"/>
  </g>
  <g class="st1">
    <path class="st2" d="M90 87.9v-6.6H76.1v6.6M76.1 79H90V65.5l-13.9 1.9zM92.4 65.3V79h18.1V62.8zM110.5 87.9v-6.6H92.4v6.6M107.8 95.7c0 1.1-.9 2.1-2.1 2.1-1.1 0-2.1-.9-2.1-2.1 0-1.1.9-2.1 2.1-2.1 1.2.1 2.1 1 2.1 2.1z"/>
    <path class="st2" d="M115 101.5c0 1.1-1 2.1-2.3 2.1H74c-1.3 0-2.3-.9-2.3-2.1V90c0-1.1 1-2.1 2.3-2.1h38.7c1.3 0 2.3.9 2.3 2.1v11.5zM95.4 113.1c0 1.1-.9 2.1-2.1 2.1-1.1 0-2.1-.9-2.1-2.1 0-1.1.9-2.1 2.1-2.1 1.2 0 2.1.9 2.1 2.1zM93.3 106.9v4.1M79.8 113.1h11.5M95.4 113.1h11.5"/>
  </g>
  <g class="st1">
    <path class="st2" d="M177.6 22.3h-46.5c-.6 0-1.1.5-1.1 1.1v3.2c0 .6.5 1.1 1.1 1.1h2.2V51c0 .6.5 1.1 1.1 1.1h39.9c.6 0 1.1-.5 1.1-1.1V27.8h2.2c.6 0 1.1-.5 1.1-1.1v-3.2c0-.7-.5-1.2-1.1-1.2zM145 22.3l7-19.4M156.9 2.9l6.8 19.4M145 33.5v13.8"/>
    <g>
      <path class="st2" d="M163.7 33.5v13.8"/>
    </g>
  </g>
  <g class="st1">
    <path class="st2" d="M424 145.2h-46.5c-.6 0-1.1.5-1.1 1.1v3.2c0 .6.5 1.1 1.1 1.1h2.2v23.2c0 .6.5 1.1 1.1 1.1h39.9c.6 0 1.1-.5 1.1-1.1v-23.2h2.2c.6 0 1.1-.5 1.1-1.1v-3.2c0-.6-.5-1.1-1.1-1.1zM391.4 145.2l7-19.4M403.3 125.8l6.8 19.4M391.4 156.4v13.8"/>
    <g>
      <path class="st2" d="M410.1 156.4v13.8"/>
    </g>
  </g>
  <g class="st1">
    <path class="st2" d="M1346.4 83.7h-46.5c-.6 0-1.1.5-1.1 1.1V88c0 .6.5 1.1 1.1 1.1h2.2v23.2c0 .6.5 1.1 1.1 1.1h39.9c.6 0 1.1-.5 1.1-1.1v-23h2.2c.6 0 1.1-.5 1.1-1.1V85c0-.8-.5-1.3-1.1-1.3zM1313.8 83.7l6.9-19.3M1325.6 64.4l6.8 19.3M1313.8 95v13.7"/>
    <g>
      <path class="st2" d="M1332.4 95v13.7"/>
    </g>
  </g>
  <g class="st1">
    <path class="st2" d="M286.7 24.7c-5.1.1-10 4-10 9.9M265.1 28c-6.4 0-11.5 5.2-11.5 11.5 0 6.4 5.2 11.5 11.5 11.5h21.4c9.1 0 16.5-7.4 16.5-16.5S295.6 18 286.5 18h.2c-8.6 0-16.7 5.8-16.7 16.5"/>
    <circle class="st2" cx="265.5" cy="10.5" r="2.1"/>
    <path class="st2" d="M263.6 28c-.4-1-.7-2.1-.7-3.3 0-3.7 2.4-6.7 5.4-6.7 2.8 0 5 2.6 5.3 5.9"/>
    <circle class="st2" cx="271.1" cy="10.5" r="2.1"/>
    <path class="st2" d="M265.5 14.2l2.8 1.4 2.8-1.4"/>
    <path class="st2" d="M279.3 19.5c-2.2-3.2-4.3-6.5-4.3-8.7v-.3c0-3.7-3-6.7-6.7-6.7s-6.7 3-6.7 6.7v.3c0 4.7-10.2 15.1-9 17.4"/>
  </g>
  <g class="st1">
    <path class="st2" d="M594.2 86.2c-5.1.1-10 4-10 9.9M572.7 89.5c-6.4 0-11.5 5.2-11.5 11.5 0 6.4 5.2 11.5 11.5 11.5h21.4c9.1 0 16.5-7.4 16.5-16.5s-7.4-16.5-16.5-16.5h.2c-8.6 0-16.7 5.8-16.7 16.5"/>
    <circle class="st2" cx="573.1" cy="72" r="2.1"/>
    <path class="st2" d="M571.2 89.5c-.4-1-.7-2.1-.7-3.3 0-3.7 2.4-6.7 5.4-6.7 2.8 0 5 2.6 5.3 5.9"/>
    <circle class="st2" cx="578.7" cy="72" r="2.1"/>
    <path class="st2" d="M573.1 75.7l2.8 1.3 2.8-1.3"/>
    <path class="st2" d="M586.8 81c-2.2-3.2-4.3-6.5-4.3-8.7V72c0-3.7-3-6.7-6.7-6.7s-6.7 3-6.7 6.7v.3c0 4.7-10.2 15.1-9 17.4"/>
  </g>
  <g class="st1">
    <path class="st2" d="M1259.5 12c-1.9.2-3.7.6-5.4 1.2-3.1-3.7-7.2-5-12.5-3.6-.4.1-.8.5-.9.9-.1.4 0 .9.4 1.1 2.4 2.4 3.4 4.7 3.1 7.2-1.4 1.4-2.5 3.1-3.3 4.7h-1.3c-1.8 0-3.3 1.5-3.3 3.2v7.1c0 1.8 1.5 3.3 3.3 3.3h3.2c.6.8 1.4 1.5 2.2 2.3v8.3c0 1.8 1.4 3.3 3.3 3.3h3.4c1.8 0 3.3-1.4 3.3-3.3v-2.8c5.6 1.5 12.1 1.4 17.7-.3v3.2c0 1.8 1.4 3.3 3.3 3.3h3.3c1.9 0 3.4-1.5 3.4-3.4v-8.9c2.8-2.9 4.4-6.5 4.4-10 0-6.4-4.9-11.9-12.1-14.8"/>
    <circle class="st2" cx="1267.6" cy="9.3" r="5.5"/>
  </g>
  <g class="st1">
    <path class="st2" d="M1013.5 134.9c-1.9.2-3.7.6-5.4 1.2-3.1-3.7-7.2-5-12.5-3.6-.4.1-.8.5-.9.9-.1.4 0 .9.4 1.1 2.4 2.4 3.4 4.7 3.1 7.2-1.4 1.4-2.5 3.1-3.3 4.7h-1.3c-1.8 0-3.3 1.5-3.3 3.2v7.1c0 1.8 1.5 3.3 3.3 3.3h3.2c.6.8 1.4 1.5 2.2 2.3v8.3c0 1.8 1.4 3.3 3.3 3.3h3.4c1.8 0 3.3-1.4 3.3-3.3v-2.8c5.6 1.5 12.1 1.4 17.7-.3v3.2c0 1.8 1.4 3.3 3.3 3.3h3.3c1.9 0 3.4-1.5 3.4-3.4v-8.9c2.8-2.9 4.4-6.5 4.4-10 0-6.4-4.9-11.9-12.1-14.8"/>
    <circle class="st2" cx="1021.7" cy="132.3" r="5.5"/>
  </g>
  <g class="st1">
    <path class="st2" d="M706.2 73.4c-1.9.2-3.7.6-5.4 1.2-3.1-3.7-7.2-5-12.5-3.6-.4.1-.8.5-.9.9-.1.4 0 .9.4 1.1 2.4 2.4 3.4 4.7 3.1 7.2-1.4 1.4-2.5 3.1-3.3 4.7h-1.3c-1.8 0-3.3 1.5-3.3 3.2v7.1c0 1.8 1.5 3.3 3.3 3.3h3.2c.6.8 1.4 1.5 2.2 2.3v8.3c0 1.8 1.4 3.3 3.3 3.3h3.4c1.8 0 3.3-1.4 3.3-3.3v-2.8c5.6 1.5 12.1 1.4 17.7-.3v3.2c0 1.8 1.4 3.3 3.3 3.3h3.3c1.9 0 3.4-1.5 3.4-3.4v-8.9c2.8-2.9 4.4-6.5 4.4-10 0-6.4-4.9-11.9-12.1-14.8"/>
    <circle class="st2" cx="714.3" cy="70.8" r="5.5"/>
  </g>
  <g class="st1">
    <path class="st2" d="M216.3 72.4v5.7M198.2 84.9h36.3v28h-36.3zM216.3 84.9v28M198.6 98.9H234M207.1 78.1c-1.2-1-2-2.6-2-4.3 0-3.1 2.5-5.6 5.6-5.6 3.1 0 5.6 2.5 5.6 5.6M216.3 72.4c0-4.1 3-7.4 7.1-7.4s7.4 3.3 7.4 7.4c0 2-.8 3.9-2.2 5.2M194.3 78h44"/>
  </g>
  <g class="st1">
    <path class="st2" d="M1392.8 147.4c-5.1.1-10 4-10 9.9M1371.3 150.7c-6.4 0-11.5 5.2-11.5 11.5 0 6.4 5.2 11.5 11.5 11.5h21.4c9.1 0 16.5-7.4 16.5-16.5s-7.4-16.5-16.5-16.5h.2c-8.6 0-16.7 5.8-16.7 16.5"/>
    <circle class="st2" cx="1371.7" cy="133.2" r="2.1"/>
    <path class="st2" d="M1369.8 150.7c-.4-1-.7-2.1-.7-3.3 0-3.7 2.4-6.7 5.4-6.7 2.8 0 5 2.6 5.3 5.9"/>
    <circle class="st2" cx="1377.3" cy="133.2" r="2.1"/>
    <path class="st2" d="M1371.7 136.9l2.8 1.3 2.8-1.3"/>
    <path class="st2" d="M1385.4 142.2c-2.2-3.2-4.3-6.5-4.3-8.7v-.3c0-3.7-3-6.7-6.7-6.7s-6.7 3-6.7 6.7v.3c0 4.7-10.2 15.1-9 17.4"/>
  </g>
  <g class="st1">
    <path class="st2" d="M635.5 284.2H633c-.4 0-.7-.3-.7-.6l-.8-5M656.7 284.2h-12M621.8 250.6h8.9"/>
    <path class="st2" d="M667.5 274.2l-35.5 5.2c-.2 0-.4-.2-.4-.5l-3.7-23.7c0-.3.2-.5.5-.5H671c.3 0 .5.2.5.5l-3.7 18.4c.1.3-.1.6-.3.6M638.9 260.8v9.6M645.9 260.8v9.6M653 260.8v9.6M660 260.8v9.6M644.9 286.6c0 2.7-2.2 4.8-4.8 4.8-2.7 0-4.8-2.2-4.8-4.8 0-2.7 2.2-4.8 4.8-4.8 2.6 0 4.8 2.1 4.8 4.8M666.1 286.6c0 2.7-2.2 4.8-4.8 4.8-2.7 0-4.8-2.2-4.8-4.8 0-2.7 2.2-4.8 4.8-4.8 2.6 0 4.8 2.1 4.8 4.8"/>
  </g>
  <g class="st1">
    <path class="st2" d="M881.6 407.2h-2.5c-.4 0-.7-.3-.7-.6l-.8-5M902.7 407.2h-12M867.8 373.6h9"/>
    <path class="st2" d="M913.6 397.2l-35.5 5.2c-.2 0-.4-.2-.4-.5l-3.7-23.7c0-.3.2-.5.5-.5h42.6c.3 0 .5.2.5.5l-3.7 18.4c.1.3-.1.6-.3.6M884.9 383.8v9.6M892 383.8v9.6M899 383.8v9.6M906.1 383.8v9.6M890.9 409.6c0 2.7-2.2 4.8-4.8 4.8-2.7 0-4.8-2.2-4.8-4.8 0-2.7 2.2-4.8 4.8-4.8 2.7 0 4.8 2.1 4.8 4.8M912.1 409.6c0 2.7-2.2 4.8-4.8 4.8s-4.8-2.2-4.8-4.8c0-2.7 2.2-4.8 4.8-4.8s4.8 2.1 4.8 4.8"/>
  </g>
  <g class="st1">
    <path class="st2" d="M53.9 262.4c1.3 0 2.3 1 2.3 2.3v29c0 1.3-1 2.3-2.3 2.3h-44c-1.3 0-2.3-1-2.3-2.3v-29c0-1.3 1-2.3 2.3-2.3"/>
    <path class="st2" d="M53.9 262.4l-22 16.2-22-16.2M53.9 262.4l-22-16.2-22 16.2M24.9 274L8.7 294.8M38.8 274L55 294.8"/>
  </g>
  <g class="st1">
    <path class="st2" d="M668.7 385.3c1.3 0 2.3 1 2.3 2.3v29c0 1.3-1 2.3-2.3 2.3h-44c-1.3 0-2.3-1-2.3-2.3v-29c0-1.3 1-2.3 2.3-2.3"/>
    <path class="st2" d="M668.7 385.3l-22 16.2-22-16.2M668.7 385.3l-22-16.2-22 16.2M639.8 396.9l-16.2 20.9M653.7 396.9l16.2 20.9"/>
  </g>
  <g class="st1">
    <path class="st2" d="M361.3 323.8c1.3 0 2.3 1 2.3 2.3v29c0 1.3-1 2.3-2.3 2.3h-44c-1.3 0-2.3-1-2.3-2.3v-29c0-1.3 1-2.3 2.3-2.3"/>
    <path class="st2" d="M361.3 323.8l-22 16.2-22-16.2M361.3 323.8l-22-16.2-22 16.2M332.3 335.4l-16.2 20.9M346.2 335.4l16.2 20.9"/>
  </g>
  <g class="st1">
    <path class="st2" d="M976.4 203.2c1.3 0 2.3 1 2.3 2.3v29c0 1.3-1 2.3-2.3 2.3h-44c-1.3 0-2.3-1-2.3-2.3v-29c0-1.3 1-2.3 2.3-2.3"/>
    <path class="st2" d="M976.4 203.2l-22 16.2-22-16.2M976.4 203.2l-22-16.2-22 16.2M947.4 214.8l-16.2 20.8M961.3 214.8l16.2 20.8"/>
  </g>
  <path class="st0" d="M376.2 263c0-11.3 6-13.4 13.4-13.4 4.7 0 8.8 2.4 11.2 6 2.4-3.6 6.5-6 11.2-6 7.4 0 13.4 2.7 13.4 13.4 0 10.8-24.6 29.7-24.6 29.7s-24.6-18.3-24.6-29.7zM806.6 203.8c0-11.3 6-13.4 13.4-13.4 4.7 0 8.8 2.4 11.2 6 2.4-3.6 6.5-6 11.2-6 7.4 0 13.4 2.7 13.4 13.4 0 10.8-24.6 29.7-24.6 29.7s-24.6-18.4-24.6-29.7zM7.2 385.9c0-11.3 6-13.4 13.4-13.4 4.7 0 8.8 2.4 11.2 6 2.4-3.6 6.5-6 11.2-6 7.4 0 13.4 2.7 13.4 13.4 0 10.8-24.6 29.7-24.6 29.7S7.2 397.2 7.2 385.9zM929.6 324.4c0-11.3 6-13.4 13.4-13.4 4.7 0 8.8 2.4 11.2 6 2.4-3.6 6.5-6 11.2-6 7.4 0 13.4 2.7 13.4 13.4 0 10.8-24.6 29.7-24.6 29.7s-24.6-18.3-24.6-29.7z"/>
  <g class="st1">
    <path class="st2" d="M1031.9 276.3c0 1.1-.9 2.1-2.1 2.1-1.1 0-2.1-.9-2.1-2.1 0-1.1.9-2.1 2.1-2.1 1.2.1 2.1 1 2.1 2.1z"/>
    <circle class="st2" cx="1015.7" cy="294" r="2.1"/>
    <path class="st2" d="M1040.4 282.9c0 1.3-1.2 2.4-2.6 2.4h-44.2c-1.4 0-2.6-1.1-2.6-2.4v-13.1c0-1.3 1.2-2.4 2.6-2.4h44.2c1.4 0 2.6 1.1 2.6 2.4v13.1zM1031.9 255c0 1.1-.9 2.1-2.1 2.1-1.1 0-2.1-.9-2.1-2.1 0-1.1.9-2.1 2.1-2.1 1.2 0 2.1.9 2.1 2.1z"/>
    <path class="st2" d="M1040.4 261.6c0 1.3-1.2 2.4-2.6 2.4h-44.2c-1.4 0-2.6-1.1-2.6-2.4v-13.1c0-1.3 1.2-2.4 2.6-2.4h44.2c1.4 0 2.6 1.1 2.6 2.4v13.1zM1015.7 288.2v3.6M999.4 294h14.2M1017.8 294h14.2"/>
  </g>
  <g class="st1">
    <path class="st2" d="M724.5 217.2c0 1.1-.9 2.1-2.1 2.1-1.1 0-2.1-.9-2.1-2.1s.9-2.1 2.1-2.1c1.1.1 2.1 1 2.1 2.1z"/>
    <circle class="st2" cx="708.2" cy="234.8" r="2.1"/>
    <path class="st2" d="M732.9 223.8c0 1.3-1.2 2.4-2.6 2.4h-44.2c-1.4 0-2.6-1.1-2.6-2.4v-13.1c0-1.3 1.2-2.4 2.6-2.4h44.2c1.4 0 2.6 1.1 2.6 2.4v13.1zM724.5 195.8c0 1.1-.9 2.1-2.1 2.1-1.1 0-2.1-.9-2.1-2.1s.9-2.1 2.1-2.1c1.1.1 2.1 1 2.1 2.1z"/>
    <path class="st2" d="M732.9 202.4c0 1.3-1.2 2.4-2.6 2.4h-44.2c-1.4 0-2.6-1.1-2.6-2.4v-13.1c0-1.3 1.2-2.4 2.6-2.4h44.2c1.4 0 2.6 1.1 2.6 2.4v13.1zM708.2 229.1v3.6M691.9 234.8h14.2M710.4 234.8h14.1"/>
  </g>
  <g class="st1">
    <path class="st2" d="M1278 399.3c0 1.1-.9 2.1-2.1 2.1-1.1 0-2.1-.9-2.1-2.1 0-1.1.9-2.1 2.1-2.1 1.2.1 2.1 1 2.1 2.1z"/>
    <circle class="st2" cx="1261.8" cy="416.9" r="2.1"/>
    <path class="st2" d="M1286.5 405.9c0 1.3-1.2 2.4-2.6 2.4h-44.2c-1.4 0-2.6-1.1-2.6-2.4v-13.1c0-1.3 1.2-2.4 2.6-2.4h44.2c1.4 0 2.6 1.1 2.6 2.4v13.1zM1278 378c0 1.1-.9 2.1-2.1 2.1-1.1 0-2.1-.9-2.1-2.1 0-1.1.9-2.1 2.1-2.1 1.2 0 2.1.9 2.1 2.1z"/>
    <path class="st2" d="M1286.5 384.5c0 1.3-1.2 2.4-2.6 2.4h-44.2c-1.4 0-2.6-1.1-2.6-2.4v-13.1c0-1.3 1.2-2.4 2.6-2.4h44.2c1.4 0 2.6 1.1 2.6 2.4v13.1zM1261.8 411.2v3.6M1245.5 416.9h14.2M1263.9 416.9h14.2"/>
  </g>
  <g class="st1">
    <path class="st2" d="M749 294.4c0 1.1-.9 2.1-2.1 2.1-1.1 0-2.1-.9-2.1-2.1 0-1.1.9-2.1 2.1-2.1 1.2 0 2.1 1 2.1 2.1zM769.7 270.7v5.5M769.7 284.1v8.2M767 257.9h-2.8M775.2 257.9h-2.7"/>
    <circle class="st2" cx="769.7" cy="256.6" r="11"/>
    <path class="st2" d="M783.1 275.5v4.9h-26.8v-4.9c0-2.7 2.2-4.9 4.9-4.9h17c2.7.1 4.9 2.2 4.9 4.9zM760 252.3l16.8-4.1M748.4 292.9l8.6-8.5M790.3 294.4c0 1.1.9 2.1 2.1 2.1 1.2 0 2.1-.9 2.1-2.1 0-1.1-.9-2.1-2.1-2.1-1.2 0-2.1 1-2.1 2.1zM767.6 294.4c0 1.1.9 2.1 2.1 2.1 1.1 0 2.1-.9 2.1-2.1 0-1.1-.9-2.1-2.1-2.1-1.1 0-2.1 1-2.1 2.1zM790.9 292.9l-8.7-8.5"/>
  </g>
  <g class="st1">
    <path class="st2" d="M257.1 417.4c0 1.1-.9 2.1-2.1 2.1-1.1 0-2.1-.9-2.1-2.1 0-1.1.9-2.1 2.1-2.1 1.2 0 2.1.9 2.1 2.1zM277.8 393.6v5.5M277.8 407v8.3M275.1 380.9h-2.7M283.3 380.9h-2.7"/>
    <circle class="st2" cx="277.8" cy="379.6" r="11"/>
    <path class="st2" d="M291.2 398.5v4.9h-26.8v-4.9c0-2.7 2.2-4.9 4.9-4.9h17c2.7 0 4.9 2.2 4.9 4.9zM268.1 375.2l16.8-4M256.5 415.9l8.6-8.6M298.4 417.4c0 1.1.9 2.1 2.1 2.1 1.2 0 2.1-.9 2.1-2.1 0-1.1-.9-2.1-2.1-2.1-1.1 0-2.1.9-2.1 2.1zM275.8 417.4c0 1.1.9 2.1 2.1 2.1 1.1 0 2.1-.9 2.1-2.1 0-1.1-.9-2.1-2.1-2.1-1.2 0-2.1.9-2.1 2.1zM299 415.9l-8.7-8.6"/>
  </g>
  <g class="st1">
    <path class="st2" d="M441.7 355.9c0 1.1-.9 2.1-2.1 2.1-1.1 0-2.1-.9-2.1-2.1 0-1.1.9-2.1 2.1-2.1 1.2 0 2.1 1 2.1 2.1zM462.4 332.2v5.5M462.4 345.6v8.2M459.7 319.4H457M467.9 319.4h-2.7"/>
    <circle class="st2" cx="462.4" cy="318.1" r="11"/>
    <path class="st2" d="M475.8 337v4.9H449V337c0-2.7 2.2-4.9 4.9-4.9h17c2.8.1 4.9 2.2 4.9 4.9zM452.7 313.8l16.8-4.1M441.1 354.4l8.6-8.5M483 355.9c0 1.1.9 2.1 2.1 2.1 1.2 0 2.1-.9 2.1-2.1 0-1.1-.9-2.1-2.1-2.1-1.1 0-2.1 1-2.1 2.1zM460.4 355.9c0 1.1.9 2.1 2.1 2.1 1.1 0 2.1-.9 2.1-2.1 0-1.1-.9-2.1-2.1-2.1-1.2 0-2.1 1-2.1 2.1zM483.6 354.4l-8.7-8.5"/>
  </g>
  <g class="st1">
    <path class="st2" d="M899.9 285.7c0 1.1-.9 2.1-2.1 2.1-1.1 0-2.1-.9-2.1-2.1 0-1.1.9-2.1 2.1-2.1 1.2.1 2.1 1 2.1 2.1zM908.8 285.7c0 1.1-.9 2.1-2.1 2.1-1.1 0-2.1-.9-2.1-2.1 0-1.1.9-2.1 2.1-2.1 1.2.1 2.1 1 2.1 2.1zM899.9 269c0 1.1-.9 2.1-2.1 2.1-1.1 0-2.1-.9-2.1-2.1 0-1.1.9-2.1 2.1-2.1 1.2 0 2.1.9 2.1 2.1zM908.8 269c0 1.1-.9 2.1-2.1 2.1-1.1 0-2.1-.9-2.1-2.1 0-1.1.9-2.1 2.1-2.1 1.2 0 2.1.9 2.1 2.1zM899.9 252.2c0 1.1-.9 2.1-2.1 2.1-1.1 0-2.1-.9-2.1-2.1 0-1.1.9-2.1 2.1-2.1 1.2.1 2.1 1 2.1 2.1zM908.8 252.2c0 1.1-.9 2.1-2.1 2.1-1.1 0-2.1-.9-2.1-2.1 0-1.1.9-2.1 2.1-2.1 1.2.1 2.1 1 2.1 2.1z"/>
    <path class="st2" d="M915.5 246.5c0-1.2-1.1-2.2-2.4-2.2h-40.8c-1.3 0-2.4 1-2.4 2.2v45c0 1.2 1.1 2.2 2.4 2.2h40.8c1.3 0 2.4-1 2.4-2.2v-45zM875.5 261h34.4M875.5 277h34.4M883.6 293.7v4.1h-6.8v-4.1M908.6 293.7v4.1h-6.9v-4.1"/>
  </g>
  <g class="st1">
    <path class="st2" d="M530.9 408.7c0 1.1-.9 2.1-2.1 2.1-1.1 0-2.1-.9-2.1-2.1 0-1.1.9-2.1 2.1-2.1 1.2 0 2.1.9 2.1 2.1zM539.9 408.7c0 1.1-.9 2.1-2.1 2.1-1.1 0-2.1-.9-2.1-2.1 0-1.1.9-2.1 2.1-2.1 1.2 0 2.1.9 2.1 2.1zM530.9 391.9c0 1.1-.9 2.1-2.1 2.1-1.1 0-2.1-.9-2.1-2.1 0-1.1.9-2.1 2.1-2.1 1.2.1 2.1 1 2.1 2.1zM539.9 391.9c0 1.1-.9 2.1-2.1 2.1-1.1 0-2.1-.9-2.1-2.1 0-1.1.9-2.1 2.1-2.1 1.2.1 2.1 1 2.1 2.1zM530.9 375.2c0 1.1-.9 2.1-2.1 2.1-1.1 0-2.1-.9-2.1-2.1 0-1.1.9-2.1 2.1-2.1 1.2.1 2.1 1 2.1 2.1zM539.9 375.2c0 1.1-.9 2.1-2.1 2.1-1.1 0-2.1-.9-2.1-2.1 0-1.1.9-2.1 2.1-2.1 1.2.1 2.1 1 2.1 2.1z"/>
    <path class="st2" d="M546.5 369.4c0-1.2-1.1-2.2-2.4-2.2h-40.8c-1.3 0-2.4 1-2.4 2.2v45c0 1.2 1.1 2.2 2.4 2.2h40.8c1.3 0 2.4-1 2.4-2.2v-45zM506.6 383.9h34.3M506.6 400h34.3M514.7 416.6v4.2h-6.9v-4.2M539.7 416.6v4.2h-6.9v-4.2"/>
  </g>
  <g class="st1">
    <path class="st2" d="M1207.3 347.2c0 1.1-.9 2.1-2.1 2.1-1.1 0-2.1-.9-2.1-2.1 0-1.1.9-2.1 2.1-2.1 1.2 0 2.1 1 2.1 2.1zM1216.3 347.2c0 1.1-.9 2.1-2.1 2.1-1.1 0-2.1-.9-2.1-2.1 0-1.1.9-2.1 2.1-2.1 1.2 0 2.1 1 2.1 2.1zM1207.3 330.5c0 1.1-.9 2.1-2.1 2.1-1.1 0-2.1-.9-2.1-2.1 0-1.1.9-2.1 2.1-2.1 1.2 0 2.1.9 2.1 2.1zM1216.3 330.5c0 1.1-.9 2.1-2.1 2.1-1.1 0-2.1-.9-2.1-2.1 0-1.1.9-2.1 2.1-2.1 1.2 0 2.1.9 2.1 2.1zM1207.3 313.7c0 1.1-.9 2.1-2.1 2.1-1.1 0-2.1-.9-2.1-2.1 0-1.1.9-2.1 2.1-2.1 1.2.1 2.1 1 2.1 2.1zM1216.3 313.7c0 1.1-.9 2.1-2.1 2.1-1.1 0-2.1-.9-2.1-2.1 0-1.1.9-2.1 2.1-2.1 1.2.1 2.1 1 2.1 2.1z"/>
    <path class="st2" d="M1222.9 308c0-1.2-1.1-2.2-2.4-2.2h-40.8c-1.3 0-2.4 1-2.4 2.2v45c0 1.2 1.1 2.2 2.4 2.2h40.8c1.3 0 2.4-1 2.4-2.2v-45zM1183 322.5h34.3M1183 338.5h34.3M1191.1 355.2v4.1h-6.9v-4.1M1216.1 355.2v4.1h-6.9v-4.1"/>
  </g>
  <g class="st1">
    <path class="st2" d="M523.9 246.8s-1.3 1.9-2.9 2.7c-1.6.9 0 2.1 0 2.1l-2.4 2.4-3.3 1.9-3.9-.4.4-2.4 2.1-1.3.3-1.9-.3-1.1M507.3 253.2v6.3l-.7.4-.7 6.7s-2.6 1-2.9 1l-3.5 1.5M500 276.4l3.4-1.4 2.6 2-.4.7 2.6 2.9h.7l2.6 1.4 1.1.6s-.1.7 0 1c.1.3-.9 1.7-.9 1.7v1.9l1.6 1.9.7.7 2.9 1.4 2.9 4M536.6 250.4c-.3-.1-3.1 3.8-3.1 3.8l.9 2.1-.6.4-2 1-2.4 1.3s-.9 2-1.6 2.6c-.7.6-2.3 1.9-2.3 1.9l-1.9 4.4-2.4 4.9.1 2.6 2.1 2.6 2.6-1.4 1.9.9.1 3 1.4 1.4s-.3.9-.4 1.1l-.9 1.9-.9.4.6 2.6 2.3 2.3s2-1.3 2.1-1.6c.1-.1 1.6-3.4 1.6-3.4l3.3-3.3 1.9-2.6 1.4-3.3-.7-2-1-1.1.7-1.1s1.7-1.6 1.9-1.1c.1.4.9 3.3.9 3.3l2.4-.7.1-.7 3.3-.8"/>
    <path class="st2" d="M523.7 246.8c14.2 0 24.3 11.8 24.3 24.3 0 13.4-10.9 24.3-24.3 24.3s-24.3-10.9-24.3-24.3c.1-13.4 10.9-24.3 24.3-24.3z"/>
  </g>
  <g class="st1">
    <path class="st2" d="M155 369.7s-1.3 1.9-2.9 2.7c-1.6.9 0 2.1 0 2.1l-2.4 2.4-3.3 1.9-3.9-.4.4-2.4 2.1-1.3.3-1.9-.3-1.1M138.4 376.1v6.3l-.7.4-.7 6.7s-2.6 1-2.9 1l-3.5 1.5M131.1 399.3l3.4-1.4 2.6 2-.4.7 2.6 2.9h.7l2.6 1.4 1.1.6s-.1.7 0 1c.1.3-.9 1.7-.9 1.7v1.9l1.6 1.9.7.7 2.9 1.4 2.9 4M167.6 373.4c-.3-.1-3.1 3.8-3.1 3.8l.9 2.1-.6.4-2 1-2.4 1.3s-.9 2-1.6 2.6c-.7.6-2.3 1.9-2.3 1.9l-1.9 4.4-2.4 4.9.1 2.6 2.1 2.6 2.6-1.4 1.9.9.1 3 1.4 1.4s-.3.9-.4 1.1l-.9 1.9-.9.4.6 2.6 2.3 2.3s2-1.3 2.1-1.6c.1-.1 1.6-3.4 1.6-3.4l3.3-3.3 1.9-2.6 1.4-3.3-.7-2-1-1.1.7-1.1s1.7-1.6 1.9-1.1c.1.4.9 3.3.9 3.3l2.4-.7.1-.7 3.3-.8"/>
    <path class="st2" d="M154.8 369.7c14.2 0 24.3 11.8 24.3 24.3 0 13.4-10.9 24.3-24.3 24.3s-24.3-10.9-24.3-24.3 10.9-24.3 24.3-24.3z"/>
  </g>
  <g class="st1">
    <path class="st2" d="M1077.4 308.3s-1.3 1.9-2.9 2.7c-1.6.9 0 2.1 0 2.1l-2.4 2.4-3.3 1.9-3.9-.4.4-2.4 2.1-1.3.3-1.9-.3-1.1M1060.7 314.7v6.3l-.7.4-.7 6.7s-2.6 1-2.9 1l-3.5 1.5M1053.5 337.8l3.4-1.4 2.6 2-.4.7 2.6 2.9h.7l2.6 1.4 1.1.6s-.1.7 0 1c.1.3-.9 1.7-.9 1.7v1.9l1.6 1.9.7.7 2.9 1.4 2.9 4M1090 311.9c-.3-.1-3.1 3.8-3.1 3.8l.9 2.1-.6.4-2 1-2.4 1.3s-.9 2-1.6 2.6c-.7.6-2.3 1.9-2.3 1.9l-1.9 4.4-2.4 4.9.1 2.6 2.1 2.6 2.6-1.4 1.9.9.1 3 1.4 1.4s-.3.9-.4 1.1l-.9 1.9-.9.4.6 2.6 2.3 2.3s2-1.3 2.1-1.6c.1-.1 1.6-3.4 1.6-3.4l3.3-3.3 1.9-2.6 1.4-3.3-.7-2-1-1.1.7-1.1s1.7-1.6 1.9-1.1c.1.4.9 3.3.9 3.3l2.4-.7.1-.7 3.3-.8"/>
    <path class="st2" d="M1077.2 308.3c14.2 0 24.3 11.8 24.3 24.3 0 13.4-10.9 24.3-24.3 24.3s-24.3-10.9-24.3-24.3c0-13.5 10.8-24.3 24.3-24.3z"/>
  </g>
  <g class="st1">
    <path class="st2" d="M1151.2 264.7c0 .9-.7 1.7-1.7 1.7-.9 0-1.7-.7-1.7-1.7 0-.9.7-1.7 1.7-1.7s1.7.8 1.7 1.7zM1151.2 278.1c0 .9-.7 1.7-1.7 1.7-.9 0-1.7-.7-1.7-1.7 0-.9.7-1.7 1.7-1.7s1.7.8 1.7 1.7zM1158.7 252.2c0 3.6-8.9 6.6-19.9 6.6s-19.9-3-19.9-6.6c0-3.7 8.9-6.6 19.9-6.6s19.9 3 19.9 6.6z"/>
    <path class="st2" d="M1158.7 265.5c0 3.6-8.9 6.6-19.9 6.6s-19.9-3-19.9-6.6M1158.7 278.9c0 3.6-8.9 6.6-19.9 6.6s-19.9-3-19.9-6.6M1118.8 278.9v-26.7M1158.7 278.9v-26.7M1140.3 294.4c0 1.1-.9 2.1-2.1 2.1s-2.1-.9-2.1-2.1c0-1.1.9-2.1 2.1-2.1s2.1 1 2.1 2.1zM1138.2 288.2v4.1M1124.7 294.4h11.5M1140.3 294.4h11.5"/>
  </g>
  <g class="st1">
    <path class="st2" d="M782.2 385.8c0 .9-.7 1.7-1.7 1.7-.9 0-1.7-.7-1.7-1.7 0-.9.7-1.7 1.7-1.7.9.1 1.7.8 1.7 1.7zM782.2 399.2c0 .9-.7 1.7-1.7 1.7-.9 0-1.7-.7-1.7-1.7 0-.9.7-1.7 1.7-1.7.9.1 1.7.8 1.7 1.7zM789.6 373.3c0 3.6-8.9 6.6-19.9 6.6s-19.9-3-19.9-6.6c0-3.7 8.9-6.6 19.9-6.6s19.9 3 19.9 6.6z"/>
    <path class="st2" d="M789.6 386.7c0 3.6-8.9 6.6-19.9 6.6s-19.9-3-19.9-6.6M789.6 400c0 3.6-8.9 6.6-19.9 6.6s-19.9-3-19.9-6.6M749.7 400v-26.7M789.6 400v-26.7M771.3 415.5c0 1.1-.9 2.1-2.1 2.1s-2.1-.9-2.1-2.1c0-1.1.9-2.1 2.1-2.1s2.1 1 2.1 2.1zM769.2 409.3v4.1M755.6 415.5h11.5M771.3 415.5h11.5"/>
  </g>
  <g class="st1">
    <path class="st2" d="M843.7 326.2c0 .9-.7 1.7-1.7 1.7-.9 0-1.7-.7-1.7-1.7 0-.9.7-1.7 1.7-1.7s1.7.8 1.7 1.7zM843.7 339.6c0 .9-.7 1.7-1.7 1.7-.9 0-1.7-.7-1.7-1.7 0-.9.7-1.7 1.7-1.7s1.7.8 1.7 1.7zM851.2 313.7c0 3.6-8.9 6.6-19.9 6.6s-19.9-3-19.9-6.6c0-3.7 8.9-6.6 19.9-6.6s19.9 3 19.9 6.6z"/>
    <path class="st2" d="M851.2 327c0 3.6-8.9 6.6-19.9 6.6s-19.9-3-19.9-6.6M851.2 340.3c0 3.6-8.9 6.6-19.9 6.6s-19.9-3-19.9-6.6M811.3 340.4v-26.7M851.2 340.4v-26.7M832.8 355.9c0 1.1-.9 2.1-2.1 2.1s-2.1-.9-2.1-2.1c0-1.1.9-2.1 2.1-2.1s2.1.9 2.1 2.1zM830.7 349.7v4.1M817.2 355.9h11.5M832.8 355.9h11.5"/>
  </g>
  <g class="st1">
    <path class="st2" d="M1402.8 277c0 1.1-.9 2.1-2.1 2.1-1.1 0-2.1-.9-2.1-2.1 0-1.1.9-2.1 2.1-2.1 1.2 0 2.1.9 2.1 2.1z"/>
    <path class="st2" d="M1409.3 282.3c0 1.1-.9 1.9-2.1 1.9h-35.8c-1.2 0-2.1-.9-2.1-1.9v-10.7c0-1.1.9-1.9 2.1-1.9h35.8c1.2 0 2.1.9 2.1 1.9v10.7zM1373.1 260.1v-1.2c.6-6.7 6.6-12 13.5-12h-.2c7.3 0 13.2 5.9 13.2 13.2 0 3.8-1.6 7.2-4.2 9.6"/>
    <path class="st2" d="M1386.4 252.1c-4.1.1-7.7 3.3-8.1 7.2v.7M1369.1 254.8c-5.1 0-9.3 4.1-9.3 9.3 0 5.1 4.2 9.3 9.3 9.3M1391.7 293.1c0 1.1-.9 2.1-2.1 2.1-1.1 0-2.1-.9-2.1-2.1 0-1.1.9-2.1 2.1-2.1 1.2.1 2.1 1 2.1 2.1zM1389.6 287v4.1M1376.1 293.1h11.5M1391.7 293.1h11.5"/>
  </g>
  <g class="st1">
    <path class="st2" d="M1156.3 400c0 1.1-.9 2.1-2.1 2.1-1.1 0-2.1-.9-2.1-2.1 0-1.1.9-2.1 2.1-2.1 1.2 0 2.1.9 2.1 2.1z"/>
    <path class="st2" d="M1162.8 405.3c0 1.1-.9 1.9-2.1 1.9h-35.8c-1.2 0-2.1-.9-2.1-1.9v-10.7c0-1.1.9-1.9 2.1-1.9h35.8c1.2 0 2.1.9 2.1 1.9v10.7zM1126.6 383.1v-1.2c.6-6.7 6.6-12 13.5-12h-.2c7.3 0 13.2 5.9 13.2 13.2 0 3.8-1.6 7.2-4.2 9.6"/>
    <path class="st2" d="M1139.9 375.1c-4.1.1-7.7 3.3-8.1 7.2v.7M1122.6 377.8c-5.1 0-9.3 4.1-9.3 9.3 0 5.1 4.2 9.3 9.3 9.3M1145.2 416.1c0 1.1-.9 2.1-2.1 2.1s-2.1-.9-2.1-2.1c0-1.1.9-2.1 2.1-2.1s2.1 1 2.1 2.1zM1143.1 410v4.1M1129.6 416.1h11.5M1145.2 416.1h11.5"/>
  </g>
  <g class="st1">
    <path class="st2" d="M90 331.5v-6.6H76.1v6.6M76.1 322.5H90v-13.4L76.1 311zM92.4 308.9v13.6h18.1v-16.1zM110.5 331.5v-6.6H92.4v6.6M107.8 339.3c0 1.1-.9 2.1-2.1 2.1-1.1 0-2.1-.9-2.1-2.1 0-1.1.9-2.1 2.1-2.1 1.2 0 2.1 1 2.1 2.1z"/>
    <path class="st2" d="M115 345.1c0 1.1-1 2.1-2.3 2.1H74c-1.3 0-2.3-.9-2.3-2.1v-11.5c0-1.1 1-2.1 2.3-2.1h38.7c1.3 0 2.3.9 2.3 2.1v11.5zM95.4 356.6c0 1.1-.9 2.1-2.1 2.1-1.1 0-2.1-.9-2.1-2.1 0-1.1.9-2.1 2.1-2.1 1.2.1 2.1 1 2.1 2.1zM93.3 350.5v4.1M79.8 356.6h11.5M95.4 356.6h11.5"/>
  </g>
  <g class="st1">
    <path class="st2" d="M177.6 265.9h-46.5c-.6 0-1.1.5-1.1 1.1v3.2c0 .6.5 1.1 1.1 1.1h2.2v23.2c0 .6.5 1.1 1.1 1.1h39.9c.6 0 1.1-.5 1.1-1.1v-23.2h2.2c.6 0 1.1-.5 1.1-1.1V267c0-.6-.5-1.1-1.1-1.1zM145 265.9l7-19.4M156.9 246.5l6.8 19.4M145 277.1v13.7"/>
    <g>
      <path class="st2" d="M163.7 277.1v13.7"/>
    </g>
  </g>
  <g class="st1">
    <path class="st2" d="M424 388.8h-46.5c-.6 0-1.1.5-1.1 1.1v3.2c0 .6.5 1.1 1.1 1.1h2.2v23.2c0 .6.5 1.1 1.1 1.1h39.9c.6 0 1.1-.5 1.1-1.1v-23.2h2.2c.6 0 1.1-.5 1.1-1.1v-3.2c0-.6-.5-1.1-1.1-1.1zM391.4 388.8l7-19.4M403.3 369.4l6.8 19.4M391.4 400v13.8"/>
    <g>
      <path class="st2" d="M410.1 400v13.8"/>
    </g>
  </g>
  <g class="st1">
    <path class="st2" d="M1346.4 327.3h-46.5c-.6 0-1.1.5-1.1 1.1v3.2c0 .6.5 1.1 1.1 1.1h2.2V356c0 .6.5 1.1 1.1 1.1h39.9c.6 0 1.1-.5 1.1-1.1v-23.2h2.2c.6 0 1.1-.5 1.1-1.1v-3.2c0-.7-.5-1.2-1.1-1.2zM1313.8 327.3l6.9-19.4M1325.6 307.9l6.8 19.4M1313.8 338.6v13.7"/>
    <g>
      <path class="st2" d="M1332.4 338.6v13.7"/>
    </g>
  </g>
  <g class="st1">
    <path class="st2" d="M286.7 268.3c-5.1.1-10 4-10 9.9M265.1 271.6c-6.4 0-11.5 5.2-11.5 11.5 0 6.4 5.2 11.5 11.5 11.5h21.4c9.1 0 16.5-7.4 16.5-16.5s-7.4-16.5-16.5-16.5h.2c-8.6 0-16.7 5.8-16.7 16.5"/>
    <circle class="st2" cx="265.5" cy="254.1" r="2.1"/>
    <path class="st2" d="M263.6 271.6c-.4-1-.7-2.1-.7-3.3 0-3.7 2.4-6.7 5.4-6.7 2.8 0 5 2.6 5.3 5.9"/>
    <circle class="st2" cx="271.1" cy="254.1" r="2.1"/>
    <path class="st2" d="M265.5 257.8l2.8 1.3 2.8-1.3"/>
    <path class="st2" d="M279.3 263.1c-2.2-3.2-4.3-6.5-4.3-8.7v-.3c0-3.7-3-6.7-6.7-6.7s-6.7 3-6.7 6.7v.3c0 4.7-10.2 15.1-9 17.4"/>
  </g>
  <g class="st1">
    <path class="st2" d="M102.2 209.8c-5.1.1-10 4-10 9.9M80.7 213.1c-6.4 0-11.5 5.2-11.5 11.5 0 6.4 5.2 11.5 11.5 11.5h21.4c9.1 0 16.5-7.4 16.5-16.5s-7.4-16.5-16.5-16.5h.2c-8.6 0-16.7 5.8-16.7 16.5"/>
    <circle class="st2" cx="81.1" cy="195.5" r="2.1"/>
    <path class="st2" d="M79.2 213.1c-.4-1-.7-2.1-.7-3.3 0-3.7 2.4-6.7 5.4-6.7 2.8 0 5 2.6 5.3 5.9"/>
    <circle class="st2" cx="86.7" cy="195.5" r="2.1"/>
    <path class="st2" d="M81.1 199.3l2.8 1.3 2.8-1.3"/>
    <path class="st2" d="M94.8 204.5c-2.2-3.2-4.3-6.5-4.3-8.7v-.3c0-3.7-3-6.7-6.7-6.7s-6.7 3-6.7 6.7v.3c0 4.7-10.2 15.1-9 17.4"/>
  </g>
  <g class="st1">
    <path class="st2" d="M594.2 329.8c-5.1.1-10 4-10 9.9M572.7 333.1c-6.4 0-11.5 5.2-11.5 11.5 0 6.4 5.2 11.5 11.5 11.5h21.4c9.1 0 16.5-7.4 16.5-16.5s-7.4-16.5-16.5-16.5h.2c-8.6 0-16.7 5.8-16.7 16.5"/>
    <circle class="st2" cx="573.1" cy="315.6" r="2.1"/>
    <path class="st2" d="M571.2 333.1c-.4-1-.7-2.1-.7-3.3 0-3.7 2.4-6.7 5.4-6.7 2.8 0 5 2.6 5.3 5.9"/>
    <circle class="st2" cx="578.7" cy="315.6" r="2.1"/>
    <path class="st2" d="M573.1 319.3l2.8 1.3 2.8-1.3"/>
    <path class="st2" d="M586.8 324.6c-2.2-3.2-4.3-6.5-4.3-8.7v-.3c0-3.7-3-6.7-6.7-6.7s-6.7 3-6.7 6.7v.3c0 4.7-10.2 15.1-9 17.4"/>
  </g>
  <g class="st1">
    <path class="st2" d="M1259.5 255.5c-1.9.2-3.7.6-5.4 1.2-3.1-3.7-7.2-5-12.5-3.6-.4.1-.8.5-.9.9-.1.4 0 .9.4 1.1 2.4 2.4 3.4 4.7 3.1 7.2-1.4 1.4-2.5 3.1-3.3 4.7h-1.3c-1.8 0-3.3 1.5-3.3 3.2v7.1c0 1.8 1.5 3.3 3.3 3.3h3.2c.6.8 1.4 1.5 2.2 2.3v8.3c0 1.8 1.4 3.3 3.3 3.3h3.4c1.8 0 3.3-1.4 3.3-3.3v-2.8c5.6 1.5 12.1 1.4 17.7-.3v3.2c0 1.8 1.4 3.3 3.3 3.3h3.3c1.9 0 3.4-1.5 3.4-3.4v-8.9c2.8-2.9 4.4-6.5 4.4-10 0-6.4-4.9-11.9-12.1-14.8"/>
    <circle class="st2" cx="1267.6" cy="252.9" r="5.5"/>
  </g>
  <g class="st1">
    <path class="st2" d="M1013.5 378.5c-1.9.2-3.7.6-5.4 1.2-3.1-3.7-7.2-5-12.5-3.6-.4.1-.8.5-.9.9-.1.4 0 .9.4 1.1 2.4 2.4 3.4 4.7 3.1 7.2-1.4 1.4-2.5 3.1-3.3 4.7h-1.3c-1.8 0-3.3 1.5-3.3 3.2v7.1c0 1.8 1.5 3.3 3.3 3.3h3.2c.6.8 1.4 1.5 2.2 2.3v8.3c0 1.8 1.4 3.3 3.3 3.3h3.4c1.8 0 3.3-1.4 3.3-3.3v-2.8c5.6 1.5 12.1 1.4 17.7-.3v3.2c0 1.8 1.4 3.3 3.3 3.3h3.3c1.9 0 3.4-1.5 3.4-3.4v-8.9c2.8-2.9 4.4-6.5 4.4-10 0-6.4-4.9-11.9-12.1-14.8"/>
    <circle class="st2" cx="1021.7" cy="375.9" r="5.5"/>
  </g>
  <g class="st1">
    <path class="st2" d="M706.2 317c-1.9.2-3.7.6-5.4 1.2-3.1-3.7-7.2-5-12.5-3.6-.4.1-.8.5-.9.9-.1.4 0 .9.4 1.1 2.4 2.4 3.4 4.7 3.1 7.2-1.4 1.4-2.5 3.1-3.3 4.7h-1.3c-1.8 0-3.3 1.5-3.3 3.2v7.1c0 1.8 1.5 3.3 3.3 3.3h3.2c.6.8 1.4 1.5 2.2 2.3v8.3c0 1.8 1.4 3.3 3.3 3.3h3.4c1.8 0 3.3-1.4 3.3-3.3V350c5.6 1.5 12.1 1.4 17.7-.3v3.2c0 1.8 1.4 3.3 3.3 3.3h3.3c1.9 0 3.4-1.5 3.4-3.4v-8.9c2.8-2.9 4.4-6.5 4.4-10 0-6.4-4.9-11.9-12.1-14.8"/>
    <circle class="st2" cx="714.3" cy="314.4" r="5.5"/>
  </g>
  <g class="st1">
    <path class="st2" d="M216.3 316v5.6M198.2 328.5h36.3v28h-36.3zM216.3 328.5v28M198.6 342.5H234M207.1 321.6c-1.2-1-2-2.6-2-4.3 0-3.1 2.5-5.6 5.6-5.6 3.1 0 5.6 2.5 5.6 5.6M216.3 316c0-4.1 3-7.4 7.1-7.4s7.4 3.3 7.4 7.4c0 2-.8 3.9-2.2 5.2M194.3 321.6h44"/>
  </g>
  <g class="st1">
    <path class="st2" d="M1392.8 391c-5.1.1-10 4-10 9.9M1371.3 394.3c-6.4 0-11.5 5.2-11.5 11.5 0 6.4 5.2 11.5 11.5 11.5h21.4c9.1 0 16.5-7.4 16.5-16.5s-7.4-16.5-16.5-16.5h.2c-8.6 0-16.7 5.8-16.7 16.5"/>
    <circle class="st2" cx="1371.7" cy="376.7" r="2.1"/>
    <path class="st2" d="M1369.8 394.3c-.4-1-.7-2.1-.7-3.3 0-3.7 2.4-6.7 5.4-6.7 2.8 0 5 2.6 5.3 5.9"/>
    <circle class="st2" cx="1377.3" cy="376.7" r="2.1"/>
    <path class="st2" d="M1371.7 380.5l2.8 1.3 2.8-1.3"/>
    <path class="st2" d="M1385.4 385.7c-2.2-3.2-4.3-6.5-4.3-8.7v-.3c0-3.7-3-6.7-6.7-6.7s-6.7 3-6.7 6.7v.3c0 4.7-10.2 15.1-9 17.4"/>
  </g>
  <g class="st1">
    <path class="st2" d="M635.5 529.2H633c-.4 0-.7-.3-.7-.6l-.8-5M656.7 529.2h-12M621.8 495.6h8.9"/>
    <path class="st2" d="M667.5 519.1l-35.5 5.2c-.2 0-.4-.2-.4-.5l-3.7-23.7c0-.3.2-.5.5-.5H671c.3 0 .5.2.5.5l-3.7 18.4c.1.4-.1.6-.3.6M638.9 505.8v9.6M645.9 505.8v9.6M653 505.8v9.6M660 505.8v9.6M644.9 531.6c0 2.7-2.2 4.8-4.8 4.8-2.7 0-4.8-2.2-4.8-4.8 0-2.7 2.2-4.8 4.8-4.8 2.6-.1 4.8 2.1 4.8 4.8M666.1 531.6c0 2.7-2.2 4.8-4.8 4.8-2.7 0-4.8-2.2-4.8-4.8 0-2.7 2.2-4.8 4.8-4.8 2.6-.1 4.8 2.1 4.8 4.8"/>
  </g>
  <g class="st1">
    <path class="st2" d="M1311.9 225.4h-2.5c-.4 0-.7-.3-.7-.6l-.8-5M1333.1 225.4h-12M1298.2 191.8h8.9"/>
    <path class="st2" d="M1343.9 215.3l-35.5 5.2c-.2 0-.4-.2-.4-.5l-3.7-23.7c0-.3.2-.5.5-.5h42.6c.3 0 .5.2.5.5l-3.7 18.4c.1.4 0 .6-.3.6M1315.3 202v9.6M1322.3 202v9.6M1329.4 202v9.6M1336.4 202v9.6M1321.3 227.8c0 2.7-2.2 4.8-4.8 4.8-2.7 0-4.8-2.2-4.8-4.8 0-2.7 2.2-4.8 4.8-4.8 2.6 0 4.8 2.1 4.8 4.8M1342.5 227.8c0 2.7-2.2 4.8-4.8 4.8-2.7 0-4.8-2.2-4.8-4.8 0-2.7 2.2-4.8 4.8-4.8 2.6 0 4.8 2.1 4.8 4.8"/>
  </g>
  <g class="st1">
    <path class="st2" d="M53.9 507.4c1.3 0 2.3 1 2.3 2.3v29c0 1.3-1 2.3-2.3 2.3h-44c-1.3 0-2.3-1-2.3-2.3v-29c0-1.3 1-2.3 2.3-2.3"/>
    <path class="st2" d="M53.9 507.4l-22 16.2-22-16.2M53.9 507.4l-22-16.2-22 16.2M24.9 518.9L8.7 539.8M38.8 518.9L55 539.8"/>
  </g>
  <g class="st1">
    <path class="st2" d="M361.3 568.8c1.3 0 2.3 1 2.3 2.3v29c0 1.3-1 2.3-2.3 2.3h-44c-1.3 0-2.3-1-2.3-2.3v-29c0-1.3 1-2.3 2.3-2.3"/>
    <path class="st2" d="M361.3 568.8l-22 16.2-22-16.2M361.3 568.8l-22-16.2-22 16.2M332.3 580.4l-16.2 20.8M346.2 580.4l16.2 20.8"/>
  </g>
  <path class="st0" d="M376.2 508c0-11.3 6-13.4 13.4-13.4 4.7 0 8.8 2.4 11.2 6 2.4-3.6 6.5-6 11.2-6 7.4 0 13.4 2.7 13.4 13.4 0 10.8-24.6 29.7-24.6 29.7s-24.6-18.4-24.6-29.7zM929.6 569.4c0-11.3 6-13.4 13.4-13.4 4.7 0 8.8 2.4 11.2 6 2.4-3.6 6.5-6 11.2-6 7.4 0 13.4 2.7 13.4 13.4 0 10.8-24.6 29.7-24.6 29.7s-24.6-18.4-24.6-29.7z"/>
  <g class="st1">
    <path class="st2" d="M1031.9 521.3c0 1.1-.9 2.1-2.1 2.1-1.1 0-2.1-.9-2.1-2.1 0-1.1.9-2.1 2.1-2.1 1.2 0 2.1 1 2.1 2.1z"/>
    <circle class="st2" cx="1015.7" cy="538.9" r="2.1"/>
    <path class="st2" d="M1040.4 527.9c0 1.3-1.2 2.4-2.6 2.4h-44.2c-1.4 0-2.6-1.1-2.6-2.4v-13.1c0-1.3 1.2-2.4 2.6-2.4h44.2c1.4 0 2.6 1.1 2.6 2.4v13.1zM1031.9 499.9c0 1.1-.9 2.1-2.1 2.1-1.1 0-2.1-.9-2.1-2.1 0-1.1.9-2.1 2.1-2.1 1.2.1 2.1 1 2.1 2.1z"/>
    <path class="st2" d="M1040.4 506.5c0 1.3-1.2 2.4-2.6 2.4h-44.2c-1.4 0-2.6-1.1-2.6-2.4v-13.1c0-1.3 1.2-2.4 2.6-2.4h44.2c1.4 0 2.6 1.1 2.6 2.4v13.1zM1015.7 533.2v3.5M999.4 538.9h14.2M1017.8 538.9h14.2"/>
  </g>
  <g class="st1">
    <path class="st2" d="M749 539.4c0 1.1-.9 2.1-2.1 2.1-1.1 0-2.1-.9-2.1-2.1 0-1.1.9-2.1 2.1-2.1 1.2 0 2.1.9 2.1 2.1zM769.7 515.6v5.5M769.7 529v8.3M767 502.8h-2.8M775.2 502.8h-2.7"/>
    <circle class="st2" cx="769.7" cy="501.6" r="11"/>
    <path class="st2" d="M783.1 520.5v4.9h-26.8v-4.9c0-2.7 2.2-4.9 4.9-4.9h17c2.7 0 4.9 2.2 4.9 4.9zM760 497.2l16.8-4M748.4 537.9l8.6-8.6M790.3 539.4c0 1.1.9 2.1 2.1 2.1 1.2 0 2.1-.9 2.1-2.1 0-1.1-.9-2.1-2.1-2.1-1.2 0-2.1.9-2.1 2.1zM767.6 539.4c0 1.1.9 2.1 2.1 2.1 1.1 0 2.1-.9 2.1-2.1 0-1.1-.9-2.1-2.1-2.1-1.1 0-2.1.9-2.1 2.1zM790.9 537.9l-8.7-8.6"/>
  </g>
  <g class="st1">
    <path class="st2" d="M441.7 600.9c0 1.1-.9 2.1-2.1 2.1-1.1 0-2.1-.9-2.1-2.1 0-1.1.9-2.1 2.1-2.1 1.2 0 2.1.9 2.1 2.1zM462.4 577.1v5.5M462.4 590.5v8.3M459.7 564.4H457M467.9 564.4h-2.7"/>
    <circle class="st2" cx="462.4" cy="563.1" r="11"/>
    <path class="st2" d="M475.8 582v4.9H449V582c0-2.7 2.2-4.9 4.9-4.9h17c2.8 0 4.9 2.2 4.9 4.9zM452.7 558.7l16.8-4M441.1 599.4l8.6-8.6M483 600.9c0 1.1.9 2.1 2.1 2.1 1.2 0 2.1-.9 2.1-2.1 0-1.1-.9-2.1-2.1-2.1-1.1 0-2.1.9-2.1 2.1zM460.4 600.9c0 1.1.9 2.1 2.1 2.1 1.1 0 2.1-.9 2.1-2.1 0-1.1-.9-2.1-2.1-2.1-1.2 0-2.1.9-2.1 2.1zM483.6 599.4l-8.7-8.6"/>
  </g>
  <g class="st1">
    <path class="st2" d="M899.9 530.7c0 1.1-.9 2.1-2.1 2.1-1.1 0-2.1-.9-2.1-2.1 0-1.1.9-2.1 2.1-2.1 1.2 0 2.1.9 2.1 2.1zM908.8 530.7c0 1.1-.9 2.1-2.1 2.1-1.1 0-2.1-.9-2.1-2.1 0-1.1.9-2.1 2.1-2.1 1.2 0 2.1.9 2.1 2.1zM899.9 513.9c0 1.1-.9 2.1-2.1 2.1-1.1 0-2.1-.9-2.1-2.1 0-1.1.9-2.1 2.1-2.1 1.2.1 2.1 1 2.1 2.1zM908.8 513.9c0 1.1-.9 2.1-2.1 2.1-1.1 0-2.1-.9-2.1-2.1 0-1.1.9-2.1 2.1-2.1 1.2.1 2.1 1 2.1 2.1zM899.9 497.2c0 1.1-.9 2.1-2.1 2.1-1.1 0-2.1-.9-2.1-2.1 0-1.1.9-2.1 2.1-2.1 1.2 0 2.1 1 2.1 2.1zM908.8 497.2c0 1.1-.9 2.1-2.1 2.1-1.1 0-2.1-.9-2.1-2.1 0-1.1.9-2.1 2.1-2.1 1.2 0 2.1 1 2.1 2.1z"/>
    <path class="st2" d="M915.5 491.4c0-1.2-1.1-2.2-2.4-2.2h-40.8c-1.3 0-2.4 1-2.4 2.2v45c0 1.2 1.1 2.2 2.4 2.2h40.8c1.3 0 2.4-1 2.4-2.2v-45zM875.5 505.9h34.4M875.5 521.9h34.4M883.6 538.6v4.1h-6.8v-4.1M908.6 538.6v4.1h-6.9v-4.1"/>
  </g>
  <g class="st1">
    <path class="st2" d="M1207.3 592.2c0 1.1-.9 2.1-2.1 2.1-1.1 0-2.1-.9-2.1-2.1 0-1.1.9-2.1 2.1-2.1 1.2 0 2.1.9 2.1 2.1zM1216.3 592.2c0 1.1-.9 2.1-2.1 2.1-1.1 0-2.1-.9-2.1-2.1 0-1.1.9-2.1 2.1-2.1 1.2 0 2.1.9 2.1 2.1zM1207.3 575.4c0 1.1-.9 2.1-2.1 2.1-1.1 0-2.1-.9-2.1-2.1 0-1.1.9-2.1 2.1-2.1 1.2.1 2.1 1 2.1 2.1zM1216.3 575.4c0 1.1-.9 2.1-2.1 2.1-1.1 0-2.1-.9-2.1-2.1 0-1.1.9-2.1 2.1-2.1 1.2.1 2.1 1 2.1 2.1zM1207.3 558.7c0 1.1-.9 2.1-2.1 2.1-1.1 0-2.1-.9-2.1-2.1 0-1.1.9-2.1 2.1-2.1 1.2 0 2.1 1 2.1 2.1zM1216.3 558.7c0 1.1-.9 2.1-2.1 2.1-1.1 0-2.1-.9-2.1-2.1 0-1.1.9-2.1 2.1-2.1 1.2 0 2.1 1 2.1 2.1z"/>
    <path class="st2" d="M1222.9 552.9c0-1.2-1.1-2.2-2.4-2.2h-40.8c-1.3 0-2.4 1-2.4 2.2v45c0 1.2 1.1 2.2 2.4 2.2h40.8c1.3 0 2.4-1 2.4-2.2v-45zM1183 567.4h34.3M1183 583.4h34.3M1191.1 600.1v4.1h-6.9v-4.1M1216.1 600.1v4.1h-6.9v-4.1"/>
  </g>
  <g class="st1">
    <path class="st2" d="M523.9 491.8s-1.3 1.9-2.9 2.7c-1.6.9 0 2.1 0 2.1l-2.4 2.4-3.3 1.9-3.9-.4.4-2.4 2.1-1.3.3-1.9-.3-1.1M507.3 498.2v6.3l-.7.4-.7 6.7s-2.6 1-2.9 1l-3.5 1.5M500 521.3l3.4-1.4 2.6 2-.4.7 2.6 2.9h.7l2.6 1.4 1.1.6s-.1.7 0 1c.1.3-.9 1.7-.9 1.7v1.9l1.6 1.9.7.7 2.9 1.4 2.9 4M536.6 495.4c-.3-.1-3.1 3.8-3.1 3.8l.9 2.1-.6.4-2 1-2.4 1.3s-.9 2-1.6 2.6c-.7.6-2.3 1.9-2.3 1.9l-1.9 4.4-2.4 4.9.1 2.6 2.1 2.6 2.6-1.4 1.9.9.1 3 1.4 1.4s-.3.9-.4 1.1l-.9 1.9-.9.4.6 2.6 2.3 2.3s2-1.3 2.1-1.6c.1-.1 1.6-3.4 1.6-3.4l3.3-3.3 1.9-2.6 1.4-3.3-.7-2-1-1.1.7-1.1s1.7-1.6 1.9-1.1c.1.4.9 3.3.9 3.3l2.4-.7.1-.7 3.3-.8"/>
    <path class="st2" d="M523.7 491.8c14.2 0 24.3 11.8 24.3 24.3 0 13.4-10.9 24.3-24.3 24.3s-24.3-10.9-24.3-24.3c.1-13.5 10.9-24.3 24.3-24.3z"/>
  </g>
  <g class="st1">
    <path class="st2" d="M1077.4 553.2s-1.3 1.9-2.9 2.7c-1.6.9 0 2.1 0 2.1l-2.4 2.4-3.3 1.9-3.9-.4.4-2.4 2.1-1.3.3-1.9-.3-1.1M1060.7 559.6v6.3l-.7.4-.7 6.7s-2.6 1-2.9 1l-3.5 1.5M1053.5 582.8l3.4-1.4 2.6 2-.4.7 2.6 2.9h.7l2.6 1.4 1.1.6s-.1.7 0 1c.1.3-.9 1.7-.9 1.7v1.9l1.6 1.9.7.7 2.9 1.4 2.9 4M1090 556.9c-.3-.1-3.1 3.8-3.1 3.8l.9 2.1-.6.4-2 1-2.4 1.3s-.9 2-1.6 2.6c-.7.6-2.3 1.9-2.3 1.9l-1.9 4.4-2.4 4.9.1 2.6 2.1 2.6 2.6-1.4 1.9.9.1 3 1.4 1.4s-.3.9-.4 1.1l-.9 1.9-.9.4.6 2.6 2.3 2.3s2-1.3 2.1-1.6c.1-.1 1.6-3.4 1.6-3.4l3.3-3.3 1.9-2.6 1.4-3.3-.7-2-1-1.1.7-1.1s1.7-1.6 1.9-1.1c.1.4.9 3.3.9 3.3l2.4-.7.1-.7 3.3-.8"/>
    <path class="st2" d="M1077.2 553.2c14.2 0 24.3 11.8 24.3 24.3 0 13.4-10.9 24.3-24.3 24.3s-24.3-10.9-24.3-24.3 10.8-24.3 24.3-24.3z"/>
  </g>
  <g class="st1">
    <path class="st2" d="M1151.2 509.7c0 .9-.7 1.7-1.7 1.7-.9 0-1.7-.7-1.7-1.7 0-.9.7-1.7 1.7-1.7s1.7.7 1.7 1.7zM1151.2 523.1c0 .9-.7 1.7-1.7 1.7-.9 0-1.7-.7-1.7-1.7 0-.9.7-1.7 1.7-1.7s1.7.7 1.7 1.7zM1158.7 497.2c0 3.6-8.9 6.6-19.9 6.6s-19.9-3-19.9-6.6c0-3.7 8.9-6.6 19.9-6.6s19.9 2.9 19.9 6.6z"/>
    <path class="st2" d="M1158.7 510.5c0 3.6-8.9 6.6-19.9 6.6s-19.9-3-19.9-6.6M1158.7 523.8c0 3.6-8.9 6.6-19.9 6.6s-19.9-3-19.9-6.6M1118.8 523.8v-26.6M1158.7 523.8v-26.6M1140.3 539.4c0 1.1-.9 2.1-2.1 2.1s-2.1-.9-2.1-2.1c0-1.1.9-2.1 2.1-2.1s2.1.9 2.1 2.1zM1138.2 533.2v4.1M1124.7 539.4h11.5M1140.3 539.4h11.5"/>
  </g>
  <g class="st1">
    <path class="st2" d="M843.7 571.1c0 .9-.7 1.7-1.7 1.7-.9 0-1.7-.7-1.7-1.7 0-.9.7-1.7 1.7-1.7 1 .1 1.7.8 1.7 1.7zM843.7 584.5c0 .9-.7 1.7-1.7 1.7-.9 0-1.7-.7-1.7-1.7 0-.9.7-1.7 1.7-1.7 1 .1 1.7.8 1.7 1.7zM851.2 558.7c0 3.6-8.9 6.6-19.9 6.6s-19.9-3-19.9-6.6c0-3.7 8.9-6.6 19.9-6.6s19.9 2.9 19.9 6.6z"/>
    <path class="st2" d="M851.2 572c0 3.6-8.9 6.6-19.9 6.6s-19.9-3-19.9-6.6M851.2 585.3c0 3.6-8.9 6.6-19.9 6.6s-19.9-3-19.9-6.6M811.3 585.3v-26.6M851.2 585.3v-26.6M832.8 600.8c0 1.1-.9 2.1-2.1 2.1s-2.1-.9-2.1-2.1c0-1.1.9-2.1 2.1-2.1s2.1 1 2.1 2.1zM830.7 594.6v4.2M817.2 600.8h11.5M832.8 600.8h11.5"/>
  </g>
  <g class="st1">
    <path class="st2" d="M1402.8 521.9c0 1.1-.9 2.1-2.1 2.1-1.1 0-2.1-.9-2.1-2.1 0-1.1.9-2.1 2.1-2.1 1.2.1 2.1 1 2.1 2.1z"/>
    <path class="st2" d="M1409.3 527.3c0 1.1-.9 1.9-2.1 1.9h-35.8c-1.2 0-2.1-.9-2.1-1.9v-10.7c0-1.1.9-1.9 2.1-1.9h35.8c1.2 0 2.1.9 2.1 1.9v10.7zM1373.1 505v-1.2c.6-6.7 6.6-12 13.5-12h-.2c7.3 0 13.2 5.9 13.2 13.2 0 3.8-1.6 7.2-4.2 9.6"/>
    <path class="st2" d="M1386.4 497.1c-4.1.1-7.7 3.3-8.1 7.2v.7M1369.1 499.7c-5.1 0-9.3 4.1-9.3 9.3 0 5.1 4.2 9.3 9.3 9.3M1391.7 538.1c0 1.1-.9 2.1-2.1 2.1-1.1 0-2.1-.9-2.1-2.1 0-1.1.9-2.1 2.1-2.1 1.2 0 2.1.9 2.1 2.1zM1389.6 531.9v4.1M1376.1 538.1h11.5M1391.7 538.1h11.5"/>
  </g>
  <g class="st1">
    <path class="st2" d="M90 576.5v-6.7H76.1v6.7M76.1 567.5H90V554l-13.9 1.9zM92.4 553.8v13.7h18.1v-16.2zM110.5 576.5v-6.7H92.4v6.7M107.8 584.3c0 1.1-.9 2.1-2.1 2.1-1.1 0-2.1-.9-2.1-2.1 0-1.1.9-2.1 2.1-2.1 1.2 0 2.1.9 2.1 2.1z"/>
    <path class="st2" d="M115 590c0 1.1-1 2.1-2.3 2.1H74c-1.3 0-2.3-.9-2.3-2.1v-11.5c0-1.1 1-2.1 2.3-2.1h38.7c1.3 0 2.3.9 2.3 2.1V590zM95.4 601.6c0 1.1-.9 2.1-2.1 2.1-1.1 0-2.1-.9-2.1-2.1 0-1.1.9-2.1 2.1-2.1 1.2 0 2.1 1 2.1 2.1zM93.3 595.4v4.1M79.8 601.6h11.5M95.4 601.6h11.5"/>
  </g>
  <g class="st1">
    <path class="st2" d="M177.6 510.8h-46.5c-.6 0-1.1.5-1.1 1.1v3.2c0 .6.5 1.1 1.1 1.1h2.2v23.2c0 .6.5 1.1 1.1 1.1h39.9c.6 0 1.1-.5 1.1-1.1v-23.2h2.2c.6 0 1.1-.5 1.1-1.1V512c0-.7-.5-1.2-1.1-1.2zM145 510.8l7-19.3M156.9 491.5l6.8 19.3M145 522.1v13.7"/>
    <g>
      <path class="st2" d="M163.7 522.1v13.7"/>
    </g>
  </g>
  <g class="st1">
    <path class="st2" d="M1346.4 572.3h-46.5c-.6 0-1.1.5-1.1 1.1v3.2c0 .6.5 1.1 1.1 1.1h2.2V601c0 .6.5 1.1 1.1 1.1h39.9c.6 0 1.1-.5 1.1-1.1v-23.2h2.2c.6 0 1.1-.5 1.1-1.1v-3.2c0-.7-.5-1.2-1.1-1.2zM1313.8 572.3l6.9-19.4M1325.6 552.9l6.8 19.4M1313.8 583.5v13.7"/>
    <g>
      <path class="st2" d="M1332.4 583.5v13.7"/>
    </g>
  </g>
  <g class="st1">
    <path class="st2" d="M286.7 513.3c-5.1.1-10 4-10 9.9M265.1 516.6c-6.4 0-11.5 5.2-11.5 11.5 0 6.4 5.2 11.5 11.5 11.5h21.4c9.1 0 16.5-7.4 16.5-16.5s-7.4-16.5-16.5-16.5h.2c-8.6 0-16.7 5.8-16.7 16.5"/>
    <circle class="st2" cx="265.5" cy="499" r="2.1"/>
    <path class="st2" d="M263.6 516.6c-.4-1-.7-2.1-.7-3.3 0-3.7 2.4-6.7 5.4-6.7 2.8 0 5 2.6 5.3 5.9"/>
    <circle class="st2" cx="271.1" cy="499" r="2.1"/>
    <path class="st2" d="M265.5 502.8l2.8 1.3 2.8-1.3"/>
    <path class="st2" d="M279.3 508c-2.2-3.2-4.3-6.5-4.3-8.7v-.3c0-3.7-3-6.7-6.7-6.7s-6.7 3-6.7 6.7v.3c0 4.7-10.2 15.1-9 17.4"/>
  </g>
  <g class="st1">
    <path class="st2" d="M594.2 574.8c-5.1.1-10 4-10 9.9M572.7 578.1c-6.4 0-11.5 5.2-11.5 11.5 0 6.4 5.2 11.5 11.5 11.5h21.4c9.1 0 16.5-7.4 16.5-16.5s-7.4-16.5-16.5-16.5h.2c-8.6 0-16.7 5.8-16.7 16.5"/>
    <circle class="st2" cx="573.1" cy="560.5" r="2.1"/>
    <path class="st2" d="M571.2 578.1c-.4-1-.7-2.1-.7-3.3 0-3.7 2.4-6.7 5.4-6.7 2.8 0 5 2.6 5.3 5.9"/>
    <circle class="st2" cx="578.7" cy="560.5" r="2.1"/>
    <path class="st2" d="M573.1 564.3l2.8 1.3 2.8-1.3"/>
    <path class="st2" d="M586.8 569.5c-2.2-3.2-4.3-6.5-4.3-8.7v-.3c0-3.7-3-6.7-6.7-6.7s-6.7 3-6.7 6.7v.3c0 4.7-10.2 15.1-9 17.4"/>
  </g>
  <g class="st1">
    <path class="st2" d="M1259.5 500.5c-1.9.2-3.7.6-5.4 1.2-3.1-3.7-7.2-5-12.5-3.6-.4.1-.8.5-.9.9-.1.4 0 .9.4 1.1 2.4 2.4 3.4 4.7 3.1 7.2-1.4 1.4-2.5 3.1-3.3 4.7h-1.3c-1.8 0-3.3 1.5-3.3 3.2v7.1c0 1.8 1.5 3.3 3.3 3.3h3.2c.6.8 1.4 1.5 2.2 2.3v8.3c0 1.8 1.4 3.3 3.3 3.3h3.4c1.8 0 3.3-1.4 3.3-3.3v-2.8c5.6 1.5 12.1 1.4 17.7-.3v3.2c0 1.8 1.4 3.3 3.3 3.3h3.3c1.9 0 3.4-1.5 3.4-3.4v-8.9c2.8-2.9 4.4-6.5 4.4-10 0-6.4-4.9-11.9-12.1-14.8"/>
    <circle class="st2" cx="1267.6" cy="497.8" r="5.5"/>
  </g>
  <g class="st1">
    <path class="st2" d="M706.2 562c-1.9.2-3.7.6-5.4 1.2-3.1-3.7-7.2-5-12.5-3.6-.4.1-.8.5-.9.9-.1.4 0 .9.4 1.1 2.4 2.4 3.4 4.7 3.1 7.2-1.4 1.4-2.5 3.1-3.3 4.7h-1.3c-1.8 0-3.3 1.5-3.3 3.2v7.1c0 1.8 1.5 3.3 3.3 3.3h3.2c.6.8 1.4 1.5 2.2 2.3v8.3c0 1.8 1.4 3.3 3.3 3.3h3.4c1.8 0 3.3-1.4 3.3-3.3v-2.8c5.6 1.5 12.1 1.4 17.7-.3v3.2c0 1.8 1.4 3.3 3.3 3.3h3.3c1.9 0 3.4-1.5 3.4-3.4v-8.9c2.8-2.9 4.4-6.5 4.4-10 0-6.4-4.9-11.9-12.1-14.8"/>
    <circle class="st2" cx="714.3" cy="559.3" r="5.5"/>
  </g>
  <g class="st1">
    <path class="st2" d="M216.3 561v5.6M198.2 573.4h36.3v28h-36.3zM216.3 573.4v28M198.6 587.4H234M207.1 566.6c-1.2-1-2-2.6-2-4.3 0-3.1 2.5-5.6 5.6-5.6 3.1 0 5.6 2.5 5.6 5.6M216.3 561c0-4.1 3-7.4 7.1-7.4s7.4 3.3 7.4 7.4c0 2-.8 3.9-2.2 5.2M194.3 566.6h44"/>
  </g>
  <g class="st1">
    <path class="st2" d="M1209 209.2c-5.1.1-10 4-10 9.9M1187.5 212.5c-6.4 0-11.5 5.2-11.5 11.5 0 6.4 5.2 11.5 11.5 11.5h21.4c9.1 0 16.5-7.4 16.5-16.5s-7.4-16.5-16.5-16.5h.2c-8.6 0-16.7 5.8-16.7 16.5"/>
    <circle class="st2" cx="1187.9" cy="194.9" r="2.1"/>
    <path class="st2" d="M1186 212.5c-.4-1-.7-2.1-.7-3.3 0-3.7 2.4-6.7 5.4-6.7 2.8 0 5 2.6 5.3 5.9"/>
    <circle class="st2" cx="1193.5" cy="194.9" r="2.1"/>
    <path class="st2" d="M1187.9 198.7l2.8 1.3 2.8-1.3"/>
    <path class="st2" d="M1201.6 203.9c-2.2-3.2-4.3-6.5-4.3-8.7v-.3c0-3.7-3-6.7-6.7-6.7s-6.7 3-6.7 6.7v.3c0 4.7-10.2 15.1-9 17.4"/>
  </g>
  <g class="st1">
    <path class="st2" d="M451.1 468.9h-2.5c-.4 0-.7-.3-.7-.6l-.8-5M472.3 468.9h-12.1M437.4 435.3h8.9"/>
    <path class="st2" d="M483.1 458.9l-35.5 5.2c-.2 0-.4-.2-.4-.5l-3.7-23.7c0-.3.2-.5.5-.5h42.6c.3 0 .5.2.5.5l-3.7 18.4c.1.3-.1.6-.3.6M454.4 445.5v9.6M461.5 445.5v9.6M468.5 445.5v9.6M475.6 445.5v9.6M460.5 471.3c0 2.7-2.2 4.8-4.8 4.8-2.7 0-4.8-2.2-4.8-4.8 0-2.7 2.2-4.8 4.8-4.8 2.6 0 4.8 2.1 4.8 4.8M481.6 471.3c0 2.7-2.2 4.8-4.8 4.8-2.7 0-4.8-2.2-4.8-4.8 0-2.7 2.2-4.8 4.8-4.8 2.7 0 4.8 2.1 4.8 4.8"/>
  </g>
  <g class="st1">
    <path class="st2" d="M238.3 447c1.3 0 2.3 1 2.3 2.3v29c0 1.3-1 2.3-2.3 2.3h-44c-1.3 0-2.3-1-2.3-2.3v-29c0-1.3 1-2.3 2.3-2.3"/>
    <path class="st2" d="M238.3 447l-22 16.2-22-16.2M238.3 447l-22-16.2-22 16.2M209.4 458.6l-16.2 20.8M223.3 458.6l16.2 20.8"/>
  </g>
  <g class="st1">
    <path class="st2" d="M1056.2 478.9c0 1.1-.9 2.1-2.1 2.1-1.1 0-2.1-.9-2.1-2.1 0-1.1.9-2.1 2.1-2.1 1.2 0 2.1 1 2.1 2.1zM1077 455.2v5.4M1077 468.6v8.2M1074.2 442.4h-2.7M1082.4 442.4h-2.7"/>
    <circle class="st2" cx="1077" cy="441.1" r="11"/>
    <path class="st2" d="M1090.4 460v4.9h-26.8V460c0-2.7 2.2-4.9 4.9-4.9h17c2.7.1 4.9 2.2 4.9 4.9zM1067.2 436.7l16.9-4M1055.6 477.4l8.6-8.5M1097.5 478.9c0 1.1.9 2.1 2.1 2.1 1.2 0 2.1-.9 2.1-2.1 0-1.1-.9-2.1-2.1-2.1-1.1 0-2.1 1-2.1 2.1zM1074.9 478.9c0 1.1.9 2.1 2.1 2.1 1.1 0 2.1-.9 2.1-2.1 0-1.1-.9-2.1-2.1-2.1-1.2 0-2.1 1-2.1 2.1zM1098.1 477.4l-8.7-8.5"/>
  </g>
  <g class="st1">
    <path class="st2" d="M339.5 431.6s-1.3 1.9-2.9 2.7c-1.6.9 0 2.1 0 2.1l-2.4 2.4-3.3 1.9-3.9-.4.4-2.4 2.1-1.3.3-1.9-.3-1.1M322.8 438v6.3l-.7.4-.7 6.7s-2.6 1-2.9 1l-3.5 1.5M315.6 461.1l3.4-1.4 2.6 2-.4.7 2.6 2.9h.7l2.6 1.4 1.1.6s-.1.7 0 1c.1.3-.9 1.7-.9 1.7v1.9l1.6 1.9.7.7 2.9 1.4 2.9 4M352.1 435.2c-.3-.1-3.1 3.8-3.1 3.8l.9 2.1-.6.4-2 1-2.4 1.3s-.9 2-1.6 2.6c-.7.6-2.3 1.9-2.3 1.9l-1.9 4.4-2.4 4.9.1 2.6 2.1 2.6 2.6-1.4 1.9.9.1 3 1.4 1.4s-.3.9-.4 1.1l-.9 1.9-.9.4.6 2.6 2.3 2.3s2-1.3 2.1-1.6c.1-.1 1.6-3.4 1.6-3.4l3.3-3.3 1.9-2.6 1.4-3.3-.7-2-1-1.1.7-1.1s1.7-1.6 1.9-1.1c.1.4.9 3.3.9 3.3l2.4-.7.1-.7 3.3-.8"/>
    <path class="st2" d="M339.3 431.6c14.2 0 24.3 11.8 24.3 24.3 0 13.4-10.9 24.3-24.3 24.3S315 469.3 315 455.9c0-13.5 10.9-24.3 24.3-24.3z"/>
  </g>
  <g class="st1">
    <path class="st2" d="M597.7 449.4c0 .9-.7 1.7-1.7 1.7-.9 0-1.7-.7-1.7-1.7 0-.9.7-1.7 1.7-1.7s1.7.8 1.7 1.7zM597.7 462.8c0 .9-.7 1.7-1.7 1.7-.9 0-1.7-.7-1.7-1.7 0-.9.7-1.7 1.7-1.7s1.7.8 1.7 1.7zM605.2 436.9c0 3.6-8.9 6.6-19.9 6.6-11 0-19.9-3-19.9-6.6 0-3.7 8.9-6.6 19.9-6.6 10.9 0 19.9 3 19.9 6.6z"/>
    <path class="st2" d="M605.2 450.2c0 3.6-8.9 6.6-19.9 6.6-11 0-19.9-3-19.9-6.6M605.2 463.5c0 3.6-8.9 6.6-19.9 6.6-11 0-19.9-3-19.9-6.6M565.3 463.6v-26.7M605.2 463.6v-26.7M586.8 479.1c0 1.1-.9 2.1-2.1 2.1s-2.1-.9-2.1-2.1c0-1.1.9-2.1 2.1-2.1s2.1.9 2.1 2.1zM584.7 472.9v4.1M571.2 479.1h11.5M586.8 479.1h11.5"/>
  </g>
  <g class="st1">
    <path class="st2" d="M976.4 447c1.3 0 2.3 1 2.3 2.3v29c0 1.3-1 2.3-2.3 2.3h-44c-1.3 0-2.3-1-2.3-2.3v-29c0-1.3 1-2.3 2.3-2.3"/>
    <path class="st2" d="M976.4 447l-22 16.2-22-16.2M976.4 447l-22-16.2-22 16.2M947.4 458.6l-16.2 20.8M961.3 458.6l16.2 20.8"/>
  </g>
  <path class="st0" d="M806.6 447.6c0-11.3 6-13.4 13.4-13.4 4.7 0 8.8 2.4 11.2 6 2.4-3.6 6.5-6 11.2-6 7.4 0 13.4 2.7 13.4 13.4 0 10.8-24.6 29.7-24.6 29.7s-24.6-18.4-24.6-29.7z"/>
  <g class="st1">
    <path class="st2" d="M724.5 461c0 1.1-.9 2.1-2.1 2.1-1.1 0-2.1-.9-2.1-2.1 0-1.1.9-2.1 2.1-2.1 1.1.1 2.1 1 2.1 2.1z"/>
    <circle class="st2" cx="708.2" cy="478.6" r="2.1"/>
    <path class="st2" d="M732.9 467.6c0 1.3-1.2 2.4-2.6 2.4h-44.2c-1.4 0-2.6-1.1-2.6-2.4v-13.1c0-1.3 1.2-2.4 2.6-2.4h44.2c1.4 0 2.6 1.1 2.6 2.4v13.1zM724.5 439.6c0 1.1-.9 2.1-2.1 2.1-1.1 0-2.1-.9-2.1-2.1 0-1.1.9-2.1 2.1-2.1 1.1.1 2.1 1 2.1 2.1z"/>
    <path class="st2" d="M732.9 446.2c0 1.3-1.2 2.4-2.6 2.4h-44.2c-1.4 0-2.6-1.1-2.6-2.4v-13.1c0-1.3 1.2-2.4 2.6-2.4h44.2c1.4 0 2.6 1.1 2.6 2.4v13.1zM708.2 472.9v3.6M691.9 478.6h14.2M710.4 478.6h14.1"/>
  </g>
  <g class="st1">
    <path class="st2" d="M102.2 453.6c-5.1.1-10 4-10 9.9M80.7 456.9c-6.4 0-11.5 5.2-11.5 11.5 0 6.4 5.2 11.5 11.5 11.5h21.4c9.1 0 16.5-7.4 16.5-16.5s-7.4-16.5-16.5-16.5h.2c-8.6 0-16.7 5.8-16.7 16.5"/>
    <circle class="st2" cx="81.1" cy="439.3" r="2.1"/>
    <path class="st2" d="M79.2 456.9c-.4-1-.7-2.1-.7-3.3 0-3.7 2.4-6.7 5.4-6.7 2.8 0 5 2.6 5.3 5.9"/>
    <circle class="st2" cx="86.7" cy="439.3" r="2.1"/>
    <path class="st2" d="M81.1 443.1l2.8 1.3 2.8-1.3"/>
    <path class="st2" d="M94.8 448.3c-2.2-3.2-4.3-6.5-4.3-8.7v-.3c0-3.7-3-6.7-6.7-6.7s-6.7 3-6.7 6.7v.3c0 4.7-10.2 15.1-9 17.4"/>
  </g>
  <g class="st1">
    <path class="st2" d="M1311.9 469.2h-2.5c-.4 0-.7-.3-.7-.6l-.8-5M1333.1 469.2h-12M1298.2 435.6h8.9"/>
    <path class="st2" d="M1343.9 459.1l-35.5 5.2c-.2 0-.4-.2-.4-.5l-3.7-23.7c0-.3.2-.5.5-.5h42.6c.3 0 .5.2.5.5l-3.7 18.4c.1.4 0 .6-.3.6M1315.3 445.8v9.6M1322.3 445.8v9.6M1329.4 445.8v9.6M1336.4 445.8v9.6M1321.3 471.6c0 2.7-2.2 4.8-4.8 4.8-2.7 0-4.8-2.2-4.8-4.8 0-2.7 2.2-4.8 4.8-4.8 2.6 0 4.8 2.1 4.8 4.8M1342.5 471.6c0 2.7-2.2 4.8-4.8 4.8-2.7 0-4.8-2.2-4.8-4.8 0-2.7 2.2-4.8 4.8-4.8 2.6 0 4.8 2.1 4.8 4.8"/>
  </g>
  <g class="st1">
    <path class="st2" d="M1209 453c-5.1.1-10 4-10 9.9M1187.5 456.3c-6.4 0-11.5 5.2-11.5 11.5 0 6.4 5.2 11.5 11.5 11.5h21.4c9.1 0 16.5-7.4 16.5-16.5s-7.4-16.5-16.5-16.5h.2c-8.6 0-16.7 5.8-16.7 16.5"/>
    <circle class="st2" cx="1187.9" cy="438.7" r="2.1"/>
    <path class="st2" d="M1186 456.3c-.4-1-.7-2.1-.7-3.3 0-3.7 2.4-6.7 5.4-6.7 2.8 0 5 2.6 5.3 5.9"/>
    <circle class="st2" cx="1193.5" cy="438.7" r="2.1"/>
    <path class="st2" d="M1187.9 442.5l2.8 1.3 2.8-1.3"/>
    <path class="st2" d="M1201.6 447.7c-2.2-3.2-4.3-6.5-4.3-8.7v-.3c0-3.7-3-6.7-6.7-6.7s-6.7 3-6.7 6.7v.3c0 4.7-10.2 15.1-9 17.4"/>
  </g>
  <path class="st0" d="M1461.5 503.9l14.5-14.5M1476 549.3l-14.5-14.6M1461.5 381l14.5-14.6M1476 426.3l-14.5-14.5M1461.5 258l14.5-14.6M1476 303.3l-14.5-14.5M1473.3 615l2.7-2.7M1461.5 135l14.5-14.5M1476 180.4l-14.5-14.6M1461.4 12.1L1473.3.2M1476 57.4l-14.5-14.5"/>
  <g class="st1">
    <path class="st2" d="M1469.3 83.7h-46.5c-.6 0-1.1.5-1.1 1.1V88c0 .6.5 1.1 1.1 1.1h2.2v23.2c0 .6.5 1.1 1.1 1.1h39.9c.6 0 1.1-.5 1.1-1.1v-23h2.2c.6 0 1.1-.5 1.1-1.1V85c0-.8-.5-1.3-1.1-1.3zM1436.7 83.7l6.9-19.3M1448.5 64.4l6.8 19.3M1436.7 95v13.7"/>
    <g>
      <path class="st2" d="M1455.3 95v13.7"/>
    </g>
  </g>
  <g class="st1">
    <path class="st2" d="M1469.3 327.3h-46.5c-.6 0-1.1.5-1.1 1.1v3.2c0 .6.5 1.1 1.1 1.1h2.2V356c0 .6.5 1.1 1.1 1.1h39.9c.6 0 1.1-.5 1.1-1.1v-23.2h2.2c.6 0 1.1-.5 1.1-1.1v-3.2c0-.7-.5-1.2-1.1-1.2zM1436.7 327.3l6.9-19.4M1448.5 307.9l6.8 19.4M1436.7 338.6v13.7"/>
    <g>
      <path class="st2" d="M1455.3 338.6v13.7"/>
    </g>
  </g>
  <g class="st1">
    <path class="st2" d="M1434.8 225.4h-2.5c-.4 0-.7-.3-.7-.6l-.8-5M1456 225.4h-12M1421.1 191.8h8.9"/>
    <path class="st2" d="M1466.8 215.3l-35.5 5.2c-.2 0-.4-.2-.4-.5l-3.7-23.7c0-.3.2-.5.5-.5h42.6c.3 0 .5.2.5.5l-3.7 18.4c.1.4 0 .6-.3.6M1438.2 202v9.6M1445.2 202v9.6M1452.3 202v9.6M1459.3 202v9.6M1444.2 227.8c0 2.7-2.2 4.8-4.8 4.8-2.7 0-4.8-2.2-4.8-4.8 0-2.7 2.2-4.8 4.8-4.8 2.6 0 4.8 2.1 4.8 4.8M1465.4 227.8c0 2.7-2.2 4.8-4.8 4.8-2.7 0-4.8-2.2-4.8-4.8 0-2.7 2.2-4.8 4.8-4.8 2.6 0 4.8 2.1 4.8 4.8"/>
  </g>
  <g class="st1">
    <path class="st2" d="M1469.3 572.3h-46.5c-.6 0-1.1.5-1.1 1.1v3.2c0 .6.5 1.1 1.1 1.1h2.2V601c0 .6.5 1.1 1.1 1.1h39.9c.6 0 1.1-.5 1.1-1.1v-23.2h2.2c.6 0 1.1-.5 1.1-1.1v-3.2c0-.7-.5-1.2-1.1-1.2zM1436.7 572.3l6.9-19.4M1448.5 552.9l6.8 19.4M1436.7 583.5v13.7"/>
    <g>
      <path class="st2" d="M1455.3 583.5v13.7"/>
    </g>
  </g>
  <g class="st1">
    <path class="st2" d="M1434.8 469.2h-2.5c-.4 0-.7-.3-.7-.6l-.8-5M1456 469.2h-12M1421.1 435.6h8.9"/>
    <path class="st2" d="M1466.8 459.1l-35.5 5.2c-.2 0-.4-.2-.4-.5l-3.7-23.7c0-.3.2-.5.5-.5h42.6c.3 0 .5.2.5.5l-3.7 18.4c.1.4 0 .6-.3.6M1438.2 445.8v9.6M1445.2 445.8v9.6M1452.3 445.8v9.6M1459.3 445.8v9.6M1444.2 471.6c0 2.7-2.2 4.8-4.8 4.8-2.7 0-4.8-2.2-4.8-4.8 0-2.7 2.2-4.8 4.8-4.8 2.6 0 4.8 2.1 4.8 4.8M1465.4 471.6c0 2.7-2.2 4.8-4.8 4.8-2.7 0-4.8-2.2-4.8-4.8 0-2.7 2.2-4.8 4.8-4.8 2.6 0 4.8 2.1 4.8 4.8"/>
  </g>
</svg>
