<svg version="1.1" id="Layer_1" xmlns="http://www.w3.org/2000/svg" x="0" y="0" viewBox="0 0 1105.7 474" xml:space="preserve">
  <style>
    .prov0,.prov1{fill:none;stroke:gray;stroke-linecap:round;stroke-linejoin:round;stroke-miterlimit:10}.prov1{stroke:#ee5586}.prov1,.prov2{stroke-width:2}.prov2,.prov3,.prov4{fill:#fff;stroke:gray;stroke-linecap:round;stroke-linejoin:round;stroke-miterlimit:10}.prov4{stroke:#ee5586}.prov5,.prov6,.prov7{fill:none;stroke:#d7d7d7;stroke-linecap:round;stroke-linejoin:round}.prov6{stroke-dasharray:3.0246,3.0246}.prov7{stroke-miterlimit:10}
  </style>
  <path class="prov0" d="M0 271.2h1105.5M0 330.3h1105.5M0 411.3h1105.5"/>
  <g>
    <path id="svg-concept" class="prov1" d="M66.5 300.7c0 15.9-12.9 28.9-28.8 28.9S8.9 316.7 8.9 300.7s12.9-28.8 28.8-28.8 28.8 12.9 28.8 28.8z"/>
    <path id="svg-concept" class="prov1" d="M48.4 300.7c0 5.9-4.8 10.7-10.7 10.7-5.9 0-10.7-4.8-10.7-10.7S31.8 290 37.7 290c5.9.1 10.7 4.8 10.7 10.7zM66.5 300.8H48.4M27 300.8H8.9"/>
    <animateTransform attributeName="transform" type="rotate" from="0 37 301" to="360 38 301" begin="0s" dur="1s" repeatCount="indefinite"/>
  </g>
  <g>
    <path id="svg-concept" class="prov1" d="M213.7 300.7c0 15.9-12.9 28.9-28.8 28.9s-28.8-12.9-28.8-28.9 12.9-28.8 28.8-28.8 28.8 12.9 28.8 28.8z"/>
    <path id="svg-concept" class="prov1" d="M195.6 300.7c0 5.9-4.8 10.7-10.7 10.7-5.9 0-10.7-4.8-10.7-10.7S179 290 184.9 290c5.9.1 10.7 4.8 10.7 10.7zM213.7 300.8h-18.1M174.2 300.8H156"/>
    <animateTransform attributeName="transform" type="rotate" from="0 185 301" to="360 185 301" begin="0s" dur="1s" repeatCount="indefinite"/>
  </g>
  <g>
    <path id="svg-concept" class="prov1" d="M360.8 300.7c0 15.9-12.9 28.9-28.8 28.9s-28.8-12.9-28.8-28.9 12.9-28.8 28.8-28.8 28.8 12.9 28.8 28.8z"/>
    <path id="svg-concept" class="prov1" d="M342.7 300.7c0 5.9-4.8 10.7-10.7 10.7-5.9 0-10.7-4.8-10.7-10.7S326.1 290 332 290c5.9.1 10.7 4.8 10.7 10.7zM360.8 300.8h-18.1M321.3 300.8h-18.1"/>
    <animateTransform attributeName="transform" type="rotate" from="0 332 301" to="360 332 301" begin="0.5s" dur="1s" repeatCount="indefinite"/>
  </g>
  <g>
    <path id="svg-concept" class="prov1" d="M508 300.7c0 15.9-12.9 28.9-28.8 28.9s-28.8-12.9-28.8-28.9 12.9-28.8 28.8-28.8 28.8 12.9 28.8 28.8z"/>
    <path id="svg-concept" class="prov1" d="M489.9 300.7c0 5.9-4.8 10.7-10.7 10.7-5.9 0-10.7-4.8-10.7-10.7s4.8-10.7 10.7-10.7c5.9.1 10.7 4.8 10.7 10.7zM508 300.8h-18.1M468.5 300.8h-18.1"/>
    <animateTransform attributeName="transform" type="rotate" from="0 479 301" to="360 479 301" begin="0.5s" dur="1s" repeatCount="indefinite"/>
  </g>
  <g>
    <path id="svg-concept" class="prov1" d="M655.2 300.7c0 15.9-12.9 28.9-28.8 28.9s-28.8-12.9-28.8-28.9 12.9-28.8 28.8-28.8c15.8 0 28.8 12.9 28.8 28.8z"/>
    <path id="svg-concept" class="prov1" d="M637 300.7c0 5.9-4.8 10.7-10.7 10.7-5.9 0-10.7-4.8-10.7-10.7s4.8-10.7 10.7-10.7c5.9.1 10.7 4.8 10.7 10.7zM655.2 300.8H637M615.6 300.8h-18.1"/>
    <animateTransform attributeName="transform" type="rotate" from="0 626 301" to="360 626 301" begin="0.5s" dur="1s" repeatCount="indefinite"/>
  </g>
  <g>
    <path id="svg-concept" class="prov1" d="M802.3 300.7c0 15.9-12.9 28.9-28.8 28.9s-28.8-12.9-28.8-28.9 12.9-28.8 28.8-28.8 28.8 12.9 28.8 28.8z"/>
    <path id="svg-concept" class="prov1" d="M784.2 300.7c0 5.9-4.8 10.7-10.7 10.7-5.9 0-10.7-4.8-10.7-10.7s4.8-10.7 10.7-10.7c5.9.1 10.7 4.8 10.7 10.7zM802.3 300.8h-18.1M762.8 300.8h-18.1"/>
    <animateTransform attributeName="transform" type="rotate" from="0 773 301" to="360 773 301" begin="0.5s" dur="1s" repeatCount="indefinite"/>
  </g>
  <g>
    <path id="svg-concept" class="prov1" d="M949.5 300.7c0 15.9-12.9 28.9-28.8 28.9s-28.8-12.9-28.8-28.9 12.9-28.8 28.8-28.8 28.8 12.9 28.8 28.8z"/>
    <path id="svg-concept" class="prov1" d="M931.3 300.7c0 5.9-4.8 10.7-10.7 10.7-5.9 0-10.7-4.8-10.7-10.7s4.8-10.7 10.7-10.7c6 .1 10.7 4.8 10.7 10.7zM949.5 300.8h-18.2M910 300.8h-18.2"/>
    <animateTransform attributeName="transform" type="rotate" from="0 921 301" to="360 921 301" begin="0.5s" dur="1s" repeatCount="indefinite"/>
  </g>
  <g>
    <path id="svg-concept" class="prov1" d="M1096.6 300.7c0 15.9-12.9 28.9-28.8 28.9s-28.8-12.9-28.8-28.9 12.9-28.8 28.8-28.8 28.8 12.9 28.8 28.8z"/>
    <path id="svg-concept" class="prov1" d="M1078.5 300.7c0 5.9-4.8 10.7-10.7 10.7-5.9 0-10.7-4.8-10.7-10.7s4.8-10.7 10.7-10.7c5.9.1 10.7 4.8 10.7 10.7zM1096.6 300.8h-18.1M1057.1 300.8H1039"/>
    <animateTransform attributeName="transform" type="rotate" from="0 1068 301" to="360 1068 301" begin="0.5s" dur="1s" repeatCount="indefinite"/>
  </g>
  <g>
    <path class="prov2" d="M686.7 257c0 4.3-3.2 7.8-7.2 7.8H426c-4 0-7.2-3.5-7.2-7.8v-27.8c0-4.3 3.2-7.8 7.2-7.8h253.6c3.9 0 7.2 3.5 7.2 7.8V257z"/>
    <path id="svg-concept" class="prov1" d="M489 239.9h-1.1c-.7 0-1.2-.5-1.2-1.2v-1.1c0-.7.5-1.2 1.2-1.2h1.1c.7 0 1.2.5 1.2 1.2v1.1c0 .7-.5 1.2-1.2 1.2zM484.5 253.2H483c-.9 0-1.7-.8-1.7-1.7V250c0-.9.8-1.7 1.7-1.7h1.5c.9 0 1.7.8 1.7 1.7v1.5c0 .9-.8 1.7-1.7 1.7zM549.5 239.9h-1.1c-.7 0-1.2-.5-1.2-1.2v-1.1c0-.7.5-1.2 1.2-1.2h1.1c.7 0 1.2.5 1.2 1.2v1.1c.1.7-.5 1.2-1.2 1.2zM545 253.2h-1.5c-.9 0-1.7-.8-1.7-1.7V250c0-.9.8-1.7 1.7-1.7h1.5c.9 0 1.7.8 1.7 1.7v1.5c0 .9-.8 1.7-1.7 1.7zM610 239.9h-1c-.7 0-1.2-.5-1.2-1.2v-1.1c0-.7.5-1.2 1.2-1.2h1.1c.7 0 1.2.5 1.2 1.2v1.1c0 .7-.6 1.2-1.3 1.2zM605.5 253.2H604c-.9 0-1.7-.8-1.7-1.7V250c0-.9.8-1.7 1.7-1.7h1.5c.9 0 1.7.8 1.7 1.7v1.5c0 .9-.8 1.7-1.7 1.7zM653 243.1c0 5.1-4.2 9.3-9.3 9.3-5.1 0-9.3-4.2-9.3-9.3 0-5.1 4.2-9.3 9.3-9.3 5.1 0 9.3 4.2 9.3 9.3z"/>
    <path id="svg-concept" class="prov1" d="M647.1 243.1c0 1.9-1.5 3.4-3.4 3.4s-3.4-1.5-3.4-3.4 1.5-3.4 3.4-3.4 3.4 1.5 3.4 3.4zM653 243.1h-5.9M640.2 243.1h-5.8"/>
    <path class="prov0" d="M433.6 221.4v43.3M672 221.4v43.4M486.2 256.6h-43.7c-2.2 0-4-1.8-4-4V249c0-2.2 1.8-4 4-4h43.7c2.2 0 4 1.8 4 4v3.6c0 2.2-1.8 4-4 4zM445 239.9h-1c-.7 0-1.2-.5-1.2-1.2v-1.1c0-.7.5-1.2 1.2-1.2h1.1c.7 0 1.2.5 1.2 1.2v1.1c0 .7-.6 1.2-1.3 1.2zM452.1 239.9H451c-.7 0-1.2-.5-1.2-1.2v-1.1c0-.7.5-1.2 1.2-1.2h1.1c.7 0 1.2.5 1.2 1.2v1.1c0 .7-.5 1.2-1.2 1.2zM462.1 239.9H461c-.7 0-1.2-.5-1.2-1.2v-1.1c0-.7.5-1.2 1.2-1.2h1.1c.7 0 1.2.5 1.2 1.2v1.1c0 .7-.5 1.2-1.2 1.2zM445 232.2h-1c-.7 0-1.2-.5-1.2-1.2v-1.1c0-.7.5-1.2 1.2-1.2h1.1c.7 0 1.2.5 1.2 1.2v1.1c0 .7-.6 1.2-1.3 1.2zM452.1 232.2H451c-.7 0-1.2-.5-1.2-1.2v-1.1c0-.7.5-1.2 1.2-1.2h1.1c.7 0 1.2.5 1.2 1.2v1.1c0 .7-.5 1.2-1.2 1.2zM488.9 232.2h-1.1c-.7 0-1.2-.5-1.2-1.2v-1.1c0-.7.5-1.2 1.2-1.2h1.1c.7 0 1.2.5 1.2 1.2v1.1c.1.7-.5 1.2-1.2 1.2zM469.2 239.9h-1.1c-.7 0-1.2-.5-1.2-1.2v-1.1c0-.7.5-1.2 1.2-1.2h1.1c.7 0 1.2.5 1.2 1.2v1.1c0 .7-.5 1.2-1.2 1.2zM476.2 239.9h-1.1c-.7 0-1.2-.5-1.2-1.2v-1.1c0-.7.5-1.2 1.2-1.2h1.1c.7 0 1.2.5 1.2 1.2v1.1c0 .7-.6 1.2-1.2 1.2z"/>
    <path class="prov0" d="M476.3 239.9h-1.1c-.7 0-1.2-.5-1.2-1.2v-1.1c0-.7.5-1.2 1.2-1.2h1.1c.7 0 1.2.5 1.2 1.2v1.1c0 .7-.6 1.2-1.2 1.2zM476.3 232.2h-14.6c-.7 0-1.2-.5-1.2-1.2v-1.1c0-.7.5-1.2 1.2-1.2h14.6c.7 0 1.2.5 1.2 1.2v1.1c0 .7-.6 1.2-1.2 1.2zM456.7 245v11.6M475.5 253.2H474c-.9 0-1.7-.8-1.7-1.7V250c0-.9.8-1.7 1.7-1.7h1.5c.9 0 1.7.8 1.7 1.7v1.5c0 .9-.8 1.7-1.7 1.7zM546.8 256.6h-43.7c-2.2 0-4-1.8-4-4V249c0-2.2 1.8-4 4-4h43.7c2.2 0 4 1.8 4 4v3.6c0 2.2-1.8 4-4 4zM505.6 239.9h-1.1c-.7 0-1.2-.5-1.2-1.2v-1.1c0-.7.5-1.2 1.2-1.2h1.1c.7 0 1.2.5 1.2 1.2v1.1c0 .7-.6 1.2-1.2 1.2zM512.6 239.9h-1.1c-.7 0-1.2-.5-1.2-1.2v-1.1c0-.7.5-1.2 1.2-1.2h1.1c.7 0 1.2.5 1.2 1.2v1.1c.1.7-.5 1.2-1.2 1.2zM522.6 239.9h-1.1c-.7 0-1.2-.5-1.2-1.2v-1.1c0-.7.5-1.2 1.2-1.2h1.1c.7 0 1.2.5 1.2 1.2v1.1c0 .7-.5 1.2-1.2 1.2zM505.6 232.2h-1.1c-.7 0-1.2-.5-1.2-1.2v-1.1c0-.7.5-1.2 1.2-1.2h1.1c.7 0 1.2.5 1.2 1.2v1.1c0 .7-.6 1.2-1.2 1.2zM512.6 232.2h-1.1c-.7 0-1.2-.5-1.2-1.2v-1.1c0-.7.5-1.2 1.2-1.2h1.1c.7 0 1.2.5 1.2 1.2v1.1c.1.7-.5 1.2-1.2 1.2zM549.4 232.2h-1.1c-.7 0-1.2-.5-1.2-1.2v-1.1c0-.7.5-1.2 1.2-1.2h1.1c.7 0 1.2.5 1.2 1.2v1.1c.1.7-.5 1.2-1.2 1.2zM529.7 239.9h-1.1c-.7 0-1.2-.5-1.2-1.2v-1.1c0-.7.5-1.2 1.2-1.2h1.1c.7 0 1.2.5 1.2 1.2v1.1c0 .7-.5 1.2-1.2 1.2zM536.7 239.9h-1.1c-.7 0-1.2-.5-1.2-1.2v-1.1c0-.7.5-1.2 1.2-1.2h1.1c.7 0 1.2.5 1.2 1.2v1.1c0 .7-.6 1.2-1.2 1.2z"/>
    <path class="prov0" d="M536.8 239.9h-1.1c-.7 0-1.2-.5-1.2-1.2v-1.1c0-.7.5-1.2 1.2-1.2h1.1c.7 0 1.2.5 1.2 1.2v1.1c0 .7-.5 1.2-1.2 1.2zM536.8 232.2h-14.6c-.7 0-1.2-.5-1.2-1.2v-1.1c0-.7.5-1.2 1.2-1.2h14.6c.7 0 1.2.5 1.2 1.2v1.1c0 .7-.5 1.2-1.2 1.2zM517.3 245v11.6M536 253.2h-1.5c-.9 0-1.7-.8-1.7-1.7V250c0-.9.8-1.7 1.7-1.7h1.5c.9 0 1.7.8 1.7 1.7v1.5c0 .9-.8 1.7-1.7 1.7zM607.3 256.6h-43.7c-2.2 0-4-1.8-4-4V249c0-2.2 1.8-4 4-4h43.7c2.2 0 4 1.8 4 4v3.6c0 2.2-1.8 4-4 4zM566.1 239.9H565c-.7 0-1.2-.5-1.2-1.2v-1.1c0-.7.5-1.2 1.2-1.2h1.1c.7 0 1.2.5 1.2 1.2v1.1c0 .7-.6 1.2-1.2 1.2zM573.1 239.9H572c-.7 0-1.2-.5-1.2-1.2v-1.1c0-.7.5-1.2 1.2-1.2h1.1c.7 0 1.2.5 1.2 1.2v1.1c.1.7-.5 1.2-1.2 1.2zM583.1 239.9H582c-.7 0-1.2-.5-1.2-1.2v-1.1c0-.7.5-1.2 1.2-1.2h1.1c.7 0 1.2.5 1.2 1.2v1.1c0 .7-.5 1.2-1.2 1.2zM566.1 232.2H565c-.7 0-1.2-.5-1.2-1.2v-1.1c0-.7.5-1.2 1.2-1.2h1.1c.7 0 1.2.5 1.2 1.2v1.1c0 .7-.6 1.2-1.2 1.2zM573.1 232.2H572c-.7 0-1.2-.5-1.2-1.2v-1.1c0-.7.5-1.2 1.2-1.2h1.1c.7 0 1.2.5 1.2 1.2v1.1c.1.7-.5 1.2-1.2 1.2zM609.9 232.2h-1.1c-.7 0-1.2-.5-1.2-1.2v-1.1c0-.7.5-1.2 1.2-1.2h1.1c.7 0 1.2.5 1.2 1.2v1.1c.1.7-.5 1.2-1.2 1.2zM590.2 239.9h-1.1c-.7 0-1.2-.5-1.2-1.2v-1.1c0-.7.5-1.2 1.2-1.2h1.1c.7 0 1.2.5 1.2 1.2v1.1c0 .7-.5 1.2-1.2 1.2zM597.2 239.9h-1.1c-.7 0-1.2-.5-1.2-1.2v-1.1c0-.7.5-1.2 1.2-1.2h1.1c.7 0 1.2.5 1.2 1.2v1.1c0 .7-.6 1.2-1.2 1.2z"/>
    <path class="prov0" d="M597.3 239.9h-1.1c-.7 0-1.2-.5-1.2-1.2v-1.1c0-.7.5-1.2 1.2-1.2h1.1c.7 0 1.2.5 1.2 1.2v1.1c0 .7-.5 1.2-1.2 1.2z"/>
    <path id="svg-concept" class="prov1" d="M666 251.3c0 1.5-1.2 2.7-2.7 2.7-1.5 0-2.7-1.2-2.7-2.7 0-1.5 1.2-2.7 2.7-2.7 1.4 0 2.7 1.2 2.7 2.7z"/>
    <path class="prov0" d="M663.8 243.6h-1.1c-.7 0-1.2-.5-1.2-1.2v-1.1c0-.7.5-1.2 1.2-1.2h1.1c.7 0 1.2.5 1.2 1.2v1.1c0 .6-.6 1.2-1.2 1.2zM663.8 235.7h-1.1c-.7 0-1.2-.5-1.2-1.2v-1.1c0-.7.5-1.2 1.2-1.2h1.1c.7 0 1.2.5 1.2 1.2v1.1c0 .7-.6 1.2-1.2 1.2zM597.3 232.2h-14.6c-.7 0-1.2-.5-1.2-1.2v-1.1c0-.7.5-1.2 1.2-1.2h14.6c.7 0 1.2.5 1.2 1.2v1.1c0 .7-.5 1.2-1.2 1.2zM577.8 245v11.6M596.5 253.2H595c-.9 0-1.7-.8-1.7-1.7V250c0-.9.8-1.7 1.7-1.7h1.5c.9 0 1.7.8 1.7 1.7v1.5c0 .9-.8 1.7-1.7 1.7zM495.2 221.4v43.4M427.1 235.9v12.9M678.5 235.9v12.9M555.3 221.4v43.4M615.4 221.4v43.4"/>
    <g>
      <path class="prov2" d="M1096.6 257c0 4.3-3.2 7.8-7.2 7.8H835.9c-4 0-7.2-3.5-7.2-7.8v-27.8c0-4.3 3.2-7.8 7.2-7.8h253.6c3.9 0 7.2 3.5 7.2 7.8V257z"/>
      <path id="svg-concept" class="prov1" d="M899 239.9h-1.1c-.7 0-1.2-.5-1.2-1.2v-1.1c0-.7.5-1.2 1.2-1.2h1.1c.7 0 1.2.5 1.2 1.2v1.1c0 .7-.6 1.2-1.2 1.2zM894.4 253.2h-1.5c-.9 0-1.7-.8-1.7-1.7V250c0-.9.8-1.7 1.7-1.7h1.5c.9 0 1.7.8 1.7 1.7v1.5c0 .9-.7 1.7-1.7 1.7zM959.5 239.9h-1.1c-.7 0-1.2-.5-1.2-1.2v-1.1c0-.7.5-1.2 1.2-1.2h1.1c.7 0 1.2.5 1.2 1.2v1.1c0 .7-.6 1.2-1.2 1.2zM954.9 253.2h-1.5c-.9 0-1.7-.8-1.7-1.7V250c0-.9.8-1.7 1.7-1.7h1.5c.9 0 1.7.8 1.7 1.7v1.5c0 .9-.7 1.7-1.7 1.7zM1020 239.9h-1.1c-.7 0-1.2-.5-1.2-1.2v-1.1c0-.7.5-1.2 1.2-1.2h1.1c.7 0 1.2.5 1.2 1.2v1.1c0 .7-.5 1.2-1.2 1.2zM1015.4 253.2h-1.5c-.9 0-1.7-.8-1.7-1.7V250c0-.9.8-1.7 1.7-1.7h1.5c.9 0 1.7.8 1.7 1.7v1.5c0 .9-.7 1.7-1.7 1.7zM1062.9 243.1c0 5.1-4.2 9.3-9.3 9.3-5.1 0-9.3-4.2-9.3-9.3 0-5.1 4.2-9.3 9.3-9.3 5.1 0 9.3 4.2 9.3 9.3z"/>
      <path id="svg-concept" class="prov1" d="M1057.1 243.1c0 1.9-1.5 3.4-3.4 3.4s-3.4-1.5-3.4-3.4 1.5-3.4 3.4-3.4c1.8 0 3.4 1.5 3.4 3.4zM1062.9 243.1h-5.8M1050.2 243.1h-5.9"/>
      <path class="prov0" d="M843.5 221.4v43.3M1081.9 221.4v43.4M896.2 256.6h-43.7c-2.2 0-4-1.8-4-4V249c0-2.2 1.8-4 4-4h43.7c2.2 0 4 1.8 4 4v3.6c0 2.2-1.8 4-4 4zM855 239.9h-1.1c-.7 0-1.2-.5-1.2-1.2v-1.1c0-.7.5-1.2 1.2-1.2h1.1c.7 0 1.2.5 1.2 1.2v1.1c0 .7-.5 1.2-1.2 1.2zM862.1 239.9H861c-.7 0-1.2-.5-1.2-1.2v-1.1c0-.7.5-1.2 1.2-1.2h1.1c.7 0 1.2.5 1.2 1.2v1.1c0 .7-.6 1.2-1.2 1.2zM872 239.9h-1c-.7 0-1.2-.5-1.2-1.2v-1.1c0-.7.5-1.2 1.2-1.2h1.1c.7 0 1.2.5 1.2 1.2v1.1c0 .7-.6 1.2-1.3 1.2zM855 232.2h-1.1c-.7 0-1.2-.5-1.2-1.2v-1.1c0-.7.5-1.2 1.2-1.2h1.1c.7 0 1.2.5 1.2 1.2v1.1c0 .7-.5 1.2-1.2 1.2zM862.1 232.2H861c-.7 0-1.2-.5-1.2-1.2v-1.1c0-.7.5-1.2 1.2-1.2h1.1c.7 0 1.2.5 1.2 1.2v1.1c0 .7-.6 1.2-1.2 1.2zM898.9 232.2h-1.1c-.7 0-1.2-.5-1.2-1.2v-1.1c0-.7.5-1.2 1.2-1.2h1.1c.7 0 1.2.5 1.2 1.2v1.1c0 .7-.6 1.2-1.2 1.2zM879.1 239.9H878c-.7 0-1.2-.5-1.2-1.2v-1.1c0-.7.5-1.2 1.2-1.2h1.1c.7 0 1.2.5 1.2 1.2v1.1c0 .7-.5 1.2-1.2 1.2zM886.1 239.9H885c-.7 0-1.2-.5-1.2-1.2v-1.1c0-.7.5-1.2 1.2-1.2h1.1c.7 0 1.2.5 1.2 1.2v1.1c0 .7-.5 1.2-1.2 1.2z"/>
      <path class="prov0" d="M886.2 239.9h-1.1c-.7 0-1.2-.5-1.2-1.2v-1.1c0-.7.5-1.2 1.2-1.2h1.1c.7 0 1.2.5 1.2 1.2v1.1c0 .7-.5 1.2-1.2 1.2zM886.2 232.2h-14.6c-.7 0-1.2-.5-1.2-1.2v-1.1c0-.7.5-1.2 1.2-1.2h14.6c.7 0 1.2.5 1.2 1.2v1.1c0 .7-.5 1.2-1.2 1.2zM866.7 245v11.6M885.4 253.2h-1.5c-.9 0-1.7-.8-1.7-1.7V250c0-.9.8-1.7 1.7-1.7h1.5c.9 0 1.7.8 1.7 1.7v1.5c0 .9-.7 1.7-1.7 1.7zM956.7 256.6H913c-2.2 0-4-1.8-4-4V249c0-2.2 1.8-4 4-4h43.7c2.2 0 4 1.8 4 4v3.6c0 2.2-1.8 4-4 4zM915.5 239.9h-1.1c-.7 0-1.2-.5-1.2-1.2v-1.1c0-.7.5-1.2 1.2-1.2h1.1c.7 0 1.2.5 1.2 1.2v1.1c0 .7-.5 1.2-1.2 1.2zM922.6 239.9h-1.1c-.7 0-1.2-.5-1.2-1.2v-1.1c0-.7.5-1.2 1.2-1.2h1.1c.7 0 1.2.5 1.2 1.2v1.1c0 .7-.6 1.2-1.2 1.2zM932.6 239.9h-1.1c-.7 0-1.2-.5-1.2-1.2v-1.1c0-.7.5-1.2 1.2-1.2h1.1c.7 0 1.2.5 1.2 1.2v1.1c0 .7-.6 1.2-1.2 1.2zM915.5 232.2h-1.1c-.7 0-1.2-.5-1.2-1.2v-1.1c0-.7.5-1.2 1.2-1.2h1.1c.7 0 1.2.5 1.2 1.2v1.1c0 .7-.5 1.2-1.2 1.2zM922.6 232.2h-1.1c-.7 0-1.2-.5-1.2-1.2v-1.1c0-.7.5-1.2 1.2-1.2h1.1c.7 0 1.2.5 1.2 1.2v1.1c0 .7-.6 1.2-1.2 1.2zM959.4 232.2h-1.1c-.7 0-1.2-.5-1.2-1.2v-1.1c0-.7.5-1.2 1.2-1.2h1.1c.7 0 1.2.5 1.2 1.2v1.1c0 .7-.6 1.2-1.2 1.2zM939.6 239.9h-1.1c-.7 0-1.2-.5-1.2-1.2v-1.1c0-.7.5-1.2 1.2-1.2h1.1c.7 0 1.2.5 1.2 1.2v1.1c.1.7-.5 1.2-1.2 1.2zM946.6 239.9h-1.1c-.7 0-1.2-.5-1.2-1.2v-1.1c0-.7.5-1.2 1.2-1.2h1.1c.7 0 1.2.5 1.2 1.2v1.1c0 .7-.5 1.2-1.2 1.2z"/>
      <path class="prov0" d="M946.7 239.9h-1.1c-.7 0-1.2-.5-1.2-1.2v-1.1c0-.7.5-1.2 1.2-1.2h1.1c.7 0 1.2.5 1.2 1.2v1.1c0 .7-.5 1.2-1.2 1.2zM946.7 232.2h-14.6c-.7 0-1.2-.5-1.2-1.2v-1.1c0-.7.5-1.2 1.2-1.2h14.6c.7 0 1.2.5 1.2 1.2v1.1c0 .7-.5 1.2-1.2 1.2zM927.2 245v11.6M946 253.2h-1.5c-.9 0-1.7-.8-1.7-1.7V250c0-.9.8-1.7 1.7-1.7h1.5c.9 0 1.7.8 1.7 1.7v1.5c-.1.9-.8 1.7-1.7 1.7zM1017.2 256.6h-43.7c-2.2 0-4-1.8-4-4V249c0-2.2 1.8-4 4-4h43.7c2.2 0 4 1.8 4 4v3.6c0 2.2-1.8 4-4 4zM976 239.9h-1.1c-.7 0-1.2-.5-1.2-1.2v-1.1c0-.7.5-1.2 1.2-1.2h1.1c.7 0 1.2.5 1.2 1.2v1.1c0 .7-.5 1.2-1.2 1.2zM983.1 239.9H982c-.7 0-1.2-.5-1.2-1.2v-1.1c0-.7.5-1.2 1.2-1.2h1.1c.7 0 1.2.5 1.2 1.2v1.1c0 .7-.5 1.2-1.2 1.2zM993.1 239.9H992c-.7 0-1.2-.5-1.2-1.2v-1.1c0-.7.5-1.2 1.2-1.2h1.1c.7 0 1.2.5 1.2 1.2v1.1c0 .7-.6 1.2-1.2 1.2zM976 232.2h-1.1c-.7 0-1.2-.5-1.2-1.2v-1.1c0-.7.5-1.2 1.2-1.2h1.1c.7 0 1.2.5 1.2 1.2v1.1c0 .7-.5 1.2-1.2 1.2zM983.1 232.2H982c-.7 0-1.2-.5-1.2-1.2v-1.1c0-.7.5-1.2 1.2-1.2h1.1c.7 0 1.2.5 1.2 1.2v1.1c0 .7-.5 1.2-1.2 1.2zM1019.9 232.2h-1.1c-.7 0-1.2-.5-1.2-1.2v-1.1c0-.7.5-1.2 1.2-1.2h1.1c.7 0 1.2.5 1.2 1.2v1.1c0 .7-.5 1.2-1.2 1.2zM1000.1 239.9H999c-.7 0-1.2-.5-1.2-1.2v-1.1c0-.7.5-1.2 1.2-1.2h1.1c.7 0 1.2.5 1.2 1.2v1.1c.1.7-.5 1.2-1.2 1.2zM1007.1 239.9h-1.1c-.7 0-1.2-.5-1.2-1.2v-1.1c0-.7.5-1.2 1.2-1.2h1.1c.7 0 1.2.5 1.2 1.2v1.1c0 .7-.5 1.2-1.2 1.2z"/>
      <path class="prov0" d="M1007.2 239.9h-1.1c-.7 0-1.2-.5-1.2-1.2v-1.1c0-.7.5-1.2 1.2-1.2h1.1c.7 0 1.2.5 1.2 1.2v1.1c0 .7-.5 1.2-1.2 1.2z"/>
      <path id="svg-concept" class="prov1" d="M1075.9 251.3c0 1.5-1.2 2.7-2.7 2.7-1.5 0-2.7-1.2-2.7-2.7 0-1.5 1.2-2.7 2.7-2.7 1.5 0 2.7 1.2 2.7 2.7z"/>
      <path class="prov0" d="M1073.7 243.6h-1.1c-.7 0-1.2-.5-1.2-1.2v-1.1c0-.7.5-1.2 1.2-1.2h1.1c.7 0 1.2.5 1.2 1.2v1.1c0 .6-.5 1.2-1.2 1.2zM1073.7 235.7h-1.1c-.7 0-1.2-.5-1.2-1.2v-1.1c0-.7.5-1.2 1.2-1.2h1.1c.7 0 1.2.5 1.2 1.2v1.1c0 .7-.5 1.2-1.2 1.2zM1007.2 232.2h-14.6c-.7 0-1.2-.5-1.2-1.2v-1.1c0-.7.5-1.2 1.2-1.2h14.6c.7 0 1.2.5 1.2 1.2v1.1c0 .7-.5 1.2-1.2 1.2zM987.7 245v11.6M1006.5 253.2h-1.5c-.9 0-1.7-.8-1.7-1.7V250c0-.9.8-1.7 1.7-1.7h1.5c.9 0 1.7.8 1.7 1.7v1.5c-.1.9-.8 1.7-1.7 1.7zM905.1 221.4v43.4M837.1 235.9v12.9M1088.4 235.9v12.9M965.2 221.4v43.4M1025.3 221.4v43.4"/>
    </g>
    <g>
      <path class="prov2" d="M276.8 257c0 4.3-3.2 7.8-7.2 7.8H16c-4 0-7.2-3.5-7.2-7.8v-27.8c0-4.3 3.2-7.8 7.2-7.8h253.6c3.9 0 7.2 3.5 7.2 7.8V257z"/>
      <path id="svg-concept" class="prov1" d="M79.1 239.9H78c-.7 0-1.2-.5-1.2-1.2v-1.1c0-.7.5-1.2 1.2-1.2h1.1c.7 0 1.2.5 1.2 1.2v1.1c0 .7-.5 1.2-1.2 1.2zM74.6 253.2H73c-.9 0-1.7-.8-1.7-1.7V250c0-.9.8-1.7 1.7-1.7h1.5c.9 0 1.7.8 1.7 1.7v1.5c0 .9-.7 1.7-1.6 1.7zM139.6 239.9h-1.1c-.7 0-1.2-.5-1.2-1.2v-1.1c0-.7.5-1.2 1.2-1.2h1.1c.7 0 1.2.5 1.2 1.2v1.1c0 .7-.5 1.2-1.2 1.2zM135.1 253.2h-1.5c-.9 0-1.7-.8-1.7-1.7V250c0-.9.8-1.7 1.7-1.7h1.5c.9 0 1.7.8 1.7 1.7v1.5c-.1.9-.8 1.7-1.7 1.7zM200.1 239.9H199c-.7 0-1.2-.5-1.2-1.2v-1.1c0-.7.5-1.2 1.2-1.2h1.1c.7 0 1.2.5 1.2 1.2v1.1c0 .7-.5 1.2-1.2 1.2zM195.6 253.2h-1.5c-.9 0-1.7-.8-1.7-1.7V250c0-.9.8-1.7 1.7-1.7h1.5c.9 0 1.7.8 1.7 1.7v1.5c0 .9-.8 1.7-1.7 1.7zM243 243.1c0 5.1-4.2 9.3-9.3 9.3-5.1 0-9.3-4.2-9.3-9.3 0-5.1 4.2-9.3 9.3-9.3 5.2 0 9.3 4.2 9.3 9.3z"/>
      <path id="svg-concept" class="prov1" d="M237.2 243.1c0 1.9-1.5 3.4-3.4 3.4s-3.4-1.5-3.4-3.4 1.5-3.4 3.4-3.4c1.8 0 3.4 1.5 3.4 3.4zM243 243.1h-5.8M230.3 243.1h-5.9"/>
      <path class="prov0" d="M23.6 221.4v43.3M262 221.4v43.4M76.3 256.6H32.6c-2.2 0-4-1.8-4-4V249c0-2.2 1.8-4 4-4h43.7c2.2 0 4 1.8 4 4v3.6c0 2.2-1.8 4-4 4zM35.1 239.9H34c-.7 0-1.2-.5-1.2-1.2v-1.1c0-.7.5-1.2 1.2-1.2h1.1c.7 0 1.2.5 1.2 1.2v1.1c0 .7-.5 1.2-1.2 1.2zM42.2 239.9h-1.1c-.7 0-1.2-.5-1.2-1.2v-1.1c0-.7.5-1.2 1.2-1.2h1.1c.7 0 1.2.5 1.2 1.2v1.1c0 .7-.5 1.2-1.2 1.2zM52.2 239.9h-1.1c-.7 0-1.2-.5-1.2-1.2v-1.1c0-.7.5-1.2 1.2-1.2h1.1c.7 0 1.2.5 1.2 1.2v1.1c0 .7-.6 1.2-1.2 1.2zM35.1 232.2H34c-.7 0-1.2-.5-1.2-1.2v-1.1c0-.7.5-1.2 1.2-1.2h1.1c.7 0 1.2.5 1.2 1.2v1.1c0 .7-.5 1.2-1.2 1.2zM42.2 232.2h-1.1c-.7 0-1.2-.5-1.2-1.2v-1.1c0-.7.5-1.2 1.2-1.2h1.1c.7 0 1.2.5 1.2 1.2v1.1c0 .7-.5 1.2-1.2 1.2zM79 232.2h-1.1c-.7 0-1.2-.5-1.2-1.2v-1.1c0-.7.5-1.2 1.2-1.2H79c.7 0 1.2.5 1.2 1.2v1.1c0 .7-.5 1.2-1.2 1.2zM59.3 239.9h-1.1c-.7 0-1.2-.5-1.2-1.2v-1.1c0-.7.5-1.2 1.2-1.2h1.1c.7 0 1.2.5 1.2 1.2v1.1c0 .7-.6 1.2-1.2 1.2zM66.2 239.9h-1.1c-.7 0-1.2-.5-1.2-1.2v-1.1c0-.7.5-1.2 1.2-1.2h1.1c.7 0 1.2.5 1.2 1.2v1.1c0 .7-.5 1.2-1.2 1.2z"/>
      <path class="prov0" d="M66.3 239.9h-1.1c-.7 0-1.2-.5-1.2-1.2v-1.1c0-.7.5-1.2 1.2-1.2h1.1c.7 0 1.2.5 1.2 1.2v1.1c.1.7-.5 1.2-1.2 1.2zM66.3 232.2H51.7c-.7 0-1.2-.5-1.2-1.2v-1.1c0-.7.5-1.2 1.2-1.2h14.6c.7 0 1.2.5 1.2 1.2v1.1c.1.7-.5 1.2-1.2 1.2zM46.8 245v11.6M65.6 253.2h-1.5c-.9 0-1.7-.8-1.7-1.7V250c0-.9.8-1.7 1.7-1.7h1.5c.9 0 1.7.8 1.7 1.7v1.5c0 .9-.8 1.7-1.7 1.7zM136.8 256.6H93.1c-2.2 0-4-1.8-4-4V249c0-2.2 1.8-4 4-4h43.7c2.2 0 4 1.8 4 4v3.6c0 2.2-1.8 4-4 4zM95.6 239.9h-1.1c-.7 0-1.2-.5-1.2-1.2v-1.1c0-.7.5-1.2 1.2-1.2h1.1c.7 0 1.2.5 1.2 1.2v1.1c0 .7-.5 1.2-1.2 1.2zM102.7 239.9h-1.1c-.7 0-1.2-.5-1.2-1.2v-1.1c0-.7.5-1.2 1.2-1.2h1.1c.7 0 1.2.5 1.2 1.2v1.1c0 .7-.5 1.2-1.2 1.2zM112.7 239.9h-1.1c-.7 0-1.2-.5-1.2-1.2v-1.1c0-.7.5-1.2 1.2-1.2h1.1c.7 0 1.2.5 1.2 1.2v1.1c0 .7-.6 1.2-1.2 1.2zM95.6 232.2h-1.1c-.7 0-1.2-.5-1.2-1.2v-1.1c0-.7.5-1.2 1.2-1.2h1.1c.7 0 1.2.5 1.2 1.2v1.1c0 .7-.5 1.2-1.2 1.2zM102.7 232.2h-1.1c-.7 0-1.2-.5-1.2-1.2v-1.1c0-.7.5-1.2 1.2-1.2h1.1c.7 0 1.2.5 1.2 1.2v1.1c0 .7-.5 1.2-1.2 1.2zM139.5 232.2h-1.1c-.7 0-1.2-.5-1.2-1.2v-1.1c0-.7.5-1.2 1.2-1.2h1.1c.7 0 1.2.5 1.2 1.2v1.1c0 .7-.5 1.2-1.2 1.2zM119.8 239.9h-1.1c-.7 0-1.2-.5-1.2-1.2v-1.1c0-.7.5-1.2 1.2-1.2h1.1c.7 0 1.2.5 1.2 1.2v1.1c0 .7-.6 1.2-1.2 1.2zM126.7 239.9h-1.1c-.7 0-1.2-.5-1.2-1.2v-1.1c0-.7.5-1.2 1.2-1.2h1.1c.7 0 1.2.5 1.2 1.2v1.1c0 .7-.5 1.2-1.2 1.2z"/>
      <path class="prov0" d="M126.8 239.9h-1.1c-.7 0-1.2-.5-1.2-1.2v-1.1c0-.7.5-1.2 1.2-1.2h1.1c.7 0 1.2.5 1.2 1.2v1.1c.1.7-.5 1.2-1.2 1.2zM126.8 232.2h-14.6c-.7 0-1.2-.5-1.2-1.2v-1.1c0-.7.5-1.2 1.2-1.2h14.6c.7 0 1.2.5 1.2 1.2v1.1c.1.7-.5 1.2-1.2 1.2zM107.3 245v11.6M126.1 253.2h-1.5c-.9 0-1.7-.8-1.7-1.7V250c0-.9.8-1.7 1.7-1.7h1.5c.9 0 1.7.8 1.7 1.7v1.5c0 .9-.8 1.7-1.7 1.7zM197.3 256.6h-43.7c-2.2 0-4-1.8-4-4V249c0-2.2 1.8-4 4-4h43.7c2.2 0 4 1.8 4 4v3.6c0 2.2-1.8 4-4 4zM156.1 239.9H155c-.7 0-1.2-.5-1.2-1.2v-1.1c0-.7.5-1.2 1.2-1.2h1.1c.7 0 1.2.5 1.2 1.2v1.1c0 .7-.5 1.2-1.2 1.2zM163.2 239.9h-1.1c-.7 0-1.2-.5-1.2-1.2v-1.1c0-.7.5-1.2 1.2-1.2h1.1c.7 0 1.2.5 1.2 1.2v1.1c0 .7-.5 1.2-1.2 1.2zM173.2 239.9h-1.1c-.7 0-1.2-.5-1.2-1.2v-1.1c0-.7.5-1.2 1.2-1.2h1.1c.7 0 1.2.5 1.2 1.2v1.1c0 .7-.5 1.2-1.2 1.2zM156.1 232.2H155c-.7 0-1.2-.5-1.2-1.2v-1.1c0-.7.5-1.2 1.2-1.2h1.1c.7 0 1.2.5 1.2 1.2v1.1c0 .7-.5 1.2-1.2 1.2zM163.2 232.2h-1.1c-.7 0-1.2-.5-1.2-1.2v-1.1c0-.7.5-1.2 1.2-1.2h1.1c.7 0 1.2.5 1.2 1.2v1.1c0 .7-.5 1.2-1.2 1.2zM200 232.2h-1.1c-.7 0-1.2-.5-1.2-1.2v-1.1c0-.7.5-1.2 1.2-1.2h1.1c.7 0 1.2.5 1.2 1.2v1.1c0 .7-.5 1.2-1.2 1.2zM180.3 239.9h-1.1c-.7 0-1.2-.5-1.2-1.2v-1.1c0-.7.5-1.2 1.2-1.2h1.1c.7 0 1.2.5 1.2 1.2v1.1c0 .7-.6 1.2-1.2 1.2zM187.2 239.9h-1.1c-.7 0-1.2-.5-1.2-1.2v-1.1c0-.7.5-1.2 1.2-1.2h1.1c.7 0 1.2.5 1.2 1.2v1.1c.1.7-.5 1.2-1.2 1.2z"/>
      <path class="prov0" d="M187.4 239.9h-1.1c-.7 0-1.2-.5-1.2-1.2v-1.1c0-.7.5-1.2 1.2-1.2h1.1c.7 0 1.2.5 1.2 1.2v1.1c0 .7-.6 1.2-1.2 1.2z"/>
      <path id="svg-concept" class="prov1" d="M256 251.3c0 1.5-1.2 2.7-2.7 2.7-1.5 0-2.7-1.2-2.7-2.7 0-1.5 1.2-2.7 2.7-2.7 1.5 0 2.7 1.2 2.7 2.7z"/>
      <path class="prov0" d="M253.8 243.6h-1.1c-.7 0-1.2-.5-1.2-1.2v-1.1c0-.7.5-1.2 1.2-1.2h1.1c.7 0 1.2.5 1.2 1.2v1.1c0 .6-.5 1.2-1.2 1.2zM253.8 235.7h-1.1c-.7 0-1.2-.5-1.2-1.2v-1.1c0-.7.5-1.2 1.2-1.2h1.1c.7 0 1.2.5 1.2 1.2v1.1c0 .7-.5 1.2-1.2 1.2zM187.3 232.2h-14.6c-.7 0-1.2-.5-1.2-1.2v-1.1c0-.7.5-1.2 1.2-1.2h14.6c.7 0 1.2.5 1.2 1.2v1.1c.1.7-.5 1.2-1.2 1.2zM167.8 245v11.6M186.6 253.2h-1.5c-.9 0-1.7-.8-1.7-1.7V250c0-.9.8-1.7 1.7-1.7h1.5c.9 0 1.7.8 1.7 1.7v1.5c0 .9-.8 1.7-1.7 1.7zM85.3 221.4v43.4M17.2 235.9v12.9M268.5 235.9v12.9M145.4 221.4v43.4M205.4 221.4v43.4"/>
    </g>
    <animateMotion path="M0, 0 1440 0" begin="0s" dur="5s" fill="freeze"/>
    <animateMotion path="M-1000, 0 1440 0" begin="6s" dur="6s" repeatCount="indefinite"/>
  </g>
  <g>
    <path class="prov3" d="M359.3 361.4C421 468.2 557.7 504.8 664.5 443c106.8-61.7 143.4-198.4 81.6-305.2S547.8-5.6 441 56.1c-106.9 61.8-143.4 198.4-81.7 305.3zM486.1 84.9c20.8 36.1 67 48.4 103.1 27.6 19.8-11.4 32.4-30.5 36.4-51.3 41.4 16.2 77.9 46 101.9 87.5s31.6 88 25 131.9c-20-7-42.8-5.6-62.6 5.9-36.1 20.8-48.4 67-27.6 103.1 4.4 7.6 9.9 14.1 16.1 19.5-7.8 6.2-16.2 12-25.1 17.1-74.5 43-164.9 33.5-228.3-17 27-23.2 34.6-63 16.1-94.9-18.5-31.9-56.8-45.3-90.3-33.4-12.1-80.2 24.8-163.3 99.2-206.3 8.9-5.2 18.1-9.6 27.4-13.2 1.4 8 4.3 16 8.7 23.5z"/>
    <path class="prov3" d="M403.4 345.8c-4-1.1-6.3-5.1-5.3-9.1 1.1-4 5.1-6.3 9.1-5.3 4 1.1 6.3 5.1 5.3 9.1-1.1 4-5.1 6.3-9.1 5.3z"/>
    <path class="prov3" d="M404.6 341.2c-1.5-.4-2.4-1.9-2-3.4.4-1.5 1.9-2.3 3.4-2 1.5.4 2.3 1.9 2 3.4-.4 1.5-1.9 2.4-3.4 2zM403.4 345.8l1.2-4.6M406 335.9l1.2-4.5M697.7 340c-4-1.1-6.3-5.1-5.3-9.1 1.1-4 5.1-6.3 9.1-5.3 4 1.1 6.3 5.1 5.3 9.1-1.1 4-5.1 6.3-9.1 5.3z"/>
    <path class="prov3" d="M698.9 335.5c-1.5-.4-2.4-1.9-2-3.4.4-1.5 1.9-2.3 3.4-2 1.5.4 2.3 1.9 2 3.4-.4 1.5-1.9 2.4-3.4 2zM697.7 340l1.2-4.5M700.3 330.1l1.2-4.5M553.4 89.6c-4-1.1-6.3-5.1-5.3-9.1 1.1-4 5.1-6.3 9.1-5.3 4 1.1 6.3 5.1 5.3 9.1-1.1 4-5.1 6.3-9.1 5.3z"/>
    <path class="prov3" d="M554.6 85.1c-1.5-.4-2.4-1.9-2-3.4.4-1.5 1.9-2.3 3.4-2 1.5.4 2.3 1.9 2 3.4-.4 1.5-1.9 2.4-3.4 2zM553.4 89.6l1.2-4.5M556 79.7l1.2-4.5"/>
  </g>
  <g>
    <path class="prov3" d="M636.2.9c6.5 0 11.8 5.3 11.8 11.8v124.4c0 6.5-5.3 11.8-11.8 11.8H467.4c-6.5 0-11.8-5.3-11.8-11.8V12.7c0-6.5 5.3-11.8 11.8-11.8h168.8z"/>
    <path id="svg-concept" class="prov4" d="M630.4 24.7c0 .3-.2.5-.5.5h-16.7c-.3 0-.5-.2-.5-.5v-1.8c0-.3.2-.5.5-.5H630c.3 0 .5.2.5.5v1.8zM630.4 39.9c0 .3-.2.5-.5.5h-16.7c-.3 0-.5-.2-.5-.5v-1.8c0-.3.2-.5.5-.5H630c.3 0 .5.2.5.5v1.8zM600.3 24.7c0 .3-.2.5-.5.5h-16.7c-.3 0-.5-.2-.5-.5v-1.8c0-.3.2-.5.5-.5h16.7c.3 0 .5.2.5.5v1.8z"/>
    <path class="prov0" d="M475.3 31.4c-1.4-1.8-2.3-4-2.5-6.5-.8-7.4 4.5-14 11.8-14.8 4.9-.6 9.5 1.6 12.3 5.4"/>
    <path id="svg-concept" class="prov1" d="M496.3 23.3l-10.1.1"/>
    <path class="prov0" d="M490.2 10.7l-.4 1.3"/>
    <path id="svg-concept" class="prov1" d="M496.9 15.5l-1.2.8M499.5 23.2l-1.4.1M497 31.1l-1.1-.8"/>
    <path class="prov0" d="M472.7 23.5h1.4M475.2 15.5l1.2.9M481.9 10.7l.5 1.3M475.3 31.4l1.1-.8"/>
    <path id="svg-concept" class="prov4" d="M486.5 23.4c0 .2-.2.4-.4.4s-.4-.2-.4-.4.2-.4.4-.4c.3 0 .4.2.4.4z"/>
    <path class="prov0" d="M473.4 130.7h157.2"/>
    <path class="prov5" d="M473.4 76.4h1.5"/>
    <path class="prov6" d="M477.9 76.4h149.7"/>
    <path class="prov5" d="M629.1 76.4h1.5M473.4 110.4h1.5"/>
    <path class="prov6" d="M477.9 110.4h149.7"/>
    <path class="prov5" d="M629.1 110.4h1.5M475 93.5h1.5"/>
    <path class="prov6" d="M479.6 93.5h149.7"/>
    <path class="prov5" d="M630.8 93.5h1.5"/>
    <path class="prov0" d="M473.4 130.7V59.5"/>
    <path class="prov7" d="M634 53.4h-24.8V9.7H634v43.7z"/>
    <path class="prov7" d="M630.4 17.1c0 .3-.2.5-.5.5h-16.7c-.3 0-.5-.2-.5-.5v-1.8c0-.3.2-.5.5-.5H630c.3 0 .5.2.5.5v1.8zM630.4 32.3c0 .3-.2.5-.5.5h-16.7c-.3 0-.5-.2-.5-.5v-1.8c0-.3.2-.5.5-.5H630c.3 0 .5.2.5.5v1.8zM630.4 47.6c0 .3-.2.5-.5.5h-16.7c-.3 0-.5-.2-.5-.5v-1.8c0-.3.2-.5.5-.5H630c.3 0 .5.2.5.5v1.8zM603.9 53.4h-24.8V9.7h24.8v43.7z"/>
    <path class="prov7" d="M600.3 17.1c0 .3-.2.5-.5.5h-16.7c-.3 0-.5-.2-.5-.5v-1.8c0-.3.2-.5.5-.5h16.7c.3 0 .5.2.5.5v1.8zM600.3 32.3c0 .3-.2.5-.5.5h-16.7c-.3 0-.5-.2-.5-.5v-1.8c0-.3.2-.5.5-.5h16.7c.3 0 .5.2.5.5v1.8zM600.3 39.9c0 .3-.2.5-.5.5h-16.7c-.3 0-.5-.2-.5-.5v-1.8c0-.3.2-.5.5-.5h16.7c.3 0 .5.2.5.5v1.8zM600.3 47.6c0 .3-.2.5-.5.5h-16.7c-.3 0-.5-.2-.5-.5v-1.8c0-.3.2-.5.5-.5h16.7c.3 0 .5.2.5.5v1.8z"/>
    <path id="svg-concept" class="prov1" d="M496.9 15.5c1.3 1.8 2.2 4 2.5 6.4.4 3.4-.5 6.6-2.4 9.2"/>
    <path class="prov0" d="M517.1 31.4c-1.4-1.8-2.3-4-2.5-6.5-.8-7.4 4.5-14 11.8-14.8 4.9-.6 9.5 1.6 12.3 5.4"/>
    <path id="svg-concept" class="prov1" d="M538 23.3l-10.1.1"/>
    <path class="prov0" d="M532 10.7l-.5 1.3"/>
    <path id="svg-concept" class="prov1" d="M538.6 15.5l-1.1.8M541.2 23.2l-1.3.1M538.8 31.1l-1.2-.8"/>
    <path class="prov0" d="M514.4 23.5h1.4M517 15.5l1.2.9M523.7 10.7l.4 1.3M517 31.4l1.1-.8"/>
    <path id="svg-concept" class="prov4" d="M528.3 23.4c0 .2-.2.4-.4.4s-.4-.2-.4-.4.2-.4.4-.4.4.2.4.4z"/>
    <path id="svg-concept" class="prov1" d="M538.6 15.5c1.3 1.8 2.2 4 2.5 6.4.4 3.4-.5 6.6-2.4 9.2"/>
    <path fill="none" stroke="gray" stroke-miterlimit="10" d="M473.4 92.5l5.7-1.7 6.9 3.1 6.8-4.3 6.4 4.4 6-6.5 7.9 14.4 8.8-20.2 7.2 10.8 6.6-33 9.5 56.8 8.4-43.9 6.5 28 9-16.7 8.2 8.8 6.6-4.8 7.3 4.8 6.9 3.6 7.8-6.9 8.4 5.1 6.7-1.8h9.6"/>
    <path class="prov0" d="M648.1 32.4h1.3c.3 0 .6.3.6.6v4.4c0 .3-.3.6-.6.6h-1.3M648.1 23.8h1.3c.3 0 .6.3.6.6v4.4c0 .3-.3.6-.6.6h-1.3"/>
    <path id="svg-concept" class="prov4" d="M630.6 130.7c0 1-.8 1.7-1.7 1.7-1 0-1.7-.8-1.7-1.7s.8-1.7 1.7-1.7c.9 0 1.7.8 1.7 1.7z"/>
    <g>
      <path id="svg-concept" fill="none" stroke="#ee5586" stroke-width="2" stroke-linecap="round" stroke-linejoin="round" stroke-miterlimit="10" d="M485.7 60.2v63.1"/>
      <animateMotion path="M0, 0 140 0 0 0" begin="0s" dur="8s" repeatCount="indefinite"/>
    </g>
  </g>
</svg>
