<svg version="1.1" id="Layer_1" xmlns="http://www.w3.org/2000/svg" x="0" y="0" viewBox="0 0 1105.7 406" xml:space="preserve">
  <style>
    .quarantine0{fill:#fff;stroke:gray}.quarantine0,.quarantine1,.quarantine2,.quarantine3,.quarantine4{stroke-linecap:round;stroke-linejoin:round;stroke-miterlimit:10}.quarantine1{stroke-width:2;fill:#fff;stroke:#ee5586}.quarantine2,.quarantine3,.quarantine4{fill:none;stroke:gray}.quarantine3,.quarantine4{fill:#fff;stroke-width:2}.quarantine4{stroke:#ee5586;stroke-width:3}
  </style>
  <path class="quarantine0" d="M-.8 314.1h1105.5"/>
  <path id="svg-concept" class="quarantine1" d="M-.8 251.4h1105.5"/>
  <path class="quarantine2" d="M18 255.3l-10.1-10M13.5 258.9V243M11 253.2l4.9-4.9M58.7 255.3l-10-10M54.3 258.9V243M51.8 253.2l4.9-4.9M99.5 255.3l-10-10M95 258.9V243M92.6 253.2l4.9-4.9M140.3 255.3l-10-10M135.8 258.9V243M133.3 253.2l5-4.9M181.1 255.3l-10.1-10M176.6 258.9V243M174.1 253.2l4.9-4.9M221.8 255.3l-10-10M217.3 258.9V243M214.9 253.2l4.9-4.9M262.6 255.3l-10-10M258.1 258.9V243M255.7 253.2l4.9-4.9M303.4 255.3l-10.1-10M298.9 258.9V243M296.4 253.2l4.9-4.9M344.1 255.3l-10-10M339.7 258.9V243M337.2 253.2l4.9-4.9"/>
  <g>
    <path class="quarantine2" d="M384.9 255.3l-10-10M380.4 258.9V243M378 253.2l4.9-4.9"/>
  </g>
  <g>
    <path class="quarantine2" d="M425.7 255.3l-10-10M421.2 258.9V243M418.7 253.2l5-4.9"/>
  </g>
  <g>
    <path class="quarantine2" d="M466.5 255.3l-10.1-10M462 258.9V243M459.5 253.2l4.9-4.9"/>
  </g>
  <g>
    <path class="quarantine2" d="M507.2 255.3l-10-10M502.7 258.9V243M500.3 253.2l4.9-4.9"/>
  </g>
  <g>
    <path class="quarantine2" d="M548 255.3l-10-10M543.5 258.9V243M541.1 253.2l4.9-4.9"/>
  </g>
  <g>
    <path class="quarantine2" d="M588.8 255.3l-10.1-10M584.3 258.9V243M581.8 253.2l4.9-4.9"/>
  </g>
  <g>
    <path class="quarantine2" d="M629.5 255.3l-10-10M625.1 258.9V243M622.6 253.2l4.9-4.9"/>
  </g>
  <g>
    <path class="quarantine2" d="M670.3 255.3l-10-10M665.8 258.9V243M663.4 253.2l4.9-4.9"/>
  </g>
  <g>
    <path class="quarantine2" d="M711.1 255.3l-10-10M706.6 258.9V243M704.1 253.2l5-4.9"/>
  </g>
  <g>
    <path class="quarantine2" d="M751.9 255.3l-10.1-10M747.4 258.9V243M744.9 253.2l4.9-4.9"/>
  </g>
  <g>
    <path class="quarantine2" d="M792.6 255.3l-10-10M788.1 258.9V243M785.7 253.2l4.9-4.9"/>
  </g>
  <g>
    <path class="quarantine2" d="M833.4 255.3l-10-10M828.9 258.9V243M826.5 253.2l4.9-4.9"/>
  </g>
  <g>
    <path class="quarantine2" d="M874.2 255.3l-10.1-10M869.7 258.9V243M867.2 253.2l4.9-4.9"/>
  </g>
  <g>
    <path class="quarantine2" d="M914.9 255.3l-10-10M910.5 258.9V243M908 253.2l4.9-4.9"/>
  </g>
  <g>
    <path class="quarantine2" d="M955.7 255.3l-10-10M951.2 258.9V243M948.8 253.2l4.9-4.9"/>
  </g>
  <g>
    <path class="quarantine2" d="M996.5 255.3l-10-10M992 258.9V243M989.5 253.2l5-4.9"/>
  </g>
  <g>
    <path class="quarantine2" d="M1037.3 255.3l-10.1-10M1032.8 258.9V243M1030.3 253.2l4.9-4.9"/>
  </g>
  <g>
    <path class="quarantine2" d="M1078 255.3l-10-10M1073.5 258.9V243M1071.1 253.2l4.9-4.9"/>
  </g>
  <g>
    <path id="svg-concept" class="quarantine1" d="M-.8 191.4h1105.5"/>
    <path class="quarantine2" d="M37.3 195.2l-10-10M32.8 198.8v-15.9M30.3 193.2l5-5M78.1 195.2l-10.1-10M73.6 198.8v-15.9M71.1 193.2l4.9-5M118.8 195.2l-10-10M114.3 198.8v-15.9M111.9 193.2l4.9-5M159.6 195.2l-10-10M155.1 198.8v-15.9M152.7 193.2l4.9-5M200.4 195.2l-10.1-10M195.9 198.8v-15.9M193.4 193.2l4.9-5M241.1 195.2l-10-10M236.7 198.8v-15.9M234.2 193.2l4.9-5M281.9 195.2l-10-10M277.4 198.8v-15.9M275 193.2l4.9-5M322.7 195.2l-10-10M318.2 198.8v-15.9M315.7 193.2l5-5M363.5 195.2l-10.1-10M359 198.8v-15.9M356.5 193.2l4.9-5"/>
    <g>
      <path class="quarantine2" d="M404.2 195.2l-10-10M399.7 198.8v-15.9M397.3 193.2l4.9-5"/>
    </g>
    <g>
      <path class="quarantine2" d="M445 195.2l-10-10M440.5 198.8v-15.9M438.1 193.2l4.9-5"/>
    </g>
    <g>
      <path class="quarantine2" d="M485.8 195.2l-10.1-10M481.3 198.8v-15.9M478.8 193.2l4.9-5"/>
    </g>
    <g>
      <path class="quarantine2" d="M526.5 195.2l-10-10M522.1 198.8v-15.9M519.6 193.2l4.9-5"/>
    </g>
    <g>
      <path class="quarantine2" d="M567.3 195.2l-10-10M562.8 198.8v-15.9M560.4 193.2l4.9-5"/>
    </g>
    <g>
      <path class="quarantine2" d="M608.1 195.2l-10-10M603.6 198.8v-15.9M601.1 193.2l5-5"/>
    </g>
    <g>
      <path class="quarantine2" d="M648.9 195.2l-10.1-10M644.4 198.8v-15.9M641.9 193.2l4.9-5"/>
    </g>
    <g>
      <path class="quarantine2" d="M689.6 195.2l-10-10M685.1 198.8v-15.9M682.7 193.2l4.9-5"/>
    </g>
    <g>
      <path class="quarantine2" d="M730.4 195.2l-10-10M725.9 198.8v-15.9M723.5 193.2l4.9-5"/>
    </g>
    <g>
      <path class="quarantine2" d="M771.2 195.2l-10.1-10M766.7 198.8v-15.9M764.2 193.2l4.9-5"/>
    </g>
    <g>
      <path class="quarantine2" d="M811.9 195.2l-10-10M807.5 198.8v-15.9M805 193.2l4.9-5"/>
    </g>
    <g>
      <path class="quarantine2" d="M852.7 195.2l-10-10M848.2 198.8v-15.9M845.8 193.2l4.9-5"/>
    </g>
    <g>
      <path class="quarantine2" d="M893.5 195.2l-10-10M889 198.8v-15.9M886.5 193.2l5-5"/>
    </g>
    <g>
      <path class="quarantine2" d="M934.3 195.2l-10.1-10M929.8 198.8v-15.9M927.3 193.2l4.9-5"/>
    </g>
    <g>
      <path class="quarantine2" d="M975 195.2l-10-10M970.5 198.8v-15.9M968.1 193.2l4.9-5"/>
    </g>
    <g>
      <path class="quarantine2" d="M1015.8 195.2l-10-10M1011.3 198.8v-15.9M1008.9 193.2l4.9-5"/>
    </g>
    <g>
      <path class="quarantine2" d="M1056.6 195.2l-10.1-10M1052.1 198.8v-15.9M1049.6 193.2l4.9-5"/>
    </g>
    <g>
      <path class="quarantine2" d="M1097.3 195.2l-10-10M1092.9 198.8v-15.9M1090.4 193.2l4.9-5"/>
    </g>
  </g>
  <g>
    <path id="svg-concept" class="quarantine1" d="M-.8 131.3h1105.5"/>
    <path class="quarantine2" d="M18 135.1l-10.1-10M13.5 138.7v-15.9M11 133.1l4.9-4.9M58.7 135.1l-10-10M54.3 138.7v-15.9M51.8 133.1l4.9-4.9M99.5 135.1l-10-10M95 138.7v-15.9M92.6 133.1l4.9-4.9M140.3 135.1l-10-10M135.8 138.7v-15.9M133.3 133.1l5-4.9M181.1 135.1l-10.1-10M176.6 138.7v-15.9M174.1 133.1l4.9-4.9M221.8 135.1l-10-10M217.3 138.7v-15.9M214.9 133.1l4.9-4.9M262.6 135.1l-10-10M258.1 138.7v-15.9M255.7 133.1l4.9-4.9M303.4 135.1l-10.1-10M298.9 138.7v-15.9M296.4 133.1l4.9-4.9M344.1 135.1l-10-10M339.7 138.7v-15.9M337.2 133.1l4.9-4.9"/>
    <g>
      <path class="quarantine2" d="M384.9 135.1l-10-10M380.4 138.7v-15.9M378 133.1l4.9-4.9"/>
    </g>
    <g>
      <path class="quarantine2" d="M425.7 135.1l-10-10M421.2 138.7v-15.9M418.7 133.1l5-4.9"/>
    </g>
    <g>
      <path class="quarantine2" d="M466.5 135.1l-10.1-10M462 138.7v-15.9M459.5 133.1l4.9-4.9"/>
    </g>
    <g>
      <path class="quarantine2" d="M507.2 135.1l-10-10M502.7 138.7v-15.9M500.3 133.1l4.9-4.9"/>
    </g>
    <g>
      <path class="quarantine2" d="M548 135.1l-10-10M543.5 138.7v-15.9M541.1 133.1l4.9-4.9"/>
    </g>
    <g>
      <path class="quarantine2" d="M588.8 135.1l-10.1-10M584.3 138.7v-15.9M581.8 133.1l4.9-4.9"/>
    </g>
    <g>
      <path class="quarantine2" d="M629.5 135.1l-10-10M625.1 138.7v-15.9M622.6 133.1l4.9-4.9"/>
    </g>
    <g>
      <path class="quarantine2" d="M670.3 135.1l-10-10M665.8 138.7v-15.9M663.4 133.1l4.9-4.9"/>
    </g>
    <g>
      <path class="quarantine2" d="M711.1 135.1l-10-10M706.6 138.7v-15.9M704.1 133.1l5-4.9"/>
    </g>
    <g>
      <path class="quarantine2" d="M751.9 135.1l-10.1-10M747.4 138.7v-15.9M744.9 133.1l4.9-4.9"/>
    </g>
    <g>
      <path class="quarantine2" d="M792.6 135.1l-10-10M788.1 138.7v-15.9M785.7 133.1l4.9-4.9"/>
    </g>
    <g>
      <path class="quarantine2" d="M833.4 135.1l-10-10M828.9 138.7v-15.9M826.5 133.1l4.9-4.9"/>
    </g>
    <g>
      <path class="quarantine2" d="M874.2 135.1l-10.1-10M869.7 138.7v-15.9M867.2 133.1l4.9-4.9"/>
    </g>
    <g>
      <path class="quarantine2" d="M914.9 135.1l-10-10M910.5 138.7v-15.9M908 133.1l4.9-4.9"/>
    </g>
    <g>
      <path class="quarantine2" d="M955.7 135.1l-10-10M951.2 138.7v-15.9M948.8 133.1l4.9-4.9"/>
    </g>
    <g>
      <path class="quarantine2" d="M996.5 135.1l-10-10M992 138.7v-15.9M989.5 133.1l5-4.9"/>
    </g>
    <g>
      <path class="quarantine2" d="M1037.3 135.1l-10.1-10M1032.8 138.7v-15.9M1030.3 133.1l4.9-4.9"/>
    </g>
    <g>
      <path class="quarantine2" d="M1078 135.1l-10-10M1073.5 138.7v-15.9M1071.1 133.1l4.9-4.9"/>
    </g>
  </g>
  <g>
    <path class="quarantine0" d="M550 130.5c-4-1.1-6.3-5.1-5.3-9.1 1.1-4 5.1-6.3 9.1-5.3 4 1.1 6.3 5.1 5.3 9.1s-5.1 6.3-9.1 5.3z"/>
    <path class="quarantine0" d="M551.3 125.9c-1.5-.4-2.4-1.9-2-3.4.4-1.5 1.9-2.3 3.4-2s2.3 1.9 2 3.4c-.5 1.6-2 2.4-3.4 2zM550 130.5l1.2-4.6M552.7 120.6l1.2-4.5"/>
  </g>
  <g>
    <path class="quarantine0" d="M659 313.9c-4-1.1-6.3-5.1-5.3-9.1 1.1-4 5.1-6.3 9.1-5.3 4 1.1 6.3 5.1 5.3 9.1-1.1 4-5.2 6.3-9.1 5.3z"/>
    <path class="quarantine0" d="M660.2 309.3c-1.5-.4-2.4-1.9-2-3.4.4-1.5 1.9-2.3 3.4-2 1.5.4 2.3 1.9 2 3.4-.4 1.5-2 2.4-3.4 2zM659 313.8l1.2-4.5M661.6 304l1.2-4.5"/>
  </g>
  <g>
    <path class="quarantine0" d="M447 313.9c-4-1.1-6.3-5.1-5.3-9.1 1.1-4 5.1-6.3 9.1-5.3s6.3 5.1 5.3 9.1-5.1 6.3-9.1 5.3z"/>
    <path class="quarantine0" d="M448.2 309.3c-1.5-.4-2.4-1.9-2-3.4.4-1.5 1.9-2.3 3.4-2s2.3 1.9 2 3.4c-.4 1.5-1.9 2.4-3.4 2zM447 313.8l1.2-4.5M449.6 304l1.2-4.5"/>
  </g>
  <path class="quarantine0" d="M185.7 74.7h-18.6V60l9.5-51.1 9.1 51.1z"/>
  <path class="quarantine2" d="M176.6 63.7V406"/>
  <path class="quarantine0" d="M937 74.7h-18.6V60l9.5-51.1L937 60z"/>
  <path class="quarantine2" d="M927.9 63.7V406"/>
  <circle class="quarantine3" cx="927.7" cy="215.6" r="61.5"/>
  <path class="quarantine0" d="M955 222.3c.2-1.3.3-2.7.3-4 0-1.2-.1-2.3-.2-3.5l7.3-4.6c.3-.5.1-1.2-.4-1.5l-8 1c-.3-.9-.6-1.8-1-2.7l11.7-11.3c.2-.6-.1-1.2-.7-1.3l-15.6 5.4c-1.1-1.2-2.2-2.4-3.5-3.4l4.8-9.9c0-.6-.5-1-1.1-1l-9.1 7.4c-3.1-1.5-6.4-2.4-10-2.7l-6.1-15.3c-.5-.4-1.1-.3-1.5.1l-.8 15.8c-.6.1-1.2.3-1.7.5l-2.8-4c-.5-.3-1.2 0-1.4.5l.9 4.8c-3 1.4-5.8 3.3-8.1 5.6l-15.7-6.6c-.6.1-1 .6-1 1.2l11.4 12.6c-.1.3-.3.6-.4.8l-10.9.1c-.5.3-.7.9-.4 1.5l9.4 4.2c-.4 2-.7 4.1-.7 6.2 0 3.6.7 7 1.9 10.1L891 238.6c-.2.6.1 1.2.7 1.3l13.8-4.7c1.3 1.7 2.8 3.3 4.4 4.6l-3.9 8c0 .6.5 1 1.1 1l7.3-5.9c.7.4 1.4.7 2 1l3.4 1.2c2.5.7 5.1 1.1 7.8 1.1l3.9 9.8c.4.4 1.1.3 1.5-.1l.5-10.3c1.3-.3 2.6-.7 3.9-1.1l1.8 2.5c.5.3 1.2 0 1.4-.5l-.6-3.1c3.4-1.7 6.3-4 8.8-6.8l14.7 6.2c.6-.1 1-.6 1-1.2l-11.2-12.3c.2-.4.3-.7.4-1.1l10.7-.1c.5-.3.7-.9.4-1.5l-9.8-4.3z"/>
  <path id="svg-concept" class="quarantine1" d="M971.3 172.2L884.5 259"/>
  <circle class="quarantine3" cx="176" cy="215.6" r="61.5"/>
  <path class="quarantine0" d="M207.1 218.2h7.8M137.2 218.2h7.8M203 202.7l6.7-3.9M142.4 237.7l6.7-3.9M149.1 202.7l-6.7-3.9M209.7 237.7l-6.7-3.9M176 187.2c17.2 0 31.1 13.9 31.1 31.1 0 17.2-13.9 31.1-31.1 31.1-17.2 0-31.1-13.9-31.1-31.1.1-17.2 14-31.1 31.1-31.1zM158.2 192.8c10.7 7.5 24.9 7.5 35.6 0M176 198.4v50.9M182.6 190.6c0-6.2 5-11.2 11.2-11.2M169.5 190.6c0-6.2-5-11.2-11.2-11.2"/>
  <path id="svg-concept" class="quarantine1" d="M219.6 172.2L132.8 259"/>
  <path class="quarantine3" d="M711.7 288.6c20.9 36.4 2.7 71.7-39.2 71.8H427.7c-41.9-.1-60.1-35.7-39.2-72L511.8 75.9c21-36.3 55.4-36.3 76.5 0l123.4 212.7z"/>
  <g>
    <path id="svg-concept" class="quarantine4" d="M550.1 139.2v100.5M568.3 290c0 10.4-8.5 18.9-18.9 18.9-10.4 0-18.9-8.5-18.9-18.9 0-10.4 8.5-18.9 18.9-18.9 10.5 0 18.9 8.5 18.9 18.9z"/>
    <animate attributeName="opacity" values="0;1;0" dur="1s" repeatCount="indefinite"/>
  </g>
</svg>
