<svg version="1.1" id="Layer_1" xmlns="http://www.w3.org/2000/svg" x="0" y="0" viewBox="0 0 543.5 398.4" xml:space="preserve">
  <style>
    .ranking0,.ranking1{fill:#fff;stroke:gray;stroke-linecap:round;stroke-linejoin:round;stroke-miterlimit:10}.ranking1{stroke:#ee5586;stroke-width:2}.ranking2{stroke-dasharray:5}.ranking2,.ranking4{fill:none;stroke:gray;stroke-linecap:round;stroke-linejoin:round;stroke-miterlimit:10}
  </style>
  <path class="ranking0" d="M273.3 393.5L29 304.4 273.3 232 517 304.4z"/>
  <path id="svg-concept" class="ranking1" d="M273.3 353.2L2.9 254.5l270.4-80.2 269.8 80.2z"/>
  <path class="ranking2" d="M11.9 254.5h524.7M273.3 350.4V184.5"/>
  <g>
    <path id="svg-concept" class="ranking1" d="M173.8 31.1v215l44.5 16.4v.2l44.6-16.4-.1-215.2-44.5-15.8zM173.8 31.1l44.5 16.6M218.3 47.7l44.5-16.6M218.3 47.7v215"/>
  </g>
  <g>
    <path fill="#fff" d="M172.2 27.4l.1 222.6 46.1 17 46.1-17.9V27.4L218.4 11z"/>
    <animateMotion path="M0, 0 0 -260" begin="0s" dur="3s" fill="freeze"/>
  </g>
  <g>
    <path class="ranking0" d="M273.5 282v-63l44.5-16.1 44.5 16.4V282L318 298.2z"/>
    <path class="ranking0" d="M273.5 282l-44.7-15.4V127.4l44.7-16.4 44.5 16.4v75.5L273.5 219l44.5 16"/>
    <path class="ranking4" d="M318 235l44.5-15.7M318 235v63.2M228.8 127.4l44.7 15.8M318 127.4l-44.5 15.8M273.5 143.2V282"/>
  </g>
</svg>
