<svg version="1.1" id="Layer_1" xmlns="http://www.w3.org/2000/svg" x="0" y="0" viewBox="0 0 1099.5 361.5" xml:space="preserve">
  <style>
    .redund0,.redund1,.redund4{fill:none;stroke-linecap:round;stroke-linejoin:round;stroke-miterlimit:10}.redund1,.redund4{fill:#fff}.redund6{fill:#fff}
  </style>
  <path id="svg-concept" d="M910.6 100.7l-131 131M780.2 100.7l131.1 131M613.5 102.3L485.7 230.1M485.5 102.3l127.8 127.8M188.8 100.7l131.1 131M319.2 100.7l-131.1 131"/>
  <g stroke="gray">
    <circle class="redund1" cx="105.9" cy="353.2" r="6.5"/>
    <path class="redund0" d="M105.9 335.2v11.1M54.8 353.2h44.4M112.5 353.2h44.4"/>
    <path class="redund4" d="M210.6 235.3c0 3.4-2.5 6.1-5.6 6.1H6.8c-3.1 0-5.6-2.7-5.6-6.1v-21.7c0-3.4 2.5-6.1 5.6-6.1H205c3.1 0 5.6 2.7 5.6 6.1v21.7z"/>
    <path class="redund0" d="M12.7 207.5v33.8M199 207.5v33.9M184.2 224.5c0 4-3.3 7.3-7.3 7.3s-7.3-3.3-7.3-7.3 3.2-7.3 7.3-7.3c4 0 7.3 3.2 7.3 7.3z"/>
    <path class="redund0" d="M179.6 224.5c0 1.5-1.2 2.7-2.7 2.7-1.5 0-2.7-1.2-2.7-2.7s1.2-2.7 2.7-2.7c1.5 0 2.7 1.2 2.7 2.7zM184.2 224.5h-4.6M174.2 224.5h-4.5"/>
    <path class="redund4" d="M210.6 280.4c0 3.4-2.5 6.1-5.6 6.1H6.8c-3.1 0-5.6-2.7-5.6-6.1v-21.7c0-3.4 2.5-6.1 5.6-6.1H205c3.1 0 5.6 2.7 5.6 6.1v21.7z"/>
    <path class="redund0" d="M12.7 252.6v33.8M199 252.6v34M184.2 269.6c0 4-3.3 7.3-7.3 7.3s-7.3-3.3-7.3-7.3 3.2-7.3 7.3-7.3c4 0 7.3 3.3 7.3 7.3z"/>
    <path class="redund0" d="M179.6 269.6c0 1.5-1.2 2.7-2.7 2.7-1.5 0-2.7-1.2-2.7-2.7s1.2-2.7 2.7-2.7c1.5 0 2.7 1.2 2.7 2.7zM184.2 269.6h-4.6M174.2 269.6h-4.5"/>
    <path class="redund4" d="M210.6 325.5c0 3.4-2.5 6.1-5.6 6.1H6.8c-3.1 0-5.6-2.7-5.6-6.1v-21.7c0-3.4 2.5-6.1 5.6-6.1H205c3.1 0 5.6 2.7 5.6 6.1v21.7z"/>
    <path class="redund0" d="M12.7 297.7v33.8M199 297.7v34M184.2 314.7c0 4-3.3 7.3-7.3 7.3s-7.3-3.3-7.3-7.3 3.2-7.3 7.3-7.3c4 0 7.3 3.3 7.3 7.3z"/>
    <path class="redund0" d="M179.6 314.7c0 1.5-1.2 2.7-2.7 2.7-1.5 0-2.7-1.2-2.7-2.7 0-1.5 1.2-2.7 2.7-2.7 1.5 0 2.7 1.2 2.7 2.7zM184.2 314.7h-4.6M174.2 314.7h-4.5"/>
  </g>
  <g stroke="gray">
    <circle class="redund1" cx="105.9" cy="146.9" r="6.5"/>
    <path class="redund0" d="M105.9 129v11.1M54.8 146.9h44.4M112.5 146.9h44.4"/>
    <path class="redund1" d="M210.6 29.1c0 3.4-2.5 6.1-5.6 6.1H6.8c-3.1 0-5.6-2.7-5.6-6.1V7.4c0-3.4 2.5-6.1 5.6-6.1H205c3.1 0 5.6 2.7 5.6 6.1v21.7z"/>
    <path class="redund0" d="M12.7 1.2v33.9M199 1.2v34M184.2 18.2c0 4-3.3 7.3-7.3 7.3s-7.3-3.3-7.3-7.3 3.2-7.3 7.3-7.3c4 .1 7.3 3.3 7.3 7.3z"/>
    <path class="redund0" d="M179.6 18.2c0 1.5-1.2 2.7-2.7 2.7-1.5 0-2.7-1.2-2.7-2.7 0-1.5 1.2-2.7 2.7-2.7 1.5 0 2.7 1.2 2.7 2.7zM184.2 18.2h-4.6M174.2 18.2h-4.5"/>
    <path class="redund1" d="M210.6 74.2c0 3.4-2.5 6.1-5.6 6.1H6.8c-3.1 0-5.6-2.7-5.6-6.1V52.5c0-3.4 2.5-6.1 5.6-6.1H205c3.1 0 5.6 2.7 5.6 6.1v21.7z"/>
    <path class="redund0" d="M12.7 46.4v33.8M199 46.4v33.9M184.2 63.3c0 4-3.3 7.3-7.3 7.3s-7.3-3.3-7.3-7.3 3.2-7.3 7.3-7.3c4 .1 7.3 3.3 7.3 7.3z"/>
    <path class="redund0" d="M179.6 63.3c0 1.5-1.2 2.7-2.7 2.7-1.5 0-2.7-1.2-2.7-2.7s1.2-2.7 2.7-2.7c1.5 0 2.7 1.2 2.7 2.7zM184.2 63.3h-4.6M174.2 63.3h-4.5"/>
    <path class="redund1" d="M210.6 119.3c0 3.4-2.5 6.1-5.6 6.1H6.8c-3.1 0-5.6-2.7-5.6-6.1V97.6c0-3.4 2.5-6.1 5.6-6.1H205c3.1 0 5.6 2.7 5.6 6.1v21.7z"/>
    <path class="redund0" d="M12.7 91.5v33.8M199 91.5v33.9M184.2 108.4c0 4-3.3 7.3-7.3 7.3s-7.3-3.3-7.3-7.3 3.2-7.3 7.3-7.3c4 .1 7.3 3.3 7.3 7.3z"/>
    <path class="redund0" d="M179.6 108.4c0 1.5-1.2 2.7-2.7 2.7-1.5 0-2.7-1.2-2.7-2.7s1.2-2.7 2.7-2.7c1.5.1 2.7 1.3 2.7 2.7zM184.2 108.5h-4.6M174.2 108.5h-4.5"/>
  </g>
  <g id="svg-concept">
    <circle class="redund6" cx="401.6" cy="353.2" r="6.5"/>
    <path d="M401.6 335.2v11.1M350.5 353.2h44.4M408.2 353.2h44.4"/>
    <path class="redund6" d="M506.3 235.3c0 3.4-2.5 6.1-5.6 6.1H302.5c-3.1 0-5.6-2.7-5.6-6.1v-21.7c0-3.4 2.5-6.1 5.6-6.1h198.2c3.1 0 5.6 2.7 5.6 6.1v21.7z"/>
    <path d="M308.4 207.5v33.8M494.7 207.5v33.9"/>
    <path class="redund6" d="M479.9 224.5c0 4-3.3 7.3-7.3 7.3s-7.3-3.3-7.3-7.3 3.2-7.3 7.3-7.3c4 0 7.3 3.2 7.3 7.3z"/>
    <path class="redund6" d="M475.3 224.5c0 1.5-1.2 2.7-2.7 2.7-1.5 0-2.7-1.2-2.7-2.7s1.2-2.7 2.7-2.7c1.5 0 2.7 1.2 2.7 2.7z"/>
    <path d="M479.9 224.5h-4.6M469.9 224.5h-4.5"/>
    <path class="redund6" d="M506.3 280.4c0 3.4-2.5 6.1-5.6 6.1H302.5c-3.1 0-5.6-2.7-5.6-6.1v-21.7c0-3.4 2.5-6.1 5.6-6.1h198.2c3.1 0 5.6 2.7 5.6 6.1v21.7z"/>
    <path d="M308.4 252.6v33.8"/>
    <path class="redund6" d="M494.7 252.6v34M479.9 269.6c0 4-3.3 7.3-7.3 7.3s-7.3-3.3-7.3-7.3 3.2-7.3 7.3-7.3c4 0 7.3 3.3 7.3 7.3z"/>
    <path class="redund6" d="M475.3 269.6c0 1.5-1.2 2.7-2.7 2.7-1.5 0-2.7-1.2-2.7-2.7s1.2-2.7 2.7-2.7c1.5 0 2.7 1.2 2.7 2.7z"/>
    <path d="M479.9 269.6h-4.6M469.9 269.6h-4.5"/>
    <path class="redund6" d="M506.3 325.5c0 3.4-2.5 6.1-5.6 6.1H302.5c-3.1 0-5.6-2.7-5.6-6.1v-21.7c0-3.4 2.5-6.1 5.6-6.1h198.2c3.1 0 5.6 2.7 5.6 6.1v21.7z"/>
    <path d="M308.4 297.7v33.8M494.7 297.7v34"/>
    <path class="redund6" d="M479.9 314.7c0 4-3.3 7.3-7.3 7.3s-7.3-3.3-7.3-7.3 3.2-7.3 7.3-7.3c4 0 7.3 3.3 7.3 7.3z"/>
    <path class="redund6" d="M475.3 314.7c0 1.5-1.2 2.7-2.7 2.7-1.5 0-2.7-1.2-2.7-2.7 0-1.5 1.2-2.7 2.7-2.7 1.5 0 2.7 1.2 2.7 2.7z"/>
    <path d="M479.9 314.7h-4.6M469.9 314.7h-4.5"/>
    <animateMotion path="M8, 0 8 0 -8 0 8 0" begin="0s" dur="3s" repeatCount="indefinite"/>
    <animateMotion path="M8, 0 8 0 -8 0 8 0" begin="6s" fill="freeze"/>
  </g>
  <g id="svg-concept">
    <circle class="redund6" cx="697.3" cy="353.2" r="6.5"/>
    <path d="M697.3 335.2v11.1M646.2 353.2h44.4M703.9 353.2h44.4"/>
    <path class="redund6" d="M802 235.3c0 3.4-2.5 6.1-5.6 6.1H598.2c-3.1 0-5.6-2.7-5.6-6.1v-21.7c0-3.4 2.5-6.1 5.6-6.1h198.2c3.1 0 5.6 2.7 5.6 6.1v21.7z"/>
    <path d="M604.1 207.5v33.8M790.4 207.5v33.9"/>
    <path class="redund6" d="M775.6 224.5c0 4-3.3 7.3-7.3 7.3s-7.3-3.3-7.3-7.3 3.2-7.3 7.3-7.3c4 0 7.3 3.2 7.3 7.3z"/>
    <path class="redund6" d="M771 224.5c0 1.5-1.2 2.7-2.7 2.7-1.5 0-2.7-1.2-2.7-2.7s1.2-2.7 2.7-2.7c1.5 0 2.7 1.2 2.7 2.7z"/>
    <path d="M775.6 224.5H771M765.6 224.5h-4.5"/>
    <path class="redund6" d="M802 280.4c0 3.4-2.5 6.1-5.6 6.1H598.2c-3.1 0-5.6-2.7-5.6-6.1v-21.7c0-3.4 2.5-6.1 5.6-6.1h198.2c3.1 0 5.6 2.7 5.6 6.1v21.7z"/>
    <path d="M604.1 252.6v33.8M790.4 252.6v34"/>
    <path class="redund6" d="M775.6 269.6c0 4-3.3 7.3-7.3 7.3s-7.3-3.3-7.3-7.3 3.2-7.3 7.3-7.3c4 0 7.3 3.3 7.3 7.3z"/>
    <path class="redund6" d="M771 269.6c0 1.5-1.2 2.7-2.7 2.7-1.5 0-2.7-1.2-2.7-2.7s1.2-2.7 2.7-2.7c1.5 0 2.7 1.2 2.7 2.7z"/>
    <path d="M775.6 269.6H771M765.6 269.6h-4.5"/>
    <path class="redund6" d="M802 325.5c0 3.4-2.5 6.1-5.6 6.1H598.2c-3.1 0-5.6-2.7-5.6-6.1v-21.7c0-3.4 2.5-6.1 5.6-6.1h198.2c3.1 0 5.6 2.7 5.6 6.1v21.7z"/>
    <path d="M604.1 297.7v33.8M790.4 297.7v34"/>
    <path class="redund6" d="M775.6 314.7c0 4-3.3 7.3-7.3 7.3s-7.3-3.3-7.3-7.3 3.2-7.3 7.3-7.3c4 0 7.3 3.3 7.3 7.3z"/>
    <path class="redund6" d="M771 314.7c0 1.5-1.2 2.7-2.7 2.7-1.5 0-2.7-1.2-2.7-2.7 0-1.5 1.2-2.7 2.7-2.7 1.5 0 2.7 1.2 2.7 2.7z"/>
    <path d="M775.6 314.7H771M765.6 314.7h-4.5"/>
    <animateMotion path="M8, 0 8 0 -8 0 8 0" begin="0s" dur="3s" repeatCount="indefinite"/>
  </g>
  <g stroke="gray">
    <circle class="redund1" cx="401.6" cy="146.9" r="6.5"/>
    <path class="redund0" d="M401.6 129v11.1M350.5 146.9h44.4M408.2 146.9h44.4"/>
    <path class="redund4" d="M506.3 29.1c0 3.4-2.5 6.1-5.6 6.1H302.5c-3.1 0-5.6-2.7-5.6-6.1V7.4c0-3.4 2.5-6.1 5.6-6.1h198.2c3.1 0 5.6 2.7 5.6 6.1v21.7z"/>
    <path class="redund0" d="M308.4 1.2v33.9M494.7 1.2v34M479.9 18.2c0 4-3.3 7.3-7.3 7.3s-7.3-3.3-7.3-7.3 3.2-7.3 7.3-7.3c4 .1 7.3 3.3 7.3 7.3z"/>
    <path class="redund0" d="M475.3 18.2c0 1.5-1.2 2.7-2.7 2.7-1.5 0-2.7-1.2-2.7-2.7 0-1.5 1.2-2.7 2.7-2.7 1.5 0 2.7 1.2 2.7 2.7zM479.9 18.2h-4.6M469.9 18.2h-4.5"/>
    <path class="redund4" d="M506.3 74.2c0 3.4-2.5 6.1-5.6 6.1H302.5c-3.1 0-5.6-2.7-5.6-6.1V52.5c0-3.4 2.5-6.1 5.6-6.1h198.2c3.1 0 5.6 2.7 5.6 6.1v21.7z"/>
    <path class="redund0" d="M308.4 46.4v33.8M494.7 46.4v33.9M479.9 63.3c0 4-3.3 7.3-7.3 7.3s-7.3-3.3-7.3-7.3 3.2-7.3 7.3-7.3c4 .1 7.3 3.3 7.3 7.3z"/>
    <path class="redund0" d="M475.3 63.3c0 1.5-1.2 2.7-2.7 2.7-1.5 0-2.7-1.2-2.7-2.7s1.2-2.7 2.7-2.7c1.5 0 2.7 1.2 2.7 2.7zM479.9 63.3h-4.6M469.9 63.3h-4.5"/>
    <path class="redund4" d="M506.3 119.3c0 3.4-2.5 6.1-5.6 6.1H302.5c-3.1 0-5.6-2.7-5.6-6.1V97.6c0-3.4 2.5-6.1 5.6-6.1h198.2c3.1 0 5.6 2.7 5.6 6.1v21.7z"/>
    <path class="redund0" d="M308.4 91.5v33.8M494.7 91.5v33.9M479.9 108.4c0 4-3.3 7.3-7.3 7.3s-7.3-3.3-7.3-7.3 3.2-7.3 7.3-7.3c4 .1 7.3 3.3 7.3 7.3z"/>
    <path class="redund0" d="M475.3 108.4c0 1.5-1.2 2.7-2.7 2.7-1.5 0-2.7-1.2-2.7-2.7s1.2-2.7 2.7-2.7c1.5.1 2.7 1.3 2.7 2.7zM479.9 108.5h-4.6M469.9 108.5h-4.5"/>
  </g>
  <g id="svg-concept">
    <circle class="redund1" cx="697.3" cy="146.9" r="6.5"/>
    <path class="redund0" d="M697.3 129v11.1M646.2 146.9h44.4M703.9 146.9h44.4"/>
    <path class="redund4" d="M802 29.1c0 3.4-2.5 6.1-5.6 6.1H598.2c-3.1 0-5.6-2.7-5.6-6.1V7.4c0-3.4 2.5-6.1 5.6-6.1h198.2c3.1 0 5.6 2.7 5.6 6.1v21.7z"/>
    <path class="redund0" d="M604.1 1.2v33.9M790.4 1.2v34M775.6 18.2c0 4-3.3 7.3-7.3 7.3s-7.3-3.3-7.3-7.3 3.2-7.3 7.3-7.3c4 .1 7.3 3.3 7.3 7.3z"/>
    <path class="redund0" d="M771 18.2c0 1.5-1.2 2.7-2.7 2.7-1.5 0-2.7-1.2-2.7-2.7 0-1.5 1.2-2.7 2.7-2.7 1.5 0 2.7 1.2 2.7 2.7zM775.6 18.2H771M765.6 18.2h-4.5"/>
    <path class="redund4" d="M802 74.2c0 3.4-2.5 6.1-5.6 6.1H598.2c-3.1 0-5.6-2.7-5.6-6.1V52.5c0-3.4 2.5-6.1 5.6-6.1h198.2c3.1 0 5.6 2.7 5.6 6.1v21.7z"/>
    <path class="redund0" d="M604.1 46.4v33.8M790.4 46.4v33.9M775.6 63.3c0 4-3.3 7.3-7.3 7.3s-7.3-3.3-7.3-7.3 3.2-7.3 7.3-7.3c4 .1 7.3 3.3 7.3 7.3z"/>
    <path class="redund0" d="M771 63.3c0 1.5-1.2 2.7-2.7 2.7-1.5 0-2.7-1.2-2.7-2.7s1.2-2.7 2.7-2.7c1.5 0 2.7 1.2 2.7 2.7zM775.6 63.3H771M765.6 63.3h-4.5"/>
    <path class="redund4" d="M802 119.3c0 3.4-2.5 6.1-5.6 6.1H598.2c-3.1 0-5.6-2.7-5.6-6.1V97.6c0-3.4 2.5-6.1 5.6-6.1h198.2c3.1 0 5.6 2.7 5.6 6.1v21.7z"/>
    <path class="redund0" d="M604.1 91.5v33.8M790.4 91.5v33.9M775.6 108.4c0 4-3.3 7.3-7.3 7.3s-7.3-3.3-7.3-7.3 3.2-7.3 7.3-7.3c4 .1 7.3 3.3 7.3 7.3z"/>
    <path class="redund0" d="M771 108.4c0 1.5-1.2 2.7-2.7 2.7-1.5 0-2.7-1.2-2.7-2.7s1.2-2.7 2.7-2.7c1.5.1 2.7 1.3 2.7 2.7zM775.6 108.5H771M765.6 108.5h-4.5"/>
    <animateMotion path="M8, 0 8 0 -8 0 8 0" begin="7s" dur="3s" repeatCount="indefinite"/>
    <animateMotion path="M8, 0 8 0 -8 0 8 0" repeatCount="indefinite"/>
  </g>
  <g stroke="gray">
    <circle class="redund1" cx="993" cy="353.2" r="6.5"/>
    <path class="redund0" d="M993 335.2v11.1M941.9 353.2h44.4M999.6 353.2h44.4"/>
    <path class="redund4" d="M1097.7 235.3c0 3.4-2.5 6.1-5.6 6.1H893.9c-3.1 0-5.6-2.7-5.6-6.1v-21.7c0-3.4 2.5-6.1 5.6-6.1h198.2c3.1 0 5.6 2.7 5.6 6.1v21.7z"/>
    <path class="redund0" d="M899.8 207.5v33.8M1086.1 207.5v33.9M1071.3 224.5c0 4-3.3 7.3-7.3 7.3s-7.3-3.3-7.3-7.3 3.2-7.3 7.3-7.3c4 0 7.3 3.2 7.3 7.3z"/>
    <path class="redund0" d="M1066.7 224.5c0 1.5-1.2 2.7-2.7 2.7-1.5 0-2.7-1.2-2.7-2.7s1.2-2.7 2.7-2.7c1.5 0 2.7 1.2 2.7 2.7zM1071.3 224.5h-4.6M1061.3 224.5h-4.5"/>
    <path class="redund4" d="M1097.7 280.4c0 3.4-2.5 6.1-5.6 6.1H893.9c-3.1 0-5.6-2.7-5.6-6.1v-21.7c0-3.4 2.5-6.1 5.6-6.1h198.2c3.1 0 5.6 2.7 5.6 6.1v21.7z"/>
    <path class="redund0" d="M899.8 252.6v33.8M1086.1 252.6v34M1071.3 269.6c0 4-3.3 7.3-7.3 7.3s-7.3-3.3-7.3-7.3 3.2-7.3 7.3-7.3c4 0 7.3 3.3 7.3 7.3z"/>
    <path class="redund0" d="M1066.7 269.6c0 1.5-1.2 2.7-2.7 2.7-1.5 0-2.7-1.2-2.7-2.7s1.2-2.7 2.7-2.7c1.5 0 2.7 1.2 2.7 2.7zM1071.3 269.6h-4.6M1061.3 269.6h-4.5"/>
    <path class="redund4" d="M1097.7 325.5c0 3.4-2.5 6.1-5.6 6.1H893.9c-3.1 0-5.6-2.7-5.6-6.1v-21.7c0-3.4 2.5-6.1 5.6-6.1h198.2c3.1 0 5.6 2.7 5.6 6.1v21.7z"/>
    <path class="redund0" d="M899.8 297.7v33.8M1086.1 297.7v34M1071.3 314.7c0 4-3.3 7.3-7.3 7.3s-7.3-3.3-7.3-7.3 3.2-7.3 7.3-7.3c4 0 7.3 3.3 7.3 7.3z"/>
    <path class="redund0" d="M1066.7 314.7c0 1.5-1.2 2.7-2.7 2.7-1.5 0-2.7-1.2-2.7-2.7 0-1.5 1.2-2.7 2.7-2.7 1.5 0 2.7 1.2 2.7 2.7zM1071.3 314.7h-4.6M1061.3 314.7h-4.5"/>
  </g>
  <g stroke="gray">
    <circle class="redund1" cx="993" cy="146.9" r="6.5"/>
    <path class="redund0" d="M993 129v11.1M941.9 146.9h44.4M999.6 146.9h44.4"/>
    <path class="redund4" d="M1097.7 29.1c0 3.4-2.5 6.1-5.6 6.1H893.9c-3.1 0-5.6-2.7-5.6-6.1V7.4c0-3.4 2.5-6.1 5.6-6.1h198.2c3.1 0 5.6 2.7 5.6 6.1v21.7z"/>
    <path class="redund0" d="M899.8 1.2v33.9M1086.1 1.2v34M1071.3 18.2c0 4-3.3 7.3-7.3 7.3s-7.3-3.3-7.3-7.3 3.2-7.3 7.3-7.3c4 .1 7.3 3.3 7.3 7.3z"/>
    <path class="redund0" d="M1066.7 18.2c0 1.5-1.2 2.7-2.7 2.7-1.5 0-2.7-1.2-2.7-2.7 0-1.5 1.2-2.7 2.7-2.7 1.5 0 2.7 1.2 2.7 2.7zM1071.3 18.2h-4.6M1061.3 18.2h-4.5"/>
    <path class="redund4" d="M1097.7 74.2c0 3.4-2.5 6.1-5.6 6.1H893.9c-3.1 0-5.6-2.7-5.6-6.1V52.5c0-3.4 2.5-6.1 5.6-6.1h198.2c3.1 0 5.6 2.7 5.6 6.1v21.7z"/>
    <path class="redund0" d="M899.8 46.4v33.8M1086.1 46.4v33.9M1071.3 63.3c0 4-3.3 7.3-7.3 7.3s-7.3-3.3-7.3-7.3 3.2-7.3 7.3-7.3c4 .1 7.3 3.3 7.3 7.3z"/>
    <path class="redund0" d="M1066.7 63.3c0 1.5-1.2 2.7-2.7 2.7-1.5 0-2.7-1.2-2.7-2.7s1.2-2.7 2.7-2.7c1.5 0 2.7 1.2 2.7 2.7zM1071.3 63.3h-4.6M1061.3 63.3h-4.5"/>
    <path class="redund4" d="M1097.7 119.3c0 3.4-2.5 6.1-5.6 6.1H893.9c-3.1 0-5.6-2.7-5.6-6.1V97.6c0-3.4 2.5-6.1 5.6-6.1h198.2c3.1 0 5.6 2.7 5.6 6.1v21.7z"/>
    <path class="redund0" d="M899.8 91.5v33.8M1086.1 91.5v33.9M1071.3 108.4c0 4-3.3 7.3-7.3 7.3s-7.3-3.3-7.3-7.3 3.2-7.3 7.3-7.3c4 .1 7.3 3.3 7.3 7.3z"/>
    <path class="redund0" d="M1066.7 108.4c0 1.5-1.2 2.7-2.7 2.7-1.5 0-2.7-1.2-2.7-2.7s1.2-2.7 2.7-2.7c1.5.1 2.7 1.3 2.7 2.7zM1071.3 108.5h-4.6M1061.3 108.5h-4.5"/>
  </g>
  <path id="svg-concept" class="redund6" d="M554.1 166.2c0 2.6-2.1 4.7-4.7 4.7s-4.7-2.1-4.7-4.7 2.1-4.7 4.7-4.7 4.7 2.1 4.7 4.7zM258.7 165.9c0 2.6-2.1 4.7-4.7 4.7s-4.7-2.1-4.7-4.7 2.1-4.7 4.7-4.7c2.6.1 4.7 2.2 4.7 4.7zM850.3 166.2c0 2.6-2.1 4.7-4.7 4.7s-4.7-2.1-4.7-4.7 2.1-4.7 4.7-4.7 4.7 2.1 4.7 4.7z"/>
</svg>
