<svg version="1.1" id="Layer_1" xmlns="http://www.w3.org/2000/svg" x="0" y="0" viewBox="0 0 595.3 595.3" xml:space="preserve">
  <style>
    .salesman0,.salesman1{fill:#fff;stroke:gray;stroke-linecap:round;stroke-linejoin:round;stroke-miterlimit:10}.salesman1{fill:none;stroke:#ee5586;stroke-width:4}
  </style>
  <path id="svg-concept" class="salesman1" d="M468 238.5c-1.9-2.9-4.7-.1-7.1.7-4.7 1.6-9.3 4-15.1 2.2 3.8-2.2 7.6-3.6 10.4-6.3 5.3-5.2 10.8-10.5 8-19.2-.4-1.4 1-4.2-2.4-3.2-17.3 9.8-35.8 15.8-55.7 16.4-22.7.7-40.3-8.4-52-28.4-2.9-4.9-6.1-9.5-9.5-14.1-8.1-10.8-16.9-20.9-29.1-27.3-13.4-7.1-27-7.2-39.8.8-12.1 7.5-15.9 22-11.2 37.7-1.7 3.4-5.3 3-8.1 4-26.3 9.4-40.8 32.1-39.8 60.7-.9 11.9 1.2 23.5 4.2 35-2.9 2-6 3.7-9.5 4.4-.8-.1-2.2-.3-2.3.5-.1 1.3 1.2 1.4 2.3 1.4 2.5.7 5 1.5 7.4 2.2-3.6 12.3-.3 23.4 6.3 33.7 3.4 5.2 8.4 7.9 14.8 7.8.5 2.6 1.1 5.2 1.6 7.8 3.2 16.1 10.9 29.7 22.8 40.9.8 7.9 2.3 15.8 4.3 23.5-.2.9-.4 1.7-.6 2.6-3.4 5.4-16 25.3-32.4 28.5-12.6 2.5-23.2 7.9-33 15.7-6.6 5.2-11.2 11.8-13 20-1.6 7.4-3 14.8-4.5 22.3 41.3 52.4 191.3 50.3 226.4 0 1.6-11.4-.7-22.4-6.1-32.1-8.1-14.6-22.1-22.6-37.6-26.5-16.1-4-33.5-24-38.5-28.1 3.4-7.3 3.8-15.3 4.6-23.1 0-.4-.1-.9-.3-1.3 2.6-2.3 5.1-4.9 7.5-7.4 11.3-12 17.1-26.4 18.1-42.8 5.7-.3 10.2-3 13.5-7.7 6.1-8.7 8.4-18.5 7.6-29.1-.2-3-1.4-5.5-3.9-7 0-.1.1-.2.1-.3 2.3-6 3.2-12.3 4.4-18.5.6-3 2.1-4.1 5.1-4.2 3.9 0 7.8.3 11.6-.4 26.3-4.3 48.4-16.9 67.4-35.3 1.8-1.7 4.7-4 3.1-6.5z"/>
  <g>
    <path class="salesman0" d="M42 445.4c81.6 141.2 262.2 189.5 403.4 107.9s189.5-262.2 107.9-403.4S291.1-39.6 149.9 42-39.6 304.2 42 445.4zM209.5 80c27.6 47.7 88.5 64 136.2 36.4 26.2-15.1 42.8-40.3 48-67.8 54.8 21.4 102.9 60.8 134.6 115.6s41.8 116.2 33 174.4c-26.4-9.2-56.6-7.3-82.7 7.8-47.7 27.6-64 88.5-36.4 136.2 5.8 10 13 18.6 21.3 25.7-10.3 8.2-21.4 15.8-33.2 22.7-98.4 56.9-217.9 44.3-301.7-22.5 35.7-30.6 45.7-83.3 21.3-125.5s-75-59.8-119.4-44.2c-16-106 32.7-215.8 131.1-272.7 11.8-6.8 23.9-12.6 36.2-17.5 2.1 10.9 5.9 21.4 11.7 31.4z"/>
    <path class="salesman0" d="M100.3 424.7c-5.3-1.4-8.4-6.8-7-12.1 1.4-5.2 6.8-8.4 12.1-7 5.3 1.4 8.4 6.8 7 12-1.5 5.4-6.9 8.5-12.1 7.1z"/>
    <path class="salesman0" d="M101.9 418.8c-1.9-.5-3.1-2.5-2.6-4.5.5-1.9 2.5-3.1 4.5-2.6 1.9.5 3.1 2.5 2.6 4.5-.6 1.9-2.6 3.1-4.5 2.6zM100.2 424.7l1.6-6M103.7 411.7l1.6-6M489.2 417.1c-5.3-1.4-8.4-6.8-7-12.1 1.4-5.2 6.8-8.4 12.1-7 5.3 1.4 8.4 6.8 7 12-1.5 5.4-6.9 8.5-12.1 7.1z"/>
    <path class="salesman0" d="M490.8 411.1c-1.9-.5-3.1-2.5-2.6-4.5.5-1.9 2.5-3.1 4.5-2.6s3.1 2.5 2.6 4.5c-.6 2-2.6 3.1-4.5 2.6zM489.1 417.1l1.6-6M492.6 404l1.6-5.9M298.5 86.2c-5.3-1.4-8.4-6.8-7-12.1 1.4-5.2 6.8-8.4 12.1-7 5.3 1.4 8.4 6.8 7 12-1.5 5.4-6.9 8.5-12.1 7.1z"/>
    <path class="salesman0" d="M300.1 80.2c-1.9-.5-3.1-2.5-2.6-4.5.5-1.9 2.5-3.1 4.5-2.6 1.9.5 3.1 2.5 2.6 4.5-.6 2-2.6 3.1-4.5 2.6zM298.5 86.2l1.6-6M301.9 73.1l1.6-5.9"/>
    <path id="svg-concept" class="salesman1" d="M553.3 149.9C471.7 8.7 291.1-39.6 149.9 42S-39.6 304.2 42 445.4s262.2 189.5 403.4 107.9 189.5-262.2 107.9-403.4z"/>
    <animateTransform type="rotate" attributeName="transform" begin="0s" dur="4s" from="0 298 298" to="360 298 298" repeatCount="indefinite"/>
  </g>
</svg>
