<svg version="1.1" id="Layer_1" xmlns="http://www.w3.org/2000/svg" x="0" y="0" viewBox="0 0 1099.5 361.5" xml:space="preserve">
  <style>
    .scalable1,.scalable2{fill:#fff;stroke:#ee5586;stroke-width:2;stroke-linecap:round;stroke-linejoin:round;stroke-miterlimit:10}.scalable2{fill:none}.scalable3{fill:#fff;stroke-miterlimit:10}.scalable3,.scalable4{stroke-linecap:round;stroke-linejoin:round}.scalable4,.scalable5,.scalable6{fill:none;stroke-miterlimit:10}.scalable5{stroke-linecap:square;stroke:#d8d8d8;stroke-width:2}.scalable6{stroke:#fff;stroke-width:3}.scalable7{fill:#ee5586}.scalable8{stroke:gray}
  </style>
  <path id="svg-concept" fill="none" stroke="#ee5586" stroke-width="2" stroke-linecap="square" stroke-miterlimit="10" d="M2.4 157.1l342.1.1V81.3l400.7-.1V5.5h342.2"/>
  <g class="scalable8">
    <path class="scalable3" d="M286.1 312.7c0 4.6-3.4 8.3-7.6 8.3H9.9c-4.2 0-7.6-3.7-7.6-8.3v-29.4c0-4.6 3.4-8.3 7.6-8.3h268.5c4.2 0 7.6 3.7 7.6 8.3v29.4z"/>
    <path class="scalable4" d="M18 275v45.9M270.4 275v46M250.3 298c0 5.4-4.4 9.8-9.8 9.8s-9.8-4.4-9.8-9.8 4.4-9.8 9.8-9.8 9.8 4.4 9.8 9.8z"/>
    <path class="scalable4" d="M244.1 298c0 2-1.6 3.7-3.7 3.7-2 0-3.6-1.6-3.6-3.7s1.6-3.6 3.6-3.6c2.1 0 3.7 1.6 3.7 3.6zM250.3 298.1h-6.2M236.8 298.1h-6.1"/>
    <circle id="svg-concept" class="scalable1" cx="144.2" cy="350.2" r="8.7"/>
    <path id="svg-concept" class="scalable2" d="M144.2 325.9v15M75 350.2h60.2M153.2 350.2h60.2"/>
  </g>
  <g class="scalable8">
    <path class="scalable3" d="M686.7 251.6c0 4.6-3.4 8.3-7.6 8.3H410.6c-4.2 0-7.6-3.7-7.6-8.3v-29.4c0-4.6 3.4-8.3 7.6-8.3h268.5c4.2 0 7.6 3.7 7.6 8.3v29.4z"/>
    <path class="scalable4" d="M418.7 213.9v45.8M671.1 213.9v46M651 236.9c0 5.4-4.4 9.8-9.8 9.8s-9.8-4.4-9.8-9.8 4.4-9.8 9.8-9.8 9.8 4.4 9.8 9.8z"/>
    <path class="scalable4" d="M644.8 236.9c0 2-1.6 3.7-3.7 3.7-2 0-3.6-1.6-3.6-3.7s1.6-3.6 3.6-3.6c2.1 0 3.7 1.6 3.7 3.6zM651 236.9h-6.2M637.5 236.9h-6.2"/>
    <path class="scalable3" d="M686.7 312.7c0 4.6-3.4 8.3-7.6 8.3H410.6c-4.2 0-7.6-3.7-7.6-8.3v-29.4c0-4.6 3.4-8.3 7.6-8.3h268.5c4.2 0 7.6 3.7 7.6 8.3v29.4z"/>
    <path class="scalable4" d="M418.7 275v45.9M671.1 275v46M651 298c0 5.4-4.4 9.8-9.8 9.8s-9.8-4.4-9.8-9.8 4.4-9.8 9.8-9.8 9.8 4.4 9.8 9.8z"/>
    <path class="scalable4" d="M644.8 298c0 2-1.6 3.7-3.7 3.7-2 0-3.6-1.6-3.6-3.7s1.6-3.6 3.6-3.6c2.1 0 3.7 1.6 3.7 3.6zM651 298.1h-6.2M637.5 298.1h-6.2"/>
    <circle id="svg-concept" class="scalable1" cx="544.9" cy="350.2" r="8.7"/>
    <path id="svg-concept" class="scalable2" d="M544.9 325.9v15M475.7 350.2h60.2M553.9 350.2h60.2"/>
  </g>
  <g id="svg-concept">
    <path class="scalable3" d="M1087.4 190.5c0 4.6-3.4 8.3-7.6 8.3H811.3c-4.2 0-7.6-3.7-7.6-8.3v-29.4c0-4.6 3.4-8.3 7.6-8.3h268.5c4.2 0 7.6 3.7 7.6 8.3v29.4z"/>
    <path class="scalable4" d="M819.3 152.8v45.8M1071.8 152.8v46M1051.7 175.8c0 5.4-4.4 9.8-9.8 9.8s-9.8-4.4-9.8-9.8 4.4-9.8 9.8-9.8c5.4-.1 9.8 4.3 9.8 9.8z"/>
    <path class="scalable4" d="M1045.5 175.8c0 2-1.6 3.7-3.7 3.7-2 0-3.6-1.6-3.6-3.7s1.6-3.6 3.6-3.6c2.1-.1 3.7 1.6 3.7 3.6zM1051.7 175.8h-6.2M1038.2 175.8h-6.2"/>
    <path class="scalable3" d="M1087.4 251.6c0 4.6-3.4 8.3-7.6 8.3H811.3c-4.2 0-7.6-3.7-7.6-8.3v-29.4c0-4.6 3.4-8.3 7.6-8.3h268.5c4.2 0 7.6 3.7 7.6 8.3v29.4z"/>
    <path class="scalable4" d="M819.3 213.9v45.8M1071.8 213.9v46M1051.7 236.9c0 5.4-4.4 9.8-9.8 9.8s-9.8-4.4-9.8-9.8 4.4-9.8 9.8-9.8 9.8 4.4 9.8 9.8z"/>
    <path class="scalable4" d="M1045.5 236.9c0 2-1.6 3.7-3.7 3.7-2 0-3.6-1.6-3.6-3.7s1.6-3.6 3.6-3.6c2.1 0 3.7 1.6 3.7 3.6zM1051.7 236.9h-6.2M1038.2 236.9h-6.2"/>
    <path class="scalable3" d="M1087.4 312.7c0 4.6-3.4 8.3-7.6 8.3H811.3c-4.2 0-7.6-3.7-7.6-8.3v-29.4c0-4.6 3.4-8.3 7.6-8.3h268.5c4.2 0 7.6 3.7 7.6 8.3v29.4z"/>
    <path class="scalable4" d="M819.3 275v45.9M1071.8 275v46M1051.7 298c0 5.4-4.4 9.8-9.8 9.8s-9.8-4.4-9.8-9.8 4.4-9.8 9.8-9.8 9.8 4.4 9.8 9.8z"/>
    <path class="scalable4" d="M1045.5 298c0 2-1.6 3.7-3.7 3.7-2 0-3.6-1.6-3.6-3.7s1.6-3.6 3.6-3.6c2.1 0 3.7 1.6 3.7 3.6zM1051.7 298.1h-6.2M1038.2 298.1h-6.2"/>
    <circle id="svg-concept" class="scalable1" cx="945.6" cy="350.2" r="8.7"/>
    <path id="svg-concept" class="scalable2" d="M945.6 325.9v15M876.4 350.2h60.1M954.6 350.2h60.2"/>
  </g>
  <g>
    <path class="scalable5" d="M745.2 5.5h342.2"/>
    <animateMotion path="M0, 0 345 0" begin="5s" dur="2s" fill="freeze"/>
  </g>
  <g>
    <path class="scalable5" d="M745.2 81.2V5.5"/>
    <animateMotion path="M0, 0 0 -80" begin="4.5s" dur="0.5s" fill="freeze"/>
  </g>
  <g>
    <path class="scalable5" d="M344.5 81.3l400.7-.1"/>
    <animateMotion path="M0, 0 405 0" begin="2.5s" dur="2s" fill="freeze"/>
  </g>
  <g>
    <path class="scalable5" d="M344.5 157.2V81.3"/>
    <animateMotion path="M0, 0 0 -80" begin="2s" dur="0.5s" fill="freeze"/>
  </g>
  <g>
    <path class="scalable5" d="M2.4 157.1l342.1.1"/>
    <animateMotion path="M0, 0 345 0" begin="0s" dur="2s" fill="freeze"/>
    /&gt;
  </g>
  <path class="scalable6" d="M344.5 80.3V0M745.2 4.5V0M345.5 157.7l399.7.1M746.2 81.4l353.3.1M1088.4 5.5l11.1.1"/>
  <circle id="svg-ico" class="scalable7" cx="344.5" cy="157.2" r="3.7"/>
  <circle id="svg-ico" class="scalable7" cx="745.2" cy="81.2" r="3.7"/>
</svg>
