<svg version="1.1" id="animaclock" xmlns="http://www.w3.org/2000/svg" x="0" y="0" viewBox="0 0 644.6 630.5" xml:space="preserve">
  <style>
    .soon1,.soon2{fill:none;stroke:gray;stroke-miterlimit:10}.soon2{fill:#fff;stroke:#ee5586;stroke-linecap:round;stroke-linejoin:round}.soon3,.soon4{fill:none;stroke-miterlimit:10}.soon3{stroke-width:3;stroke-linecap:round;stroke-linejoin:round;stroke:#ee5586}.soon4{stroke:#d7d7d7}.soon6,.soon7{stroke-linecap:round;stroke-linejoin:round;stroke-miterlimit:10}.soon6{stroke-width:3;fill:#fff;stroke:#ee5586}.soon7{fill:none;stroke:gray}
  </style>
  <path id="svg-concept" d="M610.3 353c0 134.8-109.3 244.1-244.1 244.1S122.1 487.8 122.1 353s109.3-244.1 244.1-244.1S610.3 218.2 610.3 353z" fill="none" stroke="#ee5586" stroke-width="2" stroke-linecap="round" stroke-linejoin="round" stroke-miterlimit="10"/>
  <path class="soon1" d="M639.4 353.4c0 150.6-122.1 272.7-272.7 272.7S94 504 94 353.4 216.1 80.7 366.7 80.7s272.7 122.1 272.7 272.7z"/>
  <path id="svg-concept" class="soon2" d="M372.9 597.1c0 3-2.4 5.4-5.4 5.4-3 0-5.4-2.4-5.4-5.4 0-3 2.4-5.4 5.4-5.4 3 0 5.4 2.4 5.4 5.4z"/>
  <path class="soon1" d="M367.4 128.2v22.2"/>
  <path class="soon4" d="M413.2 133.4l-4.5 21.5M457.8 147.9l-8.9 20.2M498.3 171.3l-12.9 17.9M533.1 202.7l-16.4 14.8M560.6 240.5l-19 11.1M579.7 283.3l-20.9 6.9M589.4 329.1l-21.8 2.3"/>
  <path class="soon1" d="M589.4 375.7l-20.1-2.1"/>
  <path class="soon4" d="M579.6 422l-20.7-6.7M560.6 464.6l-18.7-10.8M533 502.5l-16-14.4M498.2 533.9l-12.6-17.4M457.7 557.3l-8.6-19.5M413.3 571.7l-4.4-20.7M143.6 329.1l21.2 2.2M153.4 282.8l20.5 6.6M172.4 240.2l18.8 10.8M200.1 202.2l16.2 14.7M234.9 170.9l12.8 17.8M275.3 147.5l8.9 20.2M319.8 133.4l4.7 21.4"/>
  <path class="soon1" d="M366.2 576.6v-21.1"/>
  <path class="soon4" d="M320.1 571.5l4.2-20.4M275.5 557l8.3-19M235 533.5l12.1-16.8M200.2 502.2l15.3-13.9M172.7 464.3l17.9-10.4M153.6 421.5l19.8-6.5"/>
  <path class="soon1" d="M143.9 375.8l20.8-2.3"/>
  <g>
    <path id="svg-concept" class="soon3" d="M367.4 175.5l-.6 177.5"/>
    <animateTransform attributeName="transform" dur="3s" fill="remove" from="0 365 355" repeatCount="indefinite" to="360 368 355" type="rotate"/>
  </g>
  <g>
    <path id="svg-concept" class="soon3" d="M464.8 353h-98"/>
    <animateTransform attributeName="transform" dur="10s" fill="remove" from="0 365 355" repeatCount="indefinite" to="360 368 355" type="rotate"/>
  </g>
  <path id="svg-concept" class="soon2" d="M372.2 353c0 3-2.4 5.4-5.4 5.4-3 0-5.4-2.4-5.4-5.4 0-3 2.4-5.4 5.4-5.4 3 0 5.4 2.4 5.4 5.4z"/>
  <g>
    <path d="M216.7 234.9h16.5c4.4 0 7.9 3.6 7.9 7.9v221.4c0 4.4-3.5 7.9-7.9 7.9H11.8c-4.4 0-7.9-3.5-7.9-7.9V242.8c0-4.4 3.5-7.9 7.9-7.9H177h39.7z" fill="#fff" stroke="gray" stroke-width="2" stroke-linecap="round" stroke-linejoin="round" stroke-miterlimit="10"/>
    <path id="svg-ico" class="soon7" d="M3.9 392.5H241M3.2 353.4h237.1M3.2 431.6h237.1M3.9 313.5H241M83 313.8V472M162 313.8V472M54.9 361l-24 24M135.9 399.2l-24 24"/>
    <g>
      <circle id="svg-ico" cx="147.8" cy="364.8" r="2.5" fill="#ee5586"/>
      <animate accumulate="none" additive="replace" attributeName="opacity" calcMode="linear" dur="1s" fill="remove" repeatCount="indefinite" restart="always" values="0;1;0"/>
    </g>
  </g>
  <path class="soon1" d="M381.8 62.1h-30.1c-.8 0-1.4-.6-1.4-1.4v-9.8c0-.8.6-1.4 1.4-1.4h30.1c.8 0 1.4.6 1.4 1.4v9.8c0 .7-.7 1.4-1.4 1.4zM502.1 105.5L475.2 92c-.7-.3-1-1.2-.6-1.9l4.4-8.8c.3-.7 1.2-1 1.9-.6l26.9 13.5c.7.3 1 1.2.6 1.9l-4.4 8.8c-.3.7-1.2 1-1.9.6zM358.9 62.1v18.6h14.9V62.1"/>
  <path class="soon1" d="M358.9 75.1c-17.2-3.3-30.2-18.5-30.2-36.7 0-20.6 16.7-37.3 37.3-37.3s37.3 16.7 37.3 37.3c0 17.9-12.6 32.9-29.5 36.5"/>
</svg>
