<svg version="1.1" id="Layer_1" xmlns="http://www.w3.org/2000/svg" x="0" y="0" viewBox="0 0 608.9 401" xml:space="preserve">
  <style>
    .ssl0{fill:#fff;stroke:gray;stroke-linecap:round;stroke-linejoin:round;stroke-miterlimit:10}.ssl1,.ssl2,.ssl3{fill:none;stroke:#d8d8d8;stroke-miterlimit:10}.ssl2,.ssl3{stroke:#ee5586;stroke-linecap:round;stroke-linejoin:round}.ssl3{stroke:gray}.ssl4{fill:#fff}.ssl4,.ssl5,.ssl6{stroke:#ee5586;stroke-linecap:round;stroke-linejoin:round;stroke-miterlimit:10}.ssl5{fill-rule:evenodd;clip-rule:evenodd;fill:none}.ssl6{fill:#fff;stroke-width:2}
  </style>
  <path class="ssl0" d="M2.6 364.5c0-2.2 1.7-4 3.9-4h595.6c2.2 0 3.9 1.8 3.9 4v12s-.3 14.5-30.6 14.5H33.2c-30.3 0-30.6-14.5-30.6-14.5v-12zM538.1 340.1V29.6c0-8.8-7-15.9-15.6-15.9H86.2c-8.6 0-15.6 7.1-15.6 15.9v310.5h467.5z"/>
  <path class="ssl1" d="M605 376.4H3.7M308.2 29.6c0 2.2-1.7 4-3.9 4s-3.9-1.8-3.9-4 1.7-4 3.9-4 3.9 1.8 3.9 4z"/>
  <path class="ssl0" d="M238.2 360.6s.7 6.6 7.8 6.6h116.2c7.2 0 7.8-6.6 7.8-6.6"/>
  <path class="ssl1" d="M93.2 48.7h423.2v273.5H93.2z"/>
  <path class="ssl1" d="M109.4 66.2c0 1.8-1.5 3.3-3.3 3.3-1.8 0-3.3-1.5-3.3-3.3s1.5-3.3 3.3-3.3c1.8.1 3.3 1.5 3.3 3.3zM124.9 66.2c0 1.8-1.5 3.3-3.3 3.3-1.8 0-3.3-1.5-3.3-3.3s1.5-3.3 3.3-3.3c1.9.1 3.3 1.5 3.3 3.3zM140.5 66.2c0 1.8-1.5 3.3-3.3 3.3-1.8 0-3.3-1.5-3.3-3.3s1.5-3.3 3.3-3.3c1.8.1 3.3 1.5 3.3 3.3zM93.2 81.5h114.6l7-14.5h83.1l6.4 14.5h212.1M93.2 114.7h423.2M107.3 94.1l-4.5 4.6 4.5 4.7M116.7 98.7h-13.9M134.7 103.4l4.5-4.7-4.5-4.6M125.3 98.7h13.9M157.7 94.1c-2.9 0-5.3 2.4-5.3 5.3s2.4 5.3 5.3 5.3 5.3-2.4 5.3-5.3"/>
  <path class="ssl1" d="M157.7 95.5v-2.8l2.8 1.4z"/>
  <path id="svg-concept" class="ssl2" d="M357.9 303.8H161.2c-8.2 0-15-6.8-15-15V153.2c0-8.2 6.8-15 15-15h196.7c8.2 0 15 6.8 15 15v135.6c0 8.2-6.8 15-15 15z"/>
  <path class="ssl3" d="M241.6 169.5h104M241.6 185.2h54.2M241.6 200.8h104M241.6 216.5h86.2"/>
  <path id="svg-concept" class="ssl4" d="M241.6 261.9h66.6M241.6 277.5h104M219.6 261.6v-4.7c0-9.6-13.9-10.3-13.9 0v4.7M220.9 261.6h1.1c.5 0 .9.4.9.9v14.2c0 .5-.4.9-.9.9h-18.7c-.5 0-.9-.4-.9-.9v-14.2c0-.5.4-.9.9-.9h17.6zM202.5 267.6h20.4M203.5 261.6l6.1 6M208.6 261.6l6 6M213.6 261.6l6.1 6M218.7 261.6l4.2 4.2M202.5 264.9l2.7 2.7"/>
  <path class="ssl3" d="M213.3 218.2h-37.6c-5.5 0-10-4.5-10-10v-37.6c0-5.5 4.5-10 10-10h37.6c5.5 0 10 4.5 10 10v37.6c0 5.5-4.5 10-10 10z"/>
  <path id="svg-concept" class="ssl2" d="M190.6 121.7v16.5"/>
  <g>
    <path id="svg-concept" class="ssl5" d="M189.4 197.3v13.1l4.3-4.3.1-.1c.2-.2.5-.3.7-.3.3 0 .5.1.7.3l.1.1 4.3 4.3v-13.1H198l-3.6 2.1-3.6-2.1h-1.4zM206 178.6V175l-3.1-1.7-1.8-3.1h-3.5l-3.1-1.8-3 1.8H188l-1.8 3.1-3.1 1.7v3.6l-1.7 3 1.7 3.1v3.5l3.1 1.8 1.8 3h3.5l3 1.8 3.1-1.8h3.5l1.8-3 3.1-1.8v-3.5l1.7-3.1z"/>
  </g>
  <path class="ssl1" d="M369.6 360.4l-65.3-.1h-65.5"/>
  <g>
    <path id="svg-concept" class="ssl6" d="M195.4 97.2V94c0-6.5-9.5-7-9.5 0v3.2"/>
    <path id="svg-concept" class="ssl4" d="M196.3 97.2h.7c.3 0 .6.3.6.6v9.6c0 .3-.3.6-.6.6h-12.7c-.3 0-.6-.3-.6-.6v-9.6c0-.3.3-.6.6-.6h12z"/>
    <path id="svg-concept" class="ssl4" d="M190.6 105c-1.2 0-2.2-1-2.2-2.2 0-1.2 1-2.2 2.2-2.2s2.2 1 2.2 2.2c0 1.2-1 2.2-2.2 2.2z"/>
    <animate attributeName="opacity" values="0;1;0" dur="1s" repeatCount="indefinite"/>
  </g>
  <path id="svg-concept" class="ssl6" d="M218.6 100.6h154.3"/>
  <g>
    <path id="svg-concept" class="ssl6" d="M97.2 340.1c0 2.2-1.8 4-4 4s-4-1.8-4-4 1.8-4 4-4 4 1.8 4 4z"/>
    <animateMotion path="M-20, 0 440 0 -20 0" begin="0s" dur="12s" repeatCount="indefinite"/>
  </g>
</svg>
