<svg version="1.1" id="Layer_1" xmlns="http://www.w3.org/2000/svg" x="0" y="0" viewBox="0 0 1100.6 600.5" xml:space="preserve">
  <style>
    .vnumbers0,.vnumbers1,.vnumbers2,.vnumbers3,.vnumbers6,.vnumbers7{fill:none;stroke:gray;stroke-linecap:round;stroke-linejoin:round;stroke-miterlimit:10}.vnumbers1,.vnumbers2,.vnumbers3,.vnumbers6,.vnumbers7{stroke:#ee5586}.vnumbers2,.vnumbers3,.vnumbers6,.vnumbers7{stroke:gray;stroke-width:5}.vnumbers3,.vnumbers6,.vnumbers7{stroke-width:2}.vnumbers6,.vnumbers7{stroke:#ee5586}.vnumbers7{stroke:gray;stroke-width:3}
  </style>
  <path class="vnumbers0" d="M292.2 522.3c0 2.7-2.2 4.9-4.9 4.9s-4.9-2.2-4.9-4.9 2.2-4.9 4.9-4.9c2.6 0 4.9 2.2 4.9 4.9zM272.1 372.1c0 2.7-2.2 4.9-4.9 4.9s-4.9-2.2-4.9-4.9 2.2-4.9 4.9-4.9c2.7.1 4.9 2.2 4.9 4.9zM247.1 361.9c0 2.7-2.2 4.9-4.9 4.9s-4.9-2.2-4.9-4.9 2.2-4.9 4.9-4.9 4.9 2.2 4.9 4.9zM217 340.9c0 2.7-2.2 4.9-4.9 4.9s-4.9-2.2-4.9-4.9 2.2-4.9 4.9-4.9 4.9 2.2 4.9 4.9zM191.8 331.8c0 2.7-2.2 4.9-4.9 4.9s-4.9-2.2-4.9-4.9 2.2-4.9 4.9-4.9 4.9 2.2 4.9 4.9zM180.2 306.3c0 2.7-2.2 4.9-4.9 4.9s-4.9-2.2-4.9-4.9 2.2-4.9 4.9-4.9 4.9 2.2 4.9 4.9zM207.2 309c0 2.7-2.2 4.9-4.9 4.9s-4.9-2.2-4.9-4.9 2.2-4.9 4.9-4.9 4.9 2.2 4.9 4.9zM226.9 293.3c0 2.7-2.2 4.9-4.9 4.9s-4.9-2.2-4.9-4.9 2.2-4.9 4.9-4.9 4.9 2.2 4.9 4.9zM260.9 308.4c0 2.7-2.2 4.9-4.9 4.9s-4.9-2.2-4.9-4.9 2.2-4.9 4.9-4.9c2.7.1 4.9 2.2 4.9 4.9zM254.7 323.8c0 2.7-2.2 4.9-4.9 4.9s-4.9-2.2-4.9-4.9 2.2-4.9 4.9-4.9c2.7.1 4.9 2.2 4.9 4.9zM273.6 329.5c0 2.7-2.2 4.9-4.9 4.9s-4.9-2.2-4.9-4.9 2.2-4.9 4.9-4.9c2.7.1 4.9 2.2 4.9 4.9zM256 289.8c0 2.7-2.2 4.9-4.9 4.9s-4.9-2.2-4.9-4.9 2.2-4.9 4.9-4.9c2.8.1 4.9 2.2 4.9 4.9zM233 258c0 2.7-2.2 4.9-4.9 4.9s-4.9-2.2-4.9-4.9 2.2-4.9 4.9-4.9 4.9 2.2 4.9 4.9zM260.9 246c0 2.7-2.2 4.9-4.9 4.9s-4.9-2.2-4.9-4.9 2.2-4.9 4.9-4.9c2.6 0 4.9 2.2 4.9 4.9zM278.1 239.2c0 2.7-2.2 4.9-4.9 4.9s-4.9-2.2-4.9-4.9 2.2-4.9 4.9-4.9 4.9 2.2 4.9 4.9zM203.9 230.8c0 2.7-2.2 4.9-4.9 4.9s-4.9-2.2-4.9-4.9 2.2-4.9 4.9-4.9c2.7.1 4.9 2.2 4.9 4.9zM206.4 196.4c0 2.7-2.2 4.9-4.9 4.9s-4.9-2.2-4.9-4.9 2.2-4.9 4.9-4.9c2.8 0 4.9 2.2 4.9 4.9zM221 169c0 2.7-2.2 4.9-4.9 4.9s-4.9-2.2-4.9-4.9 2.2-4.9 4.9-4.9 4.9 2.2 4.9 4.9zM236 140.7c0 2.7-2.2 4.9-4.9 4.9s-4.9-2.2-4.9-4.9 2.2-4.9 4.9-4.9c2.8 0 4.9 2.2 4.9 4.9zM206.2 133.4c0 2.7-2.2 4.9-4.9 4.9s-4.9-2.2-4.9-4.9 2.2-4.9 4.9-4.9c2.7.1 4.9 2.2 4.9 4.9zM181.5 120.4c0 2.7-2.2 4.9-4.9 4.9s-4.9-2.2-4.9-4.9 2.2-4.9 4.9-4.9 4.9 2.2 4.9 4.9zM140.4 93c0 2.7-2.2 4.9-4.9 4.9s-4.9-2.2-4.9-4.9 2.2-4.9 4.9-4.9 4.9 2.2 4.9 4.9zM135 116.4c0 2.7-2.2 4.9-4.9 4.9s-4.9-2.2-4.9-4.9 2.2-4.9 4.9-4.9 4.9 2.2 4.9 4.9zM159.7 144.8c0 2.7-2.2 4.9-4.9 4.9s-4.9-2.2-4.9-4.9 2.2-4.9 4.9-4.9c2.8 0 4.9 2.2 4.9 4.9zM175.5 171.2c0 2.7-2.2 4.9-4.9 4.9s-4.9-2.2-4.9-4.9 2.2-4.9 4.9-4.9 4.9 2.2 4.9 4.9zM178.3 202.9c0 2.7-2.2 4.9-4.9 4.9s-4.9-2.2-4.9-4.9 2.2-4.9 4.9-4.9 4.9 2.2 4.9 4.9zM277 274.6c0 2.7-2.2 4.9-4.9 4.9s-4.9-2.2-4.9-4.9 2.2-4.9 4.9-4.9c2.8.1 4.9 2.2 4.9 4.9zM305.8 162.7c0 2.7-2.2 4.9-4.9 4.9s-4.9-2.2-4.9-4.9 2.2-4.9 4.9-4.9 4.9 2.2 4.9 4.9zM309.9 144.1c0 2.7-2.2 4.9-4.9 4.9s-4.9-2.2-4.9-4.9 2.2-4.9 4.9-4.9c2.9.1 4.9 2.2 4.9 4.9zM328.3 133.6c0 2.7-2.2 4.9-4.9 4.9s-4.9-2.2-4.9-4.9 2.2-4.9 4.9-4.9c2.6.1 4.9 2.2 4.9 4.9zM535.9 67.3c0 2.7-2.2 4.9-4.9 4.9s-4.9-2.2-4.9-4.9 2.2-4.9 4.9-4.9 4.9 2.2 4.9 4.9zM591.6 44.9c0 2.7-2.2 4.9-4.9 4.9s-4.9-2.2-4.9-4.9 2.2-4.9 4.9-4.9 4.9 2.2 4.9 4.9zM611.9 37.8c0 2.7-2.2 4.9-4.9 4.9s-4.9-2.2-4.9-4.9 2.2-4.9 4.9-4.9 4.9 2.2 4.9 4.9zM678.9 20.3c0 2.7-2.2 4.9-4.9 4.9s-4.9-2.2-4.9-4.9 2.2-4.9 4.9-4.9 4.9 2.2 4.9 4.9zM710.9 35.2c0 2.7-2.2 4.9-4.9 4.9s-4.9-2.2-4.9-4.9 2.2-4.9 4.9-4.9 4.9 2.2 4.9 4.9zM805.4 34.3c0 2.7-2.2 4.9-4.9 4.9s-4.9-2.2-4.9-4.9 2.2-4.9 4.9-4.9 4.9 2.2 4.9 4.9zM828.1 29.4c0 2.7-2.2 4.9-4.9 4.9s-4.9-2.2-4.9-4.9 2.2-4.9 4.9-4.9c2.7.1 4.9 2.2 4.9 4.9zM821.6 46.6c0 2.7-2.2 4.9-4.9 4.9s-4.9-2.2-4.9-4.9 2.2-4.9 4.9-4.9c2.7.1 4.9 2.2 4.9 4.9zM693.6 32.9c0 2.7-2.2 4.9-4.9 4.9s-4.9-2.2-4.9-4.9 2.2-4.9 4.9-4.9c2.7.1 4.9 2.2 4.9 4.9zM460.2 64.1c0 2.7-2.2 4.9-4.9 4.9s-4.9-2.2-4.9-4.9 2.2-4.9 4.9-4.9 4.9 2.2 4.9 4.9zM475.8 41.4c0 2.7-2.2 4.9-4.9 4.9s-4.9-2.2-4.9-4.9 2.2-4.9 4.9-4.9c2.7.1 4.9 2.2 4.9 4.9zM455.9 46.3c0 2.7-2.2 4.9-4.9 4.9s-4.9-2.2-4.9-4.9 2.2-4.9 4.9-4.9c2.8 0 4.9 2.2 4.9 4.9zM458 25.6c0 2.7-2.2 4.9-4.9 4.9s-4.9-2.2-4.9-4.9 2.2-4.9 4.9-4.9c2.8 0 4.9 2.2 4.9 4.9zM442.7 15.8c0 2.7-2.2 4.9-4.9 4.9s-4.9-2.2-4.9-4.9 2.2-4.9 4.9-4.9 4.9 2.2 4.9 4.9zM397.4 30.8c0 2.7-2.2 4.9-4.9 4.9s-4.9-2.2-4.9-4.9 2.2-4.9 4.9-4.9c2.8 0 4.9 2.2 4.9 4.9zM378.3 48.6c0 2.7-2.2 4.9-4.9 4.9s-4.9-2.2-4.9-4.9 2.2-4.9 4.9-4.9c2.6.1 4.9 2.2 4.9 4.9zM358.8 56.8c0 2.7-2.2 4.9-4.9 4.9s-4.9-2.2-4.9-4.9 2.2-4.9 4.9-4.9 4.9 2.1 4.9 4.9zM360.2 72.2c0 2.7-2.2 4.9-4.9 4.9s-4.9-2.2-4.9-4.9 2.2-4.9 4.9-4.9 4.9 2.2 4.9 4.9zM379.3 77.3c0 2.7-2.2 4.9-4.9 4.9s-4.9-2.2-4.9-4.9 2.2-4.9 4.9-4.9 4.9 2.2 4.9 4.9zM368.8 108.2c1-.8 2.2-1.4 3.3-2 .1-.1.3-.2.4-.4.7-.8 1.5-1.3 2.4-1.7-.9-1.3-2.4-2.2-4.1-2.2-2.7 0-4.9 2.2-4.9 4.9 0 1.2.4 2.2 1.1 3.1.5-.7 1.1-1.2 1.8-1.7zM410.3 84.4c0 2.7-2.2 4.9-4.9 4.9s-4.9-2.2-4.9-4.9 2.2-4.9 4.9-4.9 4.9 2.2 4.9 4.9zM421.9 57.7c0 2.7-2.2 4.9-4.9 4.9s-4.9-2.2-4.9-4.9 2.2-4.9 4.9-4.9c2.8 0 4.9 2.2 4.9 4.9zM339.4 118.1c0 2.7-2.2 4.9-4.9 4.9s-4.9-2.2-4.9-4.9 2.2-4.9 4.9-4.9c2.8 0 4.9 2.2 4.9 4.9zM319.6 112.5c0 2.7-2.2 4.9-4.9 4.9s-4.9-2.2-4.9-4.9 2.2-4.9 4.9-4.9c2.7.1 4.9 2.2 4.9 4.9zM323.9 91c0 2.7-2.2 4.9-4.9 4.9s-4.9-2.2-4.9-4.9 2.2-4.9 4.9-4.9 4.9 2.2 4.9 4.9zM307.8 86c0 2.7-2.2 4.9-4.9 4.9S298 88.7 298 86s2.2-4.9 4.9-4.9 4.9 2.2 4.9 4.9zM305.2 69c0 2.7-2.2 4.9-4.9 4.9s-4.9-2.2-4.9-4.9 2.2-4.9 4.9-4.9 4.9 2.2 4.9 4.9zM288.4 60c0 2.7-2.2 4.9-4.9 4.9s-4.9-2.2-4.9-4.9 2.2-4.9 4.9-4.9 4.9 2.2 4.9 4.9zM307.8 41.2c0 2.7-2.2 4.9-4.9 4.9s-4.9-2.2-4.9-4.9 2.2-4.9 4.9-4.9 4.9 2.2 4.9 4.9zM324.2 32.2c0 2.7-2.2 4.9-4.9 4.9s-4.9-2.2-4.9-4.9 2.2-4.9 4.9-4.9c2.6.1 4.9 2.2 4.9 4.9zM317.9 56.8c0 2.7-2.2 4.9-4.9 4.9s-4.9-2.2-4.9-4.9 2.2-4.9 4.9-4.9c2.9 0 4.9 2.1 4.9 4.9zM296.8 32.9c0 2.7-2.2 4.9-4.9 4.9s-4.9-2.2-4.9-4.9 2.2-4.9 4.9-4.9 4.9 2.2 4.9 4.9zM310.4 24c0 2.7-2.2 4.9-4.9 4.9s-4.9-2.2-4.9-4.9 2.2-4.9 4.9-4.9c2.7.1 4.9 2.2 4.9 4.9zM278.7 30.1c0 2.7-2.2 4.9-4.9 4.9s-4.9-2.2-4.9-4.9 2.2-4.9 4.9-4.9 4.9 2.2 4.9 4.9z"/>
  <path id="svg-concept" class="vnumbers1" d="M271 37.8c0 2.7-2.2 4.9-4.9 4.9s-4.9-2.2-4.9-4.9 2.2-4.9 4.9-4.9c2.8 0 4.9 2.2 4.9 4.9zM284.4 44.1c0 2.7-2.2 4.9-4.9 4.9s-4.9-2.2-4.9-4.9 2.2-4.9 4.9-4.9 4.9 2.2 4.9 4.9z"/>
  <path class="vnumbers0" d="M268.7 56.8c0 2.7-2.2 4.9-4.9 4.9s-4.9-2.2-4.9-4.9 2.2-4.9 4.9-4.9c2.8 0 4.9 2.1 4.9 4.9zM254.6 52.9c0 2.7-2.2 4.9-4.9 4.9s-4.9-2.2-4.9-4.9 2.2-4.9 4.9-4.9c2.7.1 4.9 2.2 4.9 4.9zM252.9 37.8c0 2.7-2.2 4.9-4.9 4.9s-4.9-2.2-4.9-4.9 2.2-4.9 4.9-4.9 4.9 2.2 4.9 4.9zM290.8 81.5c0 2.7-2.2 4.9-4.9 4.9s-4.9-2.2-4.9-4.9 2.2-4.9 4.9-4.9 4.9 2.2 4.9 4.9zM278.7 101.6c0 2.7-2.2 4.9-4.9 4.9s-4.9-2.2-4.9-4.9 2.2-4.9 4.9-4.9c2.7.1 4.9 2.2 4.9 4.9zM275.9 84.5c0 2.7-2.2 4.9-4.9 4.9s-4.9-2.2-4.9-4.9 2.2-4.9 4.9-4.9 4.9 2.2 4.9 4.9zM261.4 74.8c0 2.7-2.2 4.9-4.9 4.9s-4.9-2.2-4.9-4.9 2.2-4.9 4.9-4.9 4.9 2.1 4.9 4.9zM255.7 102.9c0 2.7-2.2 4.9-4.9 4.9s-4.9-2.2-4.9-4.9 2.2-4.9 4.9-4.9c2.7.1 4.9 2.2 4.9 4.9zM245.4 90.5c0 2.7-2.2 4.9-4.9 4.9s-4.9-2.2-4.9-4.9 2.2-4.9 4.9-4.9 4.9 2.1 4.9 4.9zM225.4 95.9c0 2.7-2.2 4.9-4.9 4.9s-4.9-2.2-4.9-4.9 2.2-4.9 4.9-4.9 4.9 2.2 4.9 4.9zM228.3 81.5c0 2.7-2.2 4.9-4.9 4.9s-4.9-2.2-4.9-4.9 2.2-4.9 4.9-4.9 4.9 2.2 4.9 4.9zM242.2 75.7c0 2.7-2.2 4.9-4.9 4.9s-4.9-2.2-4.9-4.9 2.2-4.9 4.9-4.9 4.9 2.2 4.9 4.9zM231.5 63c0 2.7-2.2 4.9-4.9 4.9s-4.9-2.2-4.9-4.9 2.2-4.9 4.9-4.9 4.9 2.2 4.9 4.9zM215 75.7c0 2.7-2.2 4.9-4.9 4.9s-4.9-2.2-4.9-4.9 2.2-4.9 4.9-4.9 4.9 2.2 4.9 4.9zM323.9 74.8c0 2.7-2.2 4.9-4.9 4.9s-4.9-2.2-4.9-4.9 2.2-4.9 4.9-4.9 4.9 2.2 4.9 4.9zM335.7 61.9c0 2.7-2.2 4.9-4.9 4.9s-4.9-2.2-4.9-4.9 2.2-4.9 4.9-4.9 4.9 2.2 4.9 4.9zM391.3 20.3c0 2.7-2.2 4.9-4.9 4.9s-4.9-2.2-4.9-4.9 2.2-4.9 4.9-4.9 4.9 2.2 4.9 4.9zM340.3 14.4c0 2.7-2.2 4.9-4.9 4.9s-4.9-2.2-4.9-4.9 2.2-4.9 4.9-4.9 4.9 2.2 4.9 4.9zM369.9 8.4c0 2.7-2.2 4.9-4.9 4.9s-4.9-2.2-4.9-4.9 2.2-4.9 4.9-4.9c2.7.1 4.9 2.2 4.9 4.9zM297.4 102.9c0 2.7-2.2 4.9-4.9 4.9s-4.9-2.2-4.9-4.9 2.2-4.9 4.9-4.9c2.8.1 4.9 2.2 4.9 4.9zM290.9 199.3c0 2.7-2.2 4.9-4.9 4.9s-4.9-2.2-4.9-4.9 2.2-4.9 4.9-4.9 4.9 2.2 4.9 4.9zM279.9 218.1c0 2.7-2.2 4.9-4.9 4.9s-4.9-2.2-4.9-4.9 2.2-4.9 4.9-4.9c2.7.1 4.9 2.2 4.9 4.9zM272.1 198.6c0 2.7-2.2 4.9-4.9 4.9s-4.9-2.2-4.9-4.9 2.2-4.9 4.9-4.9c2.7.1 4.9 2.2 4.9 4.9zM265 125.9c0 2.7-2.2 4.9-4.9 4.9s-4.9-2.2-4.9-4.9 2.2-4.9 4.9-4.9c2.8 0 4.9 2.2 4.9 4.9zM242.2 116.4c0 2.7-2.2 4.9-4.9 4.9s-4.9-2.2-4.9-4.9 2.2-4.9 4.9-4.9 4.9 2.2 4.9 4.9zM222.9 115.2c0 2.7-2.2 4.9-4.9 4.9s-4.9-2.2-4.9-4.9 2.2-4.9 4.9-4.9c2.8 0 4.9 2.2 4.9 4.9zM195.2 88.5c0 2.7-2.2 4.9-4.9 4.9s-4.9-2.2-4.9-4.9 2.2-4.9 4.9-4.9 4.9 2.2 4.9 4.9zM168.5 92.3c0 2.7-2.2 4.9-4.9 4.9s-4.9-2.2-4.9-4.9 2.2-4.9 4.9-4.9 4.9 2.2 4.9 4.9zM133.2 58.1c0 2.7-2.2 4.9-4.9 4.9s-4.9-2.2-4.9-4.9 2.2-4.9 4.9-4.9c2.7.1 4.9 2.2 4.9 4.9zM99.9 67.4c0 2.7-2.2 4.9-4.9 4.9s-4.9-2.2-4.9-4.9 2.2-4.9 4.9-4.9 4.9 2.2 4.9 4.9zM69.7 118.9c0 2.7-2.2 4.9-4.9 4.9s-4.9-2.2-4.9-4.9 2.2-4.9 4.9-4.9 4.9 2.2 4.9 4.9zM83.5 142.2c0 2.7-2.2 4.9-4.9 4.9s-4.9-2.2-4.9-4.9 2.2-4.9 4.9-4.9 4.9 2.2 4.9 4.9zM47.5 161.5c0 2.7-2.2 4.9-4.9 4.9s-4.9-2.2-4.9-4.9 2.2-4.9 4.9-4.9c2.7.1 4.9 2.2 4.9 4.9zM107.5 125c0 2.7-2.2 4.9-4.9 4.9s-4.9-2.2-4.9-4.9 2.2-4.9 4.9-4.9 4.9 2.2 4.9 4.9zM132.9 145.6c0 2.7-2.2 4.9-4.9 4.9s-4.9-2.2-4.9-4.9 2.2-4.9 4.9-4.9c2.8 0 4.9 2.2 4.9 4.9zM143.5 184.4c0 2.7-2.2 4.9-4.9 4.9s-4.9-2.2-4.9-4.9 2.2-4.9 4.9-4.9 4.9 2.2 4.9 4.9zM154.3 214.9c0 2.7-2.2 4.9-4.9 4.9s-4.9-2.2-4.9-4.9 2.2-4.9 4.9-4.9 4.9 2.1 4.9 4.9zM145.1 244.8c0 2.7-2.2 4.9-4.9 4.9s-4.9-2.2-4.9-4.9 2.2-4.9 4.9-4.9 4.9 2.2 4.9 4.9zM156.3 279.5c0 2.7-2.2 4.9-4.9 4.9s-4.9-2.2-4.9-4.9 2.2-4.9 4.9-4.9c2.8 0 4.9 2.2 4.9 4.9zM168.4 316c0 2.7-2.2 4.9-4.9 4.9s-4.9-2.2-4.9-4.9 2.2-4.9 4.9-4.9 4.9 2.2 4.9 4.9zM236.7 333.6c0 2.7-2.2 4.9-4.9 4.9s-4.9-2.2-4.9-4.9 2.2-4.9 4.9-4.9 4.9 2.2 4.9 4.9zM261.4 411c0 2.7-2.2 4.9-4.9 4.9s-4.9-2.2-4.9-4.9 2.2-4.9 4.9-4.9 4.9 2.2 4.9 4.9zM318.6 435.2c0 2.7-2.2 4.9-4.9 4.9s-4.9-2.2-4.9-4.9 2.2-4.9 4.9-4.9 4.9 2.2 4.9 4.9zM338.4 462c0 2.7-2.2 4.9-4.9 4.9s-4.9-2.2-4.9-4.9 2.2-4.9 4.9-4.9c2.8 0 4.9 2.2 4.9 4.9zM322.9 484.5c0 2.7-2.2 4.9-4.9 4.9s-4.9-2.2-4.9-4.9 2.2-4.9 4.9-4.9 4.9 2.2 4.9 4.9zM309.6 586.2l-19.7-24.4M308 555.9l4.4-19.2M309 530l-17.2-5.8M316 527.6l8.7-8.4M323.9 512.1l-4.5-22.9M330.9 511.6l15.1-19M346.3 483.7l-10.6-17.3M338.4 460.5h3.6M315.7 480.2L283 451.7M309.6 437.9l-24 10.4M280.9 441.9l1.6-45M286.5 394.8c2.9 1.4 5.7 2.7 8.6 4.1M316.4 439.3l13.9 19.1M277.4 443.4L259.2 415M256.4 406.1l9-29.5M246.6 364l15.8 6.1M271.4 369.6c2.2-1.8 4.5-3.7 6.7-5.5M278.2 389.7l-7.8-13.8M287.2 552.8v-25.6M287.2 517.4l2.8-28.9M291 518.2l24.2-29.7M351.6 484.5c3-2.9 6-5.8 9-8.8M283 451.7l7 27.1"/>
  <path class="vnumbers0" d="M353.7 488.5c0 2.7-2.2 4.9-4.9 4.9s-4.9-2.2-4.9-4.9 2.2-4.9 4.9-4.9c2.6.1 4.9 2.2 4.9 4.9zM318.6 589.8c0 2.7-2.2 4.9-4.9 4.9s-4.9-2.2-4.9-4.9 2.2-4.9 4.9-4.9c2.7.1 4.9 2.2 4.9 4.9zM285.9 446.8c0 2.7-2.2 4.9-4.9 4.9s-4.9-2.2-4.9-4.9 2.2-4.9 4.9-4.9 4.9 2.2 4.9 4.9zM287.4 392c0 2.7-2.2 4.9-4.9 4.9s-4.9-2.2-4.9-4.9 2.2-4.9 4.9-4.9c2.7.1 4.9 2.2 4.9 4.9zM312.2 585.2l-4.2-19.5M304.9 557.1l-15-30.7M292 558.9l11.2 1.9M292.2 557.6c0 2.7-2.2 4.9-4.9 4.9s-4.9-2.2-4.9-4.9 2.2-4.9 4.9-4.9c2.6.1 4.9 2.2 4.9 4.9zM312.9 560.8c0 2.7-2.2 4.9-4.9 4.9s-4.9-2.2-4.9-4.9 2.2-4.9 4.9-4.9c2.8 0 4.9 2.2 4.9 4.9zM231.8 338.5l6.6 20.5M216 343.8l22.4 15.2M226.9 335.7l-10.1 3.7M190.8 334.7l16.4 4.7M204 313.6l5.6 23.1M178.1 310.3l6.5 17.2M155.2 282.7l17.3 19.6M185.5 283.9l-7.6 18.2M140.2 249.7l9.4 25.3M147.7 219.7l-6.3 20.4M140.2 189l8.2 21M130.2 150l8.4 29.5M106.4 128.1l18.9 13.4M82.7 139.5l15.7-12.1M76.1 138l-8.9-14.8M153.6 283.9l7.4 27.3M199 312.6l-9 15.5M47.4 160.2L75 145.6M68.4 115.6l15.1-6M101.4 120.1L97 98.3M92.1 93.4l-10.2-.8M97 88.5l-.9-16.4M99.8 66.1l23.7-6.9M131.8 61.6l29.9 26.2M168.4 91.3l17-1.7M193.7 92l21.9 19M232.4 116.4l-9.5-1.2M245.9 102.9l-20.5-4.8M222.4 90.5l1-4.1M227.7 79.2l4.7-3.5M213.8 72.5l8.8-6.6M250.9 98.1l3-19.2M245.4 88.4l8.5-9.5M255.5 124.2l-13.3-6.1M271.5 118.1l-6.9 4.9M293.8 122.5l-12.4 9.3M317.6 153.7c-3-2-5.9-4.1-8.9-6.1M323.4 138.5v9.8M336 122.8c1 2.7 2.1 5.3 3.1 8M372.2 102l2.2-19.8M369.7 76.2l-9.5-4M355.3 67.3l-1.4-5.7M369.3 51.2L358.4 55M388.8 33.8l-11.9 10.9M413.9 28.9l-16.5 1.9M434 19l-10.4 5.9M448.9 23.3l-9 7.2M432 31.2l-8.8-1.6M447.4 43l-8.1-5.5M466.8 44.1l-10.9.7M468 45.5l-9.6 14.8M685.1 29.6l-7.8-5.7M332.3 137.5c-1.5-.6-3-1.3-4.5-1.9M273.9 138.5l-17.5 11.3M248.9 156.1l-7.5 10.2M241.5 174.5l22.6 20.4M268.9 203.3l4.1 10.4M283.6 203.5l-5.9 10.2M298.6 167l-10.1 27.4M303.3 167c.8 1.8 1.6 3.5 2.4 5.3M268.7 278.1l-13.5 9.1M252.2 294.6l2.7 8.8M246.5 291.5l-19.6 1.8M217.3 294.7l-12.1 10.4M218.3 290l-25.6-8.8M248.9 285l-18.6-22.7M263.9 327.5l-9.2-3.7M223.2 258l-23.2-1.4M190.3 255.2l-10.2-4.3M196.7 250.3l2.3-14.6M191.4 276.2l32.7-15.5M185.2 275.4l-10-19.7M170.3 250.9l-25.2-6.1M194.1 229.1l-18.8-21.7M199 226l2.6-24.7M203.9 230.8l35.3-12.6M233 256.6l19.9-6.9M273.2 234.3l.5-11.2M229.3 253.2l12.2-33.3M246.9 212.1l16.6-10.3M205.5 193.5l28.5-20.2M203.9 191.5l8.8-18.2M175.5 171.2l35.7-2.2M157.4 149l11.1 17.3M143.5 184.4l27.1 14.2M143.1 182.4l22.6-9.1M157.7 140.8l15.4-17M173.8 116.4l-8.1-19.6M130.1 111.5l5.4-13.6M128.1 140.7l2-19.4M226.3 140.7l-20.1-7.3M237.4 121.3l-6.3 14.5M150 144.8l-17.7-1.7M130.6 93l-28.7.4M135.5 88.1l-5.4-25.6M318.9 95.9l15.7 17.3M321.9 129l-5.2-12M310.2 110.5l-13.3-4.3M314.2 74.8l-9.3-4.1M325.9 61.9l-8.3-3.2M346.4 45.5l-12.5 12.7M382.4 23.3l-28 15.9M381.4 20.3l-27.5 3.9M384.4 15.9l-15.2-5.1M360 8.4l-19.7 6M318.9 95.9l-2.7 11.5M339 17.5l6 5M350.4 37l-1.5-6.5M345.9 39.2l-7.5-1.4M331.4 40.2l-15.8 12.2M421.9 59.2l28.5 4.9M414.4 61.9l-7.5 17.6M379.3 78.5l21.1 4.7M409.6 80.9L451 66.5M378.3 51.2l33.9 6.5M395.6 34.7l18.3 19.1M418.9 32.2L417 52.8M446.7 48.6L421.2 55M943.6 525.8l6.1-13.1M988.9 577.2l14.2-12.1M949.7 505.3l-19-15.6M960.1 479.4l-19.9-37.2M934.8 456.5l2.6-13.4M915.7 452.3l14.2 7.1M915.6 440.5l-1.9 4.8M913 436.3l-19.4 7.6M954.3 422.4l-8.3-7.6M937.6 410.1l-23-5.2M855.2 382l-13.9 7.2M818.4 404.9l-19.2-20.8M814.9 380.4l-10.1-23.2M823.4 358.6l-15-5.6M828.3 353.7l-8.2-21.8M800.7 348.4l-18.1-25.6M774.9 318.7l-5.4 1.2M672.7 139.3l-11.3-32.4M859.3 384.3l-2.4 15.3M842.4 395.6l10 6.9M955 504.1l6.6-15.5M933.9 553.8c0 2.7-2.2 4.9-4.9 4.9s-4.9-2.2-4.9-4.9 2.2-4.9 4.9-4.9 4.9 2.2 4.9 4.9zM990.6 582.1c0 2.7-2.2 4.9-4.9 4.9s-4.9-2.2-4.9-4.9 2.2-4.9 4.9-4.9 4.9 2.2 4.9 4.9zM1010.8 561.1c0 2.7-2.2 4.9-4.9 4.9s-4.9-2.2-4.9-4.9 2.2-4.9 4.9-4.9 4.9 2.2 4.9 4.9z"/>
  <path id="svg-concept" class="vnumbers1" d="M1026 546.2c0 2.7-2.2 4.9-4.9 4.9s-4.9-2.2-4.9-4.9 2.2-4.9 4.9-4.9 4.9 2.2 4.9 4.9z"/>
  <path class="vnumbers0" d="M1009.6 467.7c0 2.7-2.2 4.9-4.9 4.9s-4.9-2.2-4.9-4.9 2.2-4.9 4.9-4.9 4.9 2.2 4.9 4.9zM1016.5 446.6c0 2.7-2.2 4.9-4.9 4.9s-4.9-2.2-4.9-4.9 2.2-4.9 4.9-4.9c2.6 0 4.9 2.2 4.9 4.9zM998.6 425.7c0 2.7-2.2 4.9-4.9 4.9s-4.9-2.2-4.9-4.9 2.2-4.9 4.9-4.9c2.7.1 4.9 2.2 4.9 4.9zM984.4 414.8c0 2.7-2.2 4.9-4.9 4.9s-4.9-2.2-4.9-4.9 2.2-4.9 4.9-4.9c2.8 0 4.9 2.2 4.9 4.9zM968.8 412c0 2.7-2.2 4.9-4.9 4.9s-4.9-2.2-4.9-4.9 2.2-4.9 4.9-4.9 4.9 2.2 4.9 4.9zM947.2 411.7c0 2.7-2.2 4.9-4.9 4.9s-4.9-2.2-4.9-4.9 2.2-4.9 4.9-4.9 4.9 2.2 4.9 4.9zM962.9 425.6c0 2.7-2.2 4.9-4.9 4.9s-4.9-2.2-4.9-4.9 2.2-4.9 4.9-4.9 4.9 2.2 4.9 4.9zM915.6 402.5c0 2.7-2.2 4.9-4.9 4.9s-4.9-2.2-4.9-4.9 2.2-4.9 4.9-4.9 4.9 2.2 4.9 4.9zM901.7 405.8c0 2.7-2.2 4.9-4.9 4.9s-4.9-2.2-4.9-4.9 2.2-4.9 4.9-4.9c2.8 0 4.9 2.2 4.9 4.9zM897.9 390.7c0 2.7-2.2 4.9-4.9 4.9s-4.9-2.2-4.9-4.9 2.2-4.9 4.9-4.9 4.9 2.2 4.9 4.9zM878.3 401.5c0 2.7-2.2 4.9-4.9 4.9s-4.9-2.2-4.9-4.9 2.2-4.9 4.9-4.9 4.9 2.2 4.9 4.9zM889.2 370.5c0 2.7-2.2 4.9-4.9 4.9s-4.9-2.2-4.9-4.9 2.2-4.9 4.9-4.9 4.9 2.2 4.9 4.9zM882.7 358.6c0 2.7-2.2 4.9-4.9 4.9s-4.9-2.2-4.9-4.9 2.2-4.9 4.9-4.9c2.8 0 4.9 2.2 4.9 4.9zM826.7 408.4c0 2.7-2.2 4.9-4.9 4.9s-4.9-2.2-4.9-4.9 2.2-4.9 4.9-4.9c2.8 0 4.9 2.2 4.9 4.9zM801 380.3c0 2.7-2.2 4.9-4.9 4.9s-4.9-2.2-4.9-4.9 2.2-4.9 4.9-4.9 4.9 2.2 4.9 4.9zM823.6 384.3c0 2.7-2.2 4.9-4.9 4.9s-4.9-2.2-4.9-4.9 2.2-4.9 4.9-4.9 4.9 2.2 4.9 4.9zM808.2 352.5c0 2.7-2.2 4.9-4.9 4.9s-4.9-2.2-4.9-4.9 2.2-4.9 4.9-4.9c2.8 0 4.9 2.2 4.9 4.9zM833.2 358.6c0 2.7-2.2 4.9-4.9 4.9s-4.9-2.2-4.9-4.9 2.2-4.9 4.9-4.9 4.9 2.2 4.9 4.9zM823.6 327.2c0 2.7-2.2 4.9-4.9 4.9s-4.9-2.2-4.9-4.9 2.2-4.9 4.9-4.9 4.9 2.2 4.9 4.9zM784.7 318.7c0 2.7-2.2 4.9-4.9 4.9s-4.9-2.2-4.9-4.9 2.2-4.9 4.9-4.9c2.8 0 4.9 2.2 4.9 4.9zM825.8 288.2c0 2.7-2.2 4.9-4.9 4.9s-4.9-2.2-4.9-4.9 2.2-4.9 4.9-4.9 4.9 2.2 4.9 4.9zM808.8 237.4c0 2.7-2.2 4.9-4.9 4.9s-4.9-2.2-4.9-4.9 2.2-4.9 4.9-4.9 4.9 2.2 4.9 4.9zM864.6 102.5c0 2.7-2.2 4.9-4.9 4.9s-4.9-2.2-4.9-4.9 2.2-4.9 4.9-4.9c2.7.1 4.9 2.2 4.9 4.9zM787.9 120.5c0 2.7-2.2 4.9-4.9 4.9s-4.9-2.2-4.9-4.9 2.2-4.9 4.9-4.9 4.9 2.2 4.9 4.9zM742.4 152.5c0 2.7-2.2 4.9-4.9 4.9s-4.9-2.2-4.9-4.9 2.2-4.9 4.9-4.9 4.9 2.2 4.9 4.9zM783 145.1c0 2.7-2.2 4.9-4.9 4.9s-4.9-2.2-4.9-4.9 2.2-4.9 4.9-4.9 4.9 2.2 4.9 4.9zM762.4 193c0 2.7-2.2 4.9-4.9 4.9s-4.9-2.2-4.9-4.9 2.2-4.9 4.9-4.9c2.8 0 4.9 2.2 4.9 4.9zM905.7 86.4c0 2.7-2.2 4.9-4.9 4.9s-4.9-2.2-4.9-4.9 2.2-4.9 4.9-4.9c2.8 0 4.9 2.2 4.9 4.9zM700.6 77.1c0 2.7-2.2 4.9-4.9 4.9s-4.9-2.2-4.9-4.9 2.2-4.9 4.9-4.9c2.6 0 4.9 2.2 4.9 4.9zM720 48.6c0 2.7-2.2 4.9-4.9 4.9s-4.9-2.2-4.9-4.9 2.2-4.9 4.9-4.9 4.9 2.2 4.9 4.9zM792.8 66.9c0 2.7-2.2 4.9-4.9 4.9s-4.9-2.2-4.9-4.9 2.2-4.9 4.9-4.9c2.7.1 4.9 2.2 4.9 4.9zM813.8 83.4c0 2.7-2.2 4.9-4.9 4.9s-4.9-2.2-4.9-4.9 2.2-4.9 4.9-4.9 4.9 2.2 4.9 4.9zM833 58.8c0 2.7-2.2 4.9-4.9 4.9s-4.9-2.2-4.9-4.9 2.2-4.9 4.9-4.9c2.7.1 4.9 2.2 4.9 4.9zM875.7 58.8c0 2.7-2.2 4.9-4.9 4.9s-4.9-2.2-4.9-4.9 2.2-4.9 4.9-4.9c2.8 0 4.9 2.2 4.9 4.9zM918.7 55.6c0 2.7-2.2 4.9-4.9 4.9s-4.9-2.2-4.9-4.9 2.2-4.9 4.9-4.9c2.8 0 4.9 2.2 4.9 4.9zM967.6 56.4c0 2.7-2.2 4.9-4.9 4.9s-4.9-2.2-4.9-4.9 2.2-4.9 4.9-4.9 4.9 2.2 4.9 4.9zM940.6 122.5c0 2.7-2.2 4.9-4.9 4.9s-4.9-2.2-4.9-4.9 2.2-4.9 4.9-4.9 4.9 2.2 4.9 4.9zM928.6 106.4c0 2.7-2.2 4.9-4.9 4.9s-4.9-2.2-4.9-4.9 2.2-4.9 4.9-4.9 4.9 2.2 4.9 4.9zM910.6 136.2c0 2.7-2.2 4.9-4.9 4.9s-4.9-2.2-4.9-4.9 2.2-4.9 4.9-4.9 4.9 2.2 4.9 4.9zM882 145.1c0 2.7-2.2 4.9-4.9 4.9s-4.9-2.2-4.9-4.9 2.2-4.9 4.9-4.9 4.9 2.2 4.9 4.9zM871.2 178.3c0 2.7-2.2 4.9-4.9 4.9s-4.9-2.2-4.9-4.9 2.2-4.9 4.9-4.9 4.9 2.2 4.9 4.9zM893.8 184.1c0 2.7-2.2 4.9-4.9 4.9s-4.9-2.2-4.9-4.9 2.2-4.9 4.9-4.9c2.7.1 4.9 2.2 4.9 4.9zM898.7 204.2c0 2.7-2.2 4.9-4.9 4.9s-4.9-2.2-4.9-4.9 2.2-4.9 4.9-4.9c2.8 0 4.9 2.2 4.9 4.9zM889.8 231c0 2.7-2.2 4.9-4.9 4.9s-4.9-2.2-4.9-4.9 2.2-4.9 4.9-4.9c2.7.1 4.9 2.2 4.9 4.9zM873.1 247.3c0 2.7-2.2 4.9-4.9 4.9s-4.9-2.2-4.9-4.9 2.2-4.9 4.9-4.9 4.9 2.2 4.9 4.9zM884.7 268c0 2.7-2.2 4.9-4.9 4.9s-4.9-2.2-4.9-4.9 2.2-4.9 4.9-4.9c2.8 0 4.9 2.2 4.9 4.9zM894.3 281.4c0 2.7-2.2 4.9-4.9 4.9s-4.9-2.2-4.9-4.9 2.2-4.9 4.9-4.9 4.9 2.2 4.9 4.9zM906.9 271.6c0 2.7-2.2 4.9-4.9 4.9s-4.9-2.2-4.9-4.9 2.2-4.9 4.9-4.9c2.7.1 4.9 2.2 4.9 4.9zM918.2 264.7c0 2.7-2.2 4.9-4.9 4.9s-4.9-2.2-4.9-4.9 2.2-4.9 4.9-4.9 4.9 2.2 4.9 4.9zM918.2 245.5c0 2.7-2.2 4.9-4.9 4.9s-4.9-2.2-4.9-4.9 2.2-4.9 4.9-4.9 4.9 2.2 4.9 4.9zM918.2 229.7c0 2.7-2.2 4.9-4.9 4.9s-4.9-2.2-4.9-4.9 2.2-4.9 4.9-4.9 4.9 2.2 4.9 4.9zM846.6 261.2c0 2.7-2.2 4.9-4.9 4.9s-4.9-2.2-4.9-4.9 2.2-4.9 4.9-4.9 4.9 2.2 4.9 4.9zM865 290.1c0 2.7-2.2 4.9-4.9 4.9s-4.9-2.2-4.9-4.9 2.2-4.9 4.9-4.9 4.9 2.2 4.9 4.9zM845.1 317.4c0 2.7-2.2 4.9-4.9 4.9s-4.9-2.2-4.9-4.9 2.2-4.9 4.9-4.9c2.7.1 4.9 2.2 4.9 4.9zM946.9 181.1c0 2.7-2.2 4.9-4.9 4.9s-4.9-2.2-4.9-4.9 2.2-4.9 4.9-4.9 4.9 2.2 4.9 4.9zM938.9 153.9c0 2.7-2.2 4.9-4.9 4.9s-4.9-2.2-4.9-4.9 2.2-4.9 4.9-4.9 4.9 2.2 4.9 4.9zM683.2 106.5c0 2.7-2.2 4.9-4.9 4.9s-4.9-2.2-4.9-4.9 2.2-4.9 4.9-4.9 4.9 2.2 4.9 4.9zM704.7 110.9c0 2.7-2.2 4.9-4.9 4.9s-4.9-2.2-4.9-4.9 2.2-4.9 4.9-4.9c2.8 0 4.9 2.2 4.9 4.9zM678.9 144.2c0 2.7-2.2 4.9-4.9 4.9s-4.9-2.2-4.9-4.9 2.2-4.9 4.9-4.9 4.9 2.2 4.9 4.9zM665 102.5c0 2.7-2.2 4.9-4.9 4.9s-4.9-2.2-4.9-4.9 2.2-4.9 4.9-4.9c2.7.1 4.9 2.2 4.9 4.9zM627.8 93.4c0 2.7-2.2 4.9-4.9 4.9s-4.9-2.2-4.9-4.9 2.2-4.9 4.9-4.9 4.9 2.2 4.9 4.9zM645.2 70.4c0 2.7-2.2 4.9-4.9 4.9s-4.9-2.2-4.9-4.9 2.2-4.9 4.9-4.9c2.7.1 4.9 2.2 4.9 4.9zM875.7 344.4c0 2.7-2.2 4.9-4.9 4.9s-4.9-2.2-4.9-4.9 2.2-4.9 4.9-4.9c2.8 0 4.9 2.1 4.9 4.9zM872.6 316.8c0 2.7-2.2 4.9-4.9 4.9s-4.9-2.2-4.9-4.9 2.2-4.9 4.9-4.9c2.6.1 4.9 2.2 4.9 4.9zM865.6 422.4c0 2.7-2.2 4.9-4.9 4.9s-4.9-2.2-4.9-4.9 2.2-4.9 4.9-4.9 4.9 2.2 4.9 4.9zM843.1 419.9c0 2.7-2.2 4.9-4.9 4.9s-4.9-2.2-4.9-4.9 2.2-4.9 4.9-4.9c2.8 0 4.9 2.2 4.9 4.9zM887.1 423.8c0 2.7-2.2 4.9-4.9 4.9s-4.9-2.2-4.9-4.9 2.2-4.9 4.9-4.9c2.8.1 4.9 2.2 4.9 4.9zM914.4 419c0 2.7-2.2 4.9-4.9 4.9s-4.9-2.2-4.9-4.9 2.2-4.9 4.9-4.9 4.9 2.2 4.9 4.9zM911.3 513c0 2.7-2.2 4.9-4.9 4.9s-4.9-2.2-4.9-4.9 2.2-4.9 4.9-4.9 4.9 2.1 4.9 4.9zM897.4 499.2c0 2.7-2.2 4.9-4.9 4.9s-4.9-2.2-4.9-4.9 2.2-4.9 4.9-4.9 4.9 2.2 4.9 4.9zM850.6 513c0 2.7-2.2 4.9-4.9 4.9s-4.9-2.2-4.9-4.9 2.2-4.9 4.9-4.9c2.6 0 4.9 2.1 4.9 4.9zM853.3 470.6c0 2.7-2.2 4.9-4.9 4.9s-4.9-2.2-4.9-4.9 2.2-4.9 4.9-4.9 4.9 2.2 4.9 4.9zM893.6 443.9c0 2.7-2.2 4.9-4.9 4.9s-4.9-2.2-4.9-4.9 2.2-4.9 4.9-4.9 4.9 2.2 4.9 4.9zM922.8 436.3c0 2.7-2.2 4.9-4.9 4.9s-4.9-2.2-4.9-4.9 2.2-4.9 4.9-4.9 4.9 2.2 4.9 4.9zM916.2 450.2c0 2.7-2.2 4.9-4.9 4.9s-4.9-2.2-4.9-4.9 2.2-4.9 4.9-4.9 4.9 2.2 4.9 4.9zM939.7 461.4c0 2.7-2.2 4.9-4.9 4.9s-4.9-2.2-4.9-4.9 2.2-4.9 4.9-4.9c2.8 0 4.9 2.2 4.9 4.9zM931.6 487.1c0 2.7-2.2 4.9-4.9 4.9s-4.9-2.2-4.9-4.9 2.2-4.9 4.9-4.9c2.6 0 4.9 2.2 4.9 4.9zM889.8 473.9c0 2.7-2.2 4.9-4.9 4.9s-4.9-2.2-4.9-4.9 2.2-4.9 4.9-4.9 4.9 2.2 4.9 4.9zM942.3 438.2c0 2.7-2.2 4.9-4.9 4.9s-4.9-2.2-4.9-4.9 2.2-4.9 4.9-4.9 4.9 2.2 4.9 4.9zM967.4 483.6c0 2.7-2.2 4.9-4.9 4.9s-4.9-2.2-4.9-4.9 2.2-4.9 4.9-4.9c2.7.1 4.9 2.2 4.9 4.9zM884.2 446.7l-31.9 21M881.1 477l-32.5 32M889.8 495.1l-3-16.3M902.4 509l-6.3-6.4M848.4 475.5l-2.8 32.6M935.9 529.8h-12.3M909.8 509l13.8-18.1M929 482.2l3.6-15.9M888.7 448.8l-3.8 20.2M908.9 454.4l-19.1 17.1M921.7 487.1l-25.8 8.6M887.9 500.8l-37.3 11.1M915.6 526l-6.4-9M676 139.3l2.3-27.9M694.9 110.9l-12.2-2.3M699.8 106l-4.2-24M713 53.1l-14.4 19.6M737.6 55.9l-18-5.3M738.8 76.2l2.4-14.3M742.2 79.4l15.8-4.8M767 70.9l16-4M791.4 70.4l13 11.1M811.8 79.5l13.3-16.8M833 58.8h32.9M875.8 60.3l33.1-4.7M950.6 78.5l9.4-18M918.7 55.6l39.1.8M955.3 94.3l-5.2-6.7M954.9 102.4l-15.3 17.2M934 127.1V149M935.6 158.5l5 17.9M920.1 109.7l-12 21.6M926.8 110.2l6.1 8.3M901 137.5l-19.3 5.9M875.7 149.8l-7.6 23.6M889.8 189l3 10.3M870.8 180.3l13.2 2.8M887.4 226.8l6.4-17.7M871.7 243.9L882 235M870.6 251.5l7 12.1M843.8 256.9l19.8-11.4M857.2 286.2l-13-20.1M857.6 294.3l-14 19.5M836.2 320.2l-13.6 4.2M735.3 157.4l-5.4 15.1M820.9 293.1l-2.3 29.2M816.1 286.3l-43.3-6M755.2 255.3l7.7-10.2M770.4 239.5l28.6-2.1M808.2 239.6l29.6 18M806.2 242.3l14.7 41M783.3 315.3l33.7-24.2M865 243.6l-17.3-29.7M806.4 233.2l34.6-20.8M847.8 204.2l16.3-21.1M850 209.7l38.9-5.5M842.6 204.8l-15.4-32.6M827.3 163.6l44.9-18.5M829.1 167.4l32.3 8.8M761.6 190.2l58.4-20.4M820.4 164.3L783 147.6M741.8 150l31.4-4.9M740.2 156.6l15.4 31.9M759.6 197.9l6.2 38.4M761.6 195.8l40.1 37.2M718.4 235.5c12.8 1.3 29.2 3.9 42.5 5.7M737.6 147.6l-3.8-36.3M704.7 110.9l24.3-2.6M678.9 144.2l54.4 5.8M778.1 140.2l4.9-14.8M764 76.8l16.6 38.8M806.4 88.3l-20.3 27.9M813.1 86l41.7 14.5M869.2 63.7l-7.8 34M874 62.5l23.8 20M904.2 89.9l16.5 12.6M861.4 107.4l15.7 32.8M864.6 102.5l32.2-13.3M903.6 81.5l10.2-21M905.7 86.4l37-3M275.9 120.1l1.6 9.9M192.7 279.5c0 2.7-2.2 4.9-4.9 4.9s-4.9-2.2-4.9-4.9 2.2-4.9 4.9-4.9 4.9 2.2 4.9 4.9zM923.6 529.8c0 2.7-2.2 4.9-4.9 4.9s-4.9-2.2-4.9-4.9 2.2-4.9 4.9-4.9 4.9 2.2 4.9 4.9zM829.1 167.4c0 2.7-2.2 4.9-4.9 4.9s-4.9-2.2-4.9-4.9 2.2-4.9 4.9-4.9 4.9 2.2 4.9 4.9zM738.7 106.4c0 2.7-2.2 4.9-4.9 4.9s-4.9-2.2-4.9-4.9 2.2-4.9 4.9-4.9c2.8 0 4.9 2.2 4.9 4.9zM770.7 241.2c0 2.7-2.2 4.9-4.9 4.9s-4.9-2.2-4.9-4.9 2.2-4.9 4.9-4.9c2.8 0 4.9 2.2 4.9 4.9zM243.4 170.7c0 2.7-2.2 4.9-4.9 4.9s-4.9-2.2-4.9-4.9 2.2-4.9 4.9-4.9 4.9 2.2 4.9 4.9zM257.4 152.9c0 2.7-2.2 4.9-4.9 4.9s-4.9-2.2-4.9-4.9 2.2-4.9 4.9-4.9c2.9 0 4.9 2.2 4.9 4.9zM355.3 41.9c0 2.7-2.2 4.9-4.9 4.9s-4.9-2.2-4.9-4.9 2.2-4.9 4.9-4.9 4.9 2.2 4.9 4.9zM338.8 36c0 2.7-2.2 4.9-4.9 4.9S329 38.7 329 36s2.2-4.9 4.9-4.9 4.9 2.2 4.9 4.9zM353.9 25.6c0 2.7-2.2 4.9-4.9 4.9s-4.9-2.2-4.9-4.9 2.2-4.9 4.9-4.9 4.9 2.2 4.9 4.9z"/>
  <path class="vnumbers2" d="M719.4 347.5c-1.2 5.4-1.7 7.1-3.3 12.3M716.9 233.3c1.4 4.8 1.9 6.9 3 11.8"/>
  <path class="vnumbers3" d="M752.2 325c-1.8-5.3-7.2-8-7.4-8.1"/>
  <path id="svg-concept" d="M683.3 426.5c-40.9 57.4-107.3 94-183.1 94-124.5 0-225.4-100.9-225.4-225.4S375.7 69.6 500.2 69.7c76.8 0 145.9 40.3 184.6 96" fill="none" stroke="#ee5586" stroke-width="4" stroke-linecap="round" stroke-linejoin="round" stroke-miterlimit="10"/>
  <path class="vnumbers3" d="M736.8 321.5c2.1 0 3.8-.6 4.9-1.6l.9-.9c1.9-1.8 4.3-4.1 4.2-7-.1-2-1.3-4-3.8-5.9-2.9-2.3-5.2-3.4-7.2-3.4-2.5 0-4 1.6-5.7 3.3-.2.2-.3.4-.5.5-.1.1-.3.2-.6.2-1.1 0-3.8-1-10.2-7.3-2.8-2.8-4.8-5.1-6-7s-1.6-3.3-1.1-3.8l.5-.5c1.5-1.5 3-2.9 3.2-5 .3-2.2-.7-4.6-3.4-7.9-2-2.5-4.1-3.8-6.2-3.8-2.8 0-5 2.3-6.8 4.2l-.9.9c-1.1 1.1-1.6 2.8-1.6 5 0 2.1.6 4.6 1.6 7.3 2.3 6.1 6.8 12.6 12.7 18.5 4.5 4.5 9.5 8.3 14.3 10.8 4.5 2.2 8.5 3.4 11.7 3.4zM744.3 293.5c0-4.6-1.7-9.1-5.2-12.6s-8-5.2-12.6-5.2M753.6 292.1c0-6.4-2.4-12.8-7.3-17.7-4.9-4.9-11.3-7.3-17.7-7.3"/>
  <circle class="vnumbers3" cx="703.8" cy="198" r="36.4"/>
  <path class="vnumbers3" d="M685.7 187.2c0-1 .8-1.7 1.7-1.7h32.8c1 0 1.7.8 1.7 1.7v21.6c0 1-.8 1.7-1.7 1.7h-32.8c-1 0-1.7-.8-1.7-1.7v-21.6z"/>
  <path class="vnumbers3" d="M720.2 185.5l-16.4 12.1-16.4-12.1M698.6 194.1l-12 15.5M709 194.1l12.1 15.5"/>
  <circle class="vnumbers3" cx="703.8" cy="395.3" r="36.4"/>
  <path class="vnumbers3" d="M703.8 377.3v36M685.8 395.3h36"/>
  <circle id="svg-concept" class="vnumbers6" cx="414.9" cy="171" r="32.7"/>
  <circle class="vnumbers3" cx="412.5" cy="253.7" r="32.7"/>
  <circle class="vnumbers3" cx="414.9" cy="336.4" r="32.7"/>
  <circle class="vnumbers3" cx="414.9" cy="419.1" r="32.7"/>
  <circle transform="rotate(-80.008 497.7068 171.0288)" class="vnumbers3" cx="497.7" cy="171" r="32.7"/>
  <circle transform="rotate(-80.781 497.68 253.7234)" class="vnumbers3" cx="497.7" cy="253.7" r="32.7"/>
  <circle id="svg-concept" class="vnumbers6" cx="500.1" cy="336.4" r="32.7"/>
  <circle class="vnumbers3" cx="499.9" cy="419.1" r="32.7"/>
  <circle class="vnumbers3" cx="582.9" cy="171" r="32.7"/>
  <circle id="svg-concept" class="vnumbers6" cx="585.4" cy="253.7" r="32.7"/>
  <circle class="vnumbers3" cx="582.9" cy="336.4" r="32.7"/>
  <circle class="vnumbers3" cx="582.9" cy="419.1" r="32.7"/>
  <path class="vnumbers7" d="M419.4 187.1V155M419.4 155h-9M417.2 352.4v-32M417.2 320.4h-8.8M421.5 336.4h-13.1M508 170.9V155M492.2 171.1h15.9M508 155h-15.4M492.1 171.1v16M492.1 187.1h15.5M508 253.8v16M492.2 253.6h15.9M508 269.8h-15.4M492.1 253.6v-15.9M492.1 237.7h15.5M508 320.4v32.1M492.2 336.4H508M508 352.5h-15.4M492.2 352.5v-32.1M492.2 320.4h15.4M507.9 403v32.2M507.9 435.2h-15.6M491.9 435.2V403M491.9 403h15.5M593.3 187.1V155M577.4 171.1h16M593.3 155h-15.4M577.3 187.1h15.5M407 254.1V238M422.7 254.1h-15.8M422.8 238v31.4M577.5 269.4V238M593.2 254.1h-15.8M593.2 269.4h-15.8M593.3 254.1v15.3M593.2 320.7v31.4M577.5 336h15.8M577.5 320.7h15.8M577.4 336v-15.3"/>
  <g>
    <path class="vnumbers7" d="M422.9 408.9l-4 20.4M401.9 422.5h25.9M401.9 415.5h25.9M407.2 429.3l4-20.4"/>
  </g>
  <g>
    <path class="vnumbers7" d="M585.6 431.5v-24.9M576.6 427.9l17.5-17.6M576.8 410.3l17.6 17.6"/>
  </g>
  <path id="svg-concept" class="vnumbers1" d="M282.4 134.9c0 2.7-2.2 4.9-4.9 4.9s-4.9-2.2-4.9-4.9 2.2-4.9 4.9-4.9 4.9 2.2 4.9 4.9zM300.9 118.1c0 2.7-2.2 4.9-4.9 4.9s-4.9-2.2-4.9-4.9 2.2-4.9 4.9-4.9 4.9 2.2 4.9 4.9zM280.9 115.2c0 2.7-2.2 4.9-4.9 4.9s-4.9-2.2-4.9-4.9 2.2-4.9 4.9-4.9 4.9 2.2 4.9 4.9zM248.1 215.3c0 2.7-2.2 4.9-4.9 4.9s-4.9-2.2-4.9-4.9 2.2-4.9 4.9-4.9c2.7.1 4.9 2.2 4.9 4.9zM101.9 93.4c0 2.7-2.2 4.9-4.9 4.9s-4.9-2.2-4.9-4.9 2.2-4.9 4.9-4.9 4.9 2.2 4.9 4.9zM92.5 107.1c0 2.7-2.2 4.9-4.9 4.9s-4.9-2.2-4.9-4.9 2.2-4.9 4.9-4.9 4.9 2.2 4.9 4.9zM82.1 91.3c0 2.7-2.2 4.9-4.9 4.9s-4.9-2.2-4.9-4.9 2.2-4.9 4.9-4.9 4.9 2.2 4.9 4.9zM180.1 250.9c0 2.7-2.2 4.9-4.9 4.9s-4.9-2.2-4.9-4.9 2.2-4.9 4.9-4.9 4.9 2.2 4.9 4.9zM200 255.2c0 2.7-2.2 4.9-4.9 4.9s-4.9-2.2-4.9-4.9 2.2-4.9 4.9-4.9c2.8 0 4.9 2.2 4.9 4.9zM294.9 483.6c0 2.7-2.2 4.9-4.9 4.9s-4.9-2.2-4.9-4.9 2.2-4.9 4.9-4.9c2.8.1 4.9 2.2 4.9 4.9zM332.6 515.3c0 2.7-2.2 4.9-4.9 4.9s-4.9-2.2-4.9-4.9 2.2-4.9 4.9-4.9 4.9 2.2 4.9 4.9zM318.6 531.8c0 2.7-2.2 4.9-4.9 4.9s-4.9-2.2-4.9-4.9 2.2-4.9 4.9-4.9 4.9 2.2 4.9 4.9zM441 33.7c0 2.7-2.2 4.9-4.9 4.9s-4.9-2.2-4.9-4.9 2.2-4.9 4.9-4.9c2.8.1 4.9 2.2 4.9 4.9zM423.8 27.4c0 2.7-2.2 4.9-4.9 4.9s-4.9-2.2-4.9-4.9 2.2-4.9 4.9-4.9 4.9 2.2 4.9 4.9zM747.3 57.2c0 2.7-2.2 4.9-4.9 4.9s-4.9-2.2-4.9-4.9 2.2-4.9 4.9-4.9 4.9 2.2 4.9 4.9zM767.1 72.2c0 2.7-2.2 4.9-4.9 4.9s-4.9-2.2-4.9-4.9 2.2-4.9 4.9-4.9 4.9 2.2 4.9 4.9zM742.4 81.1c0 2.7-2.2 4.9-4.9 4.9s-4.9-2.2-4.9-4.9 2.2-4.9 4.9-4.9 4.9 2.2 4.9 4.9zM850 209.7c0 2.7-2.2 4.9-4.9 4.9s-4.9-2.2-4.9-4.9 2.2-4.9 4.9-4.9 4.9 2.2 4.9 4.9zM952.6 83.4c0 2.7-2.2 4.9-4.9 4.9s-4.9-2.2-4.9-4.9 2.2-4.9 4.9-4.9 4.9 2.2 4.9 4.9zM962.7 98.5c0 2.7-2.2 4.9-4.9 4.9s-4.9-2.2-4.9-4.9 2.2-4.9 4.9-4.9c2.8 0 4.9 2.2 4.9 4.9zM864.1 379.4c0 2.7-2.2 4.9-4.9 4.9s-4.9-2.2-4.9-4.9 2.2-4.9 4.9-4.9c2.8 0 4.9 2.2 4.9 4.9zM861.8 404.4c0 2.7-2.2 4.9-4.9 4.9s-4.9-2.2-4.9-4.9 2.2-4.9 4.9-4.9c2.7.1 4.9 2.2 4.9 4.9zM843.1 393c0 2.7-2.2 4.9-4.9 4.9s-4.9-2.2-4.9-4.9 2.2-4.9 4.9-4.9c2.8 0 4.9 2.2 4.9 4.9zM957.9 509c0 2.7-2.2 4.9-4.9 4.9s-4.9-2.2-4.9-4.9 2.2-4.9 4.9-4.9 4.9 2.2 4.9 4.9zM945.6 529.8c0 2.7-2.2 4.9-4.9 4.9s-4.9-2.2-4.9-4.9 2.2-4.9 4.9-4.9 4.9 2.2 4.9 4.9z"/>
  <g>
    <circle id="svg-concept" cx="725.1" cy="296" r="50.6" fill="none" stroke="#ee5586" stroke-width="3" stroke-linecap="round" stroke-linejoin="round" stroke-miterlimit="10"/>
    <animate attributeName="opacity" values="0;1;0" dur="1s" repeatCount="indefinite"/>
  </g>
  <g>
    <path id="svg-concept" d="M687 160.4c0 3.1-2.5 5.7-5.7 5.7-3.1 0-5.7-2.5-5.7-5.7s2.5-5.7 5.7-5.7 5.7 2.5 5.7 5.7z" fill="#fff" stroke="#ee5586" stroke-width="3" stroke-linecap="round" stroke-linejoin="round" stroke-miterlimit="10"/>
    <animateTransform attributeName="transform" dur="5s" from="0 495 305" to="-285 510 295" type="rotate" repeatCount="indefinite"/>
  </g>
</svg>
