<svg version="1.1" id="Layer_1" xmlns="http://www.w3.org/2000/svg" x="0" y="0" viewBox="0 0 1100.6 600.5" xml:space="preserve">
  <style>
    .voice0,.voice1,.voice4{fill:none;stroke:gray;stroke-linecap:round;stroke-linejoin:round;stroke-miterlimit:10}.voice1,.voice4{stroke:#ee5586;stroke-width:2}.voice4{stroke:gray}.voice5{stroke-width:3}.voice10,.voice5,.voice6,.voice7{fill:none;stroke:#ee5586;stroke-linecap:round;stroke-linejoin:round;stroke-miterlimit:10}.voice10,.voice7{stroke:gray}.voice7{stroke-dasharray:14;stroke-width:2}.voice10{stroke-width:3}
  </style>
  <path class="voice0" d="M854.9 278.2c-2.3 0-4.1-1.8-4.1-4.1s1.8-4.1 4.1-4.1 4.1 1.8 4.1 4.1-1.7 4.1-4.1 4.1zM800.6 219.4c-2.3 0-4.1-1.8-4.1-4.1s1.8-4.1 4.1-4.1 4.1 1.8 4.1 4.1c0 2.4-1.9 4.1-4.1 4.1z"/>
  <path id="svg-concept" class="voice1" d="M943.6 81.7c-2.3 0-4.1-1.8-4.1-4.1s1.8-4.1 4.1-4.1 4.1 1.8 4.1 4.1c0 2.2-1.8 4.1-4.1 4.1zM895.6 33.1c0 3-2.5 5.5-5.5 5.5s-5.5-2.5-5.5-5.5 2.5-5.5 5.5-5.5 5.5 2.5 5.5 5.5zM864.5 123c0 3-2.5 5.5-5.5 5.5s-5.5-2.5-5.5-5.5 2.5-5.5 5.5-5.5c3.1.1 5.5 2.4 5.5 5.5zM802 370.4c0 3-2.5 5.5-5.5 5.5s-5.5-2.5-5.5-5.5 2.5-5.5 5.5-5.5c3 .2 5.5 2.5 5.5 5.5z"/>
  <path d="M68.2 239.7H40.6c-1.6 0-3 1.3-3 3V294c0 1.6 1.3 3 3 3h27.7c1.6 0 3-1.3 3-3v-51.4c-.1-1.6-1.4-2.9-3.1-2.9z" fill-rule="evenodd" clip-rule="evenodd" fill="none" stroke="gray" stroke-width="2" stroke-linecap="round" stroke-linejoin="round" stroke-miterlimit="10"/>
  <path id="svg-concept" fill-rule="evenodd" clip-rule="evenodd" fill="none" stroke="#ee5586" stroke-width="2" stroke-linecap="round" stroke-linejoin="round" stroke-miterlimit="10" d="M42.2 245.6h24.3v41.5H42.2z"/>
  <path class="voice0" d="M50.2 251.7l-1.7 1.7M57.4 251.7l-9.8 9.8"/>
  <circle transform="rotate(-85.2689 149.189 100.5931)" class="voice4" cx="149.2" cy="100.6" r="35.4"/>
  <circle id="svg-concept" class="voice5" cx="54.4" cy="267.4" r="49.2"/>
  <circle transform="rotate(-77.807 149.1447 436.858)" class="voice4" cx="149.1" cy="436.8" r="35.4"/>
  <path class="voice4" d="M493.8 65.2s4.3 53.9 6 68.7c1.7 14.7 17.8 32.4 45 48.5 21.3 11.9 21.9 24.8 5.4 35.1-26.2 18.4 7 33.5 7.6 44.3.5 10.9-45.3 13.2-7.8 20.1 27.4 5.4-9.7 24.2.3 46.7 6.3 14.2 2.6 25.5-28.2 23.1-82.2-6.6-110.7 22.5-119.7 61.9M936.6 362.8c15.9 9.9 34.5 15.6 54.6 15.6 57.2 0 103.7-46.7 103.7-104.3s-46.3-104.3-103.7-104.3c-15.6 0-30.4 3.5-43.6 9.6"/>
  <path class="voice4" d="M1021.5 174.3s-2.1 26.5-3 33.7c-.9 7.2-8.7 16-22 23.9-10.4 5.9-10.7 12.1-2.6 17.2 12.9 9-3.5 16.5-3.7 21.9-.2 5.4 22.2 6.5 3.9 9.9-13.4 2.6 4.7 12-.1 23-3 7-1.2 12.5 13.7 11.4 40.2-3.2 54.1 11.1 58.6 30.5M132.7 87h33v22h-33zM129.9 114.3h38.5M149.4 401.5s-1.9 2.7-4.3 3.9c-2.3 1.3 0 3.1 0 3.1l-3.6 3.6-4.8 2.7-5.6-.6.6-3.6 3.1-1.9.5-2.7-.5-1.6M125.2 410.8v9.2l-1 .6-1 9.7s-3.7 1.5-4.2 1.5l-5.1 2.1M114.6 444.6l5-2.1 3.7 2.9-.6 1 3.7 4.2h1l3.7 2.1 1.6.8s-.2 1 0 1.5-1.3 2.5-1.3 2.5v2.7l2.3 2.7 1 1 4.2 2.1 4.3 5.7M167.8 406.8c-.5-.2-4.6 5.5-4.6 5.5l1.3 3.1-.8.6-2.9 1.5-3.6 1.9s-1.3 2.9-2.3 3.7c-1 .8-3.4 2.7-3.4 2.7l-2.7 6.5-3.6 7.1.2 3.7 3.1 3.7 3.7-2.1 2.7 1.3.2 4.4 2.1 2.1s-.5 1.3-.6 1.6l-1.3 2.7-1.3.6.8 3.7 3.4 3.4s2.9-1.9 3.1-2.3c.2-.2 2.3-5 2.3-5l4.8-4.8 2.7-3.7 2.1-4.8-1-2.9-1.5-1.6 1-1.6s2.5-2.3 2.7-1.6c.2.6 1.3 4.8 1.3 4.8l3.6-1 .2-1 4.8-1.1"/>
  <path id="svg-concept" class="voice1" d="M1046.6 274.5c-.5 1.6 1.1 6.2 6.5 6.2 6.2 0 22.2-15.5 22-26.2-.2-8.6-6.4-12.6-13.4-12.6-7-.1-12.9 4.6-12.4 10.1"/>
  <path id="svg-concept" class="voice6" d="M1063.7 256.5c1.4 2.7 2.9 7-3.4 11.4M1057.3 260.6c-5.4-4-2.1-11.1 4.5-11.4 3.5-.1 6.4 1.9 7.6 4.9"/>
  <path id="svg-concept" class="voice5" d="M103.6 267.4h240.5"/>
  <path class="voice7" d="M184.6 141.1l125.6 107.4M304.1 287.8L184.6 395.7"/>
  <path d="M913.2 278.1c-2.1 0-3.7-1.6-3.7-3.7s1.6-3.7 3.7-3.7 3.7 1.6 3.7 3.7c.1 2-1.6 3.7-3.7 3.7z" fill="none" stroke="#fff" stroke-linecap="round" stroke-linejoin="round" stroke-miterlimit="10"/>
  <path class="voice0" d="M947.3 217.4c-2.1 0-3.7-1.6-3.7-3.7s1.6-3.7 3.7-3.7 3.7 1.6 3.7 3.7c.1 2.1-1.7 3.7-3.7 3.7z"/>
  <path class="voice4" d="M909.5 151.4c-2.1 0-3.7-1.6-3.7-3.7s1.6-3.7 3.7-3.7 3.7 1.6 3.7 3.7c-.1 2-1.7 3.7-3.7 3.7z"/>
  <path id="svg-concept" class="voice1" d="M939.6 328.7c0 2.7-2.2 5-5 5-2.7 0-5-2.2-5-5 0-2.7 2.2-5 5-5 2.7 0 5 2.3 5 5zM977.7 128c0 2.7-2.2 5-5 5s-5-2.2-5-5c0-2.7 2.2-5 5-5s5 2.1 5 5z"/>
  <path id="svg-concept" class="voice6" d="M867.9 209.9c0 2.7-2.2 5-5 5s-5-2.2-5-5 2.2-5 5-5c2.7.1 5 2.3 5 5z"/>
  <path class="voice0" d="M15.6 595.4v-14.3M31.9 595.4V551M48.3 595.4v-34.1M64.7 595.4V523M81.1 595.4v-7.1"/>
  <path id="svg-concept" class="voice1" d="M97.4 595.4v-36.2M113.8 595.4V523"/>
  <path class="voice0" d="M130.2 595.4v-51.2M146.5 595.4v-61.5M162.8 595.4v-47.8M179.2 595.4v-30.7"/>
  <path id="svg-concept" class="voice1" d="M195.6 595.4v-14.3M212 595.4v-51.9M228.4 595.4v-61.5"/>
  <path class="voice0" d="M244.7 595.4v-30.7M261.1 594.8V523M277.5 595.4v-51.9M293.9 595.4v-36.2M310.2 595.4V523M326.6 595.4v-15.3M342.9 595.4v-25.9M359.3 595.4V514M375.6 595.4v-59.5"/>
  <path id="svg-concept" class="voice1" d="M392 595.4v-41M408.4 595.4V523M424.8 595.4v-59.5M441.1 595.4v-29.7"/>
  <path class="voice0" d="M457.5 595.4v-41M473.9 595.4v-25.9M490.3 595.4v-61.5M506.6 595.4v-78.6M522.9 595.4v-59.5M539.3 595.4v-34.1"/>
  <path id="svg-concept" class="voice1" d="M555.7 595.4V523"/>
  <path class="voice0" d="M572.1 595.4v-51.2M588.4 595.4v-25.9M604.4 595.4v-36.2M620.7 595.4v-51.9M637.1 595.4v-15.3M653.5 595.4v-25.9M669.9 595.4V514M686.2 595.4v-59.5"/>
  <path id="svg-concept" class="voice1" d="M702.6 595.4v-41M719 595.4V523M735.4 595.4v-92.3M751.7 595.4v-29.7"/>
  <path class="voice0" d="M768 595.4v-41M784.4 595.4v-25.9M800.8 595.4v-61.5M817.2 595.4v-78.6M833.5 595.4v-59.5M849.9 595.4v-34.1"/>
  <path id="svg-concept" class="voice1" d="M866.3 595.4V523"/>
  <path class="voice0" d="M882.7 595.4v-51.2M899 595.4v-25.9M899 595.4V514M915.3 595.4v-59.5"/>
  <path id="svg-concept" class="voice1" d="M931.7 595.4v-41M948 595.4V523M964.4 595.4v-92.3M980.8 595.4v-29.7"/>
  <path class="voice0" d="M997.1 595.4v-41M1013.5 595.4v-25.9M1029.9 595.4v-61.5M1046.3 595.4v-78.6M1062.6 595.4v-59.5M1079 595.4v-34.1"/>
  <path id="svg-concept" class="voice1" d="M1095.4 595.4v-41"/>
  <path id="svg-concept" d="M667.4 447.9C635 468 596.8 479.6 556 479.6c-117 0-211.9-94.9-211.9-211.9S438.9 55.9 555.9 55.9c31.9 0 62.1 7 89.1 19.7" fill="none" stroke="#ee5586" stroke-width="4" stroke-linecap="round" stroke-linejoin="round" stroke-miterlimit="10"/>
  <g>
    <path class="voice10" d="M679.6 95.8c53.4 38.4 88.1 101.2 88.1 172 0 58-23.3 110.5-61.1 148.9"/>
    <animate accumulate="none" additive="replace" attributeName="opacity" begin="1s" calcMode="linear" dur="2s" fill="remove" repeatCount="indefinite" restart="always" values="0;3;0"/>
  </g>
  <g>
    <path class="voice10" d="M640.1 137.2c47.1 25.6 79.1 75.5 79.1 132.9 0 43.8-18.6 83.1-48.3 110.8"/>
    <animate accumulate="none" additive="replace" attributeName="opacity" begin="2s" calcMode="linear" dur="2s" fill="remove" repeatCount="indefinite" restart="always" values="0;3;0"/>
  </g>
  <g>
    <path class="voice4" d="M612.1 177.1c31.5 19 52.5 53.5 52.5 93.1 0 33.7-15.4 63.8-39.4 83.8"/>
    <animate accumulate="none" additive="replace" attributeName="opacity" begin="3s" calcMode="linear" dur="2s" fill="remove" repeatCount="indefinite" restart="always" values="0;3;0"/>
  </g>
  <g>
    <path id="svg-concept" d="M341.7 267.8c0 3.6-2.8 6.5-6.5 6.5-3.6 0-6.5-2.8-6.5-6.5s2.8-6.5 6.5-6.5c3.6 0 6.5 2.8 6.5 6.5z" fill="#fff" stroke="#ee5586" stroke-width="3" stroke-linecap="round" stroke-linejoin="round" stroke-miterlimit="10"/>
    <animateMotion accumulate="none" additive="replace" begin="0s" calcMode="paced" dur="3s" fill="remove" path="M0, 0 -225 0 0 0" repeatCount="indefinite" restart="always"/>
  </g>
</svg>
